<svg width="50" height="50" viewBox="0 0 50 50" fill="none" xmlns="http://www.w3.org/2000/svg">
<circle cx="25" cy="25" r="24.5" fill="white" stroke="#DCE2E3"/>
<mask id="mask0" mask-type="alpha" maskUnits="userSpaceOnUse" x="0" y="0" width="50" height="50">
<circle cx="25" cy="25" r="24.5" fill="white" stroke="#DCE2E3"/>
</mask>
<g mask="url(#mask0)">
<path d="M38.082 8.75037V8.75626L35.244 11.5691V8.75037H32.4051V8.75067V8.75037L27.6746 13.4376V25.6247H29.5668V14.3754L33.3516 10.6254V25.6247H35.244V14.3754L39.0282 10.6254V25.6247H40.9207V8.75037H38.082Z" fill="#1E2321"/>
<path d="M8.75114 25.6249H16.3206V8.7505H13.4816V8.7509L13.4813 8.75L8.75 13.4379L8.75114 13.439V25.6249ZM14.4281 10.6255V23.7499H10.6436V14.3753L14.4281 10.6255Z" fill="#1E2321"/>
<path d="M25.7818 8.75061H18.2126V25.6249H25.7818V8.75061ZM20.1048 10.6256H23.8894V23.7501H20.1048V10.6256Z" fill="#1E2321"/>
<path d="M8.75146 29.3757H40.9209V27.5006H8.75146V29.3757Z" fill="#1E2321"/>
<path d="M8.75146 31.2506V40.6251H10.6439V38.7504H21.9978V31.2506H8.75146ZM20.1055 36.8754H10.6439V33.1256H20.1055V36.8754Z" fill="#1E2321"/>
<path d="M23.8901 31.2506V38.7504H31.4596V40.6251H33.3517V38.7504H40.9211V31.2506H23.8901ZM25.7823 33.1256H31.4593V36.8754H25.7823V33.1256ZM39.0287 36.8754H33.3517V33.1256H39.0287V36.8754Z" fill="#1E2321"/>
</g>
</svg>
