<svg width="50" height="50" viewBox="0 0 50 50" fill="none" xmlns="http://www.w3.org/2000/svg">
<circle cx="25" cy="25" r="24.5" fill="white" stroke="#DCE2E3"/>
<mask id="mask0" mask-type="alpha" maskUnits="userSpaceOnUse" x="0" y="0" width="50" height="50">
<circle cx="25" cy="25" r="24.5" fill="white" stroke="#DCE2E3"/>
</mask>
<g mask="url(#mask0)">
<path d="M52.5 -2.5H-2.5V52.5H52.5V-2.5Z" fill="#FAEB00"/>
<path d="M4.57076 4.57076H45.4292V45.4292H4.57076V4.57076ZM3.125 46.875H46.875V3.125H3.125V46.875Z" fill="#FAEB00"/>
<path d="M24.8042 29.3786L13.3445 40.8384L8.81787 36.3118L20.2776 24.852L17.8711 22.4455V17.747L16.2094 16.0853V20.2108L14.777 21.6433L8.93247 15.8561L7.5 17.2886C7.5 16.1999 7.7292 13.0485 10.3649 10.47C13.2299 7.71967 16.324 8.98024 17.4127 10.0116L23.2572 15.7988L21.7674 17.2886L24.8042 20.3254L27.8411 17.2886L26.3513 15.7988L32.1958 9.95432C33.2845 8.92294 36.3786 7.66237 39.2436 10.4127C41.8793 13.0485 42.1085 16.1426 42.1085 17.2313L40.676 15.7988L34.8315 21.6433L33.3991 20.2108V16.0853L31.7374 17.747V22.4455L29.3309 24.852L40.7906 36.3118L36.264 40.8384L24.8042 29.3786Z" fill="black"/>
</g>
</svg>
