<svg width="15" height="20" viewBox="0 0 15 20" fill="none" xmlns="http://www.w3.org/2000/svg">
<path d="M7.81708 19.6681L7.81816 19.6671L13.7018 13.755C14.1425 13.3121 14.1409 12.5957 13.6979 12.1548C13.255 11.714 12.5386 11.7157 12.0978 12.1586L8.14764 16.128L8.14764 1.13146C8.14764 0.506557 7.64108 2.73155e-08 7.01618 0C6.39127 -2.73156e-08 5.88471 0.506557 5.88471 1.13146L5.88471 16.1279L1.93454 12.1587C1.49372 11.7157 0.777338 11.714 0.334426 12.1549C-0.108598 12.5957 -0.110125 13.3122 0.33058 13.755L6.21419 19.6672L6.21527 19.6682C6.65756 20.1113 7.37626 20.1099 7.81708 19.6681Z" fill="#272727"/>
</svg>
