<svg width="32" height="32" viewBox="0 0 32 32" fill="none" xmlns="http://www.w3.org/2000/svg">
<path d="M15.9993 0C9.60903 0 4.41016 5.19887 4.41016 11.5891C4.41016 19.5196 14.7813 31.1621 15.2229 31.6538C15.6377 32.1158 16.3618 32.1149 16.7758 31.6538C17.2173 31.1621 27.5885 19.5196 27.5885 11.5891C27.5884 5.19887 22.3896 0 15.9993 0ZM15.9993 29.3581C12.5089 25.2119 6.49716 17.032 6.49716 11.5893C6.49716 6.34963 10.7598 2.087 15.9993 2.087C21.2389 2.087 25.5015 6.34963 25.5015 11.5892C25.5015 17.0322 19.4907 25.2106 15.9993 29.3581Z" fill="#221E1F"/>
<path d="M15.9987 5.7583C12.7836 5.7583 10.168 8.37399 10.168 11.5891C10.168 14.8042 12.7837 17.4199 15.9987 17.4199C19.2138 17.4199 21.8294 14.8042 21.8294 11.5891C21.8294 8.37399 19.2138 5.7583 15.9987 5.7583ZM15.9987 15.3329C13.9343 15.3329 12.255 13.6535 12.255 11.5891C12.255 9.52474 13.9344 7.8453 15.9987 7.8453C18.063 7.8453 19.7425 9.52474 19.7425 11.5891C19.7425 13.6535 18.063 15.3329 15.9987 15.3329Z" fill="#221E1F"/>
</svg>
