<svg width="23" height="23" viewBox="0 0 23 23" fill="none" xmlns="http://www.w3.org/2000/svg">
<path d="M19.773 3.22701C17.692 1.146 14.9252 0 11.9823 0C9.0394 0 6.27258 1.146 4.19157 3.22701C2.11056 5.30801 0.964607 8.07475 0.964607 11.0177C0.964607 12.8819 1.43651 14.7138 2.33225 16.3365L0 23L6.6634 20.6678C8.28615 21.5634 10.1181 22.0354 11.9823 22.0354C14.9252 22.0354 17.692 20.8893 19.7729 18.8084C21.854 16.7274 23 13.9606 23 11.0177C23 8.07471 21.854 5.30797 19.773 3.22701ZM17.429 15.1106L16.1571 16.3826C15.1034 17.4362 12.1136 16.155 9.47932 13.5207C6.84502 10.8864 5.56371 7.89668 6.61744 6.84295L7.88936 5.57103C8.15278 5.30761 8.5799 5.30761 8.84332 5.57103L10.4332 7.16095C10.6967 7.42437 10.6967 7.85149 10.4332 8.11491L9.47928 9.06887C10.4046 11.0224 11.9776 12.5953 13.9311 13.5207L14.8851 12.5667C15.1485 12.3033 15.5756 12.3033 15.839 12.5667L17.429 14.1566C17.6924 14.4201 17.6924 14.8472 17.429 15.1106Z" fill="#F2CB4D"/>
</svg>
