<svg width="36" height="35" viewBox="0 0 36 35" fill="none" xmlns="http://www.w3.org/2000/svg">
<g clip-path="url(#clip0)">
<path d="M31.6322 7.0865L18.1018 0.0770892C17.9011 -0.0270653 17.6605 -0.0256036 17.4613 0.0807437L4.30527 7.09016C4.08951 7.20528 3.95569 7.42528 3.95569 7.66465V16.8207C3.96358 24.3473 8.55026 31.1564 15.6434 34.1718L17.4695 34.9455C17.6402 35.0178 17.8345 35.0182 18.0055 34.9462L20.0632 34.0822C27.2879 31.1323 31.9881 24.2574 31.9889 16.6391V7.66465C31.9889 7.42272 31.8517 7.20016 31.6322 7.0865ZM30.6417 16.6391C30.6402 23.7322 26.2629 30.1324 19.5358 32.8773L19.5313 32.8795L17.7394 33.6316L16.1825 32.9713C9.57984 30.1646 5.31004 23.8269 5.30252 16.8207V8.0524L17.7894 1.39894L30.6417 8.05715V16.6391Z" fill="black"/>
<path d="M12.8206 16.3961C12.5789 16.1209 12.1537 16.0884 11.8707 16.3234C11.5876 16.558 11.5542 16.9717 11.7959 17.2465L15.3541 21.2976C15.5917 21.568 16.0078 21.605 16.2912 21.3806L24.5782 14.8258C24.8669 14.5977 24.9105 14.1851 24.6756 13.9045C24.441 13.6242 24.0166 13.5814 23.7279 13.8098L15.9514 19.9604L12.8206 16.3961Z" fill="black"/>
</g>
<defs>
<clipPath id="clip0">
<rect width="36" height="35" fill="white"/>
</clipPath>
</defs>
</svg>
