<svg width="26" height="25" viewBox="0 0 26 25" fill="none" xmlns="http://www.w3.org/2000/svg">
<path d="M6.68609 24.1073L6.68609 24.1074C6.68721 24.2509 6.67598 24.3364 6.66416 24.3843C6.61698 24.3944 6.53479 24.4028 6.39866 24.3991L6.39808 24.3991C4.79627 24.3569 3.19448 24.3691 1.60106 24.399C1.51432 24.4004 1.45448 24.3966 1.41413 24.3912C1.40898 24.3571 1.40453 24.3059 1.40469 24.2327L1.40469 24.2326C1.42004 16.3992 1.42004 8.56623 1.40469 0.73336L0.804693 0.734536H1.40469C1.40469 0.678034 1.40744 0.635674 1.41097 0.604729C1.44506 0.601478 1.49188 0.599392 1.55498 0.600378C3.22164 0.628182 4.89114 0.631773 6.56105 0.600351L6.56176 0.600337C6.60958 0.599381 6.64685 0.60058 6.67536 0.602676C6.67894 0.638121 6.68145 0.686137 6.68114 0.750046L6.68114 0.750336C6.66796 3.70814 6.66951 6.66764 6.67105 9.62568C6.67155 10.5839 6.67205 11.5419 6.67205 12.4997C6.67205 13.4854 6.67106 14.4717 6.67006 15.4585C6.66716 18.3397 6.66425 21.2243 6.68609 24.1073Z" fill="#F5F6F7" stroke="black" stroke-width="1.2"/>
<path d="M12.8685 10.3517C13.1585 10.3517 13.4486 10.3527 13.7385 10.3538C14.4634 10.3565 15.188 10.3592 15.912 10.3451C16.38 10.3354 16.5519 10.5135 16.5466 10.9707C16.53 12.5655 16.5273 14.1609 16.5466 15.7557C16.5525 16.2312 16.3474 16.3747 15.9013 16.3727C13.8498 16.3649 11.7982 16.367 9.74668 16.3792M12.8685 10.3517C12.5949 10.352 12.3212 10.3532 12.0475 10.3544C11.2844 10.3578 10.5207 10.3612 9.75668 10.3458M12.8685 10.3517L12.8693 10.9517C12.8692 10.9517 12.8691 10.9517 12.8689 10.9517M12.8685 10.3517V10.9517C12.8687 10.9517 12.8688 10.9517 12.8689 10.9517M9.75668 10.3458C9.31589 10.338 9.14332 10.522 9.14332 10.9329M9.75668 10.3458L9.74645 10.8535C9.74695 10.8525 9.7474 10.8514 9.7478 10.8505L9.74766 10.8587C9.74741 10.8604 9.74715 10.8622 9.7469 10.8643C9.74662 10.8665 9.74635 10.8688 9.74609 10.8713L9.74459 10.9457C9.74488 10.9457 9.74517 10.9457 9.74545 10.9457C10.5172 10.9612 11.2915 10.9578 12.0565 10.9544C12.3287 10.9532 12.5997 10.952 12.8689 10.9517M9.75668 10.3458L9.74366 15.8725M9.14332 10.9329C9.14733 12.5501 9.14597 14.1672 9.1393 15.7844C9.13733 16.1985 9.30794 16.3792 9.74668 16.3792M9.14332 10.9329L9.68024 10.9315M9.14332 10.9329H9.67838C9.67223 10.9372 9.66633 10.9409 9.66087 10.944C9.64879 10.9507 9.64131 10.9529 9.64131 10.9529L9.64135 10.9529C9.64226 10.9526 9.65055 10.9504 9.6685 10.9484C9.68596 10.9465 9.71047 10.9452 9.74335 10.9456C9.74732 12.5569 9.74595 14.168 9.73933 15.7792C9.70837 15.779 9.68496 15.7773 9.66793 15.7752C9.64957 15.7729 9.6409 15.7705 9.63958 15.7701L9.63948 15.77C9.63948 15.77 9.64655 15.7723 9.65802 15.7788C9.66195 15.781 9.66613 15.7836 9.67049 15.7866C9.67065 15.7867 9.67081 15.7868 9.67097 15.7869C9.68056 15.7935 9.69096 15.8019 9.70132 15.8122C9.70873 15.8196 9.71543 15.8273 9.72136 15.8351C9.72727 15.8429 9.73205 15.8502 9.73582 15.8568C9.73949 15.8632 9.74201 15.8686 9.74366 15.8725M9.74668 16.3792L9.74366 15.8725M9.74668 16.3792V15.7792C9.74615 15.7792 9.74562 15.7792 9.74509 15.7792C11.7979 15.767 13.8508 15.7649 15.9036 15.7727L15.904 15.7727C15.9195 15.7728 15.9337 15.7726 15.9467 15.7722M15.9467 15.7722C15.9468 15.8057 15.9452 15.8303 15.9431 15.8476C15.9409 15.8663 15.9385 15.8735 15.9389 15.8723C15.9394 15.8706 15.943 15.86 15.9526 15.8445C15.9625 15.8284 15.9763 15.8114 15.9935 15.796C16.0105 15.7808 16.0262 15.7713 16.037 15.7659C16.0412 15.7639 16.0442 15.7626 16.046 15.762C16.0463 15.7618 16.0465 15.7618 16.0467 15.7617C16.0482 15.7612 16.0482 15.7612 16.0465 15.7617C16.0462 15.7618 16.0459 15.7619 16.0455 15.762C16.0453 15.762 16.045 15.7621 16.0447 15.7621C16.0383 15.7638 16.0241 15.7667 15.9997 15.769C15.9848 15.7705 15.9673 15.7716 15.9467 15.7722ZM15.9467 15.7722C15.9467 15.7693 15.9467 15.7663 15.9466 15.7632L15.9466 15.7629C15.9273 14.1627 15.93 12.5627 15.9466 10.9644L15.9466 10.9637C15.9467 10.9571 15.9467 10.9508 15.9467 10.9448M15.9467 10.9448C15.9755 10.9447 15.9981 10.9459 16.0156 10.9476C16.0373 10.9497 16.048 10.9524 16.0505 10.9531C16.0526 10.9536 16.0449 10.9518 16.0314 10.9444C16.0173 10.9366 16.0001 10.9246 15.9832 10.9078C15.9663 10.891 15.9543 10.8739 15.9466 10.8598C15.94 10.8479 15.9377 10.8405 15.9377 10.8404C15.9377 10.8404 15.9377 10.8405 15.9378 10.8408C15.9384 10.8431 15.9411 10.8536 15.9433 10.8748C15.9451 10.8924 15.9465 10.9154 15.9467 10.9448ZM15.9467 10.9448C15.9397 10.9448 15.9323 10.9448 15.9245 10.945L15.9236 10.945C15.1923 10.9592 14.4568 10.9565 13.7293 10.9538C13.441 10.9527 13.154 10.9517 12.8689 10.9517" fill="#F5F6F7" stroke="black" stroke-width="1.2"/>
<path d="M17.53 0.00690781C18.1825 0.00690781 18.8349 0.0079729 19.4873 0.00903786C21.1183 0.0117002 22.7488 0.0143617 24.3778 0.000380514C25.4308 -0.00940238 25.8176 0.168662 25.8057 0.625901C25.7683 2.22069 25.7624 3.81613 25.8057 5.41092C25.8191 5.88642 25.3576 6.02991 24.3539 6.02796C19.738 6.02013 15.1219 6.02231 10.5059 6.03448C9.5187 6.03448 9.13482 5.8538 9.13932 5.43962C9.15426 3.82244 9.15723 2.20526 9.14832 0.588077M17.53 0.00690781C16.9146 0.00725065 16.2991 0.00845762 15.6834 0.00966495C13.9663 0.013032 12.2477 0.0164019 10.5283 0.00103804M17.53 0.00690781V0.606908L17.5303 0.606908M17.53 0.00690781L17.5303 0.606908M10.5283 0.00103804C9.53661 -0.00678827 9.14832 0.177146 9.14832 0.588077M10.5283 0.00103804L10.5236 0.601019C10.5235 0.601018 10.5234 0.601018 10.5232 0.601017C10.0999 0.597696 9.86605 0.633856 9.74878 0.671666C9.75698 2.23479 9.7541 3.79793 9.74006 5.36108C9.85682 5.39835 10.0878 5.43443 10.5051 5.43448M10.5283 0.00103804L10.5051 5.43448M9.14832 0.588077H9.74827H9.14832ZM10.5051 5.43448C15.1217 5.4223 19.7384 5.42013 24.355 5.42796H24.3551C24.8114 5.42885 25.0696 5.396 25.2039 5.35352C25.163 3.79065 25.1687 2.22895 25.2045 0.670311C25.0845 0.63196 24.84 0.596113 24.3834 0.600355L24.3829 0.600359C22.7507 0.614368 21.1154 0.611699 19.4832 0.609034C18.8316 0.607971 18.1805 0.606908 17.5303 0.606908M10.5051 5.43448L17.5303 0.606908" fill="#F5F6F7" stroke="black" stroke-width="1.2"/>
</svg>
