<svg width="26" height="26" viewBox="0 0 26 26" fill="none" xmlns="http://www.w3.org/2000/svg">
<g clip-path="url(#clip0)">
<path d="M23.6221 6.49471H23.2986V3.35306C23.2986 2.04188 22.2318 0.975098 20.9206 0.975098H3.67318C1.76991 0.975098 0.200667 2.43088 0.0195182 4.28734C-0.00814679 4.41852 0.00170438 3.24965 0.00170438 21.354C0.00170438 23.3785 1.64869 25.0254 3.67313 25.0254H23.622C24.9332 25.0254 26 23.9587 26 22.6475V8.87268C26 7.5615 24.9333 6.49471 23.6221 6.49471ZM3.67318 2.6085H20.9206C21.3312 2.6085 21.6652 2.94252 21.6652 3.35311V6.49477H3.67318C2.58123 6.49477 1.68733 5.63149 1.63751 4.55163C1.68728 3.47173 2.58118 2.6085 3.67318 2.6085ZM23.6221 23.3921H3.67318C2.54938 23.3921 1.63511 22.4778 1.63511 21.354V7.50913C2.21858 7.89996 2.91969 8.12807 3.67318 8.12807H23.6221C24.0326 8.12807 24.3667 8.46209 24.3667 8.87268V12.1836H18.2208C16.1277 12.1836 14.4248 13.8864 14.4248 15.9795C14.4248 18.0726 16.1277 19.7754 18.2208 19.7754H24.3667V22.6475C24.3667 23.0581 24.0326 23.3921 23.6221 23.3921ZM24.3667 18.1421H18.2208C17.0283 18.1421 16.0581 17.172 16.0581 15.9796C16.0581 14.7871 17.0283 13.817 18.2208 13.817H24.3667V18.1421Z" fill="black"/>
<path d="M18.5234 17.1626C19.1771 17.1626 19.707 16.6326 19.707 15.979C19.707 15.3253 19.1771 14.7954 18.5234 14.7954C17.8697 14.7954 17.3398 15.3253 17.3398 15.979C17.3398 16.6326 17.8697 17.1626 18.5234 17.1626Z" fill="black"/>
</g>
<defs>
<clipPath id="clip0">
<rect width="26" height="26" fill="white"/>
</clipPath>
</defs>
</svg>
