<svg width="28" height="17" viewBox="0 0 28 17" fill="none" xmlns="http://www.w3.org/2000/svg">
<path d="M23.235 9.74829C22.7823 9.15329 22.9118 8.88857 23.235 8.35671C23.2408 8.35064 26.9778 2.97621 27.3628 1.15357L27.3651 1.15236C27.5565 0.488143 27.3651 0 26.4399 0H23.3785C22.5991 0 22.2398 0.418929 22.0473 0.887643C22.0473 0.887643 20.4885 4.77093 18.2835 7.28814C17.5718 8.0155 17.2428 8.24864 16.8542 8.24864C16.6629 8.24864 16.3654 8.0155 16.3654 7.35129V1.15236C16.3654 0.355786 16.1472 0 15.502 0H10.6882C10.1994 0 9.90884 0.371572 9.90884 0.717643C9.90884 1.47293 11.0114 1.64657 11.1257 3.77157V8.38221C11.1257 9.3925 10.9495 9.57829 10.5587 9.57829C9.518 9.57829 6.99208 5.67921 5.49519 1.21671C5.19301 0.350928 4.89784 0.0012142 4.11264 0.0012142H1.05004C0.176173 0.0012142 0 0.420143 0 0.888857C0 1.717 1.0407 5.83464 4.8395 11.2746C7.37125 14.9879 10.9367 17 14.1802 17C16.1297 17 16.3677 16.5531 16.3677 15.7845C16.3677 12.2364 16.1916 11.9012 17.1681 11.9012C17.6208 11.9012 18.4001 12.1344 20.2202 13.9254C22.3004 16.0492 22.6423 17 23.8067 17H26.8681C27.7408 17 28.183 16.5531 27.9286 15.6716C27.3464 13.8174 23.4123 10.0033 23.235 9.74829Z" fill="#272727"/>
</svg>
