<svg width="15" height="20" viewBox="0 0 15 20" fill="none" xmlns="http://www.w3.org/2000/svg">
<path d="M7.8161 19.6681L7.81718 19.6671L13.7008 13.755C14.1416 13.3121 14.1399 12.5957 13.6969 12.1548C13.254 11.714 12.5376 11.7157 12.0968 12.1586L8.14666 16.128L8.14666 1.13146C8.14666 0.506557 7.64011 2.73155e-08 7.0152 0C6.39029 -2.73156e-08 5.88373 0.506557 5.88373 1.13146L5.88373 16.1279L1.93357 12.1587C1.49275 11.7157 0.776361 11.714 0.33345 12.1549C-0.109575 12.5957 -0.111102 13.3122 0.329604 13.755L6.21322 19.6672L6.21429 19.6682C6.65658 20.1113 7.37529 20.1099 7.8161 19.6681Z" fill="#272727"/>
</svg>
