<svg width="19" height="19" viewBox="0 0 19 19" fill="none" xmlns="http://www.w3.org/2000/svg">
<g clip-path="url(#clip0)">
<path d="M12.2428 0.109734C12.1557 0.0179749 12.0362 -0.0371094 11.9124 -0.0371094H4.50053C3.13284 -0.0371094 2.00391 1.08734 2.00391 2.45488V16.4708C2.00391 17.8385 3.13284 18.9629 4.50053 18.9629H14.5604C15.9281 18.9629 17.057 17.8385 17.057 16.4708V5.34158C17.057 5.22228 17.0019 5.10762 16.9239 5.02035L12.2428 0.109734ZM12.3758 1.58295L15.5104 4.87351H13.4728C12.867 4.87351 12.3758 4.38703 12.3758 3.78125V1.58295ZM14.5604 18.045H4.50053C3.64237 18.045 2.92178 17.3337 2.92178 16.4708V2.45488C2.92178 1.59672 3.63774 0.880769 4.50053 0.880769H11.458V3.78125C11.458 4.89642 12.3576 5.79139 13.4728 5.79139H16.1391V16.4708C16.1391 17.3337 15.4232 18.045 14.5604 18.045Z" fill="#2E2B2B"/>
<path d="M11 15H6" stroke="#221E1E" stroke-linecap="round"/>
<path d="M9 13L6 13" stroke="#221E1E" stroke-linecap="round"/>
</g>
<defs>
<clipPath id="clip0">
<rect width="19" height="19" fill="white"/>
</clipPath>
</defs>
</svg>
