<svg width="42" height="42" viewBox="0 0 42 42" fill="none" xmlns="http://www.w3.org/2000/svg">
<g clip-path="url(#clip0)">
<path d="M2.48869 22.0326V21.3152L1.81565 21.5635L0.666562 21.9873C0.628581 22.0013 0.586358 21.996 0.552845 21.9728C0.519715 21.9496 0.5 21.9117 0.5 21.8713V10.2005C0.5 4.89244 4.81913 0.573242 10.1272 0.573242C15.4352 0.573242 19.7543 4.89244 19.7541 10.2005V21.8713C19.7541 21.9119 19.7344 21.9496 19.7015 21.9726L19.7013 21.9727C19.6803 21.9874 19.6556 21.9951 19.6303 21.9951C19.616 21.9951 19.6017 21.9926 19.588 21.9876L19.588 21.9876L18.3259 21.5274L17.6546 21.2826V21.9971V33.8434C17.6546 38.0242 14.2525 41.4263 10.0717 41.4263C5.89086 41.4263 2.48869 38.0242 2.48869 33.8434V22.0326ZM3.08528 21.1222L2.73639 21.2329V21.5989V33.8434C2.73639 37.8887 6.02666 41.1789 10.0718 41.1789C14.1171 41.1789 17.4072 37.8887 17.4072 33.8434V21.5694V21.2017L17.0563 21.0921C12.5105 19.6728 7.62484 19.6831 3.08528 21.1222ZM19.0068 21.4799L19.095 20.9799H19.5067V18.1966V17.8467L19.1779 17.7269L18.0873 17.3292C12.9181 15.4447 7.22924 15.4554 2.06756 17.3594L1.07441 17.7258L0.747452 17.8464V18.1949V20.9762V21.6934L1.42037 21.4454L1.98188 21.2384L1.98201 21.2384C4.60401 20.2711 7.36144 19.7873 10.1187 19.7873C12.8468 19.7873 15.5745 20.2608 18.1722 21.2079L18.1722 21.2079L18.5067 21.3298V21.4799H19.0067H19.0068ZM19.0068 17.3689L19.0951 16.8689H19.5068V10.2005C19.5068 5.02808 15.2995 0.820776 10.1271 0.820776C4.95476 0.820776 0.747452 5.02808 0.747452 10.2004V16.8654V17.5828L1.42052 17.3345L1.98191 17.1274C1.98192 17.1274 1.98193 17.1274 1.98194 17.1274C7.19831 15.2032 12.9483 15.1923 18.1721 17.0969L18.1721 17.0969L18.5068 17.2188V17.3689H19.0068H19.0068Z" fill="#221E1F" stroke="#221E1F"/>
<path d="M24.2349 22.0326V21.3152L23.5618 21.5635L22.413 21.9873C22.3747 22.0014 22.3323 21.9959 22.299 21.9727C22.2659 21.9496 22.2461 21.9118 22.2461 21.8713V10.2005C22.2461 4.89244 26.5652 0.573242 31.8733 0.573242C37.1813 0.573242 41.5005 4.89245 41.5004 10.2005V21.8713C41.5004 21.9119 41.4806 21.9496 41.4478 21.9726L41.4476 21.9727C41.4265 21.9874 41.4018 21.9951 41.3765 21.9951C41.3622 21.9951 41.348 21.9926 41.3343 21.9876L41.3342 21.9876L40.0721 21.5274L39.4008 21.2826V21.9971V33.8434C39.4008 38.0242 35.9986 41.4263 31.8178 41.4263C27.637 41.4263 24.2349 38.0242 24.2349 33.8434V22.0326ZM24.8315 21.1223L24.4826 21.2329V21.5989V33.8434C24.4826 37.8887 27.7728 41.1789 31.818 41.1789C35.8632 41.1789 39.1534 37.8887 39.1534 33.8435V21.5695V21.2018L38.8024 21.0922C34.2567 19.6728 29.371 19.6831 24.8315 21.1223ZM40.5817 21.4498L41.253 21.6945V20.98V18.1968V17.8469L40.9243 17.727L39.8334 17.3293C34.6645 15.4449 28.9755 15.4556 23.8138 17.3595L23.8138 17.3595L22.8205 17.726L22.4935 17.8466V18.1951V20.9764V21.6938L23.1666 21.4455L23.7282 21.2383C26.3502 20.2711 29.1075 19.7873 31.8649 19.7873C34.5929 19.7873 37.3207 20.2608 39.9183 21.2079L40.5817 21.4498ZM40.753 17.369L40.8413 16.869H41.2529V10.2005C41.2529 5.02808 37.0456 0.820776 31.8733 0.820776C26.7008 0.820776 22.4936 5.02809 22.4935 10.2005V16.8654V17.5827L23.1666 17.3345L23.7282 17.1274C28.9445 15.2034 34.6946 15.1924 39.9183 17.0969L39.9183 17.097L40.2529 17.2189V17.369H40.7529H40.753Z" fill="#221E1F" stroke="#221E1F"/>
</g>
<defs>
<clipPath id="clip0">
<rect width="42" height="42" fill="white"/>
</clipPath>
</defs>
</svg>
