<svg width="57" height="57" viewBox="0 0 57 57" fill="none" xmlns="http://www.w3.org/2000/svg">
<path d="M55.6382 21.4801L28.9195 7.23012C28.6567 7.09029 28.3441 7.09029 28.0814 7.23012L1.36266 21.4801C1.07142 21.6351 0.890625 21.937 0.890625 22.2656C0.890625 22.5943 1.07142 22.8962 1.36177 23.0512L8.90625 27.075V38.2969H10.6875V28.0253L13.3594 29.4503V34.8609C11.8266 35.259 10.6875 36.6412 10.6875 38.2969C10.6875 39.1109 10.9725 39.8528 11.4338 40.454C10.9476 42.1168 10.6875 43.8312 10.6875 45.5662V48.0938C10.6875 48.4313 10.8781 48.7395 11.18 48.8909L12.1642 49.3834C12.809 49.7049 13.5295 49.875 14.25 49.875C14.9705 49.875 15.691 49.7049 16.3358 49.3825L17.32 48.89C17.6219 48.7395 17.8125 48.4313 17.8125 48.0938V45.5662C17.8125 43.8312 17.5524 42.1168 17.0662 40.454C17.5275 39.8528 17.8125 39.1109 17.8125 38.2969C17.8125 36.6412 16.6734 35.259 15.1406 34.8609V30.4006L28.0805 37.3021C28.2123 37.3715 28.3557 37.4063 28.5 37.4063C28.6443 37.4063 28.7877 37.3715 28.9195 37.3021L46.3125 28.0253V37.8569C41.3588 41.5895 35.2402 43.6406 29.0335 43.6406H27.9674C24.9099 43.6406 21.8871 43.1553 18.9819 42.1978L18.4252 43.89C21.5086 44.9062 24.7202 45.4219 27.9665 45.4219H29.0326C35.7782 45.4219 42.4249 43.141 47.75 38.9996C47.9664 38.8313 48.0938 38.5721 48.0938 38.2969V27.075L55.6382 23.0512C55.9286 22.8962 56.1094 22.5943 56.1094 22.2656C56.1094 21.937 55.9286 21.6351 55.6382 21.4801ZM16.0312 47.5434L15.5387 47.7892C14.7416 48.1873 13.7575 48.1873 12.9604 47.7892L12.4688 47.5434V45.5662C12.4688 44.2276 12.6317 42.9014 12.9532 41.6065C13.3558 41.765 13.7913 41.8594 14.25 41.8594C14.7087 41.8594 15.1442 41.765 15.5467 41.6065C15.8683 42.9014 16.0312 44.2276 16.0312 45.5662V47.5434ZM16.0312 38.2969C16.0312 39.2793 15.2324 40.0781 14.25 40.0781C13.2676 40.0781 12.4688 39.2793 12.4688 38.2969C12.4688 37.3145 13.2676 36.5156 14.25 36.5156C15.2324 36.5156 16.0312 37.3145 16.0312 38.2969ZM28.5 35.5057L15.7534 28.7075L26.7873 22.8232C27.2941 23.0298 27.8712 23.1563 28.5 23.1563C30.4977 23.1563 32.0625 21.9824 32.0625 20.4844C32.0625 18.9864 30.4977 17.8125 28.5 17.8125C26.5023 17.8125 24.9375 18.9864 24.9375 20.4844C24.9375 20.8914 25.0613 21.2708 25.2697 21.6137L13.8608 27.6985L3.67383 22.2656L28.5 9.02472L53.3262 22.2656L28.5 35.5057ZM26.7188 20.4844C26.7188 20.121 27.4125 19.5938 28.5 19.5938C29.5875 19.5938 30.2812 20.121 30.2812 20.4844C30.2812 20.8478 29.5875 21.375 28.5 21.375C27.4125 21.375 26.7188 20.8478 26.7188 20.4844Z" fill="#221E1F"/>
</svg>
