<?xml version="1.0" encoding="UTF-8"?>
<!DOCTYPE svg PUBLIC "-//W3C//DTD SVG 1.1//EN" "http://www.w3.org/Graphics/SVG/1.1/DTD/svg11.dtd">
<!-- Creator: CorelDRAW 2020 (64-Bit) -->
<svg xmlns="http://www.w3.org/2000/svg" xml:space="preserve" width="69.7379mm" height="82.3923mm" version="1.1" style="shape-rendering:geometricPrecision; text-rendering:geometricPrecision; image-rendering:optimizeQuality; fill-rule:evenodd; clip-rule:evenodd"
viewBox="0 0 158.19 186.9"
 xmlns:xlink="http://www.w3.org/1999/xlink"
 xmlns:xodm="http://www.corel.com/coreldraw/odm/2003">
 <defs>
  <style type="text/css">
   <![CDATA[
    .fil10 {fill:none}
    .fil2 {fill:#FEFEFE}
    .fil19 {fill:#EBECEC}
    .fil22 {fill:#D9DADA}
    .fil23 {fill:#C5C6C6}
    .fil30 {fill:#C2C3C3}
    .fil20 {fill:#B2B3B3}
    .fil25 {fill:#898989}
    .fil12 {fill:#C3C3C1}
    .fil33 {fill:#262626}
    .fil17 {fill:#313C3C}
    .fil7 {fill:#362B2E}
    .fil5 {fill:#40393B}
    .fil27 {fill:#474C4F}
    .fil24 {fill:#4F5C5C}
    .fil29 {fill:#5A6063}
    .fil4 {fill:#63565A}
    .fil26 {fill:#73787A}
    .fil34 {fill:#7B7B7B}
    .fil14 {fill:#828688}
    .fil15 {fill:#959F9F}
    .fil28 {fill:#9E9E9E}
    .fil36 {fill:#B4B4B4}
    .fil6 {fill:#BABAAD}
    .fil8 {fill:#C2C2C0}
    .fil35 {fill:#CFCFCF}
    .fil13 {fill:#D9DCDC}
    .fil3 {fill:#DBDBD2}
    .fil9 {fill:#DBDBD8}
    .fil1 {fill:#EFEFEB}
    .fil11 {fill:#F7F7F7}
    .fil32 {fill:#FBFBFB}
    .fil0 {fill:#FFAA00}
    .fil31 {fill:#474C4F;fill-rule:nonzero}
    .fil21 {fill:#4F5C5C;fill-rule:nonzero}
    .fil16 {fill:#828688;fill-rule:nonzero}
    .fil18 {fill:#959F9F;fill-rule:nonzero}
   ]]>
  </style>
 </defs>
 <g id="Layer_x0020_1">
  <metadata id="CorelCorpID_0Corel-Layer"/>
  <g id="_2532465191328">
   <circle class="fil0" cx="104.45" cy="143.32" r="43.58"/>
   <g>
    <circle class="fil0" cx="134.88" cy="19.56" r="13.8"/>
    <circle class="fil0" cx="72.05" cy="69.35" r="63.82"/>
    <circle class="fil0" cx="34.13" cy="34.13" r="34.13"/>
    <circle class="fil0" cx="116.59" cy="79.68" r="41.61"/>
   </g>
   <g>
    <path class="fil1" d="M26.18 67.64c4.04,13.81 7.13,46.03 7.55,59.09l89.55 0c1.48,-21.5 3.31,-38.11 6.05,-56.44l-5.32 -0.07c0.59,0.77 1.19,1.54 1.78,2.32 -5.23,-0.02 -10.46,-0.04 -15.69,-0.06 0.04,-0.43 0.08,-0.85 0.12,-1.28 1.91,0.11 3.81,0.21 5.72,0.32 0.16,-0.51 0.33,-1.03 0.49,-1.54 -8.83,-15.95 -14.68,-30.74 -18.55,-42.14 -8.85,14.81 -19.15,26.53 -29.28,39.22l-1.82 0.04c-12.06,-0.93 -26.04,-0.56 -40.59,0.54z"/>
    <path class="fil2" d="M72.89 126.73l32.47 0c0.53,-8.93 1.43,-22.19 2.66,-34.05 1.91,-18.47 2.17,-21.13 2.2,-21.45l0 -0.01 0 -0.01 0 -0 0 -0.01 0 -0.01 0 -0 0 -0c0,0 -11.36,-22.68 -16.34,-37.03l-0 -0c-7.46,11.29 -15.7,20.95 -23.89,31.13 0.54,6.95 2.87,38.47 2.89,61.43z"/>
    <path class="fil3" d="M119.35 126.73l3.93 0c1.48,-21.5 3.31,-38.11 6.05,-56.44l-5.32 -0.07c0.59,0.77 1.19,1.54 1.78,2.32l-2.09 -0.01c0.08,0.44 0.17,0.9 0.26,1.37 0,0 -4.48,39.9 -4.62,52.83z"/>
    <path class="fil4" d="M103.36 40.23l0.01 0.03 0.37 0.94c2.72,0.88 5.51,1.78 8.22,2.66 5.09,9.65 14.22,21.28 19.47,26.46 -2.47,-0.03 -4.95,-0.07 -7.42,-0.1 0.59,0.77 1.19,1.54 1.78,2.32 -5.23,-0.02 -10.46,-0.04 -15.69,-0.06 0.04,-0.43 0.08,-0.85 0.12,-1.28 1.91,0.11 3.81,0.21 5.72,0.32 0.16,-0.51 0.33,-1.03 0.49,-1.54 -5.81,-10.5 -10.34,-20.5 -13.85,-29.35l-0.01 -0.03 0.79 -0.35z"/>
    <path class="fil5" d="M96.12 26.89c0.29,-0.08 1.08,-0.13 1.61,-0.19 0.18,-0.02 0.39,0.12 0.48,0.1 1.81,4.94 2.92,7.86 5.14,13.43l-0.79 0.35c-1.82,-4.59 -3.37,-8.87 -4.69,-12.75 -9.18,14.98 -18.54,25.51 -29.28,39.22l-1.82 0.04c-13.7,-1.06 -29.88,-0.44 -46.55,1.03 15.77,-12.91 28.98,-23.74 44.75,-36.65 6.19,0.16 22.5,-1.27 31.16,-4.59z"/>
    <path class="fil3" d="M20.22 68.13l0.29 1.26c0,0 2.73,-0.27 9.57,-0.74 6.84,-0.48 16.83,-0.54 26.92,-0.29 10.09,0.25 9.68,0.41 9.68,0.41l2.4 0.08c0,0 11.12,-12.94 18.65,-22.87 7.53,-9.92 9.95,-14.32 9.95,-14.32 2.88,9.11 13.6,32.58 18.27,39.84 0.16,-0.51 0.33,-1.03 0.49,-1.54 -8.83,-15.95 -14.68,-30.74 -18.55,-42.14 -9.18,14.98 -18.54,25.51 -29.28,39.22l-1.82 0.04c-13.7,-1.06 -29.88,-0.44 -46.55,1.03z"/>
    <path class="fil6" d="M97.73 26.7l0 0 0.3 0.06c0.07,0.03 0.14,0.05 0.18,0.04 8.06,22.68 18.35,42.44 18.35,42.44l-0.13 0.73c-8.83,-15.95 -14.68,-30.74 -18.55,-42.14 -9.18,14.98 -18.54,25.51 -29.28,39.22 -0.61,0.01 -1.22,0.03 -1.82,0.04 -13.7,-1.06 -29.88,-0.44 -46.55,1.03l0.5 -0.41c3.78,-0.57 10.37,-1.2 19.08,-1.52 10.13,-0.37 16.08,-0.33 20.69,-0.35 1.81,-0.01 7.85,1.21 11.8,-4.48 1.66,-2.19 4.04,-5.28 7.42,-9.62 8.82,-11.34 16.5,-22.85 18.03,-25.05z"/>
    <polygon class="fil7" points="56.12,46.53 51.58,42.44 55.75,39.02 "/>
    <path class="fil8" d="M65.96 50.25c0,0 -1.72,2.65 -3.23,4.92 -1.51,2.27 -1.82,2.61 -1.82,2.61l0.43 0.6 5.35 -0.04 4.65 -8 -0.23 -0.56c0,0 -2.87,0.27 -5.17,0.48z"/>
    <path class="fil9" d="M65.96 50.25c0,0 -1.72,2.65 -3.23,4.92 -1.51,2.27 -1.82,2.61 -1.82,2.61l5.4 -0.04 4.82 -7.96c0,0 -2.87,0.27 -5.17,0.48z"/>
    <path class="fil8" d="M66.27 50.7l-4.42 6.62 4.21 -0.06 4.11 -6.85c0,0 -3.09,0.24 -3.9,0.3z"/>
    <polygon class="fil1" points="62.3,57.31 66.05,57.26 70.02,50.65 66.58,50.91 "/>
    <polygon class="fil7" points="53.16,41.14 49.78,64.43 51.07,42.86 "/>
    <path class="fil4" d="M52.18 42.93c-3.59,0.4 -11.03,-0.17 -17.59,-2.21 -0.28,-0.04 -0.56,-0.07 -0.85,-0.11 5.35,7.94 10.7,15.88 16.04,23.82 0.8,-7.17 1.6,-14.33 2.4,-21.5z"/>
    <polygon class="fil3" points="33.74,40.61 25.84,65.21 27.5,65.16 31.59,62.77 45.6,61.82 47.37,64.51 49.78,64.43 "/>
    <polygon class="fil8" points="27.5,65.16 31.59,62.77 45.6,61.82 34.19,44.21 "/>
    <polygon class="fil1" points="27.5,65.16 31.59,62.77 36.36,47.55 34.19,44.21 "/>
    <path class="fil9" d="M36.94 62.41c1.43,-0.1 2.87,-0.19 4.3,-0.29l-1.18 -8.85 -0.77 -1.18 -3.14 0.35c0.3,2.83 0.98,6.9 0.78,9.98l0 -0z"/>
    <path class="fil1" d="M36.72 52.99c0.23,1.42 0.75,6.21 0.77,8.92 0.96,-0.07 2.12,-0.13 3.08,-0.2 -0.23,-3.04 -0.76,-6.06 -1.03,-9.06 -0.85,0.13 -1.96,0.21 -2.81,0.34z"/>
    <path class="fil2" d="M37.04 55.48c0.04,0.4 0.09,0.83 0.13,1.27l2.53 -2.55c-0.06,-0.51 -0.11,-1.01 -0.16,-1.52l-2.5 2.79zm0.39 4.7l0.02 0.3 2.74 -2.39c-0.04,-0.31 -0.08,-0.62 -0.12,-0.93l-2.64 3.02z"/>
    <polygon class="fil7" points="31.59,62.77 47.37,64.51 45.6,61.82 "/>
    <path class="fil6" d="M52.08 42.94c-3.63,0.38 -10.99,-0.2 -17.49,-2.22 -0.28,-0.04 -0.56,-0.07 -0.85,-0.11 5.35,7.94 10.7,15.88 16.04,23.82 0,0 -12.72,-20.4 -13.14,-21.19 -0.41,-0.79 -0.91,-1.2 5.13,-0.33 6.03,0.87 10.4,0.07 10.4,0.07l-0.09 -0.04z"/>
    <path class="fil7" d="M96.12 26.89c0.29,-0.08 1.08,-0.13 1.61,-0.19l-1.63 0.75c0,0 -5.42,2.73 -14.14,3.97 -8.72,1.24 -12.78,1.36 -12.78,1.36l-11.57 13.67c0,0 5.71,-10.68 9.88,-14.99 7.34,-0.19 20.97,-1.65 28.63,-4.58z"/>
    <polygon class="fil2" points="68.07,27.72 68.45,32.35 57.61,46.45 56.12,46.53 55.09,25.74 56.62,24.91 "/>
    <polygon class="fil4" points="55.09,25.74 54.57,24.19 56.43,23.01 68.65,26.07 68.07,27.72 56.62,24.91 "/>
    <polygon class="fil7" points="55.09,25.74 54.57,24.19 56.43,23.01 56.62,24.91 "/>
    <polygon class="fil9" points="57.61,46.45 56.12,46.53 55.09,25.74 56.62,24.91 "/>
    <polygon class="fil9" points="67.84,27.66 68.13,32.26 57.61,46.45 68.45,32.35 68.07,27.72 "/>
    <polygon class="fil6" points="56.43,23.01 68.65,26.07 68.07,27.72 67.84,27.66 67.84,27.66 68.23,26.12 "/>
    <polygon class="fil3" points="109.97,73.71 125.83,73.92 125.8,72.53 110.11,72.47 "/>
    <polygon class="fil10" points="124.63,71.02 131.14,71.15 131.44,70.32 124.02,70.22 "/>
    <path class="fil8" d="M88.06 68.82l9.78 -0.07 0.14 -14.91c0,0 -0.96,-3.56 -4.31,-4.14 -3.35,-0.58 -5.68,1.55 -5.97,3.49 0.04,1.88 0.36,15.62 0.36,15.62z"/>
    <path class="fil11" d="M88.72 68.37l9.63 -0.07 0.14 -14.68c0,0 -0.95,-3.5 -4.25,-4.07 -3.3,-0.57 -5.59,1.52 -5.88,3.44 0.04,1.85 0.35,15.39 0.35,15.39z"/>
    <path class="fil8" d="M89.9 67.15l7.25 -0.05 0.13 -13.31c-0.16,-0.47 -0.44,-0.99 -0.71,-1.37 -0.62,-0.88 -1.45,-1.5 -2.53,-1.68 -1.1,-0.19 -2.24,-0.04 -3.18,0.6 -0.58,0.39 -1.13,1.03 -1.27,1.74 0.1,4.69 0.21,9.39 0.32,14.08z"/>
    <path class="fil1" d="M89.9 67.15l6.1 -0.05 0.15 -12.59c-0.14,-0.43 -0.41,-0.91 -0.65,-1.26 -0.57,-0.81 -1.33,-1.37 -2.32,-1.55 -1.01,-0.18 -2.06,-0.04 -2.92,0.55 -0.21,0.14 -0.41,0.32 -0.59,0.51 -0.04,0.1 -0.06,0.2 -0.08,0.3 0.1,4.69 0.21,9.39 0.32,14.08z"/>
    <path class="fil11" d="M92.44 51.37c0.34,-0.23 0.98,-0.16 1.22,0 0.29,5.81 0.33,10.1 -0,15.75 -0.41,0 -0.81,0 -1.22,0 0.08,-5.06 0.38,-9.81 0,-15.75z"/>
    <path class="fil11" d="M89.59 56.01l7.04 0.7 0.01 -0.81 -7.02 -0.93c0,0 -0.35,0.37 -0.03,1.03z"/>
    <path class="fil11" d="M89.62 59.15l6.85 0.41 -0.02 0.81 -6.72 -0.19c0,0 -0.28,-0.96 -0.12,-1.03z"/>
    <path class="fil12" d="M82.44 92.16c2.63,-8.07 15.64,-8.86 19.14,-0.22 -1.27,10.92 -2.68,29.31 -3.22,34.79 -4.85,0 -9.7,0 -14.55,0 0,0 0,-16.84 -1.36,-34.57z"/>
    <path class="fil8" d="M39.72 77.22c5.56,-0.08 11.11,-0.17 16.67,-0.25 0.57,9.75 1.14,19.35 1.71,29.09 -0.29,0.03 -0.83,0.24 -1.17,0.21 -4.35,-0.34 -10.47,-0.79 -13.63,-0.7 -1.03,-8.56 -2.05,-18.93 -3.58,-28.36z"/>
    <path class="fil9" d="M38.53 77.17c5.56,-0.08 11.12,-0.17 16.67,-0.25 0.57,9.79 1.15,19.57 1.72,29.36 -4.33,-0.38 -11.4,-0.74 -14.82,-0.64 -1.03,-8.6 -2.05,-19 -3.58,-28.47z"/>
    <path class="fil8" d="M40.07 78.6l5.18 -0.08c0.84,7.52 2.23,20.15 2.68,25.98 -1.87,-0.07 -3.6,-0.11 -4.78,-0.07 -0.84,-7.01 -1.83,-18.1 -3.08,-25.83zm7.22 -0.11l6.38 -0.1c0.47,7.98 1.1,18.57 1.57,26.55 -1.49,-0.13 -3.37,-0.26 -5.26,-0.35 -0.44,-5.73 -1.83,-18.46 -2.69,-26.1z"/>
    <path class="fil2" d="M45.3 79.03c0.85,7.57 2.18,19.77 2.62,25.47 -1.36,-0.05 -2.66,-0.09 -3.72,-0.09 -0.83,-7.03 -1.8,-17.78 -3.02,-25.32l4.11 -0.06zm3.11 -0.05l5.28 -0.08c0.46,7.92 1.08,18.23 1.54,26.04 -1.2,-0.1 -2.66,-0.21 -4.17,-0.29 -0.47,-5.92 -1.82,-18.21 -2.65,-25.67z"/>
    <path class="fil3" d="M82.44 92.16c0.45,-1.37 1.19,-2.53 2.14,-3.47 4.82,-1.63 10.96,0.03 13.2,5.56 -0.74,9.33 -1.66,26.67 -1.85,32.48l-12.12 0c0,0 0,-16.84 -1.36,-34.57z"/>
    <path class="fil1" d="M45.76 83.14c0.14,1.28 0.29,2.62 0.44,3.98l-3.45 3.88c-0.16,-1.41 -0.32,-2.81 -0.49,-4.2 1.1,-1.15 2.29,-2.41 3.5,-3.67zm0.92 8.54c0.08,0.79 0.17,1.57 0.25,2.34l-3.46 3.69 -0.26 -2.45 3.47 -3.59zm1.87 -11.45c0.42,-0.43 0.82,-0.86 1.22,-1.27l3.73 -0.06 -4.53 5.1c-0.15,-1.33 -0.29,-2.6 -0.42,-3.78zm0.94 8.55l4.51 -4.66 0.13 2.21 -4.4 4.7c-0.08,-0.75 -0.16,-1.5 -0.24,-2.25z"/>
   </g>
   <g>
    <path id="_101995728" class="fil13" d="M145.04 79.07c-17.38,-0.94 -35.06,-1.17 -56.84,-2.35l-10.39 4.32c0,0 1.17,17.38 2.72,39.43 1.56,22.05 3.48,33.44 3.48,33.44l57.79 -0.24c0,0 3.84,-70 3.24,-74.61l-0 0z"/>
    <path id="_101995656" class="fil14" d="M141.85 152.8l0 -0.04c-4.64,-0.11 -25.82,-0.57 -34.25,-0.52 -9.49,0.06 -11.91,-0.12 -11.91,-0.12 0,0 -1.97,-26.01 -3.76,-46.03 -1.8,-20.02 -2.36,-25.53 -2.36,-25.53 0,0 -0.11,5.51 1.24,22.59 1.35,17.08 2.25,31.22 2.98,39.31 0.73,8.09 0.87,10.55 0.87,10.55 0,0 9.26,0.77 47.19,-0.22l-0 0z"/>
    <path id="_101995728_0" class="fil15" d="M88.19 76.72l-11.22 4.74c0,0 1.99,16.97 3.55,39.02 1.56,22.05 3.48,33.44 3.48,33.44l10.5 -0.04c-1.75,-17.24 -5.41,-65.16 -6.32,-77.15z"/>
    <path class="fil16" d="M95.79 85.03l42.66 1.64c0.11,0 0.19,0.09 0.19,0.2l-2.2 59.21c-0,0.11 -0.09,0.19 -0.2,0.19l-35.39 -0.15c-0.1,-0 -0.18,-0.08 -0.19,-0.18l-5.07 -60.7c-0.01,-0.11 0.07,-0.2 0.18,-0.21l0.04 0zm42.45 2.02l-42.26 -1.62 5.04 60.31 35.03 0.15 2.19 -58.83z"/>
    <circle class="fil17" cx="118.97" cy="114.6" r="15.14"/>
    <path class="fil18" d="M119.67 99.09c4.09,0 7.79,1.66 10.47,4.34 2.68,2.68 4.34,6.38 4.34,10.47 0,4.09 -1.66,7.79 -4.34,10.47 -2.68,2.68 -6.38,4.34 -10.47,4.34 -4.09,0 -7.79,-1.66 -10.47,-4.34 -2.68,-2.68 -4.34,-6.38 -4.34,-10.47 0,-4.09 1.66,-7.79 4.34,-10.47 2.68,-2.68 6.38,-4.34 10.47,-4.34zm9.96 4.85c-2.55,-2.55 -6.07,-4.13 -9.96,-4.13 -3.89,0 -7.41,1.58 -9.96,4.13 -2.55,2.55 -4.13,6.07 -4.13,9.96 0,3.89 1.58,7.41 4.13,9.96 2.55,2.55 6.07,4.13 9.96,4.13 3.89,0 7.41,-1.58 9.96,-4.13 2.55,-2.55 4.13,-6.07 4.13,-9.96 0,-3.89 -1.58,-7.41 -4.13,-9.96z"/>
    <circle class="fil19" cx="119.67" cy="113.91" r="14.45"/>
    <path class="fil18" d="M119.67 100.63c3.66,0 6.98,1.49 9.39,3.89 2.4,2.4 3.89,5.72 3.89,9.39 0,3.66 -1.49,6.98 -3.89,9.38 -2.4,2.4 -5.72,3.89 -9.39,3.89 -3.66,0 -6.98,-1.49 -9.38,-3.89 -2.4,-2.4 -3.89,-5.72 -3.89,-9.38 0,-3.66 1.49,-6.98 3.89,-9.39 2.4,-2.4 5.72,-3.89 9.38,-3.89zm8.88 4.4c-2.27,-2.27 -5.41,-3.68 -8.88,-3.68 -3.47,0 -6.6,1.41 -8.88,3.68 -2.27,2.27 -3.68,5.41 -3.68,8.88 0,3.47 1.41,6.6 3.68,8.88 2.27,2.27 5.41,3.68 8.88,3.68 3.47,0 6.6,-1.41 8.88,-3.68 2.27,-2.27 3.68,-5.41 3.68,-8.88 0,-3.47 -1.41,-6.6 -3.68,-8.88z"/>
    <circle class="fil20" cx="119.67" cy="113.91" r="12.91"/>
    <path class="fil21" d="M117.6 98.19l-5.42 0 -0.03 -0c-0,0 -0.51,-0.04 -0.51,0.79l0 2.48c-0.25,0.16 -0.49,0.32 -0.72,0.5l0 -2.98c0,-1.49 1.08,-1.52 1.26,-1.51l0 -0 5.42 0 0 0.72z"/>
    <path class="fil22" d="M119.67 100.99c6.93,0 12.59,5.46 12.9,12.32l-5.88 0.32c-0.14,-3.75 -3.23,-6.74 -7.01,-6.74 -3.29,0 -6.06,2.27 -6.82,5.33l-5.7 -1.5c1.42,-5.59 6.49,-9.73 12.52,-9.73z"/>
    <path class="fil2" d="M123.11 101.46c1.92,0.53 3.65,1.49 5.1,2.77l-3.91 4.4c-0.78,-0.69 -1.72,-1.21 -2.76,-1.49l1.57 -5.68zm-5.79 5.83c-0.96,0.34 -1.83,0.89 -2.55,1.59l-4.15 -4.18c1.32,-1.3 2.93,-2.32 4.71,-2.95l1.98 5.55z"/>
    <path class="fil14" d="M130.22 104.28l-8.53 9.02 -0.37 -0.35 8.53 -9.02 -0.11 -0.11c-0.12,-0.12 -0.13,-0.31 -0.01,-0.43l3.9 -4.12c0.12,-0.12 0.31,-0.13 0.43,-0.01l0.59 0.56c0.12,0.12 0.13,0.31 0.01,0.43l-3.9 4.12c-0.12,0.12 -0.31,0.13 -0.43,0.01l-0.11 -0.11z"/>
    <path class="fil14" d="M115.01 125.95c-3.01,-1.17 -5.48,-3.43 -6.91,-6.3l5.3 -2.57c0.78,1.54 2.11,2.75 3.74,3.38l-2.13 5.5z"/>
    <path class="fil14" d="M130.91 124.28l-9.31 -8.21 0.34 -0.38 9.31 8.21 0.1 -0.11c0.11,-0.13 0.31,-0.14 0.43,-0.03l4.26 3.75c0.13,0.11 0.14,0.31 0.03,0.43l-0.54 0.61c-0.11,0.13 -0.31,0.14 -0.43,0.03l-4.26 -3.75c-0.13,-0.11 -0.14,-0.31 -0.03,-0.43l0.1 -0.11z"/>
    <path class="fil14" d="M108.48 105.07l9.15 8.39 0.35 -0.38 -9.15 -8.39 0.1 -0.11c0.11,-0.12 0.11,-0.32 -0.02,-0.43l-4.19 -3.83c-0.12,-0.11 -0.32,-0.11 -0.43,0.02l-0.55 0.6c-0.11,0.12 -0.11,0.32 0.02,0.43l4.19 3.83c0.12,0.11 0.32,0.11 0.43,-0.02l0.1 -0.11z"/>
    <path class="fil14" d="M107.84 123.59l9.82 -7.59 -0.31 -0.41 -9.82 7.59 -0.09 -0.12c-0.1,-0.13 -0.3,-0.16 -0.43,-0.06l-4.49 3.47c-0.13,0.1 -0.16,0.3 -0.06,0.43l0.5 0.65c0.1,0.13 0.3,0.16 0.43,0.06l4.49 -3.47c0.13,-0.1 0.16,-0.3 0.06,-0.43l-0.09 -0.12z"/>
    <g>
     <g>
      <path class="fil19" d="M130.51 104.64l-8.82 8.74 -0.36 -0.36 8.82 -8.74 -0.11 -0.11c-0.12,-0.12 -0.12,-0.32 0,-0.43l4.03 -4c0.12,-0.12 0.32,-0.12 0.43,0l0.58 0.58c0.12,0.12 0.12,0.32 -0,0.43l-4.03 4c-0.12,0.12 -0.32,0.12 -0.43,-0l-0.11 -0.11z"/>
      <path class="fil19" d="M131.2 123.94l-9.59 -7.88 0.33 -0.4 9.59 7.88 0.1 -0.12c0.11,-0.13 0.3,-0.15 0.43,-0.04l4.39 3.6c0.13,0.11 0.15,0.3 0.04,0.43l-0.52 0.63c-0.11,0.13 -0.3,0.15 -0.43,0.04l-4.39 -3.6c-0.13,-0.11 -0.15,-0.3 -0.04,-0.43l0.1 -0.12z"/>
     </g>
     <g>
      <path class="fil19" d="M108.82 104.64l8.82 8.74 0.36 -0.36 -8.82 -8.74 0.11 -0.11c0.12,-0.12 0.12,-0.32 -0,-0.43l-4.03 -4c-0.12,-0.12 -0.32,-0.12 -0.43,0l-0.58 0.58c-0.12,0.12 -0.12,0.32 0,0.43l4.03 4c0.12,0.12 0.32,0.12 0.43,-0l0.11 -0.11z"/>
      <path class="fil19" d="M108.13 123.94l9.59 -7.88 -0.33 -0.4 -9.59 7.88 -0.1 -0.12c-0.11,-0.13 -0.3,-0.15 -0.43,-0.04l-4.39 3.6c-0.13,0.11 -0.15,0.3 -0.04,0.43l0.52 0.63c0.11,0.13 0.3,0.15 0.43,0.04l4.39 -3.6c0.13,-0.11 0.15,-0.3 0.04,-0.43l-0.1 -0.12z"/>
     </g>
    </g>
    <path class="fil18" d="M119.67 106.52c2.04,0 3.88,0.83 5.22,2.16 1.34,1.34 2.16,3.18 2.16,5.22 0,2.04 -0.83,3.88 -2.16,5.22 -1.34,1.34 -3.18,2.16 -5.22,2.16 -2.04,0 -3.88,-0.83 -5.22,-2.16 -1.34,-1.34 -2.16,-3.18 -2.16,-5.22 0,-2.04 0.83,-3.88 2.16,-5.22 1.34,-1.34 3.18,-2.16 5.22,-2.16zm4.71 2.67c-1.2,-1.2 -2.87,-1.95 -4.71,-1.95 -1.84,0 -3.5,0.75 -4.71,1.95 -1.2,1.21 -1.95,2.87 -1.95,4.71 0,1.84 0.75,3.5 1.95,4.71 1.21,1.2 2.87,1.95 4.71,1.95 1.84,0 3.5,-0.75 4.71,-1.95 1.21,-1.21 1.95,-2.87 1.95,-4.71 0,-1.84 -0.75,-3.5 -1.95,-4.71z"/>
    <circle class="fil19" cx="119.67" cy="113.91" r="7.02"/>
    <path class="fil18" d="M119.67 107.66c1.72,0 3.28,0.7 4.41,1.83 1.13,1.13 1.83,2.69 1.83,4.41 0,1.72 -0.7,3.28 -1.83,4.41 -1.13,1.13 -2.69,1.83 -4.41,1.83 -1.72,0 -3.28,-0.7 -4.41,-1.83 -1.13,-1.13 -1.83,-2.69 -1.83,-4.41 0,-1.72 0.7,-3.28 1.83,-4.41 1.13,-1.13 2.69,-1.83 4.41,-1.83zm3.9 2.34c-1,-1 -2.38,-1.62 -3.9,-1.62 -1.52,0 -2.9,0.62 -3.9,1.62 -1,1 -1.62,2.38 -1.62,3.9 0,1.52 0.62,2.9 1.62,3.9 1,1 2.38,1.62 3.9,1.62 1.52,0 2.9,-0.62 3.9,-1.62 1,-1 1.62,-2.38 1.62,-3.9 0,-1.52 -0.62,-2.9 -1.62,-3.9z"/>
    <circle class="fil23" cx="119.67" cy="113.91" r="5.88"/>
    <rect class="fil24" x="117.98" y="130.71" width="2.31" height="6.3" rx="0.49" ry="0.49"/>
    <rect class="fil22" x="118.18" y="130.97" width="1.82" height="4.96" rx="0.38" ry="0.38"/>
    <path class="fil2" d="M119.64 108.13c1.32,0 2.53,0.44 3.5,1.19l-3.5 4.57 -3.61 -4.48c0.99,-0.8 2.24,-1.27 3.61,-1.27z"/>
    <path class="fil14" d="M115.07 117.37c-0.56,-0.73 -0.94,-1.59 -1.1,-2.53l5.62 -0.96 -4.52 3.48z"/>
    <path class="fil2" d="M134.67 99.9l0.35 0.35c-0.79,0.79 -3.44,3.44 -3.9,3.77 -0.54,0.38 -0.79,0.18 -0.36,-0.26 0.36,-0.36 2.97,-2.93 3.91,-3.86z"/>
    <path class="fil2" d="M136.02 127.94l0.32 -0.37c-0.84,-0.73 -3.68,-3.18 -4.16,-3.47 -0.56,-0.34 -0.8,-0.12 -0.34,0.28 0.38,0.33 3.17,2.71 4.18,3.56z"/>
    <path class="fil2" d="M104.38 100.24l0.33 -0.36c0.83,0.75 3.59,3.28 3.94,3.72 0.41,0.52 0.22,0.78 -0.24,0.37 -0.37,-0.34 -3.06,-2.83 -4.03,-3.73z"/>
    <path class="fil2" d="M102.93 127.57l0.31 0.38c0.87,-0.7 3.8,-3.04 4.17,-3.46 0.44,-0.49 0.26,-0.77 -0.21,-0.38 -0.39,0.31 -3.24,2.63 -4.27,3.46z"/>
    <circle class="fil14" cx="109.62" cy="113.91" r="0.85"/>
    <circle class="fil14" cx="119.67" cy="104.15" r="0.85"/>
    <circle class="fil14" cx="129.81" cy="113.5" r="0.85"/>
    <circle class="fil14" cx="119.67" cy="124" r="0.85"/>
    <rect class="fil25" transform="matrix(0.37504 -0 -0.0230107 0.356968 141.709 112.669)" width="6.34" height="13.82" rx="0.91" ry="0.91"/>
    <rect class="fil25" x="135" y="112.58" width="1.81" height="4.26" rx="0.34" ry="0.32"/>
    <path class="fil25" d="M134.26 114.18l9.33 0 0 0.86 -9.36 0c0.01,-0.28 0.02,-0.57 0.03,-0.86z"/>
    <path class="fil23" d="M134.26 114.34l9.34 0 0 0.39 -9.35 0c0,-0.13 0.01,-0.26 0.01,-0.39z"/>
    <rect class="fil23" transform="matrix(0.37504 -0 -0.0230107 0.356968 142.353 112.518)" width="5.07" height="12.67" rx="0.36" ry="0.36"/>
    <rect class="fil23" x="135.27" y="112.43" width="1.38" height="3.86" rx="0.1" ry="0.09"/>
    <path class="fil2" d="M142.49 112.52l1.63 0c0.07,0 0.13,0.06 0.13,0.13l-0.22 3.45c-0.14,-2.61 -0.94,-2.84 -1.57,-2.94 -0.05,-0.01 -0.09,-0.02 -0.14,-0.03l0.03 -0.47c0,-0.07 0.07,-0.13 0.14,-0.13z"/>
    <path class="fil2" d="M135.37 112.43l1.18 0c0.05,0 0.1,0.04 0.1,0.09l0 2.12c-0.36,-1.26 -0.9,-1.5 -1.38,-1.6l0 -0.52c0,-0.05 0.04,-0.09 0.1,-0.09z"/>
    <rect class="fil24" x="119.94" y="95.13" width="1.81" height="4.26" rx="0.34" ry="0.32"/>
    <rect class="fil23" x="120.21" y="94.98" width="1.38" height="3.86" rx="0.1" ry="0.09"/>
    <path class="fil2" d="M120.31 94.98l1.18 0c0.05,0 0.1,0.04 0.1,0.09l0 2.12c-0.36,-1.26 -0.9,-1.5 -1.38,-1.6l0 -0.52c0,-0.05 0.04,-0.09 0.1,-0.09z"/>
    <rect class="fil24" x="116.82" y="95.93" width="2.16" height="5.09" rx="0.4" ry="0.39"/>
    <rect class="fil23" x="117.24" y="95.75" width="1.65" height="4.6" rx="0.12" ry="0.11"/>
    <path class="fil2" d="M117.36 95.75l1.41 0c0.06,0 0.12,0.05 0.12,0.11l0 2.52c-0.42,-1.5 -1.07,-1.79 -1.65,-1.9l0 -0.62c0,-0.06 0.05,-0.11 0.12,-0.11z"/>
    <g>
     <circle class="fil24" transform="matrix(0.380291 -0 -0.0154239 0.380291 141.106 99.5246)" r="6.76"/>
     <rect class="fil24" transform="matrix(-0.0828811 2.04351 -2.04351 9.81352E-14 141.843 100.951)" width="15.32" height="0.5"/>
     <rect class="fil23" transform="matrix(-0.0828811 2.04351 -2.04351 9.81352E-14 141.65 100.951)" width="15.32" height="0.23"/>
     <g>
      <circle class="fil23" transform="matrix(0.306504 -0 -0.0124312 0.306504 141.546 99.1027)" r="6.76"/>
      <path class="fil2" d="M141.63 97.03c1.14,0 2.03,0.93 1.99,2.07 -0.03,0.69 -0.39,1.29 -0.91,1.67 0.33,-0.59 0.33,-1.21 0.19,-1.59 -0.25,-0.69 -0.78,-1.05 -1.96,-0.23 -0.63,0.44 -1.16,0.46 -1.46,0.03 0.11,-1.09 1.04,-1.95 2.15,-1.95z"/>
     </g>
     <g>
      <circle class="fil24" transform="matrix(0.380291 -0 -0.0154239 0.380291 140.143 133.702)" r="6.76"/>
      <circle class="fil23" transform="matrix(0.306504 -0 -0.0124312 0.306504 140.429 133.281)" r="6.76"/>
      <path class="fil2" d="M140.51 131.21c1.14,0 2.03,0.93 1.99,2.07 -0.03,0.69 -0.39,1.29 -0.91,1.67 0.33,-0.59 0.33,-1.21 0.19,-1.59 -0.25,-0.69 -0.78,-1.05 -1.96,-0.23 -0.63,0.44 -1.16,0.46 -1.46,0.03 0.11,-1.09 1.04,-1.95 2.15,-1.95z"/>
     </g>
    </g>
   </g>
   <g>
    <ellipse class="fil14" cx="75.79" cy="153.15" rx="68.65" ry="1.43"/>
    <g>
     <path class="fil26" d="M17.78 117.21l0.37 -1.82c0,0 0.29,-0.55 -0.03,-1.42 -0.32,-0.87 -0.87,-2.71 -0.87,-2.71 0,0 -0.16,-1.05 0.63,-0.92 0.79,0.13 2.44,0.47 2.44,0.47 0,0 0.47,0.05 1.44,0.08 0.97,0.03 39.59,-0.08 39.59,-0.08 0,0 4.43,0.16 7.74,0.74 3.31,0.58 3.81,1.18 3.81,1.58 0,0.39 -0.22,0.42 -0.22,0.42 0,0 -0.32,0.04 0.16,0.76 0.49,0.72 7.17,10.44 7.17,10.44 0,0 0.26,0.33 0.87,0.33 0.6,0 5.88,0.03 9.87,0.29 3.99,0.26 10.87,1.32 13.15,2.08 2.28,0.76 2.81,1.79 2.99,2.13 0.18,0.34 1.76,4.63 1.76,4.95 0,0.32 0.31,0.58 0.68,0.58 0.37,0 1.79,0 1.79,0 0,0 0.5,-0.03 0.49,0.96 -0.01,0.99 -0.68,4.8 -0.68,4.8 0,0 -0.12,0.28 -0.6,0.75 -0.48,0.47 -1.94,1.55 -1.94,1.55 0,0 -0.2,0.1 -0.64,0.07 -0.43,-0.03 -0.68,-0.03 -0.68,-0.03 0,0 -0.25,-0 -0.49,0.21 -0.24,0.21 -1.97,1.82 -4.2,1.71 -8.48,-0.4 -17.07,-0.11 -25.57,-0.11 -0.37,0 -0.96,-0 -1.73,-0.01 -6.71,-0.03 -26.8,-0.2 -26.8,-0.2 0,0 -2.14,0.59 -2.97,0.63 -0.83,0.04 -3.44,-0.18 -3.44,-0.18 -7.66,-0.47 -15.48,-0.52 -23.1,-1.21 0,0 -0.09,-0.05 -0.12,-0.22 -0.03,-0.17 -0.34,-0.68 -1.04,-0.67 -0.7,0.01 -2.06,-0.04 -2.06,-0.04 0,0 -0.17,-0.04 -0.42,-0.33 -0.25,-0.29 -0.95,-1.09 -1.12,-1.3 -0.17,-0.21 -0.18,-0.21 -0.34,-1.08 -0.16,-0.87 -0.17,-1.39 -0.21,-1.67 -0.04,-0.28 0.17,-0.39 0.62,-0.6 0.45,-0.21 1.14,-0.47 1.14,-0.47 0,0 0.38,-0.11 0.43,-0.62 0.05,-0.51 -0.03,-10.29 -0.03,-10.29 0.75,-3.18 1.44,-6.35 2.14,-9.54z"/>
     <path class="fil10" d="M54.55 144.86l-6.26 -0.05c0,0 -2.14,0.59 -2.97,0.63 -0.83,0.04 -3.44,-0.18 -3.44,-0.18 -7.66,-0.47 -15.48,-0.52 -23.1,-1.21 0,0 -0.09,-0.05 -0.12,-0.22 -0.03,-0.17 -0.34,-0.68 -1.04,-0.67 -0.7,0.01 -2.06,-0.04 -2.06,-0.04 0,0 -0.17,-0.04 -0.42,-0.33 -0.25,-0.29 -0.95,-1.09 -1.12,-1.3 -0.17,-0.21 -0.18,-0.21 -0.34,-1.08 -0.16,-0.87 -0.17,-1.39 -0.21,-1.67 -0.04,-0.28 0.17,-0.39 0.62,-0.6 0.45,-0.21 1.14,-0.47 1.14,-0.47 0,0 0.14,-0.04 0.26,-0.18l4.88 0c0.21,0 0.6,-0.11 0.76,-0.55 0.16,-0.45 1.85,-3.19 2.12,-3.61 0.26,-0.42 0.83,-1.3 2.53,-1.3 1.7,0 8.35,-0.01 8.35,-0.01 0,0 2.42,-0.24 3.73,1.34 1.31,1.58 5.28,7.76 5.28,7.76 0,0 0.45,0.42 1.34,0.42 0.89,0 8.93,0 8.93,0 0,0 1.11,1.99 1.14,3.34z"/>
     <path class="fil14" d="M20.38 137.47l0 0c0.21,0 0.6,-0.11 0.76,-0.55 0.16,-0.45 1.85,-3.19 2.12,-3.61 0.26,-0.42 0.83,-1.3 2.53,-1.3 1.7,0 8.35,-0.01 8.35,-0.01 0,0 2.42,-0.24 3.73,1.34 1.31,1.58 5.28,7.76 5.28,7.76l0.02 0.02c-0.5,0.46 -1.65,0.12 -2.11,-0.6 -0.82,-1.28 -2.88,-4.39 -3.98,-5.87 -1.1,-1.49 -2.62,-1.49 -3.36,-1.52 -0.74,-0.02 -4.51,-0.03 -6.78,-0.04 -2.27,-0.01 -2.63,0.93 -2.88,1.26 -0.25,0.34 -0.46,0.67 -1.01,1.58 -0.55,0.91 -0.59,1.14 -1.28,1.43 -0.38,0.16 -0.99,0.22 -1.38,0.11z"/>
     <path class="fil27" d="M18.72 143.98c-0.02,-0.03 -0.04,-0.09 -0.06,-0.16 -0.03,-0.17 -0.34,-0.68 -1.04,-0.67 -0.7,0.01 -2.06,-0.04 -2.06,-0.04 0,0 -0.17,-0.04 -0.42,-0.33 -0.23,-0.27 -0.86,-1 -1.08,-1.26l5.1 0 0.42 0c0,0 0.23,-0 0.07,0.21 -0.16,0.21 -0.92,1.99 -0.92,1.99 0,0 -0.04,0.14 -0.02,0.25z"/>
     <path class="fil28" d="M13.58 138.43c0.1,-0.1 0.27,-0.19 0.52,-0.3 0.45,-0.21 1.14,-0.47 1.14,-0.47 0,0 0.14,-0.04 0.26,-0.18l4.37 0c0.84,0.35 0.17,0.96 -0.22,0.96l-6.07 0z"/>
     <path class="fil14" d="M80.6 141.43l0 0c0.21,0 0.6,-0.11 0.76,-0.55 0.16,-0.45 3.93,-7.15 4.19,-7.57 0.26,-0.42 0.83,-1.3 2.53,-1.3 1.7,0 8.35,-0.01 8.35,-0.01 0,0 2.42,-0.24 3.73,1.34 1.31,1.58 5.28,7.76 5.28,7.76l0.02 0.02c-0.5,0.46 -1.65,0.12 -2.11,-0.6 -0.82,-1.28 -2.88,-4.39 -3.98,-5.87 -1.1,-1.49 -2.62,-1.49 -3.36,-1.52 -0.74,-0.02 -4.51,-0.03 -6.78,-0.04 -2.27,-0.01 -2.63,0.93 -2.88,1.26 -0.25,0.34 -2.54,4.63 -3.09,5.54 -0.55,0.91 -0.75,1.2 -1.28,1.43 -0.54,0.23 -0.99,0.22 -1.38,0.11z"/>
     <path class="fil27" d="M108.86 142.81c-0.27,0.2 -0.47,0.35 -0.47,0.35 0,0 -0.2,0.1 -0.64,0.07 -0.43,-0.03 -0.68,-0.03 -0.68,-0.03 0,0 -0.25,-0 -0.49,0.21 -0.24,0.21 -1.97,1.82 -4.2,1.71 -8.48,-0.4 -17.07,-0.11 -25.57,-0.11 -0.37,0 -0.96,-0 -1.73,-0.01 -6.71,-0.03 -26.8,-0.2 -26.8,-0.2 0,0 -2.14,0.59 -2.97,0.63 -0.83,0.04 -3.44,-0.18 -3.44,-0.18 -7.66,-0.47 -15.48,-0.52 -23.1,-1.21 0,0 -0.07,-0.04 -0.11,-0.17 0.51,0.02 1.53,0.06 1.66,0.06 0.18,0.01 0.38,-0.14 0.46,-0.44 0.02,-0.09 0.05,-0.37 0.13,-0.8 0.57,-4.92 4.76,-8.74 9.83,-8.74 4.79,0 8.78,3.4 9.7,7.92 0.05,0.18 0.09,0.35 0.12,0.5 0.21,0.97 0.23,1.71 0.44,1.71 0.21,0 41.24,0.21 41.24,0.21 0,0 0.35,-0.03 0.53,-0.49 0.03,-5.44 4.45,-9.82 9.9,-9.85 4.44,-0.02 7.47,2.48 9.29,5.89 1.49,2.8 1.62,2.99 2.9,3.07 1.28,0.08 2.56,-0.06 2.81,-0.06 0.15,0 0.63,0.06 1.16,-0.04z"/>
     <path class="fil29" d="M41.61 141.7l40.07 0c0.12,0 0.25,0.1 0.21,0.21l-0.43 1.22c-0.04,0.11 -0.1,0.21 -0.21,0.21l-38.86 0c-0.12,0 -0.21,-0.09 -0.21,-0.21l-0.78 -1.22c0,-0.12 0.09,-0.21 0.21,-0.21z"/>
     <rect class="fil22" x="107.07" y="129.13" width="1.83" height="5.35" rx="0.69" ry="0.69"/>
     <path class="fil15" d="M111.58 137.95l-7.79 0c-0.09,0 -0.17,0.08 -0.17,0.17l2.24 3.33c0.06,0.1 0.1,0.17 0.19,0.17l4.99 0c0.09,0 0.17,-0.08 0.17,-0.17l0.54 -3.33c0,-0.09 -0.08,-0.17 -0.17,-0.17z"/>
     <rect class="fil23" x="108.03" y="138.79" width="2.58" height="2.04" rx="0.12" ry="0.12"/>
     <path class="fil14" d="M17.78 117.21l0.37 -1.82c0,0 0.1,-0.18 0.12,-0.51 0.32,-0.95 0.87,-1.78 1.88,-1.78 16.85,0 33.69,0 50.54,0 0.79,-0.01 1.26,-0.15 2.16,1.2 0.49,0.72 7.17,10.44 7.17,10.44 0,0 0.26,0.33 0.87,0.33 0.6,0 5.88,0.03 9.87,0.29 3.99,0.26 10.87,1.32 13.15,2.08 1.05,0.35 1.73,0.76 2.18,1.13 -29.58,0 -59.17,0 -88.75,0 -1.27,-0 -1.65,-0.84 -1.69,-1.83 0.75,-3.18 1.44,-6.35 2.14,-9.54z"/>
     <ellipse class="fil30" cx="61.62" cy="135.18" rx="20.1" ry="0.25"/>
     <path class="fil31" d="M17 127.23c-0.1,0 -0.19,-0.09 -0.19,-0.19 0,-0.1 0.09,-0.19 0.19,-0.19l23.77 0 39.82 0 0.01 0c0.43,-0 10.72,-0.11 15.3,0.52 2.62,0.35 4.25,0.65 5.31,0.83 0.82,0.15 1.29,0.23 1.58,0.23l2.83 0c0.11,0 0.19,0.09 0.19,0.19 0,0.11 -0.09,0.19 -0.19,0.19l-2.83 0c-0.32,0 -0.8,-0.09 -1.64,-0.24 -1.06,-0.19 -2.7,-0.48 -5.29,-0.83 -4.56,-0.62 -14.85,-0.52 -15.25,-0.51l-0.02 0 -39.82 0 -23.77 0z"/>
     <path class="fil31" d="M54.57 113.48l-14.8 0c-0.25,0 -0.46,0.1 -0.63,0.26l-0 0c-0.18,0.18 -0.3,0.44 -0.33,0.72 -0.29,2.33 -0.54,4.97 -0.73,7.13 -0.09,0.93 -0.16,1.77 -0.23,2.44l0 7.01c0,0.47 0.21,0.78 0.46,1.15 0.06,0.08 0.11,0.17 0.17,0.26l4.59 7.19c0.23,0.35 0.41,0.6 0.58,0.76l0 -0c0.14,0.14 0.25,0.2 0.37,0.21l0 0 10.54 0.06 0 -0 0.01 0c0.26,0 0.5,-0.11 0.67,-0.28l0 0c0.17,-0.17 0.28,-0.41 0.28,-0.67l-0 0 0 -0.01 0 -12.7 0 -12.58c0,-0.26 -0.11,-0.5 -0.28,-0.68 -0.17,-0.17 -0.41,-0.28 -0.68,-0.28zm-14.8 -0.38l14.8 0c0.37,0 0.7,0.15 0.95,0.39l0 0c0.24,0.24 0.39,0.58 0.39,0.95l0 12.58 0 12.7 0 0.01 -0 0c-0,0.37 -0.15,0.7 -0.39,0.94l0 0c-0.24,0.24 -0.57,0.39 -0.94,0.39l-0.01 0 -0 -0 -10.55 -0.06 -0 0c-0.23,-0 -0.43,-0.11 -0.64,-0.32l0 -0c-0.18,-0.18 -0.38,-0.46 -0.62,-0.82l-0 -0 -4.6 -7.19c-0.06,-0.09 -0.11,-0.17 -0.17,-0.25 -0.29,-0.43 -0.53,-0.79 -0.53,-1.37l0 -7.02 0 -0 0 -0.01c0.07,-0.7 0.15,-1.53 0.23,-2.45 0.2,-2.16 0.44,-4.81 0.74,-7.15 0.05,-0.37 0.2,-0.7 0.44,-0.94l0 -0 0 -0c0.23,-0.23 0.54,-0.37 0.89,-0.37zm18.69 0l12.07 0c0.37,0 0.65,0.13 0.9,0.37 0.24,0.22 0.46,0.54 0.73,0.94l0 0c0.67,1.02 1.41,2.18 2.15,3.34 0.58,0.92 1.16,1.83 1.69,2.65l0 -0 0.44 0.67c0.96,1.46 1.75,2.66 1.85,3.66l0 0.01 0 0 0 7.02c0,0.76 0.03,3.44 0.06,5.49 0.02,1.42 0.03,2.55 -0,2.6l-0 0c-0.24,0.37 -0.44,0.64 -0.62,0.82 -0.21,0.21 -0.41,0.31 -0.64,0.32l-0 0 -18.61 0.06 0 0 -0 0c-0.37,0 -0.7,-0.15 -0.94,-0.39l-0 0c-0.24,-0.24 -0.39,-0.58 -0.39,-0.94l-0 0 0 -0 0 -12.7 0 -12.58c0,-0.37 0.15,-0.7 0.39,-0.94l0 -0c0.24,-0.24 0.58,-0.39 0.94,-0.39zm12.07 0.38l-12.07 0c-0.26,0 -0.5,0.11 -0.68,0.28l-0 0c-0.17,0.17 -0.28,0.41 -0.28,0.68l0 12.58 0 12.7 0 0 -0 0c0,0.26 0.11,0.5 0.28,0.67l0 0c0.17,0.17 0.41,0.28 0.67,0.28l0 0 0 0 18.61 -0.06 0 0c0.12,-0 0.24,-0.07 0.37,-0.21 0.16,-0.16 0.35,-0.42 0.58,-0.76 0.02,-0.05 -0.04,-1.04 -0.06,-2.39 -0.03,-2.1 -0.06,-4.85 -0.06,-5.49l0 -7.01c-0.1,-0.9 -0.86,-2.06 -1.78,-3.47l-0.44 -0.67 0 -0c-0.56,-0.86 -1.13,-1.76 -1.69,-2.65 -0.75,-1.18 -1.5,-2.36 -2.14,-3.34l-0 0c-0.26,-0.38 -0.47,-0.68 -0.67,-0.88 -0.19,-0.18 -0.38,-0.27 -0.64,-0.27z"/>
     <path class="fil19" d="M41.48 114.21l11.55 0c0.6,0 1.09,0.49 1.09,1.09l0 8.43c0,0.6 -0.49,1.09 -1.09,1.09l-12.14 0c-0.6,0 -1.13,-0.49 -1.09,-1.09l0.59 -8.43c0.04,-0.6 0.49,-1.09 1.09,-1.09z"/>
     <path class="fil31" d="M41.48 114.02l11.55 0c0.35,0 0.67,0.14 0.91,0.38l0 0c0.23,0.23 0.38,0.55 0.38,0.91l0 8.43c0,0.35 -0.14,0.67 -0.38,0.9l-0 0c-0.23,0.23 -0.55,0.38 -0.9,0.38l-12.14 0 -0.01 -0 -0.08 -0 -0.01 0c-0.32,-0.02 -0.62,-0.16 -0.83,-0.38 -0.22,-0.22 -0.36,-0.51 -0.36,-0.84l0 -0.01 0 -0.07 0 -0.01 0.59 -8.43c0.02,-0.35 0.17,-0.67 0.4,-0.9 0.23,-0.23 0.53,-0.37 0.88,-0.37zm11.55 0.38l-11.55 0c-0.24,0 -0.45,0.1 -0.61,0.25 -0.17,0.17 -0.27,0.4 -0.29,0.66l-0.59 8.43 -0 0 -0 0.05 0 0c0,0.22 0.1,0.42 0.25,0.57 0.15,0.15 0.37,0.25 0.59,0.27l0 0 0.06 0 0 -0 12.14 0c0.25,0 0.47,-0.1 0.64,-0.26l0 -0c0.16,-0.16 0.26,-0.39 0.26,-0.64l0 -8.43c0,-0.25 -0.1,-0.47 -0.26,-0.64l-0 -0c-0.16,-0.16 -0.39,-0.26 -0.64,-0.26z"/>
     <path class="fil19" d="M69.76 114.28l-10.01 -0.07c-0.6,0 -1.09,0.49 -1.09,1.09l0 8.43c0,0.6 0.49,1.09 1.09,1.09l14.99 0c0.6,0 1.15,-0.54 1.11,-1.14 0,-0.16 -0.21,-0.68 -0.74,-1.55 -1.29,-2.12 -3.47,-5.92 -4.01,-6.78 -0.6,-0.83 -0.74,-1.07 -1.34,-1.07z"/>
     <path class="fil31" d="M69.76 114.47l-10.01 -0.07 0 0c-0.25,0 -0.47,0.1 -0.64,0.26 -0.16,0.16 -0.27,0.39 -0.27,0.64l0 8.43c0,0.25 0.1,0.47 0.26,0.64l0 0c0.16,0.16 0.39,0.27 0.64,0.27l14.99 0 0 0 0.06 -0 0 -0c0.23,-0.02 0.45,-0.13 0.61,-0.29 0.16,-0.16 0.26,-0.37 0.26,-0.6l0 0 -0 -0.06 0 -0.01c0,-0.06 -0.06,-0.22 -0.18,-0.49 -0.12,-0.24 -0.29,-0.56 -0.53,-0.96 -0.69,-1.14 -1.66,-2.79 -2.48,-4.19 -0.69,-1.18 -1.28,-2.18 -1.53,-2.59l-0.07 -0.1c-0.49,-0.68 -0.64,-0.89 -1.11,-0.89l-0 -0zm-10 -0.44l10.01 0.07 0 -0c0.67,0 0.84,0.24 1.42,1.04l0.08 0.11 0.01 0.01c0.24,0.39 0.84,1.41 1.54,2.6 0.82,1.39 1.77,3.03 2.48,4.19 0.25,0.4 0.43,0.74 0.55,0.99 0.15,0.31 0.22,0.53 0.22,0.65l0 0.06 0 0.01c0,0.33 -0.15,0.63 -0.37,0.86 -0.22,0.23 -0.53,0.38 -0.85,0.4l-0.01 0 -0.07 0 -0.01 0 -14.99 0c-0.35,0 -0.67,-0.14 -0.91,-0.38l0 -0c-0.23,-0.23 -0.38,-0.55 -0.38,-0.9l0 -8.43c0,-0.35 0.14,-0.67 0.38,-0.91 0.23,-0.23 0.55,-0.38 0.91,-0.38l0 0z"/>
     <path class="fil19" d="M22.79 114.21l12.1 0c0.6,0 1.03,0.49 0.96,1.09l-0.99 8.43c-0.07,0.6 -0.62,1.09 -1.22,1.09l-12.68 0c-0.6,0 -1.08,-0.49 -0.96,-1.09l1.58 -8.43c0.11,-0.6 0.62,-1.09 1.22,-1.09z"/>
     <path class="fil31" d="M22.79 114.02l12.1 0c0.05,0 0.1,0 0.15,0.01 0.29,0.03 0.55,0.17 0.73,0.38l0 0c0.18,0.2 0.29,0.47 0.29,0.77 0,0.05 -0,0.1 -0.01,0.15l-0.99 8.43 0 0c-0.04,0.35 -0.22,0.66 -0.47,0.89 -0.25,0.23 -0.59,0.37 -0.93,0.37l-12.68 0c-0.08,0 -0.15,-0.01 -0.23,-0.02 -0.26,-0.05 -0.5,-0.18 -0.67,-0.37l0 -0c-0.17,-0.19 -0.27,-0.44 -0.27,-0.71l-0 0c0,-0.07 0.01,-0.14 0.02,-0.21l0 -0 1.58 -8.43c0.06,-0.35 0.25,-0.66 0.5,-0.89 0.25,-0.22 0.56,-0.36 0.91,-0.36zm12.1 0.38l-12.1 0c-0.25,0 -0.48,0.1 -0.66,0.26 -0.19,0.17 -0.33,0.41 -0.38,0.68l-1.58 8.43c-0.01,0.04 -0.01,0.09 -0.01,0.14l-0 0c0,0.18 0.07,0.34 0.18,0.46l0 -0c0.11,0.13 0.27,0.22 0.45,0.25 0.05,0.01 0.1,0.01 0.16,0.01l12.68 0c0.25,0 0.49,-0.1 0.68,-0.27 0.19,-0.17 0.32,-0.4 0.35,-0.65l0.99 -8.43c0,-0.03 0.01,-0.07 0.01,-0.11 0,-0.2 -0.07,-0.38 -0.19,-0.52l0 -0c-0.12,-0.13 -0.29,-0.23 -0.49,-0.25l-0 0c-0.03,-0 -0.07,-0.01 -0.1,-0.01z"/>
     <path class="fil31" d="M27.7 125.64l4.68 0c0.25,0 0.47,0.1 0.63,0.26 0.16,0.16 0.26,0.39 0.26,0.63l0 1.95c0,0.25 -0.1,0.47 -0.26,0.63 -0.16,0.16 -0.39,0.26 -0.63,0.26l-4.68 0c-0.25,0 -0.47,-0.1 -0.63,-0.26l-0 0c-0.16,-0.16 -0.26,-0.39 -0.26,-0.63l0 -1.95c0,-0.25 0.1,-0.47 0.26,-0.63l0 0c0.16,-0.16 0.39,-0.26 0.63,-0.26zm4.68 0.38l-4.68 0c-0.14,0 -0.27,0.06 -0.37,0.15l0 0c-0.09,0.09 -0.15,0.22 -0.15,0.36l0 1.95c0,0.14 0.06,0.27 0.15,0.36l-0 0c0.09,0.09 0.22,0.15 0.37,0.15l4.68 0c0.14,0 0.27,-0.06 0.36,-0.15 0.09,-0.09 0.15,-0.22 0.15,-0.36l0 -1.95c0,-0.14 -0.06,-0.27 -0.15,-0.36 -0.09,-0.09 -0.22,-0.15 -0.36,-0.15z"/>
     <rect class="fil29" x="38.66" y="129.76" width="3.69" height="1.55" rx="0.38" ry="0.38"/>
     <rect class="fil29" x="58.53" y="129.76" width="3.69" height="1.55" rx="0.38" ry="0.38"/>
     <path class="fil32" d="M68.76 114.62l-4.48 -0.03 6.06 9.87 3.99 0c0.14,0 0.28,-0.03 0.41,-0.09l-5.98 -9.75zm-5.4 -0.04l-0.97 -0.01 6.07 9.88 0.97 0 -6.06 -9.88z"/>
     <path class="fil32" d="M42.49 114.55l4.47 0 6.05 9.86c-0.11,0.04 -0.24,0.07 -0.37,0.07l-4.06 0 -6.09 -9.92zm5.17 9.92l-0.97 0 -5.75 -9.36c0.13,-0.26 0.36,-0.46 0.64,-0.53l6.07 9.89z"/>
     <path class="fil32" d="M26.82 114.53l0.97 0 6.08 9.91c-0.12,0.05 -0.25,0.07 -0.38,0.07l-0.55 0 -6.13 -9.98zm1.9 0l4.5 0 2.08 3.38 -0.65 5.57c-0.02,0.16 -0.07,0.31 -0.15,0.44l-5.77 -9.4z"/>
     <path class="fil14" d="M76.28 121.87l0 2.33c0,0.17 -0.14,0.28 -0.31,0.26 -1.2,-0.27 -2.1,-0.44 -3.33,-0.56 -0.59,-0.1 -0.31,-2.28 -0.31,-2.69 0,-0.54 3.95,0.12 3.95,0.66z"/>
     <path class="fil0" d="M15.5 131.35l1.36 0c0.38,0 0.69,0.31 0.69,0.69l0 3.43c0,0.35 -0.29,0.64 -0.64,0.64l-1.41 0c-0.15,0 -0.26,-0.12 -0.26,-0.26l0 -4.23c0,-0.15 0.12,-0.26 0.26,-0.26z"/>
     <g>
      <circle class="fil33" cx="30.71" cy="144.07" r="9.53"/>
      <path class="fil34" d="M30.63 137.81c3.55,-0.06 6.47,2.76 6.54,6.31 0.06,3.55 -2.76,6.47 -6.31,6.54 -3.55,0.06 -6.47,-2.76 -6.54,-6.31 -0.06,-3.55 2.76,-6.47 6.31,-6.54z"/>
      <path class="fil35" d="M30.73 143.15c0.6,-0.01 1.09,0.47 1.1,1.06 0.01,0.6 -0.47,1.09 -1.06,1.1 -0.6,0.01 -1.09,-0.47 -1.1,-1.06 -0.01,-0.6 0.47,-1.09 1.06,-1.1z"/>
      <path class="fil36" d="M30.64 138.56c3,-0.05 5.47,2.33 5.52,5.33 0.05,3 -2.33,5.47 -5.33,5.52 -3,0.05 -5.47,-2.33 -5.52,-5.33 -0.05,-3 2.33,-5.47 5.33,-5.52zm-0.04 1c2.58,-0.05 4.7,2.01 4.75,4.58 0.05,2.58 -2.01,4.7 -4.58,4.75 -2.58,0.05 -4.7,-2.01 -4.75,-4.58 -0.05,-2.58 2.01,-4.7 4.58,-4.75z"/>
      <path class="fil27" d="M30.7 141.63c1.44,-0.03 2.62,1.12 2.65,2.56 0.03,1.44 -1.12,2.62 -2.56,2.65 -1.44,0.03 -2.62,-1.12 -2.65,-2.56 -0.03,-1.44 1.12,-2.62 2.56,-2.65zm-0.14 1.04c1.05,-0.02 1.92,0.82 1.94,1.87 0.02,1.05 -0.82,1.92 -1.87,1.94 -1.05,0.02 -1.92,-0.82 -1.94,-1.87 -0.02,-1.05 0.82,-1.92 1.87,-1.94z"/>
      <path class="fil34" d="M22.36 140.7c1.11,-4.55 6.65,-6.8 11.08,-5.45 0.23,0.07 1.11,0.66 -0.13,0.41 -4.52,-1.1 -9.11,1.23 -10.96,5.04z"/>
     </g>
     <g>
      <circle class="fil33" cx="93.01" cy="144.07" r="9.53"/>
      <path class="fil34" d="M92.93 137.81c3.55,-0.06 6.47,2.76 6.54,6.31 0.06,3.55 -2.76,6.47 -6.31,6.54 -3.55,0.06 -6.47,-2.76 -6.54,-6.31 -0.06,-3.55 2.76,-6.47 6.31,-6.54z"/>
      <path class="fil35" d="M93.03 143.15c0.6,-0.01 1.09,0.47 1.1,1.06 0.01,0.6 -0.47,1.09 -1.06,1.1 -0.6,0.01 -1.09,-0.47 -1.1,-1.06 -0.01,-0.6 0.47,-1.09 1.06,-1.1z"/>
      <path class="fil36" d="M92.95 138.56c3,-0.05 5.47,2.33 5.52,5.33 0.05,3 -2.33,5.47 -5.33,5.52 -3,0.05 -5.47,-2.33 -5.52,-5.33 -0.05,-3 2.33,-5.47 5.33,-5.52zm-0.04 1c2.58,-0.05 4.7,2.01 4.75,4.58 0.05,2.58 -2.01,4.7 -4.58,4.75 -2.58,0.05 -4.7,-2.01 -4.75,-4.58 -0.05,-2.58 2.01,-4.7 4.58,-4.75z"/>
      <path class="fil27" d="M93 141.63c1.44,-0.03 2.62,1.12 2.65,2.56 0.03,1.44 -1.12,2.62 -2.56,2.65 -1.44,0.03 -2.62,-1.12 -2.65,-2.56 -0.03,-1.44 1.12,-2.62 2.56,-2.65zm-0.14 1.04c1.05,-0.02 1.92,0.82 1.94,1.87 0.02,1.05 -0.82,1.92 -1.87,1.94 -1.05,0.02 -1.92,-0.82 -1.94,-1.87 -0.02,-1.05 0.82,-1.92 1.87,-1.94z"/>
      <path class="fil34" d="M84.66 140.7c1.11,-4.55 6.65,-6.8 11.08,-5.45 0.23,0.07 1.11,0.66 -0.13,0.41 -4.52,-1.1 -9.11,1.23 -10.96,5.04z"/>
     </g>
    </g>
   </g>
  </g>
 </g>
</svg>
