<?xml version="1.0" encoding="UTF-8"?>
<!DOCTYPE svg PUBLIC "-//W3C//DTD SVG 1.1//EN" "http://www.w3.org/Graphics/SVG/1.1/DTD/svg11.dtd">
<!-- Creator: CorelDRAW 2020 (64-Bit) -->
<svg xmlns="http://www.w3.org/2000/svg" xml:space="preserve" width="125.73mm" height="99.9067mm" version="1.1" style="shape-rendering:geometricPrecision; text-rendering:geometricPrecision; image-rendering:optimizeQuality; fill-rule:evenodd; clip-rule:evenodd"
viewBox="0 0 532.4 423.05"
 xmlns:xlink="http://www.w3.org/1999/xlink"
 xmlns:xodm="http://www.corel.com/coreldraw/odm/2003">
 <defs>
  <style type="text/css">
   <![CDATA[
    .fil27 {fill:none}
    .fil19 {fill:#FEFEFE}
    .fil15 {fill:#FEFEFE}
    .fil22 {fill:#323232}
    .fil31 {fill:black}
    .fil24 {fill:#231F20}
    .fil21 {fill:#333333}
    .fil18 {fill:#40393B}
    .fil30 {fill:#4C4C4C}
    .fil32 {fill:#5E5457}
    .fil29 {fill:#666666}
    .fil11 {fill:gray}
    .fil10 {fill:#878787}
    .fil8 {fill:#9E9E9E}
    .fil5 {fill:#A3A3A3}
    .fil2 {fill:#BFBFBF}
    .fil12 {fill:#C4C4C4}
    .fil13 {fill:#C9C9C9}
    .fil6 {fill:#CFCFCF}
    .fil14 {fill:#D6D6D6}
    .fil16 {fill:#D9D9D9}
    .fil4 {fill:#DBA240}
    .fil25 {fill:#DBA33F}
    .fil7 {fill:#E0E0E0}
    .fil26 {fill:#E8AF4C}
    .fil17 {fill:#EBEBEB}
    .fil20 {fill:#EFEFEB}
    .fil0 {fill:#F7F7F7}
    .fil1 {fill:#FFAA00}
    .fil3 {fill:#FFC86A}
    .fil9 {fill:#FFDB9C}
    .fil28 {fill:white}
    .fil23 {fill:white}
   ]]>
  </style>
 </defs>
 <g id="Layer_x0020_1">
  <metadata id="CorelCorpID_0Corel-Layer"/>
  <rect class="fil0" y="-0" width="532.4" height="423.05" rx="14.56" ry="14.56"/>
  <path class="fil1" d="M220.77 195.51c28.86,0 52.25,23.39 52.25,52.25 0,28.86 -23.39,52.25 -52.25,52.25 -28.86,0 -52.25,-23.39 -52.25,-52.25 0,-28.86 23.39,-52.25 52.25,-52.25zm-15.31 57.48c-3.3,2.09 -7.2,3.3 -11.39,3.3 -3.83,0 -7.42,-1.01 -10.52,-2.77l0.02 -2.18c0,0 0.29,-0.63 1.32,-1.26 1.03,-0.63 4.42,-3.56 4.42,-3.56l0.13 -5.83c-0.53,-0.26 -1.09,-0.67 -1.57,-1.29 -1.32,-1.72 -1.84,-3.9 -1.84,-3.9 0,0 -1.15,-0.06 -1.49,-2.24 -0.34,-2.18 -0.29,-2.64 0.29,-2.87l0 -3.79c0,0 0.98,-4.07 3.44,-5.74 2.47,-1.66 6.08,-1.38 8.09,-0.06 2.01,1.32 3.33,5.11 3.33,5.11l-0.63 0.4 -0.11 4.02c0,0 0.98,0.23 0.75,2.24 -0.23,2.01 -1.78,2.64 -1.78,2.64 0,0 -0.34,2.3 -1.55,4.19 -0.53,0.83 -1.22,1.29 -1.84,1.53l0 3.92c0,0 2.12,2.12 5.91,3.67 3.79,1.55 4.36,1.95 4.36,1.95 0,0 0.38,0.62 0.66,2.52z"/>
  <path class="fil1" d="M271.69 95.64c48.22,0 87.3,39.09 87.3,87.3 0,4.67 -0.37,9.25 -1.08,13.72 -0.37,-0.16 -0.78,-0.32 -1.21,-0.5 -5.11,-2.09 -7.97,-4.96 -7.97,-4.96l0 -5.28c0.83,-0.34 1.76,-0.95 2.48,-2.07 1.63,-2.56 2.09,-5.65 2.09,-5.65 0,0 2.09,-0.85 2.4,-3.56 0.31,-2.71 -1.01,-3.02 -1.01,-3.02l0.15 -5.42 0.85 -0.54c0,0 -1.78,-5.11 -4.49,-6.89 -2.71,-1.78 -7.59,-2.17 -10.92,0.08 -3.33,2.25 -4.65,7.74 -4.65,7.74l0 5.11c-0.77,0.31 -0.85,0.93 -0.39,3.87 0.46,2.94 2.01,3.02 2.01,3.02 0,0 0.7,2.94 2.48,5.27 0.64,0.84 1.4,1.38 2.12,1.74l-0.18 7.86c0,0 -4.57,3.95 -5.96,4.8 -1.39,0.85 -1.78,1.7 -1.78,1.7l-0.02 2.94c4.19,2.38 9.03,3.74 14.2,3.74 2.75,0 5.41,-0.39 7.92,-1.11 -9.95,37.27 -43.94,64.72 -84.34,64.72 -48.22,0 -87.3,-39.09 -87.3,-87.3 0,-48.21 39.09,-87.3 87.3,-87.3z"/>
  <path class="fil1" d="M348.11 148.89c15.89,0 28.77,12.88 28.77,28.77 0,10.25 -5.36,19.25 -13.43,24.34 -0.38,-2.4 -0.87,-3.2 -0.87,-3.2 0,0 -0.77,-0.54 -5.88,-2.63 -5.11,-2.09 -7.97,-4.96 -7.97,-4.96l0 -5.28c0.83,-0.34 1.76,-0.95 2.48,-2.07 1.63,-2.56 2.09,-5.65 2.09,-5.65 0,0 2.09,-0.85 2.4,-3.56 0.31,-2.71 -1.01,-3.02 -1.01,-3.02l0.15 -5.42 0.85 -0.54c0,0 -1.78,-5.11 -4.49,-6.89 -2.71,-1.78 -7.59,-2.17 -10.92,0.08 -3.33,2.25 -4.65,7.74 -4.65,7.74l0 5.11c-0.77,0.31 -0.85,0.93 -0.39,3.87 0.46,2.94 2.01,3.02 2.01,3.02 0,0 0.7,2.94 2.48,5.27 0.64,0.84 1.4,1.38 2.12,1.74l-0.18 7.86c0,0 -4.57,3.95 -5.96,4.8 -1.39,0.85 -1.78,1.7 -1.78,1.7l-0.02 2.73c-8.7,-4.95 -14.57,-14.3 -14.57,-25.03 0,-15.89 12.88,-28.77 28.77,-28.77z"/>
  <g id="_2532586427776">
   <circle class="fil1" transform="matrix(0.647368 -0.197252 0.197252 0.647368 198.022 141.013)" r="63.22"/>
   <g>
    <path class="fil2" d="M179.94 159.13c0,0 3.94,-2.34 7.05,-3.98 2.59,-1.37 5.89,-3.25 6.92,-3.84 4.25,0.5 8.26,0.89 10.6,-0.62 1.5,0.75 8.86,4.41 12.45,5.93 4.01,1.7 4.07,1.76 4.07,1.76 0,0 2.28,5.87 3.95,15.87 -1.84,1.49 -3.81,2.84 -5.91,4.02 -0.72,-5.51 -1.43,-9.47 -1.43,-9.47 0,0 -1.61,5.33 -3.2,11.73 -1.28,0.53 -2.59,1 -3.94,1.41 -10.43,3.18 -21.14,2.17 -30.32,-2.05 -0.19,-3.94 -0.45,-7.35 -0.68,-9.94 -0.68,-7.44 0.45,-10.83 0.45,-10.83z"/>
    <path class="fil3" d="M193.73 145.2c0.2,1.57 0.38,3.64 0.18,6.23 3.17,6.39 8.83,4.31 10.56,-0.67 -0.3,-1.4 -0.68,-3.78 -0.63,-6.54l-0.45 0.47c-2.87,3.02 -6.68,3.19 -9.66,0.51z"/>
    <path class="fil4" d="M193.68 144.52c0.07,0.57 0.2,1.91 0.26,2.66 2.35,2.34 6.36,5.53 10.09,4.67l0.46 -1.09c-0.3,-1.4 -0.74,-4.46 -0.69,-7.22l-0.45 0.47c-2.87,3.03 -6.68,3.19 -9.66,0.51z"/>
    <path class="fil5" d="M179.94 159.13c0,0 0.32,-0.19 0.86,-0.5 0.51,3.81 1.4,8.75 2.95,14.02 0.97,3.29 1.86,6.52 2.66,9.55 -2.14,-0.61 -4.22,-1.38 -6.23,-2.3 -0.19,-3.94 -0.45,-7.35 -0.68,-9.94 -0.68,-7.44 0.45,-10.83 0.45,-10.83z"/>
    <path class="fil6" d="M179.94 159.13c0,0 3.94,-2.34 7.05,-3.98 1.01,-0.53 2.13,-1.15 3.18,-1.73 -1.98,1.32 -7.45,5.01 -9.06,6.49 -0.7,0.65 -1.27,1.54 -1.71,2.43 0.19,-2.18 0.54,-3.21 0.54,-3.21z"/>
    <path class="fil7" d="M208.13 152.48c2.84,1.39 6.57,3.18 8.83,4.14 2.42,1.03 3.4,1.45 3.8,1.63 -3.06,3.41 -3.77,10.41 -3.38,6.4 0.45,-4.62 0.79,-5.19 0.79,-5.19l-10.04 -6.98z"/>
    <g>
     <path class="fil8" d="M185.86 128.55c0,0 -0.43,-11.56 0,-11.67 0.43,-0.11 -1.31,-0.13 -1.31,-0.13 0.87,-0.78 2.54,-1.51 3.17,-2.41l-1.67 -0.04c2.1,-0.93 3.61,-3.05 5.75,-4.12 0.66,-0.33 -2.18,-0.58 -2.18,-0.58 2.46,-0.89 5.2,-1.49 7.79,-0.77 0,0 -1.6,-1.2 -1.42,-1.2 1.77,0 4.93,1.41 6.26,2.62l-0.55 -1.82c0,0 2.15,1.93 5.2,4.7 3.06,2.77 2.91,4.41 2.91,4.41l0 11.87 -1.11 3.71 0 -8.01 -1 -1.31 0 -4.16c0,0 -0.58,-0.8 -5.24,-2.04 -4.66,-1.24 -9.53,-1.31 -9.53,-1.31 0,0 -1.02,0.51 -2.62,1.53 -1.6,1.02 -1.6,1.46 -1.6,1.46l0 4.16c0,0 -1.02,1.75 -1.31,2.55 -0.29,0.8 -0.29,0.8 -0.29,0.8l0.44 7.44c0,0 -1.31,-4.89 -1.67,-5.69z"/>
     <path class="fil3" d="M185.83 127.54c-0.77,0.23 -2.18,0.9 -2.49,2.81 -0.44,2.65 1.5,3.93 2.51,4.15 1.01,0.22 1.76,0.22 1.76,0.22l1.85 8.48 9.21 4.64 8.68 -4.77 0.97 -8.04c0,0 2.73,-0.44 3.17,-3.05 0.44,-2.61 -0.79,-3.71 -1.06,-3.98 -0.12,-0.12 -0.39,-0.24 -0.64,-0.34l0 1.76 -1.11 3.71 0 -8.01 -1 -1.31 0 -4.16c0,0 -0.58,-0.8 -5.24,-2.04 -4.66,-1.24 -9.53,-1.31 -9.53,-1.31 0,0 -1.02,0.51 -2.62,1.53 -1.6,1.02 -1.6,1.46 -1.6,1.46l0 4.16c0,0 -1.02,1.75 -1.31,2.55 -0.29,0.8 -0.29,0.8 -0.29,0.8l0.44 7.44c0,0 -1.31,-4.89 -1.67,-5.69l-0.03 -1.01z"/>
     <path class="fil9" d="M187.25 134.7c0.23,0.02 0.36,0.02 0.36,0.02l1.47 6.75c-0.21,-4.62 -0.12,-12.31 -0.15,-13.56 -0.04,-1.68 0.53,-3.18 0.53,-3.18l-0.76 -1.74 0 0.45c0,0 -1.02,1.75 -1.31,2.55 -0.29,0.8 -0.29,0.8 -0.29,0.8l0.44 7.44c0,0 -0.25,-0.93 -0.56,-2.04l0.27 2.5z"/>
     <path class="fil9" d="M207.54 141.61l0.79 -6.58c0,0 0.15,-0.02 0.39,-0.1 0.05,-0.73 0.12,-1.68 0.19,-2.54l-0.22 0.74 0 -8.01 -1 -1.31 0 -1.05 -0.42 1.75c0,0 0.21,11.39 0.26,17.1z"/>
     <path class="fil10" d="M185.86 128.55c0,0 -0.12,-3.31 -0.17,-6.4 0.83,0.3 1.84,0.6 3.01,0.85l0 0.44c0,0 -1.02,1.75 -1.31,2.55 -0.29,0.8 -0.29,0.8 -0.29,0.8l0.44 7.44c0,0 -1.31,-4.89 -1.67,-5.69zm23.94 -7.66l0 8.54 -1.11 3.71 0 -8.01 -1 -1.31 0 -2.4c0.82,-0.19 1.53,-0.37 2.11,-0.52z"/>
     <path class="fil11" d="M207.64 119.6c-0.21,-0.2 -1.22,-0.93 -5.19,-1.99 -4.66,-1.24 -9.53,-1.31 -9.53,-1.31 0,0 -1.02,0.51 -2.62,1.53 -0.82,0.53 -1.22,0.9 -1.42,1.13 0.47,-1.2 2.73,-4.03 2.73,-4.03 0,0 6.45,0.04 10.24,1.46 3.79,1.42 5.89,3.14 5.89,3.14 -0.02,0.02 -0.06,0.04 -0.1,0.06z"/>
     <path class="fil12" d="M187.29 114.33l-1.24 -0.03c2.1,-0.93 3.61,-3.05 5.75,-4.12 0.66,-0.33 -2.18,-0.58 -2.18,-0.58 2.46,-0.89 5.2,-1.49 7.79,-0.77 0,0 -1.6,-1.2 -1.42,-1.2 1.77,0 4.93,1.41 6.26,2.62l-0.55 -1.82c0,0 2.15,1.93 5.2,4.7 2.04,1.85 2.65,3.19 2.84,3.89 -2.16,-2.61 -5.15,-6.26 -11.15,-6.87 -5.99,-0.61 -9.15,3.02 -10.11,3.57 -0.95,0.54 -0.81,0.43 -1.19,0.61z"/>
    </g>
   </g>
  </g>
  <g id="_2532586447120">
   <circle class="fil1" transform="matrix(0.401074 -0.122207 0.122207 0.401074 278.872 104.706)" r="63.22"/>
   <g>
    <path class="fil2" d="M267.67 115.93c0,0 2.44,-1.45 4.37,-2.47 1.61,-0.85 3.65,-2.01 4.29,-2.38 2.63,0.31 5.11,0.55 6.57,-0.38 0.93,0.46 5.49,2.73 7.72,3.67 2.49,1.05 2.52,1.09 2.52,1.09 0,0 1.41,3.63 2.45,9.83 -1.14,0.92 -2.36,1.76 -3.66,2.49 -0.45,-3.42 -0.89,-5.87 -0.89,-5.87 0,0 -1,3.3 -1.98,7.27 -0.79,0.33 -1.61,0.62 -2.44,0.88 -6.46,1.97 -13.1,1.35 -18.79,-1.27 -0.11,-2.44 -0.28,-4.55 -0.42,-6.16 -0.42,-4.61 0.28,-6.71 0.28,-6.71z"/>
    <path class="fil3" d="M276.21 107.3c0.12,0.97 0.24,2.26 0.11,3.86 1.96,3.96 5.47,2.67 6.54,-0.41 -0.18,-0.87 -0.42,-2.34 -0.39,-4.05l-0.28 0.29c-1.78,1.87 -4.14,1.97 -5.99,0.31z"/>
    <path class="fil4" d="M276.18 106.88c0.04,0.35 0.12,1.19 0.16,1.65 1.45,1.45 3.94,3.43 6.25,2.9l0.28 -0.68c-0.18,-0.87 -0.46,-2.76 -0.43,-4.48l-0.28 0.29c-1.78,1.87 -4.14,1.97 -5.99,0.31z"/>
    <path class="fil5" d="M267.67 115.93c0,0 0.2,-0.12 0.53,-0.31 0.32,2.36 0.87,5.42 1.83,8.69 0.6,2.04 1.15,4.04 1.65,5.92 -1.32,-0.37 -2.61,-0.85 -3.86,-1.43 -0.11,-2.44 -0.28,-4.55 -0.42,-6.16 -0.42,-4.61 0.28,-6.71 0.28,-6.71z"/>
    <path class="fil6" d="M267.67 115.93c0,0 2.44,-1.45 4.37,-2.47 0.63,-0.33 1.32,-0.71 1.97,-1.07 -1.23,0.82 -4.61,3.11 -5.61,4.02 -0.44,0.4 -0.79,0.96 -1.06,1.5 0.12,-1.35 0.33,-1.99 0.33,-1.99z"/>
    <path class="fil7" d="M285.13 111.81c1.76,0.86 4.07,1.97 5.47,2.56 1.5,0.64 2.11,0.9 2.36,1.01 -1.9,2.11 -2.34,6.45 -2.09,3.97 0.28,-2.87 0.49,-3.21 0.49,-3.21l-6.22 -4.33z"/>
    <g>
     <path class="fil8" d="M271.34 96.98c0,0 -0.26,-7.16 0,-7.23 0.26,-0.07 -0.81,-0.08 -0.81,-0.08 0.54,-0.48 1.57,-0.93 1.96,-1.49l-1.04 -0.02c1.3,-0.58 2.23,-1.89 3.56,-2.55 0.41,-0.2 -1.35,-0.36 -1.35,-0.36 1.52,-0.55 3.22,-0.92 4.82,-0.47 0,0 -0.99,-0.75 -0.88,-0.75 1.1,0 3.05,0.88 3.88,1.63l-0.34 -1.13c0,0 1.33,1.2 3.22,2.91 1.89,1.72 1.8,2.73 1.8,2.73l0 7.35 -0.69 2.3 0 -4.96 -0.62 -0.81 0 -2.58c0,0 -0.36,-0.5 -3.25,-1.27 -2.89,-0.77 -5.91,-0.81 -5.91,-0.81 0,0 -0.63,0.32 -1.62,0.95 -0.99,0.63 -0.99,0.9 -0.99,0.9l0 2.58c0,0 -0.63,1.08 -0.81,1.58 -0.18,0.5 -0.18,0.5 -0.18,0.5l0.27 4.61c0,0 -0.81,-3.03 -1.04,-3.52z"/>
     <path class="fil3" d="M271.32 96.36c-0.48,0.14 -1.35,0.56 -1.54,1.74 -0.27,1.64 0.93,2.44 1.56,2.57 0.63,0.14 1.09,0.14 1.09,0.14l1.15 5.26 5.71 2.87 5.38 -2.96 0.6 -4.98c0,0 1.69,-0.27 1.97,-1.89 0.27,-1.62 -0.49,-2.3 -0.66,-2.46 -0.07,-0.07 -0.24,-0.15 -0.4,-0.21l0 1.09 -0.69 2.3 0 -4.96 -0.62 -0.81 0 -2.58c0,0 -0.36,-0.5 -3.25,-1.27 -2.88,-0.77 -5.91,-0.81 -5.91,-0.81 0,0 -0.63,0.32 -1.62,0.95 -0.99,0.63 -0.99,0.9 -0.99,0.9l0 2.58c0,0 -0.63,1.08 -0.81,1.58 -0.18,0.5 -0.18,0.5 -0.18,0.5l0.27 4.61c0,0 -0.81,-3.03 -1.04,-3.52l-0.02 -0.63z"/>
     <path class="fil9" d="M272.2 100.79c0.14,0.01 0.22,0.01 0.22,0.01l0.91 4.18c-0.13,-2.86 -0.07,-7.62 -0.09,-8.4 -0.03,-1.04 0.33,-1.97 0.33,-1.97l-0.47 -1.08 0 0.28c0,0 -0.63,1.08 -0.81,1.58 -0.18,0.5 -0.18,0.5 -0.18,0.5l0.27 4.61c0,0 -0.15,-0.57 -0.35,-1.26l0.17 1.55z"/>
     <path class="fil9" d="M284.77 105.07l0.49 -4.08c0,0 0.1,-0.02 0.24,-0.06 0.03,-0.45 0.08,-1.04 0.12,-1.57l-0.14 0.46 0 -4.96 -0.62 -0.81 0 -0.65 -0.26 1.08c0,0 0.13,7.06 0.16,10.59z"/>
     <path class="fil10" d="M271.34 96.98c0,0 -0.08,-2.05 -0.11,-3.96 0.51,0.19 1.14,0.37 1.86,0.53l0 0.28c0,0 -0.63,1.08 -0.81,1.58 -0.18,0.5 -0.18,0.5 -0.18,0.5l0.27 4.61c0,0 -0.81,-3.03 -1.04,-3.52zm14.83 -4.75l0 5.29 -0.69 2.3 0 -4.96 -0.62 -0.81 0 -1.48c0.5,-0.12 0.95,-0.23 1.31,-0.33z"/>
     <path class="fil11" d="M284.83 91.44c-0.13,-0.12 -0.76,-0.58 -3.21,-1.23 -2.88,-0.77 -5.91,-0.81 -5.91,-0.81 0,0 -0.63,0.32 -1.62,0.95 -0.51,0.33 -0.76,0.56 -0.88,0.7 0.29,-0.74 1.69,-2.49 1.69,-2.49 0,0 4,0.03 6.34,0.91 2.34,0.88 3.65,1.94 3.65,1.94 -0.01,0.01 -0.04,0.03 -0.06,0.04z"/>
     <path class="fil12" d="M272.22 88.18l-0.77 -0.02c1.3,-0.58 2.23,-1.89 3.56,-2.55 0.41,-0.2 -1.35,-0.36 -1.35,-0.36 1.52,-0.55 3.22,-0.92 4.82,-0.47 0,0 -0.99,-0.75 -0.88,-0.75 1.1,0 3.05,0.88 3.88,1.63l-0.34 -1.13c0,0 1.33,1.2 3.22,2.91 1.26,1.15 1.64,1.98 1.76,2.41 -1.34,-1.62 -3.19,-3.88 -6.91,-4.26 -3.71,-0.38 -5.67,1.87 -6.26,2.21 -0.59,0.34 -0.5,0.27 -0.74,0.38z"/>
    </g>
   </g>
  </g>
  <g id="_2532626533888">
   <polygon class="fil13" points="305.67,257.96 318.8,245.59 376.34,303.57 363.21,315.95 "/>
   <path class="fil10" d="M359.27 319.66c6.5,-6.13 13.01,-12.26 19.51,-18.39 -24.17,-19.26 -32.04,-29.53 -47.47,-48.8 -1.26,-1.34 -3.4,-1.4 -4.74,-0.14 -4.95,4.67 -9.9,9.33 -14.85,14 -1.22,1.15 -1.28,3.09 -0.13,4.31 21.01,18.92 31.36,23.26 47.68,49.02z"/>
   <path class="fil5" d="M363.32 316.11c3.7,-3.48 7.39,-6.97 11.09,-10.45 -24.67,-20.05 -27.56,-26.92 -48.3,-50.28 -0.72,-0.76 -1.93,-0.8 -2.69,-0.08 -2.81,2.65 -5.63,5.3 -8.44,7.95 -0.69,0.65 -0.73,1.76 -0.07,2.45 21.1,18.82 32.61,26.08 48.42,50.4z"/>
   <circle class="fil14" transform="matrix(0.242466 -0.228514 0.228514 0.242466 259.299 195.61)" r="209.14"/>
   <circle class="fil8" transform="matrix(0.228029 -0.214908 0.214908 0.228029 258.711 198.008)" r="209.14"/>
   <circle class="fil15" transform="matrix(0.209791 -0.197719 0.197719 0.209791 259.299 195.61)" r="209.14"/>
   <rect class="fil16" transform="matrix(0.173428 -0.163449 0.163449 0.173428 293.8 254.803)" width="130" height="60.71" rx="30.35" ry="30.35"/>
   <path class="fil17" d="M315.22 240.36c1.23,-1.14 3.16,-1.09 4.31,0.13l0 0c1.15,1.22 1.1,3.17 -0.13,4.31 -18.94,17.53 -23.36,13.32 -4.18,-4.44z"/>
   <g>
    <path class="fil18" d="M228.23 247.4c11.8,-8.1 27.13,-21.32 44.39,-14.22 4.75,2.94 13.45,6.54 21.91,9.72 -10.11,7.78 -22.77,12.41 -36.52,12.41 -10.84,0 -21,-2.88 -29.77,-7.91z"/>
    <path class="fil19" d="M241 240.07l6.72 -11.17c0,0 16.64,-4.49 20.23,-1.74 3.6,2.75 9.14,10.29 9.14,10.29 0,0 -4.21,6.09 -9.44,17.09 -3.14,0.51 -6.36,0.78 -9.64,0.78 -6.36,0 -12.49,-0.99 -18.24,-2.83 0.36,-4.15 0.77,-8.3 1.23,-12.41z"/>
    <path class="fil3" d="M269.28 209.63c-0.17,0 -3.25,20.43 0.47,26.51 -4.27,9.92 -11.5,13.31 -18.03,18.01 0,0 -6.12,-5.98 -5.15,-16.43 2.25,-5.13 0.48,-18.93 0.7,-20.46 1.76,-12.25 22.02,-7.62 22.02,-7.62z"/>
    <path class="fil4" d="M269.28 209.63c-0.13,0 -2.07,12.66 -1.07,21.01 0.13,3.05 0.86,4.4 0.93,4.85 -8.02,-0.07 -16.32,-5.17 -21.42,-6.59 0.01,-5.28 -0.59,-10.72 -0.46,-11.65 1.76,-12.25 22.02,-7.62 22.02,-7.62z"/>
    <path class="fil20" d="M252.16 254.31c-0.41,-0.78 -1.96,-0.76 -3.66,0.24 2.65,0.42 5.37,0.67 8.12,0.74 -1.24,-1.09 -2.72,-1.59 -4.47,-0.98z"/>
    <g>
     <path class="fil21" d="M233.29 197.71c0,0 -11.26,-37.86 -11.26,-39.73 12.76,3.26 52.89,-24.59 63.15,-0.94 2.42,5.57 -2.34,36.49 -3.96,39.3 -1.63,2.81 -27.23,4.05 -47.93,1.37z"/>
     <path class="fil3" d="M235.6 189.31l0.27 5.17c0,0 -4.71,-1.56 -5.84,0.84 -1.13,2.4 -0.66,11.8 1.47,13.3 2.14,1.5 4.46,0.76 4.46,0.76 0,0 0.57,7.3 1.81,9.2 1.25,1.9 13.08,10.67 19.63,10.59 6.56,-0.08 19.74,-10.53 20.63,-12.8 0.89,-2.27 1.49,-7.17 1.49,-7.17 0,0 6.43,-0.4 7.02,-7.53 0.59,-7.13 -1.76,-8.88 -3.61,-9.19 -1.85,-0.31 -3.34,0.82 -3.34,0.82 0,0 -0,-1.51 -0.02,-3.81 -0.01,-0.06 -2,-17.18 -4.36,-18.78 -2.36,-1.6 -11.08,-6.11 -17.31,0.68 -6.22,6.79 -15.94,9.27 -22.56,7.29 0.2,2.97 0.61,7.35 0.23,10.63z"/>
     <path class="fil22" d="M244.97 208.36c0,0 5.4,1.62 12.57,1.66 7.17,0.05 14.61,-3.67 14.61,-3.67 0,0 -5.42,10.35 -12.99,10.97 -7.58,0.62 -14.19,-8.97 -14.19,-8.97z"/>
     <path class="fil9" d="M273.05 221.24c2.7,-2.11 4.67,-4.04 5,-4.87 0.89,-2.27 1.49,-7.17 1.49,-7.17 0,0 6.43,-0.4 7.02,-7.53 0.59,-7.13 -1.76,-8.88 -3.61,-9.19 -1.85,-0.31 -3.34,0.82 -3.34,0.82 0,0 -0,-1.51 -0.02,-3.81 -0.01,-0.05 -1.53,-13.18 -3.5,-17.52 0,0 2.2,34.85 -3.04,49.28z"/>
     <path class="fil3" d="M235.88 194.48c0,0 -4.71,-1.56 -5.84,0.84 -1.13,2.4 -0.66,11.8 1.47,13.3 2.14,1.5 4.46,0.76 4.46,0.76l-0.09 -14.9zm43.6 15.21c0.03,-0.23 0.05,-0.4 0.06,-0.46 -0.02,0.15 -0.04,0.31 -0.06,0.46zm0.06 -0.49c0,0 6.43,-0.4 7.02,-7.53 0.59,-7.13 -1.76,-8.88 -3.61,-9.19 -1.6,-0.27 -2.94,0.55 -3.27,0.76 0.23,2.13 0.82,9.07 -0.14,15.96z"/>
     <path class="fil4" d="M235.91 199.41c-3.83,-1.89 -4.8,2.63 -0.18,6.2 -5.97,-0.49 -6.18,-10.31 0.17,-7.4 0,0.4 0,0.8 0.01,1.2z"/>
     <path class="fil4" d="M280.24 197.78c3.99,-1.53 4.54,3.06 -0.39,6.19 5.99,0.06 7.1,-9.69 0.51,-7.38 -0.04,0.4 -0.08,0.8 -0.12,1.2z"/>
     <path class="fil23" d="M247.8 209.96c0,0 6.96,0.46 12.93,-0.14 5.98,-0.6 8.71,-1.27 8.71,-1.27 0,0 -4.79,7.28 -9.68,7.7 -4.9,0.42 -11.44,-5 -11.96,-6.29z"/>
     <path class="fil24" d="M266.68 211.99c-0.22,0.24 -0.45,0.47 -0.7,0.71 -4.72,-0.96 -11.5,-0.41 -14.77,0.43 -0.32,-0.22 -0.62,-0.45 -0.91,-0.67 2.34,-0.1 10.53,-0.43 16.37,-0.47z"/>
     <path class="fil9" d="M251.37 227.65c2.19,0.93 4.31,1.54 6.05,1.52 5.06,-0.06 14.06,-6.29 18.32,-10.18 -0.05,0.04 -15.18,11.16 -24.37,8.66l-0 0z"/>
     <g>
      <path id="_101832768" class="fil25" d="M261.64 204.04c0,0 -1.45,0.37 -3.7,0.28 -2.24,-0.1 -3.73,-0.22 -3.73,-0.22 0,0 3.98,3.17 7.43,-0.05z"/>
      <path id="_103295184" class="fil26" d="M263.24 181.42c0,0 -0.99,1.49 -1.38,4.81 -0.4,3.33 0.36,7.16 0.36,7.16 0,0 -0.22,-4.36 3.37,-7.54 3.59,-3.18 6.56,-2.45 6.56,-2.45 0,0 -7.13,-2.7 -8.9,-1.99z"/>
      <path id="_104758696" class="fil26" d="M250.87 181.41c0,0 0.99,1.49 1.38,4.82 0.39,3.33 -0.36,7.16 -0.36,7.16 0,0 0.22,-4.36 -3.37,-7.54 -3.59,-3.18 -6.56,-2.45 -6.56,-2.45 0,0 7.13,-2.7 8.9,-1.98z"/>
      <path id="_104759512" class="fil21" d="M274.45 183.47c0,0 -3.78,-1.47 -7.66,-1.21 -3.88,0.25 -4.26,0.63 -4.26,0.63l-0.48 -3.06c0,0 1.83,-1.18 6.39,-0.73 4.56,0.46 5.82,3.26 5.82,3.26l0.18 1.11z"/>
      <g>
       <path id="_103291680" class="fil27" d="M241.8 192.19l0.05 0.07c1.55,0.08 5.16,0.3 9.02,0.75l0.08 -0.07c-0.3,-7.85 -10.47,-7.59 -9.14,-0.75z"/>
       <path id="_101830608" class="fil27" d="M263.17 192.83c0.39,-7.66 10.29,-7.44 9.17,-0.81 -5.02,0.36 -7.72,0.62 -9.17,0.81z"/>
       <path id="_101830536" class="fil28" d="M241.8 192.19l0.05 0.07c1.55,0.08 5.16,0.3 9.02,0.75l0.08 -0.07c-0.3,-7.85 -10.47,-7.59 -9.14,-0.75z"/>
       <path id="_103294608" class="fil28" d="M263.17 192.83c0.39,-7.66 10.29,-7.44 9.17,-0.81 -5.02,0.36 -7.72,0.62 -9.17,0.81z"/>
       <path id="_101830296" class="fil29" d="M246.42 187.77c2.05,0 3.7,1.66 3.7,3.7 0,0.5 -0.1,0.98 -0.28,1.42 -2.81,-0.3 -5.4,-0.48 -7.03,-0.58 -0.06,-0.27 -0.09,-0.55 -0.09,-0.84 0,-2.05 1.66,-3.7 3.7,-3.7z"/>
       <path id="_102220288" class="fil29" d="M267.69 187.78c-2.05,-0 -3.7,1.66 -3.7,3.7 0,0.43 0.07,0.84 0.21,1.23 1.46,-0.16 3.7,-0.36 7.15,-0.61 0.03,-0.2 0.05,-0.41 0.05,-0.61 0,-2.05 -1.66,-3.7 -3.7,-3.7z"/>
       <path id="_103291488" class="fil30" d="M246.42 188.28c1.76,0 3.19,1.43 3.19,3.19 0,0.49 -0.11,0.95 -0.3,1.36 -2.32,-0.24 -4.45,-0.4 -5.96,-0.49 -0.08,-0.28 -0.12,-0.57 -0.12,-0.87 0,-1.76 1.43,-3.19 3.19,-3.19z"/>
       <path id="_104760976" class="fil30" d="M267.69 188.29c-1.76,0 -3.19,1.43 -3.19,3.19 0,0.41 0.08,0.81 0.22,1.17 1.37,-0.14 3.32,-0.31 6.1,-0.52 0.04,-0.21 0.07,-0.43 0.07,-0.65 0,-1.76 -1.43,-3.19 -3.19,-3.2z"/>
       <path id="_104758888" class="fil31" d="M246.42 189.89c0.88,0 1.59,0.71 1.59,1.59 0,0.47 -0.2,0.89 -0.53,1.18 -0.81,-0.07 -1.59,-0.14 -2.29,-0.19 -0.22,-0.27 -0.35,-0.62 -0.35,-1 0,-0.88 0.71,-1.59 1.59,-1.59z"/>
       <path id="_103290816" class="fil31" d="M267.69 189.89c-0.88,0 -1.59,0.71 -1.59,1.59 0,0.38 0.13,0.73 0.36,1 0.75,-0.07 1.61,-0.14 2.61,-0.22 0.13,-0.23 0.21,-0.5 0.21,-0.79 0,-0.88 -0.71,-1.59 -1.59,-1.59z"/>
       <path id="_102222424" class="fil28" d="M244.02 188.99c0.43,0 0.77,0.35 0.77,0.77 0,0.43 -0.35,0.77 -0.77,0.77 -0.43,0 -0.77,-0.35 -0.77,-0.77 0,-0.43 0.35,-0.77 0.77,-0.77z"/>
       <path id="_102222496" class="fil28" d="M265.43 189.33c0.43,0 0.77,0.35 0.77,0.77 0,0.43 -0.35,0.77 -0.77,0.77 -0.43,0 -0.77,-0.35 -0.77,-0.77 0,-0.43 0.35,-0.77 0.77,-0.77z"/>
       <path id="_102223648" class="fil28" d="M245.46 190.08c0.36,0 0.65,0.29 0.65,0.65 0,0.36 -0.29,0.65 -0.65,0.65 -0.36,0 -0.65,-0.29 -0.65,-0.65 0,-0.36 0.29,-0.65 0.65,-0.65z"/>
       <path id="_102221968" class="fil28" d="M266.87 190.41c0.36,0 0.65,0.29 0.65,0.65 0,0.36 -0.29,0.65 -0.65,0.65 -0.36,0 -0.65,-0.29 -0.65,-0.65 0,-0.36 0.29,-0.65 0.65,-0.65z"/>
       <path id="_102222568" class="fil21" d="M250.98 192.94c-0.38,-2.56 -2.57,-5.18 -5.96,-4.77 -2.2,0.26 -3.05,1.84 -3.23,3.97 -1.1,-1.98 0.02,-5.26 2.78,-5.61 2.69,-0.35 6.59,1.29 6.41,6.41z"/>
       <path id="_102222640" class="fil21" d="M263.14 192.83c0.43,-2.53 2.6,-5.06 5.94,-4.66 2.16,0.26 3.01,1.78 3.21,3.85l0.08 -0.01c0.98,-1.99 -0.15,-5.13 -2.85,-5.48 -2.67,-0.35 -6.53,1.27 -6.41,6.3l0.02 -0z"/>
      </g>
      <path id="_102223072" class="fil9" d="M258.75 187.06c0,0 -0,4.86 0.34,9.71 0.34,4.86 0.46,6.82 0.46,6.82l-3.09 0.1c0,0 1.37,-12.19 2.29,-16.64z"/>
      <path id="_102223144" class="fil21" d="M239.48 183.65c0,0 3.75,-1.54 7.63,-1.37 3.88,0.18 4.27,0.55 4.27,0.55l0.76 -2.62c0,0 -1.85,-1.15 -6.4,-0.6 -4.55,0.55 -6.1,2.93 -6.1,2.93l-0.16 1.11z"/>
     </g>
     <path class="fil18" d="M222.03 157.97c12.76,3.26 52.89,-24.59 63.15,-0.94 0.53,1.23 0.72,3.7 0.66,6.84 -9.1,-11.71 -30.89,-8.51 -43.82,-5.19 -13.49,3.47 -20,-0.71 -20,-0.71z"/>
     <path class="fil32" d="M222.43 158.06c13.16,2.63 52.6,-24.44 62.76,-1.02 0.17,0.38 0.3,0.88 0.4,1.49 -11.22,-12.46 -30.69,-5.6 -47.64,-1.45 -8.46,2.07 -13.04,1.86 -15.53,0.98z"/>
    </g>
   </g>
   <path class="fil13" d="M330.88 260.83c-3.52,-4.02 -10.09,-5.95 13.11,18.62 23.2,24.58 22.66,19.92 21.5,18.74 -1.15,-1.18 -24.26,-24.14 -34.62,-37.36z"/>
   <rect class="fil16" transform="matrix(0.173428 -0.163449 0.163449 0.173428 356.224 319.044)" width="130" height="60.71" rx="30.35" ry="30.35"/>
   <path class="fil17" d="M375.94 303.63c1.23,-1.14 3.16,-1.09 4.31,0.13l0 0c1.15,1.22 1.1,3.17 -0.13,4.31 -18.94,17.53 -23.36,13.32 -4.18,-4.43z"/>
  </g>
 </g>
</svg>
