<?xml version="1.0" encoding="UTF-8"?>
<!DOCTYPE svg PUBLIC "-//W3C//DTD SVG 1.1//EN" "http://www.w3.org/Graphics/SVG/1.1/DTD/svg11.dtd">
<!-- Creator: CorelDRAW 2020 (64-Bit) -->
<svg xmlns="http://www.w3.org/2000/svg" xml:space="preserve" width="125.73mm" height="99.9067mm" version="1.1" style="shape-rendering:geometricPrecision; text-rendering:geometricPrecision; image-rendering:optimizeQuality; fill-rule:evenodd; clip-rule:evenodd"
viewBox="0 0 486.42 386.52"
 xmlns:xlink="http://www.w3.org/1999/xlink"
 xmlns:xodm="http://www.corel.com/coreldraw/odm/2003">
 <defs>
  <style type="text/css">
   <![CDATA[
    .fil5 {fill:#FEFEFE}
    .fil12 {fill:#EFB46C}
    .fil11 {fill:#3D3D3D}
    .fil2 {fill:#424242}
    .fil9 {fill:#575757}
    .fil4 {fill:#5E5E5E}
    .fil6 {fill:#707070}
    .fil7 {fill:#DBA240}
    .fil13 {fill:#E8B358}
    .fil0 {fill:#F7F7F7}
    .fil1 {fill:#FFAA00}
    .fil8 {fill:#FFC86A}
    .fil10 {fill:#FFDB9C}
    .fil3 {fill:#424242;fill-rule:nonzero}
   ]]>
  </style>
 </defs>
 <g id="Layer_x0020_1">
  <metadata id="CorelCorpID_0Corel-Layer"/>
  <rect class="fil0" y="-0" width="486.42" height="386.52" rx="13.31" ry="13.31"/>
  <path class="fil1" d="M294.39 116.81c45.08,0 81.62,36.54 81.62,81.62 0,45.08 -36.54,81.62 -81.62,81.62 -16.2,0 -31.29,-4.72 -43.98,-12.86 -9.41,5.57 -20.39,8.77 -32.12,8.77 -34.87,0 -63.13,-28.27 -63.13,-63.13 0,-2.39 0.14,-4.75 0.4,-7.08 -4.67,-10.28 -7.27,-21.69 -7.27,-33.72 0,-45.08 36.54,-81.62 81.62,-81.62 9.67,0 18.94,1.68 27.55,4.77 0.57,-10.16 8.99,-18.23 19.3,-18.23 10.68,0 19.33,8.65 19.33,19.33 0,7.19 -3.92,13.46 -9.75,16.79 1.3,1.24 2.55,2.52 3.76,3.84 1.42,-0.07 2.85,-0.11 4.29,-0.11zm-40.22 -8.87c31.95,0 57.85,25.9 57.85,57.85 0,31.95 -25.9,57.85 -57.85,57.85 -31.95,0 -57.85,-25.9 -57.85,-57.85 0,-31.95 25.9,-57.85 57.85,-57.85z"/>
  <g id="_2532621359216">
   <path class="fil2" d="M208.57 180.94c1.59,3.22 3.7,10.62 5.51,27.48 3.44,32.06 10.54,53.79 13.77,62.61 0.54,1.47 1.05,2.79 1.54,3.97 -3.2,0.57 -6.48,0.9 -9.83,0.96 -5.19,-8.47 -11.79,-20.8 -14.36,-32.22 0.11,-10.29 6.34,-18.77 6.94,-28.87 0.6,-10.1 -2.33,-27.84 -3.57,-33.94z"/>
   <path class="fil3" d="M301.63 219.05c0.45,35.52 -1.3,34.18 -33.06,40.94l2.25 -11.8c31.71,-7.22 15.05,-15.95 26.51,-62.17 0.14,-2.2 0.56,-4.82 2.87,-5.79 -1.53,9.28 1.14,31.12 1.43,38.82z"/>
   <path class="fil4" d="M299.8 180.44c6.3,-2.02 17.92,-15.44 29.18,-10.82 3.32,2.06 10.44,4.74 15.82,6.64 5.38,1.9 5.38,1.74 6.01,2.85 5.31,9.28 9.16,38.15 11.3,64.87 -3.59,5.33 -7.8,10.22 -12.52,14.56 -1.32,-18.85 -3.64,-39.93 -6.58,-44.85 -3.6,19.24 -4.01,35.63 -3.66,52.86 -11.36,7.51 -24.7,12.26 -39.08,13.28 -2.98,-33.1 -5.8,-67.43 -0.47,-99.4z"/>
   <path class="fil4" d="M165.24 181.96l14.63 -10.54 0.14 -0.03c1.14,2 6.63,12.03 10.85,26.58 4.72,16.32 7.41,28.35 7.41,28.35 0,0 0.22,-20.08 -0.21,-34.25 -0.43,-14.17 -1.93,-18.47 -1.93,-18.47l-0.02 -0.04c5.56,2.19 11.96,4.96 11.96,4.96 0,0 4.95,21.94 4.09,36.36 -0.86,14.41 -0.65,30.98 -1.08,49.91 -0.09,3.94 -0.14,7.54 -0.16,10.76 -12.79,-1.49 -24.42,-6.8 -33.7,-14.76 -0.05,-5.6 -0.39,-11.49 -1.21,-17.3 -3.44,-24.31 -11.62,-48.41 -10.76,-61.53z"/>
   <path class="fil5" d="M184.52 167.26l-4.72 3.76c0,0 6.34,10.63 11.06,26.95 4.72,16.32 7.41,28.35 7.41,28.35 0,0 0.22,-20.08 -0.21,-34.25 -0.43,-14.17 -1.93,-18.47 -1.93,-18.47l-2.68 -4.62 -0.05 -0.01 -1.67 7.2c0,0 0,0 -1.18,-1.83 -0.76,-1.17 -3.39,-4.62 -5.17,-6.92l-0.85 -0.16z"/>
   <path class="fil6" d="M175.8 185.58c-2.57,-5.92 -13.66,-6.32 -14.45,2.02 -1.3,13.63 12.2,48.98 19.7,57.16 13.7,14.92 33.89,15.17 52.8,15.17l0.52 -11.8c-24.74,-0.43 -32.34,-4.82 -39.47,-10.99 -9.76,-8.44 -12.97,-22.03 -19.1,-51.56z"/>
   <path class="fil7" d="M185.2 167.39c0,0 0.93,-3.78 0.29,-9.47l7.84 3.22c0,0 -0.63,4.39 -0.08,8.43l-1.53 6.6c0,0 0,0 -1.18,-1.83 -0.76,-1.17 -3.39,-4.62 -5.17,-6.92l-0.17 -0.03z"/>
   <g>
    <g>
     <path class="fil8" d="M208.12 127.49c0,0 3.47,6.56 4.13,9.19 0.66,2.64 -0.12,5.24 0.56,6.35 0.69,1.1 4.75,6.35 5.17,7.06 0.43,0.71 0.6,0.86 -1.12,2.3 -1.71,1.44 -4.04,1.52 -4.04,1.52 0,0 0.76,3.35 -5.08,9.99 -5.84,6.64 -8.4,6.9 -8.4,6.9 0,0 -2.2,-0.45 -4.88,-2.04 -2.67,-1.59 -4.87,-3.32 -4.87,-3.32l-0.2 0.1c-3.13,-2.93 -4.64,-5.23 -5.72,-6.95 1.93,-3.52 2.54,-6.5 2.54,-6.5 0,0 -5.88,-2.44 -3.94,-6.3 1.94,-3.86 4.39,-2.91 7.76,-1.02 3.37,1.89 5,4.49 5,4.49l2.21 0.12c0,0 3.74,-7.04 1.64,-11.77 -2.11,-4.73 -2.34,-10.98 9.24,-10.12z"/>
     <path class="fil9" d="M183.75 158.45c-1.34,-2.66 -4.03,-7.76 -7,-12.14 -4.25,-6.26 -7.24,-9.03 -7.24,-9.03 0,0 -2.38,-12.1 10.16,-15.47 12.55,-3.36 24.86,-4.47 30.23,-6.76 5.37,-2.29 -1.62,-4.59 -1.62,-4.59 0,0 4.4,-0.72 7.52,5.21 2.87,5.45 -1.02,12.26 -6.72,13.69 -0.56,-1.11 -0.96,-1.87 -0.96,-1.87 -11.58,-0.86 -11.35,5.39 -9.24,10.12 2.1,4.73 -1.64,11.77 -1.64,11.77l-2.21 -0.12c0,0 -1.63,-2.6 -5,-4.49 -3.37,-1.89 -5.82,-2.84 -7.76,1.02 -1.94,3.86 3.94,6.3 3.94,6.3 0,0 -0.59,2.9 -2.46,6.35z"/>
     <path class="fil7" d="M196.36 169.75c-0.58,-0.27 -1.23,-0.59 -1.9,-0.99 -2.67,-1.59 -4.87,-3.32 -4.87,-3.32l-0.2 0.1c-3.13,-2.93 -4.64,-5.23 -5.72,-6.95 0.41,-0.74 0.76,-1.46 1.05,-2.13 1.37,3.01 4.75,8.94 11.63,13.29z"/>
     <path class="fil10" d="M208.12 127.49c0,0 3.47,6.56 4.13,9.19 0.59,2.33 0.04,4.64 0.38,5.91l-0.17 -0.35c0,0 -0.37,-5.63 -3.37,-10.43 -1.32,-2.11 -2.39,-3.5 -3.18,-4.39 0.68,-0 1.42,0.02 2.21,0.08zm4.8 15.7c0.92,1.38 4.66,6.22 5.07,6.9 0.41,0.69 0.58,0.85 -0.96,2.16 -0.88,-2.23 -3.14,-7.02 -4.11,-9.06z"/>
     <path class="fil11" d="M205.46 137.51c0,0 1.96,-0.16 3.7,0.06 1.74,0.22 2.27,0.44 2.27,0.44l-0.66 -2.55c0,0 -2.18,-0.32 -5.31,2.06z"/>
     <path class="fil11" d="M183.75 158.45c-1.34,-2.66 -4.03,-7.76 -7,-12.14 -1.41,-2.07 -2.68,-3.77 -3.75,-5.1 11.95,0.97 22.99,-0.85 26.44,-1.51 0.57,4.47 -2.2,9.69 -2.2,9.69l-2.21 -0.12c0,0 -1.63,-2.6 -5,-4.49 -3.37,-1.89 -5.82,-2.84 -7.76,1.02 -1.94,3.86 3.94,6.3 3.94,6.3 0,0 -0.59,2.9 -2.46,6.35z"/>
     <path class="fil6" d="M170.64 138.45c-0.73,-0.79 -1.13,-1.17 -1.13,-1.17 0,0 -2.38,-12.1 10.16,-15.47 12.55,-3.36 24.86,-4.47 30.23,-6.76 1.3,-0.55 1.87,-1.11 2,-1.63 0.27,1.5 -1.96,3.32 -5.83,4.34 -6.04,1.59 -20.39,3.75 -27.61,7.87 -4.82,2.75 -6.94,8.98 -7.81,12.82z"/>
     <path class="fil11" d="M212.36 111.62c1.14,0.77 2.36,2.02 3.43,4.05 2.87,5.45 -1.02,12.26 -6.72,13.69 -0.56,-1.11 -0.96,-1.87 -0.96,-1.87 -11.48,-0.85 -11.35,5.28 -9.29,10 -0.93,-1.25 -2.46,-4.03 -1.31,-7.58 1.58,-4.9 12.17,-3.52 16,-6.57 3.43,-2.73 2.1,-8.27 -1.15,-11.72z"/>
     <path class="fil7" d="M206.1 137.52c3.69,-0.14 5.2,0.34 5.37,0.65l0.15 4.94c0,0 -2.08,-5.09 -5.52,-5.59z"/>
     <path class="fil7" d="M217.01 152.26l-0.15 0.12c-1.71,1.44 -4.04,1.52 -4.04,1.52 0,0 0.13,0.57 -0.13,1.72 -0.12,0.52 -0.74,3.43 -4.87,8.24 4.57,-6.23 3.22,-10.61 3.22,-10.61 0,0 0.73,0.17 3.09,-0.24 2.36,-0.41 2.86,-0.83 2.86,-0.83l0.02 0.08z"/>
    </g>
    <path class="fil11" d="M208.62 161.74c0,0 -2.29,-0.52 -5.77,-1.82 -3.48,-1.3 -6.96,-2.97 -6.96,-2.97 0,0 -0.27,0.81 0.05,1.15 0.32,0.35 4.37,6.22 7.23,6.73 2.86,0.52 3.68,-2.32 3.68,-2.32l1.76 -0.77z"/>
    <path class="fil5" d="M207.17 161.37c-1,-0.29 -2.49,-0.77 -4.32,-1.45 -1.82,-0.68 -3.16,-1.18 -4.44,-1.64 -0.5,0.42 -0.87,0.62 -0.7,1.52 1.66,2.02 8.16,4.64 8.4,4.04 0.39,-1.05 0.75,-1.87 1.06,-2.47z"/>
    <path class="fil11" d="M211.69 143.08c0,0 -0.25,-2.25 -2.1,-2.4 -1.85,-0.15 -4.85,2.05 -4.85,2.05 0,0 4.55,-0.45 6.94,0.35z"/>
   </g>
   <path class="fil5" d="M314.17 173.38l5.26 -7.3c0,0 1.93,-1.72 3.76,-0.32 1.83,1.4 6.33,5.8 6.33,5.8 0,0 -5.15,10.2 -9.56,26.63 -4.4,16.43 -8.59,31.11 -8.59,31.11 0,0 -0.21,-29.26 2.79,-55.91z"/>
   <path class="fil7" d="M320.61 160.49l2.15 6.87c0,0 -0.21,1.83 -1.72,4.94 -1.5,3.11 -2.04,3.11 -2.04,3.11 0,0 -0.32,-3.44 -0.75,-5.26 -0.43,-1.83 -2.47,-4.51 -2.47,-6.87 0,-2.36 3.65,-3.87 4.83,-2.79z"/>
   <g>
    <path class="fil9" d="M297.66 132.52c-0.37,-0.75 -2.52,-2.38 -5.16,-7.44 -2.64,-5.06 -1.22,-9.1 10.05,-9.83 11.51,-0.75 23.08,-0.88 29.79,-0.02 5.45,0.65 3.77,13.09 4.45,25.14 0.36,6.44 -7.04,9.57 -11.04,14.54l-0.04 -0.01 -0.01 0.07c-0.08,0.1 -0.16,0.2 -0.24,0.3 -1.41,-3.04 -2.55,-5.88 -2.55,-5.88 0,0 2.55,-1.15 1.77,-4.37 -0.79,-3.22 -3.23,-4.2 -4.63,-3.87 -1.41,0.33 -3.05,2.42 -3.05,2.42l-3 3.57c0,0 0.11,-2.14 -1.81,-5.46 -1.93,-3.32 -4.09,-3.97 -4.09,-3.97 0,0 8.12,-10.41 -8.57,-8.74 -0.82,0.64 -1.42,1.93 -1.88,3.54z"/>
    <path class="fil8" d="M299.54 128.98c-2.81,2.2 -3.16,12.26 -3.47,15.73 -0.5,2.4 -2.18,6.39 -3.71,8.11l0.6 0.97c1.11,0.48 3.11,0.3 4.28,0.07 1.55,5.17 3.27,9.87 7.28,13.7 4.3,1.04 13.12,-1.37 17.07,-3.58 2.6,-2.4 3.67,-6.77 4,-8.43 -1.47,-3.14 -2.68,-6.16 -2.68,-6.16 0,0 2.55,-1.15 1.77,-4.37 -0.79,-3.22 -3.23,-4.2 -4.63,-3.87 -1.41,0.34 -3.05,2.42 -3.05,2.42l-3 3.57c0,0 0.11,-2.14 -1.81,-5.46 -1.93,-3.32 -4.09,-3.97 -4.09,-3.97 0,0 8.12,-10.41 -8.57,-8.74z"/>
    <path class="fil5" d="M299.52 158.3c0.26,0.02 9.1,-3.45 9.84,-4.01 0.93,2.77 -3.68,10.45 -8.07,4.79 0,0 -0.84,0.02 -1.77,-0.78z"/>
    <path class="fil11" d="M297.66 132.52c-0.25,-0.52 -1.34,-1.44 -2.85,-3.6 1.36,-1 3.8,-1.99 8.13,-1.95 4.15,0.04 6.01,1.8 6.56,3.92 -1.08,-1.52 -3.87,-2.52 -9.96,-1.91 -0.82,0.64 -1.42,1.93 -1.88,3.54zm39.1 3.95c-0.07,1.32 -0.07,2.63 0.03,3.91 0.51,6.43 -7.04,9.57 -11.04,14.54l-0.04 -0.01 -0.01 0.07c-0.08,0.1 -0.16,0.2 -0.24,0.3 -1.41,-3.04 -2.55,-5.88 -2.55,-5.88 0,0 2.55,-1.15 1.77,-4.37 -0.79,-3.22 -3.23,-4.2 -4.63,-3.87 -1.41,0.33 -3.05,2.42 -3.05,2.42l-3 3.57c0,0 0.11,-2.14 -1.81,-5.46 -0.38,-0.65 -0.77,-1.2 -1.14,-1.66 5.08,0.29 14.5,0.11 25.7,-3.57z"/>
    <path class="fil7" d="M305.42 167.73c4.53,0.58 12.49,-1.67 16.18,-3.74 2.6,-2.4 3.67,-6.77 4,-8.43 -0.86,-1.83 -1.62,-3.61 -2.11,-4.79l-0.02 7.45c0,0 -2.59,7.26 -18.05,9.5z"/>
    <path class="fil7" d="M299.54 128.98c-0.57,0.44 -1.03,1.21 -1.42,2.17 1,-0.26 2.47,-0.4 4.58,-0.17 5.27,0.58 6.27,4.82 5.65,5.76 -0.07,0.1 0.08,0.12 0.38,0.05 1.53,-2.51 4.4,-9.17 -9.19,-7.81z"/>
    <path class="fil7" d="M292.77 153.49l0.19 0.31c1.11,0.48 3.11,0.3 4.28,0.07 1.22,4.08 2.55,7.86 5.02,11.15 -3.6,-6.52 -3.3,-12.89 -3.3,-12.89 -1.78,1.05 -4.12,1.36 -6.2,1.35z"/>
    <path class="fil10" d="M295.75 145.97c-0.71,2.36 -2.1,5.41 -3.38,6.85l0.38 0.61c1.68,-1.02 3.1,-6.81 3.01,-7.46z"/>
    <path class="fil7" d="M297.44 138.84c0,0 -0.27,-1.25 2.03,-1.28 2.3,-0.03 3.39,0.61 3.39,0.61 0,0 -1.58,0.17 -2.96,1.89 -1.38,1.72 -1.9,4.55 -1.9,4.55 0,0 -0.32,-3.25 -0.57,-5.77z"/>
    <path class="fil11" d="M298.26 143c0,0 1.26,0.03 2.84,0.33 1.58,0.29 2.02,0.53 2.02,0.53l-5.07 0.66 0.21 -1.52z"/>
    <path class="fil11" d="M297.52 136.61c-0.39,0.43 -0.35,2.12 -0.14,2 0.2,-0.11 1.07,-0.55 3.69,-0.34 2.62,0.21 3.33,0.36 3.33,0.36 0,0 -3.79,-2.81 -6.88,-2.02z"/>
   </g>
   <g>
    <path class="fil8" d="M262.96 249.34l-5.65 0c0,0 -2.03,-0.8 -4.06,-2.3 -2.03,-1.5 -3.17,-2.27 -4.19,-1.65 -1.9,1.15 -4.72,3.08 -7.94,4.93 0,0 0.49,2.35 2.5,1.93 2.01,-0.42 4.93,-2.81 4.93,-2.81l12.71 8.95 1.67 -0.49 0.04 -8.57z"/>
    <path class="fil8" d="M239.18 260.79l0.13 -2.97c0,0 0.23,-0.86 1.1,-0.95 0.87,-0.1 1.35,0.88 1.35,0.88 0,0 0.59,-1.3 1.65,-1.18 1.07,0.11 1.2,1.3 1.2,1.3 0,0 0.44,-1.31 1.73,-1.14 1.29,0.17 1.18,1.73 1.07,2.34 -0.11,0.61 -0.11,0.61 -0.11,0.61 0,0 0.49,-1.07 1.54,-0.88 1.05,0.19 1.14,1.26 1.06,1.77 -0.08,0.51 -0.4,2.12 -0.4,2.12l0.72 0.59c0,0 -1.31,1.62 -2.3,1.56 -0.99,-0.06 -1.5,-1.09 -1.5,-1.09 0,0 -0.65,0.59 -1.52,0.3 -0.88,-0.29 -0.95,-1.39 -0.95,-1.39 0,0 -0.63,0.84 -1.64,0.46 -1.01,-0.38 -0.91,-1.58 -0.91,-1.58 0,0 -1.62,1.09 -2.22,-0.74z"/>
    <g>
     <path class="fil10" d="M239.68 258.69c0.03,0.59 1.4,0.67 1.54,0.06 0.08,-1.83 -1.63,-1.63 -1.54,-0.06z"/>
     <path class="fil12" d="M239.68 258.74c0.11,0.54 1.4,0.6 1.53,0l0 -0.05c-0.14,0.18 -0.41,0.4 -0.84,0.37 -0.4,-0.03 -0.59,-0.18 -0.69,-0.32z"/>
     <path class="fil5" d="M241.01 257.77c-0.3,-0.46 -0.85,-0.42 -1.14,0.04 0.11,-0.11 0.28,-0.2 0.51,-0.21 0.31,-0.02 0.49,0.05 0.63,0.17z"/>
    </g>
    <g>
     <path class="fil10" d="M242.36 258.59c-0.01,0.59 1.36,0.76 1.53,0.15 0.19,-1.82 -1.52,-1.72 -1.53,-0.15z"/>
     <path class="fil12" d="M242.36 258.64c0.07,0.55 1.36,0.68 1.53,0.1l0 -0.05c-0.16,0.17 -0.43,0.37 -0.86,0.32 -0.39,-0.05 -0.58,-0.22 -0.67,-0.36z"/>
     <path class="fil5" d="M243.75 257.75c-0.27,-0.48 -0.82,-0.47 -1.14,-0.03 0.12,-0.1 0.29,-0.18 0.53,-0.18 0.31,-0 0.49,0.08 0.62,0.21z"/>
    </g>
    <g>
     <path class="fil10" d="M245.17 258.45c-0.05,0.59 1.3,0.85 1.52,0.27 0.32,-1.8 -1.39,-1.83 -1.52,-0.27z"/>
     <path class="fil12" d="M245.17 258.5c0.03,0.55 1.31,0.78 1.52,0.21l0.01 -0.05c-0.17,0.16 -0.46,0.34 -0.88,0.25 -0.39,-0.08 -0.56,-0.26 -0.64,-0.41z"/>
     <path class="fil5" d="M246.61 257.72c-0.23,-0.5 -0.78,-0.53 -1.14,-0.12 0.13,-0.09 0.3,-0.16 0.54,-0.14 0.31,0.02 0.48,0.12 0.6,0.26z"/>
    </g>
    <g>
     <path class="fil10" d="M247.8 260.22c-0.08,0.53 1.13,0.86 1.36,0.34 0.41,-1.62 -1.14,-1.75 -1.36,-0.34z"/>
     <path class="fil12" d="M247.8 260.27c-0.01,0.5 1.14,0.8 1.36,0.29l0.01 -0.05c-0.16,0.14 -0.44,0.28 -0.82,0.17 -0.35,-0.1 -0.5,-0.27 -0.56,-0.42z"/>
     <path class="fil5" d="M249.16 259.65c-0.18,-0.47 -0.68,-0.53 -1.02,-0.18 0.12,-0.07 0.28,-0.12 0.5,-0.09 0.28,0.04 0.43,0.14 0.53,0.27z"/>
    </g>
    <path class="fil13" d="M239.18 260.79l0 -0.06c0.12,0.24 0.31,0.44 0.63,0.54 0.99,0.3 1.69,-0.21 1.69,-0.21 0,0 -0.23,0.91 0.89,1.41 1.12,0.5 1.71,-0.46 1.71,-0.46 0,0 -0.08,1.11 0.86,1.41 0.93,0.3 1.69,-0.34 1.69,-0.34 0,0 -0.15,0.67 0.7,1.09 0.86,0.42 1.58,-0.3 1.58,-0.3l0.88 -4.25c0.12,0.34 0.12,0.7 0.09,0.95 -0.08,0.51 -0.4,2.12 -0.4,2.12l0.72 0.59c0,0 -1.31,1.62 -2.3,1.56 -0.99,-0.06 -1.5,-1.09 -1.5,-1.09 0,0 -0.65,0.59 -1.52,0.3 -0.88,-0.29 -0.95,-1.39 -0.95,-1.39 0,0 -0.63,0.84 -1.64,0.46 -1.01,-0.38 -0.91,-1.58 -0.91,-1.58 0,0 -1.62,1.09 -2.22,-0.74z"/>
    <path class="fil8" d="M243.78 248.73l-5.13 0.23 0 8.99c0,0 0.27,0 0.66,0.03l0.01 -0.16c0,0 0.23,-0.86 1.1,-0.95 0.87,-0.1 1.35,0.88 1.35,0.88 0,0 0.59,-1.3 1.65,-1.18 1.07,0.11 1.2,1.3 1.2,1.3 0,0 0.44,-1.31 1.73,-1.14 1.29,0.17 1.18,1.73 1.07,2.34 -0.11,0.61 -0.11,0.61 -0.11,0.61 0,0 0.49,-1.07 1.54,-0.88 1.05,0.19 1.14,1.26 1.06,1.77 -0.08,0.51 -0.4,2.12 -0.4,2.12l0.7 0.57c0.07,0.05 0.15,0.1 0.25,0.17 0.62,0.46 1.64,1.32 1.64,1.32 0,0 0.71,0.39 1.23,-0.07 0.51,-0.46 0.18,-1.52 0.18,-1.52 0,0 1.68,1.03 2.34,0.26 0.67,-0.76 -0.08,-1.7 -0.08,-1.7 0,0 2.05,1.72 3.08,0.65 1.03,-1.07 -0.53,-2.52 -0.53,-2.52 0,0 2.17,1.73 3.19,0.67 0.7,-0.73 0.21,-1.57 -0.23,-2.13l-0.02 0.01 -12.71 -8.95c0,0 -2.92,2.39 -4.93,2.81 -2.01,0.42 -2.5,-1.93 -2.5,-1.93 0.93,-0.53 1.82,-1.07 2.66,-1.59z"/>
    <path class="fil13" d="M241.85 251.73c0.38,0.4 0.95,0.69 1.77,0.52 2.01,-0.42 4.93,-2.81 4.93,-2.81l12.71 8.95 1.67 -0.49 0 -0.48c-2.36,0.14 -4.02,-1.14 -4.02,-1.14l-10.29 -7.32c0,0 -4.45,3.09 -5.59,3.11 -0.47,0.01 -0.87,-0.15 -1.18,-0.35z"/>
    <g>
     <path class="fil10" d="M243.73 248.76c-0.69,0.42 -1.4,0.86 -2.14,1.29 0.02,0.86 1.16,1.38 2.43,0.46 0.48,-0.35 0.21,-1.25 -0.29,-1.75z"/>
     <path class="fil12" d="M243.73 248.76l-0.15 0.09c0.13,0.11 0.24,0.25 0.34,0.43 0.3,0.54 0.26,0.93 0.16,1.17 0.39,-0.38 0.12,-1.22 -0.35,-1.7z"/>
     <path class="fil5" d="M241.73 249.97l-0.14 0.08c0.01,0.54 0.47,0.95 1.12,0.95 -0.23,-0.06 -0.49,-0.2 -0.7,-0.49 -0.14,-0.2 -0.23,-0.37 -0.28,-0.53z"/>
    </g>
    <path class="fil13" d="M250.21 263.25c0.07,0.05 0.15,0.1 0.25,0.17 0.62,0.46 1.64,1.32 1.64,1.32 0,0 0.71,0.39 1.23,-0.07 0.51,-0.46 0.18,-1.52 0.18,-1.52 0,0 1.68,1.03 2.34,0.26 0.67,-0.76 -0.08,-1.7 -0.08,-1.7 0,0 2.05,1.72 3.08,0.65 1.03,-1.07 -0.53,-2.52 -0.53,-2.52 0,0 2.17,1.73 3.19,0.67 0.7,-0.73 0.21,-1.57 -0.23,-2.13l-0.02 0.01 -0.64 -0.45c-1.78,0.92 -7.74,3.98 -10.4,5.3z"/>
    <path class="fil13" d="M253.59 263.67c-0.03,-0.29 -0.1,-0.52 -0.1,-0.52 0,0 0.69,0.42 1.36,0.52l-3.35 -2.52c-0.17,-0.12 -0.4,-0.09 -0.53,0.08 -0.12,0.17 -0.09,0.4 0.08,0.53l2.54 1.91zm2.5 -1.24c-0.08,-0.41 -0.33,-0.71 -0.33,-0.71 0,0 1.03,0.86 2,0.98l-4.8 -3.44c-0.17,-0.12 -0.41,-0.08 -0.53,0.09 -0.12,0.17 -0.08,0.41 0.09,0.53l3.57 2.56zm2.94 -1.58c-0.25,-0.57 -0.72,-1 -0.72,-1 0,0 1.02,0.81 1.99,0.98 -1.93,-1.4 -5.06,-3.66 -5.07,-3.67 -0.17,-0.12 -0.4,-0.08 -0.53,0.08 -0.12,0.17 -0.08,0.4 0.08,0.53 0.01,0.01 2.35,1.71 4.25,3.08z"/>
    <polygon class="fil5" points="262.96,248.96 264.55,248.96 264.55,258.4 262.96,258.4 "/>
    <polygon class="fil5" points="238.68,248.89 237.08,248.89 237.08,258.33 238.68,258.33 "/>
    <path class="fil2" d="M264.52 248.2c5.47,-0.71 15.68,-1.86 22.75,-6.09 3.85,6.23 1.69,8.5 -0.53,13.76 -7.41,1.37 -17.29,4.83 -22.22,4.12 0,-3.93 0,-7.86 0,-11.8z"/>
    <path class="fil6" d="M237.12 248.13l-19.05 0c-0.15,0.44 -0.27,0.9 -0.36,1.37 -0.79,3.83 0.25,7.61 2.52,10.43l16.89 0 0 -11.8z"/>
    <path class="fil10" d="M239.3 258.19l0.02 -0.38c0,0 0.23,-0.86 1.1,-0.95 0.87,-0.1 1.35,0.88 1.35,0.88 0,0 0.59,-1.3 1.65,-1.18 1.07,0.11 1.2,1.3 1.2,1.3 0,0 0.44,-1.31 1.73,-1.14 1.27,0.17 1.18,1.69 1.07,2.32 -0.01,-0.51 -0.15,-1.81 -1.19,-2.04 -1.3,-0.29 -1.65,1.09 -1.65,1.09 0,0 -0.36,-1.23 -1.34,-1.27 -0.98,-0.04 -1.48,1.04 -1.48,1.04 0,0 -0.88,-1.05 -1.67,-0.74 -0.53,0.2 -0.71,0.75 -0.78,1.09zm8.54 0.82c0.25,-0.18 0.58,-0.31 1,-0.23 0.74,0.13 1,0.7 1.07,1.21 -0.14,-0.47 -0.43,-0.85 -0.99,-0.99 -0.46,-0.11 -0.83,-0.06 -1.08,0.02z"/>
    <path class="fil10" d="M260.79 249.34l-3.48 0c0,0 -2.03,-0.8 -4.06,-2.3 -2.03,-1.5 -3.17,-2.27 -4.19,-1.65 -1.04,0.63 -2.36,1.49 -3.87,2.45l4.02 -2.25c0,0 0.8,-0.32 1.83,0.36 1.03,0.69 3.19,2.15 4.54,2.92 1.35,0.76 2.07,0.71 2.07,0.71l3.14 -0.24z"/>
   </g>
   <path class="fil1" d="M191.82 176.82l-4.08 3.11 3.67 5.11 1.11 20.08c2.09,7.03 6.36,22.35 7.8,29.54l0.01 -28.35c-1.39,-3.49 -5.34,-20.57 -5.8,-21.19l0.3 -5.4 -3.01 -2.9z"/>
   <path class="fil1" d="M315.71 225.77c-3.62,13.29 -4.95,18.82 -4.95,18.82 0,0 -3.03,-13.26 -2.94,-20.31l7.84 -40.66 0.44 -4.12 3.11 -2.58 3.65 2.47 -3.3 3.97 -3.85 41.88 -0.01 0.53z"/>
  </g>
 </g>
</svg>
