<?xml version="1.0" encoding="UTF-8"?>
<!DOCTYPE svg PUBLIC "-//W3C//DTD SVG 1.1//EN" "http://www.w3.org/Graphics/SVG/1.1/DTD/svg11.dtd">
<!-- Creator: CorelDRAW 2020 (64-Bit) -->
<svg xmlns="http://www.w3.org/2000/svg" xml:space="preserve" width="125.73mm" height="99.9067mm" version="1.1" style="shape-rendering:geometricPrecision; text-rendering:geometricPrecision; image-rendering:optimizeQuality; fill-rule:evenodd; clip-rule:evenodd"
viewBox="0 0 448.13 356.09"
 xmlns:xlink="http://www.w3.org/1999/xlink"
 xmlns:xodm="http://www.corel.com/coreldraw/odm/2003">
 <defs>
  <style type="text/css">
   <![CDATA[
    .fil16 {fill:#D9DADA}
    .fil5 {fill:#C5C6C6}
    .fil2 {fill:#B2B3B3}
    .fil12 {fill:#9D9E9E}
    .fil3 {fill:#898989}
    .fil15 {fill:#727271}
    .fil17 {fill:#434242}
    .fil8 {fill:#3D3D3D}
    .fil6 {fill:#424242}
    .fil9 {fill:#575757}
    .fil4 {fill:#5E5E5E}
    .fil18 {fill:#CCCCCC}
    .fil13 {fill:#DBA240}
    .fil10 {fill:#E8E8E8}
    .fil0 {fill:#F7F7F7}
    .fil1 {fill:#FFAA00}
    .fil7 {fill:#FFC86A}
    .fil14 {fill:#FFDB9C}
    .fil11 {fill:#707070;fill-rule:nonzero}
   ]]>
  </style>
 </defs>
 <g id="Layer_x0020_1">
  <metadata id="CorelCorpID_0Corel-Layer"/>
  <rect class="fil0" y="-0" width="448.13" height="356.09" rx="12.26" ry="12.26"/>
  <path class="fil1" d="M302.37 82.42c15.27,0 27.66,12.38 27.66,27.66 0,9.65 -4.94,18.15 -12.44,23.09 1.15,5.39 1.76,10.99 1.76,16.72 0,35.06 -22.63,64.83 -54.08,75.51 -9.92,16.27 -27.82,27.13 -48.26,27.13 -31.2,0 -56.49,-25.29 -56.49,-56.49 0,-7.11 1.32,-13.9 3.71,-20.17 -2.81,-8.14 -4.33,-16.88 -4.33,-25.98 0,-44.03 35.69,-79.72 79.72,-79.72 18.16,0 34.91,6.08 48.31,16.31 4.2,-2.57 9.14,-4.06 14.43,-4.06zm-48.91 2.87c27.6,0 49.98,22.38 49.98,49.98 0,27.6 -22.38,49.98 -49.98,49.98 -27.6,0 -49.98,-22.38 -49.98,-49.98 0,-27.6 22.38,-49.98 49.98,-49.98z"/>
  <path class="fil2" d="M191.13 220.52c0,0 -6.82,0.91 -8.49,-9.4 -1.67,-10.31 -5.3,-28.49 -8.64,-45.92 -3.33,-17.43 -5.61,-24.55 -5.61,-24.55 0,0 2.43,-4.4 8.94,-5.15 6.52,-0.76 11.97,3.18 13.34,22.43 1.36,19.25 1.21,36.22 2.12,47.44 0.91,11.22 0.91,11.52 0.91,11.52 0,0 0.91,-4.24 16.82,-3.94 15.91,0.3 27.13,1.52 27.13,1.52l0.91 10.46c0,0 -23.34,0.15 -34.71,-0.76 -11.37,-0.91 -11.52,-0.61 -12.73,-3.64z"/>
  <path class="fil3" d="M207.29 224.38l4.03 6.52 16.94 -0.15 2.54 -5.83c-6.69,-0.03 -16.36,-0.14 -23.51,-0.53z"/>
  <path class="fil4" d="M207.29 224.38l1.32 2.14 21.13 0.81 1.06 -2.42c-6.69,-0.03 -16.36,-0.14 -23.51,-0.53z"/>
  <polygon class="fil2" points="218.69,230.75 222.26,230.75 222.26,244.38 218.69,244.38 "/>
  <path class="fil5" d="M217.55 244.15l6.15 0 0 7.99c-2.02,0.24 -4.07,0.37 -6.15,0.39l0 -8.38z"/>
  <path class="fil4" d="M235.03 201.73l-17.55 -2.06c0,0 -17.7,7.92 -15.5,10.13 2.2,2.21 4.71,3.12 7.52,3.2 2.81,0.08 19.53,0.69 24.16,1.07 4.63,0.38 4.63,0.38 4.63,0.38l-3.27 -12.72z"/>
  <path class="fil6" d="M235.03 201.73l-17.55 -2.06c0,0 -0.46,0.2 -1.21,0.55l18.99 2.39 -0.23 -0.88z"/>
  <path class="fil6" d="M225.57 161.24c1.1,5.28 13.1,10.33 18.03,10.65l-0.82 4.95c0,0 -6.91,-1.15 -14.11,-4.6 -5.38,-2.58 -8.39,-5.56 -9.4,-8.06 1.47,-0.56 4.83,-2.53 6.3,-2.94z"/>
  <path class="fil7" d="M253.62 111.16c0,0 2.26,4.57 2.67,6.4 0.41,1.82 -0.18,3.6 0.27,4.37 0.45,0.77 3.15,4.45 3.43,4.95 0.28,0.5 0.39,0.61 -0.81,1.56 -1.2,0.96 -2.81,0.97 -2.81,0.97 0,0 0.46,2.32 -3.68,6.78 -4.14,4.46 -5.9,4.59 -5.9,4.59 0,0 -1.51,-0.35 -3.32,-1.49 -1.81,-1.14 -3.29,-2.37 -3.29,-2.37 0,0 -1.92,0.94 -3.13,1.75 -1.21,0.82 -1.89,1.41 -1.89,1.41l-2.17 -3.85c0,0 1.83,-1.69 3.24,-4.08 1.41,-2.4 1.89,-4.45 1.89,-4.45 0,0 -4,-1.78 -2.59,-4.4 1.41,-2.62 3.07,-1.92 5.36,-0.56 2.28,1.36 3.35,3.18 3.35,3.18l1.52 0.12c0,0 2.7,-4.77 1.34,-8.06 -1.36,-3.29 -1.41,-7.59 6.54,-6.79z"/>
  <path class="fil8" d="M245.58 133.58c0,0 1.17,0.65 2.88,0.97 1.72,0.31 3.04,0.13 3.04,0.13 0,0 -0.62,0.51 -1.56,0.63 -0.94,0.12 -0.99,0.15 -0.99,0.15 0,0 -1.11,2.01 -2.42,1.25 -1.31,-0.76 -0.95,-3.12 -0.95,-3.12z"/>
  <path class="fil9" d="M236.3 132c-0.87,-1.86 -2.63,-5.41 -4.59,-8.47 -2.81,-4.38 -4.81,-6.34 -4.81,-6.34 0,0 -1.42,-8.36 7.27,-10.44 8.69,-2.08 17.17,-2.62 20.9,-4.09 3.73,-1.47 -1.03,-3.19 -1.03,-3.19 0,0 3.04,-0.41 5.07,3.72 1.87,3.8 -0.92,8.41 -4.87,9.29 -0.36,-0.77 -0.63,-1.3 -0.63,-1.3 -7.95,-0.8 -7.9,3.49 -6.54,6.79 1.36,3.29 -1.34,8.06 -1.34,8.06l-1.52 -0.12c0,0 -1.07,-1.82 -3.35,-3.18 -2.28,-1.36 -3.95,-2.06 -5.36,0.56 -1.41,2.62 2.59,4.4 2.59,4.4 0,0 -0.46,1.98 -1.81,4.32z"/>
  <path class="fil2" d="M229.38 188.35l11.86 58.73c9.97,-4.74 18.32,-12.32 24.03,-21.68 19.22,-6.53 35.14,-20.19 44.62,-37.82l-80.51 0.78z"/>
  <path class="fil2" d="M313.06 180.97l-90.56 0.14 0 7.27 87.25 -0.55c1.21,-2.23 2.31,-4.52 3.31,-6.86z"/>
  <path class="fil10" d="M315.49 174.45l-47.98 0.15 -45.01 6.67 90.62 -0.43c0.88,-2.08 1.67,-4.21 2.37,-6.38z"/>
  <path class="fil4" d="M196.52 201.64c0,0 0.19,-1.75 0.65,-4.67 1.08,-7.29 2.92,-16.39 5.98,-24.9 1.02,-3.07 2.19,-6.19 3.52,-9.25 7.95,-18.28 20.75,-27.57 23.83,-27.89 3.08,-0.31 4.89,3.86 5.37,7.05 0.48,3.19 1.43,9.47 -4.77,17.14 -6.2,7.68 -10.15,9.48 -12.68,19.44 -1.64,6.44 -1.43,13.63 -1.07,17.92 0.1,0.86 0.19,1.59 0.22,2.23 0.12,1 0.21,1.58 0.21,1.58l-0.28 0.02c-0.16,0.9 -0.55,1.74 -1.38,2.77 -3.03,3.79 -10.46,8.18 -15.46,8.18 -5,0 -5,0 -5,0 0,0 0.17,-3.83 0.87,-9.63l-0.02 0z"/>
  <path class="fil11" d="M229.7 144.59c-0.06,0.06 -18.18,11.01 -14.85,20.63 4.89,8.79 26.91,9.66 27,9.68l-2.65 6.19c-0.1,-0.02 -23.33,0.89 -32.24,-13.04 -3.69,-14.13 18.41,-29.59 20.14,-31.28 4.66,-3.27 3.9,6.03 2.6,7.83z"/>
  <path class="fil1" d="M235.5 140.22c0.17,0.6 0.3,1.21 0.39,1.78 0.48,3.19 1.43,9.47 -4.77,17.14 -0.59,0.72 -1.15,1.4 -1.7,2.03 4.98,-7.75 5.93,-18.46 6.08,-20.95z"/>
  <path class="fil12" d="M229.38 188.35l1.95 9.67 74.12 -3.15c1.6,-2.34 3.09,-4.78 4.44,-7.29l-80.51 0.78z"/>
  <path class="fil12" d="M236.51 223.67l4.73 23.41c6.13,-2.92 11.65,-6.91 16.32,-11.73 -10.32,-3.58 -17.16,-8.35 -21.05,-11.68z"/>
  <path class="fil13" d="M244.75 140c-0.4,-0.19 -0.83,-0.43 -1.29,-0.72 -1.81,-1.14 -3.29,-2.37 -3.29,-2.37 0,0 -1.92,0.94 -3.13,1.75 -0.6,0.41 -1.08,0.76 -1.4,1.01 -0.58,-1.09 -1.42,-2.47 -2.48,-3.63 0.5,-0.49 1.91,-1.97 3.05,-3.91 0.3,-0.51 0.56,-1.01 0.78,-1.48 0.88,2.1 3.1,6.23 7.75,9.35z"/>
  <path class="fil14" d="M253.62 111.16c0,0 2.26,4.57 2.67,6.4 0.36,1.61 -0.06,3.19 0.15,4.07l-0.11 -0.24c0,0 -0.15,-3.88 -2.13,-7.23 -0.87,-1.48 -1.58,-2.45 -2.11,-3.08 0.47,0.01 0.97,0.04 1.52,0.1zm3.01 10.88c0.61,0.96 3.09,4.36 3.36,4.83 0.27,0.48 0.39,0.6 -0.7,1.47 -0.56,-1.55 -2.03,-4.88 -2.66,-6.3z"/>
  <path class="fil8" d="M251.6 118c0,0 1.35,-0.07 2.54,0.11 1.19,0.18 1.55,0.34 1.55,0.34l-0.41 -1.77c0,0 -1.5,-0.26 -3.69,1.31z"/>
  <path class="fil8" d="M236.3 132c-0.87,-1.86 -2.63,-5.41 -4.59,-8.47 -0.93,-1.45 -1.77,-2.64 -2.48,-3.58 8.2,0.89 15.82,-0.16 18.21,-0.55 0.31,3.08 -1.69,6.62 -1.69,6.62l-1.52 -0.12c0,0 -1.07,-1.82 -3.35,-3.18 -2.28,-1.36 -3.95,-2.06 -5.36,0.56 -1.41,2.62 2.59,4.4 2.59,4.4 0,0 -0.46,1.98 -1.81,4.32z"/>
  <path class="fil8" d="M256.83 100.33c0.77,0.55 1.59,1.43 2.29,2.85 1.87,3.8 -0.92,8.41 -4.87,9.29 -0.36,-0.77 -0.63,-1.3 -0.63,-1.3 -7.88,-0.8 -7.9,3.42 -6.57,6.7 -0.61,-0.88 -1.62,-2.81 -0.76,-5.24 1.18,-3.34 8.43,-2.2 11.12,-4.22 2.41,-1.82 1.59,-5.65 -0.57,-8.08z"/>
  <path class="fil13" d="M252.04 118.02c2.54,-0.03 3.57,0.33 3.68,0.55l0.01 3.4c0,0 -1.34,-3.53 -3.69,-3.95z"/>
  <path class="fil8" d="M251.69 121.35c0,0 1.07,-0.26 2.36,-0.33 1.29,-0.07 1.81,0.01 1.81,0.01 0,0 0.57,1.6 -0.6,2.14 -1.18,0.54 -1.9,-1.59 -1.9,-1.59 0,0 -1.01,-0.27 -1.67,-0.23z"/>
  <path class="fil13" d="M259.28 128.36l-0.1 0.08c-1.2,0.96 -2.81,0.97 -2.81,0.97 0,0 0.08,0.4 -0.12,1.18 -0.09,0.35 -0.57,2.34 -3.5,5.57 3.26,-4.2 2.41,-7.23 2.41,-7.23 0,0 0.5,0.13 2.13,-0.11 1.63,-0.24 1.98,-0.52 1.98,-0.52l0.01 0.05z"/>
  <polygon class="fil15" points="296.7,110.21 299.81,110.9 284.29,169.31 281.13,168.58 "/>
  <polygon class="fil3" points="297.33,120.23 298.74,120.54 287.24,163.84 285.83,163.51 "/>
  <polygon class="fil12" points="293.68,151.48 294.03,151.55 287.92,173.73 285.58,173.18 291.19,152.98 290.21,152.71 290.74,150.61 "/>
  <path class="fil12" d="M280.17 175.89l8.61 0 0 -1.99c0,-0.46 -0.38,-0.84 -0.84,-0.84l-6.63 0c-0.63,0 -1.15,0.52 -1.15,1.15l0 1.68z"/>
  <path class="fil12" d="M236.77 224.92c-5.68,0.01 -23.44,-0.01 -32.91,-0.76 -10.17,-0.81 -11.36,-0.66 -12.37,-2.79 5.88,0.32 31.39,1.65 36.62,1.38 4.08,-0.21 6.22,-3.35 7.15,-5.28l1.5 7.45z"/>
  <path class="fil16" d="M169.22 139.53c1.18,-1.36 3.72,-3.52 8.11,-4.03 6.52,-0.76 11.97,3.18 13.34,22.43 0.87,12.3 1.13,23.68 1.43,33.22 -0.44,-1.21 -0.38,-7.47 -1.58,-23.06 -1.67,-21.67 -5.91,-30.46 -12.28,-30.77 -3.31,-0.16 -6.61,1.03 -9.02,2.22z"/>
  <path class="fil17" d="M194.3 218.94l-1.98 1.22c0,0 -2.13,-3.81 -4.03,-13.4 -1.9,-9.59 1.06,-13.63 7.52,-14.24 6.46,-0.61 21.35,-0.61 24.77,-0.15 3.42,0.46 6.31,1.83 6.38,6.55 0.08,4.72 -1.44,12.18 -2.51,17.67 -1.06,5.48 -1.44,6.24 -1.44,6.24l-2.36 -0.08c0,0 2.51,-12.03 2.89,-18.43 0.38,-6.4 -0.08,-8.22 -5.09,-8.45 -5.01,-0.23 -18.54,-0.08 -21.2,0.23 -2.66,0.3 -5.01,1.07 -4.71,5.63 0.3,4.57 0.99,14.32 1.75,17.21z"/>
  <path class="fil13" d="M242.88 174.7c0,0 2.05,1.12 2.26,1.56 0.86,1.78 5.85,1.47 7.31,1.52 1.41,0.06 2.39,0.11 2.85,-0.06 0.45,-0.17 3.09,-1.05 4.48,-1.1 1.39,-0.05 1.69,-0.28 1.85,-0.51 0.16,-0.23 0.09,-0.42 0.09,-0.42 0,0 1.1,-0.06 1.4,-0.48 0.29,-0.43 -1,-1.22 -1,-1.22 0,0 0.54,-0.01 0.29,-0.77 -0.25,-0.75 -2.01,-0.66 -2.01,-0.66 0,0 -3.37,-1.07 -4.19,-1.21 -0.82,-0.14 -2.63,1.56 -3.7,1.3 -1.08,-0.26 -4.63,-0.3 -5.54,0.04 -0.91,0.34 -1,0.47 -1,0.47l-2.57 -0.47 -0.52 2.01zm15.23 -1.4l-3.76 0.83c0,0 1.23,-1.2 1.91,-1.26 0.42,-0.04 1.29,0.15 1.85,0.43z"/>
  <path class="fil18" d="M267.01 175.28c-3.49,1.11 -8.74,2.4 -14.9,3.88 5.88,0.11 10.23,-0.07 16.11,0.03 2.22,-1.16 4.95,-2.58 7.18,-3.75 -2.08,-0.02 -6.31,-0.14 -8.39,-0.16z"/>
  <path class="fil7" d="M241.62 175.88c2.6,-0.1 5.88,-1.26 8.56,-1.67 0.75,-0.4 2.57,-1.39 3.37,-1.93 1.02,-0.7 1.02,-0.7 1.02,-0.7 0,0 0,1.17 -0.93,2.06 1.71,-0.13 2.53,0.39 4.53,1.44 2.55,1.33 4.95,3.07 4.95,3.07 0,0 0.03,0.94 -0.93,1.08 -2.25,0.32 -2.07,0.34 -4.04,-0.48 -5.41,-2.27 -4.57,1.31 -13.2,2.03 -1.65,0.14 -3.16,-0.51 -4.62,-1.83 0.28,-1 1.01,-2.46 1.3,-3.07z"/>
 </g>
</svg>
