<?xml version="1.0" encoding="UTF-8"?>
<!DOCTYPE svg PUBLIC "-//W3C//DTD SVG 1.1//EN" "http://www.w3.org/Graphics/SVG/1.1/DTD/svg11.dtd">
<!-- Creator: CorelDRAW 2020 (64-Bit) -->
<svg xmlns="http://www.w3.org/2000/svg" xml:space="preserve" width="67.3951mm" height="51.1559mm" version="1.1" style="shape-rendering:geometricPrecision; text-rendering:geometricPrecision; image-rendering:optimizeQuality; fill-rule:evenodd; clip-rule:evenodd"
viewBox="0 0 149.46 113.45"
 xmlns:xlink="http://www.w3.org/1999/xlink"
 xmlns:xodm="http://www.corel.com/coreldraw/odm/2003">
 <defs>
  <style type="text/css">
   <![CDATA[
    .fil4 {fill:#FEFEFE}
    .fil12 {fill:#FEFEFE}
    .fil13 {fill:#C5C6C6}
    .fil14 {fill:#B2B3B3}
    .fil11 {fill:#5B5B5B}
    .fil5 {fill:#606262}
    .fil8 {fill:#4F5C5C}
    .fil6 {fill:#636363}
    .fil2 {fill:#919191}
    .fil3 {fill:#BABABA}
    .fil9 {fill:#C9C9C9}
    .fil10 {fill:#D6D6D8}
    .fil1 {fill:#D9DCDC}
    .fil0 {fill:#FFAA00}
    .fil7 {fill:#4F5C5C;fill-rule:nonzero}
   ]]>
  </style>
 </defs>
 <g id="Layer_x0020_1">
  <metadata id="CorelCorpID_0Corel-Layer"/>
  <path class="fil0" d="M76.28 89.35c-14.75,10.29 -35.07,10.21 -49.89,-1.54 -18.09,-14.34 -21.14,-40.64 -6.79,-58.73 5.91,-7.46 13.85,-12.36 22.41,-14.54 0.41,-0.6 0.85,-1.19 1.31,-1.77 11.57,-14.59 32.77,-17.04 47.37,-5.48 8.95,7.1 13.33,17.82 12.71,28.43 6.23,0.48 12.39,2.76 17.66,6.93 14.06,11.15 16.43,31.58 5.28,45.64 -11.15,14.06 -31.58,16.43 -45.64,5.28 -1.63,-1.29 -3.1,-2.71 -4.41,-4.23zm-45.84 -10.99l1.1 -1.78 1.47 0.91c0.63,-0.74 1.4,-1.3 2.25,-1.67l-0.4 -1.71 2.04 -0.48 0.4 1.68c0.93,-0.07 1.88,0.06 2.77,0.41l0.92 -1.5 1.78 1.1 -0.91 1.47c0.74,0.63 1.3,1.4 1.67,2.25l1.71 -0.4 0.48 2.04 -1.68 0.4c0.07,0.93 -0.06,1.87 -0.41,2.77l1.5 0.92 -1.1 1.78 -1.47 -0.91c-0.63,0.74 -1.4,1.3 -2.25,1.67l0.4 1.71 -2.04 0.48 -0.4 -1.68c-0.93,0.07 -1.87,-0.06 -2.77,-0.41l-0.92 1.5 -1.78 -1.1 0.91 -1.47c-0.74,-0.63 -1.3,-1.4 -1.67,-2.25l-1.71 0.4 -0.48 -2.04 1.68 -0.4c-0.07,-0.93 0.06,-1.87 0.41,-2.77l-1.5 -0.92zm9.07 0.42c1.54,0.95 2.02,2.97 1.07,4.51 -0.95,1.54 -2.97,2.02 -4.51,1.07 -1.54,-0.95 -2.02,-2.97 -1.06,-4.51 0.95,-1.54 2.97,-2.02 4.51,-1.06zm4.08 -56.48l3.92 -6.34 5.24 3.24c2.24,-2.62 4.99,-4.62 8.02,-5.95l-1.44 -6.1 7.25 -1.71 1.42 6c3.3,-0.26 6.67,0.2 9.88,1.46l3.29 -5.33 6.34 3.92 -3.24 5.24c2.62,2.24 4.62,4.99 5.95,8.02l6.1 -1.44 1.71 7.25 -5.99 1.42c0.26,3.3 -0.2,6.67 -1.46,9.88l5.33 3.29 -3.92 6.34 -5.24 -3.24c-2.23,2.62 -4.99,4.63 -8.02,5.95l1.44 6.1 -7.25 1.71 -1.42 -5.99c-3.3,0.26 -6.67,-0.2 -9.88,-1.46l-3.29 5.33 -6.34 -3.92 3.24 -5.24c-2.62,-2.23 -4.63,-4.99 -5.95,-8.02l-6.1 1.44 -1.71 -7.25 5.99 -1.42c-0.26,-3.3 0.2,-6.67 1.46,-9.88l-5.33 -3.29zm32.28 1.49c5.48,3.39 7.18,10.58 3.79,16.06 -3.39,5.48 -10.58,7.18 -16.06,3.79 -5.48,-3.39 -7.18,-10.58 -3.79,-16.06 3.39,-5.48 10.58,-7.18 16.06,-3.79z"/>
  <path class="fil0" d="M5.89 78.56l1.75 -2.84 2.34 1.45c1,-1.17 2.23,-2.07 3.59,-2.66l-0.64 -2.73 3.24 -0.77 0.63 2.68c1.48,-0.12 2.99,0.09 4.42,0.65l1.47 -2.38 2.84 1.75 -1.45 2.34c1.17,1 2.07,2.23 2.66,3.59l2.73 -0.64 0.77 3.24 -2.68 0.63c0.12,1.48 -0.09,2.99 -0.65,4.42l2.38 1.47 -1.75 2.84 -2.34 -1.45c-1,1.17 -2.23,2.07 -3.59,2.66l0.64 2.73 -3.24 0.77 -0.63 -2.68c-1.48,0.12 -2.99,-0.09 -4.42,-0.65l-1.47 2.38 -2.84 -1.75 1.45 -2.34c-1.17,-1 -2.07,-2.23 -2.66,-3.59l-2.73 0.64 -0.77 -3.24 2.68 -0.63c-0.12,-1.48 0.09,-2.99 0.65,-4.42l-2.38 -1.47zm14.44 0.67c2.45,1.52 3.21,4.73 1.7,7.18 -1.52,2.45 -4.73,3.21 -7.18,1.7 -2.45,-1.52 -3.21,-4.73 -1.7,-7.18 1.52,-2.45 4.73,-3.21 7.18,-1.7z"/>
  <g id="_2532557230816">
   <path class="fil1" d="M109.53 70.25l-0.01 0 -0.03 -0 -0.06 -0c-1.39,-0.01 -16.76,-0.15 -40.14,-0.34 -24.53,-0.19 -52.53,-0.33 -59.78,-0.14 -7.25,0.19 -8.21,0.1 -8.21,0.1 0,0 -1.55,-2.03 -1.26,-9.76 0.29,-7.73 2.22,-12.08 3.09,-12.08 0.13,0 1.93,0.06 4.92,0.16 1.69,-0.06 3.93,-0.27 5.33,-0.98 2.51,-1.25 7.95,-3.86 9.16,-4.43 8.25,-3.96 29.03,-2.86 34.12,-2.65 1.69,0.07 3.86,1.04 7.09,2.75 2.82,1.49 12.93,6.83 15.47,8.17 4.49,0.24 7.93,0.46 9.73,0.65 11.11,1.16 18.81,2.64 20.88,4.38 2.07,1.74 2.12,2.46 2.02,3.95l-0 0.02c0.35,0.11 0.61,0.44 0.61,0.83l0 1.94c0,0.16 -0.13,0.29 -0.29,0.29l-0.52 0 -0.27 4.08c0.38,0.1 0.67,0.45 0.66,0.86l-0.03 1.94c-0,0.16 -0.13,0.29 -0.29,0.29l-2.18 -0.03z"/>
   <path class="fil2" d="M111.64 63.12l-0.27 4.07 -3.21 0c-0.12,0 -0.21,-0.1 -0.21,-0.21l0 -3.67c0,-0.12 0.1,-0.21 0.21,-0.21l3.48 0.03z"/>
   <path class="fil3" d="M111.63 63.31l-0.24 3.68 -2.9 0c-0.12,0 -0.21,-0.09 -0.21,-0.19l0 -3.32c0,-0.11 0.1,-0.19 0.21,-0.19l3.14 0.02z"/>
   <path class="fil4" d="M0.91 52.91c0.71,-3.18 1.68,-4.88 2.22,-4.88 0.87,0 74.7,2.51 85.81,3.67 11.11,1.16 18.81,2.64 20.88,4.38 1.99,1.66 2.11,2.4 2.04,3.77 -4.26,-2.65 -9.26,-3.46 -13.45,-4.19 -5.02,-0.87 -17.68,-1.16 -17.68,-1.16l-79.82 -1.59z"/>
   <path class="fil5" d="M62.38 42.16c0.43,0.22 0.89,0.46 1.37,0.71 2.81,1.49 12.89,6.81 15.45,8.17 -0.96,-0.03 -2.56,-0.06 -2.82,-0.12 -0.34,-0.07 -0.73,-0.16 -1.98,-1.01 -1.36,-0.93 -4.79,-3.16 -9.4,-5.88 -1.84,-1.02 -2.54,-1.57 -2.62,-1.87z"/>
   <path class="fil6" d="M16.54 47.48c0.16,-0.06 0.3,-0.13 0.43,-0.18 2.22,-1.01 7.03,-3.09 8.1,-3.56 7.3,-3.18 25.67,-2.29 30.18,-2.13 1.49,0.05 3.41,0.83 6.27,2.21 2,0.96 7.12,4.36 10.02,6.14 1.58,0.97 1.24,0.76 -0.89,0.66l-53.52 -2.12c-3.23,-0.11 -2.3,-0.28 -0.59,-1.03z"/>
   <path class="fil5" d="M23.31 47.4l1.35 -2.31c0,0 1.45,-1.59 8.48,-1.93 3.42,-0.16 8.51,-0.19 12.83,-0.18 -0.61,1.43 -1.44,3.5 -2.2,5.75 -10.25,-0.41 -19.98,-0.81 -19.98,-0.81 0,0 -0.92,0.1 -0.48,-0.53zm25.48 -4.4c3.18,0.02 5.47,0.06 5.47,0.06 0,0 2.7,-0.39 6.99,1.93 4.29,2.31 6.55,4.68 5.98,4.68 -0.28,0 -10.4,-0.4 -20.81,-0.82 0.58,-1.67 1.4,-3.82 2.37,-5.84z"/>
   <path class="fil3" d="M109.53 70.25l-0.01 0 -0.03 -0 -0.06 -0c-1.39,-0.01 -16.76,-0.15 -40.14,-0.34 -24.53,-0.19 -52.53,-0.33 -59.78,-0.14 -7.25,0.19 -8.21,0.1 -8.21,0.1 0,0 -0.99,-1.3 -1.24,-5.77 0.2,1.02 0.59,2.58 1.18,3.5 0.92,1.45 1.54,1.11 1.54,1.11 0,0 -1.4,-7.13 3.95,-10.94 2.42,-1.73 4.99,-2.12 7.19,-1.96 6.58,0.49 10.88,5.83 9.83,12.56 0,0 11.08,-0.34 33.89,0.05 22.81,0.39 24.74,0.68 24.74,0.68 0,0 0.71,-0.13 0.73,-0.62 0.02,-0.48 -1.28,-5.21 2.08,-9.04 3.36,-3.83 8.71,-3.93 11.54,-3.15 2.83,0.78 6.51,3.85 6.82,8.1 0.31,4.24 -0.15,4.87 -0.15,4.87 0,0 -0.29,0.31 3.24,0.53 2.83,0.18 4.53,0.19 5.39,-0.34l-0.01 0.55c-0,0.16 -0.13,0.29 -0.29,0.29l-2.18 -0.03z"/>
   <path class="fil0" d="M111.35 57.62c0.57,0.8 0.56,1.45 0.5,2.41l-0 0.02c0.03,0.01 0.06,0.02 0.09,0.03 -1.4,-0.2 -3.05,-0.26 -3.35,-0.26 -0.44,0 -1.81,-0.07 -2.61,-1.75 -0.8,-1.67 -0.56,-2.69 -0.56,-2.69 0,0 1.33,0.15 3.53,1.02 0.99,0.39 1.8,0.84 2.39,1.22z"/>
   <g>
    <circle class="fil5" transform="matrix(0.260711 -0.00466691 0.00466691 0.260711 93.102 66.0853)" r="38.32"/>
    <circle class="fil6" transform="matrix(0.0352031 -0.00063016 0.00063016 0.0352031 93.102 66.0852)" r="38.32"/>
    <path class="fil6" d="M92.93 56.6c5.06,-0.09 9.24,3.94 9.33,9.01 0.09,5.06 -3.94,9.24 -9.01,9.33 -5.06,0.09 -9.24,-3.94 -9.33,-9.01 -0.09,-5.06 3.94,-9.24 9.01,-9.33zm-0.06 1.69c4.35,-0.08 7.95,3.39 8.03,7.74 0.08,4.35 -3.39,7.95 -7.75,8.03 -4.35,0.08 -7.95,-3.39 -8.03,-7.74 -0.08,-4.35 3.39,-7.95 7.74,-8.03z"/>
    <path class="fil6" d="M93.04 62.84c1.79,-0.03 3.27,1.39 3.3,3.18 0.03,1.79 -1.39,3.27 -3.18,3.3 -1.79,0.03 -3.27,-1.39 -3.3,-3.18 -0.03,-1.79 1.39,-3.27 3.18,-3.3zm-0.18 1.3c1.31,-0.02 2.39,1.02 2.41,2.33 0.02,1.31 -1.02,2.39 -2.33,2.41 -1.31,0.02 -2.39,-1.02 -2.41,-2.33 -0.02,-1.31 1.02,-2.39 2.33,-2.41z"/>
    <path class="fil4" d="M82.17 61.75c1.38,-5.67 8.28,-8.47 13.8,-6.79 0.29,0.09 1.38,0.83 -0.16,0.51 -5.63,-1.37 -11.35,1.53 -13.64,6.27z"/>
    <path class="fil4" d="M98.74 56.23c0,0 -1.36,-0.84 -1.47,-0.55 -0.12,0.29 0.97,0.7 1.36,0.94 0.39,0.24 0.41,-0.1 0.12,-0.38z"/>
    <path class="fil4" d="M99.82 57.05c-0.37,-0.24 -0.53,0.1 -0.16,0.35 0.37,0.25 0.63,0.08 0.16,-0.35z"/>
   </g>
   <g>
    <path class="fil0" d="M0.98 52.94c-0.46,0.02 -1.1,3.12 -0.15,3.28 0.73,0.13 1.25,0.76 1.23,1.69 1.31,-0.95 2.6,-2.04 2.52,-2.99 -0.1,-1.28 -2.08,-1.48 -2.94,-1.54 -0.44,-0.03 -0.86,-0.14 -0.66,-0.45z"/>
    <circle class="fil5" transform="matrix(0.259885 -0.0212545 0.0212545 0.259885 13.2764 66.0865)" r="38.32"/>
    <circle class="fil6" transform="matrix(0.0350916 -0.00286994 0.00286994 0.0350916 13.2764 66.0865)" r="38.32"/>
    <path class="fil6" d="M12.5 56.63c5.05,-0.41 9.47,3.35 9.89,8.39 0.41,5.05 -3.35,9.48 -8.39,9.89 -5.05,0.41 -9.48,-3.35 -9.89,-8.39 -0.41,-5.05 3.35,-9.47 8.39,-9.89zm0.04 1.7c4.34,-0.36 8.15,2.88 8.5,7.22 0.36,4.34 -2.88,8.15 -7.22,8.5 -4.34,0.36 -8.15,-2.88 -8.5,-7.22 -0.36,-4.34 2.88,-8.15 7.22,-8.5z"/>
    <path class="fil6" d="M13.01 62.86c1.78,-0.15 3.35,1.18 3.49,2.97 0.15,1.78 -1.18,3.35 -2.97,3.49 -1.78,0.15 -3.35,-1.18 -3.49,-2.97 -0.15,-1.78 1.18,-3.35 2.97,-3.49zm-0.1 1.31c1.3,-0.11 2.45,0.86 2.56,2.17 0.11,1.3 -0.86,2.45 -2.17,2.56 -1.3,0.11 -2.45,-0.86 -2.56,-2.17 -0.11,-1.3 0.86,-2.45 2.17,-2.56z"/>
    <path class="fil4" d="M2.09 62.45c1.01,-5.74 7.72,-8.98 13.34,-7.65 0.29,0.07 1.43,0.74 -0.13,0.52 -5.71,-1.01 -11.23,2.25 -13.22,7.13z"/>
    <path class="fil4" d="M18.27 55.89c0,0 -1.41,-0.76 -1.5,-0.46 -0.1,0.3 1.01,0.64 1.41,0.85 0.4,0.21 0.4,-0.12 0.09,-0.39z"/>
    <path class="fil4" d="M19.41 56.64c-0.38,-0.21 -0.52,0.13 -0.14,0.36 0.39,0.23 0.63,0.04 0.14,-0.36z"/>
   </g>
   <path class="fil7" d="M24.49 44.11c0.08,-0.1 0.23,-0.11 0.33,-0.03 0.1,0.08 0.11,0.23 0.03,0.33 -0.01,0.02 -5.25,6.3 -4.2,13.54 0.02,0.13 -0.07,0.25 -0.2,0.27 -0.13,0.02 -0.25,-0.07 -0.27,-0.2 -1.08,-7.45 4.29,-13.89 4.3,-13.9z"/>
   <path class="fil8" d="M46.17 54.41l3.49 0.05c0.29,0 0.53,0.24 0.53,0.53l0 0.3c0,0.29 -0.24,0.52 -0.53,0.52l-3.49 -0.05c-0.29,-0 -0.53,-0.24 -0.53,-0.53l0 -0.3c0,-0.29 0.24,-0.52 0.53,-0.52z"/>
   <path class="fil1" d="M49.73 55.63c-0.02,0 -0.04,0 -0.07,0l-3.49 -0.05c-0.09,-0 -0.18,-0.02 -0.25,-0.06 -0.06,-0.07 -0.09,-0.16 -0.09,-0.26l0 -0.25c0,-0.24 0.21,-0.43 0.47,-0.42l3.11 0.04c0.26,0 0.47,0.2 0.47,0.44l0 0.25c0,0.12 -0.06,0.23 -0.15,0.31z"/>
   <path class="fil1" d="M64.13 47.98l3.65 0c0.4,0 0.73,0.33 0.73,0.73l0 1.53c0,0.16 -0.13,0.29 -0.29,0.29l-5.06 0c-0.16,0 -0.29,-0.13 -0.29,-0.29l0 -0.98c0,-0.7 0.57,-1.28 1.28,-1.28z"/>
   <path class="fil8" d="M22.22 54.09l3.49 0.05c0.29,0 0.53,0.24 0.53,0.53l0 0.3c0,0.29 -0.24,0.52 -0.53,0.52l-3.49 -0.05c-0.29,-0 -0.53,-0.24 -0.53,-0.53l0 -0.3c0,-0.29 0.24,-0.52 0.53,-0.52z"/>
   <path class="fil1" d="M25.77 55.31c-0.02,0 -0.04,0 -0.07,0l-3.49 -0.05c-0.09,-0 -0.18,-0.02 -0.25,-0.06 -0.06,-0.07 -0.09,-0.16 -0.09,-0.26l0 -0.25c0,-0.24 0.21,-0.43 0.47,-0.42l3.11 0.04c0.26,0 0.47,0.2 0.47,0.44l0 0.25c0,0.12 -0.06,0.23 -0.15,0.31z"/>
   <path class="fil9" d="M29.14 65.78l46.77 0.7c0,0 2.6,-0.05 2.81,-1.46 0.22,-1.41 -2,-3.84 -13.46,-5.79 -11.46,-1.95 -22.01,-1.84 -28.71,-0.65 -6.7,1.19 -10.44,7.41 -7.41,7.19z"/>
   <path class="fil7" d="M47.66 41.63c0.06,-0.11 0.21,-0.15 0.32,-0.09 0.11,0.06 0.15,0.21 0.09,0.32 -0.01,0.01 -2.59,4.51 -4.13,12.3 -1.54,7.78 -0.29,14 -0.29,14.02 0.02,0.13 -0.06,0.25 -0.19,0.28 -0.13,0.02 -0.25,-0.06 -0.28,-0.19 -0,-0.02 -1.26,-6.33 0.29,-14.2 1.55,-7.87 4.17,-12.43 4.18,-12.44z"/>
   <path class="fil7" d="M71.62 50.57c-0.12,-0.05 -0.18,-0.19 -0.13,-0.31 0.05,-0.12 0.19,-0.18 0.31,-0.13 0.01,0.01 4.98,1.99 4.98,8.14 0,5.98 0.29,9.83 0.29,9.84 0.01,0.13 -0.09,0.24 -0.22,0.25 -0.13,0.01 -0.24,-0.09 -0.25,-0.22 -0,-0.01 -0.29,-3.88 -0.29,-9.88 0,-5.83 -4.67,-7.7 -4.68,-7.71z"/>
  </g>
  <g id="_2532630725568">
   <path class="fil10" d="M135.67 36.52l-9.17 7.43c0,0 -1.63,-0.85 -3.64,-3.59 -2.01,-2.74 -2.42,-3.41 -2.42,-3.41 0,0 2.73,-2.26 5.87,-4.37 3.14,-2.12 3.8,-2.76 3.8,-2.76 0,0 -2.33,-4.19 -8.61,-2.19 -6.28,2 -8.9,5.59 -8.84,9.73 0.05,4.14 0.93,5.32 -3.31,10.62 -4.24,5.3 -30.07,33.74 -30.07,33.74 0,0 -1.36,2.71 -5.23,2.55 -3.87,-0.16 -6.94,0.16 -9.49,4.44 -2.54,4.28 -1,8.06 -0.45,7.79 0.55,-0.27 7.29,-5.26 7.29,-5.26 0,0 1.03,0.35 2.87,2.39 1.83,2.04 2.27,3.83 2.27,3.83 0,0 -6.78,5.34 -6.8,5.66 -0.02,0.33 3.35,3.48 8.26,1.64 4.9,-1.84 7.19,-3.96 7.29,-8.23 0.1,-4.27 -0.93,-5.28 2.74,-9.01 3.67,-3.73 30.3,-33.22 30.3,-33.22 0,0 1.71,-2.24 4.56,-2.31 1.26,-0.03 4.21,0.96 7.46,-0.83 2.94,-1.62 8.37,-7.66 5.31,-14.64z"/>
   <path class="fil11" d="M135.67 36.52l-0.15 0.12c0.44,1.93 0.93,5.73 -0.96,8.92 -2.67,4.51 -7.61,5.28 -9.95,4.95 -2.33,-0.33 -4.29,-0.47 -6.85,2.03 -2.55,2.49 -17.29,19.28 -17.29,19.28l-14.55 16.5c0,0 -2.09,1.63 -2,4.11 0.09,2.48 0.74,5.61 -1.86,8.33 -2.52,2.63 -8.74,6.04 -12.27,2.47 0.44,0.66 3.67,3.23 8.21,1.52 4.9,-1.84 7.19,-3.96 7.29,-8.23 0.1,-4.27 -0.93,-5.28 2.74,-9.01 3.67,-3.73 30.3,-33.22 30.3,-33.22 0,0 1.71,-2.24 4.56,-2.31 1.26,-0.03 4.21,0.96 7.46,-0.83 2.94,-1.62 8.37,-7.66 5.31,-14.64zm-15.21 0.42c0.22,-0.19 2.85,-2.34 5.85,-4.36 3.14,-2.12 3.8,-2.76 3.8,-2.76 0,0 -0.1,-0.18 -0.32,-0.46l-9.79 6.88c0,0 0.18,0.3 0.46,0.7zm-56.93 58.92c0.2,0.48 0.43,0.72 0.59,0.64 0.55,-0.27 7.29,-5.26 7.29,-5.26 0,0 1.03,0.35 2.87,2.39 1.83,2.04 2.27,3.83 2.27,3.83 1.05,-0.91 1.11,-0.85 1.11,-0.85 0,0 -0.45,-1.26 -2.68,-3.84 -2.23,-2.59 -3.08,-2.97 -3.08,-2.97 0,0 -6.61,4.98 -7.08,5.33 -0.27,0.2 -0.85,0.59 -1.29,0.74zm13.02 1.6l-0.08 0.06c0.03,-0.02 0.06,-0.04 0.08,-0.06z"/>
   <path class="fil12" d="M120.11 28.12c0,0 3.15,-0.42 5.42,-0.15 2.27,0.27 3.91,0.81 -0.53,3.85 -4.44,3.04 -5.67,4.28 -4.88,3.79 0.79,-0.49 9.35,-6.34 9.35,-6.34 0,0 -1.85,-3.48 -9.35,-1.15z"/>
   <path class="fil12" d="M116.59 30.81c0,0 -2.75,2.71 -2.48,6.96 0.26,4.26 0.84,6.01 -2.76,9.5 -3.6,3.48 -7.82,8.34 -7.82,8.34 0,0 7.45,-8.67 8.78,-10.95 1.32,-2.29 0.73,-4.25 0.83,-6.75 0.1,-2.5 0.6,-5.64 3.45,-7.09z"/>
   <path class="fil13" d="M133.57 45.55c0,0 -2.72,3.58 -7.31,2.8 -4.59,-0.78 -9.62,-2.83 -9.28,-0.9 0.35,1.93 0.38,2.5 -4.12,8.61 -4.5,6.11 -7.26,9.31 -4.07,5.8 3.19,-3.5 8.17,-9.33 9.21,-10.49 1.04,-1.15 2.02,-1.91 4.71,-1.78 2.69,0.12 7.1,1.21 10.86,-4.06z"/>
   <path class="fil12" d="M71.39 85.36c0,0 -3.83,0.26 -6.07,4.81 -2.24,4.55 -1.31,4.93 0.74,3.21 2.04,-1.71 5.01,-3.68 3.26,-2.16 -1.75,1.51 -5.1,4.41 -5.56,4.15 -0.46,-0.26 -1.08,-2.06 0.93,-5.97 2.01,-3.91 3.94,-3.91 6.7,-4.05z"/>
   <ellipse class="fil14" transform="matrix(0.218193 0.196472 -0.196472 0.218193 98.1674 68.2385)" rx="7.24" ry="80.58"/>
  </g>
  <g id="_2532630727344">
   <path class="fil6" d="M86.03 112l0 0c2.31,2.08 5.89,1.89 7.97,-0.42l14.07 -15.62 3.17 -3.52 3.17 -3.52c0,0 1.65,-1.45 1.52,-2.43 -0.13,-0.97 -0.15,-1.17 0.24,-1.66 0.39,-0.49 0.72,-0.6 1.1,-0.53 0.38,0.07 0.93,0.28 1.27,-0.11 0.34,-0.39 1.04,-1.03 -0.87,-3.01 -0.86,-0.88 -1.57,-1.54 -2.09,-1.99 -0.5,-0.47 -1.22,-1.11 -2.19,-1.87 -2.16,-1.7 -2.72,-0.93 -3.08,-0.55 -0.36,0.38 -0.09,0.9 0.02,1.27 0.11,0.37 0.04,0.71 -0.41,1.15 -0.45,0.44 -0.65,0.44 -1.63,0.42 -0.98,-0.02 -2.25,1.77 -2.25,1.77l-2.96 3.29c-0.07,0.07 -0.14,0.15 -0.21,0.23l-17.24 19.15c-2.08,2.31 -1.89,5.89 0.42,7.97z"/>
   <path class="fil14" d="M85.8 111.62c0,0 -0.9,-0.95 -0.96,-2.06 -0.06,-1.11 -0.03,0.42 1.55,1.66 1.58,1.25 2.97,1.17 4.63,-0.33 1.66,-1.5 3.18,-2.9 1.78,-1.06 -1.4,1.84 -1.48,2.18 -1.19,2.55 0.29,0.37 -0.11,0.7 -1.53,0.9 -1.41,0.2 -3.2,-0.56 -4.29,-1.66z"/>
   <rect class="fil11" transform="matrix(0.202248 0.182114 0.182114 -0.202248 86.9436 108.601)" width="12.91" height="133.78" rx="6.45" ry="6.45"/>
   <path class="fil11" d="M109.13 79.6c-0.21,0.02 -0.47,0.02 -0.85,0.01 -0.98,-0.02 -2.25,1.77 -2.25,1.77l-2.96 3.29c-0.07,0.07 -0.14,0.15 -0.21,0.23l-17.24 19.15c-0.59,0.65 -0.99,1.41 -1.22,2.2 0.07,0.1 0.15,0.2 0.24,0.28l0 0c0.58,0.52 1.47,0.47 1.99,-0.1l22.48 -24.96c0.48,-0.53 0.48,-1.32 0.03,-1.85z"/>
   <path class="fil11" d="M91.91 113.04c0.77,-0.31 1.49,-0.8 2.08,-1.45l14.07 -15.62 3.17 -3.52 3.17 -3.52c0,0 1.65,-1.45 1.52,-2.43 -0.05,-0.36 -0.08,-0.61 -0.08,-0.82 -0.45,-0.24 -1.03,-0.15 -1.39,0.24l-22.83 25.36c-0.42,0.47 -0.38,1.2 0.08,1.62l0 0c0.06,0.06 0.13,0.11 0.2,0.15z"/>
   <path class="fil14" d="M110.77 77.57c0,0 1.2,0.13 3.65,2.16 2.44,2.02 3.29,4.2 3.29,4.2 0,0 -2.1,-3.72 -6.94,-6.36z"/>
   <path class="fil14" d="M141.92 52.79l5.84 -2.68 1.7 -4.65 -1.41 -1.27 -1.06 -0.96 -1.41 -1.27 -4.45 2.17 -2.05 6.09 0 0.01 -24.94 27.7c0.59,0.5 1.07,0.92 1.43,1.26 0.37,0.32 0.85,0.75 1.4,1.29l24.94 -27.7 0.01 0z"/>
   <ellipse class="fil10" transform="matrix(0.202248 0.182114 0.154061 -0.171094 128.303 63.7227)" rx="1.56" ry="77.84"/>
   <path class="fil10" d="M149.36 45.37l-1.31 -1.18 -1.06 -0.96 -1.41 -1.27 -4.45 2.17 -1.28 3.81c1.25,0.69 3.23,1.28 5.62,0.24 2.09,-0.91 3.25,-1.98 3.89,-2.82z"/>
  </g>
 </g>
</svg>
