<?xml version="1.0" encoding="UTF-8"?>
<!DOCTYPE svg PUBLIC "-//W3C//DTD SVG 1.1//EN" "http://www.w3.org/Graphics/SVG/1.1/DTD/svg11.dtd">
<!-- Creator: CorelDRAW 2020 (64-Bit) -->
<svg xmlns="http://www.w3.org/2000/svg" xml:space="preserve" width="55.3825mm" height="51.9109mm" version="1.1" style="shape-rendering:geometricPrecision; text-rendering:geometricPrecision; image-rendering:optimizeQuality; fill-rule:evenodd; clip-rule:evenodd"
viewBox="0 0 92.05 86.28"
 xmlns:xlink="http://www.w3.org/1999/xlink"
 xmlns:xodm="http://www.corel.com/coreldraw/odm/2003">
 <defs>
  <style type="text/css">
   <![CDATA[
    .fil4 {fill:#FE8D00}
    .fil3 {fill:#FE9900}
    .fil6 {fill:#FEC200}
    .fil2 {fill:#FF7A17}
    .fil5 {fill:#FF7D01}
    .fil0 {fill:#FFAA00}
    .fil7 {fill:#FFD600}
    .fil8 {fill:#606262;fill-rule:nonzero}
    .fil1 {fill:#D7DADA;fill-rule:nonzero}
   ]]>
  </style>
 </defs>
 <g id="Layer_x0020_1">
  <metadata id="CorelCorpID_0Corel-Layer"/>
  <path class="fil0" d="M69.97 73.49c0.34,0.87 0.54,1.81 0.6,2.79 0.26,4.95 -3.55,9.17 -8.5,9.43 -2.66,0.14 -5.11,-0.9 -6.85,-2.66 -3.97,1.83 -8.36,2.95 -12.99,3.19 -19.31,1 -35.8,-13.64 -37.2,-32.83 -2.9,-3.2 -4.76,-7.38 -5,-12.02 -0.55,-10.7 7.67,-19.83 18.38,-20.38 0.91,-0.05 1.81,-0.03 2.7,0.05 5.05,-3.28 11.01,-5.32 17.46,-5.65 15.16,-0.78 28.58,8.07 34.33,21.19 5.2,3.68 8.72,9.62 9.08,16.47 0.46,8.86 -4.51,16.75 -12,20.43zm-0.04 -25.63c0.84,16.28 -11.67,30.16 -27.95,31 -16.28,0.84 -30.16,-11.67 -31,-27.95 -0.84,-16.28 11.67,-30.16 27.95,-31 16.28,-0.84 30.16,11.67 31,27.95z"/>
  <g id="_2532626800384">
   <path class="fil1" d="M28.44 67.65c0.17,-0.6 0.79,-0.95 1.38,-0.78 0.6,0.17 0.95,0.79 0.78,1.38 -0.75,2.71 -0.32,4.76 0.65,5.85 0.33,0.37 0.72,0.62 1.13,0.73 0.4,0.1 0.85,0.08 1.3,-0.1 1.36,-0.54 2.74,-2.33 3.53,-5.75 0.14,-0.61 0.74,-0.98 1.35,-0.84 0.61,0.14 0.98,0.74 0.84,1.35 -0.97,4.24 -2.92,6.55 -4.9,7.33 -0.91,0.36 -1.82,0.41 -2.68,0.19 -0.85,-0.22 -1.62,-0.7 -2.25,-1.41 -1.42,-1.6 -2.11,-4.42 -1.13,-7.95z"/>
   <path class="fil2" d="M84.31 38.63l0 0c0,0 0.38,-3.02 3.27,-4.58 2.89,-1.56 4.47,-2.36 4.47,-2.36 0,0 -9.77,-12.74 -19.63,-17.07 -0.67,-0.3 -1.39,-0.62 -2.14,-0.96 4.44,6.19 10.66,15.75 14.02,24.96z"/>
   <path class="fil3" d="M62.51 36.52l0 0c0,0 2.14,-1.65 9.93,-0.83 7.72,0.81 11.79,2.9 11.87,2.94 -3.37,-9.21 -9.58,-18.77 -14.02,-24.96 -2.31,-1.04 -4.98,-2.26 -8.03,-3.43 0.91,9.77 0.63,19.7 0.25,26.28z"/>
   <path class="fil4" d="M38.02 28.5c0.09,-0 6.19,-0.28 13.48,2.52 7.34,2.82 10.99,5.5 11,5.51 0.39,-6.58 0.66,-16.51 -0.25,-26.28 -2.57,-0.99 -5.41,-1.96 -8.53,-2.78 -6.02,6.02 -12.89,13.93 -15.71,21.04z"/>
   <path class="fil5" d="M19.32 17.68c0.01,0 5.99,0.86 11.63,4.87 5.64,4.01 7.07,5.95 7.07,5.95l0 -0c2.81,-7.1 9.69,-15.02 15.71,-21.04 -3.92,-1.03 -8.29,-1.83 -13.14,-2.15 -9.93,4.39 -17.03,9.13 -21.28,12.37z"/>
   <path class="fil2" d="M17.07 7.51c0,0 1.19,2.13 1.85,5.76 0.67,3.64 0.39,4.41 0.39,4.41l0 0c4.24,-3.24 11.35,-7.98 21.28,-12.37 -6.87,-0.46 -14.68,0.04 -23.53,2.19z"/>
   <path class="fil6" d="M16.25 7.55c10.2,-5.6 26.97,-7.94 34.77,-6.29 0,0 1.23,0.89 7.22,2.82 5.99,1.93 9.22,2.06 9.22,2.06 0,0 8.08,4.92 14.98,12.23 6.52,6.91 9.33,12.71 9.62,13.32 -5.51,-5.59 -18.06,-14.52 -18.06,-14.52 0,0 -4.73,-3.76 -16.85,-7.19 -12.13,-3.42 -13.33,-2.94 -17.76,-3.19 -3.73,-0.21 -18.52,0.52 -23.13,0.76z"/>
   <path class="fil7" d="M51.11 1.33c0.39,0.24 2.06,1.12 7.12,2.76 5.99,1.93 9.22,2.06 9.22,2.06 0,0 0.13,0.08 0.38,0.23 2.66,3.71 4.32,7.24 5.35,10.23 -1.81,-1.18 -6.76,-4 -16.04,-6.62 -12.13,-3.42 -13.33,-2.94 -17.76,-3.19 -0.63,-0.04 -1.59,-0.04 -2.76,-0.03 4.31,-3.27 11.08,-4.82 14.5,-5.43z"/>
   <path class="fil1" d="M59.76 0.31c0.08,-0.24 0.33,-0.37 0.57,-0.29 0.24,0.08 0.37,0.33 0.29,0.57l-1.23 3.86c-0.28,-0.08 -0.57,-0.17 -0.86,-0.27l1.23 -3.87zm-2.18 9.8l-20.11 63.11c-0.08,0.24 -0.33,0.37 -0.57,0.29 -0.24,-0.08 -0.37,-0.33 -0.29,-0.57l20.1 -63.08 0.43 0.12c0.15,0.04 0.29,0.08 0.44,0.12z"/>
  </g>
  <path class="fil8" d="M21.54 40.49c0,-0.05 -0.01,-0.1 -0.03,-0.17 -0.02,-0.07 -0.05,-0.13 -0.09,-0.19 -0.04,-0.06 -0.09,-0.11 -0.16,-0.15 -0.06,-0.04 -0.14,-0.06 -0.24,-0.06 -0.22,0 -0.36,0.09 -0.43,0.26 -0.07,0.17 -0.11,0.35 -0.11,0.53l0 5.23c0,0.19 0.03,0.37 0.11,0.54 0.07,0.17 0.21,0.25 0.43,0.25 0.21,0 0.35,-0.06 0.41,-0.19 0.07,-0.13 0.11,-0.25 0.11,-0.36l0 -0.72c0,-0.1 0.05,-0.16 0.14,-0.17 0.09,-0.01 0.29,-0.01 0.6,-0.01 0.3,0 0.49,0.01 0.58,0.03 0.09,0.02 0.13,0.1 0.13,0.23l0 0.72c0,0.58 -0.16,1.05 -0.49,1.41 -0.33,0.36 -0.82,0.53 -1.47,0.53 -0.31,0 -0.6,-0.05 -0.85,-0.15 -0.25,-0.1 -0.46,-0.24 -0.63,-0.42 -0.17,-0.18 -0.3,-0.39 -0.4,-0.62 -0.09,-0.23 -0.14,-0.48 -0.14,-0.75l0 -5.82c0,-0.27 0.05,-0.52 0.14,-0.76 0.09,-0.24 0.22,-0.44 0.4,-0.62 0.17,-0.18 0.38,-0.32 0.63,-0.42 0.25,-0.1 0.53,-0.15 0.85,-0.15 0.32,0 0.61,0.06 0.85,0.17 0.25,0.11 0.45,0.26 0.61,0.44 0.16,0.18 0.28,0.39 0.37,0.63 0.08,0.24 0.12,0.48 0.12,0.73l0 0.75c0,0.07 -0.04,0.12 -0.13,0.15 -0.09,0.02 -0.29,0.03 -0.62,0.03 -0.23,0 -0.41,-0 -0.52,-0.01 -0.12,-0 -0.17,-0.05 -0.17,-0.15l0 -0.72z"/>
  <path id="1" class="fil8" d="M24.91 40.37c0,-0.09 0,-0.19 0,-0.29 0,-0.1 -0.03,-0.18 -0.1,-0.22 -0.04,-0.02 -0.09,-0.03 -0.17,-0.03 -0.08,0 -0.16,0 -0.23,0l-0.51 0c-0.1,0 -0.17,-0.04 -0.2,-0.12 -0.03,-0.08 -0.05,-0.27 -0.05,-0.56 0,-0.3 0.01,-0.48 0.03,-0.56 0.02,-0.08 0.08,-0.12 0.16,-0.12l3.67 0c0.08,0 0.13,0.04 0.15,0.12 0.02,0.08 0.03,0.26 0.03,0.53 0,0.16 -0,0.28 -0.01,0.38 -0,0.1 -0.01,0.17 -0.02,0.22 -0.01,0.05 -0.03,0.08 -0.05,0.09 -0.02,0.01 -0.05,0.02 -0.09,0.02l-0.6 0c-0.07,0 -0.15,0 -0.23,0 -0.08,0 -0.14,0.01 -0.17,0.03 -0.06,0.05 -0.1,0.12 -0.1,0.22 0,0.1 0,0.2 0,0.29l0 7.68c0,0.06 -0.05,0.1 -0.16,0.12 -0.11,0.01 -0.32,0.02 -0.65,0.02 -0.3,0 -0.49,-0 -0.58,-0.01 -0.09,-0.01 -0.13,-0.05 -0.13,-0.12l0 -7.68z"/>
  <path id="2" class="fil8" d="M32.67 42.38c0,0.29 -0.05,0.57 -0.15,0.84 -0.1,0.27 -0.28,0.53 -0.55,0.77 -0.22,0.2 -0.47,0.34 -0.75,0.41 -0.28,0.07 -0.55,0.1 -0.81,0.1 -0.1,0 -0.18,0.03 -0.23,0.08 -0.05,0.06 -0.08,0.17 -0.08,0.35l0 3.03c0,0.12 -0.05,0.19 -0.14,0.2 -0.1,0.01 -0.31,0.02 -0.63,0.02 -0.16,0 -0.28,-0 -0.37,-0.01 -0.09,-0 -0.16,-0.02 -0.21,-0.03 -0.05,-0.02 -0.08,-0.05 -0.1,-0.09 -0.01,-0.04 -0.02,-0.1 -0.02,-0.17l0 -8.99c0,-0.18 0.02,-0.29 0.07,-0.35 0.04,-0.05 0.08,-0.07 0.14,-0.08 0.06,-0 0.12,-0.01 0.21,-0.01l1.42 0c0.28,0 0.55,0.04 0.81,0.11 0.26,0.07 0.5,0.2 0.72,0.38 0.45,0.37 0.68,0.91 0.68,1.61l0 1.82zm-1.5 -1.54c0,-0.15 -0.01,-0.29 -0.03,-0.42 -0.02,-0.13 -0.07,-0.25 -0.16,-0.35 -0.06,-0.06 -0.12,-0.1 -0.19,-0.12 -0.07,-0.03 -0.16,-0.04 -0.28,-0.04 -0.08,0 -0.16,0 -0.23,0.01 -0.07,0 -0.12,0.02 -0.15,0.05 -0.03,0.04 -0.04,0.1 -0.04,0.19l0 2.65c0,0.08 0,0.14 0.01,0.19 0,0.05 0.03,0.09 0.08,0.1 0.05,0.01 0.15,0.01 0.31,0.01 0.07,0 0.16,-0.01 0.25,-0.04 0.09,-0.03 0.18,-0.09 0.25,-0.18 0.09,-0.12 0.15,-0.24 0.16,-0.35 0.01,-0.11 0.01,-0.23 0.01,-0.36l0 -1.34z"/>
  <path id="3" class="fil8" d="M34.84 48.05c-0.01,0.07 -0.08,0.12 -0.22,0.12 -0.14,0.01 -0.32,0.01 -0.54,0.01 -0.06,0 -0.12,0 -0.2,0 -0.08,0 -0.15,-0 -0.22,-0.01 -0.07,-0.01 -0.13,-0.02 -0.18,-0.04 -0.05,-0.02 -0.08,-0.04 -0.08,-0.07 0.13,-0.91 0.25,-1.75 0.36,-2.53 0.11,-0.78 0.22,-1.54 0.33,-2.28 0.11,-0.74 0.21,-1.48 0.32,-2.23 0.11,-0.75 0.22,-1.53 0.33,-2.37 0.02,-0.1 0.1,-0.16 0.26,-0.18 0.15,-0.02 0.31,-0.03 0.47,-0.03 0.18,0 0.34,0.01 0.49,0.03 0.15,0.02 0.24,0.09 0.26,0.22 0.14,0.89 0.26,1.71 0.37,2.45 0.11,0.75 0.22,1.48 0.33,2.19 0.11,0.72 0.22,1.45 0.33,2.21 0.11,0.75 0.24,1.59 0.37,2.49 0.01,0.04 -0.01,0.06 -0.06,0.08 -0.05,0.02 -0.11,0.03 -0.18,0.04 -0.07,0.01 -0.16,0.01 -0.25,0.01 -0.09,0 -0.19,0 -0.28,0 -0.2,0 -0.37,-0 -0.49,-0.01 -0.12,-0 -0.19,-0.06 -0.21,-0.16 -0.06,-0.39 -0.1,-0.74 -0.14,-1.04 -0.04,-0.31 -0.08,-0.65 -0.14,-1.03 -0.01,-0.07 -0.05,-0.11 -0.12,-0.11 -0.07,0 -0.17,0 -0.28,0 -0.13,0 -0.23,0 -0.3,0 -0.07,0 -0.11,0.04 -0.12,0.11 -0.02,0.19 -0.04,0.38 -0.06,0.54 -0.02,0.17 -0.04,0.33 -0.06,0.49 -0.02,0.16 -0.03,0.33 -0.05,0.5 -0.01,0.17 -0.03,0.36 -0.05,0.56zm0.33 -3.36c-0.01,0.07 0.08,0.11 0.28,0.11 0.09,0 0.17,0 0.23,0 0.06,0 0.09,-0.03 0.08,-0.1 -0.02,-0.26 -0.03,-0.49 -0.05,-0.7 -0.01,-0.21 -0.03,-0.42 -0.04,-0.63 -0.01,-0.21 -0.03,-0.42 -0.04,-0.64 -0.01,-0.22 -0.03,-0.47 -0.05,-0.74 0,-0.04 -0.01,-0.11 -0.03,-0.22 -0.02,-0.11 -0.05,-0.16 -0.1,-0.16 -0.02,0 -0.03,0.02 -0.05,0.06 -0.01,0.04 -0.02,0.08 -0.03,0.12 -0,0.05 -0.01,0.09 -0.01,0.14 -0,0.05 -0.01,0.07 -0.01,0.08 -0.02,0.27 -0.03,0.52 -0.05,0.75 -0.01,0.23 -0.03,0.45 -0.04,0.66 -0.01,0.21 -0.03,0.41 -0.05,0.62 -0.02,0.2 -0.03,0.42 -0.04,0.64z"/>
  <path id="4" class="fil8" d="M39.42 43.2c0,-0.06 -0.01,-0.13 -0.03,-0.19 -0.02,-0.06 -0.04,-0.13 -0.06,-0.2 -0.19,-0.71 -0.37,-1.4 -0.54,-2.07 -0.18,-0.67 -0.37,-1.36 -0.57,-2.08 -0.02,-0.09 0.03,-0.15 0.13,-0.17 0.11,-0.02 0.31,-0.03 0.62,-0.03 0.34,0 0.56,0.01 0.64,0.03 0.08,0.02 0.13,0.07 0.15,0.17 0.07,0.47 0.15,0.92 0.22,1.33 0.07,0.42 0.14,0.78 0.2,1.1 0.02,0.05 0.03,0.09 0.05,0.13 0.01,0.04 0.03,0.06 0.06,0.06 0.04,0 0.06,-0.02 0.08,-0.07 0.01,-0.05 0.03,-0.08 0.03,-0.11 0.06,-0.35 0.13,-0.74 0.21,-1.17 0.07,-0.43 0.15,-0.86 0.22,-1.28 0.01,-0.05 0.02,-0.08 0.03,-0.1 0.01,-0.02 0.04,-0.04 0.09,-0.06 0.05,-0.01 0.12,-0.02 0.22,-0.02 0.1,0 0.23,0 0.41,0 0.35,0 0.57,0.01 0.66,0.03 0.09,0.02 0.12,0.07 0.09,0.15 -0.19,0.72 -0.36,1.41 -0.53,2.08 -0.17,0.66 -0.34,1.34 -0.52,2.05 -0.03,0.1 -0.05,0.18 -0.08,0.23 -0.02,0.05 -0.03,0.11 -0.03,0.17l-1.75 0.03zm1.75 -0.03c0,0.11 0.02,0.23 0.07,0.36 0.21,0.79 0.41,1.54 0.6,2.26 0.19,0.72 0.39,1.45 0.59,2.2 0.03,0.08 -0.01,0.14 -0.12,0.16 -0.11,0.02 -0.32,0.03 -0.65,0.03 -0.31,0 -0.51,-0.01 -0.6,-0.02 -0.08,-0.01 -0.14,-0.07 -0.17,-0.16 -0.07,-0.35 -0.16,-0.75 -0.24,-1.21 -0.09,-0.45 -0.17,-0.9 -0.26,-1.33 -0.01,-0.04 -0.02,-0.08 -0.03,-0.14 -0.01,-0.06 -0.03,-0.08 -0.06,-0.08 -0.05,0 -0.07,0.02 -0.08,0.07 -0.01,0.05 -0.02,0.1 -0.03,0.15 -0.08,0.47 -0.17,0.92 -0.25,1.35 -0.08,0.43 -0.17,0.81 -0.25,1.17 -0.02,0.1 -0.07,0.16 -0.15,0.18 -0.08,0.02 -0.29,0.03 -0.62,0.03 -0.31,0 -0.52,-0.01 -0.62,-0.03 -0.1,-0.02 -0.13,-0.09 -0.1,-0.21 0.19,-0.72 0.38,-1.44 0.56,-2.15 0.18,-0.71 0.38,-1.46 0.59,-2.24 0.03,-0.08 0.05,-0.15 0.06,-0.2 0.01,-0.05 0.01,-0.1 0.01,-0.16l1.75 -0.03z"/>
  <path id="5" class="fil8" d="M47.28 46.19c0,0.58 -0.17,1.06 -0.51,1.44 -0.34,0.37 -0.84,0.56 -1.52,0.56 -0.32,0 -0.61,-0.05 -0.85,-0.15 -0.25,-0.1 -0.46,-0.24 -0.63,-0.42 -0.18,-0.18 -0.31,-0.39 -0.4,-0.63 -0.09,-0.24 -0.13,-0.5 -0.13,-0.79l0 -5.74c0,-0.31 0.05,-0.58 0.15,-0.82 0.1,-0.24 0.24,-0.45 0.42,-0.62 0.18,-0.18 0.39,-0.31 0.64,-0.4 0.25,-0.09 0.51,-0.14 0.8,-0.14 0.6,0 1.09,0.18 1.47,0.53 0.38,0.36 0.56,0.84 0.56,1.45l0 5.74zm-1.5 -5.45c0,-0.19 -0.04,-0.38 -0.11,-0.56 -0.07,-0.18 -0.22,-0.27 -0.42,-0.27 -0.22,0 -0.36,0.09 -0.43,0.27 -0.07,0.18 -0.11,0.37 -0.11,0.56l0 5.14c0,0.1 0,0.2 0.01,0.3 0,0.1 0.03,0.19 0.06,0.26 0.04,0.08 0.09,0.14 0.16,0.19 0.07,0.05 0.17,0.08 0.3,0.08 0.12,0 0.22,-0.03 0.29,-0.08 0.07,-0.05 0.12,-0.12 0.16,-0.19 0.04,-0.08 0.06,-0.17 0.07,-0.26 0.01,-0.09 0.01,-0.19 0.01,-0.3l0 -5.14z"/>
  <path id="6" class="fil8" d="M52.54 46.07c0,0.26 -0.04,0.51 -0.11,0.76 -0.07,0.25 -0.22,0.49 -0.46,0.73 -0.22,0.24 -0.48,0.41 -0.78,0.49 -0.29,0.09 -0.58,0.13 -0.84,0.13 -0.21,0 -0.45,0 -0.71,0.01 -0.26,0 -0.47,0 -0.64,-0.01 -0.1,-0.01 -0.19,-0.01 -0.27,-0.01 -0.08,0 -0.13,-0.02 -0.15,-0.06 -0.04,-0.05 -0.06,-0.09 -0.07,-0.13 -0.01,-0.04 -0.01,-0.14 -0.01,-0.28l0 -8.81c0,-0.09 0,-0.17 0.01,-0.22 0,-0.06 0.03,-0.1 0.08,-0.14 0.05,-0.05 0.09,-0.07 0.15,-0.07 0.05,0 0.11,0 0.19,0l1.37 0c0.31,0 0.6,0.05 0.89,0.14 0.29,0.09 0.54,0.24 0.75,0.44 0.19,0.19 0.33,0.42 0.41,0.69 0.08,0.26 0.13,0.54 0.13,0.83l0 1.18c0,0.21 -0.02,0.39 -0.06,0.53 -0.04,0.14 -0.11,0.28 -0.2,0.41 -0.06,0.08 -0.13,0.15 -0.21,0.2 -0.07,0.05 -0.14,0.09 -0.21,0.12 -0.06,0.03 -0.12,0.06 -0.16,0.08 -0.04,0.02 -0.06,0.03 -0.06,0.04 0,0.01 0.03,0.02 0.08,0.03 0.05,0.01 0.11,0.04 0.19,0.07 0.07,0.03 0.15,0.08 0.24,0.14 0.08,0.06 0.16,0.14 0.24,0.23 0.08,0.13 0.14,0.26 0.17,0.39 0.03,0.13 0.05,0.29 0.05,0.47l0 1.61zm-1.53 -5.23c0,-0.15 -0.01,-0.29 -0.03,-0.42 -0.02,-0.13 -0.08,-0.25 -0.17,-0.35 -0.05,-0.06 -0.1,-0.1 -0.16,-0.12 -0.06,-0.03 -0.16,-0.04 -0.29,-0.04 -0.19,0 -0.3,0.02 -0.32,0.06 -0.04,0.05 -0.06,0.11 -0.06,0.2l0 2.08c0,0.06 0,0.12 0.01,0.16 0,0.04 0.03,0.08 0.06,0.1 0.04,0.03 0.07,0.04 0.11,0.04 0.04,0 0.08,0 0.14,0 0.07,0 0.16,-0.01 0.25,-0.04 0.09,-0.03 0.18,-0.08 0.25,-0.17 0.09,-0.1 0.15,-0.2 0.17,-0.29 0.02,-0.09 0.03,-0.18 0.03,-0.25l0 -0.95zm0.06 3.92c0,-0.26 -0.04,-0.47 -0.13,-0.63 -0.09,-0.16 -0.24,-0.25 -0.44,-0.25 -0.22,0 -0.37,0.01 -0.42,0.03 -0.06,0.02 -0.08,0.1 -0.08,0.23l0 2.29c0,0.06 0,0.13 0.01,0.19 0.01,0.06 0.04,0.09 0.08,0.1 0.05,0.01 0.14,0.01 0.28,0.01 0.06,0 0.15,-0.01 0.25,-0.03 0.1,-0.02 0.19,-0.08 0.26,-0.16 0.09,-0.09 0.15,-0.19 0.17,-0.28 0.02,-0.09 0.03,-0.2 0.03,-0.34l0 -1.17z"/>
  <path id="7" class="fil8" d="M57.65 46.19c0,0.58 -0.17,1.06 -0.51,1.44 -0.34,0.37 -0.84,0.56 -1.52,0.56 -0.32,0 -0.61,-0.05 -0.85,-0.15 -0.25,-0.1 -0.46,-0.24 -0.63,-0.42 -0.18,-0.18 -0.31,-0.39 -0.4,-0.63 -0.09,-0.24 -0.13,-0.5 -0.13,-0.79l0 -5.74c0,-0.31 0.05,-0.58 0.15,-0.82 0.1,-0.24 0.24,-0.45 0.42,-0.62 0.18,-0.18 0.39,-0.31 0.64,-0.4 0.25,-0.09 0.51,-0.14 0.8,-0.14 0.6,0 1.09,0.18 1.47,0.53 0.38,0.36 0.56,0.84 0.56,1.45l0 5.74zm-1.5 -5.45c0,-0.19 -0.04,-0.38 -0.11,-0.56 -0.07,-0.18 -0.22,-0.27 -0.42,-0.27 -0.22,0 -0.36,0.09 -0.43,0.27 -0.07,0.18 -0.11,0.37 -0.11,0.56l0 5.14c0,0.1 0,0.2 0.01,0.3 0,0.1 0.03,0.19 0.06,0.26 0.04,0.08 0.09,0.14 0.16,0.19 0.07,0.05 0.17,0.08 0.3,0.08 0.12,0 0.22,-0.03 0.29,-0.08 0.07,-0.05 0.12,-0.12 0.16,-0.19 0.04,-0.08 0.06,-0.17 0.07,-0.26 0.01,-0.09 0.01,-0.19 0.01,-0.3l0 -5.14z"/>
  <path id="8" class="fil8" d="M61.31 43.71c-0.12,0.44 -0.22,0.82 -0.31,1.15 -0.09,0.33 -0.17,0.65 -0.25,0.95 -0.08,0.3 -0.16,0.61 -0.25,0.92 -0.09,0.31 -0.19,0.67 -0.3,1.07 -0.05,0.18 -0.11,0.28 -0.2,0.32 -0.09,0.04 -0.22,0.06 -0.41,0.06 -0.18,0 -0.31,-0 -0.41,-0.01 -0.1,-0.01 -0.17,-0.03 -0.21,-0.06 -0.04,-0.03 -0.06,-0.07 -0.07,-0.12 -0,-0.05 -0.01,-0.12 -0.01,-0.22l0 -9.08c0,-0.06 0,-0.1 0.01,-0.13 0.01,-0.03 0.04,-0.06 0.08,-0.07 0.05,-0.01 0.12,-0.02 0.22,-0.03 0.1,-0 0.24,-0.01 0.41,-0.01 0.18,0 0.31,0 0.41,0.01 0.1,0 0.17,0.02 0.22,0.03 0.05,0.02 0.08,0.04 0.09,0.08 0.01,0.03 0.02,0.08 0.02,0.13l0 4.24c0,0.07 0,0.16 0.01,0.26 0.01,0.1 0.04,0.15 0.08,0.15 0.05,0 0.08,-0.04 0.1,-0.12 0.02,-0.08 0.04,-0.16 0.06,-0.24 0.21,-0.74 0.41,-1.47 0.6,-2.17 0.19,-0.71 0.36,-1.35 0.51,-1.92 0.03,-0.09 0.06,-0.17 0.08,-0.23 0.03,-0.06 0.07,-0.11 0.13,-0.14 0.06,-0.03 0.13,-0.05 0.22,-0.06 0.09,-0.01 0.21,-0.01 0.36,-0.01 0.31,0 0.49,0.01 0.56,0.03 0.06,0.02 0.09,0.07 0.09,0.17l0 9.29c0,0.06 -0,0.1 -0.01,0.12 -0.01,0.03 -0.03,0.05 -0.08,0.07 -0.04,0.02 -0.11,0.03 -0.2,0.03 -0.09,0 -0.23,0.01 -0.41,0.01 -0.19,0 -0.33,-0 -0.44,-0.01 -0.1,-0 -0.18,-0.02 -0.22,-0.03 -0.05,-0.02 -0.08,-0.04 -0.09,-0.08 -0.01,-0.03 -0.02,-0.08 -0.02,-0.13l0 -4.57c0,-0.09 -0,-0.19 -0.01,-0.31 -0.01,-0.11 -0.04,-0.17 -0.08,-0.17 -0.03,0 -0.05,0.03 -0.08,0.08 -0.02,0.06 -0.05,0.12 -0.08,0.21 -0.03,0.08 -0.05,0.17 -0.08,0.27 -0.02,0.1 -0.04,0.18 -0.06,0.26zm1.42 -6.86c-0.03,0.06 -0.09,0.16 -0.17,0.3 -0.09,0.14 -0.2,0.29 -0.34,0.44 -0.14,0.15 -0.3,0.28 -0.49,0.4 -0.19,0.12 -0.39,0.17 -0.61,0.17 -0.21,0 -0.41,-0.05 -0.58,-0.16 -0.18,-0.11 -0.34,-0.23 -0.48,-0.37 -0.14,-0.14 -0.26,-0.28 -0.36,-0.42 -0.1,-0.14 -0.16,-0.24 -0.2,-0.31 -0.02,-0.03 -0.02,-0.07 0,-0.14 0.02,-0.06 0.05,-0.13 0.09,-0.19 0.04,-0.06 0.08,-0.13 0.13,-0.19 0.04,-0.06 0.07,-0.1 0.09,-0.13 0.03,-0.03 0.08,0 0.17,0.08 0.08,0.08 0.19,0.18 0.31,0.29 0.12,0.11 0.25,0.22 0.4,0.31 0.15,0.1 0.3,0.15 0.44,0.15 0.16,0 0.31,-0.05 0.45,-0.15 0.14,-0.1 0.27,-0.21 0.38,-0.33 0.11,-0.12 0.21,-0.22 0.28,-0.31 0.08,-0.08 0.13,-0.11 0.16,-0.07 0.02,0.03 0.05,0.07 0.1,0.12 0.05,0.06 0.09,0.12 0.13,0.18 0.04,0.06 0.07,0.13 0.1,0.19 0.02,0.06 0.03,0.1 0.01,0.13z"/>
  <path id="9" class="fil8" d="M28.73 55.39c0,-0.05 -0.01,-0.1 -0.03,-0.17 -0.02,-0.07 -0.05,-0.13 -0.09,-0.19 -0.04,-0.06 -0.09,-0.11 -0.16,-0.15 -0.06,-0.04 -0.14,-0.06 -0.24,-0.06 -0.22,0 -0.36,0.09 -0.43,0.26 -0.07,0.17 -0.11,0.35 -0.11,0.53l0 5.23c0,0.19 0.03,0.37 0.11,0.54 0.07,0.17 0.21,0.25 0.43,0.25 0.21,0 0.35,-0.06 0.41,-0.19 0.07,-0.13 0.11,-0.25 0.11,-0.36l0 -0.72c0,-0.1 0.05,-0.16 0.14,-0.17 0.09,-0.01 0.29,-0.01 0.6,-0.01 0.3,0 0.49,0.01 0.58,0.03 0.09,0.02 0.13,0.1 0.13,0.23l0 0.72c0,0.58 -0.16,1.05 -0.49,1.41 -0.33,0.36 -0.82,0.53 -1.47,0.53 -0.31,0 -0.6,-0.05 -0.85,-0.15 -0.25,-0.1 -0.46,-0.24 -0.63,-0.42 -0.17,-0.18 -0.3,-0.39 -0.4,-0.62 -0.09,-0.23 -0.14,-0.48 -0.14,-0.75l0 -5.82c0,-0.27 0.05,-0.52 0.14,-0.76 0.09,-0.24 0.22,-0.44 0.4,-0.62 0.17,-0.18 0.38,-0.32 0.63,-0.42 0.25,-0.1 0.53,-0.15 0.85,-0.15 0.32,0 0.61,0.06 0.85,0.17 0.25,0.11 0.45,0.26 0.61,0.44 0.16,0.18 0.28,0.39 0.37,0.63 0.08,0.24 0.12,0.48 0.12,0.73l0 0.75c0,0.07 -0.04,0.12 -0.13,0.15 -0.09,0.02 -0.29,0.03 -0.62,0.03 -0.23,0 -0.41,-0 -0.52,-0.01 -0.12,-0 -0.17,-0.05 -0.17,-0.15l0 -0.72z"/>
  <path id="10" class="fil8" d="M33.32 61.16c0,0.65 -0.18,1.14 -0.53,1.48 -0.36,0.34 -0.91,0.51 -1.66,0.51 -0.06,0 -0.11,-0.04 -0.13,-0.11 -0.02,-0.07 -0.03,-0.26 -0.03,-0.56 0,-0.3 0.01,-0.49 0.03,-0.58 0.02,-0.09 0.06,-0.13 0.12,-0.13 0.32,0 0.53,-0.07 0.62,-0.2 0.09,-0.13 0.13,-0.36 0.13,-0.69l0 -7.26c0,-0.05 0,-0.09 0.01,-0.12 0.01,-0.03 0.04,-0.06 0.08,-0.08 0.05,-0.02 0.12,-0.03 0.22,-0.04 0.1,-0.01 0.23,-0.01 0.41,-0.01l2.98 0c0.1,0 0.19,0 0.28,0.01 0.08,0 0.14,0.03 0.18,0.08 0.05,0.05 0.07,0.12 0.07,0.21 0,0.09 0,0.19 0,0.28l0 8.93c0,0.1 -0.04,0.16 -0.11,0.19 -0.07,0.02 -0.26,0.03 -0.58,0.03 -0.35,0 -0.57,-0.01 -0.66,-0.03 -0.09,-0.02 -0.13,-0.09 -0.13,-0.2l0 -7.58c0,-0.09 -0,-0.19 -0.01,-0.28 -0,-0.1 -0.03,-0.16 -0.08,-0.2 -0.04,-0.02 -0.09,-0.03 -0.16,-0.04 -0.07,-0.01 -0.14,-0.01 -0.22,-0.01l-0.83 0 0 6.43z"/>
  <path id="11" class="fil8" d="M39.4 53.62c0.01,-0.06 0.02,-0.1 0.03,-0.13 0.01,-0.03 0.04,-0.06 0.09,-0.07 0.05,-0.01 0.12,-0.02 0.22,-0.03 0.1,-0 0.23,-0.01 0.4,-0.01 0.34,0 0.56,0.01 0.65,0.03 0.09,0.02 0.13,0.08 0.11,0.18 -0.12,0.85 -0.25,1.66 -0.37,2.41 -0.13,0.75 -0.26,1.48 -0.38,2.17 -0.12,0.69 -0.24,1.36 -0.35,2.01 -0.11,0.64 -0.2,1.28 -0.28,1.9 -0.04,0.27 -0.16,0.47 -0.37,0.6 -0.21,0.13 -0.45,0.23 -0.72,0.29 -0.27,0.06 -0.53,0.09 -0.8,0.1 -0.26,0 -0.47,0.01 -0.6,0.01 -0.06,0 -0.11,-0.04 -0.13,-0.11 -0.02,-0.07 -0.03,-0.26 -0.03,-0.56 0,-0.3 0.01,-0.49 0.03,-0.58 0.02,-0.09 0.06,-0.13 0.12,-0.13 0.06,0 0.13,-0 0.22,-0.01 0.09,-0 0.18,-0.01 0.26,-0.01 0.09,-0 0.17,-0.01 0.25,-0.02 0.08,-0.01 0.13,-0.02 0.16,-0.04 -0.15,-1.09 -0.33,-2.31 -0.53,-3.65 -0.21,-1.34 -0.42,-2.8 -0.65,-4.4 -0.01,-0.06 -0.01,-0.1 0.01,-0.12 0.01,-0.03 0.05,-0.05 0.1,-0.06 0.06,-0.01 0.13,-0.02 0.24,-0.02 0.1,0 0.24,0 0.42,0 0.19,0 0.33,0 0.43,0.01 0.1,0 0.18,0.02 0.23,0.03 0.05,0.02 0.08,0.04 0.1,0.08 0.01,0.03 0.03,0.08 0.03,0.13 0.04,0.35 0.07,0.73 0.11,1.15 0.04,0.41 0.07,0.84 0.11,1.27 0.04,0.44 0.07,0.87 0.11,1.31 0.04,0.44 0.08,0.85 0.12,1.24 0,0.03 0,0.06 0.01,0.09 0.01,0.03 0.02,0.05 0.04,0.05 0.05,0 0.07,-0.05 0.07,-0.14 0.05,-0.39 0.09,-0.81 0.15,-1.26 0.05,-0.45 0.1,-0.89 0.15,-1.33 0.05,-0.44 0.09,-0.86 0.14,-1.27 0.05,-0.41 0.09,-0.77 0.12,-1.1z"/>
  <path id="12" class="fil8" d="M41.7 53.48c0,-0.07 0.05,-0.12 0.16,-0.12 0.11,-0.01 0.29,-0.01 0.55,-0.01 0.31,0 0.51,0 0.62,0.01 0.11,0.01 0.17,0.04 0.17,0.1l0 4.31c0,0.19 0.04,0.38 0.11,0.56 0.07,0.18 0.21,0.27 0.42,0.27 0.21,0 0.35,-0.09 0.42,-0.27 0.07,-0.18 0.1,-0.37 0.1,-0.56l0 -4.26c0,-0.08 0.05,-0.13 0.14,-0.14 0.1,-0.01 0.31,-0.01 0.66,-0.01 0.27,0 0.44,0 0.54,0.01 0.09,0.01 0.14,0.05 0.14,0.12l0 9.49c0,0.07 -0.06,0.11 -0.16,0.12 -0.11,0 -0.27,0.01 -0.48,0.01 -0.22,0 -0.4,-0 -0.53,-0.01 -0.13,-0 -0.2,-0.04 -0.2,-0.12l0 -3.04c0,-0.23 -0.05,-0.3 -0.15,-0.2 -0.1,0.09 -0.23,0.17 -0.39,0.22 -0.16,0.06 -0.28,0.08 -0.37,0.08 -0.24,0 -0.47,-0.04 -0.67,-0.12 -0.21,-0.08 -0.39,-0.2 -0.55,-0.37 -0.16,-0.17 -0.28,-0.38 -0.37,-0.63 -0.09,-0.25 -0.14,-0.55 -0.14,-0.89l0 -4.54z"/>
  <path id="13" class="fil8" d="M47.99 62.95c-0.01,0.07 -0.08,0.12 -0.22,0.12 -0.14,0.01 -0.32,0.01 -0.54,0.01 -0.06,0 -0.12,0 -0.2,0 -0.08,0 -0.15,-0 -0.22,-0.01 -0.07,-0.01 -0.13,-0.02 -0.18,-0.04 -0.05,-0.02 -0.08,-0.04 -0.08,-0.07 0.13,-0.91 0.25,-1.75 0.36,-2.53 0.11,-0.78 0.22,-1.54 0.33,-2.28 0.11,-0.74 0.21,-1.48 0.32,-2.23 0.11,-0.75 0.22,-1.53 0.33,-2.37 0.02,-0.1 0.1,-0.16 0.26,-0.18 0.15,-0.02 0.31,-0.03 0.47,-0.03 0.18,0 0.34,0.01 0.49,0.03 0.15,0.02 0.24,0.09 0.26,0.22 0.14,0.89 0.26,1.71 0.37,2.45 0.11,0.75 0.22,1.48 0.33,2.19 0.11,0.72 0.22,1.45 0.33,2.21 0.11,0.75 0.24,1.59 0.37,2.49 0.01,0.04 -0.01,0.06 -0.06,0.08 -0.05,0.02 -0.11,0.03 -0.18,0.04 -0.07,0.01 -0.16,0.01 -0.25,0.01 -0.09,0 -0.19,0 -0.28,0 -0.2,0 -0.37,-0 -0.49,-0.01 -0.12,-0 -0.19,-0.06 -0.21,-0.16 -0.06,-0.39 -0.1,-0.74 -0.14,-1.04 -0.04,-0.31 -0.08,-0.65 -0.14,-1.03 -0.01,-0.07 -0.05,-0.11 -0.12,-0.11 -0.07,0 -0.17,0 -0.28,0 -0.13,0 -0.23,0 -0.3,0 -0.07,0 -0.11,0.04 -0.12,0.11 -0.02,0.19 -0.04,0.38 -0.06,0.54 -0.02,0.17 -0.04,0.33 -0.06,0.49 -0.02,0.16 -0.03,0.33 -0.05,0.5 -0.01,0.17 -0.03,0.36 -0.05,0.56zm0.33 -3.36c-0.01,0.07 0.08,0.11 0.28,0.11 0.09,0 0.17,0 0.23,0 0.06,0 0.09,-0.03 0.08,-0.1 -0.02,-0.26 -0.03,-0.49 -0.05,-0.7 -0.01,-0.21 -0.03,-0.42 -0.04,-0.63 -0.01,-0.21 -0.03,-0.42 -0.04,-0.64 -0.01,-0.22 -0.03,-0.47 -0.05,-0.74 0,-0.04 -0.01,-0.11 -0.03,-0.22 -0.02,-0.11 -0.05,-0.16 -0.1,-0.16 -0.02,0 -0.03,0.02 -0.05,0.06 -0.01,0.04 -0.02,0.08 -0.03,0.12 -0,0.05 -0.01,0.09 -0.01,0.14 -0,0.05 -0.01,0.07 -0.01,0.08 -0.02,0.27 -0.03,0.52 -0.05,0.75 -0.01,0.23 -0.03,0.45 -0.04,0.66 -0.01,0.21 -0.03,0.41 -0.05,0.62 -0.02,0.2 -0.03,0.42 -0.04,0.64z"/>
  <path id="14" class="fil8" d="M54.12 58.62c-0.12,0.44 -0.22,0.82 -0.31,1.15 -0.09,0.33 -0.17,0.65 -0.25,0.95 -0.08,0.3 -0.16,0.61 -0.25,0.92 -0.09,0.31 -0.19,0.67 -0.3,1.07 -0.05,0.18 -0.11,0.28 -0.2,0.32 -0.09,0.04 -0.22,0.06 -0.41,0.06 -0.18,0 -0.31,-0 -0.41,-0.01 -0.1,-0.01 -0.17,-0.03 -0.21,-0.06 -0.04,-0.03 -0.06,-0.07 -0.07,-0.12 -0,-0.05 -0.01,-0.12 -0.01,-0.22l0 -9.08c0,-0.06 0,-0.1 0.01,-0.13 0.01,-0.03 0.04,-0.06 0.08,-0.07 0.05,-0.01 0.12,-0.02 0.22,-0.03 0.1,-0 0.24,-0.01 0.41,-0.01 0.18,0 0.31,0 0.41,0.01 0.1,0 0.17,0.02 0.22,0.03 0.05,0.02 0.08,0.04 0.09,0.08 0.01,0.03 0.02,0.08 0.02,0.13l0 4.24c0,0.07 0,0.16 0.01,0.26 0.01,0.1 0.04,0.15 0.08,0.15 0.05,0 0.08,-0.04 0.1,-0.12 0.02,-0.08 0.04,-0.16 0.06,-0.24 0.21,-0.74 0.41,-1.47 0.6,-2.17 0.19,-0.71 0.36,-1.35 0.51,-1.92 0.03,-0.09 0.06,-0.17 0.08,-0.23 0.03,-0.06 0.07,-0.11 0.13,-0.14 0.06,-0.03 0.13,-0.05 0.22,-0.06 0.09,-0.01 0.21,-0.01 0.36,-0.01 0.31,0 0.49,0.01 0.56,0.03 0.06,0.02 0.09,0.07 0.09,0.17l0 9.29c0,0.06 -0,0.1 -0.01,0.12 -0.01,0.03 -0.03,0.05 -0.08,0.07 -0.04,0.02 -0.11,0.03 -0.2,0.03 -0.09,0 -0.23,0.01 -0.41,0.01 -0.19,0 -0.33,-0 -0.44,-0.01 -0.1,-0 -0.18,-0.02 -0.22,-0.03 -0.05,-0.02 -0.08,-0.04 -0.09,-0.08 -0.01,-0.03 -0.02,-0.08 -0.02,-0.13l0 -4.57c0,-0.09 -0,-0.19 -0.01,-0.31 -0.01,-0.11 -0.04,-0.17 -0.08,-0.17 -0.03,0 -0.05,0.03 -0.08,0.08 -0.02,0.06 -0.05,0.12 -0.08,0.21 -0.03,0.08 -0.05,0.17 -0.08,0.27 -0.02,0.1 -0.04,0.18 -0.06,0.26zm1.42 -6.86c-0.03,0.06 -0.09,0.16 -0.17,0.3 -0.09,0.14 -0.2,0.29 -0.34,0.44 -0.14,0.15 -0.3,0.28 -0.49,0.4 -0.19,0.12 -0.39,0.17 -0.61,0.17 -0.21,0 -0.41,-0.05 -0.58,-0.16 -0.18,-0.11 -0.34,-0.23 -0.48,-0.37 -0.14,-0.14 -0.26,-0.28 -0.36,-0.42 -0.1,-0.14 -0.16,-0.24 -0.2,-0.31 -0.02,-0.03 -0.02,-0.07 0,-0.14 0.02,-0.06 0.05,-0.13 0.09,-0.19 0.04,-0.06 0.08,-0.13 0.13,-0.19 0.04,-0.06 0.07,-0.1 0.09,-0.13 0.03,-0.03 0.08,0 0.17,0.08 0.08,0.08 0.19,0.18 0.31,0.29 0.12,0.11 0.25,0.22 0.4,0.31 0.15,0.1 0.3,0.15 0.44,0.15 0.16,0 0.31,-0.05 0.45,-0.15 0.14,-0.1 0.27,-0.21 0.38,-0.33 0.11,-0.12 0.21,-0.22 0.28,-0.31 0.08,-0.08 0.13,-0.11 0.16,-0.07 0.02,0.03 0.05,0.07 0.1,0.12 0.05,0.06 0.09,0.12 0.13,0.18 0.04,0.06 0.07,0.13 0.1,0.19 0.02,0.06 0.03,0.1 0.01,0.13z"/>
 </g>
</svg>
