<?xml version="1.0" encoding="UTF-8"?>
<!DOCTYPE svg PUBLIC "-//W3C//DTD SVG 1.1//EN" "http://www.w3.org/Graphics/SVG/1.1/DTD/svg11.dtd">
<!-- Creator: CorelDRAW 2020 (64-Bit) -->
<svg xmlns="http://www.w3.org/2000/svg" xml:space="preserve" width="60.1689mm" height="51.8477mm" version="1.1" style="shape-rendering:geometricPrecision; text-rendering:geometricPrecision; image-rendering:optimizeQuality; fill-rule:evenodd; clip-rule:evenodd"
viewBox="0 0 100.57 86.66"
 xmlns:xlink="http://www.w3.org/1999/xlink"
 xmlns:xodm="http://www.corel.com/coreldraw/odm/2003">
 <defs>
  <style type="text/css">
   <![CDATA[
    .fil2 {fill:#5B5B5B}
    .fil1 {fill:#D8D7DA}
    .fil0 {fill:#FFAA00}
    .fil3 {fill:#606262;fill-rule:nonzero}
   ]]>
  </style>
 </defs>
 <g id="Layer_x0020_1">
  <metadata id="CorelCorpID_0Corel-Layer"/>
  <path class="fil0" d="M84.61 29.55c8.81,0 15.95,7.14 15.95,15.95 0,8.81 -7.14,15.95 -15.95,15.95 -8.81,0 -15.95,-7.14 -15.95,-15.95 0,-8.81 7.14,-15.95 15.95,-15.95zm0 9.8c3.4,0 6.16,2.76 6.16,6.16 0,3.4 -2.76,6.16 -6.16,6.16 -3.4,0 -6.16,-2.76 -6.16,-6.16 0,-3.4 2.76,-6.16 6.16,-6.16z"/>
  <circle class="fil0" cx="6.12" cy="43.04" r="6.12"/>
  <path class="fil0" d="M25.77 66.97c-8.77,-4.63 -14.74,-13.84 -14.74,-24.45 0,-10.61 5.98,-19.82 14.74,-24.45l0 48.9z"/>
  <path class="fil0" d="M29.37 0l36.87 0c4.21,0 7.66,3.45 7.66,7.66l0 71.34c0,4.21 -3.45,7.66 -7.66,7.66l-36.87 0c-4.21,0 -7.66,-3.45 -7.66,-7.66l0 -71.34c0,-4.21 3.45,-7.66 7.66,-7.66zm-3.6 72.93l43.8 0 0 -59.39 -43.8 0 0 59.39z"/>
  <circle class="fil1" cx="47.76" cy="79.59" r="4.48"/>
  <circle class="fil2" cx="47.76" cy="4.67" r="0.98"/>
  <rect class="fil2" x="43.43" y="7.37" width="8.67" height="1.86" rx="0.93" ry="0.93"/>
  <path class="fil0" d="M47.54 2.15c11.55,0 22.01,4.68 29.59,12.25 7.03,7.03 11.56,16.54 12.18,27.11 -0.53,-0.62 -1.18,-1.14 -1.91,-1.51 -0.94,-9.47 -5.17,-17.97 -11.53,-24.34 -7.25,-7.25 -17.26,-11.73 -28.32,-11.73 -11.06,0 -21.07,4.48 -28.32,11.73 -7.25,7.25 -11.73,17.26 -11.73,28.32 0,11.06 4.48,21.07 11.73,28.32 7.25,7.25 17.26,11.73 28.32,11.73 11.06,0 21.07,-4.48 28.32,-11.73 5.64,-5.64 9.6,-12.94 11.08,-21.12 0.77,-0.31 1.45,-0.78 2.03,-1.35 -1.29,9.21 -5.58,17.46 -11.85,23.73 -7.57,7.57 -18.03,12.25 -29.59,12.25 -11.55,0 -22.01,-4.68 -29.59,-12.25 -7.57,-7.57 -12.25,-18.03 -12.25,-29.59 0,-11.55 4.68,-22.01 12.25,-29.59 7.57,-7.57 18.03,-12.25 29.59,-12.25z"/>
  <path class="fil3" d="M31.35 39.94c0,0.55 -0.16,1.01 -0.48,1.36 -0.32,0.36 -0.8,0.53 -1.44,0.53 -0.31,0 -0.58,-0.05 -0.81,-0.15 -0.23,-0.1 -0.43,-0.23 -0.6,-0.4 -0.17,-0.17 -0.29,-0.37 -0.38,-0.6 -0.08,-0.23 -0.13,-0.48 -0.13,-0.75l0 -5.45c0,-0.29 0.05,-0.55 0.15,-0.78 0.1,-0.23 0.23,-0.43 0.4,-0.59 0.17,-0.17 0.37,-0.29 0.61,-0.38 0.23,-0.09 0.49,-0.13 0.76,-0.13 0.57,0 1.04,0.17 1.39,0.51 0.36,0.34 0.53,0.8 0.53,1.38l0 5.45zm-1.42 -5.17c0,-0.18 -0.04,-0.36 -0.11,-0.53 -0.07,-0.17 -0.2,-0.26 -0.4,-0.26 -0.2,0 -0.34,0.09 -0.41,0.26 -0.07,0.17 -0.1,0.35 -0.1,0.53l0 4.88c0,0.1 0,0.19 0.01,0.28 0,0.09 0.02,0.18 0.06,0.25 0.04,0.07 0.09,0.14 0.15,0.18 0.07,0.05 0.16,0.07 0.29,0.07 0.12,0 0.21,-0.02 0.27,-0.07 0.07,-0.05 0.12,-0.11 0.15,-0.18 0.04,-0.07 0.06,-0.16 0.07,-0.25 0.01,-0.09 0.01,-0.18 0.01,-0.28l0 -4.88z"/>
  <path id="1" class="fil3" d="M32.92 41.84c-0.07,0 -0.13,0 -0.18,0 -0.05,0 -0.09,-0.01 -0.13,-0.04 -0.06,-0.02 -0.09,-0.07 -0.09,-0.17l0 -0.08 0 -0.12 0 -8.53c0,-0.1 0.01,-0.16 0.03,-0.2 0.02,-0.04 0.08,-0.06 0.18,-0.08 0.04,-0.01 0.09,-0.01 0.14,-0.01 0.05,0 0.1,0 0.15,0l0.17 0 0.42 0 1.93 0c0.08,0 0.13,0.03 0.15,0.1 0.02,0.07 0.03,0.26 0.03,0.57 0,0.28 -0.01,0.45 -0.03,0.52 -0.02,0.07 -0.07,0.1 -0.16,0.1l-1.17 0c-0.07,0 -0.14,0 -0.2,0.01 -0.07,0.01 -0.12,0.02 -0.15,0.04 -0.04,0.04 -0.07,0.1 -0.07,0.19 -0,0.09 -0.01,0.18 -0.01,0.27l0 1.37c0.01,0.12 0.04,0.21 0.09,0.25 0.05,0.04 0.12,0.07 0.21,0.07 0.25,0 0.5,0.03 0.77,0.1 0.26,0.07 0.5,0.2 0.71,0.39 0.26,0.23 0.43,0.47 0.53,0.73 0.09,0.26 0.14,0.53 0.14,0.8l0 1.73c0,0.33 -0.05,0.63 -0.15,0.88 -0.1,0.25 -0.27,0.47 -0.49,0.65 -0.2,0.17 -0.43,0.29 -0.68,0.36 -0.25,0.07 -0.51,0.11 -0.77,0.11l-0.75 0 -0.33 0 -0.26 0zm2.02 -3.53c0,-0.12 -0,-0.24 -0.01,-0.34 -0.01,-0.11 -0.06,-0.22 -0.15,-0.33 -0.07,-0.09 -0.15,-0.15 -0.24,-0.17 -0.09,-0.03 -0.17,-0.04 -0.24,-0.04 -0.15,0 -0.25,0 -0.29,0.01 -0.05,0.03 -0.08,0.07 -0.08,0.12l0 2.76c0,0.04 0.01,0.08 0.04,0.11 0.03,0.03 0.07,0.04 0.14,0.05 0.07,0 0.14,0.01 0.22,0.01 0.11,0 0.19,-0.01 0.26,-0.04 0.07,-0.03 0.13,-0.07 0.18,-0.12 0.08,-0.1 0.13,-0.21 0.15,-0.33 0.02,-0.12 0.03,-0.25 0.03,-0.4l0 -1.27z"/>
  <path id="2" class="fil3" d="M41.22 36.33c0,0.27 -0.05,0.54 -0.14,0.8 -0.09,0.26 -0.27,0.5 -0.53,0.73 -0.21,0.19 -0.45,0.32 -0.71,0.39 -0.27,0.07 -0.52,0.1 -0.77,0.1 -0.1,0 -0.17,0.03 -0.22,0.08 -0.05,0.05 -0.07,0.16 -0.07,0.33l0 2.87c0,0.11 -0.05,0.18 -0.14,0.19 -0.09,0.01 -0.29,0.02 -0.6,0.02 -0.15,0 -0.27,-0 -0.35,-0.01 -0.09,-0 -0.16,-0.02 -0.2,-0.03 -0.05,-0.02 -0.08,-0.05 -0.09,-0.09 -0.01,-0.04 -0.02,-0.09 -0.02,-0.16l0 -8.53c0,-0.17 0.02,-0.28 0.07,-0.33 0.04,-0.04 0.08,-0.07 0.13,-0.07 0.05,-0 0.12,-0.01 0.2,-0.01l1.34 0c0.26,0 0.52,0.04 0.77,0.11 0.25,0.07 0.48,0.19 0.68,0.36 0.43,0.35 0.65,0.86 0.65,1.53l0 1.73zm-1.42 -1.46c0,-0.14 -0.01,-0.27 -0.03,-0.4 -0.02,-0.12 -0.07,-0.24 -0.15,-0.33 -0.05,-0.05 -0.11,-0.09 -0.18,-0.12 -0.07,-0.03 -0.15,-0.04 -0.26,-0.04 -0.08,0 -0.15,0 -0.22,0.01 -0.07,0 -0.11,0.02 -0.14,0.05 -0.03,0.04 -0.04,0.1 -0.04,0.18l0 2.52c0,0.07 0,0.13 0.01,0.18 0,0.05 0.03,0.08 0.07,0.1 0.04,0.01 0.14,0.01 0.29,0.01 0.07,0 0.15,-0.01 0.24,-0.04 0.09,-0.03 0.17,-0.08 0.24,-0.17 0.09,-0.12 0.14,-0.23 0.15,-0.33 0.01,-0.11 0.01,-0.22 0.01,-0.34l0 -1.27z"/>
  <path id="3" class="fil3" d="M43.28 41.71c-0.01,0.07 -0.08,0.11 -0.21,0.12 -0.13,0.01 -0.3,0.01 -0.51,0.01 -0.05,0 -0.12,0 -0.19,0 -0.07,0 -0.15,-0 -0.21,-0.01 -0.07,-0.01 -0.12,-0.02 -0.17,-0.04 -0.05,-0.02 -0.07,-0.04 -0.07,-0.07 0.12,-0.86 0.24,-1.66 0.34,-2.4 0.11,-0.74 0.21,-1.46 0.31,-2.16 0.1,-0.7 0.2,-1.41 0.3,-2.12 0.1,-0.71 0.2,-1.46 0.31,-2.25 0.02,-0.1 0.1,-0.15 0.24,-0.17 0.15,-0.02 0.29,-0.03 0.44,-0.03 0.17,0 0.32,0.01 0.47,0.03 0.15,0.02 0.23,0.09 0.24,0.2 0.13,0.84 0.25,1.62 0.36,2.33 0.11,0.71 0.21,1.4 0.31,2.08 0.1,0.68 0.2,1.38 0.31,2.1 0.11,0.72 0.22,1.51 0.36,2.37 0.01,0.04 -0.01,0.06 -0.05,0.08 -0.04,0.02 -0.1,0.03 -0.17,0.04 -0.07,0.01 -0.15,0.01 -0.24,0.01 -0.09,0 -0.18,0 -0.26,0 -0.19,0 -0.35,-0 -0.46,-0.01 -0.11,-0 -0.18,-0.05 -0.2,-0.15 -0.05,-0.37 -0.1,-0.7 -0.13,-0.99 -0.04,-0.29 -0.08,-0.62 -0.13,-0.98 -0.01,-0.07 -0.05,-0.11 -0.12,-0.11 -0.07,0 -0.16,0 -0.26,0 -0.12,0 -0.22,0 -0.28,0 -0.07,0 -0.1,0.04 -0.11,0.11 -0.02,0.18 -0.04,0.36 -0.05,0.51 -0.02,0.16 -0.04,0.31 -0.05,0.47 -0.02,0.15 -0.03,0.31 -0.05,0.47 -0.01,0.16 -0.03,0.34 -0.05,0.53zm0.32 -3.19c-0.01,0.07 0.08,0.11 0.26,0.11 0.09,0 0.16,0 0.22,0 0.06,0 0.08,-0.03 0.07,-0.09 -0.02,-0.25 -0.03,-0.47 -0.05,-0.67 -0.01,-0.2 -0.03,-0.4 -0.04,-0.59 -0.01,-0.2 -0.03,-0.4 -0.04,-0.61 -0.01,-0.21 -0.03,-0.44 -0.05,-0.71 0,-0.04 -0.01,-0.1 -0.03,-0.2 -0.02,-0.1 -0.05,-0.15 -0.09,-0.15 -0.02,0 -0.03,0.02 -0.05,0.05 -0.01,0.04 -0.02,0.07 -0.03,0.12 -0,0.04 -0.01,0.09 -0.01,0.13 -0,0.04 -0.01,0.07 -0.01,0.08 -0.02,0.25 -0.03,0.49 -0.05,0.71 -0.01,0.22 -0.03,0.43 -0.04,0.63 -0.01,0.2 -0.03,0.39 -0.05,0.59 -0.02,0.19 -0.03,0.4 -0.04,0.61z"/>
  <path id="4" class="fil3" d="M47.67 34.42c0,-0.09 0,-0.18 0,-0.28 0,-0.1 -0.03,-0.17 -0.09,-0.21 -0.04,-0.02 -0.09,-0.03 -0.16,-0.03 -0.07,0 -0.15,0 -0.22,0l-0.49 0c-0.1,0 -0.16,-0.04 -0.19,-0.11 -0.03,-0.07 -0.05,-0.25 -0.05,-0.53 0,-0.28 0.01,-0.46 0.03,-0.53 0.02,-0.07 0.07,-0.11 0.15,-0.11l3.48 0c0.08,0 0.13,0.04 0.15,0.12 0.02,0.08 0.03,0.25 0.03,0.5 0,0.15 -0,0.27 -0.01,0.36 -0,0.09 -0.01,0.16 -0.02,0.2 -0.01,0.04 -0.02,0.07 -0.05,0.09 -0.02,0.01 -0.05,0.02 -0.09,0.02l-0.57 0c-0.07,0 -0.14,0 -0.22,0 -0.07,0 -0.13,0.01 -0.16,0.03 -0.06,0.04 -0.09,0.11 -0.09,0.21 0,0.1 0,0.19 0,0.28l0 7.29c0,0.06 -0.05,0.1 -0.15,0.11 -0.1,0.01 -0.31,0.02 -0.61,0.02 -0.28,0 -0.46,-0 -0.55,-0.01 -0.08,-0.01 -0.13,-0.05 -0.13,-0.12l0 -7.29z"/>
  <path id="5" class="fil3" d="M51.87 41.83c-0.16,0 -0.28,0 -0.38,0 -0.09,0 -0.16,-0.01 -0.2,-0.02 -0.04,-0.01 -0.07,-0.03 -0.08,-0.06 -0.01,-0.03 -0.01,-0.06 -0.01,-0.11l0 -8.78c0,-0.1 0.03,-0.16 0.1,-0.19 0.07,-0.03 0.26,-0.05 0.57,-0.05 0.18,0 0.31,0 0.41,0.01 0.1,0 0.17,0.02 0.22,0.04 0.05,0.02 0.08,0.05 0.09,0.08 0.01,0.03 0.02,0.07 0.02,0.13l0 3.09c0,0.11 0.01,0.21 0.02,0.28 0.01,0.07 0.06,0.12 0.15,0.15 0.03,0 0.07,0 0.14,0.01 0.07,0 0.14,0.01 0.21,0.01 0.07,0 0.15,0 0.22,0 0.07,-0 0.12,-0.01 0.16,-0.02 0.05,-0.02 0.08,-0.06 0.09,-0.13 0.01,-0.07 0.01,-0.15 0.01,-0.25l0 -3.18c0,-0.11 0.04,-0.18 0.12,-0.18 0.08,-0.01 0.28,-0.01 0.59,-0.01 0.17,0 0.3,0 0.4,0.01 0.1,0 0.17,0.01 0.21,0.03 0.04,0.01 0.07,0.03 0.09,0.06 0.01,0.03 0.02,0.07 0.02,0.12l0 8.73c0,0.06 -0,0.11 -0.01,0.15 -0.01,0.04 -0.04,0.06 -0.08,0.08 -0.04,0.02 -0.11,0.03 -0.2,0.03 -0.09,0 -0.23,0.01 -0.4,0.01 -0.18,0 -0.31,-0 -0.41,-0.01 -0.1,-0 -0.17,-0.02 -0.22,-0.03 -0.05,-0.02 -0.08,-0.04 -0.09,-0.08 -0.01,-0.04 -0.01,-0.08 -0.01,-0.15l0 -3.49c0,-0.08 -0,-0.15 -0.01,-0.2 -0.01,-0.06 -0.04,-0.09 -0.11,-0.1 -0.04,-0.01 -0.11,-0.02 -0.18,-0.02 -0.08,-0 -0.16,-0 -0.25,0 -0.09,0 -0.17,0.01 -0.24,0.01 -0.07,0 -0.11,0.01 -0.12,0.01 -0.05,0.02 -0.08,0.05 -0.09,0.11 -0.01,0.06 -0.01,0.13 -0.01,0.22l0 3.52c0,0.05 -0.01,0.09 -0.02,0.13 -0.01,0.03 -0.04,0.05 -0.09,0.07 -0.04,0.01 -0.12,0.02 -0.22,0.02 -0.1,0 -0.24,0 -0.4,0z"/>
  <path id="6" class="fil3" d="M58.67 38.31c0,-0.12 -0,-0.24 -0.01,-0.34 -0.01,-0.11 -0.06,-0.22 -0.15,-0.33 -0.07,-0.09 -0.15,-0.15 -0.24,-0.17 -0.09,-0.03 -0.17,-0.04 -0.24,-0.04 -0.15,0 -0.25,0 -0.29,0.01 -0.04,0.02 -0.07,0.05 -0.07,0.1 -0,0.05 -0.01,0.11 -0.01,0.18l0 2.52c0,0.09 0.01,0.15 0.04,0.18 0.03,0.03 0.07,0.04 0.14,0.05 0.07,0 0.14,0.01 0.22,0.01 0.11,0 0.19,-0.01 0.26,-0.04 0.07,-0.03 0.13,-0.07 0.18,-0.12 0.08,-0.1 0.13,-0.21 0.15,-0.33 0.02,-0.12 0.03,-0.25 0.03,-0.4l0 -1.27zm1.42 1.54c0,0.33 -0.05,0.63 -0.15,0.88 -0.1,0.25 -0.27,0.47 -0.49,0.65 -0.2,0.17 -0.43,0.29 -0.68,0.36 -0.25,0.07 -0.51,0.11 -0.77,0.11l-1.34 0c-0.08,0 -0.15,-0 -0.2,-0.01 -0.05,-0 -0.1,-0.03 -0.13,-0.07 -0.04,-0.05 -0.07,-0.16 -0.07,-0.33l0 -8.53c0,-0.07 0.01,-0.13 0.02,-0.16 0.01,-0.04 0.04,-0.07 0.09,-0.09 0.05,-0.02 0.11,-0.03 0.2,-0.03 0.09,-0 0.2,-0.01 0.35,-0.01 0.31,0 0.5,0.01 0.6,0.02 0.09,0.01 0.14,0.08 0.14,0.19l0 2.87c0,0.17 0.02,0.28 0.07,0.33 0.05,0.05 0.12,0.08 0.22,0.08 0.25,0 0.5,0.03 0.77,0.1 0.26,0.07 0.5,0.2 0.71,0.39 0.26,0.23 0.43,0.47 0.53,0.73 0.09,0.26 0.14,0.53 0.14,0.8l0 1.73zm2.03 1.77c0,0.05 -0,0.09 -0.01,0.12 -0.01,0.03 -0.04,0.05 -0.09,0.06 -0.05,0.01 -0.12,0.02 -0.22,0.03 -0.1,0 -0.24,0.01 -0.42,0.01 -0.16,0 -0.28,0 -0.38,0 -0.09,0 -0.16,-0.01 -0.2,-0.02 -0.04,-0.01 -0.07,-0.03 -0.08,-0.06 -0.01,-0.03 -0.01,-0.06 -0.01,-0.11l0 -8.81c0,-0.1 0.04,-0.16 0.11,-0.18 0.07,-0.02 0.26,-0.03 0.57,-0.03 0.18,0 0.31,0 0.41,0.01 0.1,0 0.17,0.01 0.22,0.03 0.05,0.01 0.08,0.04 0.09,0.07 0.01,0.03 0.02,0.07 0.02,0.13l0 8.77z"/>
  <path id="7" class="fil3" d="M65.55 37.6c-0.11,0.41 -0.21,0.78 -0.3,1.09 -0.08,0.32 -0.16,0.62 -0.24,0.9 -0.07,0.29 -0.15,0.58 -0.24,0.88 -0.08,0.3 -0.18,0.64 -0.28,1.02 -0.04,0.17 -0.11,0.27 -0.19,0.3 -0.08,0.04 -0.21,0.05 -0.39,0.05 -0.17,0 -0.3,-0 -0.39,-0.01 -0.09,-0.01 -0.16,-0.03 -0.2,-0.05 -0.04,-0.03 -0.06,-0.06 -0.07,-0.11 -0,-0.05 -0.01,-0.12 -0.01,-0.2l0 -8.62c0,-0.05 0,-0.09 0.01,-0.13 0.01,-0.03 0.04,-0.05 0.08,-0.07 0.05,-0.01 0.11,-0.02 0.21,-0.03 0.09,-0 0.22,-0.01 0.39,-0.01 0.17,0 0.3,0 0.39,0.01 0.09,0 0.16,0.02 0.21,0.03 0.04,0.02 0.07,0.04 0.09,0.07 0.01,0.03 0.02,0.07 0.02,0.13l0 4.02c0,0.07 0,0.15 0.01,0.25 0.01,0.1 0.04,0.15 0.08,0.15 0.04,0 0.08,-0.04 0.1,-0.12 0.02,-0.08 0.04,-0.15 0.06,-0.22 0.2,-0.7 0.39,-1.39 0.57,-2.06 0.18,-0.67 0.34,-1.28 0.48,-1.83 0.03,-0.09 0.05,-0.16 0.08,-0.22 0.03,-0.06 0.07,-0.1 0.12,-0.13 0.05,-0.03 0.12,-0.05 0.21,-0.06 0.08,-0.01 0.2,-0.01 0.34,-0.01 0.29,0 0.47,0.01 0.53,0.03 0.06,0.02 0.09,0.07 0.09,0.16l0 8.82c0,0.05 -0,0.09 -0.01,0.12 -0.01,0.03 -0.03,0.05 -0.07,0.07 -0.04,0.02 -0.11,0.03 -0.19,0.03 -0.09,0 -0.22,0.01 -0.39,0.01 -0.18,0 -0.31,-0 -0.41,-0.01 -0.1,-0 -0.17,-0.02 -0.21,-0.03 -0.04,-0.02 -0.07,-0.04 -0.09,-0.07 -0.01,-0.03 -0.02,-0.07 -0.02,-0.13l0 -4.34c0,-0.09 -0,-0.18 -0.01,-0.29 -0.01,-0.11 -0.04,-0.16 -0.08,-0.16 -0.03,0 -0.05,0.03 -0.07,0.08 -0.02,0.05 -0.05,0.12 -0.07,0.2 -0.03,0.08 -0.05,0.16 -0.07,0.26 -0.02,0.09 -0.04,0.17 -0.06,0.24zm1.34 -6.51c-0.03,0.05 -0.08,0.15 -0.16,0.28 -0.08,0.14 -0.19,0.27 -0.32,0.42 -0.13,0.14 -0.29,0.27 -0.46,0.38 -0.18,0.11 -0.37,0.16 -0.58,0.16 -0.2,0 -0.39,-0.05 -0.55,-0.15 -0.17,-0.1 -0.32,-0.22 -0.45,-0.35 -0.14,-0.13 -0.25,-0.26 -0.34,-0.4 -0.09,-0.13 -0.16,-0.23 -0.19,-0.29 -0.02,-0.03 -0.02,-0.07 0,-0.13 0.02,-0.06 0.05,-0.12 0.09,-0.18 0.04,-0.06 0.08,-0.12 0.12,-0.18 0.04,-0.06 0.07,-0.1 0.09,-0.13 0.03,-0.03 0.08,0 0.16,0.08 0.08,0.08 0.18,0.17 0.29,0.28 0.11,0.11 0.24,0.2 0.38,0.3 0.14,0.09 0.28,0.14 0.42,0.14 0.15,0 0.29,-0.05 0.43,-0.14 0.14,-0.1 0.26,-0.2 0.36,-0.32 0.11,-0.11 0.2,-0.21 0.27,-0.29 0.07,-0.08 0.13,-0.1 0.15,-0.07 0.02,0.03 0.05,0.07 0.09,0.12 0.04,0.05 0.09,0.11 0.13,0.17 0.04,0.06 0.07,0.12 0.09,0.18 0.02,0.06 0.02,0.1 0.01,0.13z"/>
  <path id="8" class="fil3" d="M34.62 50.4c0.08,0 0.17,-0.02 0.27,-0.05 0.1,-0.04 0.2,-0.08 0.28,-0.13 0.09,-0.05 0.16,-0.1 0.22,-0.16 0.06,-0.06 0.09,-0.12 0.09,-0.18l0 -1.36c0,-0.15 -0.03,-0.29 -0.1,-0.42 -0.07,-0.13 -0.19,-0.19 -0.36,-0.19 -0.18,0 -0.29,0.07 -0.36,0.2 -0.06,0.13 -0.09,0.27 -0.09,0.41l0 0.4c0,0.09 -0.08,0.15 -0.23,0.17 -0.15,0.03 -0.33,0.04 -0.52,0.04 -0.18,0 -0.33,-0.01 -0.47,-0.04 -0.14,-0.03 -0.21,-0.09 -0.21,-0.18l0 -0.62c0,-0.22 0.05,-0.42 0.15,-0.61 0.1,-0.18 0.23,-0.34 0.4,-0.48 0.17,-0.14 0.36,-0.24 0.59,-0.32 0.23,-0.07 0.47,-0.11 0.74,-0.11 0.27,0 0.53,0.04 0.76,0.11 0.23,0.07 0.43,0.18 0.6,0.31 0.17,0.13 0.3,0.29 0.4,0.48 0.1,0.19 0.14,0.39 0.14,0.61l0 1.56c0,0.13 -0.03,0.25 -0.09,0.36 -0.06,0.11 -0.13,0.21 -0.22,0.3 -0.08,0.09 -0.17,0.17 -0.26,0.24 -0.09,0.07 -0.17,0.13 -0.23,0.18 0.06,0.07 0.14,0.15 0.24,0.23 0.1,0.08 0.19,0.18 0.28,0.29 0.09,0.11 0.16,0.23 0.22,0.37 0.06,0.14 0.09,0.29 0.09,0.45l0 1.89c0,0.27 -0.05,0.52 -0.15,0.75 -0.1,0.23 -0.23,0.42 -0.4,0.58 -0.17,0.16 -0.37,0.29 -0.61,0.37 -0.24,0.09 -0.49,0.13 -0.76,0.13 -0.27,0 -0.52,-0.05 -0.75,-0.14 -0.23,-0.09 -0.43,-0.22 -0.59,-0.38 -0.17,-0.16 -0.3,-0.35 -0.4,-0.58 -0.1,-0.23 -0.15,-0.47 -0.15,-0.74l0 -0.75c0,-0.11 0.07,-0.19 0.21,-0.22 0.14,-0.03 0.3,-0.05 0.47,-0.05 0.2,0 0.38,0.02 0.53,0.05 0.15,0.03 0.23,0.1 0.23,0.2l0 0.49c0,0.17 0.03,0.33 0.09,0.49 0.06,0.16 0.18,0.24 0.36,0.24 0.18,0 0.3,-0.08 0.36,-0.24 0.07,-0.16 0.1,-0.33 0.1,-0.5l0 -1.65c0,-0.07 -0.03,-0.14 -0.09,-0.22 -0.06,-0.07 -0.14,-0.14 -0.22,-0.2 -0.09,-0.06 -0.18,-0.11 -0.28,-0.15 -0.1,-0.04 -0.19,-0.06 -0.27,-0.07l-0.01 -1.19z"/>
  <path id="9" class="fil3" d="M41.79 53.99c0,0.25 -0.04,0.49 -0.11,0.72 -0.07,0.23 -0.21,0.46 -0.43,0.69 -0.21,0.23 -0.45,0.38 -0.74,0.47 -0.28,0.08 -0.55,0.13 -0.8,0.13 -0.2,0 -0.42,0 -0.67,0.01 -0.24,0 -0.45,0 -0.6,-0.01 -0.09,-0.01 -0.18,-0.01 -0.25,-0.01 -0.07,0 -0.12,-0.02 -0.14,-0.06 -0.04,-0.04 -0.06,-0.09 -0.07,-0.13 -0.01,-0.04 -0.01,-0.13 -0.01,-0.27l0 -8.36c0,-0.09 0,-0.16 0.01,-0.21 0,-0.05 0.03,-0.1 0.07,-0.13 0.04,-0.04 0.09,-0.07 0.14,-0.07 0.05,0 0.11,0 0.18,0l1.3 0c0.29,0 0.57,0.04 0.85,0.13 0.28,0.09 0.51,0.23 0.72,0.42 0.18,0.18 0.31,0.4 0.39,0.65 0.08,0.25 0.12,0.51 0.12,0.78l0 1.12c0,0.2 -0.02,0.37 -0.06,0.51 -0.04,0.14 -0.1,0.27 -0.19,0.39 -0.06,0.08 -0.13,0.14 -0.2,0.19 -0.07,0.05 -0.14,0.09 -0.2,0.12 -0.06,0.03 -0.11,0.05 -0.15,0.07 -0.04,0.02 -0.06,0.03 -0.06,0.04 0,0.01 0.02,0.02 0.07,0.03 0.05,0.01 0.11,0.04 0.18,0.07 0.07,0.03 0.15,0.07 0.22,0.13 0.08,0.06 0.15,0.13 0.22,0.22 0.08,0.12 0.13,0.25 0.16,0.37 0.03,0.12 0.05,0.27 0.05,0.45l0 1.53zm-1.45 -4.97c0,-0.14 -0.01,-0.27 -0.03,-0.4 -0.02,-0.12 -0.07,-0.23 -0.16,-0.33 -0.05,-0.05 -0.1,-0.09 -0.15,-0.12 -0.06,-0.03 -0.15,-0.04 -0.27,-0.04 -0.18,0 -0.28,0.02 -0.31,0.05 -0.04,0.04 -0.05,0.11 -0.05,0.19l0 1.97c0,0.06 0,0.11 0.01,0.15 0,0.04 0.02,0.07 0.06,0.1 0.04,0.03 0.07,0.04 0.11,0.04 0.04,0 0.08,0 0.13,0 0.07,0 0.15,-0.01 0.24,-0.04 0.09,-0.03 0.17,-0.08 0.24,-0.16 0.09,-0.1 0.14,-0.19 0.16,-0.28 0.02,-0.09 0.03,-0.17 0.03,-0.24l0 -0.9zm0.05 3.72c0,-0.25 -0.04,-0.45 -0.13,-0.6 -0.08,-0.16 -0.22,-0.23 -0.42,-0.23 -0.21,0 -0.35,0.01 -0.4,0.03 -0.05,0.02 -0.08,0.09 -0.08,0.22l0 2.17c0,0.06 0,0.12 0.01,0.18 0.01,0.06 0.04,0.09 0.08,0.1 0.04,0.01 0.13,0.01 0.27,0.01 0.06,0 0.14,-0.01 0.23,-0.03 0.09,-0.02 0.18,-0.07 0.25,-0.15 0.09,-0.09 0.14,-0.18 0.16,-0.27 0.02,-0.09 0.03,-0.19 0.03,-0.32l0 -1.11z"/>
  <path id="10" class="fil3" d="M46.64 54.09c0,0.55 -0.16,1.01 -0.48,1.36 -0.32,0.36 -0.8,0.53 -1.44,0.53 -0.31,0 -0.58,-0.05 -0.81,-0.15 -0.23,-0.1 -0.43,-0.23 -0.6,-0.4 -0.17,-0.17 -0.29,-0.37 -0.38,-0.6 -0.08,-0.23 -0.13,-0.48 -0.13,-0.75l0 -5.45c0,-0.29 0.05,-0.55 0.15,-0.78 0.1,-0.23 0.23,-0.43 0.4,-0.59 0.17,-0.17 0.37,-0.29 0.61,-0.38 0.23,-0.09 0.49,-0.13 0.76,-0.13 0.57,0 1.04,0.17 1.39,0.51 0.36,0.34 0.53,0.8 0.53,1.38l0 5.45zm-1.42 -5.17c0,-0.18 -0.04,-0.36 -0.11,-0.53 -0.07,-0.17 -0.2,-0.26 -0.4,-0.26 -0.2,0 -0.34,0.09 -0.41,0.26 -0.07,0.17 -0.1,0.35 -0.1,0.53l0 4.88c0,0.1 0,0.19 0.01,0.28 0,0.09 0.02,0.18 0.06,0.25 0.04,0.07 0.09,0.14 0.15,0.18 0.07,0.05 0.16,0.07 0.29,0.07 0.12,0 0.21,-0.02 0.27,-0.07 0.07,-0.05 0.12,-0.11 0.15,-0.18 0.04,-0.07 0.06,-0.16 0.07,-0.25 0.01,-0.09 0.01,-0.18 0.01,-0.28l0 -4.88z"/>
  <path id="11" class="fil3" d="M48.48 55.98c-0.16,0 -0.28,0 -0.38,0 -0.09,0 -0.16,-0.01 -0.2,-0.02 -0.04,-0.01 -0.07,-0.03 -0.08,-0.06 -0.01,-0.03 -0.01,-0.06 -0.01,-0.11l0 -8.78c0,-0.1 0.03,-0.16 0.1,-0.19 0.07,-0.03 0.26,-0.05 0.57,-0.05 0.18,0 0.31,0 0.41,0.01 0.1,0 0.17,0.02 0.22,0.04 0.05,0.02 0.08,0.05 0.09,0.08 0.01,0.03 0.02,0.07 0.02,0.13l0 3.09c0,0.11 0.01,0.21 0.02,0.28 0.01,0.07 0.06,0.12 0.15,0.15 0.03,0 0.07,0 0.14,0.01 0.07,0 0.14,0.01 0.21,0.01 0.07,0 0.15,0 0.22,0 0.07,-0 0.12,-0.01 0.16,-0.02 0.05,-0.02 0.08,-0.06 0.09,-0.13 0.01,-0.07 0.01,-0.15 0.01,-0.25l0 -3.18c0,-0.11 0.04,-0.18 0.12,-0.18 0.08,-0.01 0.28,-0.01 0.59,-0.01 0.17,0 0.3,0 0.4,0.01 0.1,0 0.17,0.01 0.21,0.03 0.04,0.01 0.07,0.03 0.09,0.06 0.01,0.03 0.02,0.07 0.02,0.12l0 8.73c0,0.06 -0,0.11 -0.01,0.15 -0.01,0.04 -0.04,0.06 -0.08,0.08 -0.04,0.02 -0.11,0.03 -0.2,0.03 -0.09,0 -0.23,0.01 -0.4,0.01 -0.18,0 -0.31,-0 -0.41,-0.01 -0.1,-0 -0.17,-0.02 -0.22,-0.03 -0.05,-0.02 -0.08,-0.04 -0.09,-0.08 -0.01,-0.04 -0.01,-0.08 -0.01,-0.15l0 -3.49c0,-0.08 -0,-0.15 -0.01,-0.2 -0.01,-0.06 -0.04,-0.09 -0.11,-0.1 -0.04,-0.01 -0.11,-0.02 -0.18,-0.02 -0.08,-0 -0.16,-0 -0.25,0 -0.09,0 -0.17,0.01 -0.24,0.01 -0.07,0 -0.11,0.01 -0.12,0.01 -0.05,0.02 -0.08,0.05 -0.09,0.11 -0.01,0.06 -0.01,0.13 -0.01,0.22l0 3.52c0,0.05 -0.01,0.09 -0.02,0.13 -0.01,0.03 -0.04,0.05 -0.09,0.07 -0.04,0.01 -0.12,0.02 -0.22,0.02 -0.1,0 -0.24,0 -0.4,0z"/>
  <path id="12" class="fil3" d="M56.57 54.09c0,0.55 -0.16,1.01 -0.48,1.36 -0.32,0.36 -0.8,0.53 -1.44,0.53 -0.31,0 -0.58,-0.05 -0.81,-0.15 -0.23,-0.1 -0.43,-0.23 -0.6,-0.4 -0.17,-0.17 -0.29,-0.37 -0.38,-0.6 -0.08,-0.23 -0.13,-0.48 -0.13,-0.75l0 -5.45c0,-0.29 0.05,-0.55 0.15,-0.78 0.1,-0.23 0.23,-0.43 0.4,-0.59 0.17,-0.17 0.37,-0.29 0.61,-0.38 0.23,-0.09 0.49,-0.13 0.76,-0.13 0.57,0 1.04,0.17 1.39,0.51 0.36,0.34 0.53,0.8 0.53,1.38l0 5.45zm-1.42 -5.17c0,-0.18 -0.04,-0.36 -0.11,-0.53 -0.07,-0.17 -0.2,-0.26 -0.4,-0.26 -0.2,0 -0.34,0.09 -0.41,0.26 -0.07,0.17 -0.1,0.35 -0.1,0.53l0 4.88c0,0.1 0,0.19 0.01,0.28 0,0.09 0.02,0.18 0.06,0.25 0.04,0.07 0.09,0.14 0.15,0.18 0.07,0.05 0.16,0.07 0.29,0.07 0.12,0 0.21,-0.02 0.27,-0.07 0.07,-0.05 0.12,-0.11 0.15,-0.18 0.04,-0.07 0.06,-0.16 0.07,-0.25 0.01,-0.09 0.01,-0.18 0.01,-0.28l0 -4.88z"/>
  <path id="13" class="fil3" d="M60.6 50.25c-0.06,0.17 -0.09,0.31 -0.09,0.44 0,0.06 0,0.13 0.01,0.19 0.01,0.07 0.04,0.16 0.08,0.28l1.31 4.67c0,0.02 -0,0.04 -0.01,0.06 -0,0.02 -0.03,0.04 -0.07,0.05 -0.04,0.01 -0.11,0.02 -0.21,0.03 -0.1,0.01 -0.23,0.01 -0.41,0.01 -0.3,0 -0.49,-0 -0.59,-0.01 -0.09,-0.01 -0.15,-0.07 -0.18,-0.17 -0.09,-0.35 -0.17,-0.68 -0.24,-0.98 -0.07,-0.3 -0.15,-0.59 -0.22,-0.88 -0.07,-0.29 -0.15,-0.58 -0.22,-0.88 -0.07,-0.29 -0.15,-0.62 -0.24,-0.98 -0.02,-0.06 -0.05,-0.09 -0.09,-0.07 -0.04,0.01 -0.11,0.11 -0.18,0.28 -0.07,0.17 -0.11,0.35 -0.11,0.55l0 2.9c0,0.11 -0.07,0.17 -0.21,0.2 -0.14,0.03 -0.31,0.04 -0.5,0.04 -0.17,0 -0.33,-0.01 -0.48,-0.03 -0.14,-0.02 -0.22,-0.08 -0.22,-0.18l0 -8.82c0,-0.04 0.02,-0.08 0.07,-0.1 0.04,-0.02 0.1,-0.04 0.16,-0.05 0.07,-0.01 0.14,-0.02 0.22,-0.03 0.08,-0 0.16,-0.01 0.23,-0.01 0.08,0 0.16,0 0.24,0 0.08,0 0.16,0.01 0.23,0.02 0.07,0.01 0.13,0.03 0.18,0.06 0.05,0.03 0.07,0.07 0.07,0.12l0 3.19c0,0.04 0,0.1 0,0.18 0,0.07 0.02,0.1 0.07,0.09 0.02,-0.01 0.03,-0.04 0.05,-0.1 0.01,-0.06 0.03,-0.11 0.05,-0.15 0.06,-0.21 0.11,-0.36 0.13,-0.46 0.03,-0.1 0.04,-0.17 0.05,-0.21 0.01,-0.04 0.01,-0.07 0.01,-0.09 0,-0.01 0,-0.04 0.01,-0.09 0.01,-0.04 0.03,-0.12 0.05,-0.22 0.03,-0.1 0.07,-0.26 0.13,-0.47 0,-0.02 0.01,-0.04 0.03,-0.05 0.01,-0.6 0.18,-1.05 0.51,-1.36 0.33,-0.31 0.86,-0.47 1.57,-0.47 0.06,0 0.1,0.04 0.13,0.11 0.02,0.07 0.03,0.25 0.03,0.53 0,0.28 -0.01,0.46 -0.03,0.55 -0.02,0.08 -0.06,0.13 -0.11,0.13 -0.25,0 -0.42,0.04 -0.52,0.12 -0.1,0.08 -0.16,0.21 -0.18,0.38l-0.51 1.69z"/>
 </g>
</svg>
