<?xml version="1.0" encoding="UTF-8"?>
<!DOCTYPE svg PUBLIC "-//W3C//DTD SVG 1.1//EN" "http://www.w3.org/Graphics/SVG/1.1/DTD/svg11.dtd">
<!-- Creator: CorelDRAW 2020 (64-Bit) -->
<svg xmlns="http://www.w3.org/2000/svg" xml:space="preserve" width="52.0582mm" height="85.7429mm" version="1.1" style="shape-rendering:geometricPrecision; text-rendering:geometricPrecision; image-rendering:optimizeQuality; fill-rule:evenodd; clip-rule:evenodd"
viewBox="0 0 80.1 131.92"
 xmlns:xlink="http://www.w3.org/1999/xlink"
 xmlns:xodm="http://www.corel.com/coreldraw/odm/2003">
 <defs>
  <style type="text/css">
   <![CDATA[
    .fil15 {fill:none}
    .fil8 {fill:#323232}
    .fil19 {fill:black}
    .fil5 {fill:#080B0F}
    .fil12 {fill:#231F20}
    .fil20 {fill:#333333}
    .fil18 {fill:#4C4C4C}
    .fil2 {fill:#5A6063}
    .fil3 {fill:#63565A}
    .fil17 {fill:#666666}
    .fil7 {fill:#959F9F}
    .fil1 {fill:#BFBFBF}
    .fil10 {fill:#DBA240}
    .fil13 {fill:#DBA33F}
    .fil4 {fill:#E0E0E0}
    .fil14 {fill:#E8AF4C}
    .fil21 {fill:#FEE300}
    .fil22 {fill:#FF8000}
    .fil0 {fill:#FFAA00}
    .fil6 {fill:#FFC86A}
    .fil9 {fill:#FFDB9C}
    .fil16 {fill:white}
    .fil11 {fill:white}
    .fil23 {fill:#2B2A29;fill-rule:nonzero}
   ]]>
  </style>
 </defs>
 <g id="Layer_x0020_1">
  <metadata id="CorelCorpID_0Corel-Layer"/>
  <g id="_2532462811360">
   <circle id="_158221824" class="fil0" transform="matrix(-0.266143 -0.0810934 -0.0810934 0.266143 22.3532 32.5062)" r="22.97"/>
   <circle id="_102312040" class="fil0" transform="matrix(-0.985456 -0.300269 -0.300269 0.985456 23.6723 72.8729)" r="22.97"/>
   <circle id="_161466264" class="fil0" transform="matrix(-1.10071 -0.335386 -0.335386 1.10071 53.6546 100.583)" r="22.97"/>
   <circle id="_161466264_0" class="fil0" transform="matrix(-0.670589 -0.204328 -0.204328 0.670589 44.3592 87.8091)" r="22.97"/>
   <g>
    <rect class="fil1" x="31.56" y="26.58" width="24.64" height="46.08"/>
    <path class="fil2" d="M30.64 25.88l26.43 0 0 0.98 -26.43 0 0 -0.98zm0 25.08l26.43 0 0 0.98 -26.43 0 0 -0.98zm0 -6.17l26.43 0 0 0.98 -26.43 0 0 -0.98zm0 -6.41l26.43 0 0 0.98 -26.43 0 0 -0.98zm0 -6.17l26.43 0 0 0.98 -26.43 0 0 -0.98z"/>
    <rect class="fil1" x="31.59" y="17.78" width="12.81" height="8.1"/>
    <rect class="fil2" x="30.94" y="16.98" width="14.15" height="0.8"/>
   </g>
   <circle id="_158221752" class="fil0" transform="matrix(-0.650953 -0.198345 -0.198345 0.650953 19.9801 50.4055)" r="22.97"/>
   <path class="fil3" d="M8.83 5.4c0.13,-0.01 1,0 1.37,0l15.98 -4.82 39.74 4.82 -39.31 0 0 -0.35 -0.58 0c0.08,-0.16 0.13,-0.35 0.13,-0.55 0,-0.67 -0.54,-1.21 -1.21,-1.21 -0.67,0 -1.21,0.54 -1.21,1.21 0,0.2 0.05,0.38 0.13,0.55l-3.13 0 0 0.35 -2.68 0 -2.24 0 -9.96 0 0 2.66 0 3.99 9.1 0 0 -3.99 3.1 0 5.93 0 0 0.47 -0.61 0 0 1.27 1.09 0 0 34.05 -2.61 0 0 -28.39 -0.55 0 0 28.39 -0.7 0 0 -28.39 -0.55 0 0 28.39 -0.97 0 0 -28.39 -0.55 0 0 28.39 -0.53 0 0 -5.37c-4.57,0 -8.71,0.27 -12.94,0.27l0 50.55c3.55,3.45 9.74,11.3 31.24,5.34l0 -10.37 0.04 0.05 0 -27.89 -9.23 0 0 -38.51 1.7 0 1.15 -1.24 -1.15 -2.36 -1.7 0 0 -1.67 1.07 0 0 -2.91 1.09 0 0 -0.52 0.91 0 0 -1.17 44.23 0 0 95.57 0.55 0 0 -95.57 1.76 0 0.8 0.01 0.03 0.01 0 -0.01 0.39 0.01c0,-0 -0.01,-0.56 0,-0.56l-0.3 0 -6.9 -2.1 -0.03 -0.01 -0.02 -0 -44.51 -5.4 -0.06 -0.01 -0.06 0.02 -17.24 5.38zm6.63 0.55l2.24 0 -1.64 0.62 -0.82 -0.27 -0.01 0.01 -0.94 -0.35 1.16 0zm2.59 0l0.03 0 -0.03 0.01 0 -0.01zm-3.18 1.06l-0.08 0.03 -0 0 -1.27 0.48 -0.39 0 0.01 -1.57 0.32 0 2.12 0.8 -0.71 0.27zm0.15 0.26l1.04 -0.34 1.58 0.59 -3.13 0 -0.15 0 0.66 -0.25zm-3.31 -1.32l-1.94 0.64 -1.94 -0.64 3.88 0zm-4.81 0l2.41 0.8 -2.34 0.78 -0.89 0 0.01 -1.57 0.81 0zm5.75 0l0.13 0 -0.01 1.57 -0.18 0 -2.34 -0.78 2.41 -0.8zm-1 1.57l-3.75 0 1.87 -0.62 1.87 0.62zm64.05 97.16c0.19,9.97 0.5,7.24 0.54,-0.21l0 -96.33 -0.55 0 0 96.53 0.01 0zm-4.88 -98.64l0.52 0.16 -0.01 1.33 -0.33 0 -2.34 -0.78 2.15 -0.71zm0.89 0.27l1.8 0.55 -1.61 0.67 -0.2 0 0.01 -1.22zm2.25 0.68l1.43 0.43 0.24 0.1 -2.95 0 1.28 -0.53zm-3.81 -1.04l-1.94 0.64 -1.94 -0.64 3.88 0zm-49.41 0l0 0.02 -0.07 -0.02 0.07 0zm0.7 0.29l1.86 0 -0.93 0.35 -0.93 -0.35zm2.54 1.28l0 -0.01 -1.61 -0.61 -1.64 0.62 3.25 0zm0 -0.33l0 -0.9 -1.19 0.45 1.19 0.45zm6.22 -1.25l0 0.19 0.57 -0.19 -0.57 0zm0 0.5l0 0.6 1.44 0.48 0.18 0 0.01 -1.57 -0.13 0 -1.5 0.5zm0 0.91l0 0.17 0.5 0 -0.5 -0.17zm-4 2.46l-0.16 0 0.16 0.3 0 -0.3zm-0.61 0l-0.57 0 0 1.07 0.57 -1.07zm0.77 2.85l-0.16 0 0 -0.79 -1.18 -0.01 0 0.21 0.8 1.86 0.55 -1.28zm-0.16 -1.07l0 -0.88 -0.39 -0.72 -0.8 1.48 0 0.1 1.18 0.01zm-1.18 1.21l0.64 1.5 -0.64 1.5 0 -3.01zm0 4.24l1.57 0.01 0 0.39 -0.78 1.59 -0.8 -1.64 0 -0.36zm1.57 -1.29l-0.62 -1.45 0.62 -1.45 0 2.9zm-1.57 0.77l0.8 -1.86 0.78 1.81 0 0.29 -1.57 -0.01 0 -0.23zm1.57 35.47l-1.57 -0.01 0 -0.22 0.8 -1.64 0.78 1.59 0 0.27zm-1.57 0.27l1.57 0.01 0 0.17 -0.78 1.81 -0.8 -1.86 0 -0.13zm1.57 -4.94l-1.57 -0.01 0 -0.29 0.8 -1.86 0.78 1.81 0 0.35zm-1.57 1.16l0.64 1.32 -0.64 1.32 0 -2.63zm0 4.63l0.64 1.5 -0.64 1.5 0 -3.01zm0.17 3.32l0.62 -1.46 0.62 1.46 -1.25 0zm1.4 -0.37l-0.62 -1.45 0.62 -1.45 0 2.9zm0 -5l-0.62 -1.27 0.62 -1.27 0 2.54zm0 -4.82l-0.62 -1.45 0.62 -1.45 0 2.9zm0 -5l-0.62 -1.27 0.62 -1.27 0 2.54zm0 -3.19l-0.78 1.59 -0.8 -1.64 0 -0.51 1.57 0.01 0 0.55zm-1.57 0.6l0.64 1.32 -0.64 1.32 0 -2.63zm0 4.63l0.64 1.5 -0.64 1.5 0 -3.01zm0 4.3l1.57 0.01 0 0.27 -0.78 1.59 -0.8 -1.64 0 -0.24zm1.57 -5.4l-1.57 -0.01 0 -0.25 0.8 -1.64 0.78 1.59 0 0.31zm-1.57 0.27l1.57 0.01 0 0.14 -0.78 1.81 -0.8 -1.86 0 -0.1zm1.57 -5.24l-1.57 -0.01 0 -0.62 0.8 -1.86 0.78 1.81 0 0.69zm0 -5.46l-1.57 -0.01 0 -0.25 0.8 -1.64 0.78 1.59 0 0.31zm-1.57 0.27l1.57 0.01 0 0.14 -0.78 1.81 -0.8 -1.86 0 -0.1zm1.57 -5.15l-1.57 -0.01 0 -0.47 0.8 -1.86 0.78 1.81 0 0.54zm-1.57 0.27l1.57 0.01 0 0.46 -0.78 1.59 -0.8 -1.64 0 -0.42zm1.57 -5.67l-1.57 -0.01 0 -0.16 0.8 -1.64 0.78 1.59 0 0.21zm-1.57 0.27l1.57 0.01 0 0.23 -0.78 1.81 -0.8 -1.86 0 -0.19zm0 -3.72l0.64 1.32 -0.64 1.32 0 -2.63zm0 4.63l0.64 1.5 -0.64 1.5 0 -3.01zm1.57 2.96l-0.62 -1.45 0.62 -1.45 0 2.9zm0 -5l-0.62 -1.27 0.62 -1.27 0 2.54zm-1.57 7.6l0.64 1.32 -0.64 1.32 0 -2.63zm0 4.63l0.64 1.5 -0.64 1.5 0 -3.01zm1.57 2.95l-0.62 -1.45 0.62 -1.45 0 2.9zm0 -5l-0.62 -1.27 0.62 -1.27 0 2.54zm-2.12 13.59l0 8.94 -2.61 0 0 -8.94 2.61 0zm0 9.49l0 2.55 -2.61 0 0 -2.55 2.61 0zm-3.16 2.55l-0.7 0 0 -2.55 0.7 0 0 2.55zm-1.24 0l-0.97 0 0 -2.55 0.97 0 0 2.55zm-1.52 0l-0.53 0 0 -2.55 0.53 0 0 2.55zm5.61 2.06l-3.64 0 0 2.55 3.64 0 0 -2.55zm4.67 3.82l-3.64 0 0 2.64 3.64 0 0 -2.64zm-10.81 -17.92l0 8.94 0.53 0 0 -8.94 -0.53 0zm-4.41 -4.37l3.61 0 0 2.67 -3.61 0 0 -2.67zm0 5.18l3.58 0 0 2.61 -3.58 0 0 -2.61zm0.03 4.91l3.52 0 0 2.52 -3.52 0 0 -2.52zm7.67 3.21l-0.7 0 0 -8.94 0.7 0 0 8.94zm-1.24 0l-0.97 0 0 -8.94 0.97 0 0 8.94zm44.6 -47.41l-0.01 1.57 -0.51 0 -2.06 -0.78 2.12 -0.8 0.46 0zm-1.3 0l-1.7 0.64 -1.7 -0.64 3.4 0zm-5.98 0l-1.94 0.64 -1.94 -0.64 3.88 0zm-4.81 0l2.41 0.8 -2.34 0.78 -0.69 0 0.01 -1.57 0.61 0zm-0.98 0l-0.01 1.57 -0.59 0 -2.06 -0.78 2.12 -0.8 0.54 0zm-1.38 0l-1.7 0.64 -1.7 -0.64 3.4 0zm-5.98 0l-1.94 0.64 -1.94 -0.64 3.88 0zm-4.81 0l2.41 0.8 -2.34 0.78 -0.89 0 0.01 -1.57 0.81 0zm-1.17 0l-0.01 1.57 -0.71 0 -2.06 -0.78 2.12 -0.8 0.66 0zm-1.5 0l-1.7 0.64 -1.7 -0.64 3.4 0zm-17.73 0l0.17 0 -0.01 1.57 -0.22 0 -2.34 -0.78 2.41 -0.8zm0.53 0l0.28 0 2.12 0.8 -2.06 0.78 -0.35 0 0.01 -1.57zm12.64 0l0.32 0 2.12 0.8 -2.06 0.78 -0.39 0 0.01 -1.57zm12.97 0l0.13 0 -0.01 1.57 -0.18 0 -2.34 -0.78 2.41 -0.8zm0.49 0l0.32 0 2.12 0.8 -2.06 0.78 -0.39 0 0.01 -1.57zm12.66 0l0.25 0 -0.01 1.57 -0.3 0 -2.34 -0.78 2.41 -0.8zm0.61 0l0.2 0 2.12 0.8 -2.06 0.78 -0.28 0 0.01 -1.57zm6.11 0l0.3 0 2.41 0.8 -2.34 0.78 -0.38 0 0.01 -1.57zm1.3 1.57l1.87 -0.62 1.87 0.62 -3.75 0zm-3.02 0l-3.28 0 1.64 -0.62 1.64 0.62zm-5.99 0l-3.75 0 1.87 -0.62 1.87 0.62zm-7.16 0l-3.28 0 1.64 -0.62 1.64 0.62zm-5.99 0l-3.75 0 1.87 -0.62 1.87 0.62zm-7.47 0l-3.28 0 1.64 -0.62 1.64 0.62z"/>
   <g>
    <g>
     <g>
      <path id="_101887472" class="fil4" d="M34.11 90.47c4.75,-1.53 12.02,-10.88 20.51,-7.39 2.51,1.55 7.87,3.58 11.93,5.01 4.06,1.43 4.06,1.31 4.53,2.15 0.19,0.34 4.29,10.41 5.69,23.58 -5.91,10.68 -18.67,16.16 -30.82,12.46 -7.95,-2.42 -13.92,-8.25 -16.81,-15.4 1.67,-8.96 3.96,-19.49 4.97,-20.4l0 0z"/>
      <path id="_104759344" class="fil4" d="M38.81 87.73l0.12 -0.8c0,0 4.21,-3.58 7.82,-4.4 3.61,-0.82 6.04,-1.07 7.6,-0.18 1.56,0.9 4.43,2.18 4.43,2.18l0.16 0.7c0,0 -7.89,0.47 -20.13,2.49z"/>
      <path id="_102313096" class="fil5" d="M42.51 84.33c5.19,-3.27 9.38,-3.94 13.6,-1.05 -1.75,3.54 -8.24,22.89 -11.15,31.17 -1.09,0 -2.8,-0.08 -2.73,-0.08l0.23 -28.81c0,0 -0.08,-0.65 0.05,-1.23z"/>
      <path id="_101887328" class="fil3" d="M43.45 85.23l3.97 -5.51c0,0 1.46,-1.3 2.83,-0.24 1.38,1.05 4.78,4.37 4.78,4.37 0,0 -6.85,19.03 -10.09,30.68 -0.99,-0 -2.08,-0.28 -2.6,-0.3 0.31,-5.72 0.43,-23 1.11,-29.01z"/>
      <path id="_101887256" class="fil0" d="M42.35 114.46l1.26 -16.61 2.2 -4.21 -0.89 -3.81 2.35 -1.94 2.75 1.86 -2.42 3.88 0.74 4.65 -3.16 16.25c-0.43,0 -1.52,-0.02 -2.82,-0.08z"/>
      <path id="_101887016" class="fil6" d="M51.35 74.72l0.59 6.22c-1.37,1.37 -3.75,5.41 -4.4,6.09 0,0 -1.24,-2.6 -1.93,-4.28 -0.08,-2.72 -1.31,-3.46 -1.31,-5.24 0,-1.78 6.16,-3.59 7.05,-2.78z"/>
      <polygon id="_102312328" class="fil3" points="38.73,88.1 37.79,92.38 39.2,92.54 37.87,95.18 41.61,107.33 38.42,95 39.47,92.4 38.32,92.07 "/>
      <polygon id="_101887400" class="fil3" points="58.99,85.16 57.92,91.37 55.79,91.54 57.8,94.47 48.12,108.86 56.97,94.26 55.37,91.39 57.12,91.02 "/>
      <path class="fil7" d="M32.87 55.9c0,0 1.81,2.75 5.2,2.54 3.39,-0.21 21.73,1.87 23.41,-2.85 1.68,-4.72 -4.21,-5.28 -11.45,-5.05 -7.24,0.22 -17.98,-0.13 -17.16,5.36z"/>
      <g>
       <path class="fil3" d="M37.06 63.44c0,0 -2.63,-8.86 -2.63,-9.76 -0,-0.9 1.93,-3.85 7.16,-6.41 5.23,-2.56 16.17,-1.17 16.99,1.63 0.82,2.8 0.26,10.79 -0.52,12.14 -0.78,1.35 -11.05,3.69 -21,2.4z"/>
       <path class="fil6" d="M36.93 60.96l0.13 2.48c0,0 -2.26,-0.75 -2.81,0.4 -0.55,1.15 -0.32,5.67 0.71,6.39 1.03,0.72 2.14,0.36 2.14,0.36 0,0 0.27,3.51 0.87,4.42 0.6,0.91 6.28,5.13 9.43,5.09 3.15,-0.04 9.49,-5.06 9.91,-6.15 0.43,-1.09 0.72,-3.44 0.72,-3.44 0,0 3.09,-0.19 3.37,-3.62 0.28,-3.42 -0.85,-4.27 -1.73,-4.41 -0.89,-0.15 -1.61,0.39 -1.61,0.39 0,0 -0,-0.73 -0.01,-1.83 -0,-0.03 -0.96,-8.26 -2.09,-9.02 -1.14,-0.77 -5.4,-3.59 -8.89,-3.06 -3.25,0.5 -8.39,2.47 -10.26,6.89 0.1,1.43 0.29,3.53 0.11,5.11z"/>
       <path class="fil8" d="M41.43 70.11c0,0 2.6,0.78 6.04,0.8 3.45,0.02 7.02,-1.76 7.02,-1.76 0,0 -2.6,4.97 -6.24,5.27 -3.64,0.3 -6.82,-4.31 -6.82,-4.31z"/>
       <path class="fil9" d="M54.92 76.3c1.3,-1.02 2.25,-1.94 2.4,-2.34 0.43,-1.09 0.72,-3.44 0.72,-3.44 0,0 3.09,-0.19 3.37,-3.62 0.28,-3.42 -0.85,-4.27 -1.73,-4.41 -0.89,-0.15 -1.61,0.39 -1.61,0.39 0,0 -0,-0.73 -0.01,-1.83 -0,-0.02 -0.74,-6.33 -1.68,-8.42 0,0 1.06,16.74 -1.46,23.68z"/>
       <path class="fil6" d="M37.06 63.44c0,0 -2.26,-0.75 -2.81,0.4 -0.55,1.15 -0.32,5.67 0.71,6.39 1.03,0.72 2.14,0.36 2.14,0.36l-0.05 -7.16zm20.95 7.31c0.02,-0.11 0.03,-0.19 0.03,-0.22 -0.01,0.07 -0.02,0.15 -0.03,0.22zm0.03 -0.24c0,0 3.09,-0.19 3.37,-3.62 0.28,-3.42 -0.85,-4.27 -1.73,-4.41 -0.77,-0.13 -1.41,0.26 -1.57,0.37 0.11,1.03 0.39,4.36 -0.07,7.67z"/>
       <path class="fil10" d="M37.07 65.81c-1.84,-0.91 -2.31,1.26 -0.09,2.98 -2.87,-0.24 -2.97,-4.95 0.08,-3.56 0,0.19 0,0.39 0,0.58z"/>
       <path class="fil10" d="M58.38 65.03c1.92,-0.74 2.18,1.47 -0.19,2.97 2.88,0.03 3.41,-4.66 0.25,-3.55 -0.02,0.19 -0.04,0.38 -0.06,0.58z"/>
       <path class="fil11" d="M42.79 70.88c0,0 3.34,0.22 6.21,-0.07 2.87,-0.29 4.18,-0.61 4.18,-0.61 0,0 -2.3,3.5 -4.65,3.7 -2.35,0.2 -5.5,-2.4 -5.75,-3.02z"/>
       <path class="fil12" d="M51.86 71.86c-0.11,0.11 -0.22,0.23 -0.33,0.34 -2.27,-0.46 -5.53,-0.2 -7.09,0.21 -0.15,-0.11 -0.3,-0.21 -0.44,-0.32 1.13,-0.05 5.06,-0.21 7.86,-0.23z"/>
       <path class="fil9" d="M44.5 79.38c1.05,0.45 2.07,0.74 2.91,0.73 2.43,-0.03 6.75,-3.02 8.8,-4.89 -0.02,0.02 -7.29,5.36 -11.71,4.16l0 0z"/>
       <g>
        <path id="_101832768" class="fil13" d="M49.53 69.31c0,0 -0.72,0.19 -1.84,0.14 -1.12,-0.05 -1.86,-0.11 -1.86,-0.11 0,0 1.98,1.58 3.7,-0.03z"/>
        <path id="_103295184" class="fil14" d="M50.32 56.96c0,0 -0.49,0.74 -0.69,2.4 -0.2,1.66 0.18,3.56 0.18,3.56 0,0 -0.11,-2.17 1.68,-3.75 1.79,-1.58 3.26,-1.22 3.26,-1.22 0,0 -3.55,-1.34 -4.43,-0.99z"/>
        <path id="_104758696" class="fil14" d="M44.16 56.96c0,0 0.49,0.74 0.69,2.4 0.2,1.66 -0.18,3.56 -0.18,3.56 0,0 0.11,-2.17 -1.68,-3.75 -1.79,-1.58 -3.26,-1.22 -3.26,-1.22 0,0 3.55,-1.34 4.43,-0.99z"/>
        <path id="_104759512" class="fil3" d="M55.89 57.98c0,0 -1.88,-0.73 -3.81,-0.6 -1.93,0.13 -2.12,0.31 -2.12,0.31l-0.36 -0.88c0,0 0.91,-0.59 3.18,-0.36 2.27,0.23 3.02,0.98 3.02,0.98l0.09 0.55z"/>
        <g>
         <path id="_103291680" class="fil15" d="M39.64 62.32l0.02 0.04c0.77,0.04 2.57,0.15 4.49,0.37l0.04 -0.03c-0.15,-3.9 -5.21,-3.78 -4.55,-0.38z"/>
         <path id="_101830608" class="fil15" d="M50.28 62.64c0.19,-3.81 5.12,-3.7 4.56,-0.4 -2.5,0.18 -3.84,0.31 -4.56,0.4z"/>
         <path id="_101830536" class="fil16" d="M39.64 62.32l0.02 0.04c0.77,0.04 2.57,0.15 4.49,0.37l0.04 -0.03c-0.15,-3.9 -5.21,-3.78 -4.55,-0.38z"/>
         <path id="_103294608" class="fil16" d="M50.28 62.64c0.19,-3.81 5.12,-3.7 4.56,-0.4 -2.5,0.18 -3.84,0.31 -4.56,0.4z"/>
         <path id="_101830296" class="fil17" d="M41.94 60.13c1.02,0 1.84,0.83 1.84,1.84 0,0.25 -0.05,0.49 -0.14,0.71 -1.4,-0.15 -2.69,-0.24 -3.5,-0.29 -0.03,-0.13 -0.05,-0.27 -0.05,-0.42 0,-1.02 0.83,-1.84 1.84,-1.84z"/>
         <path id="_102220288" class="fil17" d="M52.53 60.13c-1.02,-0 -1.84,0.83 -1.84,1.84 0,0.21 0.04,0.42 0.1,0.61 0.72,-0.08 1.84,-0.18 3.56,-0.31 0.02,-0.1 0.03,-0.2 0.03,-0.31 0,-1.02 -0.83,-1.84 -1.84,-1.84z"/>
         <path id="_103291488" class="fil18" d="M41.94 60.38c0.88,0 1.59,0.71 1.59,1.59 0,0.24 -0.05,0.47 -0.15,0.68 -1.15,-0.12 -2.21,-0.2 -2.97,-0.24 -0.04,-0.14 -0.06,-0.28 -0.06,-0.43 0,-0.88 0.71,-1.59 1.59,-1.59z"/>
         <path id="_104760976" class="fil18" d="M52.53 60.38c-0.88,0 -1.59,0.71 -1.59,1.59 -0,0.21 0.04,0.4 0.11,0.58 0.68,-0.07 1.65,-0.16 3.04,-0.26 0.02,-0.1 0.03,-0.21 0.03,-0.32 0,-0.88 -0.71,-1.59 -1.59,-1.59z"/>
         <path id="_104758888" class="fil19" d="M41.94 61.18c0.44,0 0.79,0.35 0.79,0.79 -0,0.23 -0.1,0.44 -0.26,0.59 -0.4,-0.04 -0.79,-0.07 -1.14,-0.09 -0.11,-0.14 -0.18,-0.31 -0.18,-0.5 0,-0.44 0.35,-0.79 0.79,-0.79z"/>
         <path id="_103290816" class="fil19" d="M52.53 61.18c-0.44,-0 -0.79,0.35 -0.79,0.79 0,0.19 0.07,0.36 0.18,0.5 0.37,-0.03 0.8,-0.07 1.3,-0.11 0.07,-0.12 0.1,-0.25 0.1,-0.39 0,-0.44 -0.35,-0.79 -0.79,-0.79z"/>
         <path id="_102222424" class="fil16" d="M40.75 60.73c0.21,0 0.38,0.17 0.38,0.38 0,0.21 -0.17,0.38 -0.38,0.38 -0.21,0 -0.38,-0.17 -0.38,-0.38 0,-0.21 0.17,-0.38 0.38,-0.38z"/>
         <path id="_102222496" class="fil16" d="M51.41 60.9c0.21,0 0.38,0.17 0.38,0.38 0,0.21 -0.17,0.38 -0.38,0.38 -0.21,0 -0.38,-0.17 -0.38,-0.38 0,-0.21 0.17,-0.38 0.39,-0.38z"/>
         <path id="_102223648" class="fil16" d="M41.46 61.27c0.18,0 0.32,0.14 0.32,0.32 -0,0.18 -0.14,0.32 -0.32,0.32 -0.18,0 -0.32,-0.14 -0.32,-0.32 0,-0.18 0.14,-0.32 0.32,-0.32z"/>
         <path id="_102221968" class="fil16" d="M52.12 61.44c0.18,0 0.32,0.14 0.32,0.32 0,0.18 -0.14,0.32 -0.32,0.32 -0.18,0 -0.32,-0.14 -0.32,-0.32 -0,-0.18 0.14,-0.32 0.32,-0.32z"/>
         <path id="_102222568" class="fil20" d="M44.21 62.7c-0.19,-1.27 -1.28,-2.58 -2.97,-2.37 -1.1,0.13 -1.52,0.91 -1.61,1.98 -0.55,-0.98 0.01,-2.62 1.38,-2.79 1.34,-0.17 3.28,0.64 3.19,3.19z"/>
         <path id="_102222640" class="fil20" d="M50.26 62.64c0.21,-1.26 1.3,-2.52 2.96,-2.32 1.07,0.13 1.5,0.88 1.6,1.92l0.04 -0c0.49,-0.99 -0.07,-2.55 -1.42,-2.73 -1.33,-0.17 -3.25,0.63 -3.19,3.14l0.01 -0z"/>
        </g>
        <path id="_102223072" class="fil9" d="M47.34 59.77c0,0 0,2.67 -0.17,5.35 -0.17,2.67 -0.23,3.76 -0.23,3.76l1.54 0.06c0,0 -0.68,-6.72 -1.14,-9.16z"/>
        <path id="_102223144" class="fil3" d="M38.49 58.07c0,0 1.87,-0.77 3.8,-0.68 1.93,0.09 2.12,0.27 2.12,0.27l0.35 -0.89c0,0 -0.92,-0.57 -3.19,-0.3 -2.27,0.27 -3,1.04 -3,1.04l-0.08 0.55z"/>
       </g>
      </g>
      <path class="fil14" d="M36.85 56.32c0,0 3.26,-0.96 10.76,-0.85 7.5,0.11 9.72,0.72 9.72,0.72l-0.31 -1.49 -20.45 0.06 0.29 1.57z"/>
      <path class="fil0" d="M47.06 35.34c0.18,-0.01 0.4,-0.01 0.65,0.01 1.16,0.09 1.2,0.75 1.2,0.75 0,0 0.54,-0.04 2.02,0.25 1.48,0.29 1.61,1.28 1.61,1.28 0,0 2.6,0.09 4.86,2.94 2.26,2.85 2.87,9.29 2.87,9.29 0,0 0.99,-0.16 1.49,0.21 0.49,0.37 0.65,2.48 0.2,4.21 -0.46,1.73 -0.79,1.69 -0.79,1.69l-0.49 -1.45c0,0 -0.16,-0.62 -0.87,-0.13 -0.7,0.49 -1.28,0.62 -1.28,0.62 -7.05,0.62 -15.96,0.6 -23.01,-0.05 0,0 -0.58,-0.13 -1.28,-0.62 -0.7,-0.5 -0.87,0.12 -0.87,0.12l-0.5 1.44c0,0 -0.33,0.04 -0.78,-1.69 -0.45,-1.73 -0.28,-3.84 0.22,-4.21 0.5,-0.37 1.49,-0.2 1.49,-0.2 0,0 0.63,-6.44 2.91,-9.28 2.28,-2.84 4.88,-2.92 4.88,-2.92 0,0 0.13,-0.99 1.61,-1.28 1.49,-0.29 2.02,-0.24 2.02,-0.24 0,0 0.04,-0.66 1.2,-0.74 0.25,-0.02 0.47,-0.02 0.65,-0.01z"/>
      <path class="fil21" d="M47.06 35.34c0.18,-0.01 0.4,-0.01 0.65,0.01 1.16,0.09 1.2,0.75 1.2,0.75 0,0 0.54,-0.04 2.02,0.25 1.48,0.29 1.61,1.28 1.61,1.28 0,0 2.6,0.09 4.86,2.94 0.43,0.54 0.8,1.21 1.11,1.93 -12.63,-9.69 -22.4,-0.52 -22.97,0.03 0.33,-0.76 0.71,-1.46 1.16,-2.02 2.28,-2.84 4.88,-2.92 4.88,-2.92 0,0 0.13,-0.99 1.61,-1.28 1.49,-0.29 2.02,-0.24 2.02,-0.24 0,0 0.04,-0.66 1.2,-0.74 0.25,-0.02 0.47,-0.02 0.65,-0.01z"/>
      <path class="fil22" d="M33.35 52.89c0,0 16.53,-2.23 27.21,0.06 -1.66,-0.96 -13.67,-5.11 -27.21,-0.06z"/>
      <path class="fil15" d="M33.79 49.8c0,0 -0.35,1.22 -0.44,3.09"/>
      <path class="fil22" d="M40.54 37.8c0.55,-0.16 0.93,-0.19 1.01,-0.2 1.58,4.69 -0.35,6.95 -0.35,6.95 0,0 0.9,-1.9 0.25,-4.42 -0.3,-1.15 -0.64,-1.88 -0.92,-2.33z"/>
      <path class="fil22" d="M53.6 37.83c-0.55,-0.17 -0.93,-0.2 -1.01,-0.2 -1.6,4.69 0.31,6.95 0.31,6.95 0,0 -0.89,-1.9 -0.23,-4.42 0.3,-1.15 0.64,-1.88 0.93,-2.33z"/>
      <path class="fil22" d="M44.02 36.18c0.79,-0.12 1.13,-0.1 1.18,-0.1 0.39,3.93 -1.05,6.5 -4.25,8.98 -2.76,2.14 -3.53,2.73 -3.74,3.96 -0.21,1.23 -0.39,3.5 -0.39,3.5 0,0 -0.02,-3.6 0.55,-4.57 0.57,-0.97 3.21,-2.74 5.31,-5.16 1.76,-2.04 1.54,-5.28 1.35,-6.6z"/>
      <path class="fil22" d="M50.13 36.2c-0.79,-0.12 -1.13,-0.11 -1.18,-0.11 -0.4,3.93 1.02,6.5 4.21,9 2.75,2.15 3.52,2.75 3.73,3.98 0.21,1.23 0.38,3.5 0.38,3.5 0,0 0.04,-3.6 -0.53,-4.57 -0.56,-0.97 -3.2,-2.75 -5.29,-5.18 -1.76,-2.04 -1.51,-5.28 -1.32,-6.61z"/>
      <path class="fil22" d="M36.27 41.13c0,0 -0.6,2.31 -0.77,5.63 -0.17,3.32 0.34,5.85 0.34,5.85l-2.49 0.28c0,0 0.38,-7.74 2.91,-11.76z"/>
      <path class="fil22" d="M57.7 41.18c0,0 0.59,2.31 0.75,5.63 0.15,3.32 -0.37,5.85 -0.37,5.85l2.48 0.29c0,0 -0.35,-7.74 -2.86,-11.77z"/>
     </g>
     <path class="fil3" d="M37 59.25c0,0 0.69,13.85 1.59,14.75 0.89,0.89 4.07,4.38 9.45,4.02 5.38,-0.36 8.56,-4.53 8.56,-4.53 0,0 0.57,-2.26 1.02,-6.89 0.45,-4.63 0.48,-7.75 0.48,-7.75 0,0 0.56,8.03 -0.09,11.92 -0.65,3.88 -0.65,3.88 -0.65,3.88 0,0 -4.64,5.71 -9.95,5.47 -5.31,-0.24 -9.4,-4.04 -9.94,-5.25 -0.54,-1.21 -0.88,-6.99 -0.46,-15.61z"/>
     <path class="fil3" d="M47.41 75.03c0,0 -0.4,2.97 -0.3,3.69 0.1,0.72 1.77,0.06 1.97,0.06 0.03,-0.76 -0.02,-2.32 -0.42,-3.8l-1.25 0.04z"/>
    </g>
    <path class="fil23" d="M56.22 60.86l-6.74 0c-0.02,0 -0.04,0.01 -0.06,0.02 -0.01,0.01 -0.02,0.04 -0.02,0.06l0 2.23c0,0.43 0.17,0.81 0.45,1.09l0 0c0.28,0.28 0.67,0.45 1.09,0.45l3.42 0c0.53,0 1.01,-0.22 1.37,-0.57 0.35,-0.35 0.57,-0.83 0.57,-1.37l0 -1.85c0,-0.02 -0.01,-0.04 -0.02,-0.06 -0.01,-0.01 -0.04,-0.02 -0.06,-0.02zm-6.74 -0.6l6.74 0c0.13,0 0.26,0.04 0.36,0.1 0.22,-0.04 1.01,-0.16 2.09,0.25 0.16,0.06 0.23,0.23 0.18,0.39 -0.06,0.16 -0.23,0.23 -0.39,0.18 -0.72,-0.27 -1.27,-0.28 -1.55,-0.25l0 1.87c0,0.7 -0.29,1.33 -0.74,1.79 -0.46,0.46 -1.09,0.74 -1.79,0.74l-3.42 0c-0.59,0 -1.13,-0.24 -1.52,-0.63l-0 -0c-0.39,-0.39 -0.63,-0.93 -0.63,-1.52l0 -2.23c0,-0.19 0.08,-0.36 0.2,-0.48l0 -0c0.12,-0.12 0.29,-0.2 0.48,-0.2zm-11.01 0l6.74 0c0.19,0 0.36,0.08 0.48,0.2l0 0c0.12,0.12 0.2,0.29 0.2,0.48l0 2.23c0,0.59 -0.24,1.13 -0.63,1.52l-0 0c-0.39,0.39 -0.93,0.63 -1.52,0.63l-3.42 0c-0.7,0 -1.33,-0.29 -1.79,-0.74l-0 -0c-0.46,-0.46 -0.74,-1.09 -0.74,-1.79l0 -1.6c-0.24,-0.02 -0.68,0.02 -1.22,0.33 -0.14,0.08 -0.33,0.03 -0.41,-0.11 -0.08,-0.14 -0.03,-0.33 0.11,-0.41 0.69,-0.4 1.28,-0.43 1.61,-0.4 0.03,-0.05 0.07,-0.1 0.11,-0.14l0 -0c0.12,-0.12 0.29,-0.2 0.48,-0.2zm6.74 0.6l-6.74 0c-0.02,0 -0.04,0.01 -0.06,0.02 -0.01,0.01 -0.02,0.04 -0.02,0.06l0 1.85c0,0.53 0.22,1.01 0.57,1.37 0.35,0.35 0.83,0.57 1.37,0.57l3.42 0c0.43,0 0.81,-0.17 1.09,-0.45l0 -0c0.28,-0.28 0.45,-0.67 0.45,-1.09l0 -2.23c0,-0.02 -0.01,-0.04 -0.02,-0.06 -0.01,-0.01 -0.04,-0.02 -0.06,-0.02z"/>
    <path class="fil23" d="M45.73 62.14c-0.04,0.07 -0.14,0.09 -0.21,0.05 -0.07,-0.04 -0.09,-0.14 -0.05,-0.21 0.01,-0.01 1.98,-3.26 3.76,0.27 0.04,0.07 0.01,0.16 -0.07,0.2 -0.07,0.04 -0.16,0.01 -0.2,-0.07 -1.54,-3.05 -3.24,-0.26 -3.24,-0.25z"/>
    <path class="fil23" d="M45.34 60.67c-0.08,0.01 -0.16,-0.05 -0.16,-0.14 -0.01,-0.08 0.05,-0.16 0.14,-0.16 0.01,-0 2.37,-0.22 4.12,0.04 0.08,0.01 0.14,0.09 0.13,0.17 -0.01,0.08 -0.09,0.14 -0.17,0.13 -1.72,-0.26 -4.04,-0.04 -4.05,-0.04z"/>
   </g>
   <circle id="_158221824_1" class="fil0" transform="matrix(-0.37901 -0.115484 -0.115484 0.37901 41.516 122.818)" r="22.97"/>
   <path class="fil16" d="M10.7 98.84c3.23,1.9 7.74,3.52 14.14,3.63l0 -35.31 -10.78 0 0 7.13 -0.71 0 0 -14.78 -0.72 0 0 14.78 -1.29 0 0 -14.78 -0.72 0 0 14.78 -0.93 0 0 -14.78 -0.72 0 0 14.78 -3.28 0 0 0.72 3.28 0 0 11.88 -1.76 0 0 0.72 1.76 0 0 3.38 -1.76 0 0 2.74 3.52 0 0 3.38 -0.03 0 0 1.71zm-1.01 -7.84l0.93 0 0 -3.38 -0.93 0 0 3.38zm1.65 0l1.29 0 0 -3.38 -1.29 0 0 3.38zm2.01 0l0.71 0 0 -3.38 -0.71 0 0 3.38zm0.71 -15.99l0 11.88 -0.71 0 0 -11.88 0.71 0zm5.86 -5.8l-4.79 0 0 3.54 4.79 0 0 -3.54zm0 6.89l-4.75 0 0 3.46 4.75 0 0 -3.46zm-0.04 6.52l-4.67 0 0 3.34 4.67 0 0 -3.34zm-10.19 4.27l0.93 0 0 -11.88 -0.93 0 0 11.88zm1.65 0l1.29 0 0 -11.88 -1.29 0 0 11.88z"/>
   <rect class="fil1" x="6.48" y="36.96" width="11.53" height="1.88"/>
   <rect class="fil1" x="5.58" y="35.32" width="10.99" height="1.88"/>
   <rect class="fil1" x="7.53" y="28.24" width="4.13" height="7.08"/>
  </g>
 </g>
</svg>
