<?xml version="1.0" encoding="UTF-8"?>
<!DOCTYPE svg PUBLIC "-//W3C//DTD SVG 1.1//EN" "http://www.w3.org/Graphics/SVG/1.1/DTD/svg11.dtd">
<!-- Creator: CorelDRAW 2020 (64-Bit) -->
<svg xmlns="http://www.w3.org/2000/svg" xml:space="preserve" width="52.4031mm" height="89.6156mm" version="1.1" style="shape-rendering:geometricPrecision; text-rendering:geometricPrecision; image-rendering:optimizeQuality; fill-rule:evenodd; clip-rule:evenodd"
viewBox="0 0 75.21 128.62"
 xmlns:xlink="http://www.w3.org/1999/xlink"
 xmlns:xodm="http://www.corel.com/coreldraw/odm/2003">
 <defs>
  <style type="text/css">
   <![CDATA[
    .fil1 {fill:#EBECEC}
    .fil5 {fill:#898989}
    .fil6 {fill:#2A2B2B}
    .fil3 {fill:#545959}
    .fil2 {fill:#5A6063}
    .fil13 {fill:#63565A}
    .fil12 {fill:#7A7A7A}
    .fil14 {fill:#8A8A8A}
    .fil10 {fill:#999999}
    .fil4 {fill:#B2B3B3}
    .fil9 {fill:#CBCFCF}
    .fil11 {fill:#CFCFCF}
    .fil7 {fill:#FF7700}
    .fil0 {fill:#FFAA00}
    .fil8 {fill:#FFB82B}
   ]]>
  </style>
 </defs>
 <g id="Layer_x0020_1">
  <metadata id="CorelCorpID_0Corel-Layer"/>
  <g id="_2532518540464">
   <circle id="_158221824" class="fil0" transform="matrix(0.249185 -0.0759264 0.0759264 0.249185 32.4784 17.9801)" r="21.43"/>
   <circle id="_102312040" class="fil0" transform="matrix(1.4831 -0.451901 0.451901 1.4831 41.9766 51.2374)" r="21.43"/>
   <circle id="_161466264" class="fil0" transform="matrix(0.867747 -0.264402 0.264402 0.867747 53.2221 87.99)" r="21.43"/>
   <g>
    <rect class="fil1" x="32.06" y="36.81" width="19.74" height="33.62"/>
    <path class="fil2" d="M52.53 36.3l-21.17 0 0 0.71 21.17 0 0 -0.71zm0 18.3l-21.17 0 0 0.71 21.17 0 0 -0.71zm0 -4.5l-21.17 0 0 0.71 21.17 0 0 -0.71zm0 -4.68l-21.17 0 0 0.71 21.17 0 0 -0.71zm0 -4.5l-21.17 0 0 0.71 21.17 0 0 -0.71z"/>
    <rect class="fil1" x="41.52" y="30.39" width="10.26" height="5.91"/>
    <rect class="fil2" x="40.96" y="29.81" width="11.34" height="0.59"/>
   </g>
   <circle id="_158221752" class="fil0" transform="matrix(0.585322 -0.178347 0.178347 0.585322 54.2733 13.1159)" r="21.43"/>
   <path class="fil3" d="M60.4 5.54c-0.09,-0.01 -0.73,0 -1,0l-11.66 -3.52 -29 3.52 28.68 0 0 -0.25 0.43 0c-0.06,-0.12 -0.09,-0.26 -0.09,-0.4 0,-0.49 0.4,-0.88 0.88,-0.88 0.49,0 0.88,0.4 0.88,0.88 0,0.14 -0.03,0.28 -0.09,0.4l2.28 0 0 0.25 1.96 0 1.63 0 7.26 0 0 1.94 0 2.91 -6.64 0 0 -2.91 -2.26 0 -4.32 0 0 0.35 0.44 0 0 0.93 -0.8 0 0 24.84 1.91 0 0 -26.12 0.4 0 0 26.12 0.51 0 0 -26.12 0.4 0 0 26.12 0.71 0 0 -26.12 0.4 0 0 26.12 0.39 0 0 -3.92c3.34,0 6.35,0.2 9.44,0.2l0 36.88c-2.59,2.52 -7.11,8.24 -22.8,3.9l0 -7.57 -0.03 0.03 0 -20.35 6.74 0 0 -28.09 -1.24 0 -0.84 -0.91 0.84 -1.73 1.24 0 0 -1.22 -0.78 0 0 -2.12 -0.8 0 0 -0.38 -0.66 0 0 -0.86 -32.27 0 0 64.94 -0.4 0 0 -64.94 -1.29 0 -0.59 0.01 -0.02 0.01 -0 -0.01 -0.28 0c0,-0 0.01,-0.41 0,-0.41l0.22 0 5.04 -1.53 0.02 -0.01 0.02 -0 32.47 -3.94 0.04 -0.01 0.04 0.01 12.58 3.92zm-4.84 0.4l-1.63 0 1.19 0.45 0.59 -0.2 0 0.01 0.69 -0.26 -0.85 0zm-1.89 0l-0.02 0 0.02 0.01 0 -0.01zm2.32 0.78l0.06 0.02 0 0 0.93 0.35 0.29 0 -0.01 -1.15 -0.23 0 -1.55 0.58 0.51 0.19zm-0.11 0.19l-0.76 -0.25 -1.15 0.43 2.28 0 0.11 0 -0.48 -0.18zm2.41 -0.96l1.42 0.47 1.42 -0.47 -2.83 0zm3.51 0l-1.76 0.58 1.71 0.57 0.65 0 -0.01 -1.15 -0.59 0zm-4.19 0l-0.09 0 0.01 1.15 0.13 0 1.71 -0.57 -1.76 -0.58zm0.73 1.15l2.73 0 -1.37 -0.45 -1.37 0.45zm-47.13 65.34l0 -64.89 0.4 0 0 64.89 -0.4 0zm3.96 -66.43l-0.38 0.12 0.01 0.97 0.24 0 1.71 -0.57 -1.57 -0.52zm-0.65 0.2l-1.31 0.4 1.17 0.49 0.15 0 -0.01 -0.89zm-1.64 0.5l-1.04 0.32 -0.17 0.07 2.15 0 -0.94 -0.39zm2.78 -0.76l1.42 0.47 1.42 -0.47 -2.83 0zm36.05 0l0 0.02 0.05 -0.02 -0.05 0zm-0.51 0.21l-1.36 0 0.68 0.26 0.68 -0.26zm-1.86 0.94l0 -0.01 1.18 -0.44 1.2 0.45 -2.37 0zm0 -0.24l0 -0.66 0.87 0.33 -0.87 0.33zm-4.54 -0.91l0 0.14 -0.42 -0.14 0.42 0zm0 0.36l0 0.44 -1.05 0.35 -0.13 0 -0.01 -1.15 0.09 0 1.1 0.36zm0 0.66l0 0.12 -0.37 0 0.37 -0.12zm2.92 1.8l0.12 0 -0.12 0.22 0 -0.22zm0.45 0l0.42 0 0 0.78 -0.42 -0.78zm-0.56 2.08l0.12 0 0 -0.58 0.86 -0.01 0 0.15 -0.58 1.36 -0.4 -0.93zm0.12 -0.78l0 -0.64 0.28 -0.52 0.58 1.08 0 0.08 -0.86 0.01zm0.86 0.88l-0.47 1.1 0.47 1.1 0 -2.19zm0 3.1l-1.15 0.01 0 0.29 0.57 1.16 0.58 -1.2 0 -0.26zm-1.15 -0.94l0.45 -1.06 -0.45 -1.06 0 2.12zm1.15 0.56l-0.58 -1.36 -0.57 1.32 0 0.21 1.15 -0.01 0 -0.17zm-1.15 25.88l1.15 -0.01 0 -0.16 -0.58 -1.2 -0.57 1.16 0 0.2zm1.15 0.2l-1.15 0.01 0 0.13 0.57 1.32 0.58 -1.36 0 -0.09zm-1.15 -3.61l1.15 -0.01 0 -0.21 -0.58 -1.36 -0.57 1.32 0 0.26zm1.15 0.85l-0.47 0.96 0.47 0.96 0 -1.92zm0 3.38l-0.47 1.1 0.47 1.1 0 -2.19zm-0.13 2.42l-0.46 -1.06 -0.46 1.06 0.91 0zm-1.02 -0.27l0.45 -1.06 -0.45 -1.06 0 2.12zm0 -3.65l0.45 -0.93 -0.45 -0.93 0 1.85zm0 -3.52l0.45 -1.06 -0.45 -1.06 0 2.12zm0 -3.65l0.45 -0.93 -0.45 -0.93 0 1.85zm0 -2.33l0.57 1.16 0.58 -1.2 0 -0.37 -1.15 0.01 0 0.4zm1.15 0.44l-0.47 0.96 0.47 0.96 0 -1.92zm0 3.38l-0.47 1.1 0.47 1.1 0 -2.19zm0 3.14l-1.15 0.01 0 0.2 0.57 1.16 0.58 -1.2 0 -0.17zm-1.15 -3.94l1.15 -0.01 0 -0.18 -0.58 -1.2 -0.57 1.16 0 0.22zm1.15 0.2l-1.15 0.01 0 0.1 0.57 1.32 0.58 -1.36 0 -0.07zm-1.15 -3.83l1.15 -0.01 0 -0.46 -0.58 -1.36 -0.57 1.32 0 0.5zm0 -3.98l1.15 -0.01 0 -0.18 -0.58 -1.2 -0.57 1.16 0 0.22zm1.15 0.2l-1.15 0.01 0 0.1 0.57 1.32 0.58 -1.36 0 -0.07zm-1.15 -3.76l1.15 -0.01 0 -0.34 -0.58 -1.36 -0.57 1.32 0 0.39zm1.15 0.2l-1.15 0.01 0 0.33 0.57 1.16 0.58 -1.2 0 -0.31zm-1.15 -4.14l1.15 -0.01 0 -0.11 -0.58 -1.2 -0.57 1.16 0 0.16zm1.15 0.2l-1.15 0.01 0 0.17 0.57 1.32 0.58 -1.36 0 -0.14zm0 -2.72l-0.47 0.96 0.47 0.96 0 -1.92zm0 3.38l-0.47 1.1 0.47 1.1 0 -2.19zm-1.15 2.16l0.45 -1.06 -0.45 -1.06 0 2.12zm0 -3.65l0.45 -0.93 -0.45 -0.93 0 1.85zm1.15 5.55l-0.47 0.96 0.47 0.96 0 -1.92zm0 3.38l-0.47 1.1 0.47 1.1 0 -2.19zm-1.15 2.16l0.45 -1.06 -0.45 -1.06 0 2.12zm0 -3.65l0.45 -0.93 -0.45 -0.93 0 1.85zm1.55 9.91l0 6.53 1.91 0 0 -6.53 -1.91 0zm0 6.92l0 1.86 1.91 0 0 -1.86 -1.91 0zm2.3 1.86l0.51 0 0 -1.86 -0.51 0 0 1.86zm0.91 0l0.71 0 0 -1.86 -0.71 0 0 1.86zm1.11 0l0.39 0 0 -1.86 -0.39 0 0 1.86zm-4.1 1.5l2.65 0 0 1.86 -2.65 0 0 -1.86zm-3.41 2.79l2.65 0 0 1.92 -2.65 0 0 -1.92zm7.89 -13.07l0 6.53 -0.39 0 0 -6.53 0.39 0zm3.22 -3.19l-2.63 0 0 1.95 2.63 0 0 -1.95zm0 3.78l-2.61 0 0 1.9 2.61 0 0 -1.9zm-0.02 3.58l-2.57 0 0 1.84 2.57 0 0 -1.84zm-5.6 2.35l0.51 0 0 -6.53 -0.51 0 0 6.53zm0.91 0l0.71 0 0 -6.53 -0.71 0 0 6.53zm-32.54 -34.59l0.01 1.15 0.37 0 1.5 -0.57 -1.55 -0.58 -0.34 0zm0.95 0l1.24 0.47 1.24 -0.47 -2.48 0zm4.36 0l1.42 0.47 1.42 -0.47 -2.83 0zm3.51 0l-1.76 0.58 1.71 0.57 0.5 0 -0.01 -1.15 -0.45 0zm0.71 0l0.01 1.15 0.43 0 1.5 -0.57 -1.55 -0.58 -0.4 0zm1.01 0l1.24 0.47 1.24 -0.47 -2.48 0zm4.36 0l1.42 0.47 1.42 -0.47 -2.83 0zm3.51 0l-1.76 0.58 1.71 0.57 0.65 0 -0.01 -1.15 -0.59 0zm0.85 0l0.01 1.15 0.51 0 1.5 -0.57 -1.55 -0.58 -0.48 0zm1.09 0l1.24 0.47 1.24 -0.47 -2.48 0zm12.94 0l-0.12 0 0.01 1.15 0.16 0 1.71 -0.57 -1.76 -0.58zm-0.39 0l-0.21 0 -1.55 0.58 1.5 0.57 0.26 0 -0.01 -1.15zm-9.22 0l-0.23 0 -1.55 0.58 1.5 0.57 0.29 0 -0.01 -1.15zm-9.46 0l-0.09 0 0.01 1.15 0.13 0 1.71 -0.57 -1.76 -0.58zm-0.36 0l-0.23 0 -1.55 0.58 1.5 0.57 0.29 0 -0.01 -1.15zm-9.24 0l-0.18 0 0.01 1.15 0.22 0 1.71 -0.57 -1.76 -0.58zm-0.45 0l-0.15 0 -1.55 0.58 1.5 0.57 0.2 0 -0.01 -1.15zm-4.45 0l-0.22 0 -1.76 0.58 1.71 0.57 0.28 0 -0.01 -1.15zm-0.95 1.15l-1.37 -0.45 -1.37 0.45 2.73 0zm2.21 0l2.39 0 -1.2 -0.45 -1.2 0.45zm4.37 0l2.73 0 -1.37 -0.45 -1.37 0.45zm5.23 0l2.39 0 -1.2 -0.45 -1.2 0.45zm4.37 0l2.73 0 -1.37 -0.45 -1.37 0.45zm5.45 0l2.39 0 -1.2 -0.45 -1.2 0.45z"/>
   <path class="fil1" d="M64.68 103.53c-4.31,2.53 -10.33,4.7 -18.88,4.85l0 -47.15 14.39 0 0 9.52 0.94 0 0 -19.73 0.97 0 0 19.73 1.72 0 0 -19.73 0.97 0 0 19.73 1.24 0 0 -19.73 0.97 0 0 19.73 4.38 0 0 0.97 -4.38 0 0 15.86 2.35 0 0 0.97 -2.35 0 0 4.52 2.35 0 0 3.66 -4.7 0 0 4.52 0.04 0 0 2.29zm1.35 -10.46l-1.24 0 0 -4.52 1.24 0 0 4.52zm-2.2 0l-1.72 0 0 -4.52 1.72 0 0 4.52zm-2.69 0l-0.94 0 0 -4.52 0.94 0 0 4.52zm-0.94 -21.35l0 15.86 0.94 0 0 -15.86 -0.94 0zm-7.82 -7.74l6.4 0 0 4.73 -6.4 0 0 -4.73zm0 9.19l6.34 0 0 4.62 -6.34 0 0 -4.62zm0.05 8.71l6.24 0 0 4.46 -6.24 0 0 -4.46zm13.6 5.7l-1.24 0 0 -15.86 1.24 0 0 15.86zm-2.2 0l-1.72 0 0 -15.86 1.72 0 0 15.86z"/>
   <rect class="fil1" x="53.7" y="47.79" width="8.41" height="1.37"/>
   <rect class="fil1" x="54.75" y="46.59" width="8.02" height="1.37"/>
   <rect class="fil1" x="58.33" y="41.43" width="3.02" height="5.17"/>
   <g>
    <path class="fil4" d="M35.97 88.62c0,0 -0.48,-0.68 0.06,-3.61 0.54,-2.94 1.86,-6.49 0.9,-11.21 -0.96,-4.72 -1.81,-6.58 -4.63,-11.38 -2.82,-4.8 -7.4,-5.53 -12.59,-5.48 -5.2,0.06 -12.56,0.37 -15.87,3.67 -3.3,3.3 -4.18,9.66 -3.73,14.17 0.45,4.52 1.86,10.73 1.86,10.73 0,0 -0.68,0.73 -0.73,2.2 -0.06,1.47 -0.06,2.48 5.59,7 5.65,4.52 12.23,8.13 12.23,8.13 0,0 1.36,1.13 3.56,0.42 2.2,-0.71 9.43,-2.54 9.43,-2.54l2.51 -0.68c0,0 0.42,-0.06 0.56,-1.41 0.14,-1.36 1.24,-8.24 1.24,-8.24 0,0 0.11,-1.04 -0.4,-1.78z"/>
    <path class="fil5" d="M36.46 82.98c0.57,-2.53 1.22,-5.5 0.47,-9.18 -0.96,-4.72 -1.81,-6.58 -4.63,-11.38 -0.62,-1.05 -1.32,-1.91 -2.1,-2.61 -1.81,-0.26 -4.68,-0.27 -9.31,0.18 -8.72,0.85 -7.48,1.21 -10.42,2.85 -2.94,1.64 -2.32,-1.36 -6.44,-0.28 -1.91,0.5 -3.11,3.04 -3.74,6.12 -0.33,2.12 -0.37,4.26 -0.18,6.1 0.28,2.77 0.91,6.17 1.37,8.39 0.97,2.44 2.06,3.93 3.07,5.14 1.47,1.75 4.18,4.18 6.61,4.52 2.43,0.34 3.5,-2.54 4.35,-4.52 0.85,-1.98 3.16,-2.03 6.72,-2.65 2.83,-0.49 11,-2.06 14.24,-2.68z"/>
    <path class="fil6" d="M26.96 62.28c0,0 -2.54,0 -4.83,0.42 -2.29,0.42 -2.85,0.76 -2.85,0.76 0,0 -0.85,0.2 -0.28,1.33 0.56,1.13 2.03,3.5 3.13,8.27 1.1,4.77 1.05,5.81 1.09,6.07 0.04,0.26 -0.01,1.13 2.7,0.68 2.71,-0.45 5.25,-0.82 6.41,-1.09 1.16,-0.27 1.35,-1.27 1.27,-2.55 -0.26,-4.03 -1.56,-8.85 -3.63,-12.37 -0.73,-1.25 -1,-1.52 -3.01,-1.52z"/>
    <path class="fil7" d="M30.58 69.18c0,0 -3.28,0.28 -5.65,0.62 -0.91,0.13 -1.49,0.21 -1.87,0.26 -1.01,0.13 -1.37,0.15 -0.99,1.55 0.44,1.61 1.19,4.79 1.3,6.21 0.13,1.78 0.3,2.36 2.54,1.99 1.8,-0.29 6.27,-0.89 7.12,-1.14 0.85,-0.25 1.02,-0.82 1.07,-1.72 0.06,-0.9 -0.51,-4.36 -0.96,-5.77 -0.5,-1.55 -0.35,-2.25 -2.57,-1.99z"/>
    <path class="fil0" d="M31.05 69.54c0,0 -2.78,0.24 -4.79,0.53 -0.77,0.11 -1.26,0.18 -1.58,0.22 -0.86,0.11 -1.16,0.13 -0.84,1.31 0.37,1.37 1.01,4.06 1.1,5.27 0.11,1.51 0.25,2 2.16,1.69 1.53,-0.25 5.32,-0.75 6.04,-0.97 0.72,-0.22 0.86,-0.69 0.91,-1.46 0.05,-0.77 -0.43,-3.7 -0.81,-4.9 -0.42,-1.32 -0.3,-1.91 -2.18,-1.69z"/>
    <path class="fil8" d="M31.05 69.54c0,0 -2.78,0.24 -4.79,0.53 -0.77,0.11 -1.26,0.18 -1.58,0.22 -0.86,0.11 -1.16,0.13 -0.84,1.31 0.3,1.11 0.78,3.08 1,4.44l0 0.01 0 0.01c0.09,0.44 0.25,-0.43 0.02,-2.52 -0.24,-2.12 0.71,-2.81 3.16,-3.23 1.98,-0.34 3.47,-0.68 3.98,-0.8 -0.24,-0.02 -0.55,-0.01 -0.95,0.03z"/>
    <path class="fil9" d="M30.29 59.89c-2.77,-2.55 -6.48,-3 -10.58,-2.95 -4.69,0.05 -11.16,0.31 -14.8,2.8 2.38,-0.77 4.75,-0.85 6.12,-0.34 3.01,1.12 6.49,-1.84 12.31,-1.27 5.18,0.5 6.69,1.54 6.96,1.77z"/>
    <path class="fil10" d="M11.56 62.19c-0.3,0.19 -0.64,0.41 -1.08,0.65 -0.62,0.35 -1.09,0.49 -1.47,0.5 6.1,4.23 9.01,25.01 3.06,29.46 1.8,-0.39 2.71,-2.78 3.44,-4.49 0.54,-1.26 1.67,-1.74 3.35,-2.08 0.78,-7.51 -0.49,-19.78 -7.29,-24.04z"/>
    <path class="fil11" d="M10.04 72.53c0,0 -1.75,-0.56 -4.35,-2.03 -2.6,-1.47 -3.05,-2.09 -3.05,-2.09 0,0 -2.99,-0.18 -2.34,2.57 0.65,2.75 2.62,11.54 3.05,13.23 0.42,1.69 -0.2,2.31 -0.62,2.63 -0.42,0.31 -1.46,0.61 -1.46,0.61 0,0 0.87,0.94 2.59,2.24 1.72,1.3 2.88,1.5 2.88,1.5 0,0 1.07,-0.42 2.26,-1.19 1.19,-0.76 1.44,-1.27 1.16,-3.16 -0.28,-1.89 -0.11,-14.3 -0.11,-14.3z"/>
    <path class="fil3" d="M10.24 87.6c-0.02,-0.23 -0.05,-0.49 -0.09,-0.78 -0.27,-1.82 -0.12,-13.35 -0.11,-14.24 -1.22,-0.3 -2.95,0.12 -2.23,2.67 0.68,2.41 1.84,8.34 2.44,12.35z"/>
    <path class="fil12" d="M14.69 100.25c2.55,1.61 4.37,2.61 4.37,2.61 0,0 1.36,1.13 3.56,0.42 2.2,-0.71 9.43,-2.54 9.43,-2.54l2.51 -0.68c0,0 0.42,-0.06 0.56,-1.41 0.07,-0.69 0.39,-2.83 0.69,-4.75 -0.46,0.04 -0.95,0.08 -1.47,0.14 0,0 -4.12,0.96 -7.96,1.52 -3.84,0.56 -4.86,0.51 -4.86,0.51 0,0 -0.51,5.7 -0.51,6.21 0,0.51 -0.18,1.25 -6.32,-2.03z"/>
    <path class="fil6" d="M34.73 94.66l-0.45 0.04c0,0 -4.12,0.96 -7.96,1.52 -3.84,0.56 -4.57,0.52 -4.57,0.52 0,0 -0.08,0.94 -0.22,2.53 2.86,0.2 11.42,-1.63 12.85,-2.51l0.35 -2.11z"/>
    <path class="fil11" d="M34.48 96.13c-4.19,1.22 -10.56,1.93 -12.28,1.99 20.53,11.25 20.37,10.13 39.97,22.95 3.76,1.79 11.54,-3.04 11.63,-5.48l-39.32 -19.46z"/>
    <path class="fil13" d="M72.7 114.73l1.86 0.9 -3.21 9.1 -9.66 3.9 1.2 -6.97 -2.19 -1.57c0,0 6.99,1.6 12,-5.35z"/>
    <path class="fil14" d="M72.75 114.67l1.86 0.9c0,0 -3.05,6.78 -11.68,6.07l0.01 -0.05 -2.19 -1.57c0,0 6.99,1.6 12,-5.35z"/>
   </g>
   <path class="fil11" d="M11.92 64.18c0,0 2.46,3.68 3.82,9.48 1.36,5.8 1.16,8.46 1.16,8.46 0,0 0.76,-14.08 -4.98,-17.94z"/>
  </g>
 </g>
</svg>
