<?xml version="1.0" encoding="UTF-8"?>
<!DOCTYPE svg PUBLIC "-//W3C//DTD SVG 1.1//EN" "http://www.w3.org/Graphics/SVG/1.1/DTD/svg11.dtd">
<!-- Creator: CorelDRAW 2020 (64-Bit) -->
<svg xmlns="http://www.w3.org/2000/svg" xml:space="preserve" width="65.4712mm" height="82.0685mm" version="1.1" style="shape-rendering:geometricPrecision; text-rendering:geometricPrecision; image-rendering:optimizeQuality; fill-rule:evenodd; clip-rule:evenodd"
viewBox="0 0 139.34 174.66"
 xmlns:xlink="http://www.w3.org/1999/xlink"
 xmlns:xodm="http://www.corel.com/coreldraw/odm/2003">
 <defs>
  <style type="text/css">
   <![CDATA[
    .fil4 {fill:#FEFEFE}
    .fil3 {fill:#EFB46C}
    .fil6 {fill:#63565A}
    .fil7 {fill:#959F9F}
    .fil5 {fill:#E8B358}
    .fil8 {fill:#FF8000}
    .fil0 {fill:#FFAA00}
    .fil9 {fill:#FFB829}
    .fil11 {fill:#FFC300}
    .fil1 {fill:#FFC86A}
    .fil10 {fill:#FFD754}
    .fil2 {fill:#FFDB9C}
   ]]>
  </style>
 </defs>
 <g id="Layer_x0020_1">
  <metadata id="CorelCorpID_0Corel-Layer"/>
  <g id="_2532579973584">
   <path class="fil0" d="M117.99 59.8c14.49,3.01 23.8,17.2 20.79,31.69 -3.01,14.49 -17.2,23.8 -31.69,20.79 -1.44,-0.3 -2.83,-0.71 -4.16,-1.22 2.8,-4.15 4.86,-8.9 5.94,-14.11 2.65,-12.76 -1.16,-25.37 -9.2,-34.42 5.39,-2.96 11.82,-4.08 18.32,-2.73z"/>
   <path class="fil0" d="M76.3 41.84c24.5,5.09 40.24,29.08 35.15,53.59 -5.09,24.5 -29.08,40.24 -53.59,35.15 -24.5,-5.09 -40.24,-29.08 -35.15,-53.59 5.09,-24.5 29.08,-40.24 53.59,-35.15zm1.82 8.24c21.43,4.45 35.2,25.44 30.75,46.87 -4.45,21.43 -25.44,35.2 -46.87,30.75 -21.43,-4.45 -35.2,-25.44 -30.75,-46.87 4.45,-21.43 25.44,-35.2 46.87,-30.75z"/>
   <path class="fil0" d="M56.24 4.53c12.31,2.56 20.21,14.61 17.66,26.91 -2.56,12.31 -14.61,20.21 -26.91,17.66 -12.31,-2.56 -20.21,-14.61 -17.66,-26.91 2.56,-12.31 14.61,-20.21 26.91,-17.66zm-7.27 5.45c6.61,1.37 10.85,7.84 9.48,14.45 -1.37,6.61 -7.84,10.85 -14.45,9.48 -6.61,-1.37 -10.85,-7.84 -9.48,-14.45 1.37,-6.61 7.84,-10.85 14.44,-9.48z"/>
   <path class="fil0" d="M107.74 101.18c12.01,5.38 19.1,18.55 16.31,31.97 -3.22,15.49 -18.39,25.44 -33.88,22.22 -13.15,-2.73 -22.31,-14.08 -22.81,-26.93 18.03,1.24 34.76,-9.99 40.37,-27.26z"/>
   <path class="fil0" d="M31.37 54.45c4.39,0.91 8.3,2.88 11.5,5.59 -5.72,5.38 -9.9,12.51 -11.62,20.79 -1.75,8.41 -0.69,16.74 2.53,24.04 -4.08,1.27 -8.53,1.55 -13.01,0.62 -14.09,-2.93 -23.14,-16.72 -20.22,-30.82 2.93,-14.09 16.72,-23.14 30.82,-20.22z"/>
   <circle class="fil0" cx="95.81" cy="48.59" r="9.72"/>
   <path class="fil1" d="M94.63 74.33l-11.75 0c0,0 -4.22,-1.66 -8.44,-4.77 -4.22,-3.11 -6.6,-4.71 -8.71,-3.43 -3.94,2.39 -9.82,6.4 -16.51,10.25 0,0 1.02,4.89 5.2,4.02 4.18,-0.87 10.25,-5.83 10.25,-5.83l26.41 18.61 3.47 -1.02 0.08 -17.82z"/>
   <path class="fil1" d="M45.2 98.13l0.28 -6.18c0,0 0.47,-1.78 2.29,-1.98 1.82,-0.2 2.81,1.82 2.81,1.82 0,0 1.22,-2.69 3.44,-2.46 2.21,0.24 2.49,2.69 2.49,2.69 0,0 0.91,-2.73 3.6,-2.38 2.69,0.36 2.45,3.61 2.21,4.87 -0.24,1.27 -0.24,1.27 -0.24,1.27 0,0 1.03,-2.22 3.2,-1.82 2.17,0.4 2.37,2.61 2.21,3.68 -0.16,1.07 -0.83,4.4 -0.83,4.4l1.5 1.23c0,0 -2.73,3.37 -4.78,3.25 -2.06,-0.12 -3.12,-2.26 -3.12,-2.26 0,0 -1.34,1.23 -3.16,0.63 -1.82,-0.59 -1.98,-2.89 -1.98,-2.89 0,0 -1.3,1.74 -3.4,0.95 -2.09,-0.79 -1.9,-3.29 -1.9,-3.29 0,0 -3.36,2.26 -4.62,-1.55z"/>
   <g>
    <path class="fil2" d="M46.23 93.77c0.06,1.23 2.92,1.39 3.2,0.12 0.16,-3.81 -3.38,-3.38 -3.2,-0.12z"/>
    <path class="fil3" d="M46.24 93.88c0.22,1.13 2.91,1.25 3.19,0.01l0 -0.11c-0.3,0.38 -0.85,0.82 -1.75,0.77 -0.82,-0.05 -1.24,-0.38 -1.44,-0.67z"/>
    <path class="fil4" d="M49 91.86c-0.62,-0.96 -1.76,-0.87 -2.37,0.08 0.23,-0.22 0.58,-0.41 1.07,-0.44 0.64,-0.04 1.03,0.11 1.3,0.36z"/>
   </g>
   <g>
    <path class="fil2" d="M51.79 93.55c-0.01,1.23 2.83,1.57 3.19,0.32 0.4,-3.79 -3.16,-3.59 -3.19,-0.32z"/>
    <path class="fil3" d="M51.8 93.66c0.15,1.14 2.83,1.42 3.18,0.21l0.01 -0.11c-0.32,0.36 -0.9,0.77 -1.79,0.66 -0.82,-0.1 -1.21,-0.45 -1.4,-0.76z"/>
    <path class="fil4" d="M54.68 91.82c-0.56,-1 -1.7,-0.98 -2.37,-0.06 0.25,-0.2 0.6,-0.37 1.09,-0.37 0.64,-0 1.02,0.17 1.28,0.44z"/>
   </g>
   <g>
    <path class="fil2" d="M57.64 93.27c-0.1,1.22 2.7,1.78 3.16,0.55 0.68,-3.75 -2.89,-3.81 -3.16,-0.55z"/>
    <path class="fil3" d="M57.63 93.38c0.07,1.15 2.72,1.63 3.16,0.44l0.02 -0.1c-0.35,0.34 -0.95,0.7 -1.84,0.52 -0.81,-0.16 -1.17,-0.54 -1.34,-0.86z"/>
    <path class="fil4" d="M60.65 91.75c-0.48,-1.04 -1.63,-1.1 -2.36,-0.24 0.26,-0.19 0.63,-0.33 1.12,-0.29 0.64,0.05 1,0.24 1.24,0.53z"/>
   </g>
   <g>
    <path class="fil2" d="M63.11 96.96c-0.17,1.1 2.34,1.79 2.83,0.71 0.86,-3.36 -2.38,-3.65 -2.83,-0.71z"/>
    <path class="fil3" d="M63.1 97.06c-0.01,1.04 2.36,1.65 2.84,0.61l0.02 -0.09c-0.34,0.28 -0.91,0.57 -1.7,0.35 -0.72,-0.2 -1.03,-0.57 -1.16,-0.87z"/>
    <path class="fil4" d="M65.94 95.77c-0.37,-0.97 -1.4,-1.11 -2.13,-0.37 0.25,-0.15 0.59,-0.25 1.03,-0.19 0.57,0.08 0.89,0.29 1.09,0.56z"/>
   </g>
   <path class="fil5" d="M45.2 98.13l0.01 -0.12c0.25,0.49 0.65,0.92 1.3,1.11 2.06,0.63 3.52,-0.44 3.52,-0.44 0,0 -0.47,1.9 1.86,2.93 2.33,1.03 3.56,-0.95 3.56,-0.95 0,0 -0.16,2.3 1.78,2.93 1.94,0.63 3.52,-0.71 3.52,-0.71 0,0 -0.32,1.39 1.46,2.26 1.78,0.87 3.28,-0.63 3.28,-0.63l1.83 -8.82c0.25,0.7 0.26,1.47 0.18,1.97 -0.16,1.07 -0.83,4.4 -0.83,4.4l1.5 1.23c0,0 -2.73,3.37 -4.78,3.25 -2.06,-0.12 -3.12,-2.26 -3.12,-2.26 0,0 -1.34,1.23 -3.16,0.63 -1.82,-0.59 -1.98,-2.89 -1.98,-2.89 0,0 -1.3,1.74 -3.4,0.95 -2.09,-0.79 -1.9,-3.29 -1.9,-3.29 0,0 -3.36,2.26 -4.62,-1.55z"/>
   <path class="fil1" d="M54.75 73.06l-10.66 0.48 0 18.69c0,0 0.56,0 1.37,0.06l0.01 -0.33c0,0 0.47,-1.78 2.29,-1.98 1.82,-0.2 2.81,1.82 2.81,1.82 0,0 1.22,-2.69 3.44,-2.46 2.21,0.24 2.49,2.69 2.49,2.69 0,0 0.91,-2.73 3.6,-2.38 2.69,0.36 2.45,3.61 2.21,4.87 -0.24,1.27 -0.24,1.27 -0.24,1.27 0,0 1.03,-2.22 3.2,-1.82 2.17,0.4 2.37,2.61 2.21,3.68 -0.16,1.07 -0.83,4.4 -0.83,4.4l1.45 1.19c0.15,0.1 0.32,0.22 0.51,0.36 1.28,0.95 3.4,2.75 3.4,2.75 0,0 1.48,0.81 2.55,-0.14 1.07,-0.95 0.38,-3.17 0.38,-3.17 0,0 3.49,2.13 4.87,0.55 1.38,-1.58 -0.16,-3.53 -0.16,-3.53 0,0 4.27,3.57 6.4,1.35 2.13,-2.22 -1.11,-5.23 -1.11,-5.23 0,0 4.51,3.61 6.64,1.39 1.45,-1.51 0.44,-3.27 -0.48,-4.42l-0.04 0.01 -26.41 -18.61c0,0 -6.07,4.97 -10.25,5.83 -4.18,0.87 -5.2,-4.02 -5.2,-4.02 1.92,-1.11 3.78,-2.22 5.54,-3.31z"/>
   <path class="fil5" d="M50.73 79.31c0.8,0.84 1.98,1.44 3.68,1.09 4.18,-0.87 10.25,-5.83 10.25,-5.83l26.41 18.61 3.47 -1.02 0 -1c-4.9,0.29 -8.37,-2.37 -8.37,-2.37l-21.38 -15.21c0,0 -9.25,6.42 -11.62,6.46 -0.98,0.02 -1.81,-0.32 -2.45,-0.72z"/>
   <g>
    <path class="fil2" d="M54.64 73.13c-1.42,0.88 -2.91,1.78 -4.44,2.67 0.03,1.79 2.42,2.86 5.04,0.97 1.01,-0.72 0.44,-2.6 -0.6,-3.64z"/>
    <path class="fil3" d="M54.65 73.13l-0.31 0.19c0.26,0.23 0.5,0.52 0.72,0.9 0.62,1.12 0.54,1.92 0.33,2.43 0.82,-0.79 0.26,-2.54 -0.73,-3.53z"/>
    <path class="fil4" d="M50.49 75.64l-0.28 0.17c0.02,1.13 0.97,1.97 2.32,1.97 -0.48,-0.12 -1.01,-0.41 -1.46,-1.02 -0.3,-0.41 -0.48,-0.77 -0.58,-1.11z"/>
   </g>
   <path class="fil5" d="M68.11 103.24c0.15,0.1 0.32,0.22 0.51,0.36 1.28,0.95 3.4,2.75 3.4,2.75 0,0 1.48,0.81 2.55,-0.14 1.07,-0.95 0.38,-3.17 0.38,-3.17 0,0 3.49,2.13 4.87,0.55 1.38,-1.58 -0.16,-3.53 -0.16,-3.53 0,0 4.27,3.57 6.4,1.35 2.13,-2.22 -1.11,-5.23 -1.11,-5.23 0,0 4.51,3.61 6.64,1.39 1.45,-1.51 0.44,-3.27 -0.48,-4.42l-0.04 0.01 -1.34 -0.94c-3.71,1.91 -16.08,8.28 -21.62,11.01z"/>
   <path class="fil5" d="M75.15 104.12c-0.05,-0.6 -0.2,-1.07 -0.2,-1.07 0,0 1.43,0.87 2.82,1.09l-6.97 -5.24c-0.34,-0.26 -0.83,-0.19 -1.09,0.16 -0.26,0.34 -0.19,0.83 0.16,1.09l5.28 3.98zm5.19 -2.57c-0.17,-0.84 -0.68,-1.48 -0.68,-1.48 0,0 2.14,1.79 4.15,2.04l-9.98 -7.16c-0.35,-0.25 -0.84,-0.17 -1.09,0.18 -0.25,0.35 -0.17,0.84 0.18,1.09l7.42 5.32zm6.12 -3.28c-0.53,-1.18 -1.5,-2.09 -1.5,-2.09 0,0 2.11,1.69 4.13,2.04 -4.02,-2.9 -10.52,-7.61 -10.54,-7.63 -0.35,-0.25 -0.84,-0.18 -1.09,0.17 -0.25,0.35 -0.18,0.84 0.17,1.09 0.02,0.02 4.89,3.55 8.84,6.4z"/>
   <polygon class="fil6" points="94.63,73.54 97.94,73.54 97.94,93.17 94.63,93.17 "/>
   <polygon class="fil7" points="44.14,73.4 40.83,73.4 40.83,93.03 44.14,93.03 "/>
   <path class="fil7" d="M97.86 71.96l37.48 0c3.48,5.63 4.89,12.54 3.44,19.53 -0.36,1.74 -0.89,3.41 -1.55,4.99l-39.36 0 0 -24.52z"/>
   <path class="fil6" d="M40.91 71.82l-39.6 0c-0.3,0.92 -0.56,1.87 -0.76,2.85 -1.65,7.95 0.51,15.81 5.24,21.67l35.12 0 0 -24.52z"/>
   <path class="fil2" d="M45.44 92.74l0.04 -0.79c0,0 0.47,-1.78 2.29,-1.98 1.82,-0.2 2.81,1.82 2.81,1.82 0,0 1.22,-2.69 3.44,-2.46 2.21,0.24 2.49,2.69 2.49,2.69 0,0 0.91,-2.73 3.6,-2.38 2.65,0.35 2.46,3.51 2.22,4.82 -0.03,-1.07 -0.31,-3.76 -2.47,-4.24 -2.71,-0.59 -3.44,2.26 -3.44,2.26 0,0 -0.75,-2.56 -2.79,-2.63 -2.04,-0.08 -3.08,2.16 -3.08,2.16 0,0 -1.84,-2.18 -3.48,-1.55 -1.09,0.42 -1.49,1.56 -1.62,2.27zm17.76 1.71c0.51,-0.37 1.2,-0.64 2.08,-0.48 1.53,0.28 2.08,1.46 2.22,2.51 -0.28,-0.97 -0.89,-1.78 -2.05,-2.07 -0.96,-0.24 -1.72,-0.13 -2.25,0.04z"/>
   <path class="fil2" d="M90.12 74.33l-7.24 0c0,0 -4.22,-1.66 -8.44,-4.77 -4.22,-3.11 -6.6,-4.71 -8.71,-3.43 -2.16,1.31 -4.9,3.11 -8.04,5.09l8.36 -4.68c0,0 1.66,-0.67 3.79,0.75 2.13,1.43 6.64,4.48 9.45,6.06 2.81,1.58 4.31,1.47 4.31,1.47l6.52 -0.49z"/>
   <g>
    <path class="fil8" d="M50.66 59.42c3.07,-1.33 6.17,-1.51 8.24,-0.68 0.57,-0.1 0.99,-0.11 1.2,-0.01 0,0 1.33,1.33 1.22,3.04l-0 0c0.16,2.55 -2.46,5.64 -6.46,7.37 -4.01,1.73 -8.07,1.51 -9.8,-0.36l-0 -0c0,0 -1.53,-1.48 -1.47,-3.03 0.01,-0.25 0.39,-0.61 1.04,-1.05 0.89,-1.99 3.09,-4.01 6.04,-5.28z"/>
    <path class="fil9" d="M50 58c4.59,-1.98 9.24,-1.41 10.4,1.28 1.16,2.69 -1.62,6.47 -6.21,8.45 -4.59,1.98 -9.25,1.41 -10.4,-1.28 -1.16,-2.69 1.62,-6.47 6.21,-8.45z"/>
    <path class="fil10" d="M50.84 58.07c4.03,-1.74 8.13,-1.24 9.15,1.12 1.02,2.36 -1.43,5.69 -5.46,7.43 -4.03,1.74 -8.13,1.24 -9.15,-1.12 -1.02,-2.36 1.43,-5.69 5.46,-7.43z"/>
   </g>
   <g>
    <path class="fil8" d="M43.24 53c-0.04,0.2 -0.1,0.4 -0.17,0.6l-0 0.01c-0.03,0.1 -0.07,0.19 -0.11,0.28 -0.22,0.51 -0.53,1.01 -0.94,1.48 -2.25,2.59 -6.57,3.31 -9.63,1.61 -1.31,-0.73 -2.19,-1.78 -2.58,-2.95l-0 -0c-0.77,-1.44 -0.44,-3.81 -0.44,-3.81 3.81,-5.66 11.01,-5.21 12.88,-3.17 1.68,1.83 1.48,4.15 1,5.97z"/>
    <path class="fil9" d="M30.69 46.98c2.25,-2.59 6.56,-3.31 9.63,-1.61 3.07,1.7 3.73,5.18 1.48,7.77 -2.25,2.59 -6.56,3.31 -9.63,1.61 -3.07,-1.7 -3.73,-5.18 -1.48,-7.77z"/>
    <path class="fil10" d="M30.73 47.47c1.93,-2.23 5.64,-2.84 8.28,-1.38 2.64,1.46 3.21,4.45 1.27,6.68 -1.93,2.23 -5.64,2.84 -8.28,1.38 -2.64,-1.46 -3.21,-4.45 -1.27,-6.68z"/>
   </g>
   <g>
    <path class="fil8" d="M106.59 67.76c-0.2,0.11 -0.4,0.2 -0.61,0.29l-0.01 0c-0.1,0.04 -0.21,0.08 -0.31,0.11 -0.58,0.19 -1.21,0.29 -1.89,0.29 -3.74,0 -7.41,-3.03 -8.2,-6.77 -0.34,-1.6 -0.1,-3.07 0.59,-4.23l0 -0c0.63,-1.66 2.82,-3.08 2.82,-3.08 7.37,-0.91 12.15,5.33 11.81,8.32 -0.31,2.68 -2.35,4.18 -4.19,5.08z"/>
    <path class="fil11" d="M102.58 53.15c3.74,0 7.41,3.03 8.2,6.77 0.79,3.74 -1.59,6.77 -5.33,6.77 -3.74,0 -7.41,-3.03 -8.2,-6.77 -0.79,-3.74 1.59,-6.77 5.33,-6.77z"/>
    <path class="fil10" d="M102.19 53.53c3.21,0 6.37,2.6 7.05,5.81 0.68,3.21 -1.37,5.81 -4.58,5.81 -3.21,0 -6.37,-2.6 -7.05,-5.81 -0.68,-3.21 1.37,-5.81 4.58,-5.81z"/>
   </g>
   <g>
    <path class="fil8" d="M100.72 46.66c-0.03,0.14 -0.07,0.28 -0.12,0.42l-0 0c-0.02,0.07 -0.05,0.13 -0.08,0.2 -0.15,0.36 -0.37,0.7 -0.65,1.03 -1.57,1.8 -4.56,2.3 -6.7,1.12 -0.91,-0.51 -1.52,-1.24 -1.79,-2.05l-0 -0c-0.54,-1 -0.31,-2.65 -0.31,-2.65 2.65,-3.93 7.66,-3.62 8.95,-2.21 1.16,1.27 1.03,2.88 0.69,4.15z"/>
    <path class="fil11" d="M92 42.48c1.57,-1.8 4.56,-2.3 6.7,-1.12 2.13,1.18 2.59,3.6 1.03,5.4 -1.57,1.8 -4.56,2.3 -6.7,1.12 -2.13,-1.18 -2.59,-3.6 -1.03,-5.4z"/>
    <path class="fil10" d="M92.02 42.82c1.35,-1.55 3.92,-1.98 5.75,-0.96 1.83,1.02 2.23,3.1 0.88,4.64 -1.35,1.55 -3.92,1.98 -5.75,0.96 -1.83,-1.02 -2.23,-3.1 -0.88,-4.64z"/>
   </g>
   <g>
    <path class="fil8" d="M89.01 110.15c1.53,-0.66 3.08,-0.75 4.11,-0.34 0.28,-0.05 0.49,-0.06 0.6,-0.01 0,0 0.66,0.66 0.61,1.52l-0 0c0.08,1.27 -1.23,2.82 -3.23,3.68 -2,0.86 -4.03,0.75 -4.89,-0.18l0 0c0,0 -0.76,-0.74 -0.73,-1.51 0,-0.12 0.2,-0.31 0.52,-0.53 0.44,-0.99 1.54,-2 3.01,-2.64z"/>
    <path class="fil9" d="M88.68 109.44c2.29,-0.99 4.61,-0.7 5.19,0.64 0.58,1.34 -0.81,3.23 -3.1,4.22 -2.29,0.99 -4.61,0.7 -5.19,-0.64 -0.58,-1.34 0.81,-3.23 3.1,-4.22z"/>
    <path class="fil10" d="M89.1 109.48c2.01,-0.87 4.06,-0.62 4.57,0.56 0.51,1.18 -0.71,2.84 -2.72,3.71 -2.01,0.87 -4.06,0.62 -4.57,-0.56 -0.51,-1.18 0.71,-2.84 2.72,-3.71z"/>
   </g>
   <g>
    <path class="fil8" d="M83.46 150.51c-0.04,0.2 -0.1,0.4 -0.17,0.6l-0 0.01c-0.03,0.1 -0.07,0.19 -0.11,0.28 -0.22,0.51 -0.53,1.01 -0.94,1.48 -2.25,2.59 -6.57,3.31 -9.63,1.61 -1.31,-0.73 -2.19,-1.78 -2.58,-2.95l-0 -0c-0.77,-1.44 -0.44,-3.81 -0.44,-3.81 3.81,-5.66 11.01,-5.21 12.88,-3.17 1.68,1.83 1.48,4.15 1,5.97z"/>
    <path class="fil9" d="M70.91 144.49c2.25,-2.59 6.56,-3.31 9.63,-1.61 3.07,1.7 3.73,5.18 1.48,7.77 -2.25,2.59 -6.56,3.31 -9.63,1.61 -3.07,-1.7 -3.73,-5.18 -1.48,-7.77z"/>
    <path class="fil10" d="M70.95 144.98c1.93,-2.23 5.64,-2.84 8.28,-1.38 2.64,1.46 3.21,4.45 1.27,6.68 -1.93,2.23 -5.64,2.84 -8.28,1.38 -2.64,-1.46 -3.21,-4.45 -1.27,-6.68z"/>
   </g>
   <g>
    <path class="fil8" d="M84.12 162.11c1.9,-0.82 3.83,-0.93 5.1,-0.42 0.35,-0.06 0.61,-0.07 0.74,-0.01 0,0 0.82,0.82 0.76,1.88l0 0c0.1,1.58 -1.52,3.5 -4,4.57 -2.48,1.07 -5,0.94 -6.07,-0.22l-0 -0c0,0 -0.95,-0.92 -0.91,-1.88 0.01,-0.15 0.24,-0.38 0.64,-0.65 0.55,-1.23 1.92,-2.48 3.74,-3.27z"/>
    <path class="fil9" d="M83.71 161.23c2.84,-1.23 5.73,-0.87 6.45,0.79 0.72,1.66 -1,4.01 -3.85,5.23 -2.84,1.23 -5.73,0.87 -6.45,-0.79 -0.72,-1.66 1,-4.01 3.85,-5.23z"/>
    <path class="fil10" d="M84.23 161.28c2.5,-1.08 5.04,-0.77 5.67,0.7 0.63,1.46 -0.88,3.52 -3.38,4.6 -2.5,1.08 -5.04,0.77 -5.67,-0.7 -0.63,-1.46 0.88,-3.52 3.38,-4.6z"/>
   </g>
   <g>
    <path class="fil8" d="M98.98 149.78c2.81,1.81 4.7,4.28 5.16,6.46 0.4,0.42 0.64,0.76 0.68,0.99 0,0 -0.36,1.84 -1.84,2.71l-0 0c-2.02,1.56 -6.06,1.11 -9.72,-1.25 -3.67,-2.36 -5.76,-5.85 -5.17,-8.34l-0 -0c0,0 0.38,-2.1 1.69,-2.91 0.21,-0.13 0.73,-0.02 1.45,0.27 2.15,-0.37 5.05,0.33 7.75,2.06z"/>
    <path class="fil9" d="M99.79 148.44c4.2,2.7 6.33,6.89 4.75,9.35 -1.58,2.46 -6.27,2.26 -10.47,-0.44 -4.2,-2.7 -6.33,-6.89 -4.75,-9.35 1.58,-2.46 6.27,-2.26 10.47,0.44z"/>
    <path class="fil10" d="M100.19 149.18c3.7,2.38 5.57,6.05 4.18,8.22 -1.39,2.16 -5.51,1.99 -9.21,-0.38 -3.7,-2.38 -5.57,-6.05 -4.18,-8.22 1.39,-2.16 5.51,-1.99 9.21,0.38z"/>
   </g>
   <g>
    <path class="fil8" d="M53.71 43.99c-0.2,0.11 -0.4,0.2 -0.61,0.29l-0.01 0c-0.1,0.04 -0.21,0.08 -0.31,0.11 -0.58,0.19 -1.21,0.28 -1.89,0.28 -3.74,0 -7.41,-3.03 -8.2,-6.77 -0.34,-1.6 -0.1,-3.07 0.59,-4.23l0 -0c0.63,-1.66 2.82,-3.08 2.82,-3.08 7.37,-0.91 12.15,5.33 11.81,8.32 -0.31,2.68 -2.35,4.18 -4.19,5.08z"/>
    <path class="fil11" d="M49.69 29.38c3.74,0 7.41,3.03 8.2,6.77 0.79,3.74 -1.59,6.77 -5.33,6.77 -3.74,0 -7.41,-3.03 -8.2,-6.77 -0.79,-3.74 1.59,-6.77 5.33,-6.77z"/>
    <path class="fil10" d="M49.31 29.76c3.21,0 6.37,2.6 7.05,5.81 0.68,3.21 -1.37,5.81 -4.58,5.81 -3.21,0 -6.37,-2.6 -7.05,-5.81 -0.68,-3.21 1.37,-5.81 4.58,-5.81z"/>
   </g>
   <g>
    <path class="fil8" d="M47.83 22.9c-0.03,0.14 -0.07,0.28 -0.12,0.42l-0 0c-0.02,0.07 -0.05,0.13 -0.08,0.2 -0.15,0.36 -0.37,0.7 -0.65,1.03 -1.57,1.8 -4.56,2.3 -6.7,1.12 -0.91,-0.51 -1.52,-1.24 -1.79,-2.05l-0 -0c-0.54,-1 -0.31,-2.65 -0.31,-2.65 2.65,-3.93 7.66,-3.62 8.95,-2.21 1.16,1.27 1.03,2.88 0.69,4.15z"/>
    <path class="fil11" d="M39.11 18.71c1.57,-1.8 4.56,-2.3 6.7,-1.12 2.13,1.18 2.59,3.6 1.03,5.4 -1.57,1.8 -4.56,2.3 -6.7,1.12 -2.13,-1.18 -2.59,-3.6 -1.03,-5.4z"/>
    <path class="fil10" d="M39.14 19.06c1.35,-1.55 3.92,-1.98 5.75,-0.96 1.83,1.02 2.23,3.1 0.88,4.64 -1.35,1.55 -3.92,1.98 -5.75,0.96 -1.83,-1.02 -2.23,-3.1 -0.88,-4.64z"/>
   </g>
   <g>
    <path class="fil8" d="M56.94 16c1.25,-0.54 2.51,-0.61 3.34,-0.27 0.23,-0.04 0.4,-0.04 0.49,-0 0,0 0.54,0.54 0.49,1.23l-0 0c0.07,1.03 -1,2.29 -2.62,2.99 -1.63,0.7 -3.27,0.61 -3.98,-0.15l0 0c0,0 -0.62,-0.6 -0.6,-1.23 0,-0.1 0.16,-0.25 0.42,-0.43 0.36,-0.81 1.25,-1.63 2.45,-2.14z"/>
    <path class="fil11" d="M56.67 15.42c1.86,-0.8 3.75,-0.57 4.22,0.52 0.47,1.09 -0.66,2.62 -2.52,3.43 -1.86,0.8 -3.75,0.57 -4.22,-0.52 -0.47,-1.09 0.66,-2.62 2.52,-3.43z"/>
    <path class="fil10" d="M57.02 15.46c1.64,-0.71 3.3,-0.5 3.71,0.46 0.41,0.96 -0.58,2.31 -2.22,3.01 -1.64,0.71 -3.3,0.5 -3.71,-0.46 -0.41,-0.96 0.58,-2.31 2.22,-3.01z"/>
   </g>
   <g>
    <path class="fil8" d="M54.75 11.65c-0.07,0.12 -0.16,0.24 -0.25,0.35l-0 0c-0.04,0.06 -0.09,0.11 -0.14,0.16 -0.26,0.29 -0.58,0.54 -0.95,0.76 -2.07,1.19 -5.07,0.69 -6.7,-1.12 -0.7,-0.78 -1.03,-1.67 -1.03,-2.53l-0 -0c-0.18,-1.12 0.57,-2.61 0.57,-2.61 3.79,-2.86 8.42,-0.94 9.19,0.83 0.69,1.58 0.03,3.06 -0.69,4.15z"/>
    <path class="fil11" d="M47.87 4.86c2.07,-1.19 5.06,-0.69 6.7,1.12 1.63,1.81 1.28,4.25 -0.79,5.44 -2.07,1.19 -5.07,0.69 -6.7,-1.12 -1.63,-1.81 -1.28,-4.25 0.79,-5.44z"/>
    <path class="fil10" d="M47.78 5.19c1.78,-1.03 4.35,-0.59 5.75,0.96 1.4,1.56 1.1,3.65 -0.68,4.68 -1.78,1.03 -4.35,0.59 -5.75,-0.96 -1.4,-1.56 -1.1,-3.65 0.68,-4.68z"/>
   </g>
   <g>
    <path class="fil8" d="M42.59 3.73c-0.02,0.09 -0.04,0.17 -0.08,0.26l-0 0c-0.01,0.04 -0.03,0.08 -0.05,0.12 -0.1,0.22 -0.23,0.44 -0.41,0.65 -0.98,1.13 -2.86,1.44 -4.2,0.7 -0.57,-0.32 -0.95,-0.78 -1.12,-1.29l-0 -0c-0.34,-0.63 -0.19,-1.66 -0.19,-1.66 1.66,-2.47 4.8,-2.27 5.62,-1.38 0.73,0.8 0.65,1.81 0.44,2.6z"/>
    <path class="fil11" d="M37.12 1.1c0.98,-1.13 2.86,-1.44 4.2,-0.7 1.34,0.74 1.63,2.26 0.64,3.39 -0.98,1.13 -2.86,1.44 -4.2,0.7 -1.34,-0.74 -1.63,-2.26 -0.64,-3.39z"/>
    <path class="fil10" d="M37.14 1.32c0.84,-0.97 2.46,-1.24 3.61,-0.6 1.15,0.64 1.4,1.94 0.55,2.91 -0.84,0.97 -2.46,1.24 -3.61,0.6 -1.15,-0.64 -1.4,-1.94 -0.55,-2.91z"/>
   </g>
   <g>
    <path class="fil8" d="M120.09 158.89c1.53,-0.66 3.08,-0.75 4.11,-0.34 0.28,-0.05 0.49,-0.06 0.6,-0.01 0,0 0.66,0.66 0.61,1.52l-0 0c0.08,1.27 -1.23,2.82 -3.23,3.68 -2,0.86 -4.03,0.75 -4.89,-0.18l0 0c0,0 -0.76,-0.74 -0.73,-1.51 0,-0.12 0.2,-0.31 0.52,-0.53 0.44,-0.99 1.54,-2 3.01,-2.64z"/>
    <path class="fil9" d="M119.76 158.18c2.29,-0.99 4.61,-0.7 5.19,0.64 0.58,1.34 -0.81,3.23 -3.1,4.22 -2.29,0.99 -4.61,0.7 -5.19,-0.64 -0.58,-1.34 0.81,-3.23 3.1,-4.22z"/>
    <path class="fil10" d="M120.18 158.22c2.01,-0.87 4.06,-0.62 4.57,0.56 0.51,1.18 -0.71,2.84 -2.72,3.71 -2.01,0.87 -4.06,0.62 -4.57,-0.56 -0.51,-1.18 0.71,-2.84 2.72,-3.71z"/>
   </g>
   <g>
    <path class="fil8" d="M107.66 174.12c-0.16,0.09 -0.32,0.16 -0.49,0.23l-0.01 0c-0.08,0.04 -0.16,0.06 -0.25,0.09 -0.46,0.15 -0.97,0.23 -1.51,0.23 -2.99,0 -5.92,-2.42 -6.55,-5.41 -0.27,-1.28 -0.08,-2.45 0.47,-3.38l0 -0c0.5,-1.33 2.25,-2.46 2.25,-2.46 5.89,-0.73 9.71,4.25 9.43,6.64 -0.24,2.14 -1.88,3.34 -3.35,4.06z"/>
    <path class="fil11" d="M104.45 162.45c2.99,0 5.92,2.42 6.55,5.41 0.63,2.99 -1.27,5.41 -4.26,5.41 -2.99,0 -5.92,-2.42 -6.55,-5.41 -0.63,-2.99 1.27,-5.41 4.26,-5.41z"/>
    <path class="fil10" d="M104.15 162.75c2.56,0 5.09,2.08 5.63,4.64 0.54,2.57 -1.09,4.64 -3.66,4.64 -2.57,0 -5.09,-2.08 -5.63,-4.64 -0.54,-2.57 1.09,-4.64 3.66,-4.64z"/>
   </g>
  </g>
 </g>
</svg>
