<?xml version="1.0" encoding="UTF-8"?>
<!DOCTYPE svg PUBLIC "-//W3C//DTD SVG 1.1//EN" "http://www.w3.org/Graphics/SVG/1.1/DTD/svg11.dtd">
<!-- Creator: CorelDRAW 2020 (64-Bit) -->
<svg xmlns="http://www.w3.org/2000/svg" xml:space="preserve" width="53.6705mm" height="80.4106mm" version="1.1" style="shape-rendering:geometricPrecision; text-rendering:geometricPrecision; image-rendering:optimizeQuality; fill-rule:evenodd; clip-rule:evenodd"
viewBox="0 0 85.3 127.8"
 xmlns:xlink="http://www.w3.org/1999/xlink"
 xmlns:xodm="http://www.corel.com/coreldraw/odm/2003">
 <defs>
  <style type="text/css">
   <![CDATA[
    .fil16 {fill:none}
    .fil2 {fill:#FEFEFE}
    .fil8 {fill:#EFB46C}
    .fil11 {fill:#323232}
    .fil20 {fill:black}
    .fil13 {fill:#231F20}
    .fil10 {fill:#333333}
    .fil21 {fill:#40393B}
    .fil19 {fill:#4C4C4C}
    .fil22 {fill:#5E5457}
    .fil18 {fill:#666666}
    .fil1 {fill:#959F9F}
    .fil5 {fill:#D9DCDC}
    .fil6 {fill:#DBA240}
    .fil14 {fill:#DBA33F}
    .fil15 {fill:#E8AF4C}
    .fil7 {fill:#EFEFEB}
    .fil0 {fill:#FFAA00}
    .fil3 {fill:#FFC86A}
    .fil9 {fill:#FFDB9C}
    .fil17 {fill:white}
    .fil12 {fill:white}
    .fil4 {fill:#D9DCDC;fill-rule:nonzero}
   ]]>
  </style>
 </defs>
 <g id="Layer_x0020_1">
  <metadata id="CorelCorpID_0Corel-Layer"/>
  <path class="fil0" d="M26.83 6.41c16.76,-5.11 34.48,4.34 39.58,21.09 1.71,5.6 1.79,11.32 0.51,16.63 -0.89,0.02 -1.76,0.1 -2.62,0.22 0.41,-1.75 0.63,-3.57 0.63,-5.45 0,-13.06 -10.59,-23.64 -23.64,-23.64 -13.06,0 -23.64,10.59 -23.64,23.64 0,13.06 10.59,23.64 23.64,23.64 1.61,0 3.19,-0.16 4.72,-0.47 -0.22,1.26 -0.34,2.55 -0.34,3.87 0,0.34 0.01,0.68 0.02,1.02 -0.12,0.04 -0.25,0.08 -0.37,0.12 -16.76,5.11 -34.48,-4.34 -39.58,-21.09 -5.11,-16.76 4.34,-34.48 21.09,-39.58z"/>
  <path class="fil0" d="M12.19 30.07c2.48,-0.76 5.01,-0.92 7.42,-0.58 -1.26,2.89 -1.96,6.08 -1.96,9.43 0,8.53 4.52,16.01 11.3,20.17 -1.86,1.74 -4.13,3.09 -6.74,3.89 -9.09,2.77 -18.7,-2.35 -21.47,-11.44 -2.77,-9.09 2.35,-18.7 11.44,-21.47z"/>
  <path class="fil0" d="M81.65 82.57c0.64,2.57 0.99,5.27 0.99,8.04 0,15.21 -10.27,28.03 -24.26,31.88 -0.32,-11.97 -10.12,-21.57 -22.16,-21.57 -5.95,0 -11.35,2.34 -15.33,6.15 -2.79,-4.85 -4.39,-10.47 -4.39,-16.47 0,-17.51 13.61,-31.84 30.82,-32.99 -1.06,2.57 -1.65,5.39 -1.65,8.34 0,12.05 9.77,21.83 21.83,21.83 5.4,0 10.34,-1.96 14.16,-5.21z"/>
  <g id="_2532584483280">
   <path class="fil1" d="M10.6 44.02l6.76 -4.87 0.07 -0.01c0.53,0.93 3.75,7.93 5.02,12.29 1.26,4.36 2.49,9.88 2.93,11.53 -4.57,0.83 -11.6,2.02 -17.98,-2.23 -1.83,-6.15 0.52,-15.78 2.71,-16.51 0.17,-0.06 0.34,-0.09 0.49,-0.1l0.01 -0.09zm20.03 -0.47c0.66,1.34 2.64,10.21 3.41,16.45 -1.56,0.74 -3.7,1.53 -4.91,1.9 -1.21,0.37 -1.41,0.41 -2.12,0.58 -0.01,-2.57 -1.17,-11.35 -1.24,-13.78 -0.2,-6.55 -0.89,-8.54 -0.89,-8.54l-0.01 -0.02c2.57,1.01 5.53,2.29 5.53,2.29 0,0 0.09,0.41 0.24,1.12z"/>
   <path class="fil2" d="M19.51 37.22l-2.18 1.74c0,0 2.93,4.92 5.11,12.46 0.57,1.99 1.08,3.84 1.52,5.48 0.64,-0.12 1.28,-0.25 1.92,-0.4 -0.01,-2.57 -0.04,-5.38 -0.12,-7.81 -0.2,-6.55 -0.89,-8.54 -0.89,-8.54l-1.24 -2.13 -0.02 -0 -0.77 3.33c0,0 0,0 -0.55,-0.84 -0.35,-0.54 -1.57,-2.14 -2.39,-3.2l-0.39 -0.08z"/>
   <path class="fil0" d="M22.89 41.64l-1.89 1.44 2.04 2.43 0.3 8.84c0,0 0.3,1.02 0.71,2.54 0.63,-0.12 1.26,-0.25 1.89,-0.4l0.03 -1.64c0,0 -0.79,-3.72 -1.54,-6.55 -0.74,-2.83 -0.89,-3.03 -0.89,-3.03l0.74 -2.28 -1.39 -1.34z"/>
   <path class="fil3" d="M30.43 18.83c0,0 1.6,3.03 1.91,4.25 0.31,1.22 -0.06,2.43 0.26,2.94 0.32,0.51 2.19,2.94 2.39,3.26 0.2,0.33 0.28,0.4 -0.52,1.06 -0.79,0.66 -1.87,0.7 -1.87,0.7 0,0 0.35,1.55 -2.35,4.62 -2.7,3.07 -3.88,3.19 -3.88,3.19 0,0 -1.02,-0.21 -2.26,-0.94 -0.22,-0.13 -0.43,-0.26 -0.63,-0.39 0.02,0.25 0.04,0.51 0.08,0.77l-0.71 3.05c0,0 0,0 -0.55,-0.84 -0.35,-0.54 -1.57,-2.14 -2.39,-3.2l-0.08 -0.02c0,0 0.25,-1.03 0.24,-2.7 -0.41,-0.52 -0.7,-0.98 -0.94,-1.37 0.89,-1.63 1.17,-3 1.17,-3 0,0 -2.72,-1.13 -1.82,-2.91 0.9,-1.79 2.03,-1.34 3.59,-0.47 1.56,0.87 2.31,2.07 2.31,2.07l1.02 0.05c0,0 1.73,-3.26 0.76,-5.44 -0.97,-2.19 -1.08,-5.08 4.27,-4.68z"/>
   <path class="fil1" d="M19.16 33.15c-0.62,-1.23 -1.86,-3.59 -3.24,-5.61 -1.96,-2.89 -3.35,-4.18 -3.35,-4.18 0,0 -1.1,-5.6 4.7,-7.15 5.8,-1.56 11.49,-2.07 13.98,-3.13 2.48,-1.06 -0.75,-2.12 -0.75,-2.12 0,0 2.03,-0.33 3.48,2.41 1.33,2.52 -0.47,5.67 -3.11,6.33 -0.26,-0.51 -0.44,-0.86 -0.44,-0.86 -5.36,-0.4 -5.25,2.49 -4.27,4.68 0.97,2.19 -0.76,5.44 -0.76,5.44l-1.02 -0.05c0,0 -0.75,-1.2 -2.31,-2.07 -1.56,-0.87 -2.69,-1.31 -3.59,0.47 -0.9,1.79 1.82,2.91 1.82,2.91 0,0 -0.27,1.34 -1.14,2.94z"/>
  </g>
  <g id="_2532584489040">
   <path class="fil1" d="M50.65 42.36c2.91,-0.94 7.37,-6.67 12.58,-4.53 1.54,0.95 5.69,2.13 8.18,3.01 2.49,0.88 2.49,0.8 2.78,1.32 0.06,0.1 0.26,1.35 0.55,3.21 -2.27,-0.8 -4.7,-1.23 -7.24,-1.23 -7.8,0 -14.65,4.1 -18.51,10.26 -0.05,-3.73 -0.1,-7.53 0.33,-9.27 0.06,-1.02 0.26,-2.23 1.33,-2.68l0.01 -0.08z"/>
   <path class="fil2" d="M56.38 39.56l2.43 -3.38c0,0 0.89,-0.79 1.74,-0.15 0.84,0.65 2.93,2.68 2.93,2.68 0,0 -1.2,2.37 -2.62,6.44 -1.85,0.59 -3.59,1.42 -5.2,2.45 0.18,-2.64 0.41,-5.37 0.71,-8.05z"/>
   <path class="fil0" d="M57.09 46.76l0.73 -2.04 -0.55 -2.33 1.44 -1.19 1.69 1.14 -1.94 2.33 -0.05 1.43c-0.45,0.21 -0.89,0.43 -1.33,0.66z"/>
   <path class="fil3" d="M59.36 33.6l0.99 3.18c0,0 -0.1,0.84 -0.79,2.28 -0.7,1.44 -0.94,1.44 -0.94,1.44 0,0 -0.15,-1.59 -0.35,-2.43 -0.2,-0.84 -1.14,-2.09 -1.14,-3.18 0,-1.09 1.69,-1.79 2.23,-1.29z"/>
   <path class="fil1" d="M48.74 20.66c-0.17,-0.35 -1.16,-1.1 -2.39,-3.44 -1.22,-2.34 3.58,-4.49 8.79,-4.83 7.04,-0.46 10.31,1.05 12.63,2.02 0.02,8.12 -4.28,13.9 -6.12,16.92 -0.65,-1.4 -1.23,-2.86 -1.23,-2.86 0,0 1.18,-0.53 0.82,-2.02 -0.36,-1.49 -1.49,-1.94 -2.14,-1.79 -0.65,0.15 -1.41,1.12 -1.41,1.12l-1.39 1.65c0,0 0.05,-0.99 -0.84,-2.52 -0.89,-1.53 -1.89,-1.84 -1.89,-1.84 0,0 3.76,-4.81 -3.96,-4.04 -0.38,0.29 -0.66,0.89 -0.87,1.64z"/>
   <path class="fil3" d="M49.61 19.03c-1.3,1.02 -1.46,5.67 -1.6,7.28 -0.23,1.11 -1.01,2.96 -1.72,3.75l0.28 0.45c0.51,0.22 1.44,0.14 1.98,0.03 0.72,2.39 1.51,4.56 3.37,6.33 1.99,0.48 6.07,-0.63 7.89,-1.65 1.2,-1.11 1.7,-3.13 1.85,-3.9 -0.68,-1.45 -1.24,-2.85 -1.24,-2.85 0,0 1.18,-0.53 0.82,-2.02 -0.36,-1.49 -1.49,-1.94 -2.14,-1.79 -0.65,0.15 -1.41,1.12 -1.41,1.12l-1.39 1.65c0,0 0.05,-0.99 -0.84,-2.52 -0.89,-1.53 -1.89,-1.84 -1.89,-1.84 0,0 3.76,-4.81 -3.96,-4.04z"/>
  </g>
  <circle class="fil0" cx="28.91" cy="60.47" r="10.21"/>
  <path class="fil4" d="M19.81 108.17c1.13,-4.3 2.26,-8.87 3.45,-13.68 0.1,-1.68 0.43,-3.68 2.19,-4.42 -0.75,4.54 -0.88,9.55 -0.81,14.11 -1.79,1.1 -3.42,2.45 -4.83,3.99z"/>
  <path class="fil5" d="M25.48 89.92c4.81,-1.55 12.17,-11.02 20.77,-7.49 2.54,1.57 7.97,3.62 12.08,5.07 4.11,1.45 4.11,1.33 4.59,2.17 0.41,0.71 4.34,12 6.16,28.23 -2.15,1.54 -4.4,2.93 -6.75,4.16 -1.3,-9.97 -3.01,-15.44 -3.01,-15.44 0,0 -1.12,3.22 -2.54,8.17 -3.28,-8.14 -11.25,-13.88 -20.57,-13.88 -4.43,0 -8.56,1.3 -12.02,3.54 0.05,-4.52 0.42,-9.31 1.3,-14.54z"/>
  <path class="fil5" d="M25.48 89.92c0.84,-0.27 1.75,-0.78 2.74,-1.42 0.03,3.2 0.11,7.93 0.32,13.78 -1.54,0.57 -3,1.3 -4.36,2.18 0.05,-4.52 0.42,-9.31 1.3,-14.54z"/>
  <path class="fil2" d="M34 85.11l2.6 -4.33c0,0 6.45,-1.74 7.84,-0.68 1.39,1.07 3.54,3.99 3.54,3.99 0,0 -4.44,6.42 -7.77,17.2 -1.3,-0.24 -2.64,-0.36 -4.02,-0.36 -1.15,0 -2.29,0.09 -3.39,0.26 0.21,-5.21 0.58,-10.72 1.19,-16.08z"/>
  <path class="fil5" d="M61.15 113.66c0,0 0.29,2.37 0.04,2.78 -0.25,0.41 -3.45,0.41 -3.45,0.41l-0.73 10.95c0,0 6.67,-1.04 9.57,-2.8 2.9,-1.76 2.66,-5.92 2.42,-7.88 -0.24,-1.96 -7.2,-4.4 -7.84,-3.46z"/>
  <path class="fil3" d="M44.96 73.3c-0.07,0 -1.26,7.92 0.18,10.28 -1.66,3.85 -4.46,5.16 -6.99,6.98 0,0 -2.37,-2.32 -2,-6.37 0.87,-1.99 0.18,-7.34 0.27,-7.93 0.68,-4.75 8.54,-2.96 8.54,-2.96z"/>
  <path class="fil6" d="M44.96 73.3c-0.05,0 -0.8,4.91 -0.42,8.15 0.05,1.18 0.33,1.7 0.36,1.88 -3.11,-0.03 -6.33,-2 -8.3,-2.56 0,-2.05 -0.23,-4.16 -0.18,-4.52 0.68,-4.75 8.54,-2.96 8.54,-2.96z"/>
  <path class="fil7" d="M38.33 90.63c-0.33,-0.64 -2.64,0.11 -3.26,2.87l3.27 -2.44c0.12,0.35 3.76,4.59 3.79,4.84 0,0 -1.01,-6.24 -3.8,-5.27z"/>
  <g id="_2532584489568">
   <g>
    <path class="fil3" d="M42.39 118.03c-0.23,-0.01 -0.58,-0.07 -1.02,-0.29 -0.89,-0.45 -1.82,-1.22 -1.82,-1.22 0,0 -2.11,-3.32 -2.96,-4.78 -0.85,-1.46 -0.85,-1.46 -0.85,-1.82 0,-0.36 0.04,-4.01 0.04,-4.01 0,0 -1.42,-0.73 -2.15,0.69 -0.73,1.42 -1.09,2.76 -0.97,3.77 0.12,1.01 0.77,4.78 0.77,4.78l-7.82 0c0,0 -0.97,0.13 -0.85,1.43 0.12,1.29 1.5,1.64 1.5,1.64 0,0 -1.07,0.12 -0.99,1.29 0.08,1.17 1.6,1.54 1.6,1.54 0,0 -1.01,0.06 -1.07,1.36 -0.06,1.29 1.56,1.62 1.56,1.62 0,0 -1.01,0.2 -0.89,1.32 0.12,1.11 1.56,1.36 1.72,1.36 0.16,0 10.81,0 10.81,0 0,0 0.52,-0.16 1.02,-0.47 0.51,-0.3 0.69,-0.36 0.87,-0.36l1.52 0 0 -7.83z"/>
    <path class="fil8" d="M26.95 115.15l-1.35 0c0,0 -0.97,0.13 -0.85,1.43 0.12,1.29 1.5,1.64 1.5,1.64 0,0 -1.07,0.12 -0.99,1.29 0.08,1.17 1.6,1.54 1.6,1.54 0,0 -1.01,0.06 -1.07,1.36 -0.06,1.29 1.56,1.62 1.56,1.62 0,0 -1.01,0.2 -0.89,1.32 0.12,1.11 1.56,1.36 1.72,1.36l1.81 0c-0.74,-0.63 -1.17,-1.53 -0.79,-2.59 -0.81,-0.68 -1.25,-2.3 -0.58,-3.12 -0.71,-0.23 -1.24,-2.09 -0.65,-2.85 -0.56,-0.56 -1.35,-2.03 -0.99,-2.99z"/>
    <path class="fil8" d="M34.73 105.73c-0.39,0.06 -0.8,0.28 -1.1,0.86 -0.73,1.42 -1.09,2.76 -0.97,3.77 0.12,1.01 0.77,4.78 0.77,4.78l-0.31 0c0.1,0.02 0.21,0.04 0.31,0.04 2.39,0.08 1.95,-0.36 1.95,-0.36 0,0 -1.58,-3.61 -1.82,-4.22 -0.24,-0.61 -0.32,-0.77 -0.12,-1.7 0.13,-0.6 0.82,-2.14 1.31,-3.17z"/>
    <polygon class="fil2" points="42.33,117.55 43.81,117.55 43.81,126.32 42.33,126.32 "/>
    <path class="fil5" d="M43.77 116.85l13.97 0c1.44,3.65 2,7.51 0.17,10.79l-14.14 0.16 0 -10.95z"/>
    <g>
     <path class="fil9" d="M35.77 106.26c-0.62,-0.24 -1.42,0.35 -1.36,1.62 0.02,0.5 0.75,0.74 1.34,0.65l0.02 -2.26z"/>
     <path class="fil8" d="M35.75 108.37c-0.12,0.03 -0.26,0.03 -0.41,0.02 -0.53,-0.04 -0.8,-0.25 -0.93,-0.45 0.08,0.45 0.77,0.66 1.33,0.57l0 -0.15z"/>
     <path class="fil2" d="M35.77 106.26c-0.37,-0.15 -0.81,0.01 -1.08,0.43 0.15,-0.14 0.38,-0.26 0.7,-0.28 0.15,-0.01 0.28,0 0.39,0.02l0 -0.18z"/>
    </g>
    <path class="fil8" d="M42.39 118.03c-0.23,-0.01 -0.58,-0.07 -1.02,-0.29 -0.15,-0.07 -0.3,-0.16 -0.45,-0.25 1.19,2.95 1.19,5.74 0,8.37 0.49,0 0.98,0 1.47,0 0,-2.61 0,-5.22 0,-7.83z"/>
   </g>
  </g>
  <g id="_2532584494752">
   <path class="fil10" d="M31.01 68.68c0,0 -4.36,-14.68 -4.36,-15.4 4.95,1.26 20.51,-9.53 24.48,-0.36 0.94,2.16 -0.91,14.15 -1.54,15.24 -0.63,1.09 -10.56,1.57 -18.58,0.53z"/>
   <path class="fil3" d="M31.91 65.43l0.11 2c0,0 -1.82,-0.6 -2.26,0.33 -0.44,0.93 -0.26,4.57 0.57,5.16 0.83,0.58 1.73,0.29 1.73,0.29 0,0 0.22,2.83 0.7,3.57 0.48,0.74 5.07,4.14 7.61,4.11 2.54,-0.03 7.65,-4.08 8,-4.96 0.34,-0.88 0.58,-2.78 0.58,-2.78 0,0 2.49,-0.16 2.72,-2.92 0.23,-2.76 -0.68,-3.44 -1.4,-3.56 -0.72,-0.12 -1.3,0.32 -1.3,0.32 0,0 -0,-0.59 -0.01,-1.48 -0,-0.02 -0.77,-6.66 -1.69,-7.28 -0.92,-0.62 -4.3,-2.37 -6.71,0.26 -2.41,2.63 -6.18,3.59 -8.74,2.83 0.08,1.15 0.24,2.85 0.09,4.12z"/>
   <path class="fil11" d="M35.54 72.81c0,0 2.09,0.63 4.87,0.64 2.78,0.02 5.67,-1.42 5.67,-1.42 0,0 -2.1,4.01 -5.04,4.25 -2.94,0.24 -5.5,-3.48 -5.5,-3.48z"/>
   <path class="fil9" d="M46.43 77.81c1.05,-0.82 1.81,-1.57 1.94,-1.89 0.34,-0.88 0.58,-2.78 0.58,-2.78 0,0 2.49,-0.16 2.72,-2.92 0.23,-2.76 -0.68,-3.44 -1.4,-3.56 -0.72,-0.12 -1.3,0.32 -1.3,0.32 0,0 -0,-0.59 -0.01,-1.48 -0,-0.02 -0.59,-5.11 -1.36,-6.79 0,0 0.85,13.51 -1.18,19.11z"/>
   <path class="fil3" d="M32.01 67.43c0,0 -1.82,-0.6 -2.26,0.33 -0.44,0.93 -0.26,4.57 0.57,5.16 0.83,0.58 1.73,0.29 1.73,0.29l-0.04 -5.78zm16.9 5.9c0.01,-0.09 0.02,-0.15 0.02,-0.18 -0.01,0.06 -0.02,0.12 -0.02,0.18zm0.03 -0.19c0,0 2.49,-0.16 2.72,-2.92 0.23,-2.76 -0.68,-3.44 -1.4,-3.56 -0.62,-0.1 -1.14,0.21 -1.27,0.3 0.09,0.83 0.32,3.52 -0.05,6.19z"/>
   <path class="fil6" d="M32.03 69.34c-1.48,-0.73 -1.86,1.02 -0.07,2.4 -2.31,-0.19 -2.4,-4 0.07,-2.87 0,0.16 0,0.31 0,0.47z"/>
   <path class="fil6" d="M49.21 68.71c1.55,-0.59 1.76,1.19 -0.15,2.4 2.32,0.02 2.75,-3.76 0.2,-2.86 -0.02,0.15 -0.03,0.31 -0.05,0.46z"/>
   <path class="fil12" d="M36.64 73.43c0,0 2.7,0.18 5.01,-0.05 2.32,-0.23 3.38,-0.49 3.38,-0.49 0,0 -1.86,2.82 -3.75,2.98 -1.9,0.16 -4.44,-1.94 -4.64,-2.44z"/>
   <path class="fil13" d="M43.95 74.22c-0.09,0.09 -0.18,0.18 -0.27,0.28 -1.83,-0.37 -4.46,-0.16 -5.72,0.17 -0.12,-0.09 -0.24,-0.17 -0.35,-0.26 0.91,-0.04 4.08,-0.17 6.35,-0.18z"/>
   <path class="fil9" d="M38.02 80.29c0.85,0.36 1.67,0.6 2.35,0.59 1.96,-0.02 5.45,-2.44 7.1,-3.95 -0.02,0.01 -5.88,4.33 -9.45,3.36l-0 0z"/>
   <g>
    <path id="_101832768" class="fil14" d="M42 71.14c0,0 -0.56,0.15 -1.43,0.11 -0.87,-0.04 -1.45,-0.09 -1.45,-0.09 0,0 1.54,1.23 2.88,-0.02z"/>
    <path id="_103295184" class="fil15" d="M42.62 62.37c0,0 -0.38,0.58 -0.54,1.87 -0.15,1.29 0.14,2.78 0.14,2.78 0,0 -0.09,-1.69 1.31,-2.92 1.39,-1.23 2.54,-0.95 2.54,-0.95 0,0 -2.76,-1.05 -3.45,-0.77z"/>
    <path id="_104758696" class="fil15" d="M37.83 62.37c0,0 0.38,0.58 0.54,1.87 0.15,1.29 -0.14,2.78 -0.14,2.78 0,0 0.09,-1.69 -1.31,-2.92 -1.39,-1.23 -2.54,-0.95 -2.54,-0.95 0,0 2.76,-1.05 3.45,-0.77z"/>
    <path id="_104759512" class="fil10" d="M46.97 63.16c0,0 -1.46,-0.57 -2.97,-0.47 -1.5,0.1 -1.65,0.25 -1.65,0.25l-0.18 -1.19c0,0 0.71,-0.46 2.48,-0.28 1.77,0.18 2.26,1.26 2.26,1.26l0.07 0.43z"/>
    <g>
     <path id="_103291680" class="fil16" d="M34.31 66.54l0.02 0.03c0.6,0.03 2,0.11 3.5,0.29l0.03 -0.03c-0.12,-3.04 -4.06,-2.94 -3.54,-0.29z"/>
     <path id="_101830608" class="fil16" d="M42.6 66.79c0.15,-2.97 3.99,-2.88 3.55,-0.31 -1.94,0.14 -2.99,0.24 -3.55,0.31z"/>
     <path id="_101830536" class="fil17" d="M34.31 66.54l0.02 0.03c0.6,0.03 2,0.11 3.5,0.29l0.03 -0.03c-0.12,-3.04 -4.06,-2.94 -3.54,-0.29z"/>
     <path id="_103294608" class="fil17" d="M42.6 66.79c0.15,-2.97 3.99,-2.88 3.55,-0.31 -1.94,0.14 -2.99,0.24 -3.55,0.31z"/>
     <path id="_101830296" class="fil18" d="M36.1 64.83c0.79,0 1.44,0.64 1.44,1.44 0,0.19 -0.04,0.38 -0.11,0.55 -1.09,-0.12 -2.09,-0.19 -2.73,-0.22 -0.02,-0.1 -0.04,-0.21 -0.04,-0.32 0,-0.79 0.64,-1.44 1.44,-1.44z"/>
     <path id="_102220288" class="fil18" d="M44.35 64.83c-0.79,0 -1.44,0.64 -1.44,1.44 0,0.17 0.03,0.33 0.08,0.48 0.56,-0.06 1.44,-0.14 2.77,-0.24 0.01,-0.08 0.02,-0.16 0.02,-0.24 0,-0.79 -0.64,-1.44 -1.44,-1.44z"/>
     <path id="_103291488" class="fil19" d="M36.1 65.03c0.68,0 1.24,0.55 1.24,1.24 0,0.19 -0.04,0.37 -0.12,0.53 -0.9,-0.09 -1.72,-0.15 -2.31,-0.19 -0.03,-0.11 -0.05,-0.22 -0.05,-0.34 0,-0.68 0.55,-1.24 1.24,-1.24z"/>
     <path id="_104760976" class="fil19" d="M44.35 65.03c-0.68,0 -1.24,0.55 -1.24,1.24 -0,0.16 0.03,0.31 0.09,0.45 0.53,-0.05 1.29,-0.12 2.36,-0.2 0.02,-0.08 0.03,-0.17 0.03,-0.25 0,-0.68 -0.55,-1.24 -1.24,-1.24z"/>
     <path id="_104758888" class="fil20" d="M36.1 65.65c0.34,0 0.62,0.28 0.62,0.62 0,0.18 -0.08,0.35 -0.21,0.46 -0.32,-0.03 -0.61,-0.05 -0.89,-0.07 -0.09,-0.11 -0.14,-0.24 -0.14,-0.39 0,-0.34 0.28,-0.62 0.62,-0.62z"/>
     <path id="_103290816" class="fil20" d="M44.35 65.65c-0.34,-0 -0.61,0.28 -0.61,0.62 0,0.15 0.05,0.28 0.14,0.39 0.29,-0.03 0.63,-0.05 1.01,-0.08 0.05,-0.09 0.08,-0.19 0.08,-0.3 0,-0.34 -0.28,-0.62 -0.62,-0.62z"/>
     <path id="_102222424" class="fil17" d="M35.17 65.3c0.17,0 0.3,0.13 0.3,0.3 0,0.17 -0.13,0.3 -0.3,0.3 -0.17,0 -0.3,-0.13 -0.3,-0.3 0,-0.17 0.13,-0.3 0.3,-0.3z"/>
     <path id="_102222496" class="fil17" d="M43.47 65.43c0.17,0 0.3,0.13 0.3,0.3 0,0.17 -0.13,0.3 -0.3,0.3 -0.17,0 -0.3,-0.13 -0.3,-0.3 0,-0.17 0.13,-0.3 0.3,-0.3z"/>
     <path id="_102223648" class="fil17" d="M35.73 65.72c0.14,0 0.25,0.11 0.25,0.25 0,0.14 -0.11,0.25 -0.25,0.25 -0.14,-0 -0.25,-0.11 -0.25,-0.25 0,-0.14 0.11,-0.25 0.25,-0.25z"/>
     <path id="_102221968" class="fil17" d="M44.03 65.85c0.14,0 0.25,0.11 0.25,0.25 0,0.14 -0.11,0.25 -0.25,0.25 -0.14,0 -0.25,-0.11 -0.25,-0.25 0,-0.14 0.11,-0.25 0.25,-0.25z"/>
     <path id="_102222568" class="fil10" d="M37.87 66.84c-0.15,-0.99 -1,-2.01 -2.31,-1.85 -0.85,0.1 -1.18,0.71 -1.25,1.54 -0.43,-0.77 0.01,-2.04 1.08,-2.18 1.04,-0.13 2.55,0.5 2.48,2.48z"/>
     <path id="_102222640" class="fil10" d="M42.58 66.79c0.17,-0.98 1.01,-1.96 2.3,-1.81 0.84,0.1 1.17,0.69 1.25,1.49l0.03 -0c0.38,-0.77 -0.06,-1.99 -1.1,-2.13 -1.04,-0.13 -2.53,0.49 -2.49,2.44l0.01 -0z"/>
    </g>
    <path id="_102223072" class="fil9" d="M40.88 64.55c0,0 -0,1.88 0.13,3.77 0.13,1.88 0.18,2.64 0.18,2.64l-1.2 0.04c0,0 0.53,-4.73 0.89,-6.45z"/>
    <path id="_102223144" class="fil10" d="M33.41 63.23c0,0 1.45,-0.6 2.96,-0.53 1.5,0.07 1.65,0.21 1.65,0.21l0.3 -1.02c0,0 -0.72,-0.45 -2.48,-0.23 -1.76,0.21 -2.36,1.14 -2.36,1.14l-0.06 0.43z"/>
   </g>
   <path class="fil21" d="M26.65 53.28c4.95,1.26 20.51,-9.53 24.48,-0.36 0.21,0.48 0.28,1.44 0.26,2.65 -3.53,-4.54 -11.98,-3.3 -16.99,-2.01 -5.23,1.34 -7.75,-0.28 -7.75,-0.28z"/>
   <path class="fil22" d="M26.8 53.31c5.1,1.02 20.39,-9.47 24.33,-0.4 0.06,0.15 0.12,0.34 0.15,0.58 -4.35,-4.83 -11.9,-2.17 -18.47,-0.56 -3.28,0.8 -5.06,0.72 -6.02,0.38z"/>
  </g>
  <circle class="fil0" cx="49.47" cy="5.16" r="5.16"/>
  <path class="fil1" d="M84.76 73.97l-1.04 1.72 -1.42 -0.86c-0.6,0.71 -1.34,1.26 -2.15,1.63l0.4 1.64 -1.95 0.48 -0.4 -1.62c-0.89,0.08 -1.8,-0.04 -2.67,-0.37l-0.88 1.45 -1.72 -1.04 0.86 -1.42c-0.71,-0.6 -1.26,-1.34 -1.63,-2.15l-1.64 0.4 -0.48 -1.95 1.62 -0.4c-0.08,-0.89 0.04,-1.8 0.37,-2.67l-1.45 -0.88 1.04 -1.72 1.42 0.86c0.6,-0.71 1.34,-1.26 2.15,-1.63l-0.4 -1.64 1.95 -0.48 0.4 1.62c0.89,-0.08 1.8,0.04 2.67,0.37l0.88 -1.45 1.72 1.04 -0.86 1.42c0.71,0.6 1.26,1.34 1.63,2.15l1.64 -0.4 0.48 1.95 -1.62 0.4c0.08,0.89 -0.04,1.8 -0.37,2.67l1.45 0.88zm-8.72 -0.33c-1.49,-0.9 -1.96,-2.84 -1.06,-4.33 0.9,-1.49 2.84,-1.96 4.33,-1.06 1.49,0.9 1.96,2.84 1.06,4.33 -0.9,1.49 -2.84,1.96 -4.33,1.06z"/>
  <path class="fil1" d="M71.14 78.11l-0.71 1.18 -0.97 -0.59c-0.41,0.49 -0.91,0.86 -1.47,1.11l0.28 1.12 -1.33 0.33 -0.27 -1.1c-0.61,0.05 -1.23,-0.03 -1.82,-0.25l-0.6 0.99 -1.18 -0.71 0.59 -0.97c-0.49,-0.41 -0.86,-0.91 -1.11,-1.47l-1.12 0.28 -0.33 -1.33 1.1 -0.27c-0.05,-0.61 0.03,-1.23 0.25,-1.82l-0.99 -0.6 0.71 -1.18 0.97 0.59c0.41,-0.49 0.91,-0.86 1.47,-1.11l-0.28 -1.12 1.33 -0.33 0.27 1.1c0.61,-0.05 1.23,0.03 1.82,0.25l0.6 -0.99 1.18 0.71 -0.59 0.97c0.49,0.41 0.86,0.91 1.11,1.47l1.12 -0.28 0.33 1.33 -1.1 0.27c0.05,0.61 -0.03,1.23 -0.25,1.82l0.99 0.6zm-5.96 -0.22c-1.02,-0.62 -1.34,-1.94 -0.72,-2.96 0.62,-1.02 1.94,-1.34 2.96,-0.72 1.02,0.62 1.34,1.94 0.72,2.96 -0.62,1.02 -1.94,1.34 -2.96,0.72z"/>
  <path class="fil0" d="M71.53 63.55l-0.99 1.64 -1.35 -0.82c-0.57,0.68 -1.27,1.2 -2.05,1.55l0.38 1.56 -1.86 0.46 -0.38 -1.54c-0.85,0.07 -1.72,-0.04 -2.54,-0.35l-0.83 1.38 -1.64 -0.99 0.82 -1.35c-0.68,-0.57 -1.2,-1.27 -1.55,-2.05l-1.56 0.38 -0.46 -1.86 1.54 -0.38c-0.07,-0.85 0.04,-1.72 0.35,-2.54l-1.38 -0.83 0.99 -1.64 1.35 0.82c0.57,-0.68 1.27,-1.2 2.05,-1.55l-0.38 -1.56 1.86 -0.46 0.38 1.54c0.85,-0.07 1.72,0.04 2.54,0.35l0.83 -1.38 1.64 0.99 -0.82 1.35c0.68,0.57 1.2,1.27 1.55,2.05l1.56 -0.38 0.46 1.86 -1.54 0.38c0.07,0.85 -0.04,1.72 -0.35,2.54l1.38 0.83zm-8.3 -0.31c-1.42,-0.86 -1.87,-2.7 -1.01,-4.12 0.86,-1.42 2.7,-1.87 4.12,-1.01 1.42,0.86 1.87,2.7 1.01,4.12 -0.86,1.42 -2.7,1.87 -4.12,1.01z"/>
 </g>
</svg>
