<?xml version="1.0" encoding="UTF-8"?>
<!DOCTYPE svg PUBLIC "-//W3C//DTD SVG 1.1//EN" "http://www.w3.org/Graphics/SVG/1.1/DTD/svg11.dtd">
<!-- Creator: CorelDRAW 2020 (64-Bit) -->
<svg xmlns="http://www.w3.org/2000/svg" xml:space="preserve" width="68.7831mm" height="67.6474mm" version="1.1" style="shape-rendering:geometricPrecision; text-rendering:geometricPrecision; image-rendering:optimizeQuality; fill-rule:evenodd; clip-rule:evenodd"
viewBox="0 0 130.39 128.24"
 xmlns:xlink="http://www.w3.org/1999/xlink"
 xmlns:xodm="http://www.corel.com/coreldraw/odm/2003">
 <defs>
  <style type="text/css">
   <![CDATA[
    .fil18 {fill:#FEFEFE}
    .fil2 {fill:#1C1E20}
    .fil8 {fill:#191C1C}
    .fil3 {fill:#313C3C}
    .fil1 {fill:#465353}
    .fil12 {fill:#4F5C5C}
    .fil20 {fill:#63565A}
    .fil7 {fill:#767D7D}
    .fil9 {fill:#828688}
    .fil16 {fill:#8F8F8F}
    .fil17 {fill:#909B9B}
    .fil11 {fill:#BFBFBF}
    .fil15 {fill:#C6C7C8}
    .fil19 {fill:#D9DADB}
    .fil4 {fill:#D9DCDC}
    .fil13 {fill:#EFEFEB}
    .fil5 {fill:#FF8000}
    .fil0 {fill:#FFAA00}
    .fil14 {fill:#B2B3B3;fill-rule:nonzero}
    .fil6 {fill:#1C1E20;fill-rule:nonzero}
    .fil10 {fill:#767D7D;fill-rule:nonzero}
   ]]>
  </style>
 </defs>
 <g id="Layer_x0020_1">
  <metadata id="CorelCorpID_0Corel-Layer"/>
  <circle id="_158221752" class="fil0" transform="matrix(0.538257 0.164007 0.164007 -0.538257 87.4228 111.376)" r="28.3"/>
  <circle id="_102312040" class="fil0" transform="matrix(0.521706 0.158964 0.158964 -0.521706 82.9112 15.4414)" r="28.3"/>
  <path id="_161466264" class="fil0" d="M99.88 63.2c-6.34,20.82 -28.36,32.55 -49.17,26.21 -20.82,-6.34 -32.55,-28.36 -26.21,-49.17 6.34,-20.82 28.36,-32.55 49.17,-26.21 20.82,6.34 32.55,28.36 26.21,49.17zm-29.13 -17.91c-1.94,6.35 -8.65,9.93 -15,8 -6.35,-1.94 -9.93,-8.65 -8,-15 1.94,-6.35 8.65,-9.93 15,-8 6.35,1.94 9.93,8.65 8,15z"/>
  <circle id="_104761648" class="fil0" transform="matrix(0.942306 0.28712 0.28712 -0.942306 53.9219 100.35)" r="28.3"/>
  <path class="fil1" d="M96.12 105.81c-0.07,1.77 -0.23,6.63 -0.11,8.66 -0.34,0.07 -0.34,0.29 -0.34,0.29 0,0 0,0.77 0,1.17 0,0.4 0.15,0.46 0.15,0.46 0,0 1.9,-0 1.96,0 0.06,0 0.08,0.12 0.07,0.28 -0.01,0.15 -0.2,0.2 -0.2,0.2l0 3.7c0,0 0.7,0 0.84,0 0.14,0 0.21,-0.12 0.21,-0.37 0,-0.24 6.73,-0.22 6.73,-0.22 0,0 3.09,0 3.7,0 0.61,0 0.72,-0.74 0.72,-0.74 0,0 0,-2.67 0,-3.22 0,-0.37 -0.59,-1.09 -0.97,-1.51l0.09 0c0,0 0.36,-0.08 0.36,-0.32 0,-0.24 0.27,-1.38 -0.37,-3.54 -0.04,-0.13 -0.11,-0.26 -0.2,-0.4 -0.07,-0.91 -0.84,-3.58 -0.84,-3.58 0,0 0,0 0.25,0.1 0.25,0.1 0.72,0.47 0.91,0.42 0.19,-0.04 0.07,-0.54 -0.4,-1.13 -0.48,-0.59 -1.05,-0.8 -1.05,-0.8 0,0 -0.36,-1.06 -1.17,-2 -0.81,-0.94 -1.62,-0.93 -1.62,-0.93l-3.86 -0.23c0,0 -1.35,-0.82 -1.8,-0.95 -0.44,-0.14 -1.46,-0.22 -1.88,-0.2 -0.42,0.02 -0.92,0.01 -0.95,0.32 -0.03,0.31 -0.59,3.75 -0.6,4.16 -0.01,0.23 0.2,0.34 0.39,0.4z"/>
  <path class="fil2" d="M105.27 119.98c-1,-0 -6.58,0 -6.58,0.22 0,0.04 -0,0.07 -0,0.1 -0.1,-0.33 -0.16,-0.67 -0.16,-1.03 0,-1.88 1.53,-3.41 3.41,-3.41 1.88,0 3.41,1.53 3.41,3.41 0,0.24 -0.03,0.48 -0.07,0.71z"/>
  <circle class="fil3" cx="101.94" cy="119.27" r="2.86"/>
  <circle class="fil2" cx="101.94" cy="119.27" r="2.22"/>
  <circle class="fil4" cx="101.94" cy="119.27" r="1.71"/>
  <path class="fil2" d="M101.97 103.1l-3.59 0c-0.08,0.4 -0.27,1.42 -0.34,2.49l7.91 0c0.1,0 0.49,0.03 0.68,0.55l0.45 0c0.68,0 0.8,0.36 0.84,0.52 0,0 0.75,2.59 0.84,3.54 -0.52,-0.05 -1.72,-0.01 -2.06,-0 -0.41,0.01 -0.59,-0.14 -0.71,-0.24 -0.11,-0.1 -0.37,-0.27 -0.58,-0.45 -0.16,-0.13 -0.27,-0.16 -0.46,-0.16l-0.21 0 -0.02 0 -3.05 0c-0.31,0 -0.56,-0.25 -0.56,-0.56l0 -2.09c0,-0.31 0.25,-0.56 0.56,-0.56l4.52 0c-0.09,-0.14 -0.2,-0.15 -0.23,-0.15l-0.02 0 -7.46 0c-0.06,0.48 -0.2,1.89 -0.19,4.41 0.02,3.19 0.07,3.9 0.07,3.9 0,0 0,0 0,0.01l9.69 0c0.05,0 0.09,0.04 0.09,0.09l0 0c0,0.05 -0.04,0.09 -0.09,0.09l-12.16 0c0.03,-0.01 0.07,-0.02 0.11,-0.03 -0,-0.05 -0.01,-0.1 -0.01,-0.15l1.65 0c-0.01,-0.02 -0.01,-0.05 -0.01,-0.07 -0.01,-0.19 -0.11,-2.87 -0.11,-3.83 0,-0.76 -0,-3.72 0.19,-4.42l-1.09 0c-0.19,0 -0.36,-0 -0.51,-0.01l0.01 -0.18c-0.13,-0.04 -0.26,-0.1 -0.34,-0.21l1.85 0c0.06,-1.04 0.24,-2.03 0.33,-2.49 -0.17,-0.01 -0.36,-0.08 -0.33,-0.28 0.05,-0.35 0.15,-1.04 0.15,-1.04 0,0 0.07,-0.31 0.67,-0.25 0.6,0.06 2.41,0.41 3.16,0.75 0.41,0.19 0.75,0.37 0.73,0.56 -0.02,0.16 -0.18,0.27 -0.38,0.25z"/>
  <path class="fil5" d="M109.86 118.78l0 -2.77 -0 -0 -0.7 0c-0.15,0 -0.26,0.12 -0.26,0.26l0 1.56c0,0.52 0.42,0.94 0.94,0.94l0.02 0z"/>
  <path class="fil6" d="M102.69 109.49c0,-0.06 -0.04,-0.1 -0.1,-0.1 -0.06,0 -0.1,0.04 -0.1,0.1l0 4.6c-0,0.05 -0.04,0.56 0.28,0.61 0.15,0.02 0.69,0.16 1.25,0.47 0.33,0.18 0.66,0.43 0.92,0.74 0.28,0.35 0.49,0.7 0.63,1.03 0.21,0.48 0.3,0.89 0.32,1.11 0.01,0.05 0.05,0.09 0.11,0.09 0.05,-0.01 0.1,-0.05 0.09,-0.11 -0.02,-0.23 -0.11,-0.66 -0.33,-1.17 -0.15,-0.34 -0.36,-0.71 -0.66,-1.07 -0.28,-0.34 -0.63,-0.6 -0.97,-0.79 -0.59,-0.33 -1.17,-0.48 -1.32,-0.5 -0.14,-0.02 -0.11,-0.36 -0.11,-0.39l0 -0.01 0 -4.6z"/>
  <rect class="fil7" x="94.22" y="116.98" width="3.18" height="3.69"/>
  <path class="fil3" d="M95.85 119.81c-0.2,0 -0.37,0.17 -0.37,0.37 0,0.2 0.17,0.37 0.37,0.37 0.2,0 0.37,-0.17 0.37,-0.37 0,-0.2 -0.17,-0.37 -0.37,-0.37zm0.98 0c-0.2,0 -0.37,0.17 -0.37,0.37 0,0.2 0.17,0.37 0.37,0.37 0.2,0 0.37,-0.17 0.37,-0.37 0,-0.2 -0.17,-0.37 -0.37,-0.37z"/>
  <path class="fil8" d="M81.93 119.98c-1,-0 -6.58,0 -6.58,0.22 0,0.04 -0,0.07 -0,0.1 -0.1,-0.33 -0.16,-0.67 -0.16,-1.03 0,-0.92 0.37,-1.76 0.97,-2.38l4.88 0c0.6,0.61 0.97,1.45 0.97,2.38 0,0.24 -0.03,0.48 -0.07,0.71z"/>
  <circle class="fil3" cx="78.59" cy="119.27" r="2.86"/>
  <circle class="fil8" cx="78.59" cy="119.27" r="2.08"/>
  <circle class="fil4" cx="78.59" cy="119.27" r="1.71"/>
  <path class="fil9" d="M93.65 116.89l-12.47 0c0.47,0.48 0.8,1.1 0.92,1.79l0 0 0 0 0 0c0.02,0.15 0.04,0.29 0.05,0.45 0.02,0.37 0.03,0.93 -0.09,1.48l11.6 0c0.14,0 0.25,-0.11 0.25,-0.25l0 -3.23c0,-0.14 -0.11,-0.25 -0.25,-0.25z"/>
  <path class="fil10" d="M76.64 118.49c-0.04,0.07 -0.13,0.1 -0.2,0.07 -0.07,-0.04 -0.1,-0.13 -0.07,-0.2l0.02 -0.05c0.16,-0.34 0.68,-1.42 2.22,-1.41 0.17,0 0.32,0.02 0.47,0.04 0.16,0.03 0.3,0.07 0.43,0.12 0.08,0.03 0.11,0.12 0.08,0.19 -0.03,0.08 -0.12,0.11 -0.19,0.08 -0.11,-0.05 -0.24,-0.08 -0.37,-0.11 -0.13,-0.02 -0.27,-0.04 -0.42,-0.04 -1.35,-0.01 -1.81,0.94 -1.95,1.24l-0.03 0.05zm3.03 -1.02c-0.07,-0.04 -0.09,-0.13 -0.05,-0.21 0.04,-0.07 0.13,-0.09 0.21,-0.05 0.08,0.05 0.16,0.11 0.23,0.16 0.08,0.06 0.14,0.13 0.21,0.19 0.06,0.06 0.05,0.16 -0.01,0.21 -0.06,0.06 -0.16,0.05 -0.21,-0.01 -0.05,-0.06 -0.11,-0.11 -0.18,-0.17 -0.06,-0.05 -0.13,-0.1 -0.2,-0.14zm0.63 0.65c-0.04,-0.07 -0.02,-0.16 0.05,-0.2 0.07,-0.04 0.16,-0.02 0.2,0.05 0.1,0.17 0.17,0.34 0.22,0.51 0.06,0.19 0.09,0.37 0.1,0.53 0.01,0.08 -0.06,0.15 -0.14,0.16 -0.08,0.01 -0.15,-0.06 -0.16,-0.14 -0.01,-0.14 -0.04,-0.3 -0.09,-0.46 -0.05,-0.15 -0.11,-0.3 -0.2,-0.44z"/>
  <path class="fil10" d="M100.05 118.49c-0.04,0.07 -0.13,0.1 -0.2,0.07 -0.07,-0.04 -0.1,-0.13 -0.07,-0.2l0.02 -0.05c0.16,-0.34 0.68,-1.42 2.22,-1.41 0.17,0 0.32,0.02 0.47,0.04 0.16,0.03 0.3,0.07 0.43,0.12 0.08,0.03 0.11,0.12 0.08,0.19 -0.03,0.08 -0.12,0.11 -0.19,0.08 -0.11,-0.05 -0.24,-0.08 -0.37,-0.11 -0.13,-0.02 -0.27,-0.04 -0.42,-0.04 -1.35,-0.01 -1.81,0.94 -1.95,1.24l-0.03 0.05zm3.03 -1.02c-0.07,-0.04 -0.09,-0.13 -0.05,-0.21 0.04,-0.07 0.13,-0.09 0.21,-0.05 0.08,0.05 0.16,0.11 0.23,0.16 0.08,0.06 0.14,0.13 0.21,0.19 0.06,0.06 0.05,0.16 -0.01,0.21 -0.06,0.06 -0.16,0.05 -0.21,-0.01 -0.05,-0.06 -0.11,-0.11 -0.18,-0.17 -0.06,-0.05 -0.13,-0.1 -0.2,-0.14zm0.63 0.65c-0.04,-0.07 -0.02,-0.16 0.05,-0.2 0.07,-0.04 0.16,-0.02 0.2,0.05 0.1,0.17 0.17,0.34 0.22,0.51 0.06,0.19 0.09,0.37 0.1,0.53 0.01,0.08 -0.06,0.15 -0.14,0.16 -0.08,0.01 -0.15,-0.06 -0.16,-0.14 -0.01,-0.14 -0.04,-0.3 -0.09,-0.46 -0.05,-0.15 -0.11,-0.3 -0.2,-0.44z"/>
  <path class="fil8" d="M27.49 117.49l-2.12 1 0 1.02 -0.67 0.68 -0.92 0 0 -1.27 0.9 0 0 -1.43 0 -0.35 0 -0.99 48.52 0 0 1.34 -21.11 0c0.29,0.55 0.56,1.34 0.57,2.4 0,0.16 -0.13,0.3 -0.29,0.3 -0.17,0 -0.3,-0.13 -0.3,-0.29 -0.02,-1.16 -0.36,-1.95 -0.66,-2.41l-17.1 0c-0.3,0.46 -0.64,1.24 -0.66,2.41 -0,0.17 -0.14,0.3 -0.3,0.29 -0.17,-0 -0.3,-0.14 -0.29,-0.3 0.02,-1.06 0.28,-1.85 0.57,-2.4l-6.13 0z"/>
  <circle class="fil3" cx="48.81" cy="119.27" r="2.86"/>
  <circle class="fil8" cx="48.81" cy="119.27" r="2.08"/>
  <circle class="fil4" cx="48.81" cy="119.27" r="1.71"/>
  <path class="fil10" d="M46.86 118.49c-0.04,0.07 -0.13,0.1 -0.2,0.07 -0.07,-0.04 -0.1,-0.13 -0.07,-0.2l0.02 -0.05c0.16,-0.34 0.68,-1.42 2.22,-1.41 0.17,0 0.32,0.02 0.47,0.04 0.16,0.03 0.3,0.07 0.43,0.12 0.08,0.03 0.11,0.12 0.08,0.19 -0.03,0.08 -0.12,0.11 -0.19,0.08 -0.11,-0.05 -0.24,-0.08 -0.37,-0.11 -0.13,-0.02 -0.27,-0.04 -0.42,-0.04 -1.35,-0.01 -1.81,0.94 -1.95,1.24l-0.03 0.05zm3.03 -1.02c-0.07,-0.04 -0.09,-0.13 -0.05,-0.21 0.04,-0.07 0.13,-0.09 0.21,-0.05 0.08,0.05 0.16,0.11 0.23,0.16 0.08,0.06 0.14,0.13 0.21,0.19 0.06,0.06 0.05,0.16 -0.01,0.21 -0.06,0.06 -0.16,0.05 -0.21,-0.01 -0.05,-0.06 -0.11,-0.11 -0.18,-0.17 -0.06,-0.05 -0.13,-0.1 -0.2,-0.14zm0.63 0.65c-0.04,-0.07 -0.02,-0.16 0.05,-0.2 0.07,-0.04 0.16,-0.02 0.2,0.05 0.1,0.17 0.17,0.34 0.22,0.51 0.06,0.19 0.09,0.37 0.1,0.53 0.01,0.08 -0.06,0.15 -0.14,0.16 -0.08,0.01 -0.15,-0.06 -0.16,-0.14 -0.01,-0.14 -0.04,-0.3 -0.09,-0.46 -0.05,-0.15 -0.11,-0.3 -0.2,-0.44z"/>
  <circle class="fil3" cx="42.78" cy="119.27" r="2.86"/>
  <circle class="fil3" cx="36.76" cy="119.27" r="2.86"/>
  <circle class="fil8" cx="42.78" cy="119.27" r="2.08"/>
  <circle class="fil8" cx="36.76" cy="119.27" r="2.08"/>
  <circle class="fil4" cx="42.78" cy="119.27" r="1.71"/>
  <circle class="fil4" cx="36.76" cy="119.27" r="1.71"/>
  <path class="fil10" d="M40.83 118.49c-0.04,0.07 -0.13,0.1 -0.2,0.07 -0.07,-0.04 -0.1,-0.13 -0.07,-0.2l0.02 -0.05c0.16,-0.34 0.68,-1.42 2.22,-1.41 0.17,0 0.32,0.02 0.47,0.04 0.16,0.03 0.3,0.07 0.43,0.12 0.08,0.03 0.11,0.12 0.08,0.19 -0.03,0.08 -0.12,0.11 -0.19,0.08 -0.11,-0.05 -0.24,-0.08 -0.37,-0.11 -0.13,-0.02 -0.27,-0.04 -0.42,-0.04 -1.35,-0.01 -1.81,0.94 -1.95,1.24l-0.03 0.05zm3.03 -1.02c-0.07,-0.04 -0.09,-0.13 -0.05,-0.21 0.04,-0.07 0.13,-0.09 0.21,-0.05 0.08,0.05 0.16,0.11 0.23,0.16 0.08,0.06 0.14,0.13 0.21,0.19 0.06,0.06 0.05,0.16 -0.01,0.21 -0.06,0.06 -0.16,0.05 -0.21,-0.01 -0.05,-0.06 -0.11,-0.11 -0.18,-0.17 -0.06,-0.05 -0.13,-0.1 -0.2,-0.14zm0.63 0.65c-0.04,-0.07 -0.02,-0.16 0.05,-0.2 0.07,-0.04 0.16,-0.02 0.2,0.05 0.1,0.17 0.17,0.34 0.22,0.51 0.06,0.19 0.09,0.37 0.1,0.53 0.01,0.08 -0.06,0.15 -0.14,0.16 -0.08,0.01 -0.15,-0.06 -0.16,-0.14 -0.01,-0.14 -0.04,-0.3 -0.09,-0.46 -0.05,-0.15 -0.11,-0.3 -0.2,-0.44z"/>
  <path class="fil10" d="M34.81 118.49c-0.04,0.07 -0.13,0.1 -0.2,0.07 -0.07,-0.04 -0.1,-0.13 -0.07,-0.2l0.02 -0.05c0.16,-0.34 0.68,-1.42 2.22,-1.41 0.17,0 0.32,0.02 0.47,0.04 0.16,0.03 0.3,0.07 0.43,0.12 0.08,0.03 0.11,0.12 0.08,0.19 -0.03,0.08 -0.12,0.11 -0.19,0.08 -0.11,-0.05 -0.24,-0.08 -0.37,-0.11 -0.13,-0.02 -0.27,-0.04 -0.42,-0.04 -1.35,-0.01 -1.81,0.94 -1.95,1.24l-0.03 0.05zm3.03 -1.02c-0.07,-0.04 -0.09,-0.13 -0.05,-0.21 0.04,-0.07 0.13,-0.09 0.21,-0.05 0.08,0.05 0.16,0.11 0.23,0.16 0.08,0.06 0.14,0.13 0.21,0.19 0.06,0.06 0.05,0.16 -0.01,0.21 -0.06,0.06 -0.16,0.05 -0.21,-0.01 -0.05,-0.06 -0.11,-0.11 -0.18,-0.17 -0.06,-0.05 -0.13,-0.1 -0.2,-0.14zm0.63 0.65c-0.04,-0.07 -0.02,-0.16 0.05,-0.2 0.07,-0.04 0.16,-0.02 0.2,0.05 0.1,0.17 0.17,0.34 0.22,0.51 0.06,0.19 0.09,0.37 0.1,0.53 0.01,0.08 -0.06,0.15 -0.14,0.16 -0.08,0.01 -0.15,-0.06 -0.16,-0.14 -0.01,-0.14 -0.04,-0.3 -0.09,-0.46 -0.05,-0.15 -0.11,-0.3 -0.2,-0.44z"/>
  <path class="fil7" d="M70.88 117.49l-17.39 0 0 1.34c0,0.3 0.24,0.54 0.54,0.54l16.67 0c0.1,0 0.19,-0.08 0.19,-0.19l0 -1.69z"/>
  <path class="fil4" d="M93.03 116.06l-72.3 0c0,-5.17 0,-10.35 0,-15.52 24.69,2.26 47.76,-2.96 72.3,0l0 15.52z"/>
  <rect class="fil0" x="23.98" y="116.15" width="0.69" height="0.76"/>
  <polygon class="fil11" points="93.03,116.06 20.79,116.06 20.79,112.98 93.03,112.98 "/>
  <path class="fil0" d="M20.74 104.39l0 -0.35c24.69,2.26 47.76,-2.96 72.3,0l0 1.51c-4.97,-0.64 -19.96,-2.18 -40.93,-0.81 -15.11,0.99 -25.24,0.66 -31.37,-0.35z"/>
  <circle id="_102312040_0" class="fil0" transform="matrix(0.299274 0.0911891 0.0911891 -0.299274 31.0985 19.982)" r="28.3"/>
  <circle id="_102312040_1" class="fil0" transform="matrix(0.287604 0.087633 0.087633 -0.287604 101.354 15.4414)" r="28.3"/>
  <circle id="_102312040_2" class="fil0" transform="matrix(0.154258 0.0470024 0.0470024 -0.154258 114.942 15.4414)" r="28.3"/>
  <g id="_2532584504976">
   <path class="fil4" d="M121.52 21.22c1.47,1.06 2.3,2.32 2.87,2.87 9.41,1.54 6.54,5.39 -0.29,7.21 -2.44,0.65 -5.49,1.31 -10.31,1.73l0 2.78c0,0.26 -0.21,0.47 -0.47,0.47l-0.55 0c-0.26,0 -0.47,-0.21 -0.47,-0.47l0 -2.66c-2.33,0.17 -5.05,0.27 -8.27,0.27l-31.77 0 0 2.39c0,0.26 -0.21,0.47 -0.47,0.47l-0.55 0c-0.26,0 -0.47,-0.21 -0.47,-0.47l0 -2.39 -5 0c0,0 -8.14,-2.38 -18.28,-4.54 -10.14,-2.16 -17.24,-5.29 -17.24,-5.29 0,0 -0.23,-0.03 -0.1,-0.53l1.02 -3.7c14.69,-0.06 70.51,-0.15 77.67,-0.15 4.02,0 9.28,-0.47 12.69,1.99z"/>
   <path class="fil11" d="M37.5 26.24c-4.52,-1.44 -7.27,-2.65 -7.27,-2.65 0,0 -0.13,-0.02 -0.14,-0.23 2,-2.25 5.89,-4.01 5.89,-4.01l0 0 0 0 0.01 0c0.35,-0 5.98,0.01 8.3,0.9 0,0 -6.05,2.39 -6.81,5.99z"/>
   <path class="fil12" d="M121.95 21.55c1.18,0.96 1.89,2 2.4,2.51l-8.17 0c-0.18,0 -0.28,-0.15 -0.21,-0.33l0.34 -0.92c0.25,-0.69 1.02,-1.25 1.71,-1.25l3.93 0z"/>
   <path class="fil13" d="M34.03 22.16l8.17 0c0.08,0 0.09,0.23 -0.01,0.28l-10.8 2.34c-0.1,0.03 -0.22,0.03 -0.3,0.03l-6.54 0c-0.11,0 -0.16,-0.15 0,-0.19l9.05 -2.42c0.06,-0.04 0.35,-0.03 0.43,-0.03z"/>
   <path class="fil12" d="M74.93 21.89c0.07,0 0.15,0 0.22,0 0.27,0 0.5,0.22 0.5,0.5 0,0.24 0,0.48 0,0.72 0,0.27 -0.22,0.5 -0.5,0.5 -0.07,0 -0.15,0 -0.22,0 -0.27,0 -0.5,-0.22 -0.5,-0.5 0,-0.24 0,-0.48 0,-0.72 0,-0.27 0.22,-0.5 0.5,-0.5zm33.44 0l0.22 0c0.27,0 0.5,0.22 0.5,0.5l0 0.72c0,0.27 -0.22,0.5 -0.5,0.5l-0.22 0c-0.27,0 -0.5,-0.22 -0.5,-0.5l0 -0.72c0,-0.27 0.22,-0.5 0.5,-0.5zm-36.01 0l0.22 0c0.27,0 0.5,0.22 0.5,0.5l0 0.72c0,0.27 -0.22,0.5 -0.5,0.5l-0.22 0c-0.27,0 -0.5,-0.22 -0.5,-0.5l0 -0.72c0,-0.27 0.22,-0.5 0.5,-0.5zm33.44 0c0.07,0 0.15,0 0.22,0 0.27,0 0.5,0.22 0.5,0.5 0,0.24 0,0.48 0,0.72 0,0.27 -0.22,0.5 -0.5,0.5 -0.07,0 -0.15,0 -0.22,0 -0.27,0 -0.5,-0.22 -0.5,-0.5 0,-0.24 0,-0.48 0,-0.72 0,-0.27 0.22,-0.5 0.5,-0.5zm-2.57 0c0.07,0 0.15,0 0.22,0 0.27,0 0.5,0.22 0.5,0.5 0,0.24 0,0.48 0,0.72 0,0.27 -0.22,0.5 -0.5,0.5 -0.07,0 -0.15,0 -0.22,0 -0.27,0 -0.5,-0.22 -0.5,-0.5 0,-0.24 0,-0.48 0,-0.72 0,-0.27 0.22,-0.5 0.5,-0.5zm-2.57 0c0.07,0 0.15,0 0.22,0 0.27,0 0.5,0.22 0.5,0.5 0,0.24 0,0.48 0,0.72 0,0.27 -0.22,0.5 -0.5,0.5 -0.07,0 -0.15,0 -0.22,0 -0.27,0 -0.5,-0.22 -0.5,-0.5 0,-0.24 0,-0.48 0,-0.72 0,-0.27 0.22,-0.5 0.5,-0.5zm-2.57 0c0.07,0 0.15,0 0.22,0 0.27,0 0.5,0.22 0.5,0.5 0,0.24 0,0.48 0,0.72 0,0.27 -0.22,0.5 -0.5,0.5 -0.07,0 -0.15,0 -0.22,0 -0.27,0 -0.5,-0.22 -0.5,-0.5 0,-0.24 0,-0.48 0,-0.72 0,-0.27 0.22,-0.5 0.5,-0.5zm-2.57 0c0.07,0 0.15,0 0.22,0 0.27,0 0.5,0.22 0.5,0.5 0,0.24 0,0.48 0,0.72 0,0.27 -0.22,0.5 -0.5,0.5 -0.07,0 -0.15,0 -0.22,0 -0.27,0 -0.5,-0.22 -0.5,-0.5 0,-0.24 0,-0.48 0,-0.72 0,-0.27 0.22,-0.5 0.5,-0.5zm-2.57 0c0.07,0 0.15,0 0.22,0 0.27,0 0.5,0.22 0.5,0.5 0,0.24 0,0.48 0,0.72 0,0.27 -0.22,0.5 -0.5,0.5 -0.07,0 -0.15,0 -0.22,0 -0.27,0 -0.5,-0.22 -0.5,-0.5 0,-0.24 0,-0.48 0,-0.72 0,-0.27 0.22,-0.5 0.5,-0.5zm-2.57 0c0.07,0 0.15,0 0.22,0 0.27,0 0.5,0.22 0.5,0.5 0,0.24 0,0.48 0,0.72 0,0.27 -0.22,0.5 -0.5,0.5 -0.07,0 -0.15,0 -0.22,0 -0.27,0 -0.5,-0.22 -0.5,-0.5 0,-0.24 0,-0.48 0,-0.72 0,-0.27 0.22,-0.5 0.5,-0.5zm-2.57 0c0.07,0 0.15,0 0.22,0 0.27,0 0.5,0.22 0.5,0.5 0,0.24 0,0.48 0,0.72 0,0.27 -0.22,0.5 -0.5,0.5 -0.07,0 -0.15,0 -0.22,0 -0.27,0 -0.5,-0.22 -0.5,-0.5 0,-0.24 0,-0.48 0,-0.72 0,-0.27 0.22,-0.5 0.5,-0.5zm-2.57 0c0.07,0 0.15,0 0.22,0 0.27,0 0.5,0.22 0.5,0.5 0,0.24 0,0.48 0,0.72 0,0.27 -0.22,0.5 -0.5,0.5 -0.07,0 -0.15,0 -0.22,0 -0.27,0 -0.5,-0.22 -0.5,-0.5 0,-0.24 0,-0.48 0,-0.72 0,-0.27 0.22,-0.5 0.5,-0.5zm-2.57 0c0.07,0 0.15,0 0.22,0 0.27,0 0.5,0.22 0.5,0.5 0,0.24 0,0.48 0,0.72 0,0.27 -0.22,0.5 -0.5,0.5 -0.07,0 -0.15,0 -0.22,0 -0.27,0 -0.5,-0.22 -0.5,-0.5 0,-0.24 0,-0.48 0,-0.72 0,-0.27 0.22,-0.5 0.5,-0.5zm-2.57 0c0.07,0 0.15,0 0.22,0 0.27,0 0.5,0.22 0.5,0.5 0,0.24 0,0.48 0,0.72 0,0.27 -0.22,0.5 -0.5,0.5 -0.07,0 -0.15,0 -0.22,0 -0.27,0 -0.5,-0.22 -0.5,-0.5 0,-0.24 0,-0.48 0,-0.72 0,-0.27 0.22,-0.5 0.5,-0.5zm-2.57 0c0.07,0 0.15,0 0.22,0 0.27,0 0.5,0.22 0.5,0.5 0,0.24 0,0.48 0,0.72 0,0.27 -0.22,0.5 -0.5,0.5 -0.07,0 -0.15,0 -0.22,0 -0.27,0 -0.5,-0.22 -0.5,-0.5 0,-0.24 0,-0.48 0,-0.72 0,-0.27 0.22,-0.5 0.5,-0.5z"/>
   <path class="fil11" d="M130.32 27.64c-0.44,1.37 -2.84,2.76 -6.22,3.66 -2.44,0.65 -5.49,1.31 -10.31,1.73l0 2.78c0,0.26 -0.21,0.47 -0.47,0.47l-0.55 0c-0.26,0 -0.47,-0.21 -0.47,-0.47l0 -2.66c-2.33,0.17 -5.05,0.27 -8.27,0.27l-31.77 0 0 2.39c0,0.26 -0.21,0.47 -0.47,0.47l-0.55 0c-0.26,0 -0.47,-0.21 -0.47,-0.47l0 -2.39 -5 0c0,0 -8.14,-2.38 -18.28,-4.54 -1.83,-0.39 -3.57,-0.81 -5.18,-1.24l88.02 0z"/>
   <circle class="fil12" cx="71.53" cy="36.01" r="2.41"/>
   <path class="fil12" d="M127.36 24.77c0.13,0.04 0.25,0.08 0.37,0.12 -0.02,1.25 -0.02,2.97 0.07,5.04 -0.12,0.06 -0.24,0.12 -0.36,0.18 -0.09,-2.21 -0.09,-4.03 -0.07,-5.35z"/>
   <path class="fil0" d="M43.05 27.84c-3.31,-0.86 -6.14,-1.76 -8.29,-2.51l84.67 0c0.69,0 1.26,0.57 1.26,1.26l0 0c0,0.69 -0.57,1.26 -1.26,1.26l-76.38 0z"/>
   <circle class="fil12" cx="113.07" cy="36.01" r="2.41"/>
   <path class="fil14" d="M114.58 36.13c-0,0.15 0.12,0.28 0.27,0.29 0.15,0 0.28,-0.12 0.29,-0.27 0.01,-0.44 -0.19,-0.95 -0.53,-1.35l-0.01 -0.02c-0.31,-0.35 -0.74,-0.63 -1.24,-0.71 -0.15,-0.03 -0.29,0.08 -0.32,0.23 -0.03,0.15 0.08,0.29 0.23,0.32 0.37,0.06 0.68,0.27 0.92,0.53l0.01 0.01c0.26,0.3 0.41,0.66 0.4,0.97zm-2.16 -1.4c0.14,-0.06 0.21,-0.22 0.15,-0.36 -0.06,-0.14 -0.22,-0.21 -0.36,-0.15 -0.07,0.03 -0.14,0.06 -0.21,0.1l-0 0c-0.07,0.04 -0.14,0.08 -0.21,0.13 -0.13,0.08 -0.16,0.26 -0.08,0.38 0.08,0.13 0.26,0.16 0.38,0.08 0.05,-0.03 0.11,-0.07 0.17,-0.1 0.06,-0.03 0.11,-0.06 0.17,-0.08z"/>
   <path class="fil13" d="M121.52 21.22c0.21,0.15 0.4,0.3 0.58,0.45 -2.26,-0.44 -5.99,-0.82 -12.15,-0.82 -13.86,0 -71.67,-0.83 -78.94,-0.93l0.15 -0.55c14.69,-0.06 70.51,-0.15 77.67,-0.15 4.02,0 9.28,-0.47 12.69,1.99z"/>
   <path class="fil13" d="M27.63 8.54c1.77,0 3.54,0 5.32,0 0.21,0 0.29,0.1 0.44,0.26 2.42,3.8 7.9,8.85 10.97,11.21 0.15,0.15 -0.17,0.39 -0.39,0.39 -3.24,0 -6.48,0 -9.72,0 -0.21,0 -0.28,-0.2 -0.39,-0.39 -0.81,-2.06 -4.88,-9.02 -6.32,-10.98 -0.11,-0.18 -0.12,-0.49 0.09,-0.49z"/>
   <path class="fil15" d="M62 32.38l-24.88 4.33c-0.2,0.03 -0.24,0.09 -0.21,0.26l0 0.02c0.02,0.17 0.11,0.21 0.28,0.18l28.54 -3.76c-0.16,-0.05 -1.53,-0.44 -3.74,-1.04z"/>
   <polygon class="fil16" points="113.86,27.84 62,32.38 57.19,31.14 113.57,27.58 "/>
   <path class="fil17" d="M27.72 8.58c1.74,0 3.48,0 5.22,0 0.21,0 0.29,0.1 0.43,0.24 1.45,2.33 4.13,5.15 6.64,7.47 -0.15,-0.04 -0.69,-0.44 -1.65,-1.18 -1.6,-1.22 -4.62,-4.31 -5.25,-5.11 -0.63,-0.81 -1.41,-1.03 -3.03,-1.12 -1.62,-0.09 -2.19,-0.07 -1.88,0.47 0.31,0.54 2.34,4.44 2.06,3.95l-0 -0c-1.04,-1.8 -2.05,-3.46 -2.63,-4.26 -0.1,-0.17 -0.1,-0.46 0.11,-0.46z"/>
   <path class="fil16" d="M42.2 22.16c0.08,0 0.09,0.23 -0.01,0.28l-10.8 2.34c-0.1,0.03 -0.22,0.03 -0.3,0.03l-6.54 0c-0.1,0 -0.15,-0.13 -0.02,-0.19 1.22,-0 6.3,-0.03 6.66,-0.08 0.41,-0.06 11,-2.38 11,-2.38z"/>
   <path class="fil18" d="M37.43 23.2c0,0 -4.31,0.99 -6.4,1.18 -2.09,0.19 -5.15,0.23 -5.15,0.23l5.27 -0.07 6.28 -1.34z"/>
   <path class="fil19" d="M57.24 27.58l56.33 0c0.32,0 0.47,0.45 -0.06,0.51l-69.84 3.77c-0.17,0.02 -0.67,0.05 -0.99,0.05l-26.02 0c-0.32,0 -0.48,-0.23 0.08,-0.31 7.6,-0.76 40.06,-4 40.5,-4.02z"/>
   <path class="fil14" d="M73.13 36.13c-0,0.15 0.12,0.28 0.27,0.29 0.15,0 0.28,-0.12 0.29,-0.27 0.01,-0.44 -0.19,-0.95 -0.53,-1.35l-0.01 -0.02c-0.31,-0.35 -0.74,-0.63 -1.24,-0.71 -0.15,-0.03 -0.29,0.08 -0.32,0.23 -0.03,0.15 0.08,0.29 0.23,0.32 0.37,0.06 0.68,0.27 0.92,0.53l0.01 0.01c0.26,0.3 0.41,0.66 0.4,0.97zm-2.16 -1.4c0.14,-0.06 0.21,-0.22 0.15,-0.36 -0.06,-0.14 -0.22,-0.21 -0.36,-0.15 -0.07,0.03 -0.14,0.06 -0.21,0.1l-0 0c-0.07,0.04 -0.14,0.08 -0.21,0.13 -0.13,0.08 -0.16,0.26 -0.08,0.38 0.08,0.13 0.26,0.16 0.38,0.08 0.05,-0.03 0.11,-0.07 0.17,-0.1 0.06,-0.03 0.11,-0.06 0.17,-0.08z"/>
  </g>
  <g id="_2532584514720">
   <path class="fil4" d="M92.55 47.57l-0.16 0.5 -1.81 0 0 1.37c0,0 0.16,0.37 0.28,1.67 0.12,1.29 0.09,1.66 0.09,1.66l-2.22 0 0 2.7c0,0 0.37,0.29 0.64,4.21 0.27,3.92 0.18,4.6 0.18,4.6 4.21,0 8.41,0 12.62,0 0,0 -0.09,-0.68 0.18,-4.6 0.27,-3.92 0.64,-4.21 0.64,-4.21l0 -2.7 -2.22 0c0,0 -0.03,-0.36 0.09,-1.66 0.12,-1.29 0.28,-1.67 0.28,-1.67l0 -1.37 -1.81 0 -0.16 -0.5c-2.2,0 -4.4,0 -6.61,0z"/>
   <path class="fil17" d="M90.87 49.45c0.03,0.1 0.16,0.53 0.26,1.65 0.12,1.29 0.08,1.66 0.08,1.66l1.28 0c-0,-1.81 -0.22,-2.86 -0.34,-3.3l-1.28 0zm2.63 3.3l1.96 0c0.07,-1.07 0.02,-2.42 -0.06,-3.3l-2.2 0c0.14,0.63 0.3,1.71 0.31,3.3zm2.79 0l1.93 0c0,-1.59 0.17,-2.67 0.31,-3.3l-2.18 0c-0.01,1.1 -0.1,2.21 -0.06,3.3zm2.94 0l1.28 0c0,0 -0.03,-0.36 0.08,-1.66 0.1,-1.11 0.22,-1.54 0.26,-1.65l-1.28 0c-0.12,0.45 -0.34,1.49 -0.34,3.3z"/>
   <path class="fil4" d="M92.55 47.57l-0.16 0.5 6.92 0 -0.16 -0.5c-2.2,0 -4.4,0 -6.61,0z"/>
   <path class="fil20" d="M91.85 63.32c-0.01,-1.14 -0.04,-2.15 -0.07,-3.05l-1.54 0c0.05,1.39 0.08,2.37 0.09,3.05l1.52 0zm-0.15 -4.76c-0.08,-1.43 -0.18,-2.41 -0.25,-3l-1.52 0c0.03,0.23 0.14,1.06 0.24,3l1.53 0zm3.71 4.76c0.01,-0.99 0.02,-2.03 0.01,-3.05l-2.43 0c0.03,0.91 0.06,1.93 0.07,3.05l2.36 0zm-0.02 -4.76c-0.02,-1.11 -0.05,-2.14 -0.09,-3l-2.62 0c0.07,0.76 0.15,1.76 0.22,3l2.48 0zm3.28 4.76c0.01,-1.12 0.04,-2.13 0.07,-3.05l-2.36 0c-0.01,1.02 -0.02,2.04 -0.02,3.05l2.32 0zm0.14 -4.76c0.07,-1.25 0.14,-2.24 0.22,-3l-2.59 0c-0,1 -0.02,2 -0.03,3l2.41 0zm2.57 4.76c0.01,-0.68 0.04,-1.66 0.09,-3.05l-1.54 0c-0.03,0.89 -0.06,1.91 -0.07,3.05l1.52 0zm0.17 -4.76c0.1,-1.95 0.2,-2.78 0.24,-3l-1.52 0c-0.07,0.59 -0.17,1.58 -0.25,3l1.53 0z"/>
   <path class="fil17" d="M111.47 64.2c0,0 1.28,2.79 -1.4,6.52 -2.68,3.72 -3.96,4.31 -4.71,5 -0.76,0.7 -0.87,0.99 -0.87,0.99 0,0 -15.94,-0.93 -35.14,-0.35 -19.2,0.58 -60.16,1.05 -61.09,-0.35 -0.93,-1.4 -1.69,-5.82 -4.31,-9.19 -2.62,-3.37 -3.43,-3.96 -3.43,-3.96l0.01 0 -0.53 -1.56 6.59 0 0.53 1.56 0.62 0c0,0 6.75,-0.29 10.41,0.87 3.67,1.16 5.93,4.19 5.93,4.19l60.57 0c0,0 0.38,-0.49 0.55,-2.01 0.17,-1.51 -0.09,-1.95 -0.09,-1.95l26.36 0.23z"/>
   <path class="fil1" d="M108.36 65.76l-4.51 0c-0.38,0 -0.68,0.31 -0.68,0.68l0 0c0,0.38 0.31,0.68 0.68,0.68l4.51 0c0.38,0 0.68,-0.31 0.68,-0.68l0 0c0,-0.38 -0.31,-0.68 -0.68,-0.68zm-8.12 0l-4.51 0c-0.38,0 -0.68,0.31 -0.68,0.68l0 0c0,0.38 0.31,0.68 0.68,0.68l4.51 0c0.38,0 0.68,-0.31 0.68,-0.68l0 0c0,-0.38 -0.31,-0.68 -0.68,-0.68zm-8.12 0l-4.51 0c-0.38,0 -0.68,0.31 -0.68,0.68l0 0c0,0.38 0.31,0.68 0.68,0.68l4.51 0c0.38,0 0.68,-0.31 0.68,-0.68l0 0c0,-0.38 -0.31,-0.68 -0.68,-0.68z"/>
   <path class="fil0" d="M106.91 74.63c-0.7,0.72 -1.18,1.07 -1.54,1.44 -0.76,0.79 -0.87,1.11 -0.87,1.11 0,0 -15.94,-1.05 -35.14,-0.39 -19.2,0.66 -60.16,1.18 -61.09,-0.39 -0.39,-0.66 -0.75,-1.93 -1.23,-3.45 3.19,0.55 10.91,1.59 23.65,1.63 17.34,0.07 36.01,-0.92 52.54,-1.38 12.35,-0.34 20.41,0.82 23.7,1.42z"/>
   <rect class="fil11" x="75.07" y="65.87" width="8.26" height="2.05"/>
   <rect class="fil4" x="75.36" y="63.98" width="3.17" height="1.89"/>
   <rect class="fil20" x="37.86" y="65.73" width="35.61" height="2.2"/>
   <rect class="fil4" x="26.05" y="65.15" width="10.33" height="2.78"/>
   <rect class="fil4" x="27.13" y="62.59" width="8.44" height="2.56"/>
   <rect class="fil4" x="40.33" y="60.81" width="29.15" height="4.92"/>
   <rect class="fil4" x="46.44" y="57.15" width="17.34" height="3.67"/>
   <circle class="fil20" cx="3.28" cy="62.85" r="0.82"/>
   <path class="fil4" d="M23.13 67.93c0,0 -1.29,-1.61 -5.41,-3.28 -4.12,-1.67 -9.98,-1.79 -9.98,-1.79 0,0 12.06,-0.52 15.39,5.07z"/>
  </g>
  <circle id="_158221824" class="fil0" transform="matrix(0.406789 0.123948 0.123948 -0.406789 30.7734 82.8456)" r="28.3"/>
  <circle id="_158221824_3" class="fil0" transform="matrix(0.170687 0.0520081 0.0520081 -0.170687 94.8658 78.586)" r="28.3"/>
 </g>
</svg>
