<?xml version="1.0" encoding="UTF-8"?>
<!DOCTYPE svg PUBLIC "-//W3C//DTD SVG 1.1//EN" "http://www.w3.org/Graphics/SVG/1.1/DTD/svg11.dtd">
<!-- Creator: CorelDRAW 2020 (64-Bit) -->
<svg xmlns="http://www.w3.org/2000/svg" xml:space="preserve" width="66.953mm" height="77.9812mm" version="1.1" style="shape-rendering:geometricPrecision; text-rendering:geometricPrecision; image-rendering:optimizeQuality; fill-rule:evenodd; clip-rule:evenodd"
viewBox="0 0 145.69 169.69"
 xmlns:xlink="http://www.w3.org/1999/xlink"
 xmlns:xodm="http://www.corel.com/coreldraw/odm/2003">
 <defs>
  <style type="text/css">
   <![CDATA[
    .fil10 {fill:none}
    .fil2 {fill:#FEFEFE}
    .fil21 {fill:#EBECEC}
    .fil12 {fill:#C3C3C1}
    .fil7 {fill:#362B2E}
    .fil5 {fill:#40393B}
    .fil4 {fill:#63565A}
    .fil17 {fill:#8F8F8F}
    .fil15 {fill:#93937F}
    .fil18 {fill:#A1A1A1}
    .fil14 {fill:#A6A694}
    .fil19 {fill:#ABA9AA}
    .fil6 {fill:#BABAAD}
    .fil13 {fill:#BDBDB0}
    .fil20 {fill:#BFB9BB}
    .fil8 {fill:#C2C2C0}
    .fil3 {fill:#DBDBD2}
    .fil9 {fill:#DBDBD8}
    .fil1 {fill:#EFEFEB}
    .fil11 {fill:#F7F7F7}
    .fil0 {fill:#FFAA00}
    .fil16 {fill:#898989;fill-rule:nonzero}
   ]]>
  </style>
 </defs>
 <g id="Layer_x0020_1">
  <metadata id="CorelCorpID_0Corel-Layer"/>
  <path class="fil0" d="M114.8 42.96c-9.09,11.47 -25.76,13.4 -37.23,4.31 -11.47,-9.09 -13.4,-25.76 -4.31,-37.23 9.09,-11.47 25.76,-13.4 37.23,-4.31 0.8,0.64 1.56,1.31 2.27,2.02 -3.29,-0.88 -6.94,0.2 -9.19,3.04 -3.02,3.82 -2.38,9.36 1.43,12.38 3.82,3.02 9.36,2.38 12.38,-1.43 0.9,-1.14 1.48,-2.43 1.74,-3.76 2.79,8.23 1.47,17.66 -4.33,24.98z"/>
  <circle class="fil0" transform="matrix(-0.144815 0.18269 -0.18269 -0.144815 94.5402 58.3811)" r="94.71"/>
  <circle class="fil0" transform="matrix(-0.185478 0.233988 -0.233988 -0.185478 73.2803 141.409)" r="94.71"/>
  <path class="fil0" d="M112.77 107.63c-21.69,27.36 -61.46,31.96 -88.82,10.27 -27.36,-21.69 -31.96,-61.46 -10.27,-88.82 21.54,-27.17 60.89,-31.89 88.24,-10.72 0.45,1.84 1.49,3.55 3.09,4.82 1.27,1.01 2.74,1.61 4.24,1.82 21.22,22.47 23.29,57.7 3.53,82.63z"/>
  <circle class="fil0" transform="matrix(-0.173007 0.218256 -0.218256 -0.173007 95.1182 118.203)" r="94.71"/>
  <g id="_2532586394704">
   <g>
    <path class="fil1" d="M13.3 52.14c3.61,12.32 6.36,41.07 6.74,52.72l79.9 0c1.32,-19.18 2.95,-34 5.4,-50.35l-4.75 -0.07c0.53,0.69 1.06,1.38 1.59,2.07 -4.67,-0.02 -9.33,-0.04 -14,-0.06 0.03,-0.38 0.07,-0.76 0.1,-1.14 1.7,0.1 3.4,0.19 5.1,0.28 0.15,-0.46 0.29,-0.92 0.44,-1.38 -7.88,-14.23 -13.1,-27.43 -16.55,-37.6 -7.9,13.21 -17.09,23.67 -26.13,34.99l-1.63 0.04c-10.76,-0.83 -23.23,-0.5 -36.21,0.48z"/>
    <path class="fil2" d="M54.97 104.86l28.97 0c0.47,-7.97 1.28,-19.8 2.37,-30.38 1.71,-16.48 1.94,-18.85 1.97,-19.13l0 -0.01 0 -0.01 0 -0 0 -0.01 0 -0.01 0 -0 0 -0c0,0 -10.14,-20.24 -14.57,-33.03l0 -0c-6.65,10.07 -14.01,18.69 -21.31,27.77 0.48,6.2 2.56,34.32 2.58,54.81z"/>
    <path class="fil3" d="M96.42 104.86l3.51 0c1.32,-19.18 2.95,-34 5.4,-50.35l-4.75 -0.07c0.53,0.69 1.06,1.38 1.59,2.07l-1.86 -0.01c0.07,0.39 0.15,0.8 0.23,1.22 0,0 -3.99,35.6 -4.12,47.14z"/>
    <path class="fil4" d="M82.15 27.69l0.01 0.03 0.33 0.83c2.42,0.79 4.91,1.59 7.34,2.37 4.54,8.61 12.69,18.99 17.37,23.61 -2.21,-0.03 -4.41,-0.06 -6.62,-0.09 0.53,0.69 1.06,1.38 1.59,2.07 -4.67,-0.02 -9.33,-0.04 -14,-0.06 0.03,-0.38 0.07,-0.76 0.1,-1.14 1.7,0.1 3.4,0.19 5.1,0.28 0.15,-0.46 0.29,-0.92 0.44,-1.38 -5.19,-9.37 -9.22,-18.29 -12.36,-26.19l-0.01 -0.03 0.71 -0.31z"/>
    <path class="fil5" d="M75.7 15.79c0.26,-0.07 0.96,-0.11 1.44,-0.17 0.16,-0.02 0.35,0.11 0.43,0.09 1.61,4.41 2.61,7.01 4.59,11.98l-0.71 0.31c-1.62,-4.09 -3.01,-7.91 -4.18,-11.38 -8.19,13.36 -16.54,22.76 -26.13,34.99l-1.63 0.04c-12.22,-0.95 -26.66,-0.39 -41.53,0.92 14.07,-11.52 25.86,-21.18 39.92,-32.7 5.53,0.14 20.08,-1.13 27.8,-4.09z"/>
    <path class="fil3" d="M7.98 52.58l0.26 1.13c0,0 2.43,-0.24 8.54,-0.66 6.11,-0.42 15.01,-0.48 24.01,-0.26 9,0.22 8.63,0.37 8.63,0.37l2.14 0.07c0,0 9.92,-11.55 16.64,-20.4 6.71,-8.85 8.88,-12.77 8.88,-12.77 2.57,8.12 12.13,29.07 16.3,35.54 0.15,-0.46 0.29,-0.92 0.44,-1.38 -7.88,-14.23 -13.1,-27.43 -16.55,-37.6 -8.19,13.36 -16.54,22.76 -26.13,34.99l-1.63 0.04c-12.22,-0.95 -26.66,-0.39 -41.53,0.92z"/>
    <path class="fil6" d="M77.13 15.62l0 0 0.27 0.05c0.07,0.02 0.12,0.04 0.16,0.03 7.19,20.23 16.37,37.86 16.37,37.86l-0.12 0.65c-7.88,-14.23 -13.1,-27.43 -16.55,-37.6 -8.19,13.36 -16.54,22.76 -26.13,34.99 -0.54,0.01 -1.09,0.02 -1.63,0.04 -12.22,-0.95 -26.66,-0.39 -41.53,0.92l0.45 -0.37c3.37,-0.51 9.25,-1.07 17.03,-1.36 9.04,-0.33 14.34,-0.29 18.46,-0.31 1.61,-0.01 7,1.08 10.53,-3.99 1.48,-1.95 3.6,-4.71 6.62,-8.58 7.87,-10.12 14.72,-20.39 16.08,-22.35z"/>
    <polygon class="fil7" points="40.01,33.31 35.96,29.66 39.68,26.61 "/>
    <path class="fil8" d="M48.79 36.63c0,0 -1.53,2.36 -2.88,4.39 -1.35,2.03 -1.62,2.32 -1.62,2.32l0.39 0.53 4.78 -0.04 4.15 -7.14 -0.2 -0.5c0,0 -2.56,0.24 -4.61,0.42z"/>
    <path class="fil9" d="M48.79 36.63c0,0 -1.53,2.36 -2.88,4.39 -1.35,2.03 -1.62,2.32 -1.62,2.32l4.81 -0.04 4.3 -7.1c0,0 -2.56,0.24 -4.61,0.42z"/>
    <path class="fil8" d="M49.06 37.03l-3.95 5.9 3.75 -0.06 3.67 -6.11c0,0 -2.76,0.21 -3.48,0.27z"/>
    <polygon class="fil1" points="45.52,42.93 48.87,42.88 52.41,36.98 49.34,37.22 "/>
    <polygon class="fil7" points="37.37,28.5 34.35,49.28 35.5,30.03 "/>
    <path class="fil4" d="M36.49 30.1c-3.2,0.36 -9.84,-0.15 -15.7,-1.97 -0.25,-0.03 -0.5,-0.06 -0.76,-0.09 4.77,7.08 9.54,14.17 14.31,21.25 0.71,-6.39 1.43,-12.79 2.14,-19.18z"/>
    <polygon class="fil3" points="20.04,28.03 12.99,49.98 14.47,49.93 18.12,47.8 30.63,46.95 32.21,49.35 34.35,49.28 "/>
    <polygon class="fil8" points="14.47,49.93 18.12,47.8 30.63,46.95 20.45,31.24 "/>
    <polygon class="fil1" points="14.47,49.93 18.12,47.8 22.38,34.22 20.45,31.24 "/>
    <path class="fil9" d="M22.9 47.48c1.28,-0.09 2.56,-0.17 3.83,-0.26l-1.06 -7.9 -0.68 -1.06 -2.8 0.31c0.26,2.52 0.87,6.16 0.7,8.91l0 -0z"/>
    <path class="fil1" d="M22.71 39.08c0.2,1.27 0.67,5.54 0.68,7.95 0.85,-0.06 1.89,-0.12 2.75,-0.18 -0.2,-2.71 -0.68,-5.41 -0.92,-8.08 -0.76,0.12 -1.75,0.19 -2.51,0.3z"/>
    <path class="fil2" d="M22.98 41.3c0.04,0.36 0.08,0.74 0.12,1.14l2.26 -2.27c-0.05,-0.45 -0.1,-0.9 -0.14,-1.35l-2.23 2.49zm0.35 4.2l0.01 0.27 2.45 -2.13c-0.03,-0.28 -0.07,-0.55 -0.11,-0.83l-2.35 2.7z"/>
    <polygon class="fil7" points="18.12,47.8 32.21,49.35 30.63,46.95 "/>
    <path class="fil6" d="M36.4 30.1c-3.24,0.34 -9.8,-0.18 -15.61,-1.98 -0.25,-0.03 -0.5,-0.06 -0.76,-0.09 4.77,7.08 9.54,14.17 14.31,21.25 0,0 -11.35,-18.2 -11.72,-18.9 -0.37,-0.7 -0.81,-1.07 4.57,-0.29 5.38,0.77 9.28,0.06 9.28,0.06l-0.08 -0.04z"/>
    <path class="fil7" d="M75.7 15.79c0.26,-0.07 0.96,-0.11 1.44,-0.17l-1.46 0.66c0,0 -4.83,2.43 -12.62,3.54 -7.78,1.11 -11.4,1.22 -11.4,1.22l-10.32 12.2c0,0 5.09,-9.53 8.82,-13.37 6.55,-0.17 18.71,-1.47 25.54,-4.08z"/>
    <polygon class="fil2" points="50.67,16.53 51.01,20.66 41.34,33.24 40.01,33.31 39.09,14.76 40.46,14.02 "/>
    <polygon class="fil4" points="39.09,14.76 38.63,13.38 40.29,12.32 51.19,15.05 50.67,16.53 40.46,14.02 "/>
    <polygon class="fil7" points="39.09,14.76 38.63,13.38 40.29,12.32 40.46,14.02 "/>
    <polygon class="fil9" points="41.34,33.24 40.01,33.31 39.09,14.76 40.46,14.02 "/>
    <polygon class="fil9" points="50.47,16.48 50.73,20.58 41.34,33.24 51.01,20.66 50.67,16.53 "/>
    <polygon class="fil6" points="40.29,12.32 51.19,15.05 50.67,16.53 50.47,16.48 50.47,16.48 50.81,15.1 "/>
    <polygon class="fil3" points="88.05,57.56 102.2,57.75 102.17,56.51 88.17,56.45 "/>
    <polygon class="fil10" points="101.14,55.16 106.94,55.28 107.21,54.53 100.59,54.44 "/>
    <path class="fil8" d="M68.51 53.2l8.72 -0.06 0.13 -13.3c0,0 -0.86,-3.17 -3.85,-3.69 -2.99,-0.52 -5.07,1.38 -5.32,3.11 0.04,1.68 0.32,13.94 0.32,13.94z"/>
    <path class="fil11" d="M69.09 52.79l8.59 -0.06 0.13 -13.1c0,0 -0.85,-3.13 -3.79,-3.63 -2.94,-0.51 -4.99,1.36 -5.24,3.07 0.04,1.65 0.31,13.73 0.31,13.73z"/>
    <path class="fil8" d="M70.15 51.71l6.47 -0.05 0.12 -11.87c-0.14,-0.42 -0.4,-0.89 -0.63,-1.22 -0.55,-0.79 -1.3,-1.34 -2.26,-1.5 -0.99,-0.17 -2,-0.04 -2.84,0.53 -0.52,0.35 -1.01,0.92 -1.14,1.55 0.09,4.19 0.19,8.37 0.29,12.56z"/>
    <path class="fil1" d="M70.15 51.71l5.44 -0.04 0.13 -11.23c-0.13,-0.38 -0.36,-0.81 -0.58,-1.12 -0.51,-0.72 -1.19,-1.23 -2.07,-1.38 -0.9,-0.16 -1.84,-0.03 -2.61,0.49 -0.18,0.13 -0.37,0.28 -0.53,0.46 -0.03,0.09 -0.06,0.17 -0.07,0.26 0.09,4.19 0.19,8.37 0.29,12.56z"/>
    <path class="fil11" d="M72.41 37.63c0.31,-0.2 0.87,-0.14 1.09,0 0.26,5.18 0.29,9.01 -0,14.05 -0.36,0 -0.73,0 -1.09,0 0.07,-4.52 0.34,-8.75 0,-14.05z"/>
    <path class="fil11" d="M69.87 41.76l6.28 0.63 0.01 -0.72 -6.26 -0.83c0,0 -0.31,0.33 -0.03,0.92z"/>
    <path class="fil11" d="M69.9 44.57l6.11 0.37 -0.02 0.72 -5.99 -0.17c0,0 -0.25,-0.86 -0.1,-0.92z"/>
    <path class="fil12" d="M63.49 74.02c2.34,-7.2 13.95,-7.9 17.08,-0.2 -1.13,9.74 -2.39,26.15 -2.88,31.04 -4.33,0 -8.66,0 -12.98,0 0,0 0,-15.03 -1.22,-30.84z"/>
    <path class="fil8" d="M25.37 60.69c4.96,-0.07 9.92,-0.15 14.87,-0.22 0.51,8.7 1.02,17.26 1.53,25.96 -0.26,0.03 -0.74,0.22 -1.05,0.19 -3.88,-0.31 -9.34,-0.7 -12.16,-0.62 -0.92,-7.64 -1.83,-16.89 -3.19,-25.3z"/>
    <path class="fil9" d="M24.32 60.64c4.96,-0.07 9.92,-0.15 14.87,-0.22 0.51,8.73 1.02,17.46 1.54,26.19 -3.86,-0.34 -10.17,-0.66 -13.22,-0.57 -0.92,-7.67 -1.83,-16.95 -3.19,-25.4z"/>
    <path class="fil8" d="M25.69 61.92l4.62 -0.07c0.75,6.71 1.99,17.97 2.39,23.18 -1.67,-0.07 -3.21,-0.1 -4.27,-0.07 -0.75,-6.26 -1.64,-16.15 -2.75,-23.04zm6.44 -0.1l5.69 -0.09c0.42,7.12 0.98,16.57 1.4,23.69 -1.33,-0.12 -3.01,-0.23 -4.7,-0.32 -0.39,-5.12 -1.63,-16.47 -2.4,-23.29z"/>
    <path class="fil2" d="M30.36 62.31c0.76,6.75 1.95,17.63 2.34,22.72 -1.22,-0.05 -2.37,-0.08 -3.31,-0.08 -0.74,-6.27 -1.61,-15.86 -2.69,-22.59l3.67 -0.06zm2.77 -0.04l4.71 -0.07c0.41,7.07 0.96,16.26 1.37,23.23 -1.07,-0.09 -2.37,-0.18 -3.72,-0.26 -0.42,-5.28 -1.62,-16.25 -2.37,-22.9z"/>
    <path class="fil3" d="M63.49 74.02c0.4,-1.22 1.06,-2.26 1.91,-3.09 4.3,-1.46 9.78,0.03 11.78,4.96 -0.66,8.32 -1.48,23.79 -1.65,28.98l-10.82 0c0,0 0,-15.03 -1.22,-30.84z"/>
    <path class="fil1" d="M30.77 65.97c0.13,1.14 0.26,2.34 0.39,3.56l-3.08 3.47c-0.14,-1.26 -0.29,-2.51 -0.44,-3.74 0.98,-1.03 2.05,-2.15 3.13,-3.28zm0.82 7.62c0.07,0.7 0.15,1.4 0.22,2.09l-3.08 3.29 -0.23 -2.18 3.1 -3.2zm1.67 -10.21c0.37,-0.39 0.73,-0.76 1.09,-1.13l3.33 -0.05 -4.04 4.55c-0.13,-1.18 -0.26,-2.32 -0.37,-3.37zm0.84 7.63l4.03 -4.16 0.12 1.97 -3.93 4.19c-0.07,-0.67 -0.14,-1.34 -0.21,-2.01z"/>
   </g>
   <rect class="fil13" x="19.99" y="103.56" width="79.65" height="2.95"/>
  </g>
  <g id="_2532586395376">
   <path class="fil14" d="M109.52 166.03c-18.35,-8.85 -36.95,-17.16 -55.72,-25.1 -0.7,-0.32 -1.01,-1.14 -0.68,-1.83 5.59,-7.96 25.92,-48.62 37.88,-76.28 0.32,-0.69 1.16,-1 1.86,-0.69 18.57,8.37 41.34,17.65 52.02,21.63 0.7,0.32 1.01,1.14 0.68,1.83 -9.01,23.49 -23.44,58.06 -34.18,79.75 -0.32,0.69 -1.16,1 -1.86,0.69z"/>
   <path class="fil1" d="M107.12 164.27c-17.39,-8.7 -35.02,-16.87 -52.82,-24.7 -0.66,-0.31 -0.95,-1.11 -0.64,-1.77 5.34,-7.61 24.82,-46.53 36.29,-73.04 0.31,-0.66 1.11,-0.95 1.77,-0.64 17.61,8.23 39.19,17.39 49.32,21.32 0.66,0.31 0.95,1.11 0.64,1.77 -8.65,22.52 -22.5,55.64 -32.79,76.41 -0.31,0.66 -1.11,0.95 -1.77,0.64z"/>
   <path class="fil2" d="M86.08 73.5c1.36,-3.02 2.66,-5.95 3.87,-8.74 0.31,-0.66 1.11,-0.95 1.77,-0.64 17.61,8.23 39.19,17.39 49.32,21.32 0.66,0.31 0.95,1.11 0.64,1.77 -5.18,13.47 -12.21,30.75 -19.24,46.9 -6.7,-12.61 -19.11,-34.79 -36.36,-60.6z"/>
   <path class="fil15" d="M92.03 64.93c17.41,8.1 38.33,16.97 48.26,20.83 0.66,0.31 0.95,1.11 0.64,1.77 -2.65,6.9 -5.79,14.78 -9.16,23.01l8.62 -22.99c0,0 0.27,-1.01 -1.4,-1.72 -1.47,-0.63 -36.67,-15.42 -46.97,-20.9z"/>
   <path class="fil16" d="M116.79 132.21c0.38,0.18 0.55,0.63 0.38,1.01 -0.18,0.38 -0.63,0.55 -1.01,0.38l-42.46 -19.52c-0.38,-0.18 -0.55,-0.63 -0.38,-1.01 0.18,-0.38 0.63,-0.55 1.01,-0.38l42.46 19.52zm-2.22 5.11c0.38,0.18 0.55,0.63 0.37,1.01 -0.18,0.38 -0.63,0.55 -1.01,0.37l-42.32 -19.65c-0.38,-0.18 -0.55,-0.63 -0.37,-1.01 0.18,-0.38 0.63,-0.55 1.01,-0.37l42.32 19.65zm20.01 -46.01c0.39,0.16 0.57,0.61 0.41,1 -0.16,0.39 -0.61,0.57 -1,0.41l-43.55 -18.44c-0.39,-0.16 -0.57,-0.61 -0.41,-1 0.16,-0.39 0.61,-0.57 1,-0.41l43.55 18.44zm-2.22 5.11c0.39,0.17 0.57,0.61 0.4,1 -0.17,0.39 -0.61,0.57 -1,0.4l-43.42 -18.58c-0.39,-0.17 -0.57,-0.61 -0.4,-1 0.17,-0.39 0.61,-0.57 1,-0.4l43.42 18.58zm-2.22 5.11c0.39,0.17 0.56,0.62 0.4,1.01 -0.17,0.39 -0.62,0.56 -1.01,0.4l-43.28 -18.71c-0.39,-0.17 -0.56,-0.62 -0.4,-1.01 0.17,-0.39 0.62,-0.56 1.01,-0.4l43.28 18.71zm-2.22 5.11c0.39,0.17 0.56,0.62 0.39,1.01 -0.17,0.39 -0.62,0.56 -1.01,0.39l-43.14 -18.85c-0.39,-0.17 -0.56,-0.62 -0.39,-1.01 0.17,-0.39 0.62,-0.56 1.01,-0.39l43.14 18.85zm-2.22 5.11c0.38,0.17 0.56,0.62 0.39,1.01 -0.17,0.38 -0.62,0.56 -1.01,0.39l-43.01 -18.98c-0.38,-0.17 -0.56,-0.62 -0.39,-1.01 0.17,-0.38 0.62,-0.56 1.01,-0.39l43.01 18.98zm-2.22 5.11c0.38,0.17 0.56,0.63 0.38,1.01 -0.17,0.38 -0.63,0.56 -1.01,0.38l-42.87 -19.11c-0.38,-0.17 -0.56,-0.63 -0.38,-1.01 0.17,-0.38 0.63,-0.56 1.01,-0.38l42.87 19.11zm-2.22 5.11c0.38,0.17 0.55,0.63 0.38,1.01 -0.17,0.38 -0.63,0.55 -1.01,0.38l-42.73 -19.25c-0.38,-0.17 -0.55,-0.63 -0.38,-1.01 0.17,-0.38 0.63,-0.55 1.01,-0.38l42.73 19.25zm-2.22 5.11c0.38,0.18 0.55,0.63 0.38,1.01 -0.17,0.38 -0.63,0.55 -1.01,0.38l-42.6 -19.38c-0.38,-0.18 -0.55,-0.63 -0.38,-1.01 0.18,-0.38 0.63,-0.55 1.01,-0.38l42.6 19.38z"/>
   <circle class="fil0" transform="matrix(0.0518754 -0.101932 -0.101932 -0.0518754 96.6541 143.044)" r="94.71"/>
  </g>
  <g id="_2532586428928">
   <g>
    <path class="fil17" d="M74.58 133.87c0.34,0.04 0.71,0.16 0.9,0.5 0.42,0.75 13.37,21.33 13.37,21.33 0,0 0.27,0.39 0.49,0.48 0.22,0.09 0.68,0.17 1.01,0.27 0.33,0.1 0.53,0.12 0.59,0.05 0.06,-0.07 0.05,-0.26 0.05,-0.26l1.38 -0.05 0.19 0.3c0,0 0,0.1 0.42,0.21 0.42,0.1 1.27,0.21 1.41,0.27 0.14,0.06 0.28,-0.05 0.32,-0.18 0.03,-0.13 0.03,-0.23 -0.07,-0.4 -0.1,-0.16 -0.35,-0.56 -0.35,-0.56l0.7 -3.28c0,0 0.08,-0.08 -0.14,-0.43l-1.62 -2.59c-1.02,-0.23 -2.11,-0.49 -2.11,-0.49l-0.29 -0.46 0.47 -2.12 -1.27 -2.03c-0.81,-0.18 -1.59,-0.37 -1.59,-0.37l-0.25 -0.4 0.35 -1.6 -6.15 -9.8 -0.13 -0.2 0.51 -0.32c0,0 1.13,-0.87 0.36,-2.1l-0.47 -0.75c2.83,-3.95 3.17,-9.38 0.43,-13.76 -3.62,-5.78 -11.24,-7.52 -17.02,-3.9 -5.78,3.62 -7.52,11.24 -3.9,17.02 2.72,4.33 7.68,6.4 12.43,5.63zm-6.33 -19.16c1.79,-1.12 4.15,-0.58 5.27,1.21 1.12,1.79 0.58,4.15 -1.21,5.27 -1.79,1.12 -4.15,0.58 -5.27,-1.21 -1.12,-1.79 -0.58,-4.15 1.21,-5.27z"/>
    <path class="fil5" d="M90.98 156.4c0.02,-0.08 0.02,-0.17 0.02,-0.17l1.36 -0.05 -13.39 -21.35c-0.14,-0.22 -0.43,-0.29 -0.65,-0.15l-0.29 0.18c-0.22,0.14 -0.29,0.43 -0.15,0.65l13.1 20.89z"/>
    <path class="fil5" d="M94.28 155.81l0.7 -3.28c0,0 0.08,-0.08 -0.14,-0.43l-1.62 -2.59c-1.02,-0.23 -2.11,-0.49 -2.11,-0.49l-0.29 -0.46 0.47 -2.12 -1.27 -2.03c-0.81,-0.18 -1.59,-0.37 -1.59,-0.37l-0.25 -0.4 0.35 -1.6 -6.15 -9.8 -0.11 -0.17 -1.85 1.16c-0.12,0.08 -0.16,0.24 -0.08,0.36l13.94 22.23z"/>
    <path class="fil18" d="M68.73 111.85c4.67,-1.86 10.13,-0.18 12.9,4.23 2.87,4.57 1.82,10.48 -2.24,13.82 1.57,-3.79 2.72,-6.77 -0.4,-12.25 -3.13,-5.48 -6.41,-5.37 -10.25,-5.8z"/>
    <g>
     <path class="fil19" d="M65.47 136.97c0.31,0.15 0.62,0.38 0.69,0.76 0.15,0.85 5.73,24.51 5.73,24.51 0,0 0.13,0.46 0.31,0.61 0.18,0.16 0.59,0.38 0.86,0.58 0.28,0.2 0.46,0.29 0.54,0.24 0.08,-0.05 0.13,-0.23 0.13,-0.23l1.32 0.4 0.08 0.35c0,0 -0.03,0.1 0.33,0.33 0.36,0.23 1.13,0.61 1.25,0.71 0.11,0.11 0.29,0.04 0.36,-0.07 0.07,-0.12 0.1,-0.21 0.06,-0.4 -0.04,-0.19 -0.15,-0.64 -0.15,-0.64l1.72 -2.87c0,0 0.1,-0.05 0,-0.45l-0.7 -2.98c-0.89,-0.54 -1.84,-1.15 -1.84,-1.15l-0.12 -0.53 1.13 -1.86 -0.54 -2.33c-0.71,-0.43 -1.38,-0.87 -1.38,-0.87l-0.11 -0.46 0.85 -1.4 -2.64 -11.27 -0.05 -0.23 0.59 -0.14c0,0 1.35,-0.46 1.02,-1.87l-0.2 -0.86c3.96,-2.82 6.04,-7.85 4.86,-12.87 -1.55,-6.64 -8.19,-10.76 -14.83,-9.21 -6.64,1.55 -10.76,8.19 -9.21,14.83 1.16,4.98 5.19,8.54 9.93,9.36zm0.22 -20.17c2.06,-0.48 4.11,0.8 4.59,2.85 0.48,2.06 -0.8,4.11 -2.85,4.59 -2.06,0.48 -4.11,-0.8 -4.59,-2.85 -0.48,-2.06 0.8,-4.11 2.85,-4.59z"/>
     <path class="fil5" d="M73.67 163.61c0.04,-0.07 0.07,-0.16 0.07,-0.16l1.31 0.39 -5.74 -24.54c-0.06,-0.25 -0.31,-0.41 -0.57,-0.35l-0.33 0.08c-0.25,0.06 -0.41,0.31 -0.35,0.57l5.62 24.01z"/>
     <path class="fil5" d="M76.99 164.12l1.72 -2.87c0,0 0.1,-0.05 0,-0.45l-0.7 -2.98c-0.89,-0.54 -1.84,-1.15 -1.84,-1.15l-0.12 -0.53 1.13 -1.86 -0.54 -2.33c-0.71,-0.43 -1.38,-0.87 -1.38,-0.87l-0.11 -0.46 0.85 -1.4 -2.64 -11.27 -0.05 -0.19 -2.12 0.5c-0.14,0.03 -0.22,0.17 -0.19,0.31l5.98 25.55z"/>
     <path class="fil20" d="M65.16 114.51c5.7,-1.33 11.41,2.21 12.74,7.91 1.33,5.7 -2.21,11.41 -7.91,12.74 -5.7,1.33 -11.41,-2.21 -12.74,-7.91 -1.33,-5.7 2.21,-11.41 7.91,-12.74zm0.36 1.55c2.42,-0.57 4.85,0.94 5.41,3.36 0.57,2.42 -0.94,4.85 -3.36,5.41 -2.42,0.57 -4.85,-0.94 -5.41,-3.36 -0.57,-2.42 0.94,-4.85 3.36,-5.41z"/>
     <path class="fil21" d="M68.24 114.25c4.55,0.28 8.57,3.5 9.66,8.17 1.18,5.06 -1.47,10.12 -6.06,12.13 3.91,-2.01 5.65,-5.81 4.89,-11.25 -0.83,-5.96 -5.76,-8.24 -8.49,-9.05z"/>
    </g>
   </g>
   <path class="fil4" d="M63.35 100.98c2.14,0.34 4.73,3.33 6.25,7.45 0.14,0.39 0.27,0.77 0.38,1.15 0.65,-0.16 1.41,-0.21 2.17,-0.2 -0.15,-0.56 -0.33,-1.13 -0.54,-1.7 -1.29,-3.51 -3.35,-6.19 -5.26,-7.13 -0.15,-0.1 -0.38,-0.19 -0.7,-0.26 -0.14,-0.04 -0.28,-0.06 -0.42,-0.08l-0 -0c-2.54,-0.38 -3.92,1.47 -3.92,1.47l0 0c-1.47,1.61 -1.52,5.61 0.01,9.78 1.47,4 3.94,6.92 6.04,7.41l0 0c0,0 0.94,0.33 2.48,-0.23l0.01 -0.01c-0.11,-0.19 -0.24,-0.36 -0.35,-0.51 -0.02,0.01 -0.05,0.01 -0.07,0.02 -0.04,-0.01 -0.08,-0.02 -0.12,-0.03 -0.03,-0.02 -0.08,-0.03 -0.14,-0.04 -2.06,-0.62 -4.42,-3.49 -5.84,-7.36 -1.51,-4.11 -1.48,-8.05 -0.08,-9.71 0.03,-0.02 0.06,-0.03 0.09,-0.04z"/>
   <path class="fil5" d="M63.35 100.98c2.14,0.34 4.73,3.33 6.25,7.45 0.14,0.39 0.27,0.77 0.38,1.15 0.65,-0.16 1.41,-0.21 2.17,-0.2 -0.15,-0.56 -0.33,-1.13 -0.54,-1.7 -0.06,-0.15 -0.11,-0.31 -0.17,-0.46 -0.2,-0.49 -0.42,-0.98 -0.64,-1.45 -1.14,-2.32 -2.59,-4.1 -4,-4.97 -1.94,-0.8 -2.99,-0.28 -3.49,0.19 0.01,-0.01 0.03,-0.01 0.04,-0.02zm6.26 17.3c-0.03,-0.05 -0.07,-0.09 -0.1,-0.14 -0.02,0.01 -0.05,0.01 -0.07,0.02 -0.04,-0.01 -0.08,-0.02 -0.12,-0.03 -0.03,-0.02 -0.08,-0.03 -0.14,-0.04 -0.09,-0.03 -0.18,-0.06 -0.27,-0.09l0 0c0.23,0.14 0.47,0.23 0.7,0.28zm-6.68 -16.78c0.06,-0.1 0.12,-0.19 0.18,-0.28 -0.13,0.16 -0.18,0.28 -0.18,0.28l0 0z"/>
  </g>
 </g>
</svg>
