<?xml version="1.0" encoding="UTF-8"?>
<!DOCTYPE svg PUBLIC "-//W3C//DTD SVG 1.1//EN" "http://www.w3.org/Graphics/SVG/1.1/DTD/svg11.dtd">
<!-- Creator: CorelDRAW 2020 (64-Bit) -->
<svg xmlns="http://www.w3.org/2000/svg" xml:space="preserve" width="58.3436mm" height="80.6496mm" version="1.1" style="shape-rendering:geometricPrecision; text-rendering:geometricPrecision; image-rendering:optimizeQuality; fill-rule:evenodd; clip-rule:evenodd"
viewBox="0 0 100.9 139.48"
 xmlns:xlink="http://www.w3.org/1999/xlink"
 xmlns:xodm="http://www.corel.com/coreldraw/odm/2003">
 <defs>
  <style type="text/css">
   <![CDATA[
    .fil8 {fill:none}
    .fil16 {fill:#EBECEC}
    .fil12 {fill:#D9DADA}
    .fil13 {fill:#C5C6C6}
    .fil9 {fill:#C2C3C3}
    .fil10 {fill:#727271}
    .fil19 {fill:#262626}
    .fil20 {fill:#7B7B7B}
    .fil7 {fill:#828282}
    .fil4 {fill:#93937F}
    .fil11 {fill:#9E9E9E}
    .fil1 {fill:#A6A694}
    .fil14 {fill:#A8A8A8}
    .fil22 {fill:#B4B4B4}
    .fil21 {fill:#CFCFCF}
    .fil3 {fill:#E5E5E5}
    .fil18 {fill:#F2CC51}
    .fil17 {fill:#FBFBFB}
    .fil0 {fill:#FFAA00}
    .fil2 {fill:white}
    .fil15 {fill:#727271;fill-rule:nonzero}
    .fil5 {fill:#363636;fill-rule:nonzero}
    .fil6 {fill:#FFAA00;fill-rule:nonzero}
   ]]>
  </style>
 </defs>
 <g id="Layer_x0020_1">
  <metadata id="CorelCorpID_0Corel-Layer"/>
  <circle class="fil0" transform="matrix(0.797099 -0.265579 -0.265579 -0.797099 51.7401 78.8077)" r="50.54"/>
  <circle class="fil0" transform="matrix(0.383919 -0.127915 -0.127915 -0.383919 34.9962 30.2622)" r="50.54"/>
  <circle class="fil0" transform="matrix(0.18686 -0.0622584 -0.0622584 -0.18686 58.7779 9.95698)" r="50.54"/>
  <circle class="fil0" transform="matrix(0.415215 -0.138343 -0.138343 -0.415215 57.1478 111.74)" r="50.54"/>
  <path class="fil0" d="M32.9 138.75c7.46,-2.49 11.5,-10.55 9.01,-18.02 -2.49,-7.46 -10.55,-11.5 -18.02,-9.01 -7.46,2.49 -11.5,10.55 -9.01,18.02 2.49,7.46 10.55,11.5 18.02,9.01zm-0.04 -20.05c2.98,2.36 3.48,6.69 1.12,9.67 -2.36,2.98 -6.69,3.48 -9.67,1.12 -2.98,-2.36 -3.48,-6.69 -1.12,-9.67 2.36,-2.98 6.69,-3.48 9.67,-1.12z"/>
  <g id="_2568197704176">
   <g>
    <g>
     <path id="_158226192" class="fil1" d="M21.98 19.75c13.91,-4.95 27.67,-10.31 41.33,-15.95 0.52,-0.2 1.1,0.06 1.29,0.58 1.26,6.94 11.86,38.13 20.04,58.4 0.19,0.52 -0.08,1.11 -0.59,1.31 -13.78,5.32 -30.16,12.32 -37.66,15.8 -0.52,0.2 -1.1,-0.06 -1.29,-0.58 -7.52,-16.62 -18,-41.66 -23.71,-58.26 -0.19,-0.52 0.07,-1.11 0.59,-1.31z"/>
     <path id="_158225880" class="fil2" d="M22.95 19.8c13.34,-4.54 26.54,-9.46 39.64,-14.66 0.5,-0.18 1.06,0.07 1.24,0.57 1.2,6.63 11.35,36.5 19.18,55.92 0.18,0.5 -0.07,1.05 -0.57,1.24 -13.22,4.89 -28.93,11.35 -36.12,14.57 -0.5,0.18 -1.06,-0.07 -1.24,-0.57 -7.2,-15.94 -17.23,-39.95 -22.7,-55.84 -0.18,-0.5 0.07,-1.06 0.57,-1.24l0 -0z"/>
     <path id="_158217528" class="fil3" d="M80.48 55.19c0.86,2.24 1.71,4.4 2.54,6.45 0.18,0.5 -0.07,1.06 -0.57,1.24 -13.22,4.89 -28.93,11.35 -36.12,14.57 -0.5,0.18 -1.06,-0.07 -1.24,-0.57 -4.31,-9.54 -9.63,-21.96 -14.38,-33.81 9.92,2.97 27.67,7.87 49.78,12.12z"/>
     <path id="_158223312" class="fil4" d="M81.87 62.62c-13.05,4.85 -28.28,11.12 -35.33,14.28 -0.5,0.18 -1.06,-0.07 -1.24,-0.57 -2.21,-4.88 -4.68,-10.52 -7.2,-16.45l7.47 16.16c0,0 0.38,0.65 1.6,0.16 1.07,-0.44 26.63,-11.05 34.71,-13.58z"/>
    </g>
    <path id="_158225352" class="fil5" d="M34.56 41.12c-0.29,0.11 -0.61,-0.04 -0.71,-0.32 -0.11,-0.29 0.04,-0.61 0.32,-0.71l31.7 -11.95c0.29,-0.11 0.61,0.04 0.71,0.32 0.11,0.29 -0.04,0.61 -0.32,0.71l-31.7 11.95zm-1.5 -3.75c-0.29,0.11 -0.61,-0.04 -0.71,-0.33 -0.11,-0.29 0.04,-0.61 0.33,-0.71l31.69 -11.81c0.29,-0.11 0.61,0.04 0.71,0.33 0.11,0.29 -0.04,0.61 -0.33,0.71l-31.69 11.81zm13.53 33.76c-0.28,0.12 -0.61,-0.02 -0.72,-0.3 -0.12,-0.28 0.02,-0.61 0.3,-0.72l31.7 -13.06c0.28,-0.12 0.61,0.02 0.72,0.3 0.12,0.28 -0.02,0.61 -0.3,0.72l-31.7 13.06zm-1.5 -3.75c-0.28,0.11 -0.61,-0.02 -0.72,-0.3 -0.12,-0.28 0.02,-0.61 0.3,-0.72l31.7 -12.92c0.28,-0.12 0.61,0.02 0.72,0.3 0.12,0.28 -0.02,0.61 -0.3,0.72l-31.7 12.92zm-1.5 -3.75c-0.28,0.11 -0.61,-0.02 -0.72,-0.31 -0.11,-0.28 0.02,-0.61 0.31,-0.72l31.7 -12.79c0.28,-0.11 0.61,0.02 0.72,0.31 0.11,0.28 -0.02,0.61 -0.31,0.72l-31.7 12.79zm-1.5 -3.75c-0.28,0.11 -0.61,-0.03 -0.72,-0.31 -0.11,-0.28 0.03,-0.61 0.31,-0.72l31.7 -12.65c0.28,-0.11 0.61,0.03 0.72,0.31 0.11,0.28 -0.03,0.61 -0.31,0.72l-31.7 12.65zm-1.5 -3.75c-0.28,0.11 -0.61,-0.03 -0.72,-0.31 -0.11,-0.28 0.03,-0.61 0.31,-0.72l31.7 -12.51c0.28,-0.11 0.61,0.03 0.72,0.31 0.11,0.28 -0.03,0.61 -0.31,0.72l-31.7 12.51zm-1.5 -3.75c-0.29,0.11 -0.61,-0.03 -0.72,-0.32 -0.11,-0.29 0.03,-0.61 0.32,-0.72l31.7 -12.37c0.29,-0.11 0.61,0.03 0.72,0.32 0.11,0.29 -0.03,0.61 -0.32,0.72l-31.7 12.37zm-1.5 -3.75c-0.29,0.11 -0.61,-0.03 -0.71,-0.32 -0.11,-0.29 0.03,-0.61 0.32,-0.71l31.7 -12.23c0.29,-0.11 0.61,0.03 0.71,0.32 0.11,0.29 -0.03,0.61 -0.32,0.71l-31.7 12.23zm-1.5 -3.75c-0.28,0.11 -0.6,-0.04 -0.71,-0.32 -0.11,-0.29 0.04,-0.6 0.32,-0.71l31.7 -12.09c0.29,-0.11 0.6,0.04 0.71,0.32 0.11,0.29 -0.04,0.6 -0.32,0.71l-31.7 12.09z"/>
   </g>
   <path class="fil6" d="M32.41 32.52c-0.56,-1.72 -1.02,-3.46 -1.65,-5.15 -0.62,-1.69 -1.53,-3.27 -2.65,-4.78 0.45,-0.17 0.9,-0.34 1.34,-0.51 0.49,0.63 0.95,1.27 1.32,1.94 0.37,0.67 0.67,1.37 0.96,2.08 0.26,-0.16 0.42,-0.36 0.45,-0.61 0.03,-0.24 -0.04,-0.78 -0.21,-1.6 -0.22,-0.8 -0.34,-1.39 -0.35,-1.79 -0.02,-0.39 0.05,-0.66 0.24,-0.82 0.18,-0.16 0.54,-0.35 1.08,-0.59 0.31,0.44 0.6,0.89 0.86,1.35 -0.06,0.02 -0.12,0.05 -0.18,0.07 -0.37,0.14 -0.55,0.34 -0.57,0.59 -0.02,0.26 0.05,0.7 0.18,1.36 0.12,0.65 0.17,1.11 0.14,1.35 -0.02,0.24 -0.1,0.5 -0.24,0.79 0.33,0.04 0.64,0.19 0.93,0.45 0.29,0.27 0.68,0.75 1.17,1.44 0.28,0.4 0.56,0.8 0.85,1.2 0.29,0.4 0.59,0.79 0.9,1.18 -0.5,0.22 -0.99,0.43 -1.48,0.65 -0.55,-0.75 -1.08,-1.51 -1.6,-2.28 -0.39,-0.59 -0.7,-0.99 -0.92,-1.2 -0.22,-0.21 -0.47,-0.26 -0.74,-0.15 0.24,0.74 0.47,1.49 0.69,2.24 0.22,0.75 0.47,1.49 0.72,2.23 -0.41,0.19 -0.83,0.38 -1.24,0.57zm10.96 -4.71c-0.46,0.18 -0.93,0.37 -1.38,0.55 -0.46,-0.65 -0.9,-1.31 -1.31,-1.98 -0.84,0.34 -1.68,0.68 -2.52,1.03 0.07,0.82 0.14,1.64 0.24,2.45 -0.45,0.19 -0.9,0.39 -1.35,0.58 -0.16,-1.83 -0.23,-3.67 -0.4,-5.49 -0.16,-1.79 -0.48,-3.54 -0.91,-5.23 0.48,-0.18 0.96,-0.36 1.44,-0.55 1.23,1.37 2.34,2.78 3.31,4.26 0.96,1.46 1.87,2.95 2.88,4.39zm-3.62 -2.94c-0.34,-0.55 -0.68,-1.1 -1.04,-1.65 -0.36,-0.55 -0.74,-1.09 -1.14,-1.62 0.11,0.65 0.19,1.3 0.27,1.96 0.08,0.66 0.13,1.33 0.19,2 0.58,-0.23 1.15,-0.46 1.72,-0.69zm7.13 -2.43c0.48,0.05 0.95,0.1 1.43,0.15 0.17,1.17 0.12,2.08 -0.14,2.74 -0.25,0.65 -0.7,1.1 -1.36,1.35 -0.83,0.31 -1.67,0.18 -2.49,-0.41 -0.46,-0.35 -0.86,-0.8 -1.2,-1.38 -0.34,-0.57 -0.63,-1.26 -0.88,-2.05 -0.27,-0.83 -0.45,-1.6 -0.54,-2.3 -0.09,-0.7 -0.08,-1.33 0.04,-1.91 0.2,-0.99 0.78,-1.67 1.71,-2.02 0.76,-0.28 1.47,-0.21 2.18,0.21 0.5,0.3 0.98,0.85 1.41,1.66 -0.38,0.31 -0.76,0.63 -1.13,0.94 -0.26,-0.5 -0.55,-0.84 -0.9,-1.03 -0.35,-0.19 -0.69,-0.22 -1.03,-0.09 -0.48,0.18 -0.78,0.58 -0.89,1.2 -0.06,0.31 -0.05,0.69 0.02,1.14 0.07,0.45 0.2,0.97 0.39,1.56 0.2,0.62 0.39,1.13 0.6,1.54 0.2,0.41 0.43,0.72 0.65,0.92 0.46,0.41 0.92,0.53 1.38,0.36 0.34,-0.13 0.57,-0.4 0.71,-0.82 0.13,-0.42 0.15,-1.01 0.03,-1.78zm3.65 2.72c-0.64,-1.59 -1.18,-3.23 -1.68,-4.88 -0.5,-1.65 -1,-3.3 -1.48,-4.95 0.45,-0.17 0.9,-0.34 1.35,-0.51 0.17,0.72 0.37,1.43 0.58,2.14 0.21,0.71 0.41,1.42 0.62,2.12 0.27,-0.15 0.44,-0.35 0.49,-0.59 0.05,-0.24 0.06,-0.78 0.03,-1.62 -0.04,-0.84 0.01,-1.48 0.12,-1.91 0.12,-0.44 0.3,-0.74 0.52,-0.91 0.22,-0.17 0.61,-0.37 1.17,-0.62 0.06,0.53 0.17,1.05 0.28,1.57 -0.07,0.02 -0.13,0.05 -0.19,0.07 -0.37,0.14 -0.59,0.34 -0.67,0.61 -0.07,0.27 -0.1,0.74 -0.07,1.42 0.03,0.67 0.02,1.13 -0.02,1.37 -0.04,0.24 -0.14,0.5 -0.29,0.77 0.33,0.05 0.62,0.21 0.9,0.49 0.28,0.28 0.66,0.77 1.16,1.46 0.29,0.41 0.6,0.8 0.91,1.2 0.32,0.4 0.65,0.79 1.01,1.17 -0.51,0.17 -1.02,0.34 -1.53,0.51 -0.63,-0.73 -1.21,-1.48 -1.75,-2.24 -0.41,-0.58 -0.72,-0.98 -0.94,-1.19 -0.21,-0.21 -0.46,-0.27 -0.74,-0.18 0.22,0.72 0.44,1.45 0.68,2.16 0.24,0.71 0.52,1.42 0.82,2.1 -0.43,0.15 -0.87,0.3 -1.29,0.45zm3.5 -6.66c-0.17,-0.6 -0.28,-1.17 -0.35,-1.69 -0.06,-0.53 -0.07,-1.01 -0.02,-1.46 0.09,-0.9 0.35,-1.65 0.75,-2.21 0.42,-0.59 1,-1.02 1.66,-1.27 0.97,-0.36 1.73,-0.13 2.42,0.64 0.35,0.39 0.67,0.89 0.95,1.53 0.28,0.63 0.53,1.38 0.76,2.25 0.23,0.88 0.38,1.68 0.45,2.4 0.07,0.72 0.06,1.36 -0.05,1.93 -0.18,0.99 -0.7,1.62 -1.63,1.92 -0.94,0.3 -1.87,0.15 -2.76,-0.47 -0.49,-0.36 -0.92,-0.83 -1.28,-1.42 -0.36,-0.59 -0.66,-1.31 -0.9,-2.14zm1.31 -0.53c0.33,1.17 0.78,1.98 1.3,2.44 0.55,0.46 1.08,0.6 1.58,0.44 0.51,-0.17 0.82,-0.59 0.95,-1.28 0.07,-0.34 0.07,-0.75 0.02,-1.23 -0.05,-0.48 -0.17,-1.02 -0.33,-1.64 -0.31,-1.21 -0.67,-2.06 -1.12,-2.53 -0.45,-0.47 -0.93,-0.61 -1.47,-0.41 -0.53,0.2 -0.91,0.65 -1.12,1.35 -0.1,0.35 -0.14,0.77 -0.11,1.24 0.03,0.47 0.12,1.01 0.29,1.61z"/>
  </g>
  <g id="_2568197704800">
   <g>
    <path class="fil7" d="M4.42 68.86l0.38 -1.86c0,0 0.3,-0.57 -0.03,-1.46 -0.32,-0.89 -0.89,-2.78 -0.89,-2.78 0,0 -0.16,-1.08 0.65,-0.95 0.81,0.14 2.51,0.49 2.51,0.49 0,0 0.49,0.05 1.48,0.08 1,0.03 40.65,-0.08 40.65,-0.08 0,0 4.55,0.16 7.94,0.76 3.4,0.59 3.91,1.22 3.91,1.62 0,0.41 -0.23,0.43 -0.23,0.43 0,0 -0.33,0.04 0.17,0.78 0.5,0.74 7.36,10.72 7.36,10.72 0,0 0.27,0.34 0.89,0.34 0.62,0 6.04,0.03 10.13,0.3 4.1,0.27 11.16,1.35 13.5,2.13 2.34,0.78 2.88,1.84 3.07,2.19 0.19,0.35 1.81,4.75 1.81,5.08 0,0.32 0.32,0.59 0.7,0.59 0.38,0 1.83,0 1.83,0 0,0 0.51,-0.03 0.5,0.99 -0.01,1.01 -0.7,4.93 -0.7,4.93 0,0 -0.12,0.28 -0.61,0.77 -0.49,0.49 -1.99,1.59 -1.99,1.59 0,0 -0.21,0.1 -0.65,0.08 -0.44,-0.03 -0.7,-0.03 -0.7,-0.03 0,0 -0.26,-0 -0.5,0.22 -0.24,0.22 -2.02,1.86 -4.31,1.76 -8.71,-0.41 -17.52,-0.11 -26.25,-0.11 -0.38,0 -0.99,-0 -1.77,-0.01 -6.89,-0.04 -27.52,-0.21 -27.52,-0.21 0,0 -2.2,0.61 -3.05,0.65 -0.85,0.04 -3.53,-0.19 -3.53,-0.19 -7.87,-0.48 -15.89,-0.53 -23.72,-1.24 0,0 -0.09,-0.05 -0.12,-0.23 -0.03,-0.18 -0.35,-0.7 -1.06,-0.69 -0.71,0.01 -2.12,-0.04 -2.12,-0.04 0,0 -0.18,-0.04 -0.43,-0.34 -0.26,-0.3 -0.97,-1.12 -1.15,-1.34 -0.18,-0.22 -0.19,-0.22 -0.35,-1.11 -0.16,-0.89 -0.17,-1.43 -0.22,-1.72 -0.04,-0.28 0.18,-0.41 0.63,-0.62 0.46,-0.22 1.17,-0.49 1.17,-0.49 0,0 0.39,-0.11 0.44,-0.64 0.05,-0.53 -0.03,-10.56 -0.03,-10.56 0.77,-3.26 1.48,-6.52 2.2,-9.8z"/>
    <path class="fil8" d="M42.17 97.26l-6.43 -0.05c0,0 -2.2,0.61 -3.05,0.65 -0.85,0.04 -3.53,-0.19 -3.53,-0.19 -7.87,-0.48 -15.89,-0.53 -23.72,-1.24 0,0 -0.09,-0.05 -0.12,-0.23 -0.03,-0.18 -0.35,-0.7 -1.06,-0.69 -0.71,0.01 -2.12,-0.04 -2.12,-0.04 0,0 -0.18,-0.04 -0.43,-0.34 -0.26,-0.3 -0.97,-1.12 -1.15,-1.34 -0.18,-0.22 -0.19,-0.22 -0.35,-1.11 -0.16,-0.89 -0.17,-1.43 -0.22,-1.72 -0.04,-0.28 0.18,-0.41 0.63,-0.62 0.46,-0.22 1.17,-0.49 1.17,-0.49 0,0 0.14,-0.04 0.27,-0.19l5.01 0c0.22,0 0.62,-0.11 0.78,-0.57 0.16,-0.46 1.9,-3.27 2.17,-3.71 0.27,-0.43 0.85,-1.33 2.59,-1.33 1.74,0 8.58,-0.01 8.58,-0.01 0,0 2.48,-0.24 3.83,1.38 1.35,1.62 5.42,7.97 5.42,7.97 0,0 0.46,0.43 1.37,0.43 0.92,0 9.17,0 9.17,0 0,0 1.14,2.04 1.17,3.43z"/>
    <path class="fil9" d="M7.09 89.67l0 0c0.22,0 0.62,-0.11 0.78,-0.57 0.16,-0.46 1.9,-3.27 2.17,-3.71 0.27,-0.43 0.85,-1.33 2.59,-1.33 1.74,0 8.58,-0.01 8.58,-0.01 0,0 2.48,-0.24 3.83,1.38 1.35,1.62 5.42,7.97 5.42,7.97l0.02 0.02c-0.52,0.48 -1.69,0.13 -2.17,-0.62 -0.84,-1.32 -2.96,-4.5 -4.09,-6.03 -1.13,-1.53 -2.69,-1.53 -3.45,-1.56 -0.76,-0.02 -4.64,-0.03 -6.96,-0.04 -2.33,-0.01 -2.7,0.95 -2.95,1.3 -0.26,0.35 -0.47,0.69 -1.04,1.62 -0.56,0.93 -0.6,1.17 -1.32,1.47 -0.39,0.16 -1.02,0.22 -1.42,0.11z"/>
    <path class="fil10" d="M5.38 96.35c-0.02,-0.04 -0.05,-0.09 -0.06,-0.16 -0.03,-0.18 -0.35,-0.7 -1.06,-0.69 -0.71,0.01 -2.12,-0.04 -2.12,-0.04 0,0 -0.18,-0.04 -0.43,-0.34 -0.24,-0.28 -0.88,-1.02 -1.11,-1.29l5.24 0 0.43 0c0,0 0.24,-0 0.08,0.22 -0.16,0.22 -0.95,2.04 -0.95,2.04 0,0 -0.04,0.14 -0.02,0.26z"/>
    <path class="fil11" d="M0.11 90.66c0.1,-0.1 0.28,-0.19 0.53,-0.31 0.46,-0.22 1.17,-0.49 1.17,-0.49 0,0 0.14,-0.04 0.27,-0.19l4.48 0c0.86,0.36 0.17,0.99 -0.23,0.99l-6.23 0z"/>
    <path class="fil9" d="M68.93 93.73l0 0c0.22,0 0.62,-0.11 0.78,-0.57 0.16,-0.46 4.04,-7.34 4.31,-7.77 0.27,-0.43 0.85,-1.33 2.59,-1.33 1.74,0 8.58,-0.01 8.58,-0.01 0,0 2.48,-0.24 3.83,1.38 1.35,1.62 5.42,7.97 5.42,7.97l0.02 0.02c-0.52,0.48 -1.69,0.13 -2.17,-0.62 -0.84,-1.32 -2.96,-4.5 -4.09,-6.03 -1.13,-1.53 -2.69,-1.53 -3.45,-1.56 -0.76,-0.02 -4.64,-0.03 -6.96,-0.04 -2.33,-0.01 -2.7,0.95 -2.95,1.3 -0.26,0.35 -2.61,4.75 -3.17,5.68 -0.56,0.93 -0.77,1.24 -1.32,1.47 -0.55,0.23 -1.02,0.22 -1.42,0.11z"/>
    <path class="fil10" d="M97.93 95.15c-0.28,0.21 -0.48,0.36 -0.48,0.36 0,0 -0.21,0.1 -0.65,0.08 -0.44,-0.03 -0.7,-0.03 -0.7,-0.03 0,0 -0.26,-0 -0.5,0.22 -0.24,0.22 -2.02,1.86 -4.31,1.76 -8.71,-0.41 -17.52,-0.11 -26.25,-0.11 -0.38,0 -0.99,-0 -1.77,-0.01 -6.89,-0.04 -27.52,-0.21 -27.52,-0.21 0,0 -2.2,0.61 -3.05,0.65 -0.85,0.04 -3.53,-0.19 -3.53,-0.19 -7.87,-0.48 -15.89,-0.53 -23.72,-1.24 0,0 -0.08,-0.04 -0.11,-0.18 0.52,0.02 1.57,0.06 1.71,0.06 0.18,0.01 0.39,-0.14 0.47,-0.45 0.02,-0.09 0.05,-0.38 0.13,-0.82 0.59,-5.05 4.88,-8.98 10.09,-8.98 4.92,0 9.02,3.49 9.96,8.13 0.05,0.19 0.09,0.36 0.13,0.51 0.22,0.99 0.24,1.75 0.45,1.75 0.22,0 42.35,0.22 42.35,0.22 0,0 0.36,-0.03 0.54,-0.5 0.03,-5.59 4.57,-10.09 10.16,-10.11 4.56,-0.02 7.67,2.55 9.54,6.05 1.53,2.87 1.66,3.07 2.98,3.16 1.32,0.09 2.63,-0.06 2.89,-0.06 0.15,0 0.65,0.06 1.19,-0.04z"/>
    <path class="fil10" d="M28.89 94.01l41.14 0c0.12,0 0.25,0.1 0.22,0.22l-0.44 1.25c-0.04,0.11 -0.1,0.22 -0.22,0.22l-39.9 0c-0.12,0 -0.22,-0.1 -0.22,-0.22l-0.8 -1.25c0,-0.12 0.1,-0.22 0.22,-0.22z"/>
    <rect class="fil12" x="96.1" y="81.1" width="1.88" height="5.49" rx="0.71" ry="0.71"/>
    <path class="fil12" d="M100.73 90.16l-8 0c-0.1,0 -0.17,0.08 -0.17,0.17l2.3 3.42c0.06,0.1 0.1,0.17 0.2,0.17l5.12 0c0.1,0 0.17,-0.08 0.17,-0.17l0.55 -3.42c0,-0.1 -0.08,-0.17 -0.17,-0.17z"/>
    <rect class="fil13" x="97.09" y="91.02" width="2.65" height="2.1" rx="0.12" ry="0.12"/>
    <path class="fil14" d="M4.42 68.86l0.38 -1.86c0,0 0.1,-0.19 0.12,-0.52 0.33,-0.98 0.89,-1.83 1.93,-1.83 17.3,0 34.59,0 51.89,0 0.81,-0.01 1.29,-0.16 2.22,1.24 0.5,0.74 7.36,10.72 7.36,10.72 0,0 0.27,0.34 0.89,0.34 0.62,0 6.04,0.03 10.13,0.3 4.1,0.27 11.16,1.35 13.5,2.13 1.08,0.36 1.78,0.78 2.24,1.16 -30.38,0 -60.75,0 -91.13,0 -1.31,-0 -1.69,-0.86 -1.73,-1.88 0.77,-3.26 1.48,-6.52 2.2,-9.8z"/>
    <ellipse class="fil9" cx="49.44" cy="87.31" rx="20.63" ry="0.26"/>
    <path class="fil15" d="M3.62 79.16c-0.11,0 -0.2,-0.09 -0.2,-0.2 0,-0.11 0.09,-0.2 0.2,-0.2l24.41 0 40.88 0 0.01 0c0.45,-0 11.01,-0.11 15.71,0.53 2.69,0.36 4.37,0.66 5.45,0.86 0.84,0.15 1.32,0.24 1.62,0.24l2.91 0c0.11,0 0.2,0.09 0.2,0.2 0,0.11 -0.09,0.2 -0.2,0.2l-2.91 0c-0.33,0 -0.82,-0.09 -1.69,-0.24 -1.09,-0.19 -2.77,-0.49 -5.43,-0.85 -4.69,-0.63 -15.24,-0.53 -15.66,-0.53l-0.02 0 -40.88 0 -24.41 0z"/>
    <path class="fil15" d="M42.2 65.03l-15.19 0c-0.26,0 -0.48,0.1 -0.64,0.27l-0 0c-0.19,0.18 -0.31,0.45 -0.34,0.74 -0.3,2.39 -0.55,5.1 -0.75,7.32 -0.09,0.95 -0.17,1.82 -0.24,2.5l0 7.2c0,0.48 0.22,0.8 0.48,1.19 0.06,0.09 0.12,0.17 0.18,0.27l4.72 7.38c0.24,0.36 0.42,0.62 0.59,0.78l0 -0c0.14,0.14 0.26,0.21 0.38,0.21l0 0 10.83 0.06 0 -0 0.01 0c0.27,0 0.51,-0.11 0.69,-0.29l0 0c0.18,-0.18 0.29,-0.42 0.29,-0.69l-0 0 0 -0.01 0 -13.04 0 -12.91c0,-0.27 -0.11,-0.52 -0.29,-0.7 -0.18,-0.18 -0.43,-0.29 -0.7,-0.29zm-15.19 -0.39l15.19 0c0.38,0 0.72,0.15 0.97,0.4l0 0c0.25,0.25 0.4,0.59 0.4,0.97l0 12.91 0 13.04 0 0.01 -0 0c-0,0.38 -0.16,0.72 -0.4,0.96l0 0c-0.25,0.25 -0.59,0.4 -0.97,0.4l-0.01 0 -0 -0 -10.83 -0.06 -0 0c-0.24,-0 -0.44,-0.11 -0.65,-0.32l0 -0c-0.19,-0.19 -0.39,-0.47 -0.64,-0.85l-0 -0 -4.72 -7.39c-0.06,-0.09 -0.12,-0.18 -0.17,-0.26 -0.3,-0.44 -0.54,-0.81 -0.54,-1.4l0 -7.2 0 -0 0 -0.02c0.07,-0.72 0.15,-1.57 0.24,-2.51 0.2,-2.22 0.45,-4.94 0.76,-7.34 0.05,-0.38 0.21,-0.72 0.45,-0.97l0 -0 0 -0c0.24,-0.24 0.55,-0.38 0.92,-0.38zm19.19 0l12.39 0c0.38,0 0.66,0.13 0.93,0.38 0.24,0.23 0.47,0.56 0.75,0.97l0 0c0.69,1.05 1.44,2.24 2.2,3.43 0.6,0.94 1.19,1.88 1.73,2.72l0 -0 0.45 0.68c0.98,1.5 1.79,2.73 1.9,3.76l0 0.02 0 0 0 7.2c0,0.78 0.03,3.53 0.06,5.63 0.02,1.46 0.03,2.62 -0,2.67l-0 0c-0.25,0.38 -0.45,0.66 -0.64,0.85 -0.22,0.22 -0.42,0.32 -0.65,0.33l-0 0 -19.11 0.06 0 0 -0 0c-0.38,0 -0.72,-0.15 -0.97,-0.4l-0 0c-0.25,-0.25 -0.4,-0.59 -0.4,-0.97l-0 0 0 -0 0 -13.04 0 -12.91c0,-0.38 0.15,-0.72 0.4,-0.97l0 -0c0.25,-0.25 0.59,-0.4 0.97,-0.4zm12.39 0.39l-12.39 0c-0.27,0 -0.52,0.11 -0.69,0.29l-0 0c-0.18,0.18 -0.29,0.42 -0.29,0.69l0 12.91 0 13.04 0 0 -0 0c0,0.27 0.11,0.51 0.29,0.69l0 0c0.18,0.18 0.42,0.29 0.69,0.29l0 0 0 0 19.11 -0.06 0 0c0.12,-0 0.24,-0.07 0.38,-0.21 0.17,-0.17 0.36,-0.43 0.59,-0.78 0.02,-0.05 -0.04,-1.07 -0.06,-2.45 -0.03,-2.15 -0.06,-4.98 -0.06,-5.64l0 -7.2c-0.1,-0.92 -0.88,-2.11 -1.83,-3.57l-0.45 -0.68 0 -0c-0.57,-0.88 -1.16,-1.8 -1.74,-2.72 -0.77,-1.22 -1.54,-2.43 -2.2,-3.43l-0 0c-0.27,-0.39 -0.48,-0.7 -0.69,-0.9 -0.19,-0.18 -0.39,-0.28 -0.66,-0.28z"/>
    <path class="fil16" d="M28.76 65.79l11.86 0c0.62,0 1.12,0.5 1.12,1.12l0 8.65c0,0.62 -0.51,1.12 -1.12,1.12l-12.46 0c-0.62,0 -1.16,-0.51 -1.12,-1.12l0.6 -8.65c0.04,-0.62 0.5,-1.12 1.12,-1.12z"/>
    <path class="fil15" d="M28.76 65.59l11.86 0c0.36,0 0.69,0.15 0.93,0.39l0 0c0.24,0.24 0.39,0.57 0.39,0.93l0 8.65c0,0.36 -0.15,0.69 -0.39,0.93l-0 0c-0.24,0.24 -0.57,0.39 -0.93,0.39l-12.46 0 -0.01 -0 -0.08 -0 -0.01 0c-0.33,-0.02 -0.63,-0.17 -0.86,-0.39 -0.23,-0.22 -0.37,-0.52 -0.37,-0.86l0 -0.01 0 -0.07 0 -0.01 0.6 -8.65c0.02,-0.36 0.18,-0.69 0.41,-0.93 0.23,-0.23 0.55,-0.38 0.9,-0.38zm11.86 0.39l-11.86 0c-0.25,0 -0.47,0.1 -0.63,0.26 -0.17,0.17 -0.28,0.41 -0.3,0.68l-0.6 8.65 -0 0 -0 0.05 0 0c0,0.22 0.1,0.43 0.25,0.58 0.16,0.16 0.38,0.26 0.61,0.27l0 0 0.07 0 0 -0 12.46 0c0.25,0 0.49,-0.1 0.65,-0.27l0 -0c0.17,-0.17 0.27,-0.4 0.27,-0.65l0 -8.65c0,-0.25 -0.1,-0.49 -0.27,-0.65l-0 -0c-0.17,-0.17 -0.4,-0.27 -0.65,-0.27z"/>
    <path class="fil16" d="M57.79 65.85l-10.27 -0.07c-0.62,0 -1.12,0.5 -1.12,1.12l0 8.65c0,0.62 0.51,1.12 1.12,1.12l15.4 0c0.62,0 1.19,-0.55 1.14,-1.17 0,-0.16 -0.22,-0.7 -0.76,-1.59 -1.32,-2.17 -3.56,-6.08 -4.12,-6.97 -0.61,-0.85 -0.76,-1.1 -1.38,-1.1z"/>
    <path class="fil15" d="M57.79 66.05l-10.27 -0.07 0 0c-0.25,0 -0.49,0.1 -0.65,0.27 -0.17,0.17 -0.27,0.4 -0.27,0.65l0 8.65c0,0.25 0.1,0.49 0.27,0.65l0 0c0.17,0.17 0.4,0.27 0.65,0.27l15.4 0 0 0 0.06 -0 0 -0c0.23,-0.02 0.46,-0.13 0.62,-0.3 0.16,-0.16 0.27,-0.38 0.27,-0.61l0 0 -0 -0.06 0 -0.01c0,-0.06 -0.06,-0.23 -0.19,-0.5 -0.12,-0.25 -0.3,-0.58 -0.55,-0.99 -0.71,-1.17 -1.7,-2.86 -2.55,-4.3 -0.71,-1.21 -1.31,-2.24 -1.57,-2.66l-0.07 -0.1c-0.5,-0.7 -0.65,-0.91 -1.14,-0.91l-0 -0zm-10.27 -0.46l10.27 0.07 0 -0c0.69,0 0.86,0.24 1.46,1.07l0.08 0.11 0.01 0.01c0.25,0.4 0.86,1.45 1.58,2.67 0.84,1.43 1.82,3.11 2.54,4.3 0.25,0.41 0.44,0.76 0.57,1.02 0.15,0.32 0.22,0.54 0.23,0.66l0 0.07 0 0.01c0,0.34 -0.15,0.65 -0.38,0.88 -0.23,0.23 -0.54,0.39 -0.87,0.41l-0.01 0 -0.07 0 -0.01 0 -15.4 0c-0.36,0 -0.69,-0.15 -0.93,-0.39l0 -0c-0.24,-0.24 -0.39,-0.57 -0.39,-0.93l0 -8.65c0,-0.36 0.15,-0.69 0.39,-0.93 0.24,-0.24 0.57,-0.39 0.93,-0.39l0 0z"/>
    <path class="fil16" d="M9.57 65.79l12.42 0c0.62,0 1.06,0.5 0.99,1.12l-1.02 8.65c-0.07,0.62 -0.64,1.12 -1.25,1.12l-13.02 0c-0.62,0 -1.1,-0.51 -0.99,-1.12l1.62 -8.65c0.12,-0.62 0.64,-1.12 1.25,-1.12z"/>
    <path class="fil15" d="M9.57 65.59l12.42 0c0.05,0 0.1,0 0.15,0.01 0.3,0.04 0.56,0.18 0.75,0.39l0 0c0.18,0.21 0.29,0.49 0.29,0.79 0,0.05 -0,0.1 -0.01,0.15l-1.02 8.65 0 0c-0.04,0.36 -0.23,0.68 -0.49,0.91 -0.26,0.23 -0.6,0.38 -0.96,0.38l-13.02 0c-0.08,0 -0.16,-0.01 -0.24,-0.02 -0.27,-0.05 -0.51,-0.19 -0.68,-0.38l0 -0c-0.17,-0.2 -0.28,-0.45 -0.28,-0.73l-0 0c0,-0.07 0.01,-0.14 0.02,-0.21l0 -0 1.62 -8.65c0.07,-0.36 0.25,-0.68 0.51,-0.91 0.25,-0.23 0.58,-0.37 0.93,-0.37zm12.42 0.39l-12.42 0c-0.25,0 -0.49,0.1 -0.67,0.27 -0.2,0.18 -0.34,0.42 -0.39,0.69l-1.62 8.65c-0.01,0.05 -0.01,0.09 -0.01,0.14l-0 0c0,0.18 0.07,0.35 0.18,0.47l0 -0c0.12,0.13 0.28,0.22 0.46,0.26 0.05,0.01 0.11,0.01 0.17,0.01l13.02 0c0.26,0 0.51,-0.11 0.7,-0.28 0.19,-0.17 0.33,-0.41 0.36,-0.67l1.02 -8.65c0,-0.04 0.01,-0.07 0.01,-0.11 0,-0.21 -0.07,-0.39 -0.2,-0.53l0 -0c-0.12,-0.14 -0.3,-0.23 -0.5,-0.26l-0 0c-0.03,-0 -0.07,-0.01 -0.1,-0.01z"/>
    <path class="fil15" d="M14.61 77.52l4.8 0c0.25,0 0.48,0.1 0.65,0.27 0.17,0.17 0.27,0.4 0.27,0.65l0 2.01c0,0.25 -0.1,0.48 -0.27,0.65 -0.17,0.17 -0.4,0.27 -0.65,0.27l-4.8 0c-0.25,0 -0.48,-0.1 -0.65,-0.27l-0 0c-0.17,-0.17 -0.27,-0.4 -0.27,-0.65l0 -2.01c0,-0.25 0.1,-0.48 0.27,-0.65l0 0c0.17,-0.17 0.4,-0.27 0.65,-0.27zm4.8 0.39l-4.8 0c-0.15,0 -0.28,0.06 -0.37,0.16l0 0c-0.1,0.1 -0.16,0.23 -0.16,0.37l0 2.01c0,0.15 0.06,0.28 0.16,0.37l-0 0c0.1,0.1 0.23,0.16 0.37,0.16l4.8 0c0.15,0 0.28,-0.06 0.37,-0.16 0.1,-0.1 0.16,-0.23 0.16,-0.37l0 -2.01c0,-0.15 -0.06,-0.28 -0.16,-0.37 -0.1,-0.1 -0.23,-0.16 -0.37,-0.16z"/>
    <rect class="fil10" x="25.86" y="81.75" width="3.78" height="1.59" rx="0.39" ry="0.39"/>
    <rect class="fil10" x="46.26" y="81.75" width="3.78" height="1.59" rx="0.39" ry="0.39"/>
    <path class="fil17" d="M56.76 66.21l-4.6 -0.03 6.22 10.13 4.1 0c0.15,0 0.29,-0.03 0.42,-0.09l-6.14 -10.01zm-5.55 -0.04l-0.99 -0.01 6.23 10.15 0.99 0 -6.23 -10.14z"/>
    <path class="fil17" d="M29.79 66.14l4.59 0 6.21 10.12c-0.12,0.05 -0.24,0.07 -0.38,0.07l-4.17 0 -6.25 -10.19zm5.31 10.19l-0.99 0 -5.9 -9.61c0.14,-0.27 0.37,-0.47 0.66,-0.54l6.23 10.16z"/>
    <path class="fil17" d="M13.7 66.11l1 0 6.25 10.17c-0.12,0.05 -0.26,0.07 -0.39,0.07l-0.56 0 -6.29 -10.25zm1.95 0l4.62 0 2.13 3.47 -0.67 5.72c-0.02,0.16 -0.07,0.32 -0.16,0.45l-5.92 -9.65z"/>
    <path class="fil14" d="M64.49 73.65l0 2.4c0,0.17 -0.14,0.29 -0.31,0.26 -1.23,-0.27 -2.15,-0.45 -3.42,-0.57 -0.61,-0.1 -0.31,-2.34 -0.31,-2.76 0,-0.55 4.05,0.12 4.05,0.68z"/>
    <path class="fil18" d="M2.08 83.38l1.4 0c0.39,0 0.7,0.32 0.7,0.7l0 3.53c0,0.36 -0.29,0.65 -0.65,0.65l-1.45 0c-0.15,0 -0.27,-0.12 -0.27,-0.27l0 -4.34c0,-0.15 0.12,-0.27 0.27,-0.27z"/>
    <g>
     <circle class="fil19" cx="17.69" cy="96.45" r="9.78"/>
     <path class="fil20" d="M17.62 90.02c3.64,-0.07 6.65,2.83 6.71,6.48 0.07,3.64 -2.83,6.65 -6.48,6.71 -3.64,0.07 -6.65,-2.83 -6.71,-6.48 -0.07,-3.64 2.83,-6.65 6.48,-6.71z"/>
     <path class="fil21" d="M17.71 95.5c0.61,-0.01 1.12,0.48 1.13,1.09 0.01,0.61 -0.48,1.12 -1.09,1.13 -0.61,0.01 -1.12,-0.48 -1.13,-1.09 -0.01,-0.61 0.48,-1.12 1.09,-1.13z"/>
     <path class="fil22" d="M17.63 90.78c3.08,-0.06 5.61,2.39 5.67,5.47 0.06,3.08 -2.39,5.61 -5.47,5.67 -3.08,0.06 -5.61,-2.39 -5.67,-5.47 -0.06,-3.08 2.39,-5.61 5.47,-5.67zm-0.04 1.03c2.64,-0.05 4.83,2.06 4.88,4.7 0.05,2.64 -2.06,4.83 -4.7,4.88 -2.64,0.05 -4.83,-2.06 -4.88,-4.7 -0.05,-2.64 2.06,-4.83 4.7,-4.88z"/>
     <path class="fil21" d="M17.69 93.94c1.48,-0.03 2.69,1.15 2.72,2.62 0.03,1.48 -1.15,2.69 -2.62,2.72 -1.48,0.03 -2.69,-1.15 -2.72,-2.62 -0.03,-1.48 1.15,-2.69 2.62,-2.72zm-0.15 1.07c1.08,-0.02 1.97,0.84 1.99,1.92 0.02,1.08 -0.84,1.97 -1.92,1.99 -1.08,0.02 -1.97,-0.84 -1.99,-1.92 -0.02,-1.08 0.84,-1.97 1.92,-1.99z"/>
     <path class="fil20" d="M9.13 92.98c1.14,-4.67 6.83,-6.98 11.38,-5.59 0.24,0.07 1.14,0.68 -0.13,0.42 -4.65,-1.13 -9.35,1.26 -11.25,5.17z"/>
    </g>
    <g>
     <circle class="fil19" cx="81.66" cy="96.45" r="9.78"/>
     <path class="fil20" d="M81.58 90.02c3.64,-0.07 6.65,2.83 6.71,6.48 0.07,3.64 -2.83,6.65 -6.48,6.71 -3.64,0.07 -6.65,-2.83 -6.71,-6.48 -0.07,-3.64 2.83,-6.65 6.48,-6.71z"/>
     <path class="fil21" d="M81.68 95.5c0.61,-0.01 1.12,0.48 1.13,1.09 0.01,0.61 -0.48,1.12 -1.09,1.13 -0.61,0.01 -1.12,-0.48 -1.13,-1.09 -0.01,-0.61 0.48,-1.12 1.09,-1.13z"/>
     <path class="fil22" d="M81.6 90.78c3.08,-0.06 5.61,2.39 5.67,5.47 0.06,3.08 -2.39,5.61 -5.47,5.67 -3.08,0.06 -5.61,-2.39 -5.67,-5.47 -0.06,-3.08 2.39,-5.61 5.47,-5.67zm-0.04 1.03c2.64,-0.05 4.83,2.06 4.88,4.7 0.05,2.64 -2.06,4.83 -4.7,4.88 -2.64,0.05 -4.83,-2.06 -4.88,-4.7 -0.05,-2.64 2.06,-4.83 4.7,-4.88z"/>
     <path class="fil21" d="M81.65 93.94c1.48,-0.03 2.69,1.15 2.72,2.62 0.03,1.48 -1.15,2.69 -2.62,2.72 -1.48,0.03 -2.69,-1.15 -2.72,-2.62 -0.03,-1.48 1.15,-2.69 2.62,-2.72zm-0.15 1.07c1.08,-0.02 1.97,0.84 1.99,1.92 0.02,1.08 -0.84,1.97 -1.92,1.99 -1.08,0.02 -1.97,-0.84 -1.99,-1.92 -0.02,-1.08 0.84,-1.97 1.92,-1.99z"/>
     <path class="fil20" d="M73.09 92.98c1.14,-4.67 6.83,-6.98 11.38,-5.59 0.24,0.07 1.14,0.68 -0.13,0.42 -4.65,-1.13 -9.35,1.26 -11.25,5.17z"/>
    </g>
   </g>
  </g>
  <circle class="fil0" transform="matrix(0.136474 -0.0454709 -0.0454709 -0.136474 88.1679 114.262)" r="50.54"/>
  <circle class="fil0" transform="matrix(0.131475 -0.0438051 -0.0438051 -0.131475 74.8529 56.0515)" r="50.54"/>
 </g>
</svg>
