<?xml version="1.0" encoding="UTF-8"?>
<!DOCTYPE svg PUBLIC "-//W3C//DTD SVG 1.1//EN" "http://www.w3.org/Graphics/SVG/1.1/DTD/svg11.dtd">
<!-- Creator: CorelDRAW 2020 (64-Bit) -->
<svg xmlns="http://www.w3.org/2000/svg" xml:space="preserve" width="70.7472mm" height="82.7982mm" version="1.1" style="shape-rendering:geometricPrecision; text-rendering:geometricPrecision; image-rendering:optimizeQuality; fill-rule:evenodd; clip-rule:evenodd"
viewBox="0 0 138.22 161.76"
 xmlns:xlink="http://www.w3.org/1999/xlink"
 xmlns:xodm="http://www.corel.com/coreldraw/odm/2003">
 <defs>
  <style type="text/css">
   <![CDATA[
    .str0 {stroke:#313C3C;stroke-width:0.15;stroke-miterlimit:22.9256}
    .fil2 {fill:#5C5C5C}
    .fil3 {fill:#313C3C}
    .fil11 {fill:#636363}
    .fil9 {fill:#6E6E6E}
    .fil16 {fill:#93937F}
    .fil8 {fill:#9C9C9C}
    .fil10 {fill:#A1A1A1}
    .fil14 {fill:#A6A694}
    .fil4 {fill:#B0ADAD}
    .fil5 {fill:#C7C7C7}
    .fil13 {fill:#CCCCCC}
    .fil1 {fill:#D9DCDC}
    .fil15 {fill:#E5E5E5}
    .fil12 {fill:#FBFBFB}
    .fil6 {fill:#FF8000}
    .fil0 {fill:#FFAA00}
    .fil7 {fill:white}
    .fil18 {fill:#1C1C1C;fill-rule:nonzero}
    .fil17 {fill:#363636;fill-rule:nonzero}
   ]]>
  </style>
 </defs>
 <g id="Layer_x0020_1">
  <metadata id="CorelCorpID_0Corel-Layer"/>
  <circle class="fil0" transform="matrix(0.387783 0.307387 -0.307387 0.387783 55.2063 75.4918)" r="85.03"/>
  <circle class="fil0" transform="matrix(0.188181 0.149167 -0.149167 0.188181 86.9785 50.8544)" r="85.03"/>
  <path class="fil0" d="M95.93 92.42c16.82,13.34 19.65,37.79 6.32,54.61 -13.34,16.82 -37.79,19.65 -54.61,6.32 -5.07,-4.02 -8.86,-9.04 -11.33,-14.56 0.82,-0.82 1.55,-1.76 2.16,-2.8 0.2,-0.34 0.38,-0.68 0.55,-1.02 0.64,0.74 1.41,1.4 2.3,1.92 4.41,2.61 10.1,1.16 12.71,-3.25 2.61,-4.41 1.16,-10.1 -3.25,-12.71 -3.86,-2.29 -8.7,-1.46 -11.6,1.74 -1.17,-2.57 -3.11,-4.83 -5.72,-6.39 1.07,-6.21 3.66,-12.25 7.85,-17.54 13.34,-16.82 37.79,-19.65 54.61,-6.32z"/>
  <path class="fil0" d="M73.57 11.15c1.8,1.43 3.31,3.08 4.53,4.89 -2.43,-0.51 -5.05,0.35 -6.7,2.43 -2.33,2.93 -1.83,7.2 1.1,9.52 2.83,2.24 6.89,1.86 9.27,-0.8 0.22,5.04 -1.29,10.17 -4.67,14.43 -7.44,9.39 -21.09,10.97 -30.47,3.52 -9.39,-7.44 -10.97,-21.09 -3.52,-30.47 7.44,-9.39 21.09,-10.97 30.47,-3.52z"/>
  <circle class="fil0" transform="matrix(0.276625 0.219275 -0.219275 0.276625 87.9305 89.8505)" r="85.03"/>
  <circle class="fil0" transform="matrix(0.0370624 0.0293786 -0.0293786 0.0370624 83.3132 121.358)" r="85.03"/>
  <circle class="fil0" transform="matrix(0.0180109 0.0142769 -0.0142769 0.0180109 78.8286 126.742)" r="85.03"/>
  <circle class="fil0" transform="matrix(0.0719918 0.0570664 -0.0570664 0.0719918 65.1194 7.81195)" r="85.03"/>
  <g id="_2532586426096">
   <path class="fil1" d="M35.33 51.85c3.82,-1.33 12.25,-4.03 22.37,-5.81 13.86,-2.45 19.69,-1.84 29.56,3.02 9.3,4.58 11.77,7.14 15.36,7.89 7.02,-0.78 13.78,-1.25 21.56,1.66 11.57,4.33 14.02,6.35 14.04,7.76 0.03,1.42 -1.53,8.76 -4.81,8.95 -40.09,2.34 -75.08,-0.81 -113.29,3.09 -11.72,1.19 -14.79,2.04 -15.97,-0.64 -1.18,-2.67 -2.83,-7.54 -3.79,-9.51 -0.96,-1.97 0.09,-2.63 1.99,-3.8 1.89,-1.17 4.77,-2.78 4.75,-4.27 -0.03,-1.49 -2.3,-1.87 -3.3,-2 -1,-0.12 -1.86,-0.61 2.52,-2.1 4.37,-1.5 14.59,-5.37 28.79,-4.27 0.08,0.01 0.15,0.01 0.23,0.02zm60.87 5.79c0.44,-0.5 0.12,-1.13 -0.95,-1.92 -2.16,-1.59 -7.38,-6.36 -17.5,-8.8 -10.12,-2.44 -26.86,3.14 -29.82,4.26 -1.61,0.61 -2.27,1.24 -2.32,1.77 14.54,1.8 33.38,4.81 42.16,5.04 2.94,0.08 5.73,-0.09 8.43,-0.34z"/>
   <path class="fil2" d="M72.93 44.72c2.27,0.02 6.35,0.48 12.53,2.67 8.6,3.05 17.47,7.68 21.74,9.13 -1.52,0.11 -3.04,0.26 -4.58,0.43 -3.59,-0.76 -6.05,-3.31 -15.36,-7.89 -5.32,-2.62 -9.47,-4 -14.33,-4.34z"/>
   <path class="fil0" d="M126.26 59.4c9.79,3.79 11.94,5.64 11.96,6.97 0.02,0.84 -0.53,3.78 -1.66,6.06 -0.05,-0.74 -0.31,-1.53 -0.9,-2.33 -1.82,-2.45 -5.13,-5.09 -8.88,-8.57 -1.29,-1.19 -1.34,-1.88 -0.52,-2.14z"/>
   <path class="fil3" d="M3.06 57.65c-0.53,-0.01 -1.51,3.54 -0.41,3.8 0.84,0.2 1.4,0.97 1.31,2.05 1.59,-1.01 3.16,-2.18 3.14,-3.28 -0.03,-1.49 -2.3,-1.87 -3.3,-2 -0.51,-0.06 -0.99,-0.22 -0.73,-0.57z"/>
   <path class="fil4" d="M134.41 75.03c-0.31,0.17 -0.65,0.28 -1,0.3 -40.09,2.34 -75.08,-0.81 -113.29,3.09 -11.72,1.19 -14.79,2.04 -15.97,-0.64 -1.18,-2.67 -2.83,-7.54 -3.79,-9.51 -0.05,-0.11 -0.1,-0.22 -0.14,-0.32 0.36,0.42 0.69,0.93 1.02,1.58 0.74,1.48 2.45,6.34 6,6.56 0.28,0.02 0.63,0.03 1.05,0.03 -0.34,-1.14 -0.54,-2.35 -0.56,-3.59 -0.13,-7.33 5.72,-13.26 13.07,-13.24 7.35,0.02 13.41,5.99 13.54,13.32 0.02,0.98 -0.07,1.94 -0.26,2.86 2.46,-0.06 4.97,-0.11 7.47,-0.14 15.32,-0.2 28.94,-0.23 39.58,0 6.4,0.14 12.43,0.06 18.76,0 -0.3,-1.02 -0.46,-2.11 -0.48,-3.23 -0.13,-7.02 5.53,-13.02 12.62,-13.4 7.09,-0.38 12.95,5.01 13.07,12.03 0.03,1.6 -0.24,3.14 -0.76,4.57 5.14,-0.09 8.21,-0.25 8.21,-0.25 0,0 0.86,0.08 1.86,-0.03z"/>
   <path class="fil5" d="M44.45 58.97c0,0 8.36,-0.5 24.64,1.47 16.28,1.98 27.13,5.76 27.13,5.76 -4.03,6.97 -9.44,8.22 -20.01,7.45 -13.28,-0.97 -25.45,-3.23 -31.76,-14.68z"/>
   <path class="fil6" d="M126.26 59.4c3.23,1.25 5.62,2.29 7.39,3.17 -1.52,-0.52 -4.04,-1.36 -5.1,-1.56 -1.57,-0.29 -0.91,0.58 1.58,3.23 0.43,0.46 0.77,0.88 1.03,1.25 -1.33,-1.2 -2.82,-2.51 -4.38,-3.96 -1.29,-1.19 -1.34,-1.88 -0.52,-2.14z"/>
   <path class="fil7" d="M7.31 71.95c0,0 -0.04,-4.15 2.52,-7.6 2.56,-3.45 5.34,-5.06 9.41,-5.52 4.07,-0.46 6.61,0.98 8.12,1.73 1.5,0.75 1.98,1.45 3.31,0.72 1.33,-0.73 6.44,-2.88 14.27,-3.09 7.83,-0.21 18.88,0.9 24.22,1.73 5.33,0.83 -0.18,-0.32 -9.64,-1.57 -9.46,-1.25 -29.73,-2.31 -33.88,-2.27 -3.79,0.04 -19.59,1.13 -18.34,15.86z"/>
   <path class="fil5" d="M35.33 51.85c3.82,-1.33 12.25,-4.03 22.37,-5.81 13.86,-2.45 19.69,-1.84 29.56,3.02 9.3,4.58 11.77,7.14 15.36,7.89 6.41,-0.71 12.61,-1.17 19.55,0.98 -2.32,-0.5 -4.74,-0.87 -7.18,-1 -8.16,-0.42 -10.63,0.76 -14.73,1.47 -4.1,0.71 -9.05,1.86 -16.93,1.3 -7.88,-0.57 -38.61,-5.41 -48.57,-6.86 -5.33,-0.78 -10.05,-0.77 -13.29,-0.6 3.98,-0.54 8.55,-0.79 13.63,-0.4 0.08,0.01 0.15,0.01 0.23,0.02zm60.87 5.79c0.44,-0.5 0.12,-1.13 -0.95,-1.92 -2.16,-1.59 -7.38,-6.36 -17.5,-8.8 -10.12,-2.44 -26.86,3.14 -29.82,4.26 -1.61,0.61 -2.27,1.24 -2.32,1.77 14.54,1.8 33.38,4.81 42.16,5.04 2.94,0.08 5.73,-0.09 8.43,-0.34z"/>
   <path class="fil8" d="M102.23 57.3c0,0 -7.63,1.77 -14.94,1.4 -7.31,-0.37 -19.54,-1.85 -31.06,-3.7 -11.52,-1.85 -20.34,-3.11 -20.34,-3.11 0,0 9.09,0.4 17.61,1.25 8.53,0.84 31.81,5.89 48.73,4.16z"/>
   <path class="fil9" d="M96.2 57.65c0.44,-0.5 0.12,-1.13 -0.95,-1.92 -2.16,-1.59 -7.38,-6.36 -17.5,-8.8 -10.12,-2.44 -26.86,3.14 -29.82,4.26 -1.61,0.61 -2.27,1.24 -2.32,1.77 14.54,1.8 33.38,4.81 42.16,5.04 2.94,0.08 5.73,-0.09 8.43,-0.34z"/>
   <circle class="fil3 str0" transform="matrix(0.33273 -0.00595608 0.00595608 0.33273 112.156 70.2498)" r="33.75"/>
   <circle class="fil10" transform="matrix(0.0449275 -0.000804234 0.000804234 0.0449275 112.156 70.2498)" r="33.75"/>
   <path class="fil11" d="M111.97 59.59c5.69,-0.1 10.39,4.43 10.49,10.12 0.1,5.69 -4.43,10.39 -10.12,10.49 -5.69,0.1 -10.39,-4.43 -10.49,-10.12 -0.1,-5.69 4.43,-10.39 10.12,-10.49zm-0.07 1.91c4.9,-0.09 8.94,3.81 9.03,8.71 0.09,4.9 -3.81,8.94 -8.71,9.03 -4.9,0.09 -8.94,-3.81 -9.03,-8.71 -0.09,-4.9 3.81,-8.94 8.71,-9.03z"/>
   <path class="fil11" d="M112.09 66.61c2.01,-0.04 3.67,1.57 3.71,3.58 0.04,2.01 -1.57,3.67 -3.58,3.71 -2.01,0.04 -3.67,-1.57 -3.71,-3.58 -0.04,-2.01 1.57,-3.67 3.58,-3.71zm-0.2 1.46c1.47,-0.03 2.69,1.15 2.71,2.62 0.03,1.47 -1.15,2.69 -2.62,2.71 -1.47,0.03 -2.69,-1.15 -2.71,-2.62 -0.03,-1.47 1.15,-2.69 2.62,-2.71z"/>
   <path class="fil7" d="M107.9 58.36c1.4,-0.54 3.05,-0.89 4.94,-0.89 7.84,0 11.23,5.08 11.74,8.2 -0.18,-0.28 -2.88,-6.19 -10.13,-7.2 -2.38,-0.33 -4.52,-0.01 -6.35,0.6 -1.56,0.62 -1.15,-0.31 -0.21,-0.71z"/>
   <circle class="fil3" transform="matrix(0.343867 -0.00615545 0.00615545 0.343867 21.0023 71.0797)" r="33.75"/>
   <circle class="fil10" transform="matrix(0.0464314 -0.000831153 0.000831153 0.0464314 21.0023 71.0797)" r="33.75"/>
   <path class="fil11" d="M20.8 60.06c5.88,-0.11 10.74,4.58 10.85,10.46 0.11,5.88 -4.58,10.74 -10.46,10.85 -5.88,0.11 -10.74,-4.58 -10.85,-10.46 -0.11,-5.88 4.58,-10.74 10.46,-10.85zm-0.07 1.97c5.06,-0.09 9.24,3.94 9.33,9 0.09,5.06 -3.94,9.24 -9,9.33 -5.06,0.09 -9.24,-3.94 -9.33,-9 -0.09,-5.06 3.94,-9.24 9,-9.33z"/>
   <path class="fil11" d="M20.93 67.31c2.08,-0.04 3.8,1.62 3.83,3.7 0.04,2.08 -1.62,3.8 -3.7,3.83 -2.08,0.04 -3.8,-1.62 -3.83,-3.7 -0.04,-2.08 1.62,-3.8 3.7,-3.83zm-0.21 1.51c1.52,-0.03 2.78,1.18 2.8,2.71 0.03,1.52 -1.18,2.78 -2.71,2.8 -1.52,0.03 -2.78,-1.18 -2.8,-2.7 -0.03,-1.52 1.18,-2.78 2.7,-2.8z"/>
   <path class="fil1" d="M8.3 66.04c1.6,-6.58 9.62,-9.84 16.04,-7.89 0.34,0.1 1.61,0.96 -0.19,0.6 -6.55,-1.59 -13.18,1.78 -15.85,7.29z"/>
   <path class="fil12" d="M67.06 45.98c0,0 5.91,-0.67 11,0.58 5.09,1.26 6.99,2.43 7.92,2.84 0.93,0.41 0.6,-0.08 -1.19,-1.01 -1.79,-0.93 -4.86,-2.08 -8.06,-2.66 -3.2,-0.58 -6.92,-0.37 -8.66,-0.2 -1.73,0.17 -1.73,0.46 -1.02,0.44z"/>
   <path class="fil12" d="M87.74 49.98c-1.05,-0.44 -0.65,0.14 0.03,0.44 0.68,0.31 0.94,0.04 -0.03,-0.44z"/>
   <path class="fil1" d="M27.55 59.62c0,0 -1.58,-0.98 -1.71,-0.64 -0.14,0.34 1.13,0.81 1.58,1.09 0.45,0.28 0.48,-0.11 0.13,-0.44z"/>
   <path class="fil13" d="M28.81 60.58c-0.43,-0.28 -0.62,0.12 -0.19,0.41 0.43,0.29 0.73,0.09 0.19,-0.41z"/>
   <path class="fil7" d="M105.34 60.48c0,0 0.54,-0.36 0.98,-0.57 0.44,-0.2 0.02,-0.83 -0.75,-0.38 -0.77,0.46 -0.72,1.25 -0.23,0.94z"/>
   <path class="fil7" d="M104.13 61.4c0.31,-0.25 0.08,-0.71 -0.54,-0.24 -0.61,0.47 -0.16,0.82 0.54,0.24z"/>
   <path class="fil2" d="M67.43 46.93c-8.04,0.73 -16.48,3.56 -18.42,4.3 -1.48,0.56 -2.09,1.14 -2.13,1.62 8.16,1.01 17.79,2.43 25.89,3.44 2.04,0 2.43,-0.87 2.19,-2.27 -0.29,-1.69 -0.6,-4.68 -0.95,-5.91 -0.26,-0.92 -2.12,-1.27 -6.58,-1.18z"/>
   <path class="fil13" d="M67.16 47.54c0,0 -4.88,0.69 -11.23,2.44 -6.35,1.75 -6.07,1.88 -7.09,2.18 -1.02,0.3 -0.82,-0.41 0.94,-1.01 1.76,-0.6 6.98,-2.22 11.54,-3.04 4.56,-0.83 5.02,-0.87 5.62,-0.88 0.6,-0.01 0.78,0.13 0.22,0.32z"/>
  </g>
  <g id="_2532586448944">
   <g>
    <g>
     <path id="_158226192" class="fil14" d="M54.23 79.56c16.5,-2.47 32.91,-5.43 49.28,-8.72 0.62,-0.11 1.21,0.31 1.31,0.92 -0.11,7.96 4.89,44.85 9.56,69.09 0.1,0.62 -0.32,1.21 -0.94,1.32 -16.43,2.91 -36.11,7.12 -45.18,9.36 -0.62,0.11 -1.21,-0.31 -1.31,-0.92 -4.74,-20.05 -10.92,-50.09 -13.66,-69.73 -0.1,-0.62 0.32,-1.21 0.94,-1.32z"/>
     <path id="_158225880" class="fil7" d="M55.3 79.82c15.78,-2.14 31.48,-4.74 47.13,-7.65 0.59,-0.1 1.15,0.31 1.25,0.9 -0.1,7.61 4.67,42.93 9.14,66.16 0.1,0.59 -0.31,1.15 -0.9,1.25 -15.71,2.55 -34.53,6.31 -43.21,8.32 -0.59,0.1 -1.15,-0.31 -1.25,-0.9 -4.53,-19.23 -10.44,-48.02 -13.06,-66.82 -0.1,-0.59 0.31,-1.15 0.9,-1.25l0 -0z"/>
     <path id="_158217528" class="fil15" d="M111.4 131.53c0.47,2.67 0.95,5.25 1.42,7.7 0.1,0.59 -0.31,1.15 -0.9,1.25 -15.71,2.55 -34.53,6.31 -43.21,8.32 -0.59,0.1 -1.15,-0.31 -1.25,-0.9 -2.71,-11.51 -5.92,-26.44 -8.62,-40.6 10.35,5.45 28.97,14.73 52.56,24.23z"/>
     <path id="_158223312" class="fil16" d="M111.33 140.07c-15.51,2.55 -33.76,6.2 -42.26,8.17 -0.59,0.1 -1.15,-0.31 -1.25,-0.9 -1.39,-5.89 -2.9,-12.67 -4.42,-19.79l4.77 19.53c0,0 0.28,0.81 1.74,0.52 1.28,-0.25 31.92,-6.48 41.42,-7.53z"/>
    </g>
    <path id="_158225352" class="fil17" d="M63.55 105.97c-0.34,0.06 -0.66,-0.17 -0.72,-0.51 -0.06,-0.34 0.17,-0.66 0.51,-0.72l37.73 -6.38c0.34,-0.06 0.66,0.17 0.72,0.51 0.06,0.34 -0.17,0.66 -0.51,0.72l-37.73 6.38zm-0.85 -4.49c-0.34,0.06 -0.66,-0.17 -0.72,-0.52 -0.06,-0.34 0.17,-0.66 0.52,-0.72l37.7 -6.23c0.34,-0.06 0.66,0.17 0.72,0.52 0.06,0.34 -0.18,0.66 -0.52,0.72l-37.7 6.23zm7.68 40.36c-0.34,0.07 -0.67,-0.15 -0.74,-0.49 -0.07,-0.34 0.15,-0.67 0.49,-0.74l37.97 -7.61c0.34,-0.07 0.67,0.15 0.74,0.49 0.07,0.34 -0.15,0.67 -0.49,0.74l-37.97 7.61zm-0.85 -4.49c-0.34,0.07 -0.67,-0.15 -0.73,-0.49 -0.07,-0.34 0.15,-0.67 0.49,-0.73l37.94 -7.46c0.34,-0.07 0.67,0.15 0.73,0.49 0.07,0.34 -0.15,0.67 -0.49,0.73l-37.94 7.46zm-0.85 -4.48c-0.34,0.07 -0.67,-0.16 -0.73,-0.5 -0.07,-0.34 0.16,-0.67 0.5,-0.73l37.91 -7.3c0.34,-0.07 0.67,0.16 0.73,0.5 0.06,0.34 -0.16,0.67 -0.5,0.73l-37.91 7.3zm-0.85 -4.49c-0.34,0.06 -0.67,-0.16 -0.73,-0.5 -0.06,-0.34 0.16,-0.67 0.5,-0.73l37.88 -7.15c0.34,-0.06 0.67,0.16 0.73,0.5 0.06,0.34 -0.16,0.67 -0.5,0.73l-37.88 7.15zm-0.85 -4.49c-0.34,0.06 -0.67,-0.16 -0.73,-0.5 -0.06,-0.34 0.16,-0.66 0.5,-0.73l37.85 -6.99c0.34,-0.06 0.67,0.16 0.73,0.5 0.06,0.34 -0.16,0.66 -0.5,0.73l-37.85 6.99zm-0.85 -4.48c-0.34,0.06 -0.67,-0.17 -0.73,-0.51 -0.06,-0.34 0.17,-0.67 0.51,-0.73l37.82 -6.84c0.34,-0.06 0.67,0.17 0.73,0.51 0.06,0.34 -0.17,0.67 -0.51,0.73l-37.82 6.84zm-0.85 -4.49c-0.34,0.06 -0.66,-0.17 -0.72,-0.51 -0.06,-0.34 0.17,-0.66 0.51,-0.72l37.79 -6.69c0.34,-0.06 0.66,0.17 0.72,0.51 0.06,0.34 -0.17,0.66 -0.51,0.72l-37.79 6.69zm-0.85 -4.49c-0.34,0.06 -0.66,-0.17 -0.72,-0.51 -0.06,-0.34 0.17,-0.66 0.51,-0.72l37.76 -6.53c0.34,-0.06 0.66,0.17 0.72,0.51 0.06,0.34 -0.17,0.66 -0.51,0.72l-37.76 6.53z"/>
   </g>
   <path class="fil18" d="M60.74 89.44c-0.07,-0.69 -0.08,-1.33 -0.06,-1.91 0.03,-0.58 0.11,-1.1 0.24,-1.56 0.25,-0.92 0.64,-1.61 1.15,-2.08 0.51,-0.46 1.15,-0.72 1.93,-0.77 1.13,-0.07 2.1,0.35 2.9,1.28 0.4,0.46 0.72,1.03 0.96,1.71 0.24,0.68 0.41,1.47 0.49,2.37 0.09,0.91 0.07,1.74 -0.05,2.49 -0.12,0.74 -0.34,1.4 -0.66,1.98 -0.57,1.02 -1.42,1.64 -2.54,1.83 -1.13,0.19 -2.07,-0.13 -2.81,-0.97 -0.43,-0.49 -0.77,-1.09 -1.03,-1.82 -0.26,-0.73 -0.43,-1.58 -0.52,-2.54zm1.62 -0.26c0.12,1.32 0.43,2.28 0.91,2.88 0.48,0.6 1.03,0.84 1.65,0.75 0.62,-0.09 1.11,-0.49 1.46,-1.19 0.17,-0.34 0.29,-0.77 0.34,-1.27 0.06,-0.5 0.06,-1.08 -0,-1.73 -0.12,-1.28 -0.41,-2.21 -0.87,-2.78 -0.46,-0.58 -1.01,-0.84 -1.66,-0.79 -0.65,0.05 -1.14,0.41 -1.49,1.08 -0.18,0.34 -0.29,0.76 -0.35,1.26 -0.06,0.51 -0.05,1.1 0.01,1.77zm12.12 -0.14c0.53,0.14 1.06,0.28 1.6,0.41 -0.12,1.22 -0.44,2.15 -0.95,2.79 -0.51,0.64 -1.16,1.03 -1.97,1.17 -1.02,0.17 -1.89,-0.13 -2.61,-0.91 -0.42,-0.46 -0.75,-1.02 -1,-1.69 -0.25,-0.67 -0.41,-1.45 -0.49,-2.33 -0.09,-0.93 -0.08,-1.77 0.04,-2.51 0.12,-0.74 0.34,-1.4 0.66,-1.96 0.56,-0.97 1.38,-1.51 2.46,-1.63 0.88,-0.1 1.65,0.14 2.31,0.73 0.46,0.42 0.84,1.07 1.12,1.97 -0.51,0.25 -1.01,0.48 -1.52,0.72 -0.16,-0.56 -0.4,-0.97 -0.72,-1.24 -0.33,-0.27 -0.7,-0.37 -1.1,-0.32 -0.58,0.07 -1.03,0.41 -1.34,1.02 -0.16,0.31 -0.26,0.7 -0.31,1.18 -0.05,0.48 -0.04,1.05 0.02,1.7 0.06,0.68 0.16,1.25 0.3,1.72 0.13,0.47 0.3,0.83 0.51,1.09 0.41,0.51 0.9,0.73 1.47,0.64 0.42,-0.07 0.76,-0.31 1.03,-0.71 0.27,-0.41 0.44,-1.01 0.49,-1.82zm10.05 2.27c-0.57,0.1 -1.14,0.19 -1.71,0.29 -0.3,-0.75 -0.59,-1.5 -0.89,-2.25 -1.05,0.18 -2.1,0.35 -3.15,0.53 -0.14,0.83 -0.29,1.65 -0.42,2.48 -0.56,0.09 -1.12,0.19 -1.68,0.28 0.34,-1.84 0.68,-3.67 1.02,-5.5 0.34,-1.83 0.69,-3.65 1.03,-5.48 0.56,-0.09 1.12,-0.18 1.68,-0.28 0.68,1.65 1.37,3.31 2.05,4.96 0.68,1.65 1.37,3.31 2.06,4.97zm-3.28 -3.64c-0.24,-0.62 -0.49,-1.23 -0.73,-1.85 -0.24,-0.62 -0.48,-1.23 -0.72,-1.85 -0.12,0.68 -0.24,1.36 -0.35,2.03 -0.11,0.67 -0.23,1.35 -0.34,2.03 0.71,-0.12 1.43,-0.24 2.15,-0.36zm3.89 3.54c-0.16,-1.74 -0.33,-3.48 -0.49,-5.21 -0.16,-1.74 -0.33,-3.48 -0.49,-5.21 1.83,-0.38 3.65,-0.79 5.48,-1.22 0.06,0.61 0.11,1.22 0.17,1.83 -1.31,0.3 -2.61,0.58 -3.91,0.86 0.14,1.45 0.27,2.9 0.41,4.35 0.14,1.45 0.27,2.9 0.41,4.35 -0.53,0.09 -1.05,0.18 -1.57,0.27zm5.46 -6.37c-0.06,-0.64 -0.07,-1.24 -0.04,-1.79 0.03,-0.55 0.11,-1.06 0.24,-1.51 0.26,-0.92 0.64,-1.66 1.13,-2.21 0.5,-0.56 1.13,-0.94 1.89,-1.17 1.11,-0.32 2.05,-0.09 2.85,0.74 0.4,0.41 0.72,0.97 0.96,1.67 0.24,0.7 0.41,1.53 0.51,2.5 0.09,0.98 0.08,1.87 -0.03,2.67 -0.11,0.8 -0.33,1.51 -0.66,2.12 -0.56,1.07 -1.41,1.7 -2.53,1.89 -1.13,0.19 -2.07,-0.11 -2.81,-0.9 -0.42,-0.45 -0.76,-1 -1.01,-1.67 -0.25,-0.66 -0.42,-1.44 -0.5,-2.33zm1.61 -0.42c0.12,1.26 0.42,2.16 0.89,2.71 0.48,0.56 1.02,0.78 1.64,0.66 0.62,-0.12 1.1,-0.54 1.45,-1.26 0.17,-0.37 0.28,-0.81 0.34,-1.33 0.05,-0.52 0.05,-1.13 -0.01,-1.8 -0.12,-1.32 -0.41,-2.25 -0.87,-2.77 -0.45,-0.53 -1,-0.7 -1.63,-0.53 -0.64,0.17 -1.12,0.61 -1.47,1.33 -0.17,0.36 -0.29,0.79 -0.34,1.28 -0.06,0.5 -0.05,1.07 0.01,1.71z"/>
  </g>
  <circle class="fil0" transform="matrix(0.071006 0.0562849 -0.0562849 0.071006 98.9951 138.836)" r="85.03"/>
 </g>
</svg>
