<svg width="50" height="50" viewBox="0 0 50 50" fill="none" xmlns="http://www.w3.org/2000/svg">
<circle cx="25" cy="25" r="24.5" fill="white" stroke="#DCE2E3"/>
<mask id="mask0" mask-type="alpha" maskUnits="userSpaceOnUse" x="0" y="0" width="50" height="50">
<circle cx="25" cy="25" r="24.5" fill="white" stroke="#DCE2E3"/>
</mask>
<g mask="url(#mask0)">
<path fill-rule="evenodd" clip-rule="evenodd" d="M26.0235 12.9115C26.0382 12.8906 26.0528 12.8676 26.0695 12.8447C26.4559 12.2827 26.2951 11.865 26.0361 11.6414C25.8731 11.4973 21.9961 9.14939 21.9961 9.14939C21.7162 8.96139 21.5303 8.64179 21.5303 8.27623C21.5303 7.70178 21.875 7.26729 22.6562 7.05213C25.1483 6.36697 33.9112 6.00768 36.89 6.00768C37.9219 6.00768 39.7017 6.0035 41.2997 6.04946L41.2286 5.98053C36.8628 2.25184 31.1936 0 25.0021 0C11.1923 0 0 11.1902 0 25C0 31.0703 2.16201 36.6331 5.7591 40.9655C8.90081 36.4472 16.6548 25.3154 18.3531 23.0406C20.3104 20.419 24.7765 14.591 25.5306 13.6029L25.5682 13.557L26.0235 12.9115Z" fill="#E2001A"/>
<path fill-rule="evenodd" clip-rule="evenodd" d="M9.75721 44.8173C13.9768 48.0677 19.2617 49.9999 25.002 49.9999C38.8097 49.9999 50.002 38.8076 50.002 24.9999C50.002 20.82 48.9763 16.8824 47.1653 13.4211L47.1674 13.4232C48.028 12.5939 49.0202 11.2821 48.3685 9.63605C48.1638 9.14724 47.1924 8.03595 46.9418 7.76648L46.9773 7.86257C47.5851 9.69871 46.3819 10.8497 45.5171 11.6309C45.0429 12.0634 38.6948 18.0481 31.2499 24.5571C24.6866 30.2953 17.3483 36.1338 13.0953 39.3172C7.11475 43.7917 5.95123 44.4434 5.95123 44.4434C5.79248 44.5291 5.52928 44.6022 5.3371 44.6022C4.97154 44.6022 4.65403 44.4392 4.45349 44.176L4.44722 44.1698C4.41589 44.2471 4.40545 44.3139 4.4326 44.3599C5.07389 45.4001 6.13715 46.6012 6.75755 46.6012C6.94973 46.6012 7.21502 46.5281 7.37378 46.4446C7.37378 46.4446 7.84378 46.1835 9.75721 44.8173Z" fill="#E2001A"/>
<path fill-rule="evenodd" clip-rule="evenodd" d="M26.0589 12.8449C26.4433 12.2851 26.2824 11.8673 26.0255 11.6417C25.8626 11.4996 21.9856 9.14961 21.9856 9.14961C21.7056 8.96161 21.5197 8.6441 21.5197 8.27854C21.5197 7.702 21.8644 7.2696 22.6456 7.05235C25.1356 6.36719 33.9006 6.00999 36.8773 6.00999C38.2832 6.00999 41.0677 5.99955 42.8996 6.1207C44.9551 6.25439 46.5155 6.68053 46.902 7.67485C47.6644 9.62379 46.4048 10.827 45.5108 11.6375C45.0387 12.0678 38.6905 18.0525 31.2457 24.5615C24.6823 30.2997 17.3419 36.1361 13.091 39.3217C7.11048 43.7961 5.94696 44.4479 5.94696 44.4479C5.78821 44.5335 5.525 44.6066 5.33074 44.6066C4.71242 44.6066 4.22571 44.1325 4.22571 43.51C4.22571 43.276 4.29673 43.0546 4.42206 42.877C4.42206 42.877 16.1972 25.911 18.3425 23.0408C20.4857 20.1748 25.6286 13.4611 25.6286 13.4611C25.6286 13.4611 25.6892 13.3859 26.0589 12.8449Z" fill="#FEFEFE"/>
</g>
</svg>
