<svg width="30" height="30" viewBox="0 0 30 30" fill="none" xmlns="http://www.w3.org/2000/svg">
<g clip-path="url(#clip0)">
<path d="M24.7263 0.985038C24.421 0.808319 24.0445 0.807675 23.7386 0.983397C21.326 2.36832 14.3433 5.96205 11.0439 5.96205C10.4977 5.96205 10.0549 6.40478 10.0549 6.95105V17.2038C10.0549 17.7501 10.4977 18.1928 11.0439 18.1928C15.2697 18.1928 23.6433 23.1154 23.7274 23.1649C23.8823 23.2565 24.0567 23.3027 24.2308 23.3027C24.3999 23.3027 24.5687 23.2592 24.7207 23.1725C25.0292 22.9968 25.2198 22.6688 25.2198 22.3137V1.84115C25.2198 1.48842 25.0319 1.16205 24.7263 0.985038ZM23.2417 20.6221C20.7448 19.2646 15.661 16.71 12.0329 16.2774V7.8715C15.5416 7.42016 20.7178 4.85568 23.2417 3.51225V20.6221Z" fill="#272727"/>
<path d="M11.7451 24.6155C11.3663 24.024 10.2857 21.4533 10.2857 17.5332H8.30767C8.30767 21.7896 9.46612 24.7249 10.0971 25.7094C10.2036 25.8643 10.2237 26.0331 10.1561 26.1755C10.1268 26.1956 10.0882 26.2187 10.041 26.2422C10.0078 26.259 9.97542 26.2771 9.94442 26.2975C9.68825 26.464 8.72462 27.0169 7.05253 27.1619C7.04854 27.1477 7.04427 27.1339 7.03999 27.1197L3.80931 17.098L1.92651 17.7053L5.15069 27.7065C5.39333 28.5679 6.15323 29.1478 6.99224 29.1478C7.07169 29.1478 7.15214 29.1426 7.23288 29.1317C8.66561 29.006 10.0249 28.5894 10.9773 27.985C11.2258 27.8551 11.4391 27.7015 11.6119 27.5288C11.6472 27.4931 11.6798 27.4549 11.7094 27.4147C12.3243 26.5764 12.3313 25.467 11.7451 24.6155Z" fill="#272727"/>
<path d="M11.0769 7.94017V5.96216H1.97801C0.869004 5.96216 0 6.83116 0 7.94017V16.2149C0 17.3239 0.869004 18.1929 1.97801 18.1929H11.0769V16.2149H1.97801V7.94017H11.0769Z" fill="#272727"/>
<path d="M25.8132 7.21484H24.2307V9.19285H25.8132C27.031 9.19285 28.022 10.1838 28.022 11.4017C28.022 12.6195 27.031 13.6105 25.8132 13.6105H24.2307V15.5885H25.8132C28.1218 15.5885 30 13.7104 30 11.4017C30 9.09295 28.1219 7.21484 25.8132 7.21484Z" fill="#272727"/>
</g>
<defs>
<clipPath id="clip0">
<rect width="30" height="30" fill="white"/>
</clipPath>
</defs>
</svg>
