<svg width="30" height="30" viewBox="0 0 30 30" fill="none" xmlns="http://www.w3.org/2000/svg">
<path d="M26.5548 22.6343L22.1789 18.2583C21.268 17.3475 19.7912 17.3465 18.8793 18.2583L17.6048 19.5327C14.693 17.7545 12.2466 15.3081 10.4682 12.3961L11.8656 10.9989C12.7752 10.0891 12.7752 8.60888 11.8655 7.69915L7.48963 3.32326C6.58131 2.41505 5.10656 2.40662 4.18722 3.32601L1.43742 6.0972C0.121756 7.20193 -0.341018 9.01576 0.258982 10.7348C3.33785 19.5577 10.4434 26.6632 19.2662 29.7421C20.9262 30.3212 22.6308 29.8881 23.7146 28.7715C23.7302 28.7576 23.7455 28.7433 23.7605 28.7283L26.5548 25.9339C27.4645 25.0243 27.4645 23.5441 26.5548 22.6343ZM25.1609 24.54L22.4297 27.2712C22.3963 27.2988 22.3648 27.3289 22.3352 27.3611C21.7603 27.986 20.8355 28.2017 19.9158 27.8807C11.6554 24.9981 5.00297 18.3456 2.12039 10.0851C1.79033 9.13939 2.02845 8.15953 2.72707 7.58876C2.75361 7.56708 2.77904 7.544 2.80318 7.51968L5.58398 4.7172C5.67615 4.62497 5.7839 4.6112 5.83986 4.6112C5.89588 4.6112 6.00351 4.62492 6.09574 4.7172L10.4715 9.0931C10.6126 9.23419 10.6126 9.4637 10.4716 9.6048L8.53547 11.5409C8.22252 11.8538 8.15648 12.3368 8.37387 12.7222C10.4749 16.447 13.5541 19.5262 17.2788 21.6271C17.6642 21.8446 18.1472 21.7784 18.4601 21.4656L20.2733 19.6524C20.4145 19.5112 20.6436 19.5111 20.785 19.6524L25.1609 24.0283C25.3019 24.1694 25.3019 24.399 25.1609 24.54Z" fill="#272727"/>
<path d="M15.756 7.69519C15.2116 7.69519 14.7703 8.13652 14.7703 8.68091C14.7703 9.22531 15.2115 9.66664 15.756 9.66664C18.2806 9.66664 20.3344 11.7205 20.3344 14.2451C20.3344 14.7895 20.7758 15.2308 21.3202 15.2308C21.8646 15.2308 22.3059 14.7895 22.3059 14.2451C22.3059 10.6335 19.3676 7.69519 15.756 7.69519Z" fill="#272727"/>
<path d="M15.756 3.82642C15.2116 3.82642 14.7703 4.26774 14.7703 4.81214C14.7703 5.35653 15.2115 5.79786 15.756 5.79786C20.4138 5.79786 24.2033 9.5873 24.2033 14.2452C24.2033 14.7895 24.6446 15.2309 25.189 15.2309C25.7334 15.2309 26.1747 14.7895 26.1747 14.2452C26.1747 8.50027 21.5009 3.82642 15.756 3.82642Z" fill="#272727"/>
<path d="M25.828 4.17303C23.1377 1.4827 19.5606 0.00109863 15.7559 0.00109863C15.2115 0.00109863 14.7701 0.442427 14.7701 0.986821C14.7701 1.53122 15.2115 1.97254 15.7559 1.97254C22.5231 1.97254 28.0286 7.47801 28.0286 14.2452C28.0286 14.7896 28.4699 15.2309 29.0143 15.2309C29.5587 15.2309 30 14.7896 30 14.2452C29.9999 10.4404 28.5183 6.86342 25.828 4.17303Z" fill="#272727"/>
</svg>
