<svg width="32" height="32" viewBox="0 0 32 32" fill="none" xmlns="http://www.w3.org/2000/svg">
<path d="M20.321 2.76158L20.3205 2.76188L9.72156 8.93213H11.4869H25.1103L23.839 6.71147L22.4884 4.35259L22.7054 4.22837L22.4884 4.35258L21.8096 3.16683C21.8095 3.1668 21.8095 3.16678 21.8095 3.16675C21.6618 2.90892 21.4259 2.72665 21.143 2.65089L20.321 2.76158ZM20.321 2.76158C20.5714 2.61502 20.8628 2.57613 21.1428 2.65086L20.321 2.76158ZM23.4273 2.24053L23.4272 2.24034C23.0314 1.55043 22.3909 1.05592 21.625 0.850866L21.6249 0.850833C20.8627 0.647177 20.0645 0.754336 19.3825 1.15127L19.3825 1.15129L6.01756 8.93213H3.72749C2.08534 8.93213 0.750244 10.2671 0.750244 11.9094V28.2727C0.750244 29.9149 2.08527 31.25 3.72749 31.25H26.909C28.5511 31.25 29.8862 29.915 29.8862 28.2727V24.2252C30.6857 23.8682 31.2498 23.0717 31.2498 22.1365V18.0456C31.2498 17.1104 30.6857 16.314 29.8862 15.9569V11.9094C29.8862 10.3919 28.7438 9.1523 27.2793 8.96862L23.4273 2.24053ZM28.0225 28.2727C28.0225 28.8864 27.5226 29.3863 26.909 29.3863H3.72749C3.11387 29.3863 2.6139 28.8864 2.6139 28.2727V11.9094C2.6139 11.2958 3.11387 10.7958 3.72749 10.7958H26.909C27.5226 10.7958 28.0225 11.2958 28.0225 11.9094V15.7502H24.1817C21.7878 15.7502 19.8409 17.6971 19.8409 20.0911C19.8409 22.485 21.7878 24.4319 24.1817 24.4319H28.0225V28.2727ZM29.3862 22.1365C29.3862 22.3746 29.1925 22.5683 28.9544 22.5683H24.1817C22.8157 22.5683 21.7045 21.4571 21.7045 20.0911C21.7045 18.725 22.8156 17.6138 24.1817 17.6138H28.9544C29.1925 17.6138 29.3862 17.8075 29.3862 18.0456V22.1365Z" fill="#272727" stroke="#272727" stroke-width="0.5"/>
<ellipse cx="25.375" cy="20.125" rx="1.125" ry="1.125" fill="#272727"/>
</svg>
