<svg width="20" height="12" viewBox="0 0 20 12" fill="none" xmlns="http://www.w3.org/2000/svg">
<path d="M18.7808 1.28376C18.9091 0.857505 18.7808 0.544922 18.174 0.544922H16.1637C15.6522 0.544922 15.4185 0.815339 15.2901 1.11234C15.2901 1.11234 14.268 3.60475 12.8197 5.22084C12.3522 5.69109 12.1386 5.83959 11.8838 5.83959C11.7564 5.83959 11.5712 5.69109 11.5712 5.26484V1.28376C11.5712 0.772255 11.4236 0.544922 10.9974 0.544922H7.83854C7.51954 0.544922 7.32704 0.781422 7.32704 1.00692C7.32704 1.49092 8.05121 1.60276 8.12546 2.96676V5.92575C8.12546 6.57384 8.00904 6.69209 7.75237 6.69209C7.07129 6.69209 5.41396 4.19051 4.43037 1.32684C4.23879 0.770422 4.04537 0.545839 3.53204 0.545839H1.52271C0.947957 0.545839 0.833374 0.816256 0.833374 1.11326C0.833374 1.64676 1.51446 4.28675 4.00596 7.77834C5.66696 10.1626 8.00537 11.4551 10.1357 11.4551C11.4126 11.4551 11.5703 11.1682 11.5703 10.6732V8.871C11.5703 8.29717 11.6922 8.18167 12.0965 8.18167C12.3935 8.18167 12.905 8.332 14.0975 9.48059C15.4597 10.8428 15.6852 11.4542 16.4506 11.4542H18.46C19.0338 11.4542 19.3207 11.1673 19.1557 10.6008C18.9751 10.037 18.3243 9.21659 17.4608 8.24584C16.9915 7.69217 16.2902 7.09634 16.0766 6.79842C15.7787 6.41434 15.8649 6.24476 16.0766 5.90376C16.0775 5.90467 18.526 2.45617 18.7808 1.28376Z" fill="#363636"/>
</svg>
