<svg width="22" height="22" viewBox="0 0 22 22" fill="none" xmlns="http://www.w3.org/2000/svg">
<path d="M15.2202 10.1271C15.7739 9.18389 16.0196 8.08481 15.9087 6.97381C15.7446 5.33847 14.8316 3.89289 13.3392 2.90381L12.3263 4.43098C13.3521 5.11114 13.9763 6.08006 14.0845 7.15714C14.1853 8.17006 13.8278 9.16831 13.1018 9.89431L12.0092 10.987L13.4923 11.4224C17.3717 12.5591 17.4166 16.4604 17.4166 16.4998H19.2499C19.2499 14.8599 18.3736 11.6552 15.2202 10.1271Z" fill="#221E1F"/>
<path d="M8.70837 10.9998C10.7305 10.9998 12.375 9.35534 12.375 7.33317C12.375 5.311 10.7305 3.6665 8.70837 3.6665C6.68621 3.6665 5.04171 5.311 5.04171 7.33317C5.04171 9.35534 6.68621 10.9998 8.70837 10.9998ZM8.70837 5.49984C9.71946 5.49984 10.5417 6.32209 10.5417 7.33317C10.5417 8.34425 9.71946 9.1665 8.70837 9.1665C7.69729 9.1665 6.87504 8.34425 6.87504 7.33317C6.87504 6.32209 7.69729 5.49984 8.70837 5.49984ZM10.0834 11.9165H7.33337C4.30012 11.9165 1.83337 14.3833 1.83337 17.4165V18.3332H3.66671V17.4165C3.66671 15.3943 5.31121 13.7498 7.33337 13.7498H10.0834C12.1055 13.7498 13.75 15.3943 13.75 17.4165V18.3332H15.5834V17.4165C15.5834 14.3833 13.1166 11.9165 10.0834 11.9165Z" fill="#221E1F"/>
</svg>
