<svg width="80" height="80" viewBox="0 0 80 80" fill="none" xmlns="http://www.w3.org/2000/svg">
<circle cx="40" cy="40" r="39.5" fill="white" stroke="#DCE2E3"/>
<mask id="mask0" mask-type="alpha" maskUnits="userSpaceOnUse" x="0" y="0" width="80" height="80">
<circle cx="40" cy="40" r="39.5" fill="white" stroke="#DCE2E3"/>
</mask>
<g mask="url(#mask0)">
<path d="M47.9711 0.845947V21.587H39.93C29.7719 21.587 21.5874 29.7708 21.5874 39.9307C21.5874 50.0867 29.7719 58.2706 39.9262 58.2706H47.9711V79.0116C66.3099 75.4845 79.9999 59.4003 79.9999 39.9268C79.9999 20.5989 66.3137 4.51469 47.9711 0.845947Z" fill="#003791"/>
<path d="M39.9303 64.7583C26.2441 64.7583 15.0937 53.6142 15.0937 39.9311C15.0937 26.248 26.2403 15.1 39.9227 15.1H41.4774V0H39.9265C17.92 0 0 17.9186 0 39.9272C0 62.0814 17.92 80 39.9303 80H41.4812V64.7659H39.9303V64.7583Z" fill="#FF4B5F"/>
</g>
</svg>
