<svg width="24" height="32" viewBox="0 0 24 32" fill="none" xmlns="http://www.w3.org/2000/svg">
<path d="M8.59733 5.27966C8.21958 5.15465 7.80417 5.28588 7.56675 5.60518L2.39583 12.5607C0.829568 14.6488 0.00170898 17.1358 0.00170898 19.7529C0.00170898 26.3833 5.36747 31.75 11.9988 31.75C17.921 31.7499 22.6353 27.5724 23.7284 22.3214C24.456 18.8265 23.7015 15.3612 21.6035 12.563C21.6035 12.563 18.4884 8.34845 18.4871 8.34673C17.0226 6.39428 16.949 3.71703 18.3038 1.68479C18.4925 1.4016 18.5101 1.0375 18.3495 0.73745C18.189 0.4374 17.8762 0.25 17.5359 0.25C13.9739 0.25 11.0759 3.17556 11.0759 6.77148V8.61719C11.0759 9.12605 10.6619 9.54004 10.1531 9.54004C9.64421 9.54004 9.23022 9.12605 9.23022 8.61719V6.15582C9.23022 5.75789 8.97515 5.40474 8.59733 5.27966ZM10.1531 11.3857C11.6797 11.3857 12.9216 10.1438 12.9216 8.61719V6.77148C12.9216 4.77314 14.165 3.06359 15.9091 2.39569C15.129 4.66806 15.4363 7.35319 17.0084 9.45132C17.0084 9.45132 20.1239 13.6665 20.1252 13.6682C21.9016 16.0365 22.5395 18.976 21.9214 21.9452C20.9614 26.557 16.7883 29.9043 11.9988 29.9043C6.38839 29.9043 1.84741 25.3641 1.84741 19.7529C1.84741 17.5384 2.54761 15.4343 3.87467 13.665L7.40113 8.92154C7.55316 10.3055 8.72936 11.3857 10.1531 11.3857Z" fill="#727272"/>
<path d="M13.8445 24.3672C14.3542 24.3672 14.7673 23.954 14.7673 23.4443C14.7673 22.9347 14.3542 22.5215 13.8445 22.5215C13.3348 22.5215 12.9216 22.9347 12.9216 23.4443C12.9216 23.954 13.3348 24.3672 13.8445 24.3672Z" fill="#727272"/>
<path d="M9.64117 24.2123C10.0634 24.4938 10.6369 24.3823 10.9209 23.9563L14.6123 18.4192C14.895 17.9951 14.7804 17.4222 14.3563 17.1395C13.9323 16.8568 13.3593 16.9713 13.0766 17.3954L9.38517 22.9325C9.10247 23.3566 9.21709 23.9296 9.64117 24.2123Z" fill="#727272"/>
<path d="M10.1531 18.8301C10.6628 18.8301 11.0759 18.4169 11.0759 17.9072C11.0759 17.3975 10.6628 16.9844 10.1531 16.9844C9.6434 16.9844 9.23022 17.3975 9.23022 17.9072C9.23022 18.4169 9.6434 18.8301 10.1531 18.8301Z" fill="#727272"/>
<path d="M4.61597 20.6758C4.61597 24.7467 7.9279 28.0586 11.9988 28.0586C16.0697 28.0586 19.3816 24.7467 19.3816 20.6758C19.3816 16.6049 16.0697 13.293 11.9988 13.293C7.9279 13.293 4.61597 16.6049 4.61597 20.6758ZM11.9988 15.1387C15.052 15.1387 17.5359 17.6226 17.5359 20.6758C17.5359 23.7289 15.052 26.2129 11.9988 26.2129C8.94562 26.2129 6.46167 23.7289 6.46167 20.6758C6.46167 17.6226 8.94562 15.1387 11.9988 15.1387Z" fill="#727272"/>
</svg>
