<svg width="24" height="24" viewBox="0 0 24 24" fill="none" xmlns="http://www.w3.org/2000/svg">
<path d="M13.707 3.293C13.52 3.105 13.266 3 13 3H4C3.447 3 3 3.447 3 4V13C3 13.266 3.105 13.52 3.293 13.707L11.293 21.707C11.488 21.902 11.744 22 12 22C12.256 22 12.512 21.902 12.707 21.707L21.707 12.707C22.098 12.316 22.098 11.684 21.707 11.293L13.707 3.293ZM12 19.586L5 12.586V5H12.586L19.586 12L12 19.586Z" fill="#221E1F"/>
<path d="M8.496 9.99999C9.32719 9.99999 10.001 9.32618 10.001 8.49499C10.001 7.6638 9.32719 6.98999 8.496 6.98999C7.66481 6.98999 6.991 7.6638 6.991 8.49499C6.991 9.32618 7.66481 9.99999 8.496 9.99999Z" fill="#221E1F"/>
</svg>
