<svg width="76" height="72" viewBox="0 0 76 72" fill="none" xmlns="http://www.w3.org/2000/svg">
<g clip-path="url(#clip0)">
<path d="M30.6752 55.5907L16.1348 41.625L38.8742 19.7842L53.4147 33.75L30.6752 55.5907Z" fill="#F0BC5E"/>
<path d="M65.8142 55.125C63.8769 55.125 62.3003 56.6392 62.3003 58.5C62.3003 60.3608 63.8769 61.875 65.8142 61.875C67.7515 61.875 69.3281 60.3608 69.3281 58.5C69.3281 56.6392 67.7515 55.125 65.8142 55.125ZM65.8142 59.625C65.1688 59.625 64.6429 59.1199 64.6429 58.5C64.6429 57.8801 65.1688 57.375 65.8142 57.375C66.4596 57.375 66.9855 57.8801 66.9855 58.5C66.9855 59.1199 66.4596 59.625 65.8142 59.625Z" fill="black"/>
<path d="M51.7585 50.625C49.8212 50.625 48.2446 52.1392 48.2446 54C48.2446 55.8608 49.8212 57.375 51.7585 57.375C53.6958 57.375 55.2724 55.8608 55.2724 54C55.2724 52.1392 53.6958 50.625 51.7585 50.625ZM51.7585 55.125C51.1131 55.125 50.5872 54.6199 50.5872 54C50.5872 53.3801 51.1131 52.875 51.7585 52.875C52.4039 52.875 52.9298 53.3801 52.9298 54C52.9298 54.6199 52.4039 55.125 51.7585 55.125Z" fill="black"/>
<path d="M55.3511 63.7946L60.0409 48.0371L62.2945 48.6558L57.6046 64.4134L55.3511 63.7946Z" fill="black"/>
<path d="M52.5869 41.2954L60.4427 33.75L52.5869 26.2046L50.9307 27.7954L57.1303 33.75L50.9307 39.7046L52.5869 41.2954Z" fill="black"/>
<path d="M38.8744 16.2157L45.0741 22.1703L46.7303 20.5796L38.8744 13.0342L31.0186 20.5796L32.6748 22.1703L38.8744 16.2157Z" fill="black"/>
<path d="M16.9633 34.0796L9.10742 41.625L16.9633 49.1703L18.6195 47.5796L12.4198 41.625L18.6195 35.6704L16.9633 34.0796Z" fill="black"/>
<path d="M30.6757 59.1592L24.476 53.2046L22.8198 54.7954L30.6757 62.3407L38.5316 54.7954L36.8753 53.2046L30.6757 59.1592Z" fill="black"/>
<path d="M36.8672 27.7969L38.5234 26.2062L46.7208 34.0796L45.0646 35.6703L36.8672 27.7969Z" fill="black"/>
<path d="M33.353 31.1706L35.0092 29.5798L42.0357 36.3286L40.3795 37.9193L33.353 31.1706Z" fill="black"/>
<path d="M29.8394 34.5456L31.4956 32.9548L38.522 39.7036L36.8658 41.2943L29.8394 34.5456Z" fill="black"/>
<path d="M26.3257 37.9195L27.9819 36.3287L35.0084 43.0775L33.3521 44.6682L26.3257 37.9195Z" fill="black"/>
<path d="M22.812 41.2935L24.4682 39.7028L32.6656 47.5762L31.0094 49.1669L22.812 41.2935Z" fill="black"/>
<path d="M60.3607 41.7038L64.6429 37.5908V13.0343L60.4427 9.00001H58.2359C57.4688 7.82101 56.4919 6.63863 55.3546 5.54626C51.8231 2.15438 46.81 -0.240744 44.4721 2.00251C42.8627 3.54826 43.5479 6.31688 45.2861 9.00001H34.8757L0.908203 41.625L30.6754 70.2158L43.6416 57.762C44.4323 65.1184 50.9212 70.875 58.7865 70.875C67.1823 70.875 74.0133 64.314 74.0133 56.25C74.0133 48.6956 68.0198 42.4631 60.3607 41.7038ZM46.1283 3.59326C46.899 2.85076 50.3133 3.88801 53.6972 7.13701C54.3227 7.73663 54.8896 8.36438 55.3956 9.00001H48.1394C46.1131 6.44626 45.5052 4.19176 46.1283 3.59326ZM4.22062 41.625L35.8455 11.25H47.0103C47.3781 11.6651 47.7622 12.069 48.1628 12.4538C49.737 13.9658 51.4448 15.1673 53.0846 15.9401C52.9932 16.2394 52.93 16.5488 52.93 16.875C52.93 18.7358 54.5065 20.25 56.4439 20.25C58.3812 20.25 59.9577 18.7358 59.9577 16.875C59.9577 15.0143 58.3812 13.5 56.4439 13.5C55.7118 13.5 55.0336 13.7171 54.4702 14.085C53.1139 13.5034 51.6228 12.501 50.2407 11.25H59.4728L62.3003 13.9658V36.6593L57.019 41.7319C50.0346 42.5126 44.4838 47.844 43.6709 54.5524L30.6754 67.0343L4.22062 41.625ZM55.2726 16.875C55.2726 16.2551 55.7985 15.75 56.4439 15.75C57.0893 15.75 57.6152 16.2551 57.6152 16.875C57.6152 17.4949 57.0893 18 56.4439 18C55.7985 18 55.2726 17.4949 55.2726 16.875ZM58.7865 68.625C51.6826 68.625 45.9022 63.0731 45.9022 56.25C45.9022 49.4269 51.6826 43.875 58.7865 43.875C65.8903 43.875 71.6707 49.4269 71.6707 56.25C71.6707 63.0731 65.8903 68.625 58.7865 68.625Z" fill="black"/>
</g>
<defs>
<clipPath id="clip0">
<rect width="74.9627" height="72" fill="white" transform="translate(0.22168)"/>
</clipPath>
</defs>
</svg>
