<svg width="78" height="72" viewBox="0 0 78 72" fill="none" xmlns="http://www.w3.org/2000/svg">
<path d="M69.7861 7.74719V45.7789H77.1188V7.74719H69.7861Z" fill="#F0BC5E"/>
<path d="M71.9859 7.74719H7.45801V14.7901H71.9859V7.74719Z" fill="#F0BC5E"/>
<g clip-path="url(#clip0)">
<path d="M73.014 11.9702H61.6251H19.9091H8.25993C7.60913 11.9702 7.0885 12.4702 7.0885 13.0953V18.4084H1.29643C0.645635 18.4084 0.125 18.9085 0.125 19.5335V30.7224V40.536V51.7248C0.125 52.3499 0.645635 52.8499 1.29643 52.8499H12.9456H54.6616H66.0505C66.7013 52.8499 67.2219 52.3499 67.2219 51.7248V46.4117H73.014C73.6648 46.4117 74.1854 45.9116 74.1854 45.2866V34.0352V24.2216V13.0328C74.1854 12.4702 73.6648 11.9702 73.014 11.9702ZM14.052 50.5372C13.5314 44.6615 8.58533 39.9109 2.46786 39.4109V31.7225C8.58533 31.2224 13.5314 26.4719 14.052 20.5962H17.8266H53.6203C54.1409 26.3468 58.9568 31.0349 64.9441 31.7225V36.5355V39.5359C58.9568 40.161 54.206 44.849 53.6203 50.6622H14.052V50.5372ZM64.879 21.8463V29.5347C60.1282 28.9096 56.4187 25.2217 55.8981 20.6587H63.7727H64.879V21.8463ZM54.6616 18.4084H19.779C20.4298 17.0958 20.8203 15.6581 20.9504 14.2204H60.5838C60.714 15.7206 61.1044 17.0958 61.7552 18.4084H54.6616ZM67.1568 30.6598V23.8465C68.5886 24.5966 70.1505 25.0342 71.8425 25.2217V33.0351C70.2156 33.2226 68.5886 33.6602 67.1568 34.4103V30.6598ZM71.8425 14.1579V23.0339C70.1505 22.7839 68.5886 22.2214 67.1568 21.2212V19.471C67.1568 18.846 66.6362 18.3459 65.9854 18.3459H64.2933C63.4473 17.0332 62.9267 15.6581 62.7965 14.1579H71.8425ZM9.43136 14.1579H18.7377C18.5425 15.6581 18.0218 17.0958 17.2409 18.3459H13.0107H9.49644V14.1579H9.43136ZM2.46786 20.5962H8.25993H11.7091C11.1885 25.2842 7.28374 28.9721 2.40278 29.5347V20.5962H2.46786ZM2.46786 50.5372V41.6611C7.34882 42.1612 11.1885 45.9116 11.7742 50.5997H2.46786V50.5372ZM64.879 50.5372H55.8981C56.4187 45.9741 60.1933 42.2862 64.879 41.6611V45.224V50.5372ZM71.8425 44.1614H67.1568V40.536V37.0981C68.5235 36.1605 70.1505 35.5354 71.8425 35.3479V44.1614Z" fill="#231F20"/>
<path d="M33.6409 25.5342C27.8488 25.5342 23.1631 30.0348 23.1631 35.5979C23.1631 41.1611 27.8488 45.6616 33.6409 45.6616C39.4329 45.6616 44.1187 41.1611 44.1187 35.5979C44.1187 30.0348 39.4329 25.5342 33.6409 25.5342ZM33.6409 43.4113C29.1504 43.4113 25.5059 39.9109 25.5059 35.5979C25.5059 31.2849 29.1504 27.7845 33.6409 27.7845C38.1314 27.7845 41.7758 31.2849 41.7758 35.5979C41.8409 39.9109 38.1964 43.4113 33.6409 43.4113Z" fill="#231F20"/>
<path d="M17.0457 31.8475C14.8981 31.8475 13.2061 33.5352 13.2061 35.5354C13.2061 37.5981 14.9632 39.2233 17.0457 39.2233C19.1934 39.2233 20.8854 37.5356 20.8854 35.5354C20.8854 33.5352 19.1283 31.8475 17.0457 31.8475ZM17.0457 37.0356C16.1997 37.0356 15.4838 36.348 15.4838 35.5354C15.4838 34.7228 16.1997 34.0352 17.0457 34.0352C17.8918 34.0352 18.6076 34.7228 18.6076 35.5354C18.5426 36.4105 17.8918 37.0356 17.0457 37.0356Z" fill="#231F20"/>
<path d="M54.2062 35.5979C54.2062 33.5352 52.4491 31.91 50.3665 31.91C48.284 31.91 46.5269 33.5977 46.5269 35.5979C46.5269 37.6606 48.284 39.2858 50.3665 39.2858C52.4491 39.2858 54.2062 37.5981 54.2062 35.5979ZM50.3015 37.0356C49.4554 37.0356 48.7396 36.348 48.7396 35.5354C48.7396 34.7228 49.4554 34.0352 50.3015 34.0352C51.1475 34.0352 51.8634 34.7228 51.8634 35.5354C51.8634 36.4105 51.2126 37.0356 50.3015 37.0356Z" fill="#231F20"/>
<path d="M66.0505 56.913H1.29643C0.645635 56.913 0.125 57.413 0.125 58.0381C0.125 58.6632 0.645635 59.1632 1.29643 59.1632H66.0505C66.7013 59.1632 67.2219 58.6632 67.2219 58.0381C67.2219 57.413 66.7013 56.913 66.0505 56.913Z" fill="#231F20"/>
</g>
<defs>
<clipPath id="clip0">
<rect width="74.0604" height="71.1333" fill="white" transform="translate(0.125)"/>
</clipPath>
</defs>
</svg>
