<svg width="78" height="74" viewBox="0 0 78 74" fill="none" xmlns="http://www.w3.org/2000/svg">
<g clip-path="url(#clip0)">
<path d="M63.9519 33.4194H40.3413V21.4839H68.9225V28.6452C68.9225 31.2817 66.6969 33.4194 63.9519 33.4194Z" fill="#F0BC5E"/>
<path d="M75.1359 8.35483H34.128C32.7574 8.35483 31.6427 9.42544 31.6427 10.7419V11.9355H6.78948C5.41882 11.9355 4.30416 13.0061 4.30416 14.3226V16.7097C4.30416 18.0262 5.41882 19.0968 6.78948 19.0968H9.06852L7.02062 31.8904C6.95351 32.3058 6.66024 32.6614 6.25389 32.8166L2.91859 34.0973C1.49574 34.6451 0.576172 35.9509 0.576172 37.4225V54.9032C0.576172 56.2197 1.69084 57.2903 3.0615 57.2903H9.2748V54.9032H3.0615V52.5161H9.2748V50.129H3.0615V45.3548H6.78948V42.9677H3.0615V40.5806H6.78948V38.1935H3.0615V37.4225C3.0615 36.932 3.36843 36.4963 3.84189 36.3149L7.17719 35.0342C8.39624 34.5652 9.27729 33.4993 9.47736 32.2533L11.5837 19.0968H31.6427V50.129H29.1574V21.4839H14.4704L11.785 34.379L11.7601 48.4879H14.2455V35.8064H26.6721V50.129H24.1867V52.5161H31.0997L29.6793 54.9032H25.4294V57.2903H36.6134V54.9032H32.5412L36.0914 48.9355H75.1359V51.3226H70.1652V53.7097H75.1359V56.0968H71.4079V58.4839H75.1359C76.5065 58.4839 77.6212 57.4132 77.6212 56.0968V10.7419C77.6212 9.42544 76.5065 8.35483 75.1359 8.35483ZM14.5188 33.4193L16.5071 23.871H26.6721V33.4193H14.5188ZM10.5175 16.7097H9.45126H6.78948V14.3226H31.6427V16.7097H10.5175ZM34.65 46.5484L34.128 47.4256V10.7419H75.1359V46.5484H34.65Z" fill="black"/>
<path d="M16.7308 65.6452C11.2495 65.6452 6.78955 61.3615 6.78955 56.0968C6.78955 50.832 11.2495 46.5484 16.7308 46.5484C22.2122 46.5484 26.6721 50.832 26.6721 56.0968C26.6721 61.3615 22.2122 65.6452 16.7308 65.6452Z" fill="#F0BC5E"/>
<path d="M16.7309 60.871C13.9896 60.871 11.7603 58.7297 11.7603 56.0968C11.7603 53.4638 13.9896 51.3226 16.7309 51.3226C19.4722 51.3226 21.7016 53.4638 21.7016 56.0968C21.7016 58.7297 19.4722 60.871 16.7309 60.871ZM16.7309 53.7097C15.3602 53.7097 14.2456 54.7803 14.2456 56.0968C14.2456 57.4133 15.3602 58.4839 16.7309 58.4839C18.1016 58.4839 19.2162 57.4133 19.2162 56.0968C19.2162 54.7803 18.1016 53.7097 16.7309 53.7097Z" fill="black"/>
<path d="M45.3119 65.6452C39.8305 65.6452 35.3706 61.3615 35.3706 56.0968C35.3706 50.832 39.8305 46.5484 45.3119 46.5484C50.7933 46.5484 55.2532 50.832 55.2532 56.0968C55.2532 61.3615 50.7933 65.6452 45.3119 65.6452Z" fill="#F0BC5E"/>
<path d="M45.312 60.871C42.5706 60.871 40.3413 58.7297 40.3413 56.0968C40.3413 53.4638 42.5706 51.3226 45.312 51.3226C48.0533 51.3226 50.2826 53.4638 50.2826 56.0968C50.2826 58.7297 48.0533 60.871 45.312 60.871ZM45.312 53.7097C43.9413 53.7097 42.8266 54.7803 42.8266 56.0968C42.8266 57.4133 43.9413 58.4839 45.312 58.4839C46.6826 58.4839 47.7973 57.4133 47.7973 56.0968C47.7973 54.7803 46.6826 53.7097 45.312 53.7097Z" fill="black"/>
<path d="M62.7094 65.6452C57.228 65.6452 52.7681 61.3615 52.7681 56.0968C52.7681 50.832 57.228 46.5484 62.7094 46.5484C68.1907 46.5484 72.6507 50.832 72.6507 56.0968C72.6507 61.3615 68.1907 65.6452 62.7094 65.6452Z" fill="#F0BC5E"/>
<path d="M62.7094 60.871C59.9681 60.871 57.7388 58.7297 57.7388 56.0968C57.7388 53.4638 59.9681 51.3226 62.7094 51.3226C65.4507 51.3226 67.6801 53.4638 67.6801 56.0968C67.6801 58.7297 65.4507 60.871 62.7094 60.871ZM62.7094 53.7097C61.3388 53.7097 60.2241 54.7803 60.2241 56.0968C60.2241 57.4133 61.3388 58.4839 62.7094 58.4839C64.0801 58.4839 65.1947 57.4133 65.1947 56.0968C65.1947 54.7803 64.0801 53.7097 62.7094 53.7097Z" fill="black"/>
<path d="M24.187 38.1936H19.2163V40.5807H24.187V38.1936Z" fill="black"/>
<path d="M63.9519 21.4839H40.3413V23.871H63.9519V21.4839Z" fill="black"/>
<path d="M58.9812 26.2581H40.3413V28.6452H58.9812V26.2581Z" fill="black"/>
<path d="M55.2532 31.0323H40.3413V33.4194H55.2532V31.0323Z" fill="black"/>
<path d="M68.9228 21.4839H66.4375V23.871H68.9228V21.4839Z" fill="black"/>
</g>
<defs>
<clipPath id="clip0">
<rect width="77.045" height="74" fill="white" transform="translate(0.576172)"/>
</clipPath>
</defs>
</svg>
