<svg width="50" height="50" viewBox="0 0 50 50" fill="none" xmlns="http://www.w3.org/2000/svg">
<circle cx="25" cy="25" r="25" fill="#F2CB4D"/>
<g clip-path="url(#clip0)">
<path d="M31.4455 17.9579L26.7581 13.2706C26.6487 13.1611 26.4994 13.0989 26.3438 13.0989H18.1406C17.1714 13.0989 16.3828 13.8874 16.3828 14.8567V31.3411C16.3828 32.3103 17.1714 33.0989 18.1406 33.0989H29.8594C30.8286 33.0989 31.6172 32.3103 31.6172 31.3411V18.3723C31.6172 18.2125 31.5501 18.0625 31.4455 17.9579ZM26.9297 15.0994L29.6167 17.7864H27.5156C27.1925 17.7864 26.9297 17.5235 26.9297 17.2004V15.0994ZM29.8594 31.927H18.1406C17.8175 31.927 17.5547 31.6642 17.5547 31.3411V14.8567C17.5547 14.5336 17.8175 14.2708 18.1406 14.2708H25.7578V17.2004C25.7578 18.1697 26.5464 18.9583 27.5156 18.9583H30.4453V31.3411C30.4453 31.6642 30.1825 31.927 29.8594 31.927Z" fill="white"/>
<path d="M27.5156 21.3801H20.4844C20.1608 21.3801 19.8984 21.6425 19.8984 21.9661C19.8984 22.2897 20.1608 22.552 20.4844 22.552H27.5156C27.8392 22.552 28.1016 22.2897 28.1016 21.9661C28.1016 21.6425 27.8392 21.3801 27.5156 21.3801Z" fill="white"/>
<path d="M27.5156 23.7239H20.4844C20.1608 23.7239 19.8984 23.9862 19.8984 24.3098C19.8984 24.6334 20.1608 24.8958 20.4844 24.8958H27.5156C27.8392 24.8958 28.1016 24.6334 28.1016 24.3098C28.1016 23.9862 27.8392 23.7239 27.5156 23.7239Z" fill="white"/>
<path d="M27.5156 26.0676H20.4844C20.1608 26.0676 19.8984 26.33 19.8984 26.6536C19.8984 26.9772 20.1608 27.2395 20.4844 27.2395H27.5156C27.8392 27.2395 28.1016 26.9772 28.1016 26.6536C28.1016 26.33 27.8392 26.0676 27.5156 26.0676Z" fill="white"/>
<path d="M25.1719 28.4114H20.4844C20.1608 28.4114 19.8984 28.6737 19.8984 28.9973C19.8984 29.3209 20.1608 29.5833 20.4844 29.5833H25.1719C25.4955 29.5833 25.7578 29.3209 25.7578 28.9973C25.7578 28.6737 25.4955 28.4114 25.1719 28.4114Z" fill="white"/>
</g>
<defs>
<clipPath id="clip0">
<rect width="20" height="20" fill="white" transform="translate(14 13.0989)"/>
</clipPath>
</defs>
</svg>
