<svg width="50" height="50" viewBox="0 0 50 50" fill="none" xmlns="http://www.w3.org/2000/svg">
<circle cx="25" cy="25" r="25" fill="#F2CB4D"/>
<g clip-path="url(#clip0)">
<path d="M15.4583 33.0989H17.5417C18.3458 33.0989 19 32.4447 19 31.6405V31.3355C20.26 31.9772 23.1217 33.0989 27.7758 33.0989H29.1092C31.0408 33.0989 32.6808 31.7172 33.0083 29.8139L33.9417 24.3972C34.14 23.2414 33.8208 22.0664 33.0675 21.1714C32.315 20.278 31.2117 19.7655 30.0425 19.7655H26.2625C26.4983 19.1322 26.7342 18.2089 26.7342 17.0572C26.7342 13.9264 24.9625 13.0989 24.0258 13.0989C22.2958 13.0989 22.1508 14.7122 22.1508 16.2239C22.1508 18.0689 20.0817 19.6022 18.9892 20.2839C18.9333 19.5305 18.3092 18.9322 17.5417 18.9322H15.4583C14.6542 18.9322 14 19.5864 14 20.3905V31.6405C14 32.4447 14.6542 33.0989 15.4583 33.0989ZM23.4008 16.2239C23.4008 14.3489 23.7183 14.3489 24.0258 14.3489C24.6125 14.3489 25.4842 15.0705 25.4842 17.0572C25.4842 18.9039 24.7608 20.0355 24.7558 20.0439C24.6283 20.2355 24.6158 20.4822 24.725 20.6855C24.8333 20.8889 25.0458 21.0155 25.2758 21.0155H30.0425C30.8425 21.0155 31.5967 21.3655 32.1117 21.9764C32.6275 22.588 32.8458 23.393 32.71 24.1839L31.7767 29.6005C31.5525 30.9022 30.4308 31.848 29.1092 31.848H27.7758C22.1067 31.8489 19.2667 30.0755 19 29.8997V21.7247C19.6942 21.3564 23.4008 19.248 23.4008 16.2239ZM15.25 20.3905C15.25 20.2755 15.3433 20.1822 15.4583 20.1822H17.5417C17.6567 20.1822 17.75 20.2755 17.75 20.3905V31.6405C17.75 31.7539 17.655 31.8489 17.5417 31.8489H15.4583C15.3433 31.8489 15.25 31.7555 15.25 31.6405V20.3905Z" fill="white"/>
</g>
<defs>
<clipPath id="clip0">
<rect width="20" height="20" fill="white" transform="translate(14 13.0989)"/>
</clipPath>
</defs>
</svg>
