<svg width="50" height="50" viewBox="0 0 50 50" fill="none" xmlns="http://www.w3.org/2000/svg">
<circle cx="25" cy="25" r="25" fill="#F2CB4D"/>
<path d="M29.0239 13.8845L29.0238 13.8843C28.749 13.4052 28.3038 13.0614 27.7717 12.919L27.7715 12.9189C27.2419 12.7774 26.687 12.8519 26.2132 13.1277L26.2132 13.1277L17.3226 18.3036H15.8184C14.6776 18.3036 13.7502 19.231 13.7502 20.3718V31.2807C13.7502 32.4215 14.6776 33.3489 15.8184 33.3489H31.2727C32.4135 33.3489 33.3409 32.4216 33.3409 31.2807V28.6354C33.8761 28.3745 34.2499 27.8285 34.2499 27.1899V24.4626C34.2499 23.824 33.8761 23.278 33.3409 23.0171V20.3718C33.3409 19.3314 32.5684 18.4797 31.5715 18.3342L29.0239 13.8845ZM26.9223 14.3455L26.9229 14.3452C27.0705 14.2587 27.2419 14.2358 27.4072 14.28C27.5741 14.3247 27.7132 14.4319 27.8008 14.5848C27.8008 14.5848 27.8008 14.5848 27.8008 14.5849L28.2534 15.3753L28.2534 15.3753L29.1537 16.9479L29.9299 18.3036H20.9914H20.1232L26.9223 14.3455ZM31.9318 31.2807C31.9318 31.6438 31.6358 31.9398 31.2727 31.9398H15.8184C15.4554 31.9398 15.1593 31.6438 15.1593 31.2807V20.3718C15.1593 20.0087 15.4554 19.7127 15.8184 19.7127H31.2727C31.6358 19.7127 31.9318 20.0087 31.9318 20.3718V22.849H29.4546C27.8126 22.849 26.4773 24.1843 26.4773 25.8263C26.4773 27.4682 27.8126 28.8035 29.4546 28.8035H31.9318V31.2807ZM32.8409 27.1899C32.8409 27.3026 32.7491 27.3944 32.6363 27.3944H29.4546C28.5899 27.3944 27.8864 26.6909 27.8864 25.8263C27.8864 24.9616 28.5899 24.2581 29.4546 24.2581H32.6363C32.7491 24.2581 32.8409 24.3499 32.8409 24.4626V27.1899Z" fill="white" stroke="white" stroke-width="0.5"/>
<ellipse cx="30.25" cy="25.8489" rx="0.750001" ry="0.75" fill="white"/>
</svg>
