<svg width="50" height="50" viewBox="0 0 50 50" fill="none" xmlns="http://www.w3.org/2000/svg">
<circle cx="25" cy="25" r="25" fill="#F2CB4D"/>
<g clip-path="url(#clip0)">
<path d="M33.125 17.5989H16.875C15.8411 17.5989 15 18.4399 15 19.4739V30.7239C15 31.7578 15.8411 32.5989 16.875 32.5989H33.125C34.1589 32.5989 35 31.7578 35 30.7239V19.4739C35 18.4399 34.1589 17.5989 33.125 17.5989ZM33.125 18.8489C33.2099 18.8489 33.2907 18.8665 33.3645 18.8973L25 26.1469L16.6354 18.8973C16.7093 18.8665 16.7901 18.8489 16.875 18.8489H33.125ZM33.125 31.3489H16.875C16.5302 31.3489 16.25 31.0687 16.25 30.7238V20.2179L24.5904 27.4463C24.7083 27.5482 24.8541 27.5989 25 27.5989C25.1459 27.5989 25.2917 27.5482 25.4096 27.4463L33.75 20.2179V30.7239C33.75 31.0687 33.4698 31.3489 33.125 31.3489Z" fill="white"/>
</g>
<defs>
<clipPath id="clip0">
<rect width="20" height="20" fill="white" transform="translate(15 15.0989)"/>
</clipPath>
</defs>
</svg>
