<svg width="141" height="46" viewBox="0 0 141 46" fill="none" xmlns="http://www.w3.org/2000/svg">
<path d="M99.3186 1.84271C103.551 1.86694 106.918 2.70189 109.937 4.80623C110.733 5.36179 110.752 5.4708 110.198 6.29365C109.41 7.46291 108.597 8.61359 107.831 9.79738C107.433 10.4111 107.071 10.5556 106.407 10.1301C104.474 8.89056 102.385 8.03057 100.091 7.94982C99.2274 7.93509 98.3677 8.06739 97.5456 8.34146C96.79 8.58371 96.4103 9.27574 96.3909 10.1365C96.3714 10.9763 96.7473 11.6328 97.4501 11.913C98.7494 12.429 100.095 12.8207 101.426 13.247C103.188 13.8123 105.011 14.216 106.707 14.9428C110.318 16.4883 111.677 18.7041 111.621 22.5284C111.575 25.9256 109.587 28.8406 106.379 30.1674C103.71 31.2704 100.935 31.4069 98.118 31.0726C94.6963 30.6688 91.5348 29.5432 88.7577 27.375C87.9857 26.7718 87.9725 26.6378 88.5806 25.8787C89.4416 24.8021 90.3062 23.7294 91.1744 22.6609C91.8547 21.8219 91.8804 21.8162 92.782 22.4493C95.3712 24.2662 98.198 25.2836 101.349 25.1092C102.015 25.072 102.727 24.917 103.318 24.6077C104.767 23.8487 104.839 21.8202 103.368 21.1234C101.872 20.4152 100.23 20.0397 98.65 19.5237C97.0704 19.0077 95.4411 18.6007 93.905 17.9604C91.256 16.8574 89.4434 14.9646 89.1918 11.8234C88.9254 8.49731 89.963 5.7615 92.6523 3.83723C94.8462 2.2731 97.3422 1.79991 99.3186 1.84271Z" fill="#221E1F"/>
<path d="M125.851 2.35383C129.551 2.35383 133.25 2.36676 136.949 2.34092C137.589 2.33607 137.846 2.51372 137.829 3.21544C137.789 4.78037 137.793 6.34773 137.829 7.91266C137.844 8.6063 137.596 8.80979 136.946 8.80091C134.912 8.7678 132.877 8.78557 130.842 8.79041C129.762 8.79041 129.477 9.07788 129.476 10.2019C129.47 16.6307 129.467 23.0592 129.469 29.4874C129.469 30.7423 129.465 30.7423 128.227 30.7415C126.562 30.7415 124.897 30.7076 123.233 30.7568C122.489 30.7786 122.284 30.5049 122.287 29.7563C122.311 23.3553 122.301 16.9542 122.302 10.5524C122.302 9.00763 122.095 8.7888 120.614 8.7888C118.659 8.7888 116.704 8.76619 114.749 8.80172C114.064 8.81464 113.882 8.51829 113.895 7.86825C113.921 6.334 113.926 4.79087 113.895 3.25339C113.88 2.5767 114.101 2.3393 114.763 2.34414C118.453 2.36675 122.152 2.35383 125.851 2.35383Z" fill="#221E1F"/>
<path d="M77.2164 16.543C77.2164 12.1195 77.2312 7.69521 77.2024 3.27172C77.197 2.54497 77.4129 2.3213 78.1072 2.33906C79.8763 2.38267 81.6492 2.38993 83.4175 2.33341C84.2236 2.30757 84.4574 2.58697 84.4543 3.41223C84.4294 11.1885 84.4395 18.9647 84.4395 26.7409C84.4395 27.785 84.4225 28.8291 84.4395 29.8732C84.4512 30.4933 84.2353 30.7614 83.6024 30.7485C81.753 30.7178 79.9034 30.7178 78.0536 30.7485C77.3741 30.7614 77.1993 30.4723 77.1993 29.815C77.225 25.394 77.2156 20.9673 77.2164 16.543Z" fill="#221E1F"/>
<path d="M10.7786 16.5486C10.7786 20.943 10.7616 25.339 10.7942 29.7334C10.8004 30.5409 10.541 30.7727 9.78848 30.7517C8.02017 30.7041 6.24875 30.7178 4.47966 30.7517C3.8545 30.7622 3.58036 30.5902 3.58192 29.8796C3.599 20.9793 3.599 12.0794 3.58192 3.17964C3.58192 2.51264 3.82499 2.3358 4.42763 2.34549C6.27593 2.37698 8.12578 2.38102 9.97486 2.34549C10.6078 2.33257 10.7918 2.55947 10.7887 3.20063C10.7693 7.64833 10.7786 12.0985 10.7786 16.5486Z" fill="#221E1F"/>
<path d="M41.0637 16.5593C41.0637 20.9553 41.0489 25.3513 41.0761 29.7473C41.0808 30.4919 40.8781 30.7704 40.1341 30.7519C38.3122 30.7075 36.488 30.7212 34.6645 30.7519C34.0875 30.7608 33.867 30.5645 33.8677 29.95C33.8802 20.9932 33.8802 12.0365 33.8677 3.07968C33.8677 2.4781 34.1069 2.34083 34.6296 2.34729C36.4794 2.3699 38.3301 2.38847 40.1784 2.34002C40.8952 2.32144 41.08 2.58711 41.0769 3.29125C41.0536 7.70989 41.0645 12.1358 41.0637 16.5593Z" fill="#221E1F"/>
<path d="M17.7168 14.4663C18.9042 14.4663 20.0916 14.4825 21.2775 14.4582C21.825 14.4461 22.0261 14.6666 22.0199 15.2326C22.0005 17.207 21.9974 19.1821 22.0199 21.1564C22.0269 21.7451 21.7869 21.9228 21.265 21.9203C18.8648 21.9106 16.4646 21.9133 14.0644 21.9284C13.5511 21.9284 13.3515 21.7047 13.3538 21.192C13.3616 19.1899 13.3632 17.1879 13.3585 15.1858C13.3585 14.6771 13.5604 14.4494 14.0761 14.459C15.2907 14.4849 16.5045 14.4679 17.7168 14.4663Z" fill="#221E1F"/>
<path d="M22.1593 2.31124C24.5436 2.31124 26.9278 2.32731 29.3089 2.3032C30.4083 2.29115 30.8122 2.51048 30.7997 3.07368C30.7607 5.03805 30.7545 7.00322 30.7997 8.96759C30.8137 9.55328 30.3319 9.73003 29.284 9.72762C24.4646 9.71798 19.6451 9.72066 14.8257 9.73566C13.795 9.73566 13.3942 9.51311 13.3989 9.00294C13.4145 7.01099 13.4176 5.01904 13.4083 3.02709C13.4083 2.52093 13.8137 2.29437 14.8491 2.30401C17.2879 2.32972 19.7252 2.31284 22.1593 2.31124Z" fill="#F2CB4D"/>
<path d="M71.9838 16.5365C71.9838 20.9317 71.9675 25.3277 71.9993 29.7229C72.0055 30.5143 71.7826 30.7832 71.0115 30.7541C69.5359 30.6984 68.0526 30.7121 66.574 30.7476C65.8945 30.7646 65.4386 30.4949 65.0309 29.9482C61.5341 25.2647 58.0231 20.5906 54.4979 15.926C54.3014 15.666 53.9294 15.5489 53.6398 15.3607C53.5186 15.6958 53.2856 16.0269 53.2856 16.3572C53.2623 20.7799 53.2709 25.2025 53.2701 29.626C53.2701 30.7307 53.2616 30.7379 52.2201 30.7379C50.5023 30.7379 48.7853 30.7178 47.0682 30.7501C46.4322 30.7622 46.1705 30.5651 46.172 29.8618C46.187 20.9885 46.187 12.1151 46.172 3.24178C46.172 2.5764 46.3576 2.31881 47.0325 2.33577C48.7223 2.37856 50.4146 2.37453 52.1044 2.33577C52.7591 2.32123 53.1847 2.57801 53.5738 3.10047C56.924 7.59178 60.2874 12.0721 63.6641 16.5413C63.866 16.8078 64.224 16.945 64.509 17.1445C64.6395 16.7908 64.881 16.4371 64.8833 16.0818C64.9082 11.9345 64.8973 7.78639 64.8965 3.63746C64.8965 2.34546 64.8965 2.34546 66.1709 2.34546C67.8088 2.34546 69.4474 2.3721 71.0845 2.33011C71.7679 2.31235 72.0016 2.52472 71.997 3.26035C71.969 7.6903 71.9838 12.1138 71.9838 16.5365Z" fill="#221E1F"/>
<path d="M6.65651 42.0309C6.49171 42.0859 6.33378 42.1168 6.18271 42.1236C6.03851 42.1374 5.90805 42.1442 5.79131 42.1442C5.07718 42.1442 4.52441 41.9108 4.13301 41.4438C3.74848 40.97 3.55621 40.2559 3.55621 39.3014C3.55621 38.4019 3.76908 37.7084 4.19481 37.2208C4.62055 36.7333 5.23855 36.4895 6.04881 36.4895C6.14495 36.4895 6.24108 36.493 6.33721 36.4998C6.44021 36.5067 6.54665 36.5239 6.65651 36.5513V34.79H7.58351V36.5616C7.76205 36.5273 7.90968 36.5067 8.02641 36.4998C8.14315 36.493 8.24615 36.4895 8.33541 36.4895C9.11135 36.4895 9.69501 36.7024 10.0864 37.1281C10.4847 37.5539 10.6838 38.2405 10.6838 39.1881C10.6838 39.6276 10.6289 40.0293 10.519 40.3932C10.416 40.7572 10.2615 41.0696 10.0555 41.3305C9.85638 41.5846 9.60575 41.7837 9.30361 41.9279C9.00835 42.0721 8.67188 42.1442 8.29421 42.1442C8.21868 42.1442 8.10881 42.1339 7.96461 42.1133C7.82041 42.0996 7.69338 42.0756 7.58351 42.0412V44.06H6.65651V42.0309ZM8.12941 37.2517C8.01955 37.2517 7.92685 37.2552 7.85131 37.262C7.77578 37.2689 7.67965 37.2895 7.56291 37.3238V41.3408C7.66591 41.3614 7.76548 41.3752 7.86161 41.382C7.96461 41.382 8.07448 41.382 8.19121 41.382C8.69935 41.382 9.08045 41.1932 9.33451 40.8155C9.58858 40.4379 9.71561 39.8954 9.71561 39.1881C9.71561 38.8929 9.68815 38.6251 9.63321 38.3847C9.57828 38.1444 9.48901 37.9418 9.36541 37.777C9.24181 37.6054 9.07701 37.4749 8.87101 37.3856C8.67188 37.2964 8.42468 37.2517 8.12941 37.2517ZM6.05911 41.382C6.14838 41.382 6.23765 41.3786 6.32691 41.3717C6.42305 41.3649 6.53978 41.3477 6.67711 41.3202V37.3238C6.55351 37.2964 6.45051 37.2792 6.36811 37.2723C6.28571 37.2586 6.18958 37.2517 6.07971 37.2517C5.58531 37.2517 5.20078 37.42 4.92611 37.7564C4.65831 38.086 4.52441 38.601 4.52441 39.3014C4.52441 39.5967 4.55188 39.8714 4.60681 40.1254C4.66861 40.3795 4.76131 40.5992 4.88491 40.7846C5.01538 40.97 5.17675 41.1177 5.36901 41.2275C5.56128 41.3305 5.79131 41.382 6.05911 41.382Z" fill="black"/>
<path d="M16.3983 38.91L16.5425 37.8388H16.4292L15.9245 38.8482L13.3907 42H12.6594V36.5925H13.607V39.7855L13.5349 40.7331H13.6482L14.122 39.8164L16.6043 36.5925H17.3459V42H16.3983V38.91Z" fill="black"/>
<path d="M23.3391 39.6413H20.6199V42H19.6723V36.5925H20.6199V38.7967H23.3391V36.5925H24.2867V42H23.3391V39.6413Z" fill="black"/>
<path d="M26.5529 36.9324C27.1709 36.6372 27.9365 36.4895 28.8498 36.4895C29.2618 36.4895 29.5914 36.5445 29.8386 36.6543C30.0927 36.7573 30.2884 36.8912 30.4257 37.056C30.563 37.2208 30.6523 37.4062 30.6935 37.6122C30.7416 37.8114 30.7656 38.0105 30.7656 38.2096C30.7656 38.5873 30.7519 38.9684 30.7244 39.3529C30.6969 39.7306 30.6832 40.1426 30.6832 40.5889C30.6832 40.8499 30.6935 41.1039 30.7141 41.3511C30.7416 41.5915 30.7828 41.8146 30.8377 42.0206H30.1476L29.8901 41.1966H29.7871C29.7116 41.2996 29.6189 41.4061 29.509 41.5159C29.3991 41.6189 29.2687 41.7116 29.1176 41.794C28.9665 41.8764 28.7914 41.9451 28.5923 42C28.4 42.055 28.1769 42.0824 27.9228 42.0824C27.6687 42.0824 27.4353 42.0481 27.2224 41.9794C27.0095 41.9039 26.8241 41.8009 26.6662 41.6704C26.5151 41.54 26.395 41.382 26.3057 41.1966C26.2164 41.0044 26.1718 40.7915 26.1718 40.558C26.1718 40.249 26.237 39.9812 26.3675 39.7546C26.5048 39.528 26.6799 39.3426 26.8928 39.1984C27.1057 39.0542 27.346 38.9478 27.6138 38.8791C27.8885 38.8105 28.1597 38.7761 28.4275 38.7761C28.6404 38.7761 28.8189 38.7796 28.9631 38.7864C29.1142 38.7933 29.2378 38.8036 29.3339 38.8173C29.4369 38.8242 29.5227 38.8345 29.5914 38.8482C29.6601 38.8551 29.7219 38.862 29.7768 38.8688C29.7905 38.7658 29.8008 38.6766 29.8077 38.601C29.8146 38.5255 29.818 38.4294 29.818 38.3126C29.818 38.1204 29.7974 37.959 29.7562 37.8285C29.715 37.6981 29.6463 37.5951 29.5502 37.5195C29.4609 37.4371 29.3373 37.3788 29.1794 37.3444C29.0215 37.3101 28.8292 37.2929 28.6026 37.2929C28.4721 37.2929 28.3279 37.3032 28.17 37.3238C28.0121 37.3444 27.8541 37.3753 27.6962 37.4165C27.5383 37.4509 27.3803 37.4955 27.2224 37.5504C27.0713 37.6054 26.934 37.6637 26.8104 37.7255L26.5529 36.9324ZM29.7768 39.5486C29.7219 39.5418 29.6635 39.5315 29.6017 39.5177C29.5399 39.504 29.4609 39.4937 29.3648 39.4868C29.2755 39.48 29.1657 39.4731 29.0352 39.4662C28.9116 39.4594 28.7571 39.4559 28.5717 39.4559C28.146 39.4559 27.8061 39.5315 27.552 39.6825C27.3048 39.8336 27.1812 40.0911 27.1812 40.455C27.1812 40.7297 27.2773 40.9357 27.4696 41.073C27.6687 41.2104 27.9228 41.279 28.2318 41.279C28.4584 41.279 28.6575 41.2516 28.8292 41.1966C29.0077 41.1348 29.1588 41.0627 29.2824 40.9803C29.4129 40.8911 29.5159 40.7949 29.5914 40.6919C29.6738 40.5821 29.7356 40.4756 29.7768 40.3726V39.5486Z" fill="black"/>
<path d="M36.7914 39.6413H34.0722V42H33.1246V36.5925H34.0722V38.7967H36.7914V36.5925H37.739V42H36.7914V39.6413Z" fill="black"/>
<path d="M44.1459 41.6292C43.9055 41.8009 43.624 41.9279 43.3013 42.0103C42.9785 42.0996 42.6386 42.1442 42.2816 42.1442C41.8284 42.1442 41.4404 42.0756 41.1177 41.9382C40.8018 41.8009 40.5443 41.6086 40.3452 41.3614C40.146 41.1142 40.0018 40.8155 39.9126 40.4653C39.8233 40.1151 39.7787 39.7272 39.7787 39.3014C39.7787 38.3882 39.9984 37.6843 40.4379 37.1899C40.8842 36.6887 41.5228 36.438 42.3537 36.438C42.7176 36.438 43.0335 36.4724 43.3013 36.541C43.5691 36.6028 43.8094 36.6818 44.0223 36.7779L43.7751 37.5504C43.5897 37.4543 43.3871 37.3788 43.1674 37.3238C42.9545 37.2689 42.721 37.2414 42.467 37.2414C41.3477 37.2414 40.7881 37.9281 40.7881 39.3014C40.7881 39.5624 40.819 39.8164 40.8808 40.0636C40.9426 40.304 41.0421 40.5203 41.1795 40.7125C41.3168 40.8979 41.4953 41.049 41.7151 41.1657C41.9417 41.2825 42.2163 41.3408 42.5391 41.3408C42.8275 41.3408 43.0781 41.3031 43.291 41.2275C43.5107 41.1451 43.6927 41.049 43.8369 40.9391L44.1459 41.6292Z" fill="black"/>
<path d="M46.9814 41.1966C47.2698 41.2378 47.5651 41.2584 47.8672 41.2584C48.3616 41.2584 48.7084 41.1726 48.9075 41.0009C49.1066 40.8293 49.2062 40.5855 49.2062 40.2696C49.2062 39.995 49.1066 39.7649 48.9075 39.5795C48.7152 39.3941 48.3788 39.3014 47.8981 39.3014C47.7677 39.3014 47.62 39.3083 47.4552 39.322C47.2973 39.3289 47.1394 39.3495 46.9814 39.3838V41.1966ZM46.9814 38.6628C47.2012 38.6285 47.4037 38.6079 47.5891 38.601C47.7814 38.5873 47.9531 38.5804 48.1041 38.5804C48.5024 38.5804 48.8354 38.6216 49.1032 38.704C49.3779 38.7864 49.5976 38.8997 49.7624 39.0439C49.9272 39.1881 50.044 39.3598 50.1126 39.5589C50.1813 39.7512 50.2156 39.9606 50.2156 40.1872C50.2156 40.8396 50.0165 41.3168 49.6182 41.6189C49.22 41.9142 48.571 42.0618 47.6715 42.0618C47.3831 42.0618 47.105 42.0584 46.8372 42.0515C46.5694 42.0447 46.3016 42.0309 46.0338 42.0103V36.5925H46.9814V38.6628ZM51.2147 36.5925H52.1623V42H51.2147V36.5925Z" fill="black"/>
<path d="M61.7465 38.91L61.8907 37.8388H61.7774L61.2727 38.8482L58.7389 42H58.0076V36.5925H58.9552V39.7855L58.8831 40.7331H58.9964L59.4702 39.8164L61.9525 36.5925H62.6941V42H61.7465V38.91Z" fill="black"/>
<path d="M72.6117 41.6292C72.3713 41.8009 72.0898 41.9279 71.7671 42.0103C71.4443 42.0996 71.1044 42.1442 70.7474 42.1442C70.2942 42.1442 69.9062 42.0756 69.5835 41.9382C69.2676 41.8009 69.0101 41.6086 68.811 41.3614C68.6118 41.1142 68.4676 40.8155 68.3784 40.4653C68.2891 40.1151 68.2445 39.7272 68.2445 39.3014C68.2445 38.3882 68.4642 37.6843 68.9037 37.1899C69.35 36.6887 69.9886 36.438 70.8195 36.438C71.1834 36.438 71.4993 36.4724 71.7671 36.541C72.0349 36.6028 72.2752 36.6818 72.4881 36.7779L72.2409 37.5504C72.0555 37.4543 71.8529 37.3788 71.6332 37.3238C71.4203 37.2689 71.1868 37.2414 70.9328 37.2414C69.8135 37.2414 69.2539 37.9281 69.2539 39.3014C69.2539 39.5624 69.2848 39.8164 69.3466 40.0636C69.4084 40.304 69.5079 40.5203 69.6453 40.7125C69.7826 40.8979 69.9611 41.049 70.1809 41.1657C70.4075 41.2825 70.6821 41.3408 71.0049 41.3408C71.2933 41.3408 71.5439 41.3031 71.7568 41.2275C71.9765 41.1451 72.1585 41.049 72.3027 40.9391L72.6117 41.6292Z" fill="black"/>
<path d="M78.1291 37.3959H76.2545V42H75.3069V37.3959H73.4323V36.5925H78.1291V37.3959Z" fill="black"/>
<path d="M79.5511 36.5925H80.1897L80.3751 37.2826H80.4678C80.6532 37.0148 80.8935 36.8088 81.1888 36.6646C81.484 36.5136 81.8171 36.438 82.1879 36.438C82.9707 36.438 83.5543 36.6578 83.9389 37.0972C84.3234 37.5298 84.5157 38.2234 84.5157 39.1778C84.5157 39.631 84.4504 40.043 84.32 40.4138C84.1964 40.7778 84.0144 41.0902 83.7741 41.3511C83.5406 41.6052 83.2522 41.8009 82.9089 41.9382C82.5724 42.0756 82.1947 42.1442 81.7759 42.1442C81.6385 42.1442 81.5115 42.1374 81.3948 42.1236C81.2849 42.1168 81.1819 42.0996 81.0858 42.0721C80.9896 42.0515 80.8935 42.0275 80.7974 42C80.7012 41.9657 80.6017 41.9279 80.4987 41.8867V44.06H79.5511V36.5925ZM81.9716 37.2414C81.5596 37.2414 81.2368 37.3444 81.0034 37.5504C80.7699 37.7564 80.6017 38.0723 80.4987 38.498V40.9906C80.6566 41.1005 80.8283 41.1863 81.0137 41.2481C81.1991 41.3099 81.436 41.3408 81.7244 41.3408C82.2806 41.3408 82.7166 41.1589 83.0325 40.7949C83.3483 40.431 83.5063 39.8885 83.5063 39.1675C83.5063 38.5839 83.3895 38.1169 83.1561 37.7667C82.9226 37.4165 82.5278 37.2414 81.9716 37.2414Z" fill="black"/>
<path d="M86.4921 36.9324C87.1101 36.6372 87.8757 36.4895 88.789 36.4895C89.201 36.4895 89.5306 36.5445 89.7778 36.6543C90.0318 36.7573 90.2275 36.8912 90.3649 37.056C90.5022 37.2208 90.5915 37.4062 90.6327 37.6122C90.6807 37.8114 90.7048 38.0105 90.7048 38.2096C90.7048 38.5873 90.691 38.9684 90.6636 39.3529C90.6361 39.7306 90.6224 40.1426 90.6224 40.5889C90.6224 40.8499 90.6327 41.1039 90.6533 41.3511C90.6807 41.5915 90.7219 41.8146 90.7769 42.0206H90.0868L89.8293 41.1966H89.7263C89.6507 41.2996 89.558 41.4061 89.4482 41.5159C89.3383 41.6189 89.2078 41.7116 89.0568 41.794C88.9057 41.8764 88.7306 41.9451 88.5315 42C88.3392 42.055 88.116 42.0824 87.862 42.0824C87.6079 42.0824 87.3744 42.0481 87.1616 41.9794C86.9487 41.9039 86.7633 41.8009 86.6054 41.6704C86.4543 41.54 86.3341 41.382 86.2449 41.1966C86.1556 41.0044 86.111 40.7915 86.111 40.558C86.111 40.249 86.1762 39.9812 86.3067 39.7546C86.444 39.528 86.6191 39.3426 86.832 39.1984C87.0448 39.0542 87.2852 38.9478 87.553 38.8791C87.8276 38.8105 88.0989 38.7761 88.3667 38.7761C88.5795 38.7761 88.7581 38.7796 88.9023 38.7864C89.0533 38.7933 89.1769 38.8036 89.2731 38.8173C89.3761 38.8242 89.4619 38.8345 89.5306 38.8482C89.5992 38.8551 89.661 38.862 89.716 38.8688C89.7297 38.7658 89.74 38.6766 89.7469 38.601C89.7537 38.5255 89.7572 38.4294 89.7572 38.3126C89.7572 38.1204 89.7366 37.959 89.6954 37.8285C89.6542 37.6981 89.5855 37.5951 89.4894 37.5195C89.4001 37.4371 89.2765 37.3788 89.1186 37.3444C88.9606 37.3101 88.7684 37.2929 88.5418 37.2929C88.4113 37.2929 88.2671 37.3032 88.1092 37.3238C87.9512 37.3444 87.7933 37.3753 87.6354 37.4165C87.4774 37.4509 87.3195 37.4955 87.1616 37.5504C87.0105 37.6054 86.8732 37.6637 86.7496 37.7255L86.4921 36.9324ZM89.716 39.5486C89.661 39.5418 89.6027 39.5315 89.5409 39.5177C89.4791 39.504 89.4001 39.4937 89.304 39.4868C89.2147 39.48 89.1048 39.4731 88.9744 39.4662C88.8508 39.4594 88.6963 39.4559 88.5109 39.4559C88.0851 39.4559 87.7452 39.5315 87.4912 39.6825C87.244 39.8336 87.1204 40.0911 87.1204 40.455C87.1204 40.7297 87.2165 40.9357 87.4088 41.073C87.6079 41.2104 87.862 41.279 88.171 41.279C88.3976 41.279 88.5967 41.2516 88.7684 41.1966C88.9469 41.1348 89.098 41.0627 89.2216 40.9803C89.352 40.8911 89.455 40.7949 89.5306 40.6919C89.613 40.5821 89.6748 40.4756 89.716 40.3726V39.5486Z" fill="black"/>
<path d="M94.5573 39.2293L92.6106 36.5925H93.8157L94.8663 37.9727L95.2268 38.704L95.6491 37.9727L96.7409 36.5925H97.8121L95.8448 39.1881C96.1881 39.6482 96.5383 40.1151 96.8954 40.5889C97.2524 41.0627 97.6026 41.5331 97.946 42H96.7718L95.5873 40.4653L95.1753 39.6928L94.753 40.4653L93.5582 42H92.4664L94.5573 39.2293Z" fill="black"/>
<path d="M99.1545 39.3014C99.1545 38.8551 99.2129 38.4568 99.3296 38.1066C99.4464 37.7496 99.618 37.4474 99.8446 37.2002C100.071 36.953 100.346 36.7642 100.669 36.6337C100.998 36.5033 101.372 36.438 101.791 36.438C102.231 36.438 102.615 36.5101 102.945 36.6543C103.275 36.7985 103.549 37.0011 103.769 37.262C103.989 37.5161 104.15 37.8182 104.253 38.1684C104.363 38.5118 104.418 38.8894 104.418 39.3014C104.418 39.7409 104.356 40.1357 104.232 40.4859C104.116 40.8361 103.944 41.1348 103.717 41.382C103.498 41.6292 103.223 41.8181 102.893 41.9485C102.571 42.079 102.203 42.1442 101.791 42.1442C101.338 42.1442 100.947 42.0721 100.617 41.9279C100.288 41.7837 100.013 41.5846 99.7931 41.3305C99.5803 41.0765 99.4189 40.7778 99.309 40.4344C99.206 40.0842 99.1545 39.7066 99.1545 39.3014ZM100.164 39.3014C100.164 39.5555 100.191 39.8061 100.246 40.0533C100.308 40.2937 100.404 40.51 100.535 40.7022C100.665 40.8945 100.833 41.049 101.039 41.1657C101.245 41.2825 101.5 41.3408 101.802 41.3408C102.873 41.3408 103.408 40.661 103.408 39.3014C103.408 39.0336 103.378 38.7761 103.316 38.5289C103.261 38.2817 103.168 38.0654 103.038 37.88C102.914 37.6878 102.749 37.5333 102.543 37.4165C102.337 37.2998 102.09 37.2414 101.802 37.2414C101.266 37.2414 100.857 37.4131 100.576 37.7564C100.301 38.0929 100.164 38.6079 100.164 39.3014Z" fill="black"/>
<path d="M106.456 36.5925L106.847 36.5719C107.067 36.5582 107.307 36.5445 107.568 36.5307C107.829 36.5101 108.131 36.4998 108.475 36.4998C109.271 36.4998 109.841 36.6131 110.184 36.8397C110.535 37.0595 110.71 37.3891 110.71 37.8285C110.71 38.0689 110.624 38.3126 110.452 38.5598C110.287 38.8002 110.023 38.9753 109.659 39.0851V39.1984C110.112 39.2877 110.435 39.4388 110.627 39.6516C110.826 39.8645 110.926 40.146 110.926 40.4962C110.926 41.0387 110.703 41.4404 110.256 41.7013C109.81 41.9554 109.137 42.0824 108.238 42.0824C107.936 42.0824 107.651 42.0721 107.383 42.0515C107.115 42.0378 106.854 42.0206 106.6 42C106.573 42 106.548 42 106.528 42C106.507 41.9932 106.483 41.9897 106.456 41.9897V36.5925ZM107.403 41.2584C107.554 41.279 107.702 41.2962 107.846 41.3099C107.99 41.3168 108.169 41.3202 108.382 41.3202C108.924 41.3202 109.316 41.2516 109.556 41.1142C109.796 40.97 109.917 40.7366 109.917 40.4138C109.917 40.2834 109.893 40.1632 109.844 40.0533C109.796 39.9435 109.717 39.8508 109.608 39.7752C109.498 39.6997 109.347 39.6413 109.154 39.6001C108.969 39.5521 108.739 39.528 108.464 39.528H107.403V41.2584ZM108.578 38.8791C108.729 38.8791 108.873 38.8585 109.01 38.8173C109.148 38.7761 109.271 38.7178 109.381 38.6422C109.491 38.5667 109.577 38.4809 109.638 38.3847C109.707 38.2817 109.741 38.1719 109.741 38.0551C109.741 37.7667 109.642 37.5676 109.443 37.4577C109.251 37.341 108.917 37.2826 108.444 37.2826C108.286 37.2826 108.124 37.2895 107.96 37.3032C107.802 37.3101 107.616 37.317 107.403 37.3238V38.8791H108.578Z" fill="black"/>
<path d="M112.904 36.9324C113.522 36.6372 114.288 36.4895 115.201 36.4895C115.613 36.4895 115.942 36.5445 116.19 36.6543C116.444 36.7573 116.639 36.8912 116.777 37.056C116.914 37.2208 117.003 37.4062 117.045 37.6122C117.093 37.8114 117.117 38.0105 117.117 38.2096C117.117 38.5873 117.103 38.9684 117.075 39.3529C117.048 39.7306 117.034 40.1426 117.034 40.5889C117.034 40.8499 117.045 41.1039 117.065 41.3511C117.093 41.5915 117.134 41.8146 117.189 42.0206H116.499L116.241 41.1966H116.138C116.063 41.2996 115.97 41.4061 115.86 41.5159C115.75 41.6189 115.62 41.7116 115.469 41.794C115.318 41.8764 115.142 41.9451 114.943 42C114.751 42.055 114.528 42.0824 114.274 42.0824C114.02 42.0824 113.786 42.0481 113.573 41.9794C113.361 41.9039 113.175 41.8009 113.017 41.6704C112.866 41.54 112.746 41.382 112.657 41.1966C112.567 41.0044 112.523 40.7915 112.523 40.558C112.523 40.249 112.588 39.9812 112.719 39.7546C112.856 39.528 113.031 39.3426 113.244 39.1984C113.457 39.0542 113.697 38.9478 113.965 38.8791C114.239 38.8105 114.511 38.7761 114.779 38.7761C114.991 38.7761 115.17 38.7796 115.314 38.7864C115.465 38.7933 115.589 38.8036 115.685 38.8173C115.788 38.8242 115.874 38.8345 115.942 38.8482C116.011 38.8551 116.073 38.862 116.128 38.8688C116.142 38.7658 116.152 38.6766 116.159 38.601C116.166 38.5255 116.169 38.4294 116.169 38.3126C116.169 38.1204 116.148 37.959 116.107 37.8285C116.066 37.6981 115.997 37.5951 115.901 37.5195C115.812 37.4371 115.688 37.3788 115.53 37.3444C115.372 37.3101 115.18 37.2929 114.954 37.2929C114.823 37.2929 114.679 37.3032 114.521 37.3238C114.363 37.3444 114.205 37.3753 114.047 37.4165C113.889 37.4509 113.731 37.4955 113.573 37.5504C113.422 37.6054 113.285 37.6637 113.161 37.7255L112.904 36.9324ZM116.128 39.5486C116.073 39.5418 116.015 39.5315 115.953 39.5177C115.891 39.504 115.812 39.4937 115.716 39.4868C115.627 39.48 115.517 39.4731 115.386 39.4662C115.263 39.4594 115.108 39.4559 114.923 39.4559C114.497 39.4559 114.157 39.5315 113.903 39.6825C113.656 39.8336 113.532 40.0911 113.532 40.455C113.532 40.7297 113.628 40.9357 113.821 41.073C114.02 41.2104 114.274 41.279 114.583 41.279C114.809 41.279 115.009 41.2516 115.18 41.1966C115.359 41.1348 115.51 41.0627 115.633 40.9803C115.764 40.8911 115.867 40.7949 115.942 40.6919C116.025 40.5821 116.087 40.4756 116.128 40.3726V39.5486Z" fill="black"/>
<path d="M123.142 39.6413H120.423V42H119.476V36.5925H120.423V38.7967H123.142V36.5925H124.09V42H123.142V39.6413Z" fill="black"/>
<path d="M130.157 38.91L130.301 37.8388H130.188L129.683 38.8482L127.149 42H126.418V36.5925H127.366V39.7855L127.294 40.7331H127.407L127.881 39.8164L130.363 36.5925H131.105V42H130.157V38.91Z" fill="black"/>
<path d="M137.829 41.5571C137.589 41.7357 137.29 41.8799 136.933 41.9897C136.576 42.0927 136.188 42.1442 135.769 42.1442C135.316 42.1442 134.921 42.079 134.585 41.9485C134.255 41.8112 133.984 41.6189 133.771 41.3717C133.558 41.1245 133.4 40.8258 133.297 40.4756C133.194 40.1254 133.143 39.734 133.143 39.3014C133.143 38.3744 133.369 37.6672 133.822 37.1796C134.282 36.6852 134.935 36.438 135.779 36.438C136.047 36.438 136.315 36.4689 136.583 36.5307C136.851 36.5857 137.091 36.6955 137.304 36.8603C137.517 37.0183 137.688 37.238 137.819 37.5195C137.956 37.8011 138.025 38.1684 138.025 38.6216C138.025 38.7315 138.021 38.8585 138.014 39.0027C138.008 39.1469 137.994 39.2877 137.973 39.425H134.111C134.124 40.0568 134.276 40.534 134.564 40.8567C134.852 41.1795 135.343 41.3408 136.037 41.3408C136.325 41.3408 136.6 41.2928 136.861 41.1966C137.122 41.0936 137.324 40.9735 137.469 40.8361L137.829 41.5571ZM137.118 38.7452C137.132 38.1959 137.019 37.8079 136.778 37.5813C136.545 37.3547 136.215 37.2414 135.79 37.2414C135.309 37.2414 134.928 37.3547 134.646 37.5813C134.365 37.8079 134.2 38.1959 134.152 38.7452H137.118Z" fill="black"/>
</svg>
