<svg width="50" height="50" viewBox="0 0 50 50" fill="none" xmlns="http://www.w3.org/2000/svg">
<circle cx="25" cy="25" r="24.5" fill="white" stroke="#DCE2E3"/>
<mask id="mask0" mask-type="alpha" maskUnits="userSpaceOnUse" x="0" y="0" width="50" height="50">
<circle cx="25" cy="25" r="24.5" fill="white" stroke="#DCE2E3"/>
</mask>
<g mask="url(#mask0)">
<path d="M5.625 20.6061H13.6645C17.2784 26.8849 22.4897 32.0953 28.7692 35.708V43.7447C23.3993 41.9136 18.5208 38.8754 14.509 34.8635C10.4972 30.8517 7.45888 25.9732 5.62781 20.6033" fill="#00AFAA"/>
<path d="M28.7694 20.6061V35.7108C22.4905 32.0969 17.2801 26.8856 13.6675 20.6061H28.7694Z" fill="#00539B"/>
<path d="M28.7692 20.6061H13.6645C11.7555 17.289 10.3261 13.7181 9.4187 10H18.1603C19.5533 9.99963 20.9328 10.2737 22.2199 10.8065C23.507 11.3394 24.6766 12.1206 25.6618 13.1055C26.6469 14.0904 27.4284 15.2597 27.9616 16.5467C28.4948 17.8337 28.7692 19.2131 28.7692 20.6061Z" fill="#00AFAA"/>
<path d="M39.3752 31.2122V39.9482C35.657 39.0435 32.0861 37.6159 28.769 35.708V20.6061C31.5822 20.6068 34.2799 21.7249 36.2689 23.7144C38.2578 25.7038 39.3752 28.4018 39.3752 31.215" fill="#F39A00"/>
<path d="M28.6821 10C29.2611 12.6149 30.5747 15.0102 32.4685 16.904C34.3624 18.7978 36.7576 20.1114 39.3725 20.6904V10H28.6821Z" fill="#00AFAA"/>
</g>
</svg>
