<svg width="18" height="18" viewBox="0 0 18 18" fill="none" xmlns="http://www.w3.org/2000/svg">
<path d="M8.99951 0C5.40496 0 2.48059 2.92437 2.48059 6.51888C2.48059 10.9798 8.31438 17.5287 8.56276 17.8053C8.79606 18.0651 9.20338 18.0647 9.43626 17.8053C9.68463 17.5287 15.5184 10.9798 15.5184 6.51888C15.5184 2.92437 12.594 0 8.99951 0ZM8.99951 16.5139C7.03614 14.1817 3.65453 9.5805 3.65453 6.51895C3.65453 3.57166 6.05226 1.17394 8.99951 1.17394C11.9468 1.17394 14.3445 3.57166 14.3445 6.51892C14.3445 9.58061 10.9634 14.181 8.99951 16.5139Z" fill="#221E1F"/>
<path d="M8.99928 3.23901C7.19077 3.23901 5.71948 4.71034 5.71948 6.51885C5.71948 8.32735 7.19081 9.79868 8.99928 9.79868C10.8077 9.79868 12.279 8.32735 12.279 6.51885C12.279 4.71034 10.8077 3.23901 8.99928 3.23901ZM8.99928 8.62474C7.83807 8.62474 6.89342 7.68006 6.89342 6.51885C6.89342 5.35763 7.8381 4.41295 8.99928 4.41295C10.1605 4.41295 11.1051 5.35763 11.1051 6.51885C11.1051 7.68006 10.1605 8.62474 8.99928 8.62474Z" fill="#221E1F"/>
</svg>
