<svg width="50" height="50" viewBox="0 0 50 50" fill="none" xmlns="http://www.w3.org/2000/svg">
<circle cx="25" cy="25" r="24.5" fill="white" stroke="#DCE2E3"/>
<mask id="mask0" mask-type="alpha" maskUnits="userSpaceOnUse" x="0" y="0" width="50" height="50">
<circle cx="25" cy="25" r="24.5" fill="white" stroke="#DCE2E3"/>
</mask>
<g mask="url(#mask0)">
<path d="M26.4295 18.0259L27.1659 18.4081L27.1598 17.5784L27.0891 7.94494H27.3207C27.3205 7.95948 27.3202 7.97433 27.3199 7.98949C27.3133 8.37503 27.3102 8.96566 27.3242 9.793C27.3522 11.4476 27.4487 14.0498 27.7218 17.8528L27.7485 18.2254L28.1135 18.3054C34.6092 19.7288 39.5 25.4193 39.5 32.2809C39.5 32.5079 39.4947 32.7334 39.4844 32.9574C39.3081 30.4027 38.1999 28.1401 36.4889 26.3029C34.6317 24.3087 32.1343 22.6987 29.0766 21.907L29.0766 21.907L29.0712 21.9056C27.7792 21.5864 26.4134 21.4213 24.9752 21.4213C23.6091 21.4213 22.2457 21.587 20.8856 21.9041L20.8856 21.904L20.8757 21.9065C15.3492 23.3151 11.0577 27.4456 10.5023 32.5615C10.5008 32.4723 10.5 32.3829 10.5 32.2933C10.5 25.4172 15.3184 19.7412 21.8854 18.318L22.2595 18.2369L22.2789 17.8546C22.4711 14.0609 22.5487 11.4624 22.5783 9.81046C22.593 8.98446 22.5958 8.395 22.5948 8.011C22.5947 7.99264 22.5947 7.97474 22.5946 7.95732H22.8365L22.7659 17.5908L22.7598 18.4204L23.4962 18.0383C23.678 17.9439 23.9435 17.9338 24.2816 17.9338H24.7816V17.4338V3H25.1069V17.4214H25.5698V17.9214C25.988 17.9214 26.2493 17.9324 26.4295 18.0259ZM27.362 23.5488C27.6694 23.6044 27.9741 23.646 28.2698 23.6828C29.5964 31.6472 33.3289 36.9604 36.3737 40.2834L36.7501 40.6942C35.7631 42.0402 34.5483 43.2078 33.1686 44.1482C33.1341 44.1061 33.0978 44.0633 33.0611 44.0228C28.8595 38.6729 27.7088 30.7212 27.362 23.5488ZM22.5765 23.5521C22.2559 30.2028 21.2461 37.4501 17.7585 42.7364V42.597L16.8461 43.9279C16.8182 43.9685 16.7922 44.0067 16.7677 44.0427C16.7383 44.0859 16.7111 44.1259 16.6856 44.1629C15.2968 43.2174 14.0938 42.0406 13.1275 40.6821L13.486 40.3002C16.6104 36.9714 20.2701 31.6566 21.594 23.6952C21.909 23.6562 22.2355 23.6121 22.5765 23.5521ZM28.1255 44.8355C28.2988 45.2902 28.5589 45.7925 28.7988 46.2514C27.521 46.5555 26.2178 46.7765 24.9257 46.7765C23.5743 46.7765 22.2676 46.557 21.0538 46.2563C21.2997 45.7504 21.5146 45.2693 21.7227 44.8033C21.7494 44.7436 21.7759 44.6841 21.8024 44.6249L21.8091 44.6099L21.8149 44.5945C23.9755 38.7623 24.6271 30.2181 24.7258 23.3361H24.9381H25.155C25.3152 30.277 25.8149 38.9211 28.1255 44.8355Z" fill="#004684" stroke="#004684"/>
</g>
</svg>
