<svg width="68" height="64" viewBox="0 0 68 64" fill="none" xmlns="http://www.w3.org/2000/svg">
<path d="M59.6582 6.013L57.1834 3.636C55.4144 1.936 53.0604 1 50.5585 1H45.7609C41.6963 1 38.3906 4.175 38.3906 8.079C38.3906 10.241 39.3985 12.255 41.157 13.606L43.3829 15.316L43.8931 15.668C44.0472 14.309 44.2804 12.716 44.6375 11C44.6375 11 46.7198 10 48.8021 10C51.2488 10 52.9761 11.035 53.986 11.89C54.6617 12.462 55.049 13.134 55.049 14H56.0902C57.8153 14 59.2136 15.343 59.2136 17C59.2136 19 57.1313 20 57.1313 20C57.1313 20.622 57.2271 21.288 57.3937 21.941C57.6883 23.102 58.3338 24.155 59.2136 25V26.118L62.4734 24.553C64.9587 23.359 66.5016 20.96 66.5016 18.292V13C66.5016 9.284 63.4709 6.234 59.6582 6.013Z" fill="#F0BC5E"/>
<path d="M29.7563 2.293C28.8891 1.459 27.7344 1 26.5069 1H18.1257C15.4739 1 12.9761 1.997 11.025 3.871C9.25403 5.571 8.19727 8.236 8.19727 11C8.19727 15.483 11.6383 17.738 11.784 17.832L12.2567 18.134L12.4878 18.037C12.4108 17.699 12.3619 17.353 12.3619 17C12.3619 15.895 13.2937 15 14.4442 15V13C14.4442 10.791 16.3089 9 18.6088 9H23.8145C25.6261 9 27.1524 10.118 27.7251 11.669L27.8989 11.572C29.9052 10.126 31.1025 7.824 31.1025 5.414C31.1025 4.235 30.6247 3.126 29.7563 2.293Z" fill="#F0BC5E"/>
<path d="M65.528 33.895C64.6409 32.193 63.177 30.787 61.405 29.935L60.2545 29.382V24.586L59.9495 24.293C59.1822 23.556 58.648 22.66 58.4044 21.704C58.3024 21.303 58.2326 20.907 58.1983 20.534C58.9833 19.99 60.2545 18.828 60.2545 17C60.2545 14.794 58.3867 13 56.0899 13H55.9483C55.7432 12.307 55.3174 11.684 54.674 11.139C53.5214 10.164 51.5662 9 48.8019 9C46.501 9 44.2656 10.061 44.1719 10.105L43.7159 10.324L43.6159 10.803C42.5675 15.843 42.555 19.833 42.555 20V21H44.6373V21.697C44.6373 23.474 45.5566 25.123 47.0955 26.109C48.0065 26.692 49.0653 27 50.1585 27H50.4407C50.5896 27 50.7364 26.969 50.8842 26.958V30.58L48.9497 30.952C48.4958 31.039 48.0793 31.274 47.7785 31.612L46.528 33.013C45.2318 34.465 44.1823 36.082 43.3744 37.8L37.3493 43.586V39.815C37.3493 35.831 35.5585 32.042 32.4371 29.419C29.8155 27.214 26.4516 26 22.9658 26H22.7732V24.966C25.1886 24.795 27.2886 23.351 28.1986 21.164C28.7442 19.856 29.0201 18.479 29.0201 17.07V13C29.0201 10.243 26.6848 8 23.8143 8H18.6086C15.7381 8 13.4028 10.243 13.4028 13V14.171C12.1909 14.584 11.3205 15.696 11.3205 17C11.3205 18.557 11.9515 20.021 13.0978 21.121L13.4028 21.414V26.012C11.0498 26.071 8.79887 26.787 6.87795 28.105C3.79199 30.222 1.9502 33.659 1.9502 37.301V46C1.9502 49.409 3.57335 52.46 6.11479 54.479V63H31.1024V57H33.8999C36.4029 57 38.7559 56.064 40.5258 54.364L41.5149 53.414V63H66.5025V37.854C66.5014 36.486 66.1651 35.117 65.528 33.895ZM51.2819 34H49.8389L49.842 32.82L52.1253 32.382L51.2819 34ZM50.1398 45.454L48.8342 43.197L49.7264 36H51.0903L52.5781 42.43C51.8743 43.512 51.0612 44.525 50.1398 45.454ZM54.067 39.649L53.0217 35.13L54.7115 31.885L56.6397 31.515L54.8385 37.569C54.6261 38.282 54.3596 38.972 54.067 39.649ZM52.9665 26.62L56.294 25.981L55.8848 24.02L51.1143 24.937C50.8936 24.979 50.6676 25 50.4407 25H50.1585C49.4776 25 48.8175 24.808 48.2511 24.445C47.2922 23.832 46.7196 22.804 46.7196 21.697V19H44.6675C44.732 17.602 44.9309 14.875 45.5556 11.703C46.224 11.44 47.5327 11 48.8019 11C50.9165 11 52.4136 11.892 53.2976 12.64C53.789 13.056 54.0076 13.475 54.0076 14V15H56.0899C57.2383 15 58.1722 15.897 58.1722 17C58.1722 18.342 56.6751 19.101 56.6657 19.105L56.0899 19.382V20C56.0899 20.683 56.1878 21.416 56.3815 22.178C56.6813 23.358 57.2966 24.463 58.1722 25.398V29.18L52.9665 30.18V26.62ZM47.7608 34.741V34.941L47.1069 40.212L45.7003 37.78C46.2761 36.707 46.9643 35.69 47.7608 34.741ZM35.267 39.815V45.586L34.7099 46.121C34.1279 46.68 33.3221 47 32.4996 47H31.1024V41H29.0201V47H27.9852C27.9831 47 27.982 47 27.98 47C27.9789 47 27.9789 47 27.9789 47H20.6909V44.198L27.3084 28.761C28.6744 29.256 29.9488 29.984 31.0659 30.923C33.7354 33.167 35.267 36.408 35.267 39.815ZM31.1024 52.108C31.1034 52.877 30.7911 53.603 30.2205 54.151C29.6541 54.696 28.9055 54.996 28.1111 55H26.9378V55.001H24.8555V49H26.9378H27.9852C29.701 49.003 31.0992 50.354 31.1024 52.108ZM21.0886 28L20.0474 30H18.2109L17.1697 28H21.0886ZM22.4233 34.902L21.7737 31.156L23.4072 28.019C24.0423 28.041 24.6722 28.103 25.2896 28.217L22.4233 34.902ZM14.8417 28L16.4846 31.156L15.9672 34.136L12.9874 28.054C13.231 28.036 13.4705 28 13.7162 28H14.8417ZM18.4493 32H19.808L20.9199 38.408L19.5852 41.522L17.5258 37.318L18.4493 32ZM14.444 16H15.4851V13C15.4851 11.346 16.8865 10 18.6086 10H23.8143C25.5364 10 26.9378 11.346 26.9378 13V17.07C26.9378 18.223 26.7118 19.351 26.2652 20.421C25.6134 21.988 24.0559 23.001 22.2984 23.001C21.452 23.001 20.6326 22.763 19.9288 22.312L18.1442 21.169L16.9896 22.833L18.7741 23.976C19.3655 24.354 20.0141 24.62 20.6898 24.79V26H15.4841V20.586L14.5689 19.707C13.8172 18.984 13.4028 18.022 13.4028 17C13.4028 16.449 13.8703 16 14.444 16ZM4.03249 46V37.301C4.03249 34.303 5.54841 31.474 8.08777 29.732C8.94359 29.145 9.87959 28.709 10.8645 28.417L18.6086 44.224V47H12.3617V41H10.2794V47C10.2794 48.103 11.2112 49 12.3554 49H22.7732V55.001L13.4028 55C8.23665 55 4.03249 50.963 4.03249 46ZM29.0201 61H8.19709V55.786C9.7609 56.557 11.5277 57 13.4028 57L28.0945 57.001H28.0955C28.1007 57.001 28.1059 57 28.1111 57H29.0201V61ZM39.0526 52.95C37.6762 54.272 35.8458 55 33.8989 55H32.1748C32.8223 54.159 33.1867 53.145 33.1847 52.011C33.1826 50.877 32.7734 49.841 32.1102 49H32.4996C33.8708 49 35.2128 48.466 36.1832 47.535L41.9626 41.984C41.6763 43.308 41.5139 44.66 41.5139 46.028V50.586L39.0526 52.95ZM43.5962 46.028C43.5962 43.991 43.9678 41.989 44.6571 40.094L48.5749 46.867C48.4323 46.983 48.298 47.106 48.1512 47.219L47.7608 47.52V61H43.5962V46.028ZM64.4191 61H58.1722V45H56.0899V61H49.8431V48.474C53.2143 45.762 55.6287 42.191 56.8406 38.119L58.9364 31.074L59.0676 31.049L60.4742 31.725C61.8465 32.384 62.9792 33.473 63.6653 34.79C64.1589 35.735 64.4191 36.795 64.4191 37.854V61Z" fill="black"/>
<path d="M52.9664 57C53.5415 57 54.0076 56.5523 54.0076 56C54.0076 55.4477 53.5415 55 52.9664 55C52.3914 55 51.9253 55.4477 51.9253 56C51.9253 56.5523 52.3914 57 52.9664 57Z" fill="black"/>
<path d="M52.9664 53C53.5415 53 54.0076 52.5523 54.0076 52C54.0076 51.4477 53.5415 51 52.9664 51C52.3914 51 51.9253 51.4477 51.9253 52C51.9253 52.5523 52.3914 53 52.9664 53Z" fill="black"/>
</svg>
