<svg width="73" height="70" viewBox="0 0 73 70" fill="none" xmlns="http://www.w3.org/2000/svg">
<path d="M21.6363 27.3438C17.8681 27.3438 14.8037 24.4005 14.8037 20.7812V18.5938H28.4688V20.7812C28.4688 24.4005 25.4044 27.3438 21.6363 27.3438Z" fill="#F0BC5E"/>
<path d="M45.8803 26.25C47.7502 25.0622 48.9663 23.0344 48.9663 20.7812V18.5938H35.3013V20.7812C35.3013 22.3081 35.8593 23.7945 36.8716 24.9681L36.875 24.9725C37.2895 24.4234 37.958 24.0625 38.7175 24.0625H40.9951C42.2534 24.0625 43.2726 25.0414 43.2726 26.25H45.8803Z" fill="#F0BC5E"/>
<path d="M68.3253 22.9688H66.0478C64.5651 22.9688 63.3125 23.8864 62.8411 25.1562H53.5215V1.09375H6.83246C3.6929 1.09375 1.13867 3.54703 1.13867 6.5625V54.6875C1.13867 57.703 3.6929 60.1562 6.83246 60.1562H48.3413L47.8038 65.8361L47.9484 66.1139C48.0076 66.2277 49.4482 68.9062 53.5215 68.9062C57.5948 68.9062 59.0353 66.2277 59.0957 66.1139L59.2403 65.8361L57.0459 42.6562H62.8411C63.3125 43.9261 64.5651 44.8438 66.0478 44.8438H68.3253C70.2088 44.8438 71.7416 43.3716 71.7416 41.5625V26.25C71.7416 24.4409 70.2088 22.9688 68.3253 22.9688ZM44.4114 40.4688V27.3438H62.6315V40.4688H44.4114ZM51.244 25.1562H44.2019C43.7305 23.8864 42.4778 22.9688 40.9952 22.9688H38.7176C36.8341 22.9688 35.3014 24.4409 35.3014 26.25V41.5625C35.3014 41.9475 35.3834 42.3128 35.5109 42.6562H33.0239V9.84375H40.452L36.808 18.5938H39.262L42.1339 11.6955L45.007 18.5938H47.461L43.817 9.84375H46.6889V7.65625H17.0813V9.84375H19.9544L16.3103 18.5938H18.7643L21.6363 11.6955L24.5094 18.5938H26.9634L23.3194 9.84375H30.7463V42.6562H28.4688V44.8438H38.7176H39.8564H40.9952C42.4778 44.8438 43.7305 43.9261 44.2019 42.6562H49.997L49.3764 49.2188H12.5262V3.28125H51.244V25.1562ZM37.5789 41.5625V26.25C37.5789 25.6473 38.0902 25.1562 38.7176 25.1562H40.9952C41.6226 25.1562 42.1339 25.6473 42.1339 26.25V41.5625C42.1339 42.1652 41.6226 42.6562 40.9952 42.6562H39.8564H38.7176C38.0902 42.6562 37.5789 42.1652 37.5789 41.5625ZM6.83246 3.28125H10.2487V49.2188H6.83246C5.54566 49.2188 4.37046 49.6464 3.41619 50.3409V6.5625C3.41619 4.75344 4.94895 3.28125 6.83246 3.28125ZM6.83246 57.9688C4.94895 57.9688 3.41619 56.4966 3.41619 54.6875C3.41619 52.8784 4.94895 51.4062 6.83246 51.4062H49.1692L48.5485 57.9688H6.83246ZM56.907 65.3472C56.5517 65.7891 55.561 66.7188 53.5215 66.7188C51.4751 66.7188 50.4844 65.7825 50.136 65.3494L52.2837 42.6562H54.7582L56.907 65.3472ZM69.4641 41.5625C69.4641 42.1652 68.9528 42.6562 68.3253 42.6562H66.0478C65.4203 42.6562 64.909 42.1652 64.909 41.5625V26.25C64.909 25.6473 65.4203 25.1562 66.0478 25.1562H68.3253C68.9528 25.1562 69.4641 25.6473 69.4641 26.25V41.5625Z" fill="black"/>
<path d="M5.69385 53.5938H7.97136V55.7812H5.69385V53.5938Z" fill="black"/>
<path d="M10.2485 53.5938H46.6888V55.7812H10.2485V53.5938Z" fill="black"/>
</svg>
