<svg width="19" height="17" viewBox="0 0 19 17" fill="none" xmlns="http://www.w3.org/2000/svg">
<path opacity="0.2" d="M6.314 16H3.74L13.068 0.599999H15.62L6.314 16ZM4.4 0.291999C5.61733 0.291999 6.54133 0.680666 7.172 1.458C7.81733 2.22067 8.14 3.22533 8.14 4.472C8.14 5.71867 7.81733 6.72333 7.172 7.486C6.54133 8.234 5.61733 8.608 4.4 8.608C3.18267 8.608 2.25867 8.234 1.628 7.486C0.997333 6.72333 0.682 5.71867 0.682 4.472C0.682 3.22533 0.997333 2.22067 1.628 1.458C2.27333 0.680666 3.19733 0.291999 4.4 0.291999ZM4.4 6.54C5.324 6.54 5.786 5.85067 5.786 4.472C5.786 3.064 5.324 2.36 4.4 2.36C3.49067 2.36 3.036 3.064 3.036 4.472C3.036 5.85067 3.49067 6.54 4.4 6.54ZM14.938 7.97C16.1553 7.97 17.0793 8.35867 17.71 9.136C18.3553 9.89867 18.678 10.9033 18.678 12.15C18.678 13.3967 18.3553 14.4013 17.71 15.164C17.0793 15.912 16.1553 16.286 14.938 16.286C13.7207 16.286 12.7967 15.912 12.166 15.164C11.5353 14.4013 11.22 13.3967 11.22 12.15C11.22 10.9033 11.5353 9.89867 12.166 9.136C12.8113 8.35867 13.7353 7.97 14.938 7.97ZM14.938 14.218C15.862 14.218 16.324 13.5287 16.324 12.15C16.324 10.742 15.862 10.038 14.938 10.038C14.0287 10.038 13.574 10.742 13.574 12.15C13.574 13.5287 14.0287 14.218 14.938 14.218Z" fill="black"/>
</svg>
