<svg width="20" height="15" viewBox="0 0 20 15" fill="none" xmlns="http://www.w3.org/2000/svg">
<path opacity="0.3" d="M19.6681 6.34474L19.6671 6.34364L13.755 0.336402C13.3121 -0.113621 12.5957 -0.111947 12.1548 0.340329C11.714 0.792547 11.7157 1.52399 12.1586 1.97407L16.128 6.00724L1.13146 6.00724C0.506557 6.00724 3.06639e-07 6.52444 3.06639e-07 7.16248C3.06639e-07 7.80051 0.506557 8.31771 1.13146 8.31771H16.1279L12.1587 12.3509C11.7157 12.801 11.714 13.5324 12.1549 13.9846C12.5957 14.437 13.3122 14.4385 13.755 13.9885L19.6672 7.98131L19.6682 7.98021C20.1113 7.52863 20.1099 6.79482 19.6681 6.34474Z" fill="#272727"/>
</svg>
