<svg width="44" height="44" viewBox="0 0 44 44" fill="none" xmlns="http://www.w3.org/2000/svg">
<path d="M44 26.1251C44 25.0232 43.5618 23.9966 42.8065 23.2394C43.6627 22.3026 44.099 21.0467 43.9798 19.7396C43.7653 17.4094 41.6661 15.5834 39.1985 15.5834H27.874C28.435 13.8802 29.3333 10.7581 29.3333 8.25005C29.3333 4.27355 25.9545 0.916748 23.8333 0.916748C21.9303 0.916748 20.5681 1.98925 20.5113 2.03325C20.2931 2.20744 20.1666 2.47144 20.1666 2.75005V8.96686L14.8848 20.4051L14.6666 20.5169V20.1667C14.6666 19.6607 14.2559 19.25 13.7499 19.25H4.5833C2.0552 19.2501 0 21.3053 0 23.8334V38.5001C0 41.0282 2.0552 43.0834 4.5833 43.0834H10.0833C12.0651 43.0834 13.7591 41.8184 14.3971 40.0529C15.9225 40.8376 17.9758 41.2501 19.25 41.2501H36.0782C38.0747 41.2501 39.8219 39.9044 40.2325 38.0491C40.4433 37.0921 40.3205 36.1296 39.9025 35.2936C41.2555 34.6134 42.1667 33.2146 42.1667 31.6251C42.1667 30.9761 42.0182 30.3546 41.7377 29.7936C43.0907 29.1116 44 27.7146 44 26.1251ZM40.1335 28.3874C39.7797 28.4296 39.4808 28.6697 39.3672 29.0089C39.2554 29.3481 39.3489 29.7202 39.6092 29.9659C40.0749 30.4041 40.3334 30.9944 40.3334 31.6251C40.3334 32.7819 39.4589 33.7536 38.3021 33.8874C37.9483 33.9296 37.6494 34.1697 37.5358 34.5089C37.424 34.8481 37.5175 35.2202 37.7778 35.4659C38.381 36.0342 38.623 36.8317 38.4415 37.6531C38.216 38.6761 37.2223 39.4167 36.0783 39.4167H19.25C17.7613 39.4167 15.2643 38.7183 14.399 37.8511C14.1368 37.5907 13.7408 37.5137 13.3998 37.6531C13.057 37.7943 12.8333 38.1297 12.8333 38.5001C12.8333 40.0162 11.5995 41.2501 10.0833 41.2501H4.5833C3.06711 41.2501 1.8333 40.0162 1.8333 38.5001V23.8334C1.8333 22.3172 3.06711 21.0834 4.5833 21.0834H12.8333V22.0001C12.8333 22.3172 12.9983 22.6124 13.2696 22.7811C13.5373 22.9424 13.8746 22.9589 14.1606 22.8196L15.9939 21.9029C16.1791 21.8112 16.3276 21.6572 16.4156 21.4684L21.9156 9.55166C21.9706 9.43066 21.9999 9.29866 21.9999 9.16666V3.24686C22.3813 3.03605 23.0432 2.75005 23.8333 2.75005C24.838 2.75005 27.5 5.24705 27.5 8.25005C27.5 11.4767 25.7437 16.1279 25.7272 16.1737C25.6209 16.4542 25.6575 16.7714 25.828 17.0207C26.0003 17.2682 26.2827 17.4167 26.5833 17.4167H39.1985C40.7275 17.4167 42.0255 18.5112 42.1538 19.9082C42.251 20.9532 41.7486 21.9469 40.8485 22.5024C40.568 22.6747 40.4012 22.9864 40.414 23.3182C40.4268 23.6501 40.6175 23.9471 40.9108 24.0992C41.6863 24.4934 42.1666 25.2707 42.1666 26.1251C42.1667 27.2819 41.2922 28.2536 40.1335 28.3874Z" fill="black"/>
<path d="M13.7497 21.0833C13.2437 21.0833 12.833 21.4939 12.833 21.9999V38.5C12.833 39.006 13.2437 39.4167 13.7497 39.4167C14.2557 39.4167 14.6664 39.006 14.6664 38.5V21.9999C14.6664 21.4939 14.2557 21.0833 13.7497 21.0833Z" fill="black"/>
</svg>
