<svg width="42" height="42" viewBox="0 0 42 42" fill="none" xmlns="http://www.w3.org/2000/svg">
<path d="M35.875 10.5H27.125C26.642 10.5 26.25 10.1062 26.25 9.62497V0.875027C26.25 0.392027 25.858 0 25.375 0H7.875C6.42772 0 5.25 1.17772 5.25 2.625V39.375C5.25 40.8223 6.42772 42 7.875 42H34.125C35.5723 42 36.75 40.8223 36.75 39.375V11.375C36.75 10.892 36.358 10.5 35.875 10.5ZM35 39.375C35 39.8563 34.608 40.25 34.125 40.25H7.875C7.392 40.25 6.99997 39.8563 6.99997 39.375V2.625C6.99997 2.14372 7.392 1.74997 7.875 1.74997H24.5V9.62497C24.5 11.0723 25.6777 12.25 27.125 12.25H35V39.375Z" fill="black"/>
<path d="M36.4922 10.7573L25.9922 0.25728C25.651 -0.0839698 25.0962 -0.0839698 24.755 0.25728C24.4137 0.598531 24.4137 1.15331 24.755 1.49456L35.255 11.9946C35.4265 12.1643 35.6504 12.2501 35.8745 12.2501C36.0985 12.2501 36.3224 12.1644 36.4922 11.9946C36.8335 11.6533 36.8335 11.0985 36.4922 10.7573Z" fill="black"/>
<path d="M11.25 33H23.25" stroke="black" stroke-width="2" stroke-linecap="round"/>
<path d="M11.25 36H23.25" stroke="black" stroke-width="2" stroke-linecap="round"/>
</svg>
