<svg width="42" height="42" viewBox="0 0 42 42" fill="none" xmlns="http://www.w3.org/2000/svg">
<path d="M38.5 5.25H3.50003C1.56967 5.25 0 6.81967 0 8.75003V33.2501C0 35.1803 1.56967 36.75 3.50003 36.75H38.5001C40.4303 36.75 42 35.1803 42 33.25V8.75003C42 6.81967 40.4303 5.25 38.5 5.25ZM3.50003 6.99997H38.5001C38.629 6.99997 38.7426 7.04698 38.8636 7.07355C35.8335 9.84679 25.7859 19.0386 22.2698 22.2065C21.9947 22.4543 21.5513 22.75 21.0001 22.75C20.4489 22.75 20.0055 22.4543 19.7294 22.2057C16.2136 19.0382 6.16555 9.84596 3.13589 7.07372C3.25713 7.04714 3.37099 6.99997 3.50003 6.99997ZM1.74997 33.25V8.75003C1.74997 8.57858 1.80165 8.42305 1.84792 8.26637C4.16711 10.389 11.1778 16.8025 15.7237 20.9363C11.1926 24.8285 4.18007 31.4769 1.84242 33.7061C1.80116 33.5573 1.74997 33.4117 1.74997 33.25ZM38.5 35H3.50003C3.36025 35 3.23597 34.9513 3.10546 34.9201C5.52103 32.6173 12.5782 25.9307 17.0296 22.1225C17.6099 22.6489 18.14 23.1289 18.5578 23.5054C19.2791 24.1566 20.1232 24.5 21 24.5C21.8768 24.5 22.7209 24.1565 23.4412 23.5062C23.8593 23.1295 24.3898 22.6492 24.9704 22.1225C29.4221 25.9302 36.4782 32.6164 38.8945 34.9201C38.764 34.9513 38.6399 35 38.5 35ZM40.25 33.25C40.25 33.4117 40.1988 33.5573 40.1577 33.7061C37.8191 31.4758 30.8074 24.8281 26.2764 20.9364C30.8224 16.8026 37.8321 10.3897 40.1521 8.26621C40.1983 8.42289 40.25 8.5785 40.25 8.74995V33.25Z" fill="black"/>
</svg>
