<svg width="21" height="21" viewBox="0 0 21 21" fill="none" xmlns="http://www.w3.org/2000/svg">
<g clip-path="url(#clip0)">
<path d="M20.2082 0.793098C19.6795 0.264286 19.046 0 18.3079 0H2.69445C1.95614 0 1.32279 0.264382 0.793979 0.793098C0.265263 1.32167 0.000976562 1.95511 0.000976562 2.69329V18.3066C0.000976562 19.0446 0.265215 19.6782 0.793979 20.2069C1.32279 20.7355 1.95628 21 2.69445 21H18.3077C19.0456 21 19.6793 20.7355 20.208 20.2069C20.7368 19.6782 21.0009 19.0446 21.0009 18.3066V2.69329C21.0008 1.95497 20.7368 1.32186 20.2082 0.793098ZM7.54125 7.56728C8.36605 6.76987 9.3573 6.37098 10.5149 6.37098C11.6814 6.37098 12.6771 6.76987 13.5021 7.56728C14.3271 8.36483 14.7393 9.32879 14.7393 10.459C14.7393 11.589 14.3271 12.553 13.5021 13.3503C12.6771 14.148 11.6817 14.5469 10.5149 14.5469C9.35735 14.5469 8.36619 14.1477 7.54125 13.3503C6.71626 12.5529 6.30381 11.589 6.30381 10.459C6.30381 9.32879 6.71626 8.36488 7.54125 7.56728ZM18.6223 17.7462C18.6223 17.983 18.5401 18.1812 18.3762 18.3408C18.2118 18.5003 18.0161 18.58 17.788 18.58H3.17303C2.93609 18.58 2.7377 18.5003 2.57833 18.3408C2.41872 18.1815 2.33899 17.983 2.33899 17.7462V8.88656H4.26667C4.08446 9.46086 3.99333 10.058 3.99333 10.6776C3.99333 12.428 4.63128 13.9203 5.90731 15.1555C7.18349 16.3903 8.71926 17.008 10.5148 17.008C11.6997 17.008 12.7934 16.7254 13.7963 16.1603C14.7989 15.5949 15.5914 14.8272 16.1751 13.8564C16.7586 12.8856 17.0502 11.826 17.0502 10.6777C17.0502 10.058 16.9588 9.46105 16.7766 8.8866H18.6224V17.7463H18.6223V17.7462ZM18.6223 5.53694C18.6223 5.80127 18.5312 6.02461 18.3486 6.20687C18.1664 6.38927 17.9432 6.48035 17.6787 6.48035H15.2999C15.0357 6.48035 14.8122 6.38922 14.63 6.20687C14.4477 6.02461 14.3567 5.80127 14.3567 5.53694V3.28129C14.3567 3.02605 14.4477 2.80505 14.63 2.61815C14.8123 2.43135 15.0358 2.33782 15.2999 2.33782H17.6787C17.9432 2.33782 18.1665 2.4313 18.3486 2.61815C18.5312 2.80505 18.6223 3.02605 18.6223 3.28129V5.53694Z" fill="#F2CB4D"/>
</g>
<defs>
<clipPath id="clip0">
<rect width="21" height="21" fill="white"/>
</clipPath>
</defs>
</svg>
