<svg width="37" height="37" viewBox="0 0 37 37" fill="none" xmlns="http://www.w3.org/2000/svg">
<path d="M36.2765 32.3384L26.8468 22.9088C26.5251 22.5857 26.1182 22.3822 25.6871 22.283C27.3181 19.9796 28.2859 17.1751 28.2859 14.143C28.2859 6.34425 21.9424 9.51953e-10 14.143 9.51953e-10C6.34425 -8.97313e-05 0 6.34353 0 14.1429C0 21.9409 6.34425 28.2851 14.143 28.2851C17.3801 28.2851 20.3559 27.1765 22.7411 25.3376C22.852 25.7256 23.0496 26.094 23.3545 26.3996L32.7855 35.8299C33.2523 36.2967 33.8716 36.5527 34.5317 36.5527C35.1919 36.5527 35.8111 36.296 36.2772 35.8299C36.744 35.3631 37.0008 34.7431 37 34.0823C36.9993 33.423 36.7426 32.8038 36.2765 32.3384ZM1.45806 14.1422C1.45806 7.14798 7.14807 1.45797 14.1422 1.45797C21.1357 1.45797 26.8257 7.14798 26.8257 14.1422C26.8257 17.4966 25.5062 20.5426 23.3727 22.814C23.3625 22.8228 23.3523 22.8264 23.3413 22.8344C23.3267 22.8498 23.3231 22.8694 23.3085 22.8833C20.9978 25.3057 17.7469 26.8243 14.1436 26.8243C7.14878 26.8256 1.45806 21.1349 1.45806 14.1422ZM35.2451 34.7979C34.8637 35.1801 34.1985 35.1793 33.8169 34.7979L24.3859 25.3683C23.9928 24.9745 23.9928 24.3333 24.3859 23.9394C24.577 23.7483 24.8308 23.6433 25.1007 23.6433C25.3706 23.6433 25.6237 23.7491 25.8148 23.9394L35.2458 33.3712C35.4362 33.5617 35.5405 33.814 35.5405 34.0839C35.5412 34.353 35.4362 34.6076 35.2451 34.7979Z" fill="#010002"/>
</svg>
