<svg width="41" height="41" viewBox="0 0 41 41" fill="none" xmlns="http://www.w3.org/2000/svg">
<path d="M34.9957 26.5043C32.7629 24.2715 30.1053 22.6186 27.2057 21.6181C30.3113 19.4791 32.3516 15.8994 32.3516 11.8516C32.3516 5.31663 27.0349 0 20.5 0C13.9651 0 8.64844 5.31663 8.64844 11.8516C8.64844 15.8994 10.6887 19.4791 13.7944 21.6181C10.8948 22.6186 8.23716 24.2715 6.00434 26.5043C2.1324 30.3763 0 35.5243 0 41H3.20312C3.20312 31.4625 10.9625 23.7031 20.5 23.7031C30.0375 23.7031 37.7969 31.4625 37.7969 41H41C41 35.5243 38.8676 30.3763 34.9957 26.5043ZM20.5 20.5C15.7313 20.5 11.8516 16.6204 11.8516 11.8516C11.8516 7.08275 15.7313 3.20312 20.5 3.20312C25.2687 3.20312 29.1484 7.08275 29.1484 11.8516C29.1484 16.6204 25.2687 20.5 20.5 20.5Z" fill="#221E1F"/>
</svg>
