<svg width="12" height="18" viewBox="0 0 12 18" fill="none" xmlns="http://www.w3.org/2000/svg">
<path d="M5.31498 0.298685L5.31406 0.299602L0.281803 5.62052C-0.0951811 6.01914 -0.0937782 6.66389 0.285093 7.06068C0.663916 7.45741 1.27664 7.45588 1.65367 7.05726L5.03226 3.4848L5.03226 16.9817C5.03226 17.5441 5.46552 18 6 18C6.53448 18 6.96774 17.5441 6.96774 16.9817L6.96774 3.48485L10.3463 7.05721C10.7234 7.45583 11.3361 7.45736 11.7149 7.06062C12.0938 6.66384 12.0951 6.01904 11.7182 5.62047L6.68593 0.299551L6.68502 0.298635C6.30673 -0.100189 5.69202 -0.0989173 5.31498 0.298685Z" fill="#272727"/>
</svg>
