<svg width="50" height="50" viewBox="0 0 50 50" fill="none" xmlns="http://www.w3.org/2000/svg">
<path d="M43.1597 46.8554H4.65291C3.77762 46.8545 2.93842 46.5064 2.31949 45.8874C1.70056 45.2685 1.35246 44.4293 1.35156 43.554V12.9236C1.35156 12.7444 1.42275 12.5725 1.54946 12.4458C1.67618 12.3191 1.84804 12.2479 2.02724 12.2479H43.1597C44.0349 12.249 44.874 12.5972 45.4929 13.2161C46.1118 13.8349 46.4599 14.674 46.461 15.5493V24.5898C46.461 24.769 46.3898 24.9409 46.2631 25.0676C46.1364 25.1943 45.9646 25.2655 45.7853 25.2655C45.6061 25.2655 45.4343 25.1943 45.3076 25.0676C45.1809 24.9409 45.1097 24.769 45.1097 24.5898V15.5493C45.1091 15.0323 44.9035 14.5366 44.5379 14.171C44.1724 13.8054 43.6767 13.5998 43.1597 13.5993H2.70291V43.554C2.70363 44.071 2.9093 44.5665 3.27485 44.9321C3.64039 45.2976 4.13596 45.5033 4.65291 45.504H43.1597C43.6766 45.5033 44.1722 45.2976 44.5377 44.9321C44.9033 44.5665 45.109 44.071 45.1097 43.554V34.5141C45.1097 34.3349 45.1809 34.1631 45.3076 34.0364C45.4343 33.9097 45.6061 33.8385 45.7853 33.8385C45.9646 33.8385 46.1364 33.9097 46.2631 34.0364C46.3898 34.1631 46.461 34.3349 46.461 34.5141V43.554C46.4599 44.4292 46.1118 45.2683 45.4929 45.8872C44.874 46.5061 44.0349 46.8543 43.1597 46.8554Z" fill="black"/>
<path d="M46.8429 35.1865H38.9301C37.4355 35.1865 36.0022 34.5928 34.9454 33.536C33.8886 32.4792 33.2949 31.0459 33.2949 29.5514C33.2949 28.0569 33.8886 26.6235 34.9454 25.5668C36.0022 24.51 37.4355 23.9163 38.9301 23.9163H46.8429C47.3218 23.917 47.7809 24.1076 48.1194 24.4463C48.458 24.785 48.6484 25.2441 48.649 25.723V33.3784C48.649 33.8576 48.4587 34.3172 48.1201 34.6562C47.7814 34.9953 47.3221 35.186 46.8429 35.1865ZM38.9301 25.2703C38.3675 25.2703 37.8105 25.3811 37.2907 25.5964C36.771 25.8117 36.2987 26.1272 35.901 26.525C35.5032 26.9228 35.1876 27.395 34.9724 27.9148C34.7571 28.4345 34.6463 28.9915 34.6463 29.5541C34.6463 30.1167 34.7571 30.6737 34.9724 31.1934C35.1876 31.7132 35.5032 32.1854 35.901 32.5832C36.2987 32.981 36.771 33.2965 37.2907 33.5118C37.8105 33.7271 38.3675 33.8379 38.9301 33.8379H46.8429C46.903 33.8378 46.9625 33.8258 47.0179 33.8026C47.0733 33.7795 47.1236 33.7455 47.1659 33.7028C47.2082 33.6601 47.2416 33.6095 47.2642 33.5538C47.2868 33.4981 47.2981 33.4385 47.2976 33.3784V25.723C47.2974 25.6024 47.2495 25.4868 47.1643 25.4014C47.079 25.3161 46.9635 25.268 46.8429 25.2676L38.9301 25.2703Z" fill="black"/>
<path d="M2.02713 13.5994C1.86718 13.5993 1.71244 13.5426 1.59041 13.4392C1.46839 13.3358 1.38701 13.1924 1.36074 13.0347C1.33447 12.8769 1.36502 12.7149 1.44696 12.5776C1.52889 12.4402 1.6569 12.3363 1.80821 12.2845L27.7028 3.41355C28.4427 3.15994 29.2324 3.08662 30.0063 3.19968C30.7802 3.31274 31.516 3.60891 32.1524 4.06358C32.7888 4.51824 33.3074 5.11826 33.6652 5.81374C34.023 6.50922 34.2097 7.28008 34.2096 8.0622V12.9237C34.2096 13.1029 34.1384 13.2748 34.0117 13.4015C33.8849 13.5282 33.7131 13.5994 33.5339 13.5994C33.3547 13.5994 33.1828 13.5282 33.0561 13.4015C32.9294 13.2748 32.8582 13.1029 32.8582 12.9237V8.0622C32.8582 7.49518 32.7228 6.93636 32.4633 6.43218C32.2039 5.928 31.8278 5.49303 31.3665 5.16342C30.9051 4.83381 30.3717 4.61908 29.8106 4.53707C29.2496 4.45507 28.6771 4.50816 28.1406 4.69193L2.24605 13.5629C2.17561 13.5871 2.10162 13.5995 2.02713 13.5994Z" fill="black"/>
<path d="M39.1942 31.9777C38.7144 31.9776 38.2453 31.8351 37.8464 31.5685C37.4475 31.3018 37.1366 30.9228 36.9531 30.4794C36.7695 30.036 36.7216 29.5482 36.8153 29.0776C36.909 28.607 37.1401 28.1747 37.4795 27.8354C37.8188 27.4962 38.2512 27.2651 38.7218 27.1716C39.1924 27.078 39.6803 27.1261 40.1236 27.3098C40.5669 27.4934 40.9458 27.8044 41.2124 28.2034C41.479 28.6024 41.6213 29.0715 41.6213 29.5513C41.6207 30.1948 41.3648 30.8118 40.9098 31.2667C40.4547 31.7216 39.8377 31.9773 39.1942 31.9777ZM39.1942 28.477C38.9816 28.477 38.7737 28.5401 38.5969 28.6582C38.4201 28.7764 38.2823 28.9443 38.201 29.1408C38.1197 29.3373 38.0984 29.5534 38.1399 29.762C38.1815 29.9705 38.2839 30.1621 38.4343 30.3124C38.5847 30.4627 38.7763 30.565 38.9849 30.6064C39.1935 30.6479 39.4097 30.6265 39.6061 30.545C39.8025 30.4635 39.9703 30.3256 40.0884 30.1488C40.2064 29.9719 40.2694 29.764 40.2692 29.5513C40.2691 29.2664 40.1557 28.9931 39.9541 28.7916C39.7525 28.5902 39.4792 28.477 39.1942 28.477Z" fill="black"/>
</svg>
