<svg width="45" height="45" viewBox="0 0 45 45" fill="none" xmlns="http://www.w3.org/2000/svg">
<path d="M22.5001 22.558C10.6413 22.558 0.993164 32.2062 0.993164 44.0649C0.993164 44.581 1.41211 45 1.92828 45C2.44444 45 2.86339 44.581 2.86339 44.0649C2.86339 33.2366 11.6719 24.4281 22.5002 24.4281C33.3284 24.4281 42.1369 33.2366 42.1369 44.0649C42.1369 44.581 42.5559 45 43.072 45C43.5882 45 44.0071 44.581 44.0071 44.0649C44.007 32.2043 34.3588 22.558 22.5001 22.558Z" fill="black"/>
<path d="M22.4998 0C16.8294 0 12.2139 4.61367 12.2139 10.2859C12.2139 15.9581 16.8295 20.5718 22.4998 20.5718C28.17 20.5718 32.7856 15.9581 32.7856 10.2859C32.7856 4.61367 28.1701 0 22.4998 0ZM22.4998 18.7016C17.8599 18.7016 14.084 14.9258 14.084 10.2859C14.084 5.64601 17.8599 1.87014 22.4998 1.87014C27.1396 1.87014 30.9155 5.64601 30.9155 10.2859C30.9155 14.9258 27.1396 18.7016 22.4998 18.7016Z" fill="black"/>
</svg>
