<svg width="20" height="20" viewBox="0 0 20 20" fill="none" xmlns="http://www.w3.org/2000/svg">
<path d="M2.93776 1H9.7689C9.9087 1 10.0429 1.05562 10.1418 1.15449L18.4335 9.44599C19.1888 10.2016 19.1888 11.4308 18.4335 12.1861L12.1863 18.4332C11.8216 18.7979 11.335 18.9988 10.8164 18.999H10.8163C10.2976 18.999 9.81106 18.7979 9.44618 18.4331L1.15469 10.1414C1.05581 10.0425 1.00019 9.90837 1.00019 9.76857L1.00005 2.93743C1.00019 1.86915 1.86948 1 2.93776 1ZM2.05487 9.55022L10.192 17.6874C10.3576 17.8531 10.5794 17.9443 10.8163 17.9443C11.0533 17.9443 11.275 17.8531 11.4406 17.6875L17.6878 11.4404C18.032 11.0963 18.032 10.536 17.6878 10.1917L9.55055 2.05468H2.93776C2.45093 2.05468 2.05474 2.45074 2.05474 2.93757L2.05487 9.55022Z" fill="#272727" stroke="#272727" stroke-width="0.5"/>
<path d="M5.64865 3.99097C6.09126 3.99097 6.50737 4.16345 6.82034 4.47643C7.13332 4.78926 7.30566 5.20537 7.30566 5.64798C7.30566 6.09059 7.13332 6.5067 6.82034 6.81967C6.50737 7.13264 6.09126 7.30499 5.64865 7.30499C5.20618 7.30499 4.79007 7.13264 4.4771 6.81967C4.16412 6.5067 3.99178 6.09059 3.99178 5.64798C3.99178 5.20537 4.16412 4.78926 4.47696 4.47643C4.78993 4.16345 5.20604 3.99097 5.64865 3.99097ZM5.22279 6.07384C5.3365 6.18768 5.48784 6.2503 5.64865 6.2503C5.8096 6.2503 5.9608 6.18768 6.07451 6.07384C6.18835 5.96013 6.25098 5.80879 6.25098 5.64798C6.25098 5.48717 6.18835 5.33583 6.07451 5.22212C5.9608 5.10828 5.80946 5.04565 5.64865 5.04565C5.48784 5.04565 5.33664 5.10828 5.22279 5.22212C5.10895 5.33583 5.04633 5.48717 5.04633 5.64798C5.04633 5.80879 5.10909 5.96013 5.22279 6.07384Z" fill="#272727"/>
</svg>
