<svg width="39" height="39" viewBox="0 0 39 39" fill="none" xmlns="http://www.w3.org/2000/svg">
<path d="M19.5002 19C18.1217 19 17.0002 20.1214 17.0002 21.5C17.0002 22.8786 18.1217 24 19.5002 24C20.8788 24 22.0002 22.8786 22.0002 21.5C22.0002 20.1214 20.8788 19 19.5002 19ZM19.5002 23.1667C18.5812 23.1667 17.8336 22.4192 17.8336 21.5C17.8336 20.5808 18.5812 19.8333 19.5002 19.8333C20.4193 19.8333 21.1669 20.5808 21.1669 21.5C21.1669 22.4192 20.4193 23.1667 19.5002 23.1667Z" fill="black"/>
<path d="M19.5 0C8.7477 0 0 8.7477 0 19.5C0 30.2523 8.7477 39 19.5 39C30.2523 39 39 30.2523 39 19.5C39 8.7477 30.2523 0 19.5 0ZM19.5 37.7C9.46432 37.7 1.3 29.5357 1.3 19.5C1.3 9.46432 9.46432 1.3 19.5 1.3C29.5357 1.3 37.7 9.46432 37.7 19.5C37.7 29.5357 29.5357 37.7 19.5 37.7Z" fill="black"/>
<path d="M19.5005 5.57146C11.8204 5.57146 5.5719 11.8199 5.5719 19.5C5.5719 27.1801 11.8204 33.4286 19.5005 33.4286C27.1806 33.4286 33.429 27.1801 33.429 19.5C33.429 11.8199 27.1806 5.57146 19.5005 5.57146ZM19.5005 6.73217C24.9257 6.73217 29.5683 10.1349 31.4143 14.917L27.0662 16.3664C25.5747 16.8635 23.9623 16.7858 22.5247 16.1465C20.6029 15.2919 18.3979 15.2919 16.4766 16.1465L16.2567 16.244C14.9497 16.8255 13.468 16.9428 12.0845 16.5739L7.43427 15.3338C9.16576 10.3337 13.919 6.73217 19.5005 6.73217ZM6.73261 19.5C6.73261 19.3818 6.73834 19.2649 6.74161 19.1475L7.14467 19.2818C12.8667 21.1891 16.9133 26.1883 17.6331 32.13C11.4751 31.2235 6.73261 25.9059 6.73261 19.5ZM19.5005 32.2679C19.27 32.2679 19.0411 32.261 18.8136 32.2489C18.1278 25.7487 13.7446 20.2584 7.51189 18.1812L6.82953 17.9537C6.8917 17.4416 6.98318 16.9385 7.10433 16.4467L11.7852 17.695C12.4126 17.8622 13.0567 17.9455 13.7002 17.9455C14.7374 17.9455 15.772 17.7301 16.7278 17.305L16.9477 17.2075C18.5697 16.4855 20.4304 16.4861 22.0547 17.2081C23.7564 17.9636 25.6663 18.0565 27.4332 17.4671L31.7815 16.0177C31.9597 16.645 32.0909 17.2915 32.1713 17.9537L31.4889 18.1812C25.2561 20.2584 20.873 25.7487 20.1872 32.2489C19.9598 32.261 19.7309 32.2679 19.5005 32.2679ZM21.3679 32.13C22.0877 26.1883 26.1342 21.1891 31.8563 19.2818L32.2594 19.1475C32.2626 19.2649 32.2684 19.3818 32.2684 19.5C32.2683 25.9059 27.5259 31.2235 21.3679 32.13Z" fill="black"/>
</svg>
