<svg width="34" height="34" viewBox="0 0 34 34" fill="none" xmlns="http://www.w3.org/2000/svg">
<path d="M33.3351 29.7164L24.67 21.0513C24.3744 20.7544 24.0005 20.5674 23.6044 20.4763C25.1031 18.3596 25.9925 15.7825 25.9925 12.9962C25.9925 5.82985 20.1633 8.74768e-10 12.9962 8.74768e-10C5.82985 -8.24558e-05 0 5.82919 0 12.9962C0 20.1619 5.82985 25.9917 12.9962 25.9917C15.9709 25.9917 18.7054 24.973 20.8972 23.2832C20.9991 23.6397 21.1807 23.9782 21.4609 24.2591L30.1273 32.9248C30.5562 33.3537 31.1252 33.589 31.7319 33.589C32.3385 33.589 32.9075 33.3531 33.3358 32.9248C33.7647 32.4958 34.0007 31.9261 34 31.3189C33.9993 30.713 33.7634 30.144 33.3351 29.7164ZM1.33984 12.9955C1.33984 6.56841 6.56849 1.33976 12.9956 1.33976C19.422 1.33976 24.6507 6.56841 24.6507 12.9955C24.6507 16.078 23.4381 18.877 21.4776 20.9642C21.4682 20.9723 21.4588 20.9756 21.4488 20.983C21.4353 20.9971 21.432 21.0152 21.4186 21.0279C19.2953 23.2538 16.3079 24.6493 12.9968 24.6493C6.56915 24.6506 1.33984 19.4213 1.33984 12.9955ZM32.3874 31.9764C32.0369 32.3276 31.4256 32.327 31.075 31.9764L22.4087 23.3114C22.0474 22.9495 22.0474 22.3603 22.4087 21.9984C22.5843 21.8227 22.8175 21.7263 23.0655 21.7263C23.3135 21.7263 23.5461 21.8235 23.7217 21.9984L32.3881 30.6655C32.563 30.8404 32.6588 31.0723 32.6588 31.3203C32.6595 31.5676 32.563 31.8016 32.3874 31.9764Z" fill="#010002"/>
</svg>
