<svg width="43" height="43" viewBox="0 0 43 43" fill="none" xmlns="http://www.w3.org/2000/svg">
<path d="M16.3492 7.47821C12.7409 7.47821 9.80566 10.4134 9.80566 14.0217C9.80566 17.63 12.7408 20.5652 16.3492 20.5652C19.9575 20.5652 22.8927 17.6299 22.8927 14.0217C22.8927 10.4135 19.9575 7.47821 16.3492 7.47821ZM16.3492 18.6956C13.7729 18.6956 11.6753 16.5979 11.6753 14.0217C11.6753 11.4455 13.7729 9.34783 16.3492 9.34783C18.9254 9.34783 21.023 11.4455 21.023 14.0217C21.023 16.5979 18.9255 18.6956 16.3492 18.6956Z" fill="black"/>
<path d="M29.4349 14.9567C26.8586 14.9567 24.761 17.0543 24.761 19.6306C24.761 22.2068 26.8586 24.3044 29.4349 24.3044C32.0111 24.3044 34.1087 22.2068 34.1087 19.6306C34.1087 17.0543 32.0111 14.9567 29.4349 14.9567ZM29.4349 22.4349C27.8887 22.4349 26.6305 21.1767 26.6305 19.6306C26.6305 18.0844 27.8887 16.8262 29.4349 16.8262C30.981 16.8262 32.2392 18.0844 32.2392 19.6306C32.2392 21.1767 30.9809 22.4349 29.4349 22.4349Z" fill="black"/>
<path d="M16.3473 22.4349C9.64672 22.4349 4.19507 27.8865 4.19507 34.5871C4.19507 35.1031 4.61388 35.5219 5.12988 35.5219C5.64588 35.5219 6.06469 35.1031 6.06469 34.5871C6.06469 28.9167 10.6769 24.3045 16.3473 24.3045C22.0176 24.3045 26.6298 28.9167 26.6298 34.5871C26.6298 35.1031 27.0486 35.5219 27.5646 35.5219C28.0806 35.5219 28.4995 35.1031 28.4995 34.5871C28.4995 27.8865 23.0478 22.4349 16.3473 22.4349Z" fill="black"/>
<path d="M29.435 26.174C27.8964 26.174 26.3895 26.5946 25.077 27.3892C24.6377 27.6584 24.4956 28.2323 24.7629 28.6736C25.034 29.1148 25.6061 29.255 26.0473 28.9877C27.0662 28.3688 28.2366 28.0435 29.435 28.0435C33.0432 28.0435 35.9785 30.9787 35.9785 34.587C35.9785 35.103 36.3973 35.5218 36.9133 35.5218C37.4293 35.5218 37.8481 35.103 37.8481 34.587C37.848 29.9486 34.0734 26.174 29.435 26.174Z" fill="black"/>
</svg>
