<svg width="49" height="21" viewBox="0 0 49 21" fill="none" xmlns="http://www.w3.org/2000/svg">
<path d="M46.8545 16.6398H43.6791V15.2532H46.4129C46.8959 14.1613 47.1455 12.9805 47.1455 11.7866C47.1455 10.5926 46.8959 9.41186 46.4129 8.31999H17.333C15.9269 8.31999 8.65193 8.86841 6.52552 9.69415L6.15806 9.83628C4.85323 10.341 1.38664 11.6812 1.38664 12.4799V14.5599C1.38664 14.7437 1.45968 14.9201 1.58971 15.0501C1.71973 15.1801 1.89608 15.2532 2.07996 15.2532H4.15991V16.6398H2.07996C1.52832 16.6398 0.999273 16.4207 0.609206 16.0306C0.219138 15.6405 0 15.1115 0 14.5599V12.4799C0 10.8596 2.45227 9.7822 5.65818 8.54324L6.02286 8.40458C8.48831 7.44433 16.1072 6.93336 17.333 6.93336H46.8545C46.9841 6.93278 47.1112 6.96852 47.2215 7.03654C47.3318 7.10455 47.4208 7.20211 47.4785 7.31815C48.1735 8.70528 48.5355 10.2354 48.5355 11.7869C48.5355 13.3385 48.1735 14.8686 47.4785 16.2557C47.4207 16.3716 47.3317 16.4691 47.2214 16.5369C47.1111 16.6048 46.984 16.6405 46.8545 16.6398Z" fill="black"/>
<path d="M12.6611 15.2555H20.6013V16.6391H16.6312L12.6611 16.5077L12.6611 15.2555Z" fill="black"/>
<path d="M19.1982 15.2532H35.3595V16.6398H19.1982V15.2532Z" fill="black"/>
<path d="M12.6697 8.63945L12.2891 7.3062C13.8837 6.84999 15.0006 5.85023 16.2923 4.68614C18.6163 2.59856 21.5074 0 28.4261 0C35.0403 0 38.4792 2.75664 40.9959 4.76934C42.5053 5.97849 43.6971 6.93319 45.0657 6.93319V8.31983C43.2104 8.31983 41.7829 7.17655 40.1293 5.85161C37.6472 3.86248 34.5536 1.38664 28.4261 1.38664C22.0385 1.38664 19.4788 3.68776 17.2199 5.7185C15.859 6.94082 14.5742 8.09589 12.6697 8.63945Z" fill="black"/>
<path d="M39.5193 20.7995C38.5594 20.7995 37.6211 20.5149 36.8229 19.9816C36.0248 19.4483 35.4028 18.6903 35.0354 17.8035C34.6681 16.9167 34.572 15.9409 34.7593 14.9994C34.9465 14.058 35.4088 13.1932 36.0875 12.5145C36.7662 11.8358 37.631 11.3735 38.5724 11.1863C39.5139 10.999 40.4897 11.0951 41.3765 11.4625C42.2633 11.8298 43.0213 12.4518 43.5546 13.2499C44.0879 14.0481 44.3725 14.9864 44.3725 15.9463C44.371 17.233 43.8592 18.4666 42.9494 19.3764C42.0396 20.2862 40.806 20.798 39.5193 20.7995ZM39.5193 12.4797C38.8336 12.4797 38.1634 12.683 37.5933 13.0639C37.0232 13.4448 36.5789 13.9862 36.3165 14.6196C36.0542 15.2531 35.9855 15.9501 36.1193 16.6226C36.253 17.295 36.5832 17.9127 37.068 18.3975C37.5528 18.8823 38.1705 19.2125 38.843 19.3462C39.5154 19.48 40.2124 19.4114 40.8459 19.149C41.4793 18.8866 42.0207 18.4423 42.4016 17.8722C42.7825 17.3021 42.9859 16.6319 42.9859 15.9463C42.9848 15.0272 42.6192 14.1461 41.9693 13.4962C41.3194 12.8463 40.4383 12.4808 39.5193 12.4797Z" fill="black"/>
<path d="M8.32003 20.7995C7.36015 20.7995 6.42183 20.5149 5.62372 19.9816C4.82561 19.4483 4.20356 18.6903 3.83623 17.8035C3.4689 16.9167 3.37279 15.9409 3.56005 14.9994C3.74732 14.058 4.20954 13.1932 4.88828 12.5145C5.56702 11.8358 6.43178 11.3735 7.37321 11.1863C8.31465 10.999 9.29047 11.0951 10.1773 11.4625C11.0641 11.8298 11.8221 12.4518 12.3554 13.2499C12.8886 14.0481 13.1733 14.9864 13.1733 15.9463C13.1718 17.233 12.66 18.4666 11.7502 19.3764C10.8403 20.2862 9.60674 20.798 8.32003 20.7995ZM8.32003 12.4797C7.63441 12.4797 6.96417 12.683 6.3941 13.0639C5.82402 13.4448 5.37969 13.9862 5.11732 14.6196C4.85494 15.2531 4.78629 15.9501 4.92005 16.6226C5.05381 17.295 5.38397 17.9127 5.86878 18.3975C6.35359 18.8823 6.97128 19.2125 7.64373 19.3462C8.31619 19.48 9.0132 19.4114 9.64664 19.149C10.2801 18.8866 10.8215 18.4423 11.2024 17.8722C11.5833 17.3021 11.7866 16.6319 11.7866 15.9463C11.7855 15.0272 11.4199 14.1461 10.7701 13.4962C10.1202 12.8463 9.23909 12.4808 8.32003 12.4797Z" fill="black"/>
<path d="M27.04 0.703857H28.4267V7.62665H27.04V0.703857Z" fill="black"/>
</svg>
