<svg width="36" height="36" viewBox="0 0 36 36" fill="none" xmlns="http://www.w3.org/2000/svg">
<g clip-path="url(#clip0)">
<path d="M34.8577 15.8073L18.839 0.341157C18.3724 -0.113719 17.6281 -0.113719 17.1614 0.341157L1.14339 15.8067C0.907571 16.0342 0.774414 16.3479 0.774414 16.6756C0.774414 17.3427 1.31519 17.8834 1.98218 17.8834H4.11088V34.7922C4.11088 35.4593 4.65158 36 5.31865 36H13.773C14.4401 36 14.9808 35.4593 14.9808 34.7922V25.13H21.0197V34.7922C21.0197 35.4593 21.5604 36 22.2274 36H30.6818C31.3489 36 31.8896 35.4593 31.8896 34.7922V17.8834H34.0183C34.3457 17.8834 34.6591 17.7505 34.8867 17.515C35.3502 17.0354 35.3372 16.2708 34.8577 15.8073ZM31.8896 16.6756C31.2225 16.6756 30.6818 17.2163 30.6818 17.8834V34.7922H22.2274V25.13C22.2274 24.463 21.6867 23.9223 21.0197 23.9223H14.9808C14.3137 23.9223 13.773 24.463 13.773 25.13V34.7922H5.31865V17.8834C5.31865 17.2163 4.77795 16.6756 4.11088 16.6756H1.98218L18.0002 1.21015L34.0243 16.6756H31.8896Z" fill="black"/>
</g>
<defs>
<clipPath id="clip0">
<rect width="36" height="36" fill="white"/>
</clipPath>
</defs>
</svg>
