<svg width="16" height="16" viewBox="0 0 16 16" fill="none" xmlns="http://www.w3.org/2000/svg">
<path d="M2.522 1.88402L8 0.666687L13.478 1.88402C13.626 1.91693 13.7584 1.99933 13.8533 2.11762C13.9482 2.23592 14 2.38303 14 2.53469V9.19269C14 9.85118 13.8373 10.4995 13.5266 11.08C13.2158 11.6606 12.7666 12.1554 12.2187 12.5207L8 15.3334L3.78133 12.5207C3.23352 12.1555 2.78431 11.6608 2.47357 11.0803C2.16282 10.4999 2.00016 9.85173 2 9.19335V2.53469C2.00003 2.38303 2.05176 2.23592 2.14666 2.11762C2.24156 1.99933 2.37396 1.91693 2.522 1.88402ZM3.33333 3.06935V9.19269C3.33334 9.63166 3.44172 10.0638 3.64884 10.4509C3.85597 10.8379 4.15543 11.1678 4.52067 11.4114L8 13.7314L11.4793 11.4114C11.8445 11.1679 12.1439 10.8381 12.351 10.4512C12.5581 10.0643 12.6665 9.63221 12.6667 9.19335V3.06935L8 2.03335L3.33333 3.06935Z" fill="#656263"/>
</svg>
