<svg width="16" height="16" viewBox="0 0 16 16" fill="none" xmlns="http://www.w3.org/2000/svg">
<path d="M2.66675 14.6667C2.66675 13.2522 3.22865 11.8956 4.22885 10.8955C5.22904 9.89526 6.58559 9.33335 8.00008 9.33335C9.41457 9.33335 10.7711 9.89526 11.7713 10.8955C12.7715 11.8956 13.3334 13.2522 13.3334 14.6667H2.66675ZM8.66675 10.722V13.3334H11.7727C11.5344 12.661 11.1209 12.0644 10.5748 11.6053C10.0288 11.1462 9.37008 10.8413 8.66675 10.722ZM7.33342 13.3334V10.722C6.63008 10.8413 5.97135 11.1462 5.42532 11.6053C4.87928 12.0644 4.46573 12.661 4.22741 13.3334H7.33342ZM8.00008 8.66669C5.79008 8.66669 4.00008 6.87669 4.00008 4.66669C4.00008 2.45669 5.79008 0.666687 8.00008 0.666687C10.2101 0.666687 12.0001 2.45669 12.0001 4.66669C12.0001 6.87669 10.2101 8.66669 8.00008 8.66669ZM8.00008 7.33335C9.47341 7.33335 10.6667 6.14002 10.6667 4.66669C10.6667 3.19335 9.47341 2.00002 8.00008 2.00002C6.52675 2.00002 5.33341 3.19335 5.33341 4.66669C5.33341 6.14002 6.52675 7.33335 8.00008 7.33335Z" fill="#656263"/>
</svg>
