<svg width="14" height="15" viewBox="0 0 14 15" fill="none" xmlns="http://www.w3.org/2000/svg">
<g clip-path="url(#clip0_0:139)">
<path d="M13.502 2.61876C13.2012 2.59134 12.9352 2.81296 12.9077 3.11374L12.8353 3.90859C11.6059 1.97796 9.47192 0.6875 6.99925 0.6875C4.33922 0.6875 1.99501 2.20568 0.831319 4.48429C0.693944 4.75327 0.800639 5.08268 1.06962 5.22005C1.33865 5.35743 1.66801 5.25076 1.80539 4.98175C2.79023 3.05336 4.76792 1.78125 6.99925 1.78125C9.03299 1.78125 10.8684 2.8403 11.9198 4.49944L11.1401 3.94253C10.8943 3.76701 10.5527 3.82394 10.3772 4.0697C10.2017 4.3155 10.2586 4.65702 10.5044 4.83257L12.8689 6.52134C13.2155 6.76839 13.6935 6.54223 13.7314 6.12598L13.9969 3.21305C14.0244 2.91224 13.8028 2.64619 13.502 2.61876Z" fill="#221E1F"/>
<path d="M12.9296 10.1551C12.6606 10.0177 12.3312 10.1244 12.1938 10.3934C11.209 12.3218 9.2313 13.5939 6.99997 13.5939C4.96622 13.5939 3.13086 12.5348 2.07938 10.8757L2.85914 11.4326C3.10493 11.6081 3.44646 11.5512 3.622 11.3054C3.79752 11.0596 3.74059 10.7181 3.49483 10.5426L1.13028 8.85379C0.787962 8.60922 0.306111 8.8286 0.267829 9.24915L0.00229435 12.1621C-0.0251314 12.4629 0.19649 12.7289 0.497244 12.7563C0.798408 12.7837 1.06411 12.5619 1.09151 12.2614L1.16397 11.4665C2.39329 13.3972 4.5273 14.6876 6.99997 14.6876C9.66 14.6876 12.0042 13.1695 13.1679 10.8908C13.3053 10.6219 13.1986 10.2925 12.9296 10.1551Z" fill="#221E1F"/>
</g>
<defs>
<clipPath id="clip0_0:139">
<rect width="14" height="14" fill="white" transform="translate(0 0.6875)"/>
</clipPath>
</defs>
</svg>
