<svg width="16" height="15" viewBox="0 0 16 15" fill="none" xmlns="http://www.w3.org/2000/svg">
<path d="M8.00008 8.75V10C6.93922 10 5.9218 10.3951 5.17165 11.0984C4.42151 11.8016 4.00008 12.7554 4.00008 13.75H2.66675C2.66675 12.4239 3.22865 11.1521 4.22885 10.2145C5.22904 9.27678 6.58559 8.75 8.00008 8.75ZM8.00008 8.125C5.79008 8.125 4.00008 6.44688 4.00008 4.375C4.00008 2.30313 5.79008 0.625 8.00008 0.625C10.2101 0.625 12.0001 2.30313 12.0001 4.375C12.0001 6.44688 10.2101 8.125 8.00008 8.125ZM8.00008 6.875C9.47341 6.875 10.6667 5.75625 10.6667 4.375C10.6667 2.99375 9.47341 1.875 8.00008 1.875C6.52675 1.875 5.33341 2.99375 5.33341 4.375C5.33341 5.75625 6.52675 6.875 8.00008 6.875ZM12.0001 13.4375L10.0407 14.4031L10.4147 12.3581L8.83008 10.9094L11.0207 10.6106L12.0001 8.75L12.9801 10.6106L15.1701 10.9094L13.5854 12.3581L13.9587 14.4031L12.0001 13.4375Z" fill="#656263"/>
</svg>
