<svg width="17" height="17" viewBox="0 0 17 17" fill="none" xmlns="http://www.w3.org/2000/svg">
<g opacity="0.7">
<path d="M13.4583 13.4583V6.94097L8.5 3.02955L3.54167 6.94097V13.4583H13.4583ZM14.875 14.1667C14.875 14.3545 14.8004 14.5347 14.6675 14.6675C14.5347 14.8004 14.3545 14.875 14.1667 14.875H2.83333C2.64547 14.875 2.4653 14.8004 2.33247 14.6675C2.19963 14.5347 2.125 14.3545 2.125 14.1667V6.59742C2.12496 6.49043 2.14915 6.38482 2.19577 6.28851C2.24239 6.19221 2.31022 6.10772 2.39417 6.04138L8.06083 1.57109C8.18589 1.47227 8.34061 1.41852 8.5 1.41852C8.65939 1.41852 8.81411 1.47227 8.93917 1.57109L14.6058 6.04067C14.6899 6.10708 14.7578 6.19169 14.8044 6.28812C14.851 6.38456 14.8752 6.49031 14.875 6.59742V14.1667ZM4.95833 8.50001H6.375C6.375 9.06359 6.59888 9.6041 6.9974 10.0026C7.39591 10.4011 7.93642 10.625 8.5 10.625C9.06359 10.625 9.60409 10.4011 10.0026 10.0026C10.4011 9.6041 10.625 9.06359 10.625 8.50001H12.0417C12.0417 9.43932 11.6685 10.3402 11.0043 11.0043C10.3401 11.6685 9.43931 12.0417 8.5 12.0417C7.56069 12.0417 6.65985 11.6685 5.99566 11.0043C5.33147 10.3402 4.95833 9.43932 4.95833 8.50001Z" fill="#221E1F"/>
</g>
</svg>
