<svg width="27" height="27" viewBox="0 0 27 27" fill="none" xmlns="http://www.w3.org/2000/svg">
<path d="M5.45077 17.9478C8.11384 21.1312 11.3196 23.6376 14.9785 25.4111C16.3716 26.0713 18.2346 26.8545 20.3103 26.9888C20.439 26.9944 20.562 27 20.6907 27C22.0838 27 23.2027 26.5189 24.1147 25.5286C24.1203 25.523 24.1315 25.5118 24.137 25.5006C24.4615 25.109 24.8308 24.7565 25.2168 24.3817C25.4798 24.1299 25.7483 23.867 26.0057 23.5984C27.1973 22.3564 27.1973 20.7787 25.9945 19.5758L22.6321 16.2134C22.0614 15.6204 21.3789 15.3071 20.6627 15.3071C19.9466 15.3071 19.2585 15.6204 18.671 16.2078L16.6681 18.2107C16.4835 18.1044 16.2933 18.0093 16.1143 17.9198C15.8905 17.8079 15.6835 17.7016 15.4988 17.5841C13.675 16.426 12.0189 14.9155 10.4356 12.9741C9.6356 11.9615 9.09851 11.1111 8.72366 10.2439C9.24956 9.76834 9.7419 9.27041 10.2174 8.78367C10.3853 8.61024 10.5587 8.4368 10.7322 8.26336C11.3364 7.65914 11.6609 6.9598 11.6609 6.24927C11.6609 5.53875 11.342 4.83941 10.7322 4.23518L9.06494 2.56797C8.86912 2.37215 8.6845 2.18193 8.49428 1.98612C8.12503 1.60568 7.739 1.21405 7.35856 0.861583C6.7823 0.296519 6.10534 0 5.38922 0C4.6787 0 3.99614 0.296519 3.39751 0.867178L1.3051 2.95959C0.544218 3.72047 0.113426 4.6436 0.0239112 5.71218C-0.082388 7.04932 0.163779 8.47037 0.801574 10.1879C1.78065 12.8454 3.25764 15.3127 5.45077 17.9478ZM1.38902 5.82967C1.45615 5.08558 1.74148 4.46457 2.27857 3.92748L4.3598 1.84625C4.68429 1.53295 5.04235 1.3707 5.38922 1.3707C5.7305 1.3707 6.07737 1.53295 6.39627 1.85744C6.77111 2.20431 7.12358 2.56797 7.50402 2.954C7.69424 3.14981 7.89005 3.34563 8.08587 3.54704L9.75309 5.21426C10.1 5.56113 10.279 5.91359 10.279 6.26046C10.279 6.60734 10.1 6.9598 9.75309 7.30667C9.57965 7.48011 9.40621 7.65914 9.23278 7.83257C8.71247 8.35847 8.22573 8.8564 7.68864 9.33195C7.67745 9.34314 7.67186 9.34874 7.66067 9.35993C7.19631 9.82429 7.26904 10.2663 7.38094 10.6019C7.38653 10.6187 7.39213 10.6299 7.39772 10.6467C7.82851 11.6817 8.42714 12.6664 9.36146 13.8413C11.0399 15.9113 12.8078 17.517 14.7547 18.7534C14.9953 18.9101 15.2527 19.0332 15.4932 19.1562C15.717 19.2681 15.924 19.3744 16.1087 19.4919C16.131 19.5031 16.1478 19.5143 16.1702 19.5255C16.3548 19.6206 16.5339 19.6654 16.7129 19.6654C17.1605 19.6654 17.4514 19.38 17.5465 19.2849L19.6389 17.1925C19.9634 16.868 20.3159 16.6946 20.6627 16.6946C21.0879 16.6946 21.4348 16.9575 21.653 17.1925L25.0266 20.5605C25.698 21.2319 25.6924 21.9592 25.0098 22.6697C24.7748 22.9215 24.5287 23.162 24.2657 23.4138C23.8741 23.7942 23.4657 24.1859 23.0964 24.6278C22.453 25.3216 21.6866 25.6461 20.6963 25.6461C20.6012 25.6461 20.5005 25.6405 20.4054 25.6349C18.5703 25.5174 16.8639 24.8013 15.5828 24.1915C12.1029 22.5075 9.04815 20.1185 6.51376 17.0862C4.42694 14.5742 3.02267 12.2356 2.09395 9.72917C1.51769 8.19063 1.2995 6.95421 1.38902 5.82967Z" fill="white"/>
</svg>
