<svg width="27" height="27" viewBox="0 0 27 27" fill="none" xmlns="http://www.w3.org/2000/svg">
<g clip-path="url(#clip0)">
<path d="M5.50252 17.9478C8.1656 21.1312 11.3714 23.6376 15.0303 25.4111C16.4234 26.0713 18.2864 26.8545 20.362 26.9888C20.4907 26.9944 20.6138 27 20.7425 27C22.1356 27 23.2545 26.5189 24.1664 25.5286C24.172 25.523 24.1832 25.5118 24.1888 25.5006C24.5133 25.109 24.8825 24.7565 25.2686 24.3817C25.5315 24.1299 25.8001 23.867 26.0574 23.5984C27.2491 22.3564 27.2491 20.7787 26.0462 19.5758L22.6838 16.2134C22.1132 15.6204 21.4306 15.3071 20.7145 15.3071C19.9984 15.3071 19.3102 15.6204 18.7228 16.2078L16.7199 18.2107C16.5353 18.1044 16.345 18.0093 16.166 17.9198C15.9422 17.8079 15.7352 17.7016 15.5506 17.5841C13.7267 16.426 12.0707 14.9155 10.4874 12.9741C9.68736 11.9615 9.15026 11.1111 8.77542 10.2439C9.30132 9.76834 9.79365 9.27041 10.2692 8.78367C10.437 8.61024 10.6105 8.4368 10.7839 8.26336C11.3881 7.65914 11.7126 6.9598 11.7126 6.24927C11.7126 5.53875 11.3937 4.83941 10.7839 4.23518L9.1167 2.56797C8.92088 2.37215 8.73626 2.18193 8.54604 1.98612C8.17679 1.60568 7.79075 1.21405 7.41031 0.861583C6.83406 0.296519 6.1571 0 5.44098 0C4.73046 0 4.0479 0.296519 3.44927 0.867178L1.35685 2.95959C0.595976 3.72047 0.165184 4.6436 0.0756691 5.71218C-0.0306301 7.04932 0.215536 8.47037 0.853332 10.1879C1.8324 12.8454 3.3094 15.3127 5.50252 17.9478ZM1.44077 5.82967C1.50791 5.08558 1.79324 4.46457 2.33033 3.92748L4.41156 1.84625C4.73605 1.53295 5.09411 1.3707 5.44098 1.3707C5.78226 1.3707 6.12913 1.53295 6.44803 1.85744C6.82287 2.20431 7.17534 2.56797 7.55578 2.954C7.746 3.14981 7.94181 3.34563 8.13762 3.54704L9.80484 5.21426C10.1517 5.56113 10.3307 5.91359 10.3307 6.26046C10.3307 6.60734 10.1517 6.9598 9.80484 7.30667C9.63141 7.48011 9.45797 7.65914 9.28454 7.83257C8.76423 8.35847 8.27749 8.8564 7.7404 9.33195C7.72921 9.34314 7.72362 9.34874 7.71243 9.35993C7.24807 9.82429 7.3208 10.2663 7.43269 10.6019C7.43829 10.6187 7.44388 10.6299 7.44948 10.6467C7.88027 11.6817 8.4789 12.6664 9.41321 13.8413C11.0916 15.9113 12.8595 17.517 14.8065 18.7534C15.0471 18.9101 15.3044 19.0332 15.545 19.1562C15.7688 19.2681 15.9758 19.3744 16.1604 19.4919C16.1828 19.5031 16.1996 19.5143 16.222 19.5255C16.4066 19.6206 16.5856 19.6654 16.7646 19.6654C17.2122 19.6654 17.5031 19.38 17.5983 19.2849L19.6907 17.1925C20.0152 16.868 20.3676 16.6946 20.7145 16.6946C21.1397 16.6946 21.4866 16.9575 21.7048 17.1925L25.0784 20.5605C25.7497 21.2319 25.7441 21.9592 25.0616 22.6697C24.8266 22.9215 24.5804 23.162 24.3175 23.4138C23.9259 23.7942 23.5174 24.1859 23.1482 24.6278C22.5048 25.3216 21.7383 25.6461 20.7481 25.6461C20.653 25.6461 20.5523 25.6405 20.4571 25.6349C18.6221 25.5174 16.9157 24.8013 15.6345 24.1915C12.1546 22.5075 9.09991 20.1185 6.56552 17.0862C4.47869 14.5742 3.07443 12.2356 2.14571 9.72917C1.56945 8.19063 1.35126 6.95421 1.44077 5.82967Z" fill="#221E1F"/>
</g>
<defs>
<clipPath id="clip0">
<rect width="27" height="27" fill="white"/>
</clipPath>
</defs>
</svg>
