<svg width="47" height="47" viewBox="0 0 47 47" fill="none" xmlns="http://www.w3.org/2000/svg">
<path d="M40.5692 44.044H4.3728C3.55002 44.0432 2.76118 43.716 2.17939 43.1342C1.59759 42.5524 1.27037 41.7636 1.26953 40.9408V12.1482C1.26953 11.9797 1.33645 11.8182 1.45556 11.6991C1.57467 11.58 1.73622 11.5131 1.90467 11.5131H40.5692C41.3919 11.5141 42.1806 11.8413 42.7624 12.4231C43.3441 13.0049 43.6714 13.7936 43.6724 14.6163V23.1144C43.6724 23.2829 43.6055 23.4444 43.4864 23.5635C43.3673 23.6827 43.2057 23.7496 43.0373 23.7496C42.8688 23.7496 42.7073 23.6827 42.5882 23.5635C42.4691 23.4444 42.4022 23.2829 42.4022 23.1144V14.6163C42.4017 14.1303 42.2084 13.6644 41.8647 13.3208C41.5211 12.9771 41.0551 12.7838 40.5692 12.7833H2.5398V40.9408C2.54047 41.4267 2.73381 41.8926 3.07742 42.2362C3.42103 42.5798 3.88687 42.7731 4.3728 42.7738H40.5692C41.0551 42.7731 41.5209 42.5798 41.8645 42.2362C42.2081 41.8926 42.4015 41.4267 42.4022 40.9408V32.4433C42.4022 32.2749 42.4691 32.1133 42.5882 31.9942C42.7073 31.8751 42.8688 31.8082 43.0373 31.8082C43.2057 31.8082 43.3673 31.8751 43.4864 31.9942C43.6055 32.1133 43.6724 32.2749 43.6724 32.4433V40.9408C43.6714 41.7635 43.3441 42.5522 42.7624 43.134C42.1806 43.7158 41.3919 44.043 40.5692 44.044Z" fill="#221E1F"/>
<path d="M44.032 33.0755H36.5939C35.189 33.0755 33.8417 32.5174 32.8483 31.524C31.855 30.5306 31.2969 29.1833 31.2969 27.7785C31.2969 26.3736 31.855 25.0263 32.8483 24.0329C33.8417 23.0395 35.189 22.4814 36.5939 22.4814H44.032C44.4821 22.4821 44.9137 22.6613 45.2319 22.9797C45.5502 23.298 45.7292 23.7296 45.7297 24.1798V31.3759C45.7297 31.8263 45.5509 32.2583 45.2325 32.577C44.9142 32.8957 44.4824 33.075 44.032 33.0755ZM36.5939 23.7543C36.0651 23.7543 35.5415 23.8584 35.0529 24.0608C34.5644 24.2631 34.1205 24.5597 33.7466 24.9337C33.3726 25.3076 33.076 25.7515 32.8737 26.24C32.6713 26.7286 32.5671 27.2522 32.5671 27.781C32.5671 28.3098 32.6713 28.8334 32.8737 29.322C33.076 29.8105 33.3726 30.2544 33.7466 30.6284C34.1205 31.0023 34.5644 31.2989 35.0529 31.5012C35.5415 31.7036 36.0651 31.8078 36.5939 31.8078H44.032C44.0885 31.8077 44.1444 31.7964 44.1965 31.7746C44.2486 31.7528 44.2959 31.721 44.3356 31.6808C44.3753 31.6407 44.4067 31.5931 44.428 31.5407C44.4492 31.4884 44.4599 31.4324 44.4594 31.3759V24.1798C44.4592 24.0664 44.4142 23.9577 44.3341 23.8775C44.254 23.7973 44.1453 23.7521 44.032 23.7517L36.5939 23.7543Z" fill="#221E1F"/>
<path d="M1.90456 12.7832C1.75422 12.7832 1.60875 12.7298 1.49405 12.6326C1.37935 12.5354 1.30285 12.4007 1.27816 12.2524C1.25346 12.1041 1.28218 11.9518 1.3592 11.8227C1.43622 11.6936 1.55655 11.596 1.69878 11.5472L26.0397 3.20854C26.7352 2.97014 27.4775 2.90122 28.205 3.00749C28.9325 3.11377 29.6241 3.39217 30.2223 3.81956C30.8205 4.24694 31.308 4.81096 31.6444 5.46472C31.9807 6.11847 32.1561 6.84307 32.1561 7.57827V12.1481C32.1561 12.3165 32.0891 12.4781 31.97 12.5972C31.8509 12.7163 31.6894 12.7832 31.5209 12.7832C31.3525 12.7832 31.1909 12.7163 31.0718 12.5972C30.9527 12.4781 30.8858 12.3165 30.8858 12.1481V7.57827C30.8857 7.04527 30.7585 6.51998 30.5146 6.04605C30.2707 5.57212 29.9172 5.16325 29.4835 4.85341C29.0498 4.54358 28.5485 4.34173 28.0211 4.26465C27.4937 4.18756 26.9555 4.23747 26.4513 4.41021L2.11035 12.7489C2.04413 12.7717 1.97459 12.7833 1.90456 12.7832Z" fill="#221E1F"/>
<path d="M36.8426 30.0591C36.3916 30.059 35.9507 29.9251 35.5757 29.6744C35.2007 29.4237 34.9085 29.0675 34.7359 28.6507C34.5634 28.2339 34.5183 27.7754 34.6064 27.333C34.6945 26.8906 34.9118 26.4843 35.2307 26.1654C35.5497 25.8464 35.9561 25.6293 36.3986 25.5413C36.841 25.4534 37.2995 25.4986 37.7162 25.6712C38.133 25.8439 38.4891 26.1362 38.7397 26.5113C38.9903 26.8863 39.124 27.3273 39.124 27.7783C39.1235 28.3832 38.883 28.9631 38.4552 29.3907C38.0275 29.8184 37.4475 30.0588 36.8426 30.0591ZM36.8426 26.7685C36.6428 26.7685 36.4474 26.8277 36.2812 26.9388C36.115 27.0499 35.9855 27.2077 35.909 27.3924C35.8325 27.5771 35.8126 27.7803 35.8516 27.9763C35.8906 28.1724 35.9869 28.3524 36.1283 28.4937C36.2697 28.635 36.4498 28.7312 36.6459 28.7701C36.8419 28.809 37.0451 28.7889 37.2298 28.7124C37.4144 28.6358 37.5722 28.5062 37.6831 28.3399C37.7941 28.1736 37.8533 27.9782 37.8531 27.7783C37.853 27.5104 37.7464 27.2536 37.5569 27.0642C37.3675 26.8748 37.1105 26.7685 36.8426 26.7685Z" fill="#221E1F"/>
</svg>
