<?xml version="1.0" encoding="utf-8"?>
<!-- Generator: Adobe Illustrator 24.1.1, SVG Export Plug-In . SVG Version: 6.00 Build 0)  -->
<svg version="1.1" id="Слой_1" xmlns:xodm="http://www.corel.com/coreldraw/odm/2003"
	 xmlns="http://www.w3.org/2000/svg" xmlns:xlink="http://www.w3.org/1999/xlink" x="0px" y="0px" viewBox="0 0 166.8 148.8"
	 style="enable-background:new 0 0 166.8 148.8;" xml:space="preserve">
<style type="text/css">
	.st0{fill-rule:evenodd;clip-rule:evenodd;fill:#FFAA00;}
	.st1{fill-rule:evenodd;clip-rule:evenodd;fill:#424242;}
	.st2{fill:#424242;}
	.st3{fill-rule:evenodd;clip-rule:evenodd;fill:#5E5E5E;}
	.st4{fill-rule:evenodd;clip-rule:evenodd;fill:#FEFEFE;}
	.st5{fill-rule:evenodd;clip-rule:evenodd;fill:#707070;}
	.st6{fill-rule:evenodd;clip-rule:evenodd;fill:#DBA240;}
	.st7{fill-rule:evenodd;clip-rule:evenodd;fill:#FFC86A;}
	.st8{fill-rule:evenodd;clip-rule:evenodd;fill:#575757;}
	.st9{fill-rule:evenodd;clip-rule:evenodd;fill:#FFDB9C;}
	.st10{fill-rule:evenodd;clip-rule:evenodd;fill:#3D3D3D;}
	.st11{fill-rule:evenodd;clip-rule:evenodd;fill:#EFB46C;}
	.st12{fill-rule:evenodd;clip-rule:evenodd;fill:#E8B358;}
</style>
<g id="Layer_x0020_1">
	<path class="st0" d="M107,29.2c33,0,59.8,26.8,59.8,59.8s-26.8,59.8-59.8,59.8c-11.9,0-22.9-3.5-32.2-9.4
		c-6.9,4.1-14.9,6.4-23.5,6.4C25.7,145.8,5,125.1,5,99.6c0-1.8,0.1-3.5,0.3-5.2C1.9,86.8,0,78.5,0,69.7c0-33,26.8-59.8,59.8-59.8
		c7.1,0,13.9,1.2,20.2,3.5C80.4,5.9,86.6,0,94.1,0c7.8,0,14.2,6.3,14.2,14.2c0,5.3-2.9,9.9-7.1,12.3c1,0.9,1.9,1.8,2.8,2.8
		C104.9,29.2,106,29.2,107,29.2L107,29.2z M77.6,22.7c23.4,0,42.4,19,42.4,42.4s-19,42.4-42.4,42.4s-42.4-19-42.4-42.4
		S54.2,22.7,77.6,22.7L77.6,22.7z"/>
	<g id="_2532621359216">
		<path class="st1" d="M44.2,76.2c1.2,2.4,2.7,7.8,4,20.1c2.5,23.5,7.7,39.4,10.1,45.9c0.4,1.1,0.8,2,1.1,2.9
			c-2.3,0.4-4.7,0.7-7.2,0.7c-3.8-6.2-8.6-15.2-10.5-23.6c0.1-7.5,4.6-13.8,5.1-21.2C47.2,93.7,45.1,80.7,44.2,76.2L44.2,76.2z"/>
		<path class="st2" d="M112.4,104.1c0.3,26-1,25-24.2,30l1.6-8.6c23.2-5.3,11-11.7,19.4-45.6c0.1-1.6,0.4-3.5,2.1-4.2
			C110.2,82.5,112.1,98.5,112.4,104.1L112.4,104.1z"/>
		<path class="st3" d="M111,75.8c4.6-1.5,13.1-11.3,21.4-7.9c2.4,1.5,7.6,3.5,11.6,4.9c3.9,1.4,3.9,1.3,4.4,2.1
			c3.9,6.8,6.7,28,8.3,47.5c-2.6,3.9-5.7,7.5-9.2,10.7c-1-13.8-2.7-29.3-4.8-32.9c-2.6,14.1-2.9,26.1-2.7,38.7
			c-8.3,5.5-18.1,9-28.6,9.7C109.2,124.4,107.1,99.2,111,75.8L111,75.8z"/>
		<path class="st3" d="M12.4,76.9l10.7-7.7l0.1,0c0.8,1.5,4.9,8.8,7.9,19.5c3.5,12,5.4,20.8,5.4,20.8s0.2-14.7-0.2-25.1
			c-0.3-10.4-1.4-13.5-1.4-13.5l0,0c4.1,1.6,8.8,3.6,8.8,3.6s3.6,16.1,3,26.6c-0.6,10.6-0.5,22.7-0.8,36.6c-0.1,2.9-0.1,5.5-0.1,7.9
			c-9.4-1.1-17.9-5-24.7-10.8c0-4.1-0.3-8.4-0.9-12.7C17.8,104.2,11.8,86.6,12.4,76.9L12.4,76.9z"/>
		<path class="st4" d="M26.5,66.2l-3.5,2.8c0,0,4.6,7.8,8.1,19.7s5.4,20.8,5.4,20.8s0.2-14.7-0.2-25.1c-0.3-10.4-1.4-13.5-1.4-13.5
			l-2-3.4l0,0l-1.2,5.3c0,0,0,0-0.9-1.3c-0.6-0.9-2.5-3.4-3.8-5.1L26.5,66.2L26.5,66.2z"/>
		<path class="st5" d="M20.2,79.6c-1.9-4.3-10-4.6-10.6,1.5c-1,10,8.9,35.9,14.4,41.9c10,10.9,24.8,11.1,38.7,11.1l0.4-8.6
			c-18.1-0.3-23.7-3.5-28.9-8.1C27,111.2,24.6,101.2,20.2,79.6L20.2,79.6z"/>
		<path class="st6" d="M27,66.3c0,0,0.7-2.8,0.2-6.9l5.7,2.4c0,0-0.5,3.2-0.1,6.2l-1.1,4.8c0,0,0,0-0.9-1.3
			c-0.6-0.9-2.5-3.4-3.8-5.1L27,66.3L27,66.3z"/>
		<g>
			<g>
				<path class="st7" d="M43.8,37c0,0,2.5,4.8,3,6.7c0.5,1.9-0.1,3.8,0.4,4.7c0.5,0.8,3.5,4.7,3.8,5.2c0.3,0.5,0.4,0.6-0.8,1.7
					c-1.3,1.1-3,1.1-3,1.1s0.6,2.5-3.7,7.3s-6.2,5.1-6.2,5.1s-1.6-0.3-3.6-1.5c-2-1.2-3.6-2.4-3.6-2.4l-0.1,0.1
					c-2.3-2.1-3.4-3.8-4.2-5.1c1.4-2.6,1.9-4.8,1.9-4.8s-4.3-1.8-2.9-4.6c1.4-2.8,3.2-2.1,5.7-0.7c2.5,1.4,3.7,3.3,3.7,3.3l1.6,0.1
					c0,0,2.7-5.2,1.2-8.6C35.5,41,35.4,36.4,43.8,37L43.8,37z"/>
				<path class="st8" d="M26,59.7c-1-1.9-3-5.7-5.1-8.9c-3.1-4.6-5.3-6.6-5.3-6.6s-1.7-8.9,7.4-11.3c9.2-2.5,18.2-3.3,22.1-5
					S44,24.6,44,24.6s3.2-0.5,5.5,3.8c2.1,4-0.7,9-4.9,10c-0.4-0.8-0.7-1.4-0.7-1.4c-8.5-0.6-8.3,3.9-6.8,7.4
					c1.5,3.5-1.2,8.6-1.2,8.6L34.2,53c0,0-1.2-1.9-3.7-3.3s-4.3-2.1-5.7,0.7c-1.4,2.8,2.9,4.6,2.9,4.6S27.4,57.2,26,59.7L26,59.7z"
					/>
				<path class="st6" d="M35.2,68c-0.4-0.2-0.9-0.4-1.4-0.7c-2-1.2-3.6-2.4-3.6-2.4l-0.1,0.1c-2.3-2.1-3.4-3.8-4.2-5.1
					c0.3-0.5,0.6-1.1,0.8-1.6C27.7,60.5,30.2,64.8,35.2,68L35.2,68z"/>
				<path class="st9" d="M43.8,37c0,0,2.5,4.8,3,6.7c0.4,1.7,0,3.4,0.3,4.3L47,47.8c0,0-0.3-4.1-2.5-7.6c-1-1.5-1.8-2.6-2.3-3.2
					C42.7,37,43.3,37,43.8,37L43.8,37z M47.4,48.5c0.7,1,3.4,4.6,3.7,5.1c0.3,0.5,0.4,0.6-0.7,1.6C49.7,53.5,48.1,50,47.4,48.5z"/>
				<path class="st10" d="M41.9,44.4c0,0,1.4-0.1,2.7,0c1.3,0.2,1.7,0.3,1.7,0.3l-0.5-1.9C45.8,42.9,44.2,42.6,41.9,44.4L41.9,44.4z
					"/>
				<path class="st10" d="M26,59.7c-1-1.9-3-5.7-5.1-8.9c-1-1.5-2-2.8-2.7-3.7c8.8,0.7,16.8-0.6,19.4-1.1c0.4,3.3-1.6,7.1-1.6,7.1
					L34.2,53c0,0-1.2-1.9-3.7-3.3c-2.5-1.4-4.3-2.1-5.7,0.7c-1.4,2.8,2.9,4.6,2.9,4.6S27.4,57.2,26,59.7L26,59.7z"/>
				<path class="st5" d="M16.4,45.1c-0.5-0.6-0.8-0.9-0.8-0.9s-1.7-8.9,7.4-11.3c9.2-2.5,18.2-3.3,22.1-5c1-0.4,1.4-0.8,1.5-1.2
					c0.2,1.1-1.4,2.4-4.3,3.2c-4.4,1.2-14.9,2.7-20.2,5.8C18.6,37.7,17,42.2,16.4,45.1L16.4,45.1z"/>
				<path class="st10" d="M46.9,25.4c0.8,0.6,1.7,1.5,2.5,3c2.1,4-0.7,9-4.9,10c-0.4-0.8-0.7-1.4-0.7-1.4c-8.4-0.6-8.3,3.9-6.8,7.3
					c-0.7-0.9-1.8-3-1-5.6c1.2-3.6,8.9-2.6,11.7-4.8C50.3,32,49.3,27.9,46.9,25.4L46.9,25.4z"/>
				<path class="st6" d="M42.4,44.4c2.7-0.1,3.8,0.2,3.9,0.5l0.1,3.6C46.4,48.5,44.9,44.7,42.4,44.4L42.4,44.4z"/>
				<path class="st6" d="M50.4,55.2l-0.1,0.1c-1.3,1.1-3,1.1-3,1.1s0.1,0.4-0.1,1.3c-0.1,0.4-0.5,2.5-3.6,6c3.3-4.6,2.4-7.8,2.4-7.8
					s0.5,0.1,2.3-0.2C50,55.4,50.3,55.1,50.4,55.2L50.4,55.2L50.4,55.2z"/>
			</g>
			<path class="st10" d="M44.2,62.1c0,0-1.7-0.4-4.2-1.3c-2.5-1-5.1-2.2-5.1-2.2s-0.2,0.6,0,0.8c0.2,0.3,3.2,4.6,5.3,4.9
				c2.1,0.4,2.7-1.7,2.7-1.7L44.2,62.1L44.2,62.1z"/>
			<path class="st4" d="M43.1,61.9c-0.7-0.2-1.8-0.6-3.2-1.1c-1.3-0.5-2.3-0.9-3.3-1.2c-0.4,0.3-0.6,0.5-0.5,1.1
				c1.2,1.5,6,3.4,6.2,3C42.6,62.9,42.9,62.3,43.1,61.9L43.1,61.9z"/>
			<path class="st10" d="M46.5,48.5c0,0-0.2-1.6-1.5-1.8c-1.4-0.1-3.6,1.5-3.6,1.5S44.7,47.9,46.5,48.5L46.5,48.5z"/>
		</g>
		<path class="st4" d="M121.5,70.7l3.9-5.3c0,0,1.4-1.3,2.8-0.2c1.3,1,4.6,4.2,4.6,4.2s-3.8,7.5-7,19.5c-3.2,12-6.3,22.8-6.3,22.8
			S119.3,90.2,121.5,70.7L121.5,70.7z"/>
		<path class="st6" d="M126.3,61.2l1.6,5c0,0-0.2,1.3-1.3,3.6c-1.1,2.3-1.5,2.3-1.5,2.3s-0.2-2.5-0.5-3.9c-0.3-1.3-1.8-3.3-1.8-5
			C122.7,61.5,125.4,60.4,126.3,61.2L126.3,61.2z"/>
		<g>
			<path class="st8" d="M109.4,40.7c-0.3-0.5-1.8-1.7-3.8-5.5s-0.9-6.7,7.4-7.2c8.4-0.5,16.9-0.6,21.8,0c4,0.5,2.8,9.6,3.3,18.4
				c0.3,4.7-5.2,7-8.1,10.7l0,0l0,0.1c-0.1,0.1-0.1,0.1-0.2,0.2c-1-2.2-1.9-4.3-1.9-4.3s1.9-0.8,1.3-3.2c-0.6-2.4-2.4-3.1-3.4-2.8
				c-1,0.2-2.2,1.8-2.2,1.8l-2.2,2.6c0,0,0.1-1.6-1.3-4c-1.4-2.4-3-2.9-3-2.9s5.9-7.6-6.3-6.4C110.2,38.6,109.8,39.5,109.4,40.7
				L109.4,40.7z"/>
			<path class="st7" d="M110.8,38.1c-2.1,1.6-2.3,9-2.5,11.5c-0.4,1.8-1.6,4.7-2.7,5.9l0.4,0.7c0.8,0.4,2.3,0.2,3.1,0.1
				c1.1,3.8,2.4,7.2,5.3,10c3.2,0.8,9.6-1,12.5-2.6c1.9-1.8,2.7-5,2.9-6.2c-1.1-2.3-2-4.5-2-4.5s1.9-0.8,1.3-3.2
				c-0.6-2.4-2.4-3.1-3.4-2.8c-1,0.2-2.2,1.8-2.2,1.8l-2.2,2.6c0,0,0.1-1.6-1.3-4c-1.4-2.4-3-2.9-3-2.9S123,36.9,110.8,38.1
				L110.8,38.1z"/>
			<path class="st4" d="M110.8,59.6c0.2,0,6.7-2.5,7.2-2.9c0.7,2-2.7,7.7-5.9,3.5C112.1,60.2,111.5,60.2,110.8,59.6z"/>
			<path class="st10" d="M109.4,40.7c-0.2-0.4-1-1.1-2.1-2.6c1-0.7,2.8-1.5,6-1.4c3,0,4.4,1.3,4.8,2.9c-0.8-1.1-2.8-1.8-7.3-1.4
				C110.2,38.6,109.8,39.5,109.4,40.7L109.4,40.7z M138.1,43.6c-0.1,1-0.1,1.9,0,2.9c0.4,4.7-5.2,7-8.1,10.7l0,0l0,0.1
				c-0.1,0.1-0.1,0.1-0.2,0.2c-1-2.2-1.9-4.3-1.9-4.3s1.9-0.8,1.3-3.2c-0.6-2.4-2.4-3.1-3.4-2.8c-1,0.2-2.2,1.8-2.2,1.8l-2.2,2.6
				c0,0,0.1-1.6-1.3-4c-0.3-0.5-0.6-0.9-0.8-1.2C123,46.4,129.9,46.3,138.1,43.6L138.1,43.6z"/>
			<path class="st6" d="M115.1,66.5c3.3,0.4,9.2-1.2,11.9-2.7c1.9-1.8,2.7-5,2.9-6.2c-0.6-1.3-1.2-2.6-1.5-3.5l0,5.5
				C128.4,59.5,126.5,64.9,115.1,66.5L115.1,66.5z"/>
			<path class="st6" d="M110.8,38.1c-0.4,0.3-0.8,0.9-1,1.6c0.7-0.2,1.8-0.3,3.4-0.1c3.9,0.4,4.6,3.5,4.1,4.2
				c-0.1,0.1,0.1,0.1,0.3,0C118.7,42,120.8,37.1,110.8,38.1L110.8,38.1z"/>
			<path class="st6" d="M105.9,56.1l0.1,0.2c0.8,0.4,2.3,0.2,3.1,0.1c0.9,3,1.9,5.8,3.7,8.2c-2.6-4.8-2.4-9.4-2.4-9.4
				C109.1,55.9,107.4,56.1,105.9,56.1L105.9,56.1z"/>
			<path class="st9" d="M108,50.6c-0.5,1.7-1.5,4-2.5,5l0.3,0.4C107.1,55.3,108.1,51,108,50.6L108,50.6z"/>
			<path class="st6" d="M109.3,45.3c0,0-0.2-0.9,1.5-0.9s2.5,0.4,2.5,0.4s-1.2,0.1-2.2,1.4c-1,1.3-1.4,3.3-1.4,3.3
				S109.5,47.2,109.3,45.3L109.3,45.3z"/>
			<path class="st10" d="M109.9,48.4c0,0,0.9,0,2.1,0.2c1.2,0.2,1.5,0.4,1.5,0.4l-3.7,0.5L109.9,48.4L109.9,48.4z"/>
			<path class="st10" d="M109.3,43.7c-0.3,0.3-0.3,1.6-0.1,1.5c0.1-0.1,0.8-0.4,2.7-0.2c1.9,0.2,2.4,0.3,2.4,0.3
				S111.6,43.1,109.3,43.7L109.3,43.7z"/>
		</g>
		<g>
			<path class="st7" d="M84,126.3h-4.1c0,0-1.5-0.6-3-1.7c-1.5-1.1-2.3-1.7-3.1-1.2c-1.4,0.8-3.5,2.3-5.8,3.6c0,0,0.4,1.7,1.8,1.4
				c1.5-0.3,3.6-2.1,3.6-2.1l9.3,6.6l1.2-0.4L84,126.3L84,126.3z"/>
			<path class="st7" d="M66.6,134.7l0.1-2.2c0,0,0.2-0.6,0.8-0.7c0.6-0.1,1,0.6,1,0.6s0.4-1,1.2-0.9c0.8,0.1,0.9,1,0.9,1
				s0.3-1,1.3-0.8c0.9,0.1,0.9,1.3,0.8,1.7c-0.1,0.4-0.1,0.4-0.1,0.4s0.4-0.8,1.1-0.6c0.8,0.1,0.8,0.9,0.8,1.3
				c-0.1,0.4-0.3,1.6-0.3,1.6l0.5,0.4c0,0-1,1.2-1.7,1.1c-0.7,0-1.1-0.8-1.1-0.8s-0.5,0.4-1.1,0.2c-0.6-0.2-0.7-1-0.7-1
				s-0.5,0.6-1.2,0.3s-0.7-1.2-0.7-1.2S67,136,66.6,134.7L66.6,134.7z"/>
			<g>
				<path class="st9" d="M67,133.2c0,0.4,1,0.5,1.1,0C68.1,131.9,66.9,132,67,133.2z"/>
				<path class="st11" d="M67,133.2c0.1,0.4,1,0.4,1.1,0v0c-0.1,0.1-0.3,0.3-0.6,0.3C67.2,133.4,67,133.3,67,133.2z"/>
				<path class="st4" d="M67.9,132.5c-0.2-0.3-0.6-0.3-0.8,0c0.1-0.1,0.2-0.1,0.4-0.2C67.7,132.3,67.8,132.4,67.9,132.5L67.9,132.5z
					"/>
			</g>
			<g>
				<path class="st9" d="M68.9,133.1c0,0.4,1,0.6,1.1,0.1C70.2,131.9,68.9,131.9,68.9,133.1z"/>
				<path class="st11" d="M68.9,133.1c0.1,0.4,1,0.5,1.1,0.1v0c-0.1,0.1-0.3,0.3-0.6,0.2C69.1,133.4,69,133.2,68.9,133.1L68.9,133.1
					z"/>
				<path class="st4" d="M69.9,132.5c-0.2-0.4-0.6-0.3-0.8,0c0.1-0.1,0.2-0.1,0.4-0.1C69.7,132.3,69.9,132.4,69.9,132.5L69.9,132.5z
					"/>
			</g>
			<g>
				<path class="st9" d="M71,133c0,0.4,1,0.6,1.1,0.2C72.3,131.9,71.1,131.8,71,133z"/>
				<path class="st11" d="M71,133c0,0.4,1,0.6,1.1,0.2l0,0c-0.1,0.1-0.3,0.2-0.6,0.2C71.2,133.3,71,133.1,71,133L71,133z"/>
				<path class="st4" d="M72,132.4c-0.2-0.4-0.6-0.4-0.8-0.1c0.1-0.1,0.2-0.1,0.4-0.1C71.8,132.3,72,132.3,72,132.4z"/>
			</g>
			<g>
				<path class="st9" d="M72.9,134.3c-0.1,0.4,0.8,0.6,1,0.2C74.2,133.3,73.1,133.2,72.9,134.3z"/>
				<path class="st11" d="M72.9,134.3c0,0.4,0.8,0.6,1,0.2l0,0c-0.1,0.1-0.3,0.2-0.6,0.1C73.1,134.5,72.9,134.4,72.9,134.3
					L72.9,134.3z"/>
				<path class="st4" d="M73.9,133.9c-0.1-0.3-0.5-0.4-0.7-0.1c0.1-0.1,0.2-0.1,0.4-0.1C73.7,133.7,73.8,133.8,73.9,133.9
					L73.9,133.9z"/>
			</g>
			<path class="st12" d="M66.6,134.7L66.6,134.7c0.1,0.1,0.2,0.3,0.5,0.4c0.7,0.2,1.2-0.2,1.2-0.2s-0.2,0.7,0.7,1s1.3-0.3,1.3-0.3
				s-0.1,0.8,0.6,1c0.7,0.2,1.2-0.2,1.2-0.2s-0.1,0.5,0.5,0.8c0.6,0.3,1.2-0.2,1.2-0.2l0.6-3.1c0.1,0.2,0.1,0.5,0.1,0.7
				c-0.1,0.4-0.3,1.6-0.3,1.6l0.5,0.4c0,0-1,1.2-1.7,1.1c-0.7,0-1.1-0.8-1.1-0.8s-0.5,0.4-1.1,0.2c-0.6-0.2-0.7-1-0.7-1
				s-0.5,0.6-1.2,0.3c-0.7-0.3-0.7-1.2-0.7-1.2S67,136,66.6,134.7L66.6,134.7z"/>
			<path class="st7" d="M70,125.9l-3.8,0.2v6.6c0,0,0.2,0,0.5,0l0-0.1c0,0,0.2-0.6,0.8-0.7c0.6-0.1,1,0.6,1,0.6s0.4-1,1.2-0.9
				c0.8,0.1,0.9,1,0.9,1s0.3-1,1.3-0.8c0.9,0.1,0.9,1.3,0.8,1.7c-0.1,0.4-0.1,0.4-0.1,0.4s0.4-0.8,1.1-0.6c0.8,0.1,0.8,0.9,0.8,1.3
				c-0.1,0.4-0.3,1.6-0.3,1.6l0.5,0.4c0.1,0,0.1,0.1,0.2,0.1c0.5,0.3,1.2,1,1.2,1s0.5,0.3,0.9-0.1c0.4-0.3,0.1-1.1,0.1-1.1
				s1.2,0.8,1.7,0.2c0.5-0.6-0.1-1.2-0.1-1.2s1.5,1.3,2.3,0.5c0.8-0.8-0.4-1.8-0.4-1.8s1.6,1.3,2.3,0.5c0.5-0.5,0.2-1.2-0.2-1.6l0,0
				l-9.3-6.6c0,0-2.1,1.8-3.6,2.1c-1.5,0.3-1.8-1.4-1.8-1.4C68.7,126.6,69.3,126.3,70,125.9L70,125.9z"/>
			<path class="st12" d="M68.6,128.1c0.3,0.3,0.7,0.5,1.3,0.4c1.5-0.3,3.6-2.1,3.6-2.1l9.3,6.6l1.2-0.4v-0.4
				c-1.7,0.1-2.9-0.8-2.9-0.8l-7.5-5.4c0,0-3.3,2.3-4.1,2.3C69.1,128.3,68.8,128.2,68.6,128.1L68.6,128.1z"/>
			<g>
				<path class="st9" d="M69.9,125.9c-0.5,0.3-1,0.6-1.6,0.9c0,0.6,0.8,1,1.8,0.3C70.5,126.9,70.3,126.3,69.9,125.9z"/>
				<path class="st11" d="M69.9,125.9l-0.1,0.1c0.1,0.1,0.2,0.2,0.2,0.3c0.2,0.4,0.2,0.7,0.1,0.9C70.5,126.8,70.3,126.2,69.9,125.9
					L69.9,125.9z"/>
				<path class="st4" d="M68.5,126.8l-0.1,0.1c0,0.4,0.3,0.7,0.8,0.7c-0.2,0-0.4-0.1-0.5-0.4C68.6,127,68.5,126.9,68.5,126.8
					L68.5,126.8z"/>
			</g>
			<path class="st12" d="M74.7,136.5c0.1,0,0.1,0.1,0.2,0.1c0.5,0.3,1.2,1,1.2,1s0.5,0.3,0.9-0.1c0.4-0.3,0.1-1.1,0.1-1.1
				s1.2,0.8,1.7,0.2c0.5-0.6-0.1-1.2-0.1-1.2s1.5,1.3,2.3,0.5c0.8-0.8-0.4-1.8-0.4-1.8s1.6,1.3,2.3,0.5c0.5-0.5,0.2-1.2-0.2-1.6l0,0
				l-0.5-0.3C81,133.3,76.6,135.5,74.7,136.5L74.7,136.5z"/>
			<path class="st12" d="M77.2,136.8c0-0.2-0.1-0.4-0.1-0.4s0.5,0.3,1,0.4l-2.5-1.8c-0.1-0.1-0.3-0.1-0.4,0.1
				c-0.1,0.1-0.1,0.3,0.1,0.4L77.2,136.8L77.2,136.8z M79,135.9c-0.1-0.3-0.2-0.5-0.2-0.5s0.8,0.6,1.5,0.7l-3.5-2.5
				c-0.1-0.1-0.3-0.1-0.4,0.1c-0.1,0.1-0.1,0.3,0.1,0.4L79,135.9L79,135.9z M81.1,134.7c-0.2-0.4-0.5-0.7-0.5-0.7s0.7,0.6,1.5,0.7
				c-1.4-1-3.7-2.7-3.7-2.7c-0.1-0.1-0.3-0.1-0.4,0.1c-0.1,0.1-0.1,0.3,0.1,0.4C78,132.5,79.7,133.7,81.1,134.7L81.1,134.7z"/>
			<polygon class="st4" points="84,126 85.2,126 85.2,132.9 84,132.9 			"/>
			<polygon class="st4" points="66.2,126 65.1,126 65.1,132.9 66.2,132.9 			"/>
			<path class="st1" d="M85.2,125.5c4-0.5,11.5-1.4,16.7-4.5c2.8,4.6,1.2,6.2-0.4,10.1c-5.4,1-12.7,3.5-16.3,3
				C85.2,131.2,85.2,128.4,85.2,125.5L85.2,125.5z"/>
			<path class="st5" d="M65.1,125.4h-14c-0.1,0.3-0.2,0.7-0.3,1c-0.6,2.8,0.2,5.6,1.8,7.6h12.4V125.4L65.1,125.4z"/>
			<path class="st9" d="M66.7,132.8l0-0.3c0,0,0.2-0.6,0.8-0.7c0.6-0.1,1,0.6,1,0.6s0.4-1,1.2-0.9c0.8,0.1,0.9,1,0.9,1
				s0.3-1,1.3-0.8c0.9,0.1,0.9,1.2,0.8,1.7c0-0.4-0.1-1.3-0.9-1.5c-1-0.2-1.2,0.8-1.2,0.8s-0.3-0.9-1-0.9c-0.7,0-1.1,0.8-1.1,0.8
				s-0.6-0.8-1.2-0.5C66.9,132.2,66.7,132.6,66.7,132.8L66.7,132.8z M72.9,133.4c0.2-0.1,0.4-0.2,0.7-0.2c0.5,0.1,0.7,0.5,0.8,0.9
				c-0.1-0.3-0.3-0.6-0.7-0.7C73.4,133.3,73.1,133.3,72.9,133.4L72.9,133.4z"/>
			<path class="st9" d="M82.4,126.3h-2.5c0,0-1.5-0.6-3-1.7c-1.5-1.1-2.3-1.7-3.1-1.2c-0.8,0.5-1.7,1.1-2.8,1.8l2.9-1.6
				c0,0,0.6-0.2,1.3,0.3c0.8,0.5,2.3,1.6,3.3,2.1c1,0.6,1.5,0.5,1.5,0.5L82.4,126.3z"/>
		</g>
		<path class="st0" d="M31.9,73.2l-3,2.3l2.7,3.7l0.8,14.7c1.5,5.2,4.7,16.4,5.7,21.6l0-20.8c-1-2.6-3.9-15.1-4.2-15.5l0.2-4
			L31.9,73.2z"/>
		<path class="st0" d="M122.7,109c-2.7,9.7-3.6,13.8-3.6,13.8s-2.2-9.7-2.2-14.9l5.7-29.8l0.3-3l2.3-1.9l2.7,1.8l-2.4,2.9l-2.8,30.7
			L122.7,109L122.7,109z"/>
	</g>
</g>
</svg>
