<?xml version="1.0" encoding="utf-8"?>
<!-- Generator: Adobe Illustrator 24.3.0, SVG Export Plug-In . SVG Version: 6.00 Build 0)  -->
<svg version="1.1" id="Слой_1" xmlns:xodm="http://www.corel.com/coreldraw/odm/2003"
	 xmlns="http://www.w3.org/2000/svg" xmlns:xlink="http://www.w3.org/1999/xlink" x="0px" y="0px" viewBox="0 0 135.3 145"
	 style="enable-background:new 0 0 135.3 145;" xml:space="preserve">
<style type="text/css">
	.st0{fill-rule:evenodd;clip-rule:evenodd;fill:#FFAA00;}
	.st1{fill-rule:evenodd;clip-rule:evenodd;fill:#B2B3B3;}
	.st2{fill-rule:evenodd;clip-rule:evenodd;fill:#898989;}
	.st3{fill-rule:evenodd;clip-rule:evenodd;fill:#5E5E5E;}
	.st4{fill-rule:evenodd;clip-rule:evenodd;fill:#C5C6C6;}
	.st5{fill-rule:evenodd;clip-rule:evenodd;fill:#424242;}
	.st6{fill-rule:evenodd;clip-rule:evenodd;fill:#FFC86A;}
	.st7{fill-rule:evenodd;clip-rule:evenodd;fill:#3D3D3D;}
	.st8{fill-rule:evenodd;clip-rule:evenodd;fill:#575757;}
	.st9{fill-rule:evenodd;clip-rule:evenodd;fill:#E8E8E8;}
	.st10{fill:#707070;}
	.st11{fill-rule:evenodd;clip-rule:evenodd;fill:#9D9E9E;}
	.st12{fill-rule:evenodd;clip-rule:evenodd;fill:#DBA240;}
	.st13{fill-rule:evenodd;clip-rule:evenodd;fill:#FFDB9C;}
	.st14{fill-rule:evenodd;clip-rule:evenodd;fill:#727271;}
	.st15{fill-rule:evenodd;clip-rule:evenodd;fill:#D9DADA;}
	.st16{fill-rule:evenodd;clip-rule:evenodd;fill:#434242;}
	.st17{fill-rule:evenodd;clip-rule:evenodd;fill:#CCCCCC;}
</style>
<path class="st0" d="M113.3,9.7c12.1,0,22,9.8,22,22c0,7.7-3.9,14.4-9.9,18.4c0.9,4.3,1.4,8.7,1.4,13.3c0,27.9-18,51.6-43,60.1
	C75.9,136.4,61.7,145,45.4,145c-24.8,0-44.9-20.1-44.9-44.9c0-5.7,1-11.1,3-16C1.2,77.6,0,70.6,0,63.4C0,28.4,28.4,0,63.4,0
	c14.4,0,27.8,4.8,38.4,13C105.2,10.9,109.1,9.7,113.3,9.7L113.3,9.7z M74.4,12c22,0,39.7,17.8,39.7,39.7S96.4,91.5,74.4,91.5
	S34.7,73.7,34.7,51.8S52.5,12,74.4,12L74.4,12z"/>
<path class="st1" d="M24.8,119.6c0,0-5.4,0.7-6.8-7.5s-4.2-22.7-6.9-36.5C8.6,61.7,6.8,56.1,6.8,56.1s1.9-3.5,7.1-4.1
	c5.2-0.6,9.5,2.5,10.6,17.8c1.1,15.3,1,28.8,1.7,37.7c0.7,8.9,0.7,9.2,0.7,9.2s0.7-3.4,13.4-3.1s21.6,1.2,21.6,1.2l0.7,8.3
	c0,0-18.6,0.1-27.6-0.6C25.9,121.8,25.8,122,24.8,119.6L24.8,119.6z"/>
<path class="st2" d="M37.7,122.6l3.2,5.2l13.5-0.1l2-4.6C51.1,123,43.4,123,37.7,122.6L37.7,122.6z"/>
<path class="st3" d="M37.7,122.6l1,1.7l16.8,0.6l0.8-1.9C51.1,123,43.4,123,37.7,122.6L37.7,122.6z"/>
<polygon class="st1" points="46.8,127.7 49.6,127.7 49.6,138.6 46.8,138.6 "/>
<path class="st4" d="M45.8,138.4h4.9v6.4c-1.6,0.2-3.2,0.3-4.9,0.3V138.4z"/>
<path class="st3" d="M59.8,104.6l-14-1.6c0,0-14.1,6.3-12.3,8.1c1.7,1.8,3.7,2.5,6,2.5c2.2,0.1,15.5,0.5,19.2,0.9
	c3.7,0.3,3.7,0.3,3.7,0.3L59.8,104.6L59.8,104.6z"/>
<path class="st5" d="M59.8,104.6l-14-1.6c0,0-0.4,0.2-1,0.4l15.1,1.9L59.8,104.6z"/>
<path class="st5" d="M52.2,72.4c0.9,4.2,10.4,8.2,14.3,8.5l-0.7,3.9c0,0-5.5-0.9-11.2-3.7c-4.3-2.1-6.7-4.4-7.5-6.4
	C48.4,74.3,51.1,72.8,52.2,72.4L52.2,72.4z"/>
<path class="st6" d="M74.5,32.6c0,0,1.8,3.6,2.1,5.1c0.3,1.4-0.1,2.9,0.2,3.5c0.4,0.6,2.5,3.5,2.7,3.9s0.3,0.5-0.6,1.2
	c-1,0.8-2.2,0.8-2.2,0.8s0.4,1.8-2.9,5.4c-3.3,3.5-4.7,3.7-4.7,3.7s-1.2-0.3-2.6-1.2c-1.4-0.9-2.6-1.9-2.6-1.9s-1.5,0.7-2.5,1.4
	c-1,0.7-1.5,1.1-1.5,1.1l-1.7-3.1c0,0,1.5-1.3,2.6-3.2c1.1-1.9,1.5-3.5,1.5-3.5s-3.2-1.4-2.1-3.5c1.1-2.1,2.4-1.5,4.3-0.4
	c1.8,1.1,2.7,2.5,2.7,2.5l1.2,0.1c0,0,2.1-3.8,1.1-6.4C68.3,35.4,68.2,32,74.5,32.6L74.5,32.6z"/>
<path class="st7" d="M68.1,50.4c0,0,0.9,0.5,2.3,0.8c1.4,0.2,2.4,0.1,2.4,0.1s-0.5,0.4-1.2,0.5c-0.7,0.1-0.8,0.1-0.8,0.1
	s-0.9,1.6-1.9,1S68.1,50.4,68.1,50.4L68.1,50.4z"/>
<path class="st8" d="M60.8,49.2c-0.7-1.5-2.1-4.3-3.7-6.7c-2.2-3.5-3.8-5-3.8-5s-1.1-6.6,5.8-8.3c6.9-1.7,13.7-2.1,16.6-3.3
	c3-1.2-0.8-2.5-0.8-2.5s2.4-0.3,4,3c1.5,3-0.7,6.7-3.9,7.4c-0.3-0.6-0.5-1-0.5-1c-6.3-0.6-6.3,2.8-5.2,5.4c1.1,2.6-1.1,6.4-1.1,6.4
	l-1.2-0.1c0,0-0.9-1.4-2.7-2.5c-1.8-1.1-3.1-1.6-4.3,0.4c-1.1,2.1,2.1,3.5,2.1,3.5S61.8,47.3,60.8,49.2L60.8,49.2z"/>
<path class="st1" d="M55.3,94l9.4,46.7c7.9-3.8,14.6-9.8,19.1-17.2c15.3-5.2,27.9-16.1,35.5-30.1L55.3,94L55.3,94z"/>
<path class="st1" d="M121.8,88.1l-72,0.1V94l69.4-0.4C120.1,91.8,121,90,121.8,88.1z"/>
<path class="st9" d="M123.7,82.9l-38.2,0.1l-35.8,5.3l72.1-0.3C122.6,86.4,123.2,84.7,123.7,82.9L123.7,82.9z"/>
<path class="st3" d="M29.1,104.6c0,0,0.2-1.4,0.5-3.7c0.9-5.8,2.3-13,4.8-19.8c0.8-2.4,1.7-4.9,2.8-7.4c6.3-14.5,16.5-21.9,19-22.2
	c2.4-0.2,3.9,3.1,4.3,5.6c0.4,2.5,1.1,7.5-3.8,13.6c-4.9,6.1-8.1,7.5-10.1,15.5c-1.3,5.1-1.1,10.8-0.9,14.3c0.1,0.7,0.2,1.3,0.2,1.8
	c0.1,0.8,0.2,1.3,0.2,1.3l-0.2,0c-0.1,0.7-0.4,1.4-1.1,2.2c-2.4,3-8.3,6.5-12.3,6.5s-4,0-4,0S28.6,109.2,29.1,104.6L29.1,104.6
	L29.1,104.6z"/>
<path class="st10" d="M55.5,59.2c0,0-14.5,8.8-11.8,16.4c3.9,7,21.4,7.7,21.5,7.7l-2.1,4.9c-0.1,0-18.6,0.7-25.6-10.4
	c-2.9-11.2,14.6-23.5,16-24.9C57.2,50.4,56.5,57.8,55.5,59.2L55.5,59.2z"/>
<path class="st0" d="M60.1,55.7c0.1,0.5,0.2,1,0.3,1.4c0.4,2.5,1.1,7.5-3.8,13.6c-0.5,0.6-0.9,1.1-1.4,1.6
	C59.3,66.2,60,57.7,60.1,55.7z"/>
<path class="st11" d="M55.3,94l1.6,7.7l58.9-2.5c1.3-1.9,2.5-3.8,3.5-5.8L55.3,94L55.3,94z"/>
<path class="st11" d="M60.9,122.1l3.8,18.6c4.9-2.3,9.3-5.5,13-9.3C69.5,128.5,64,124.7,60.9,122.1L60.9,122.1z"/>
<path class="st12" d="M67.5,55.5c-0.3-0.2-0.7-0.3-1-0.6c-1.4-0.9-2.6-1.9-2.6-1.9s-1.5,0.7-2.5,1.4c-0.5,0.3-0.9,0.6-1.1,0.8
	c-0.5-0.9-1.1-2-2-2.9c0.4-0.4,1.5-1.6,2.4-3.1c0.2-0.4,0.4-0.8,0.6-1.2C62,49.8,63.8,53.1,67.5,55.5L67.5,55.5z"/>
<path class="st13" d="M74.5,32.6c0,0,1.8,3.6,2.1,5.1c0.3,1.3,0,2.5,0.1,3.2l-0.1-0.2c0,0-0.1-3.1-1.7-5.8c-0.7-1.2-1.3-1.9-1.7-2.4
	C73.7,32.5,74.1,32.6,74.5,32.6L74.5,32.6z M76.9,41.3c0.5,0.8,2.5,3.5,2.7,3.8c0.2,0.4,0.3,0.5-0.6,1.2
	C78.6,45,77.4,42.4,76.9,41.3L76.9,41.3z"/>
<path class="st7" d="M72.9,38c0,0,1.1-0.1,2,0.1c0.9,0.1,1.2,0.3,1.2,0.3L75.9,37C75.9,37,74.7,36.8,72.9,38L72.9,38z"/>
<path class="st7" d="M60.8,49.2c-0.7-1.5-2.1-4.3-3.7-6.7c-0.7-1.2-1.4-2.1-2-2.8c6.5,0.7,12.6-0.1,14.5-0.4
	c0.2,2.4-1.3,5.3-1.3,5.3l-1.2-0.1c0,0-0.9-1.4-2.7-2.5c-1.8-1.1-3.1-1.6-4.3,0.4c-1.1,2.1,2.1,3.5,2.1,3.5S61.8,47.3,60.8,49.2
	L60.8,49.2z"/>
<path class="st7" d="M77.1,24c0.6,0.4,1.3,1.1,1.8,2.3c1.5,3-0.7,6.7-3.9,7.4c-0.3-0.6-0.5-1-0.5-1c-6.3-0.6-6.3,2.7-5.2,5.3
	c-0.5-0.7-1.3-2.2-0.6-4.2c0.9-2.7,6.7-1.7,8.8-3.4C79.5,29,78.8,25.9,77.1,24L77.1,24z"/>
<path class="st12" d="M73.3,38.1c2,0,2.8,0.3,2.9,0.4l0,2.7C76.2,41.2,75.1,38.4,73.3,38.1L73.3,38.1z"/>
<path class="st7" d="M73,40.7c0,0,0.9-0.2,1.9-0.3c1-0.1,1.4,0,1.4,0s0.5,1.3-0.5,1.7c-0.9,0.4-1.5-1.3-1.5-1.3S73.5,40.7,73,40.7z"
	/>
<path class="st12" d="M79,46.3L79,46.3c-1,0.8-2.3,0.8-2.3,0.8s0.1,0.3-0.1,0.9c-0.1,0.3-0.5,1.9-2.8,4.4c2.6-3.3,1.9-5.8,1.9-5.8
	s0.4,0.1,1.7-0.1C78.8,46.5,79,46.2,79,46.3L79,46.3L79,46.3z"/>
<polygon class="st14" points="108.8,31.8 111.3,32.4 98.9,78.8 96.4,78.3 "/>
<polygon class="st2" points="109.3,39.8 110.4,40.1 101.3,74.5 100.2,74.2 "/>
<polygon class="st11" points="106.4,64.7 106.7,64.7 101.8,82.4 100,81.9 104.4,65.9 103.6,65.6 104.1,64 "/>
<path class="st11" d="M95.7,84.1h6.8v-1.6c0-0.4-0.3-0.7-0.7-0.7h-5.3c-0.5,0-0.9,0.4-0.9,0.9L95.7,84.1L95.7,84.1z"/>
<path class="st11" d="M61.1,123.1c-4.5,0-18.6,0-26.2-0.6c-8.1-0.6-9-0.5-9.8-2.2c4.7,0.3,25,1.3,29.1,1.1c3.2-0.2,4.9-2.7,5.7-4.2
	L61.1,123.1L61.1,123.1z"/>
<path class="st15" d="M7.4,55.2c0.9-1.1,3-2.8,6.4-3.2c5.2-0.6,9.5,2.5,10.6,17.8c0.7,9.8,0.9,18.8,1.1,26.4
	c-0.3-1-0.3-5.9-1.3-18.3c-1.3-17.2-4.7-24.2-9.8-24.5C12,53.3,9.3,54.2,7.4,55.2L7.4,55.2z"/>
<path class="st16" d="M27.4,118.3l-1.6,1c0,0-1.7-3-3.2-10.7c-1.5-7.6,0.8-10.8,6-11.3s17-0.5,19.7-0.1c2.7,0.4,5,1.5,5.1,5.2
	c0.1,3.8-1.1,9.7-2,14.1c-0.8,4.4-1.1,5-1.1,5l-1.9-0.1c0,0,2-9.6,2.3-14.7c0.3-5.1-0.1-6.5-4-6.7s-14.7-0.1-16.9,0.2
	c-2.1,0.2-4,0.9-3.7,4.5C26.2,108.3,26.7,116,27.4,118.3L27.4,118.3z"/>
<path class="st12" d="M66,83.1c0,0,1.6,0.9,1.8,1.2c0.7,1.4,4.7,1.2,5.8,1.2c1.1,0,1.9,0.1,2.3,0c0.4-0.1,2.5-0.8,3.6-0.9
	c1.1,0,1.3-0.2,1.5-0.4c0.1-0.2,0.1-0.3,0.1-0.3s0.9,0,1.1-0.4c0.2-0.3-0.8-1-0.8-1s0.4,0,0.2-0.6c-0.2-0.6-1.6-0.5-1.6-0.5
	s-2.7-0.9-3.3-1c-0.7-0.1-2.1,1.2-2.9,1c-0.9-0.2-3.7-0.2-4.4,0c-0.7,0.3-0.8,0.4-0.8,0.4l-2-0.4L66,83.1L66,83.1z M78.1,82l-3,0.7
	c0,0,1-1,1.5-1C77,81.6,77.7,81.8,78.1,82z"/>
<path class="st17" d="M85.2,83.6c-2.8,0.9-7,1.9-11.9,3.1c4.7,0.1,8.1-0.1,12.8,0c1.8-0.9,3.9-2.1,5.7-3
	C90.2,83.7,86.8,83.6,85.2,83.6z"/>
<path class="st6" d="M65,84.1c2.1-0.1,4.7-1,6.8-1.3c0.6-0.3,2-1.1,2.7-1.5c0.8-0.6,0.8-0.6,0.8-0.6s0,0.9-0.7,1.6
	c1.4-0.1,2,0.3,3.6,1.1c2,1.1,3.9,2.4,3.9,2.4s0,0.7-0.7,0.9c-1.8,0.3-1.6,0.3-3.2-0.4c-4.3-1.8-3.6,1-10.5,1.6
	c-1.3,0.1-2.5-0.4-3.7-1.5C64.2,85.7,64.8,84.6,65,84.1L65,84.1z"/>
</svg>
