<svg width="17" height="17" viewBox="0 0 17 17" fill="none" xmlns="http://www.w3.org/2000/svg">
<path d="M14.6856 0.200195H2.11419C1.16741 0.200195 0.399902 0.967706 0.399902 1.91448V11.0573C0.399902 12.0041 1.16741 12.7716 2.11419 12.7716H4.14277L3.83192 15.5659C3.79727 15.8796 4.02347 16.162 4.33717 16.1966C4.49915 16.2145 4.66107 16.1624 4.78221 16.0533L8.42905 12.7716H14.6856C15.6324 12.7716 16.3999 12.0041 16.3999 11.0573V1.91448C16.3999 0.967706 15.6324 0.200195 14.6856 0.200195ZM15.257 11.0573C15.257 11.3729 15.0012 11.6288 14.6856 11.6288H8.20961C8.06841 11.6288 7.93224 11.6811 7.82731 11.7756L5.1336 14.2002L5.34903 12.2636C5.38405 11.95 5.15821 11.6674 4.84455 11.6323C4.82346 11.63 4.80227 11.6287 4.78104 11.6288H2.11419C1.79858 11.6288 1.54275 11.3729 1.54275 11.0573V1.91448C1.54275 1.59888 1.79858 1.34304 2.11419 1.34304H14.6856C15.0012 1.34304 15.2571 1.59888 15.2571 1.91448V11.0573H15.257Z" fill="#272727"/>
</svg>
