<svg width="141" height="46" viewBox="0 0 141 46" fill="none" xmlns="http://www.w3.org/2000/svg">
<path d="M71.9838 16.5365C71.9838 20.9317 71.9675 25.3277 71.9993 29.7229C72.0055 30.5143 71.7826 30.7832 71.0115 30.7541C69.5359 30.6984 68.0526 30.7121 66.574 30.7476C65.8945 30.7646 65.4386 30.4949 65.0309 29.9482C61.5341 25.2647 58.0231 20.5906 54.4979 15.926C54.3014 15.666 53.9294 15.5489 53.6398 15.3607C53.5186 15.6958 53.2856 16.0269 53.2856 16.3572C53.2623 20.7799 53.2709 25.2025 53.2701 29.626C53.2701 30.7307 53.2616 30.7379 52.2201 30.7379C50.5023 30.7379 48.7853 30.7178 47.0682 30.7501C46.4322 30.7622 46.1705 30.5651 46.172 29.8618C46.187 20.9885 46.187 12.1151 46.172 3.24178C46.172 2.5764 46.3576 2.31881 47.0325 2.33577C48.7223 2.37856 50.4146 2.37453 52.1044 2.33577C52.7591 2.32123 53.1847 2.57801 53.5738 3.10047C56.924 7.59178 60.2874 12.0721 63.6641 16.5413C63.866 16.8078 64.224 16.945 64.509 17.1445C64.6395 16.7908 64.881 16.4371 64.8833 16.0818C64.9082 11.9345 64.8973 7.78639 64.8965 3.63746C64.8965 2.34546 64.8965 2.34546 66.1709 2.34546C67.8088 2.34546 69.4474 2.3721 71.0845 2.33011C71.7679 2.31235 72.0016 2.52472 71.997 3.26035C71.969 7.6903 71.9838 12.1138 71.9838 16.5365Z" fill="#221E1F"/>
<path d="M99.3186 1.84271C103.551 1.86694 106.918 2.70189 109.937 4.80623C110.733 5.36179 110.752 5.4708 110.198 6.29365C109.41 7.46291 108.597 8.61359 107.831 9.79738C107.433 10.4111 107.071 10.5556 106.407 10.1301C104.474 8.89056 102.385 8.03057 100.091 7.94982C99.2274 7.93509 98.3677 8.06739 97.5456 8.34146C96.79 8.58371 96.4103 9.27574 96.3909 10.1365C96.3714 10.9763 96.7473 11.6328 97.4501 11.913C98.7494 12.429 100.095 12.8207 101.426 13.247C103.188 13.8123 105.011 14.216 106.707 14.9428C110.318 16.4883 111.677 18.7041 111.621 22.5284C111.575 25.9256 109.587 28.8406 106.379 30.1674C103.71 31.2704 100.935 31.4069 98.118 31.0726C94.6963 30.6688 91.5348 29.5432 88.7577 27.375C87.9857 26.7718 87.9725 26.6378 88.5806 25.8787C89.4416 24.8021 90.3062 23.7294 91.1744 22.6609C91.8547 21.8219 91.8804 21.8162 92.782 22.4493C95.3712 24.2662 98.198 25.2836 101.349 25.1092C102.015 25.072 102.727 24.917 103.318 24.6077C104.767 23.8487 104.839 21.8202 103.368 21.1234C101.872 20.4152 100.23 20.0397 98.65 19.5237C97.0704 19.0077 95.4411 18.6007 93.905 17.9604C91.256 16.8574 89.4434 14.9646 89.1918 11.8234C88.9254 8.49731 89.963 5.7615 92.6523 3.83723C94.8462 2.2731 97.3422 1.79991 99.3186 1.84271Z" fill="#221E1F"/>
<path d="M125.851 2.35383C129.551 2.35383 133.25 2.36676 136.949 2.34092C137.589 2.33607 137.846 2.51372 137.829 3.21544C137.789 4.78037 137.793 6.34773 137.829 7.91266C137.844 8.6063 137.596 8.80979 136.946 8.80091C134.912 8.7678 132.877 8.78557 130.842 8.79041C129.762 8.79041 129.477 9.07788 129.476 10.2019C129.47 16.6307 129.467 23.0592 129.469 29.4874C129.469 30.7423 129.465 30.7423 128.227 30.7415C126.562 30.7415 124.897 30.7076 123.233 30.7568C122.489 30.7786 122.284 30.5049 122.287 29.7563C122.311 23.3553 122.301 16.9542 122.302 10.5524C122.302 9.00763 122.095 8.7888 120.614 8.7888C118.659 8.7888 116.704 8.76619 114.749 8.80172C114.064 8.81464 113.882 8.51829 113.895 7.86825C113.921 6.334 113.926 4.79087 113.895 3.25339C113.88 2.5767 114.101 2.3393 114.763 2.34414C118.453 2.36675 122.152 2.35383 125.851 2.35383Z" fill="#221E1F"/>
<path d="M77.2164 16.543C77.2164 12.1195 77.2312 7.69521 77.2024 3.27172C77.197 2.54497 77.4129 2.3213 78.1072 2.33906C79.8763 2.38267 81.6492 2.38993 83.4175 2.33341C84.2236 2.30757 84.4574 2.58697 84.4543 3.41223C84.4294 11.1885 84.4395 18.9647 84.4395 26.7409C84.4395 27.785 84.4225 28.8291 84.4395 29.8732C84.4512 30.4933 84.2353 30.7614 83.6024 30.7485C81.753 30.7178 79.9034 30.7178 78.0536 30.7485C77.3741 30.7614 77.1993 30.4723 77.1993 29.815C77.225 25.394 77.2156 20.9673 77.2164 16.543Z" fill="#221E1F"/>
<path d="M10.7786 16.5486C10.7786 20.943 10.7616 25.339 10.7942 29.7334C10.8004 30.5409 10.541 30.7727 9.78848 30.7517C8.02017 30.7041 6.24875 30.7178 4.47966 30.7517C3.8545 30.7622 3.58036 30.5902 3.58192 29.8796C3.599 20.9793 3.599 12.0794 3.58192 3.17964C3.58192 2.51264 3.82499 2.3358 4.42763 2.34549C6.27593 2.37698 8.12578 2.38102 9.97486 2.34549C10.6078 2.33257 10.7918 2.55947 10.7887 3.20063C10.7693 7.64833 10.7786 12.0985 10.7786 16.5486Z" fill="#221E1F"/>
<path d="M41.0637 16.5593C41.0637 20.9553 41.0489 25.3513 41.0761 29.7473C41.0808 30.4919 40.8781 30.7704 40.1341 30.7519C38.3122 30.7075 36.488 30.7212 34.6645 30.7519C34.0875 30.7608 33.867 30.5645 33.8677 29.95C33.8802 20.9932 33.8802 12.0365 33.8677 3.07968C33.8677 2.4781 34.1069 2.34083 34.6296 2.34729C36.4794 2.3699 38.3301 2.38847 40.1784 2.34002C40.8952 2.32144 41.08 2.58711 41.0769 3.29125C41.0536 7.70989 41.0645 12.1358 41.0637 16.5593Z" fill="#221E1F"/>
<path d="M17.7168 14.4663C18.9042 14.4663 20.0916 14.4825 21.2775 14.4582C21.825 14.4461 22.0261 14.6666 22.0199 15.2326C22.0005 17.207 21.9974 19.1821 22.0199 21.1564C22.0269 21.7451 21.7869 21.9228 21.265 21.9203C18.8648 21.9106 16.4646 21.9133 14.0644 21.9284C13.5511 21.9284 13.3515 21.7047 13.3538 21.192C13.3616 19.1899 13.3632 17.1879 13.3585 15.1858C13.3585 14.6771 13.5604 14.4494 14.0761 14.459C15.2907 14.4849 16.5045 14.4679 17.7168 14.4663Z" fill="#221E1F"/>
<path d="M22.1593 2.31124C24.5436 2.31124 26.9278 2.32731 29.3089 2.3032C30.4083 2.29115 30.8122 2.51048 30.7997 3.07368C30.7607 5.03805 30.7545 7.00322 30.7997 8.96759C30.8137 9.55328 30.3319 9.73003 29.284 9.72762C24.4646 9.71798 19.6451 9.72066 14.8257 9.73566C13.795 9.73566 13.3942 9.51311 13.3989 9.00294C13.4145 7.01099 13.4176 5.01904 13.4083 3.02709C13.4083 2.52093 13.8137 2.29437 14.8491 2.30401C17.2879 2.32972 19.7252 2.31284 22.1593 2.31124Z" fill="#F2CB4D"/>
<path d="M68.4586 44.1708C68.4586 43.5991 68.4508 43.0549 68.464 42.5114C68.464 42.3887 68.516 42.182 68.5883 42.1585C69.479 41.8678 69.3866 41.028 69.5427 40.3352C69.6418 39.8527 69.7141 39.3647 69.7594 38.8736C69.8184 38.3544 70.0591 38.0879 70.5849 38.1017C71.2434 38.1194 71.9051 38.1227 72.5629 38.1017C73.0521 38.0831 73.2098 38.3043 73.1841 38.7913C73.1496 39.4211 73.1496 40.0526 73.1841 40.6824C73.2199 41.2348 73.0762 41.7629 73.5577 42.3217C73.8567 42.6681 73.6136 43.5192 73.6136 44.1967L72.7896 44.258C72.7407 43.8155 72.6964 43.4231 72.6483 42.9887H69.5419C69.1528 43.3262 69.7539 44.5318 68.4586 44.1708ZM70.7518 39.0561C70.5872 40.0453 70.4288 40.9941 70.261 42.0083H72.0744V39.0561H70.7518Z" fill="#221E1F"/>
<path d="M59.5928 42.9461V44.6936H58.5561V42.6748C58.5561 41.3828 58.5483 40.0989 58.5561 38.8117C58.5623 38.1116 58.9444 37.9041 59.5152 38.2206C59.7066 38.3201 59.9275 38.3386 60.1318 38.2723C61.6446 37.6562 62.5688 38.2723 62.6231 39.9519C62.7148 42.67 62.3334 43.0568 59.5928 42.9461ZM59.6029 40.7053C59.7342 41.1769 59.2092 42.0563 60.3112 42.0894C60.8012 42.1031 61.3984 42.1168 61.4442 41.5056C61.4986 40.732 61.3332 39.9382 61.2214 39.1638C61.2113 39.0968 60.8913 39.0322 60.7197 39.0443C59.7994 39.1024 59.6021 39.3947 59.6029 40.7053Z" fill="#221E1F"/>
<path d="M33.5057 42.9169C33.5057 41.3754 33.4957 39.9058 33.5244 38.4361C33.5244 38.3061 33.7807 38.0736 33.9204 38.0719C34.7351 38.0614 35.563 38.0251 36.3629 38.1527C37.3041 38.3045 37.5278 39.2832 37.0929 39.9946C37.1705 40.8764 37.4035 41.5329 37.2404 42.0618C37.0074 42.8338 36.2386 42.9282 35.5195 42.9169C34.8904 42.9089 34.2614 42.9169 33.5057 42.9169ZM34.6225 40.6737C34.5573 40.7545 34.4912 40.8352 34.4252 40.916C34.5254 41.2664 34.5806 41.8898 34.7359 41.9165C35.1948 41.9972 35.6981 41.8745 36.1656 41.755C36.2433 41.734 36.2914 41.138 36.2534 41.1251C35.7183 40.9394 35.1684 40.8174 34.6225 40.6737ZM34.4905 38.9683L34.5425 40.0019C34.923 40.0019 35.2585 40.0762 35.5397 39.9801C35.7882 39.8945 35.9761 39.6199 36.1905 39.4286C35.9784 39.2751 35.7835 39.0482 35.549 38.9868C35.2531 38.9093 34.9261 38.9683 34.4905 38.9683Z" fill="#221E1F"/>
<path d="M14.1188 38.4407C14.2835 38.36 14.4427 38.2599 14.6127 38.1912C16.0106 37.626 16.9006 38.2195 16.9837 39.7731C16.9876 39.8539 16.9837 39.9346 16.9837 40.0202C17.0318 42.6995 16.5899 43.1339 13.9549 42.8763V44.6779L12.9454 44.7513V42.7609C12.9454 41.4689 12.9322 40.1769 12.9547 38.8905C12.9594 38.62 13.0541 38.1517 13.1784 38.125C13.4688 38.0612 13.7996 38.2058 14.118 38.2728L14.1188 38.4407ZM13.9511 41.7967C15.0678 42.2231 15.6658 42.1359 15.8149 41.4471C15.942 40.8362 15.9544 40.2056 15.8514 39.5898C15.8118 39.3476 15.3179 38.9931 15.0795 39.0302C14.6531 39.0964 13.9852 39.0221 13.9549 39.7772C13.9293 40.4587 13.9511 41.1402 13.9511 41.7967Z" fill="#221E1F"/>
<path d="M128.748 42.936C128.748 41.409 128.73 40.0153 128.772 38.624C128.777 38.4471 129.09 38.1532 129.283 38.1322C129.855 38.0684 130.44 38.0967 131.018 38.1209C132.509 38.1823 132.966 39.0899 132.163 40.4102C132.629 40.8761 132.895 41.4195 132.572 42.0898C132.25 42.76 131.675 42.9554 130.991 42.9401C130.285 42.9239 129.577 42.936 128.748 42.936ZM130.761 40.6419C130.181 40.8115 129.777 40.7332 129.775 41.4405C129.774 42.1479 130.194 42.0865 130.605 42.0615C131.035 42.0389 131.635 42.0873 131.565 41.4349C131.533 41.1402 131.043 40.9044 130.761 40.6419ZM129.698 40.2463C130.425 40.0371 130.917 39.9119 131.39 39.7327C131.434 39.7165 131.39 39.1973 131.332 39.1852C130.887 39.0907 130.421 39.0035 129.979 39.06C129.875 39.0738 129.835 39.6382 129.702 40.2463H129.698Z" fill="#221E1F"/>
<path d="M89.1638 42.9378C89.1638 41.4109 89.1482 39.9646 89.1878 38.52C89.1878 38.3779 89.5226 38.1437 89.7159 38.1268C90.2922 38.0767 90.8901 38.0298 91.4501 38.1421C91.9238 38.2374 92.5482 38.4392 92.7563 38.8075C92.9769 39.1991 92.7851 39.8419 92.768 40.6147C93.0289 40.8569 93.2588 41.4278 92.9668 42.0835C92.646 42.8046 92.0178 42.9613 91.3111 42.9419C90.6315 42.9241 89.9505 42.9378 89.1638 42.9378ZM90.251 42.0391C90.6828 42.0391 91.0688 42.1198 91.4019 42.0133C91.6349 41.939 91.805 41.6208 92.003 41.4117C91.7957 41.2179 91.6147 40.9272 91.374 40.8537C91.0377 40.7568 90.6572 40.8295 90.251 40.8295V42.0391ZM90.2386 40.0365C90.6517 40.0365 91.0486 40.0995 91.4112 40.0106C91.5984 39.9646 91.7995 39.6675 91.8469 39.4502C91.8694 39.3372 91.5751 39.0538 91.3942 39.0198C91.0253 38.9512 90.6362 38.9997 90.2386 38.9997V40.0365Z" fill="#221E1F"/>
<path d="M97.3543 39.8961C96.2042 40.8651 95.9098 42.539 94.2945 43.1099V38.2149C94.9717 37.9726 95.3375 38.0905 95.2815 38.919C95.2381 39.5731 95.273 40.2336 95.273 41.1445L96.5389 39.4068C96.7944 39.0571 97.011 38.6622 97.3201 38.3748C97.5026 38.2052 97.8373 38.1325 98.0913 38.16C98.207 38.1713 98.3747 38.5161 98.3794 38.7123C98.4058 39.9236 98.4182 41.1292 98.3677 42.3347C98.3592 42.5407 98.026 42.7328 97.8428 42.9307C97.6797 42.7183 97.3947 42.5156 97.3768 42.2911C97.3209 41.5313 97.3543 40.7642 97.3543 39.8961Z" fill="#221E1F"/>
<path d="M86.6928 42.5551C86.1064 42.732 85.6389 42.9306 85.1528 43.0065C84.349 43.1333 83.8326 42.7788 83.6982 42.1086C83.4862 41.0362 83.8139 40.2796 84.6721 40.0898C85.2809 39.9534 85.9216 39.9679 86.5809 39.9122C86.7254 39.2605 86.4256 38.9432 85.8245 38.9181C85.4052 38.8971 84.9796 38.9916 84.5633 38.9577C84.3832 38.9432 84.2178 38.7356 84.0453 38.6153C84.1913 38.4611 84.3125 38.239 84.4896 38.1688C84.7536 38.0638 85.0573 38.059 85.3438 38.0242C87.1114 37.8111 87.669 38.319 87.6806 40.1504C87.6806 40.6171 87.6752 41.083 87.6853 41.549C87.6853 41.7105 87.6759 41.9301 87.7629 42.0189C88.0076 42.2612 88.4533 42.5123 88.0114 42.8119C87.7505 42.9887 87.2465 42.7925 86.8559 42.7311C86.7798 42.7215 86.7169 42.5826 86.6928 42.5551ZM86.6928 40.8028C86.087 40.8028 85.6366 40.7366 85.2172 40.8311C85.0122 40.8779 84.794 41.1969 84.7233 41.4375C84.6744 41.6071 84.8786 42.0383 84.9462 42.0343C85.423 42.0028 85.9278 41.9624 86.3526 41.7621C86.5452 41.6741 86.5662 41.205 86.6967 40.8028H86.6928Z" fill="#221E1F"/>
<path d="M20.9641 39.9673C21.062 39.1824 20.7482 38.8828 20.1875 38.8643C19.7418 38.8497 19.2929 38.945 18.8479 38.9264C18.6988 38.92 18.5023 38.7294 18.4379 38.5727C18.4029 38.492 18.5932 38.1843 18.6934 38.1779C19.5259 38.1205 20.37 38.0253 21.1924 38.1149C21.7796 38.1787 22.0149 38.748 22.0257 39.3528C22.0374 40.0384 22.0257 40.7255 22.0413 41.4111C22.0552 41.6238 22.0989 41.8333 22.171 42.0329C22.2486 42.2751 22.3643 42.5053 22.463 42.7402C22.1182 42.7766 21.6141 42.9825 21.4588 42.821C21.0239 42.3712 20.6923 42.6086 20.2939 42.7733C20.0496 42.8732 19.7923 42.9347 19.5305 42.9558C18.5676 43.0366 18.1466 42.7281 18.055 41.9109C17.923 40.7683 18.3214 40.0965 19.2727 39.9826C19.8109 39.914 20.3677 39.9673 20.9641 39.9673ZM20.3211 40.6561C19.7728 40.69 19.1446 40.6319 19.0669 41.4402C19.0281 41.8439 19.2393 42.1718 19.6812 42.0765C20.2116 41.9626 20.9105 42.0636 21.0286 41.2367C21.1117 40.6561 20.7273 40.6311 20.3211 40.6561Z" fill="#221E1F"/>
<path d="M44.7287 40.7715C44.7955 41.7785 45.0393 42.0344 45.8804 42.0538C46.0357 42.0538 46.1965 42.0272 46.3533 42.0377C46.7145 42.0619 47.2853 41.6258 47.3124 42.3728C47.3186 42.5496 46.7183 42.8169 46.3642 42.9178C46.0101 43.0188 45.6327 42.963 45.2653 42.9525C45.0816 42.9463 44.8999 42.9097 44.7271 42.8443C43.8325 42.4995 43.6508 41.692 43.6205 40.849C43.5856 39.859 43.5654 38.8109 44.5524 38.2335C45.3104 37.7886 46.1297 37.8249 46.8822 38.2973C47.4491 38.6534 47.8304 39.6701 47.6106 40.3274C47.5439 40.526 47.2138 40.7311 46.9894 40.7513C46.2601 40.8046 45.5232 40.7715 44.7287 40.7715ZM46.5335 39.9575C46.5211 39.2542 46.2306 38.8545 45.5954 38.8666C44.9904 38.8787 44.752 39.2962 44.7365 39.9575H46.5335Z" fill="#221E1F"/>
<path d="M28.2015 40.5404C28.1727 38.6582 29.0208 37.7723 30.664 37.9831C30.9002 38.0123 31.1304 38.0804 31.3459 38.185C32.3236 38.6695 32.691 40.9305 31.999 42.1296C31.5004 42.992 29.896 43.2859 29.0029 42.665C28.2651 42.1538 28.224 41.3471 28.2015 40.5404ZM31.2612 40.4597C31.1836 39.9251 31.356 39.0974 30.4427 38.9658C30.1437 38.923 29.5543 39.1475 29.5232 39.3284C29.4019 40.0609 29.3828 40.8077 29.4665 41.5458C29.4898 41.7477 30.0513 42.0892 30.2571 42.019C30.619 41.897 30.9289 41.5345 31.1937 41.2115C31.3008 41.0766 31.2364 40.7884 31.2589 40.4557L31.2612 40.4597Z" fill="#221E1F"/>
<path d="M64.7968 40.8214C64.9063 42.0327 64.9063 42.0327 67.2648 42.0553C67.5327 42.5204 67.4015 42.8079 66.8882 42.9096C66.6023 42.9633 66.3137 42.9997 66.0238 43.0186C64.4566 43.1365 63.7577 42.4905 63.7002 40.8674C63.6862 40.5381 63.6932 40.2082 63.7212 39.8799C63.8369 38.6387 64.6112 37.9378 65.7862 37.9919C67.0163 38.0476 67.6655 38.755 67.7106 40.0293C67.73 40.5864 67.5413 40.8424 66.9891 40.8263C66.2607 40.8053 65.5315 40.8214 64.7968 40.8214ZM66.5667 40.0325C66.5845 39.2597 66.2824 38.8963 65.6293 38.9311C65.0026 38.965 64.7875 39.3711 64.848 40.0325H66.5667Z" fill="#221E1F"/>
<path d="M137.819 40.6278C137.792 42.1119 137.369 42.7717 136.324 42.9655C134.44 43.3143 133.514 42.2662 133.757 40.0585C133.942 38.3627 135.043 37.6166 136.606 38.1318C137.495 38.4233 137.846 39.146 137.819 40.6278ZM134.737 40.5801C134.791 40.8773 134.763 41.2334 134.918 41.4474C135.114 41.7203 135.461 42.0489 135.737 42.0409C136.053 42.0312 136.572 41.7292 136.628 41.4684C136.759 40.837 136.756 40.1838 136.62 39.5538C136.563 39.3002 136.03 39.0152 135.712 39.0128C135.44 39.0128 135.091 39.343 134.915 39.6216C134.758 39.8703 134.79 40.2523 134.737 40.5801Z" fill="#221E1F"/>
<path d="M105.198 40.8221C105.188 41.733 105.566 42.081 106.261 42.0858C106.63 42.0858 107.001 42.0317 107.368 42.0535C107.516 42.0624 107.774 42.2086 107.774 42.2958C107.774 42.471 107.682 42.7302 107.547 42.8093C105.917 43.7646 104.144 42.7286 104.122 40.8237C104.122 40.5492 104.122 40.2746 104.135 40.0009C104.207 38.6846 104.928 37.974 106.16 37.9958C107.393 38.0177 108.094 38.7613 108.132 40.0663C108.148 40.5823 107.977 40.839 107.458 40.8294C106.725 40.8124 105.991 40.8221 105.198 40.8221ZM107.006 40.0307C106.987 39.3702 106.797 38.9325 106.111 38.9309C105.439 38.9309 105.231 39.3541 105.203 40.0307H107.006Z" fill="#221E1F"/>
<path d="M42.5157 40.5357C42.5056 42.208 41.9853 42.9017 40.6938 42.9671C39.1857 43.0422 38.5038 42.3736 38.4751 40.7868C38.4751 40.5955 38.4751 40.4025 38.4798 40.2111C38.5132 38.6768 39.1655 37.9549 40.5036 37.9654C41.8867 37.9751 42.5017 38.6599 42.5165 40.2046C42.5173 40.3161 42.5165 40.4259 42.5157 40.5357ZM41.5263 40.6092C41.4891 39.8469 41.5357 39.0992 40.6977 38.9675C40.3972 38.9207 39.8007 39.1347 39.7658 39.3115C39.6347 40.0414 39.6112 40.7877 39.6959 41.5249C39.7215 41.7348 40.2884 42.0514 40.5595 42.0094C40.8748 41.9577 41.1901 41.6056 41.406 41.3028C41.5465 41.109 41.503 40.778 41.5263 40.6092Z" fill="#221E1F"/>
<path d="M108.826 43.0162C108.928 42.7102 108.948 42.304 109.104 42.2354C109.712 41.9689 109.782 41.4432 109.841 40.8958C109.914 40.2158 109.979 39.5343 110.023 38.8512C110.054 38.3489 110.281 38.1478 110.767 38.1059C113.346 37.8822 113.345 37.8725 113.346 40.5574C113.346 41.3173 113.346 42.0771 113.346 42.8854H112.318V39.1419C110.984 38.8374 110.915 38.8932 110.831 40.1537C110.8 40.6172 110.748 41.0799 110.687 41.5409C110.531 42.707 110.201 42.9977 108.826 43.0162Z" fill="#221E1F"/>
<path d="M57.1703 42.8361C56.4605 43.0888 56.1988 42.8619 56.2268 42.1336C56.2648 41.125 56.2361 40.1148 56.2361 39.0416H54.2348V42.8781H53.2307C53.2307 41.3995 53.2182 39.9541 53.2516 38.5095C53.2516 38.3714 53.5421 38.1292 53.7028 38.1243C54.8351 38.0904 55.9689 38.1058 57.1711 38.1058L57.1703 42.8361Z" fill="#221E1F"/>
<path d="M27.6193 42.8004C26.1671 43.3268 26.1011 41.9355 25.4573 41.3404C24.805 41.8895 24.7288 43.3212 23.2991 42.7987C23.7301 42.135 24.113 41.4882 24.5541 40.8882C24.8104 40.5394 24.7956 40.2898 24.5541 39.9515C24.1619 39.4056 23.8163 38.821 23.4172 38.2033C24.7475 37.5952 24.8275 38.9558 25.4402 39.4839C26.0848 39.0366 26.1391 37.6057 27.5269 38.1831C27.1332 38.7863 26.7845 39.379 26.3768 39.9256C26.1011 40.2947 26.1143 40.5716 26.3768 40.9366C26.8117 41.5342 27.2008 42.1673 27.6193 42.8004Z" fill="#221E1F"/>
<path d="M114.615 38.1631L115.617 38.0969C115.617 38.5241 115.638 38.8947 115.612 39.2613C115.576 39.7588 115.756 39.976 116.247 39.9227C116.51 39.8997 116.774 39.8997 117.037 39.9227C117.924 39.9832 118.397 40.4411 118.441 41.2655C118.489 42.1691 118.014 42.7853 117.146 42.9145C116.884 42.9411 116.619 42.9492 116.356 42.9387C115.807 42.9387 115.26 42.9387 114.615 42.9387V38.1623V38.1631ZM115.508 40.6034C115.648 41.2672 115.696 41.9463 115.81 41.9584C116.301 42.0117 116.819 41.8978 117.309 41.7686C117.386 41.7484 117.43 41.1533 117.386 41.138C116.851 40.9474 116.297 40.8174 115.508 40.6034Z" fill="#221E1F"/>
<path d="M77.0644 38.8045C76.6303 39.0338 75.915 39.1784 75.8218 39.5102C75.6366 40.2095 75.6479 40.9493 75.8544 41.642C76.0595 42.2929 76.7864 42.0845 77.33 42.0595C77.6561 42.0434 78.112 41.8552 78.0973 42.4092C78.0918 42.5973 77.6624 42.8824 77.3983 42.9292C76.905 43.012 76.4025 43.016 75.908 42.9413C75.2176 42.8396 74.7742 42.3882 74.6445 41.6574C74.5757 41.3084 74.5349 40.954 74.5226 40.5979C74.4892 38.4863 75.5135 37.6215 77.4946 38.1197C77.7377 38.1811 77.9249 38.4847 78.1376 38.6761C77.8884 38.7859 77.6414 38.9022 77.3874 38.9991C77.3191 39.0249 77.2321 38.9942 77.1545 38.9894L77.0644 38.8045Z" fill="#221E1F"/>
<path d="M121.972 38.7984C121.539 39.0261 120.816 39.1739 120.735 39.4969C120.562 40.1873 120.671 40.977 120.781 41.707C120.806 41.8685 121.296 42.0179 121.588 42.0704C121.892 42.1245 122.22 42.022 122.532 42.0526C122.703 42.0704 122.861 42.2214 123.025 42.3127C122.914 42.4992 122.844 42.785 122.686 42.8561C120.899 43.6555 119.469 42.6841 119.45 40.6823C119.442 40.4083 119.45 40.1341 119.474 39.8611C119.606 38.5998 120.232 37.999 121.45 37.9933C121.792 37.9801 122.134 38.029 122.46 38.1379C122.681 38.2227 122.84 38.4851 123.027 38.6692C122.809 38.7831 122.598 38.9115 122.372 39.0051C122.284 39.0407 122.165 38.9922 122.061 38.9817L121.972 38.7984Z" fill="#221E1F"/>
<path d="M7.02115 41.9382C7.34965 42.5318 7.12443 42.8564 6.60256 42.8879C5.9541 42.9266 5.26371 42.9751 4.65563 42.791C3.68799 42.497 3.36182 41.2842 3.64606 39.561C3.81147 38.5484 4.42265 37.9823 5.45397 37.9783C5.92537 37.9823 6.39462 38.0447 6.85185 38.164C6.98154 38.1955 7.14074 38.4927 7.12366 38.6485C7.10968 38.7761 6.86816 38.9239 6.70274 38.9715C6.53733 39.0191 6.33774 38.9642 6.15369 38.9586C5.659 38.9457 4.98879 38.7971 4.86531 39.4245C4.72475 40.1343 4.79309 40.92 4.93521 41.6379C4.97559 41.8389 5.5891 41.981 5.9541 42.0311C6.30357 42.0812 6.67634 41.9746 7.02115 41.9382Z" fill="#221E1F"/>
<path d="M80.4263 42.8313V39.0361L78.9904 38.9359V38.1147C80.2097 38.1147 81.3917 38.0905 82.5698 38.143C82.7251 38.1502 82.8672 38.5427 83.1375 38.9343L81.4755 39.0151C81.4755 40.0576 81.4398 41.0645 81.4872 42.0682C81.5198 42.8079 81.2923 43.1042 80.4263 42.8313Z" fill="#221E1F"/>
<path d="M9.48464 42.8266V39.0015L8.10229 38.9263V38.051C9.25399 38.051 10.3847 38.0373 11.5147 38.0559C12.1476 38.0664 11.9239 38.5178 11.9224 38.9215L10.4826 38.9926C10.4826 40.0286 10.4515 41.059 10.4927 42.0869C10.5245 42.7926 10.2923 43.0648 9.48464 42.8266Z" fill="#221E1F"/>
<path d="M99.4038 38.9421C99.2166 38.3292 99.3681 38.0862 99.9295 38.1007C100.854 38.1249 101.779 38.1217 102.704 38.1007C103.276 38.0878 103.393 38.3583 103.215 38.926L101.825 39.0406C101.825 40.0815 101.793 41.0917 101.836 42.0994C101.868 42.8666 101.597 43.1024 100.827 42.8262V39.031L99.4038 38.9421Z" fill="#221E1F"/>
<path d="M125.382 38.9779C124.907 38.9779 124.561 39.0159 124.229 38.9602C124.084 38.9352 123.841 38.6897 123.865 38.5944C123.904 38.4151 124.098 38.139 124.23 38.1341C125.384 38.0978 126.54 38.1139 127.758 38.1139C127.78 38.3982 127.798 38.6259 127.821 38.9319L126.373 39.0304C126.373 40.0729 126.34 41.0799 126.384 42.0828C126.417 42.8394 126.161 43.0938 125.382 42.8321V38.9779Z" fill="#221E1F"/>
</svg>
