<svg width="24" height="24" viewBox="0 0 24 24" fill="none" xmlns="http://www.w3.org/2000/svg">
<path d="M11.9529 2C6.46488 2 1.99988 6.486 1.99988 12C1.99988 17.514 6.48588 22 11.9999 22C17.5139 22 21.9999 17.514 21.9999 12C21.9999 6.486 17.4929 2 11.9529 2ZM11.9999 20C7.58888 20 3.99988 16.411 3.99988 12C3.99988 7.589 7.56688 4 11.9529 4C16.3909 4 19.9999 7.589 19.9999 12C19.9999 16.411 16.4109 20 11.9999 20Z" fill="#221E1F"/>
<path d="M10.9999 7H12.9999V14H10.9999V7ZM10.9999 15H12.9999V17H10.9999V15Z" fill="#221E1F"/>
</svg>
