<svg width="30" height="30" viewBox="0 0 30 30" fill="none" xmlns="http://www.w3.org/2000/svg">
<path d="M10.8449 6.7351C10.9272 7.17479 11.3634 7.52154 11.8779 7.42533C12.3774 7.32104 12.6616 6.84203 12.5681 6.39174C12.4584 5.86814 11.9412 5.57647 11.4513 5.7226C11.0136 5.8532 10.7547 6.30514 10.8449 6.7351Z" fill="#727272"/>
<path d="M29.7796 19.0113C24.9971 5.08984 25.3261 6.04365 25.3057 5.99625C24.8079 4.84409 23.8415 3.9484 22.6543 3.53876C22.4843 3.48011 12.8579 1.22829 12.5797 1.13196C11.7265 0.836461 10.5411 1.00211 9.70896 1.76748L1.45938 9.35845C0.531929 10.2115 0 11.4258 0 12.6902V26.1325C0 27.7167 1.28189 29.0055 2.85758 29.0055H20.5068C22.0825 29.0055 23.3644 27.7167 23.3644 26.1325V24.8333L28.2837 22.7279C29.714 22.109 30.3793 20.4479 29.7796 19.0113ZM20.5068 27.2476H2.85758C2.25117 27.2476 1.75786 26.7474 1.75786 26.1325V12.6902C1.75786 11.9162 2.08283 11.1733 2.64951 10.6521C9.71728 4.14874 5.34864 8.20518 10.9272 3.06056C11.2181 2.79243 11.6198 2.68473 12.0182 2.80485C12.3743 2.91121 11.746 2.39943 20.715 10.6522C21.2815 11.1734 21.6065 11.9162 21.6065 12.6902V26.1325C21.6064 26.7474 21.1131 27.2476 20.5068 27.2476ZM27.5889 21.1132L23.3643 22.9212V12.6902C23.3643 11.4258 22.8324 10.2115 21.905 9.35857L15.7614 3.70547L22.1192 5.21406C22.8132 5.46526 23.3789 5.99109 23.6794 6.66471C28.4528 20.5596 28.1308 19.627 28.1517 19.6751C28.3917 20.2299 28.1378 20.8757 27.5889 21.1132Z" fill="#727272"/>
<path d="M14.1777 11.8535C13.7302 11.6657 13.215 11.8764 13.0271 12.3239L8.74831 22.5219C8.5042 23.1037 8.9354 23.7411 9.55839 23.7411C9.90182 23.7411 10.2281 23.5386 10.3693 23.2021L14.6481 13.0041C14.8359 12.5565 14.6253 12.0413 14.1777 11.8535Z" fill="#727272"/>
<path d="M10.0584 14.3862C10.0584 12.6898 8.81597 11.3098 7.2888 11.3098C5.76163 11.3098 4.51929 12.6898 4.51929 14.3862C4.51929 16.0825 5.76169 17.4626 7.28886 17.4626C8.81603 17.4626 10.0584 16.0825 10.0584 14.3862ZM7.28886 15.7048C6.74046 15.7048 6.27715 15.1009 6.27715 14.3862C6.27715 13.6714 6.7404 13.0676 7.28886 13.0676C7.83731 13.0676 8.30057 13.6714 8.30057 14.3862C8.30051 15.1009 7.83725 15.7048 7.28886 15.7048Z" fill="#727272"/>
<path d="M16.1578 18.2823C14.6306 18.2823 13.3882 19.6624 13.3882 21.3588C13.3882 23.0551 14.6306 24.4352 16.1578 24.4352C17.6849 24.4352 18.9273 23.0551 18.9273 21.3588C18.9273 19.6624 17.6849 18.2823 16.1578 18.2823ZM16.1578 22.6774C15.6094 22.6774 15.146 22.0735 15.146 21.3588C15.146 20.644 15.6093 20.0402 16.1578 20.0402C16.7062 20.0402 17.1695 20.644 17.1695 21.3588C17.1695 22.0735 16.7061 22.6774 16.1578 22.6774Z" fill="#727272"/>
</svg>
