<svg width="30" height="30" viewBox="0 0 30 30" fill="none" xmlns="http://www.w3.org/2000/svg">
<path d="M28.1873 11.186C29.1568 11.186 29.9456 10.3973 29.9456 9.42773V7.15106C29.9456 6.42916 29.5132 5.78931 28.8437 5.51988L15.6592 0.128885C15.2299 -0.044075 14.7653 -0.0410272 14.3468 0.126423C14.3371 0.13035 14.5675 0.0361625 1.15608 5.51993C0.486569 5.78931 0.0541992 6.42922 0.0541992 7.15112V9.42785C0.0541992 10.3974 0.842979 11.1862 1.81251 11.1862H2.8675V24.4321H1.81251C0.842979 24.4321 0.0541992 25.2209 0.0541992 26.1904V28.2418C0.0541992 29.2113 0.842979 30.0001 1.81251 30.0001H28.1872C29.1568 30.0001 29.9455 29.2113 29.9455 28.2418V26.1904C29.9455 25.2209 29.1568 24.4321 28.1872 24.4321H27.1322V11.1862H28.1873V11.186ZM28.1873 26.1903C28.1884 28.2886 28.1931 28.2417 28.1873 28.2417H1.81257V26.1903H28.1873ZM4.62587 24.432V11.186H6.61863V24.432H4.62587ZM8.37694 24.432V11.186H12.2452V24.432H8.37694ZM14.0035 24.432V11.186H15.9963V24.432H14.0035ZM17.7546 24.432V11.186H21.6229V24.432H17.7546ZM23.3812 24.432V11.186H25.374V24.432H23.3812ZM1.81257 9.42773C1.81257 6.97529 1.80993 7.15212 1.81873 7.14854L14.9999 1.7589L28.1811 7.14854C28.1902 7.15218 28.1873 6.98109 28.1873 9.42773C27.8951 9.42773 2.15984 9.42773 1.81257 9.42773Z" fill="#727272"/>
</svg>
