<svg width="30" height="28" viewBox="0 0 30 28" fill="none" xmlns="http://www.w3.org/2000/svg">
<path d="M27.6001 21.159V0.659363H18.849H13.4976H5.28444L5.27214 14.7858H0V27.3409H7.10085V25.9907H27.584C28.9162 25.9907 30 24.9069 30 23.5747C29.9999 22.2479 28.9249 21.1679 27.6001 21.159ZM5.26593 18.0419V25.5059H1.83492V16.6207H5.26593V18.0419ZM15.3324 2.49428H17.0141V4.92943H15.3324V2.49428ZM7.11784 2.49428H13.4976V6.76435H18.849V2.49428H25.7652V21.1588H16.3295C16.1165 21.1588 15.9432 20.9855 15.9432 20.7726C15.9432 20.5596 16.1165 20.3864 16.3295 20.3864H19.614C21.0059 20.3864 22.1384 19.2539 22.1384 17.862C22.1384 16.6191 21.211 15.5454 19.9813 15.3645L17.1239 14.9444C14.4421 14.5501 12.7425 14.9339 10.5445 15.7802L7.10495 17.2541L7.11784 2.49428ZM27.584 24.1557H7.10085V21.6103H7.1012L7.10331 19.2508L11.2197 17.4863C13.4631 16.6241 14.7824 16.4544 16.857 16.7596L19.7144 17.1797C20.0502 17.2291 20.3035 17.5224 20.3035 17.8618C20.3035 18.242 19.9942 18.5512 19.614 18.5512H16.3295C15.1047 18.5512 14.1083 19.5476 14.1083 20.7723C14.1083 21.9971 15.1047 22.9934 16.3295 22.9934H27.584C27.9044 22.9934 28.1651 23.2541 28.1651 23.5746C28.165 23.8951 27.9044 24.1557 27.584 24.1557Z" fill="#727272"/>
</svg>
