<svg width="26" height="30" viewBox="0 0 26 30" fill="none" xmlns="http://www.w3.org/2000/svg">
<path d="M23.6737 30V28.2422H14.8924L25.5661 15.6008H20.7459V0H5.25408V15.6008H0.43396L11.1077 28.2422H2.32795V30H23.6737ZM7.0119 17.3586V1.75782H18.9882V17.3586H21.7813L13.0001 27.7587L4.21872 17.3586H7.0119Z" fill="white"/>
<path d="M11.2181 13.6348L16.7294 5.56384H14.7809L9.26953 13.6348H11.2181Z" fill="white"/>
<path d="M13.8124 11.5017C13.8124 12.943 14.7348 13.7501 15.9569 13.7501C17.1791 13.7501 18.1015 12.943 18.1015 11.5017C18.1015 10.072 17.1791 9.25342 15.9569 9.25342C14.7348 9.25342 13.8124 10.072 13.8124 11.5017ZM16.4643 11.5017C16.4643 12.2743 16.2106 12.5048 15.957 12.5048C15.7033 12.5048 15.4497 12.2743 15.4497 11.5017C15.4497 10.7292 15.7033 10.4987 15.957 10.4987C16.2106 10.4987 16.4643 10.7292 16.4643 11.5017Z" fill="white"/>
<path d="M10.0421 9.94521C11.2642 9.94521 12.1866 9.13814 12.1866 7.69679C12.1866 6.2671 11.2642 5.44849 10.0421 5.44849C8.8199 5.44849 7.89746 6.2671 7.89746 7.69679C7.89752 9.13814 8.8199 9.94521 10.0421 9.94521ZM10.0421 6.69378C10.2957 6.69378 10.5494 6.92435 10.5494 7.69685C10.5494 8.46941 10.2957 8.70003 10.0421 8.70003C9.7884 8.70003 9.53475 8.46941 9.53475 7.69685C9.53475 6.92435 9.7884 6.69378 10.0421 6.69378Z" fill="white"/>
</svg>
