<svg width="30" height="30" viewBox="0 0 30 30" fill="none" xmlns="http://www.w3.org/2000/svg">
<path d="M25.6055 15.7119H22.6689C22.2692 15.7119 21.8822 15.7665 21.514 15.8669C20.7875 14.4389 19.3044 13.4577 17.5954 13.4577H12.4046C10.6956 13.4577 9.21246 14.4389 8.48602 15.8669C8.11775 15.7665 7.7308 15.7119 7.33113 15.7119H4.39453C1.97139 15.7119 0 17.6833 0 20.1064V24.8008C0 26.2547 1.18283 27.4376 2.63672 27.4376H27.3633C28.8172 27.4376 30 26.2547 30 24.8008V20.1064C30 17.6833 28.0286 15.7119 25.6055 15.7119ZM8.01006 17.8523V25.6798H2.63672C2.15209 25.6798 1.75781 25.2855 1.75781 24.8009V20.1065C1.75781 18.6526 2.94064 17.4698 4.39453 17.4698H7.33113C7.56973 17.4698 7.80076 17.5022 8.02072 17.5619C8.01439 17.658 8.01006 17.7547 8.01006 17.8523ZM20.2321 25.6798H9.76787V17.8523C9.76787 16.3984 10.9507 15.2155 12.4046 15.2155H17.5954C19.0493 15.2155 20.2321 16.3984 20.2321 17.8523V25.6798ZM28.2422 24.8009C28.2422 25.2855 27.8479 25.6798 27.3633 25.6798H21.9899V17.8523C21.9899 17.7546 21.9856 17.6579 21.9793 17.5618C22.1992 17.5022 22.4303 17.4697 22.6689 17.4697H25.6055C27.0594 17.4697 28.2422 18.6525 28.2422 20.1064V24.8009Z" fill="#727272"/>
<path d="M5.8628 7.41241C3.70954 7.41241 1.95776 9.16419 1.95776 11.3175C1.95771 13.4707 3.70954 15.2225 5.8628 15.2225C8.01601 15.2225 9.76784 13.4707 9.76784 11.3175C9.76784 9.16419 8.01606 7.41241 5.8628 7.41241ZM5.86274 13.4647C4.67874 13.4647 3.71552 12.5015 3.71552 11.3175C3.71552 10.1335 4.67874 9.17023 5.86274 9.17023C7.04675 9.17023 8.00997 10.1335 8.00997 11.3175C8.00997 12.5015 7.04675 13.4647 5.86274 13.4647Z" fill="#727272"/>
<path d="M15 2.56224C12.1233 2.56224 9.78296 4.90259 9.78296 7.77931C9.78296 10.656 12.1233 12.9964 15 12.9964C17.8767 12.9964 20.2171 10.656 20.2171 7.77931C20.2171 4.90265 17.8767 2.56224 15 2.56224ZM15 11.2386C13.0926 11.2386 11.5408 9.68677 11.5408 7.77931C11.5408 5.87191 13.0926 4.32005 15 4.32005C16.9075 4.32005 18.4593 5.87185 18.4593 7.77931C18.4593 9.68677 16.9075 11.2386 15 11.2386Z" fill="#727272"/>
<path d="M24.1371 7.41241C21.9839 7.41241 20.2321 9.16419 20.2321 11.3175C20.2321 13.4707 21.9839 15.2225 24.1371 15.2225C26.2904 15.2225 28.0421 13.4707 28.0421 11.3175C28.0421 9.16419 26.2904 7.41241 24.1371 7.41241ZM24.1371 13.4647C22.9531 13.4647 21.9899 12.5015 21.9899 11.3175C21.9899 10.1335 22.9531 9.17023 24.1371 9.17023C25.3211 9.17023 26.2843 10.1335 26.2843 11.3175C26.2843 12.5015 25.3211 13.4647 24.1371 13.4647Z" fill="#727272"/>
</svg>
