<svg width="30" height="30" viewBox="0 0 30 30" fill="none" xmlns="http://www.w3.org/2000/svg">
<path d="M29.9065 13.8508L25.8727 5.78127C25.7238 5.4835 25.4194 5.29541 25.0865 5.29541H17.644V2.64404C17.644 1.18611 16.4579 0 15 0C13.5421 0 12.356 1.18611 12.356 2.64404V5.29541H4.9135C4.58057 5.29541 4.27629 5.4835 4.12734 5.78127L0.0927539 13.8504C0.0335156 13.9688 0 14.1022 0 14.2435C0 16.9528 2.20418 19.157 4.9135 19.157C7.62281 19.157 9.82699 16.9528 9.82699 14.2435C9.82699 14.1022 9.79283 13.9691 9.73353 13.8508L6.33557 7.05322H12.3559V24.7119H11.4697C9.0385 24.7119 7.06055 26.6899 7.06055 29.1211C7.06055 29.6065 7.45406 30 7.93945 30H22.0605C22.5459 30 22.9395 29.6065 22.9395 29.1211C22.9395 26.6899 20.9615 24.7119 18.5303 24.7119H17.644V7.05322H23.6644L20.2658 13.8504C20.2065 13.9688 20.1729 14.1022 20.1729 14.2435C20.1729 16.9528 22.3771 19.157 25.0864 19.157C27.7958 19.157 29.9999 16.9528 29.9999 14.2435C30 14.1022 29.9658 13.9691 29.9065 13.8508ZM4.9135 8.13961L7.52601 13.3646H2.30098L4.9135 8.13961ZM4.9135 17.3992C3.4783 17.3992 2.26383 16.4361 1.88232 15.1224H7.94467C7.56316 16.4361 6.34869 17.3992 4.9135 17.3992ZM8.96807 28.2422C9.33146 27.2109 10.3157 26.4697 11.4697 26.4697H18.5303C19.6843 26.4697 20.6685 27.2109 21.0319 28.2422H8.96807ZM14.1138 24.7119V7.05322H15.8862V24.7119H14.1138ZM14.1138 5.29541V2.64404C14.1138 2.15537 14.5113 1.75781 15 1.75781C15.4887 1.75781 15.8862 2.15537 15.8862 2.64404V5.29541H14.1138ZM27.699 13.3646H22.474L25.0866 8.13961L27.699 13.3646ZM25.0865 17.3992C23.6513 17.3992 22.4368 16.4361 22.0553 15.1224H28.1177C27.7361 16.4361 26.5216 17.3992 25.0865 17.3992Z" fill="#727272"/>
</svg>
